g All_Ink
v -0.2937734 -0.3127551 -0.1831653
v -0.3200723 -0.3125159 -0.1624902
v -0.4062373 -0.4327759 -0.3332693
v -0.4604053 -0.4504956 -0.2386005
v -0.3407543 -0.3066553 -0.1167743
v -0.5035083 -0.438916 -0.1402032
v -0.3549973 -0.2983752 -0.07226257
v -0.5308093 -0.4030261 -0.0375531
v -0.3532533 -0.2780652 -0.02222168
v -0.5332513 -0.3506055 0.05601745
v -0.3460613 -0.2590161 0.0195404
v -0.5143983 -0.2894556 0.1386914
v -0.3326513 -0.2558752 0.05754577
v -0.4685963 -0.2130261 0.1968597
v -0.3068293 -0.2505859 0.08259338
v -0.4087073 -0.1526855 0.2304205
v -0.2613184 -0.2358057 0.0958435
v -0.3372203 -0.1090356 0.2482849
v -0.2027483 -0.2145459 0.1016357
v -0.2529383 -0.07166626 0.2561249
v -0.1379993 -0.1917261 0.09872375
v -0.1577634 -0.03817627 0.2511847
v -0.0616716 -0.168136 0.08443664
v -0.07794746 -0.01163574 0.2382135
v 0.02568893 -0.1407959 0.06892273
v 0.001189804 0.01331421 0.2258807
v 0.114772 -0.1089062 0.05366577
v 0.08067734 0.04017456 0.2141077
v 0.2110326 -0.06505615 0.04228943
v 0.1418383 0.06308471 0.2038763
v 0.3068213 -0.001065674 0.0436145
v 0.2029938 0.09541382 0.2062427
v 0.3919678 0.07810424 0.05672546
v 0.2597949 0.1394543 0.2168988
v 0.4532451 0.1601648 0.07931091
v 0.3000519 0.1802246 0.2309277
v -0.2937734 -0.3127551 -0.1831653
v -0.4062373 -0.4327759 -0.3332693
v -0.3200723 -0.3125159 -0.1624902
v -0.4604053 -0.4504956 -0.2386005
v -0.3407543 -0.3066553 -0.1167743
v -0.5035083 -0.438916 -0.1402032
v -0.3549973 -0.2983752 -0.07226257
v -0.5308093 -0.4030261 -0.0375531
v -0.3532533 -0.2780652 -0.02222168
v -0.5332513 -0.3506055 0.05601745
v -0.3460613 -0.2590161 0.0195404
v -0.5143983 -0.2894556 0.1386914
v -0.3326513 -0.2558752 0.05754577
v -0.4685963 -0.2130261 0.1968597
v -0.3068293 -0.2505859 0.08259338
v -0.4087073 -0.1526855 0.2304205
v -0.2613184 -0.2358057 0.0958435
v -0.3372203 -0.1090356 0.2482849
v -0.2027483 -0.2145459 0.1016357
v -0.2529383 -0.07166626 0.2561249
v -0.1379993 -0.1917261 0.09872375
v -0.1577634 -0.03817627 0.2511847
v -0.0616716 -0.168136 0.08443664
v -0.07794746 -0.01163574 0.2382135
v 0.02568893 -0.1407959 0.06892273
v 0.001189804 0.01331421 0.2258807
v 0.114772 -0.1089062 0.05366577
v 0.08067734 0.04017456 0.2141077
v 0.2110326 -0.06505615 0.04228943
v 0.1418383 0.06308471 0.2038763
v 0.3068213 -0.001065674 0.0436145
v 0.2029938 0.09541382 0.2062427
v 0.3919678 0.07810424 0.05672546
v 0.2597949 0.1394543 0.2168988
v 0.4532451 0.1601648 0.07931091
v 0.3000519 0.1802246 0.2309277
v 0.4532451 0.1601648 0.07931091
v 0.4890561 0.2373047 0.1080066
v 0.3000519 0.1802246 0.2309277
v 0.3249777 0.2249341 0.2523303
v 0.5099506 0.3067444 0.1375995
v 0.3416162 0.2787146 0.2773334
v 0.5249861 0.3779346 0.1700159
v 0.353016 0.3360547 0.3025934
v 0.4532451 0.1601648 0.07931091
v 0.3000519 0.1802246 0.2309277
v 0.4890561 0.2373047 0.1080066
v 0.3249777 0.2249341 0.2523303
v 0.5099506 0.3067444 0.1375995
v 0.3416162 0.2787146 0.2773334
v 0.5249861 0.3779346 0.1700159
v 0.353016 0.3360547 0.3025934
v 0.5249861 0.3779346 0.1700159
v 0.5332513 0.4504944 0.2040698
v 0.353016 0.3360547 0.3025934
v 0.3599512 0.4034448 0.3332697
v 0.5249861 0.3779346 0.1700159
v 0.353016 0.3360547 0.3025934
v 0.5332513 0.4504944 0.2040698
v 0.3599512 0.4034448 0.3332697
vt 0 0
vt 0.04053117 0
vt 0 0.25
vt 0.04053117 0.25
vt 0.08710103 0
vt 0.08710103 0.25
vt 0.135445 0
vt 0.135445 0.25
vt 0.1835319 0
vt 0.1835319 0.25
vt 0.2304233 0
vt 0.2304233 0.25
vt 0.2735978 0
vt 0.2735978 0.25
vt 0.3149292 0
vt 0.3149292 0.25
vt 0.354165 0
vt 0.354165 0.25
vt 0.3989104 0
vt 0.3989104 0.25
vt 0.4488155 0
vt 0.4488155 0.25
vt 0.4998837 0
vt 0.4998837 0.25
vt 0.5518433 0
vt 0.5518433 0.25
vt 0.6062948 0
vt 0.6062948 0.25
vt 0.6595414 0
vt 0.6595414 0.25
vt 0.7132942 0
vt 0.7132942 0.25
vt 0.7703508 0
vt 0.7703508 0.25
vt 0.822648 0
vt 0.822648 0.25
vt 0 0
vt 0 0.25
vt 0.04053117 0
vt 0.04053117 0.25
vt 0.08710103 0
vt 0.08710103 0.25
vt 0.135445 0
vt 0.135445 0.25
vt 0.1835319 0
vt 0.1835319 0.25
vt 0.2304233 0
vt 0.2304233 0.25
vt 0.2735978 0
vt 0.2735978 0.25
vt 0.3149292 0
vt 0.3149292 0.25
vt 0.354165 0
vt 0.354165 0.25
vt 0.3989104 0
vt 0.3989104 0.25
vt 0.4488155 0
vt 0.4488155 0.25
vt 0.4998837 0
vt 0.4998837 0.25
vt 0.5518433 0
vt 0.5518433 0.25
vt 0.6062948 0
vt 0.6062948 0.25
vt 0.6595414 0
vt 0.6595414 0.25
vt 0.7132942 0
vt 0.7132942 0.25
vt 0.7703508 0
vt 0.7703508 0.25
vt 0.822648 0
vt 0.822648 0.25
vt 0.8226479 0
vt 0.8669879 0
vt 0.8226479 0.25
vt 0.8669879 0.25
vt 0.9097555 0
vt 0.9097555 0.25
vt 0.9531194 0
vt 0.9531194 0.25
vt 0.8226479 0
vt 0.8226479 0.25
vt 0.8669879 0
vt 0.8669879 0.25
vt 0.9097555 0
vt 0.9097555 0.25
vt 0.9531194 0
vt 0.9531194 0.25
vt 0.9531195 0
vt 1 0
vt 0.9531195 0.25
vt 1 0.25
vt 0.9531195 0
vt 0.9531195 0.25
vt 1 0
vt 1 0.25
vn -0.582841 0.7890357 -0.1942141
vn -0.6053072 0.7142515 -0.3513517
vn -0.582841 0.7890357 -0.1942141
vn -0.6053072 0.7142515 -0.3513517
vn -0.6039051 0.7083942 -0.3653442
vn -0.6039051 0.7083942 -0.3653442
vn -0.5458617 0.7213872 -0.4261872
vn -0.5458617 0.7213872 -0.4261872
vn -0.5034776 0.7627274 -0.4059028
vn -0.5034776 0.7627274 -0.4059028
vn -0.4590956 0.7738494 -0.4363351
vn -0.4590956 0.7738494 -0.4363351
vn -0.3835923 0.8157884 -0.4328352
vn -0.3835923 0.8157884 -0.4328352
vn -0.2120845 0.7231214 -0.657355
vn -0.2120845 0.7231214 -0.657355
vn -0.2040771 0.6695015 -0.714227
vn -0.2040771 0.6695015 -0.714227
vn -0.2354687 0.6605289 -0.7129208
vn -0.2354687 0.6605289 -0.7129208
vn -0.2982566 0.6501522 -0.698817
vn -0.2982566 0.6501522 -0.698817
vn -0.3625167 0.641484 -0.6760768
vn -0.3625167 0.641484 -0.6760768
vn -0.3130409 0.6500903 -0.6923786
vn -0.3130409 0.6500903 -0.6923786
vn -0.3431541 0.6457943 -0.6820521
vn -0.3431541 0.6457943 -0.6820521
vn -0.395 0.6347506 -0.6641285
vn -0.395 0.6347506 -0.6641285
vn -0.3853146 0.6378423 -0.6668507
vn -0.3853146 0.6378423 -0.6668507
vn -0.4842679 0.5901811 -0.6458877
vn -0.4842679 0.5901811 -0.6458877
vn -0.5310695 0.5568882 -0.6386241
vn -0.5310695 0.5568882 -0.6386241
vn 0.582841 -0.7890357 0.1942141
vn 0.582841 -0.7890357 0.1942141
vn 0.6053072 -0.7142515 0.3513517
vn 0.6053072 -0.7142515 0.3513517
vn 0.6039051 -0.7083942 0.3653442
vn 0.6039051 -0.7083942 0.3653442
vn 0.5458617 -0.7213872 0.4261872
vn 0.5458617 -0.7213872 0.4261872
vn 0.5034776 -0.7627274 0.4059028
vn 0.5034776 -0.7627274 0.4059028
vn 0.4590956 -0.7738494 0.4363351
vn 0.4590956 -0.7738494 0.4363351
vn 0.3835923 -0.8157884 0.4328352
vn 0.3835923 -0.8157884 0.4328352
vn 0.2120845 -0.7231214 0.657355
vn 0.2120845 -0.7231214 0.657355
vn 0.2040771 -0.6695015 0.714227
vn 0.2040771 -0.6695015 0.714227
vn 0.2354687 -0.6605289 0.7129208
vn 0.2354687 -0.6605289 0.7129208
vn 0.2982566 -0.6501522 0.698817
vn 0.2982566 -0.6501522 0.698817
vn 0.3625167 -0.641484 0.6760768
vn 0.3625167 -0.641484 0.6760768
vn 0.3130409 -0.6500903 0.6923786
vn 0.3130409 -0.6500903 0.6923786
vn 0.3431541 -0.6457943 0.6820521
vn 0.3431541 -0.6457943 0.6820521
vn 0.395 -0.6347506 0.6641285
vn 0.395 -0.6347506 0.6641285
vn 0.3853146 -0.6378423 0.6668507
vn 0.3853146 -0.6378423 0.6668507
vn 0.4842679 -0.5901811 0.6458877
vn 0.4842679 -0.5901811 0.6458877
vn 0.5310695 -0.5568882 0.6386241
vn 0.5310695 -0.5568882 0.6386241
vn -0.5310695 0.5568882 -0.6386241
vn -0.5815675 0.4969872 -0.6440365
vn -0.5310695 0.5568882 -0.6386241
vn -0.5815675 0.4969872 -0.6440365
vn -0.6225165 0.4269474 -0.655888
vn -0.6225165 0.4269474 -0.655888
vn -0.6248119 0.3879458 -0.6775752
vn -0.6248119 0.3879458 -0.6775752
vn 0.5310695 -0.5568882 0.6386241
vn 0.5310695 -0.5568882 0.6386241
vn 0.5815675 -0.4969872 0.6440365
vn 0.5815675 -0.4969872 0.6440365
vn 0.6225165 -0.4269474 0.655888
vn 0.6225165 -0.4269474 0.655888
vn 0.6248119 -0.3879458 0.6775752
vn 0.6248119 -0.3879458 0.6775752
vn -0.6248119 0.3879458 -0.6775752
vn -0.6175202 0.373143 -0.692411
vn -0.6248119 0.3879458 -0.6775752
vn -0.6175202 0.373143 -0.692411
vn 0.6248119 -0.3879458 0.6775752
vn 0.6248119 -0.3879458 0.6775752
vn 0.6175202 -0.373143 0.692411
vn 0.6175202 -0.373143 0.692411
g All_Ink_0
f 3/3/3 2/2/2 1/1/1
f 4/4/4 2/2/2 3/3/3
f 4/4/4 5/5/5 2/2/2
f 6/6/6 5/5/5 4/4/4
f 6/6/6 7/7/7 5/5/5
f 8/8/8 7/7/7 6/6/6
f 8/8/8 9/9/9 7/7/7
f 10/10/10 9/9/9 8/8/8
f 10/10/10 11/11/11 9/9/9
f 12/12/12 11/11/11 10/10/10
f 12/12/12 13/13/13 11/11/11
f 14/14/14 13/13/13 12/12/12
f 14/14/14 15/15/15 13/13/13
f 16/16/16 15/15/15 14/14/14
f 16/16/16 17/17/17 15/15/15
f 18/18/18 17/17/17 16/16/16
f 18/18/18 19/19/19 17/17/17
f 20/20/20 19/19/19 18/18/18
f 20/20/20 21/21/21 19/19/19
f 22/22/22 21/21/21 20/20/20
f 22/22/22 23/23/23 21/21/21
f 24/24/24 23/23/23 22/22/22
f 24/24/24 25/25/25 23/23/23
f 26/26/26 25/25/25 24/24/24
f 26/26/26 27/27/27 25/25/25
f 28/28/28 27/27/27 26/26/26
f 28/28/28 29/29/29 27/27/27
f 30/30/30 29/29/29 28/28/28
f 30/30/30 31/31/31 29/29/29
f 32/32/32 31/31/31 30/30/30
f 32/32/32 33/33/33 31/31/31
f 34/34/34 33/33/33 32/32/32
f 34/34/34 35/35/35 33/33/33
f 36/36/36 35/35/35 34/34/34
f 39/39/39 38/38/38 37/37/37
f 39/39/39 40/40/40 38/38/38
f 41/41/41 40/40/40 39/39/39
f 41/41/41 42/42/42 40/40/40
f 43/43/43 42/42/42 41/41/41
f 43/43/43 44/44/44 42/42/42
f 45/45/45 44/44/44 43/43/43
f 45/45/45 46/46/46 44/44/44
f 47/47/47 46/46/46 45/45/45
f 47/47/47 48/48/48 46/46/46
f 49/49/49 48/48/48 47/47/47
f 49/49/49 50/50/50 48/48/48
f 51/51/51 50/50/50 49/49/49
f 51/51/51 52/52/52 50/50/50
f 53/53/53 52/52/52 51/51/51
f 53/53/53 54/54/54 52/52/52
f 55/55/55 54/54/54 53/53/53
f 55/55/55 56/56/56 54/54/54
f 57/57/57 56/56/56 55/55/55
f 57/57/57 58/58/58 56/56/56
f 59/59/59 58/58/58 57/57/57
f 59/59/59 60/60/60 58/58/58
f 61/61/61 60/60/60 59/59/59
f 61/61/61 62/62/62 60/60/60
f 63/63/63 62/62/62 61/61/61
f 63/63/63 64/64/64 62/62/62
f 65/65/65 64/64/64 63/63/63
f 65/65/65 66/66/66 64/64/64
f 67/67/67 66/66/66 65/65/65
f 67/67/67 68/68/68 66/66/66
f 69/69/69 68/68/68 67/67/67
f 69/69/69 70/70/70 68/68/68
f 71/71/71 70/70/70 69/69/69
f 71/71/71 72/72/72 70/70/70
f 75/75/75 74/74/74 73/73/73
f 76/76/76 74/74/74 75/75/75
f 76/76/76 77/77/77 74/74/74
f 78/78/78 77/77/77 76/76/76
f 78/78/78 79/79/79 77/77/77
f 80/80/80 79/79/79 78/78/78
f 83/83/83 82/82/82 81/81/81
f 83/83/83 84/84/84 82/82/82
f 85/85/85 84/84/84 83/83/83
f 85/85/85 86/86/86 84/84/84
f 87/87/87 86/86/86 85/85/85
f 87/87/87 88/88/88 86/86/86
f 91/91/91 90/90/90 89/89/89
f 92/92/92 90/90/90 91/91/91
f 95/95/95 94/94/94 93/93/93
f 95/95/95 96/96/96 94/94/94
