g Circle
v 0.9807851 0.1950914 0
v 1 9.655992E-07 0
v 0.9807854 -0.1950895 0
v 0.9238799 -0.3826827 0
v 0.9238791 0.3826845 0
v 0.83147 -0.5555696 0
v 0.8314689 0.5555713 0
v 0.7071072 -0.7071064 0
v 0.7071059 0.7071077 0
v 0.5555707 -0.8314693 0
v 0.5555691 0.8314704 0
v 0.3826839 -0.9238793 0
v 0.3826821 0.9238801 0
v 0.1950907 -0.9807852 0
v 0.1950888 0.9807855 0
v 3.258414E-07 -1 0
v 0 1 0
v -0.1950901 -0.9807853 0
v -0.1950903 0.9807853 0
v -0.3826833 -0.9238796 0
v -0.3826835 0.9238795 0
v -0.5555702 -0.8314697 0
v -0.5555702 0.8314696 0
v -0.7071068 -0.7071068 0
v -0.7071068 0.7071068 0
v -0.8314697 0.5555702 0
v -0.8314697 -0.5555702 0
v -0.9238795 0.3826834 0
v -0.9238796 -0.3826833 0
v -0.9807853 0.1950904 0
v -0.9807853 -0.1950902 0
v -1 7.54979E-08 0
v 0 1 -0.01
v -0.1950903 0.9807853 -0.01
v -0.1950901 -0.9807853 -0.01
v 3.258414E-07 -1 -0.009999695
v 0.1950888 0.9807855 -0.01
v 0.1950907 -0.9807852 -0.009999695
v 0.3826821 0.9238801 -0.01
v 0.3826839 -0.9238793 -0.01
v 0.5555691 0.8314704 -0.01
v 0.5555707 -0.8314693 -0.009999695
v 0.7071059 0.7071077 -0.01
v 0.7071072 -0.7071064 -0.01
v 0.8314689 0.5555713 -0.009999695
v 0.83147 -0.5555696 -0.009999695
v 0.9238791 0.3826845 -0.01
v 0.9238799 -0.3826827 -0.01
v 0.9807851 0.1950914 -0.009999695
v 0.9807854 -0.1950895 -0.01
v 1 9.655992E-07 -0.009999695
v -0.3826833 -0.9238796 -0.01
v -0.3826835 0.9238795 -0.01
v -0.5555702 -0.8314697 -0.009999695
v -0.5555702 0.8314696 -0.009999695
v -0.7071068 -0.7071068 -0.01
v -0.7071068 0.7071068 -0.01
v -0.8314697 -0.5555702 -0.009999695
v -0.8314697 0.5555702 -0.009999695
v -0.9238796 -0.3826833 -0.01
v -0.9238795 0.3826834 -0.01
v -0.9807853 0.1950904 -0.01
v -0.9807853 -0.1950902 -0.009999695
v -1 7.54979E-08 -0.009999695
vt 0 0
vt 0 0
vt 0 0
vt 0 0
vt 0 0
vt 0 0
vt 0 0
vt 0 0
vt 0 0
vt 0 0
vt 0 0
vt 0 0
vt 0 0
vt 0 0
vt 0 0
vt 0 0
vt 0 0
vt 0 0
vt 0 0
vt 0 0
vt 0 0
vt 0 0
vt 0 0
vt 0 0
vt 0 0
vt 0 0
vt 0 0
vt 0 0
vt 0 0
vt 0 0
vt 0 0
vt 0 0
vt 0 0
vt 0 0
vt 0 0
vt 0 0
vt 0 0
vt 0 0
vt 0 0
vt 0 0
vt 0 0
vt 0 0
vt 0 0
vt 0 0
vt 0 0
vt 0 0
vt 0 0
vt 0 0
vt 0 0
vt 0 0
vt 0 0
vt 0 0
vt 0 0
vt 0 0
vt 0 0
vt 0 0
vt 0 0
vt 0 0
vt 0 0
vt 0 0
vt 0 0
vt 0 0
vt 0 0
vt 0 0
vn 0.542224 0.1078557 0.8332828
vn 0.8935608 0 0.4489422
vn 0.6918443 -0.1376157 0.7088113
vn 0.5107641 -0.2115649 0.8332829
vn 0.5107637 0.2115659 0.8332828
vn 0.4596756 -0.3071449 0.8332829
vn 0.459675 0.3071459 0.8332829
vn 0.390922 -0.3909215 0.8332829
vn 0.3909213 0.3909223 0.8332828
vn 0.3071455 -0.4596753 0.8332829
vn 0.3071447 0.4596758 0.8332829
vn 0.2115656 -0.5107638 0.8332829
vn 0.2115646 0.5107642 0.8332829
vn 0.1078553 -0.542224 0.8332829
vn 0.1078544 0.5422242 0.8332828
vn 0 -0.5528469 0.8332828
vn 0 0.5528469 0.8332828
vn -0.1078549 -0.5422242 0.8332829
vn -0.1078551 0.5422241 0.8332828
vn -0.2115652 -0.510764 0.8332829
vn -0.2115653 0.5107639 0.8332828
vn -0.3071453 -0.4596754 0.8332828
vn -0.3071453 0.4596754 0.8332828
vn -0.3150078 -0.3150078 0.8952878
vn -0.4987918 0.4987918 0.7088113
vn -0.4596754 0.3071453 0.8332829
vn -0.4596754 -0.3071453 0.8332829
vn -0.5107639 0.2115653 0.8332828
vn -0.5107639 -0.2115653 0.8332828
vn -0.5422241 0.1078551 0.8332828
vn -0.6918442 -0.1376163 0.7088113
vn -0.8935608 0 0.4489422
vn 0 0.5528469 -0.8332828
vn -0.1078551 0.5422241 -0.8332828
vn -0.1078549 -0.5422242 -0.8332829
vn 0 -0.5528469 -0.8332828
vn 0.1078544 0.5422242 -0.8332828
vn 0.1078553 -0.542224 -0.8332829
vn 0.2115646 0.5107642 -0.8332829
vn 0.2115656 -0.5107638 -0.8332829
vn 0.3071447 0.4596758 -0.8332829
vn 0.3071455 -0.4596753 -0.8332829
vn 0.3909213 0.3909223 -0.8332828
vn 0.390922 -0.3909215 -0.8332829
vn 0.459675 0.3071459 -0.8332829
vn 0.4596756 -0.3071449 -0.8332829
vn 0.5107637 0.2115659 -0.8332828
vn 0.5107641 -0.2115649 -0.8332829
vn 0.542224 0.1078557 -0.8332828
vn 0.6918443 -0.1376157 -0.7088113
vn 0.8935608 0 -0.4489422
vn -0.2115652 -0.510764 -0.8332829
vn -0.2115653 0.5107639 -0.8332828
vn -0.3071453 -0.4596754 -0.8332828
vn -0.3071453 0.4596754 -0.8332828
vn -0.3909218 -0.3909218 -0.8332829
vn -0.3909218 0.3909218 -0.8332828
vn -0.4596754 -0.3071453 -0.8332829
vn -0.4596754 0.3071453 -0.8332829
vn -0.4115776 -0.170481 -0.8952878
vn -0.6517029 0.2699442 -0.7088113
vn -0.5422241 0.1078551 -0.8332828
vn -0.6918442 -0.1376163 -0.7088113
vn -0.8935608 0 -0.4489422
g Circle_0
f 3/3/3 2/2/2 1/1/1
f 1/1/1 4/4/4 3/3/3
f 1/1/1 5/5/5 4/4/4
f 5/5/5 6/6/6 4/4/4
f 5/5/5 7/7/7 6/6/6
f 7/7/7 8/8/8 6/6/6
f 7/7/7 9/9/9 8/8/8
f 9/9/9 10/10/10 8/8/8
f 9/9/9 11/11/11 10/10/10
f 11/11/11 12/12/12 10/10/10
f 11/11/11 13/13/13 12/12/12
f 13/13/13 14/14/14 12/12/12
f 13/13/13 15/15/15 14/14/14
f 15/15/15 16/16/16 14/14/14
f 15/15/15 17/17/17 16/16/16
f 17/17/17 18/18/18 16/16/16
f 17/17/17 19/19/19 18/18/18
f 19/19/19 20/20/20 18/18/18
f 19/19/19 21/21/21 20/20/20
f 21/21/21 22/22/22 20/20/20
f 21/21/21 23/23/23 22/22/22
f 23/23/23 24/24/24 22/22/22
f 23/23/23 25/25/25 24/24/24
f 25/25/25 26/26/26 24/24/24
f 26/26/26 27/27/27 24/24/24
f 26/26/26 28/28/28 27/27/27
f 28/28/28 29/29/29 27/27/27
f 28/28/28 30/30/30 29/29/29
f 30/30/30 31/31/31 29/29/29
f 30/30/30 32/32/32 31/31/31
f 17/17/17 33/33/33 19/19/19
f 33/33/33 34/34/34 19/19/19
f 35/35/35 34/34/34 33/33/33
f 36/36/36 35/35/35 33/33/33
f 36/36/36 33/33/33 37/37/37
f 37/37/37 33/33/33 17/17/17
f 38/38/38 36/36/36 37/37/37
f 38/38/38 37/37/37 39/39/39
f 40/40/40 38/38/38 39/39/39
f 40/40/40 39/39/39 41/41/41
f 42/42/42 40/40/40 41/41/41
f 42/42/42 41/41/41 43/43/43
f 44/44/44 42/42/42 43/43/43
f 44/44/44 43/43/43 45/45/45
f 46/46/46 44/44/44 45/45/45
f 46/46/46 45/45/45 47/47/47
f 48/48/48 46/46/46 47/47/47
f 48/48/48 47/47/47 49/49/49
f 50/50/50 48/48/48 49/49/49
f 49/49/49 51/51/51 50/50/50
f 36/36/36 38/38/38 14/14/14
f 16/16/16 36/36/36 14/14/14
f 35/35/35 36/36/36 16/16/16
f 18/18/18 35/35/35 16/16/16
f 52/52/52 35/35/35 18/18/18
f 35/35/35 52/52/52 34/34/34
f 52/52/52 53/53/53 34/34/34
f 52/52/52 54/54/54 53/53/53
f 54/54/54 55/55/55 53/53/53
f 54/54/54 56/56/56 55/55/55
f 56/56/56 57/57/57 55/55/55
f 56/56/56 58/58/58 57/57/57
f 58/58/58 59/59/59 57/57/57
f 58/58/58 60/60/60 59/59/59
f 60/60/60 61/61/61 59/59/59
f 60/60/60 62/62/62 61/61/61
f 60/60/60 63/63/63 62/62/62
f 63/63/63 64/64/64 62/62/62
f 34/34/34 53/53/53 21/21/21
f 19/19/19 34/34/34 21/21/21
f 53/53/53 55/55/55 23/23/23
f 21/21/21 53/53/53 23/23/23
f 55/55/55 57/57/57 25/25/25
f 23/23/23 55/55/55 25/25/25
f 57/57/57 59/59/59 26/26/26
f 25/25/25 57/57/57 26/26/26
f 59/59/59 61/61/61 28/28/28
f 26/26/26 59/59/59 28/28/28
f 61/61/61 62/62/62 30/30/30
f 28/28/28 61/61/61 30/30/30
f 62/62/62 64/64/64 32/32/32
f 30/30/30 62/62/62 32/32/32
f 64/64/64 63/63/63 31/31/31
f 32/32/32 64/64/64 31/31/31
f 63/63/63 60/60/60 29/29/29
f 31/31/31 63/63/63 29/29/29
f 29/29/29 60/60/60 27/27/27
f 60/60/60 58/58/58 27/27/27
f 27/27/27 58/58/58 24/24/24
f 58/58/58 56/56/56 24/24/24
f 24/24/24 56/56/56 22/22/22
f 56/56/56 54/54/54 22/22/22
f 22/22/22 54/54/54 20/20/20
f 54/54/54 52/52/52 20/20/20
f 20/20/20 52/52/52 18/18/18
f 38/38/38 40/40/40 12/12/12
f 14/14/14 38/38/38 12/12/12
f 12/12/12 40/40/40 10/10/10
f 40/40/40 42/42/42 10/10/10
f 10/10/10 42/42/42 8/8/8
f 42/42/42 44/44/44 8/8/8
f 8/8/8 44/44/44 6/6/6
f 44/44/44 46/46/46 6/6/6
f 6/6/6 46/46/46 4/4/4
f 46/46/46 48/48/48 4/4/4
f 4/4/4 48/48/48 3/3/3
f 48/48/48 50/50/50 3/3/3
f 3/3/3 50/50/50 2/2/2
f 50/50/50 51/51/51 2/2/2
f 2/2/2 51/51/51 1/1/1
f 51/51/51 49/49/49 1/1/1
f 1/1/1 49/49/49 5/5/5
f 49/49/49 47/47/47 5/5/5
f 5/5/5 47/47/47 7/7/7
f 47/47/47 45/45/45 7/7/7
f 7/7/7 45/45/45 9/9/9
f 45/45/45 43/43/43 9/9/9
f 9/9/9 43/43/43 11/11/11
f 43/43/43 41/41/41 11/11/11
f 11/11/11 41/41/41 13/13/13
f 41/41/41 39/39/39 13/13/13
f 13/13/13 39/39/39 15/15/15
f 39/39/39 37/37/37 15/15/15
f 15/15/15 37/37/37 17/17/17
