g Cone_002
v -1.126368 1E-06 0.006466
v -1.56783 0.460141 1.205686
v -2.086824 0.460141 1.205686
v -1.56783 -0.438784 1.205686
v -1.308333 0.010678 1.205686
v -2.086824 0.460141 1.205686
v -2.346322 0.010679 1.205686
v -2.346322 0.010679 1.205686
v -2.086824 -0.438783 1.205686
v -1.308333 0.010678 1.205686
v -1.56783 0.460141 1.205686
v -2.086824 -0.438783 1.205686
v -1.56783 -0.438784 1.205686
v -1.56783 0.460141 1.205686
v -1.308333 0.010678 1.205686
v -1.56783 -0.438784 1.205686
v -2.086824 0.460141 1.205686
v -2.086824 -0.438783 1.205686
v -2.346322 0.010679 1.205686
v 1.128683 -1E-06 0.006466
v 2.277949 -0.247668 1.205686
v 2.277949 0.271326 1.205686
v 1.379024 -0.247667 1.205686
v 1.828486 -0.507165 1.205686
v 2.277949 0.271326 1.205686
v 1.828487 0.530824 1.205686
v 1.828487 0.530824 1.205686
v 1.379025 0.271327 1.205686
v 1.828486 -0.507165 1.205686
v 2.277949 -0.247668 1.205686
v 1.379025 0.271327 1.205686
v 1.379024 -0.247667 1.205686
v 1.828487 0.530824 1.205686
v 2.277949 0.271326 1.205686
v 2.277949 -0.247668 1.205686
v 1.828486 -0.507165 1.205686
v 1.379025 0.271327 1.205686
v 1.379024 -0.247667 1.205686
vt 0 0
vt 1 1
vt 1 0
vt 1 1
vt 1 0
vt 1 1
vt 1 0
vt 1 1
vt 1 0
vt 1 1
vt 1 0
vt 1 1
vt 1 0
vt 0.933013 0.25
vt 0.933013 0.75
vt 0.5 1
vt 0.5 0
vt 0.066987 0.75
vt 0.066987 0.25
vt 0 0
vt 1 1
vt 1 0
vt 1 1
vt 1 0
vt 1 1
vt 1 0
vt 1 1
vt 1 0
vt 1 1
vt 1 0
vt 1 1
vt 1 0
vt 0.066987 0.25
vt 0.5 0
vt 0.933013 0.25
vt 0.933013 0.75
vt 0.066987 0.75
vt 0.5 1
vn 0.2304653 -0.00362375 -0.9730738
vn 0.3534945 0.5882383 0.7273358
vn -0.2636693 0.5318992 0.8047122
vn 0.2637742 -0.4409523 0.8578953
vn 0.8061286 0.0002672775 0.5917404
vn -0.2636693 0.5318992 0.8047122
vn -0.9706354 -0.0012375 -0.2405521
vn -0.9706354 -0.0012375 -0.2405521
vn -0.3670488 -0.7412052 0.562041
vn 0.8061286 0.0002672775 0.5917404
vn 0.3534945 0.5882383 0.7273358
vn -0.3670488 -0.7412052 0.562041
vn 0.2637742 -0.4409523 0.8578953
vn 0.3534945 0.5882383 0.7273358
vn 0.8061286 0.0002672775 0.5917404
vn 0.2637742 -0.4409523 0.8578953
vn -0.2636693 0.5318992 0.8047122
vn -0.3670488 -0.7412052 0.562041
vn -0.9706354 -0.0012375 -0.2405521
vn -0.2325501 -0.003807367 -0.972577
vn 0.7360528 -0.467239 0.4898102
vn 0.8310556 0.5249115 -0.183887
vn -0.720441 -0.421109 0.5510281
vn -0.02831499 -0.5552182 0.8312226
vn 0.8310556 0.5249115 -0.183887
vn -0.02948402 0.5578755 0.8294008
vn -0.02948402 0.5578755 0.8294008
vn -0.5432474 0.3172409 0.7773291
vn -0.02831499 -0.5552182 0.8312226
vn 0.7360528 -0.467239 0.4898102
vn -0.5432474 0.3172409 0.7773291
vn -0.720441 -0.421109 0.5510281
vn -0.02948402 0.5578755 0.8294008
vn 0.8310556 0.5249115 -0.183887
vn 0.7360528 -0.467239 0.4898102
vn -0.02831499 -0.5552182 0.8312226
vn -0.5432474 0.3172409 0.7773291
vn -0.720441 -0.421109 0.5510281
g Cone_002_0
f 3/3/3 2/2/2 1/1/1
f 5/5/5 4/4/4 1/1/1
f 7/7/7 6/6/6 1/1/1
f 9/9/9 8/8/8 1/1/1
f 11/11/11 10/10/10 1/1/1
f 13/13/13 12/12/12 1/1/1
f 16/16/16 15/15/15 14/14/14
f 14/14/14 17/17/17 16/16/16
f 17/17/17 18/18/18 16/16/16
f 17/17/17 19/19/19 18/18/18
f 22/22/22 21/21/21 20/20/20
f 24/24/24 23/23/23 20/20/20
f 26/26/26 25/25/25 20/20/20
f 28/28/28 27/27/27 20/20/20
f 30/30/30 29/29/29 20/20/20
f 32/32/32 31/31/31 20/20/20
f 35/35/35 34/34/34 33/33/33
f 33/33/33 36/36/36 35/35/35
f 33/33/33 37/37/37 36/36/36
f 37/37/37 38/38/38 36/36/36
