g Cone1
v 0 0 0
v -0.05000001 0.4 0.08660249
v 0.04999999 0.4 0.0866025
v 0.1 0.4 7.54979E-09
v 0.05000001 0.4 -0.08660249
v -0.1 0.4 -7.54979E-09
v -0.04999999 0.4 -0.0866025
v 0.02405532 0.3987777 -0.01747722
v 0.02973062 0.4095494 -0.02160056
v 0.01135608 0.4095494 -0.03495045
v 0.009188312 0.3987777 -0.02827873
v -0.01135609 0.4095494 -0.03495045
v -0.009188319 0.3987777 -0.02827872
v -0.02973063 0.4095494 -0.02160056
v -0.02405532 0.3987777 -0.01747721
v -0.03674908 0.4095494 2.190415E-09
v -0.02973401 0.3987777 1.699515E-09
v -0.02973062 0.4095494 0.02160056
v -0.02405532 0.3987777 0.01747721
v -0.01135609 0.4095494 0.03495045
v -0.009188312 0.3987777 0.02827872
v 0.01135609 0.4095494 0.03495044
v 0.009188315 0.3987777 0.02827872
v 0.02973062 0.4095494 0.02160056
v 0.02405532 0.3987777 0.01747721
v 0.03674907 0.4095494 0
v 0.02973401 0.3987777 -7.277001E-11
v 0.02973062 0.4095494 -0.02160056
v 0.02405532 0.3987777 -0.01747722
v -0.03864026 0.4214899 2.303139E-09
v -0.03126063 0.4214899 0.02271218
v -0.01194049 0.4214899 0.03674907
v 0.0119405 0.4214899 0.03674907
v 0.03126062 0.4214899 0.02271217
v 0.03864026 0.4214899 0
v 0.03126063 0.4214899 -0.02271218
v -0.02973062 0.4334304 0.02160056
v -0.03674908 0.4334304 2.190415E-09
v -0.03126064 0.4214899 -0.02271217
v -0.0119405 0.4214899 -0.03674907
v 0.01194049 0.4214899 -0.03674908
v 0.03126063 0.4214899 -0.02271218
v 0.01135608 0.4334304 -0.03495045
v 0.02973062 0.4334304 -0.02160056
v -0.01135609 0.4334304 -0.03495045
v -0.02973063 0.4334304 -0.02160056
v 0.02973062 0.4334304 -0.02160056
v 0.009660062 0.4442021 -0.02973062
v 0.02529038 0.4442021 -0.01837454
v -0.009660069 0.4442021 -0.02973062
v -0.02529038 0.4442021 -0.01837453
v -0.03126063 0.4442021 1.863278E-09
v -0.02529038 0.4442021 0.01837454
v -0.009660063 0.4442021 0.02973062
v -0.01135609 0.4334304 0.03495045
v 0.01135609 0.4334304 0.03495044
v 0.02973062 0.4334304 0.02160056
v 0.03674907 0.4334304 0
v 0.009660065 0.4442021 0.02973062
v 0.02529038 0.4442021 0.01837453
v 0.03126062 0.4442021 0
v 0.02529038 0.4442021 -0.01837454
v 0.007018448 0.4527505 0.02160056
v -0.007018447 0.4527505 0.02160056
v 0.01837453 0.4527505 0.01334988
v 0.02271217 0.4527505 0
v 0.01837454 0.4527505 -0.01334988
v 0.003689817 0.458239 0.01135609
v -0.003689816 0.458239 0.01135609
v -0.01837454 0.4527505 0.01334988
v -0.02271218 0.4527505 1.353751E-09
v -0.01837454 0.4527505 -0.01334988
v -0.007018452 0.4527505 -0.02160056
v 0.007018446 0.4527505 -0.02160056
v 0.01837454 0.4527505 -0.01334988
v 0.003689816 0.458239 -0.01135609
v 0.009660064 0.458239 -0.00701845
v -0.003689818 0.458239 -0.01135609
v -0.009660066 0.458239 -0.007018448
v -0.0119405 0.458239 7.11709E-10
v -0.009660064 0.458239 0.007018449
v 0 0.4601302 0
v 0 0.4601302 0
v 0 0.4601302 0
v 0 0.4601302 0
v 0 0.4601302 0
v 0 0.4601302 0
v 0 0.4601302 0
v 0.009660064 0.458239 0.007018448
v 0.0119405 0.458239 0
v 0.009660064 0.458239 -0.00701845
v 0 0.4601302 0
v 0 0.4601302 0
v 0 0.4601302 0
vt 0 0
vt 0 0
vt 0 0
vt 0 0
vt 0 0
vt 0 0
vt 0 0
vt 0 0.3
vt 0 0.4
vt 0.1 0.4
vt 0.1 0.3
vt 0.2 0.4
vt 0.2 0.3
vt 0.3 0.4
vt 0.3 0.3
vt 0.4 0.4
vt 0.4 0.3
vt 0.5 0.4
vt 0.5 0.3
vt 0.6 0.4
vt 0.6 0.3
vt 0.7 0.4
vt 0.7 0.3
vt 0.8000001 0.4
vt 0.8000001 0.3
vt 0.9000001 0.4
vt 0.9000001 0.3
vt 1 0.4
vt 1 0.3
vt 0.4 0.5
vt 0.5 0.5
vt 0.6 0.5
vt 0.7 0.5
vt 0.8000001 0.5
vt 0.9000001 0.5
vt 1 0.5
vt 0.5 0.6
vt 0.4 0.6
vt 0.3 0.5
vt 0.2 0.5
vt 0.1 0.5
vt 0 0.5
vt 0.1 0.6
vt 0 0.6
vt 0.2 0.6
vt 0.3 0.6
vt 1 0.6
vt 0.1 0.7
vt 0 0.7
vt 0.2 0.7
vt 0.3 0.7
vt 0.4 0.7
vt 0.5 0.7
vt 0.6 0.7
vt 0.6 0.6
vt 0.7 0.6
vt 0.8000001 0.6
vt 0.9000001 0.6
vt 0.7 0.7
vt 0.8000001 0.7
vt 0.9000001 0.7
vt 1 0.7
vt 0.7 0.8000001
vt 0.6 0.8000001
vt 0.8000001 0.8000001
vt 0.9000001 0.8000001
vt 1 0.8000001
vt 0.7 0.9000001
vt 0.6 0.9000001
vt 0.5 0.8000001
vt 0.4 0.8000001
vt 0.3 0.8000001
vt 0.2 0.8000001
vt 0.1 0.8000001
vt 0 0.8000001
vt 0.1 0.9000001
vt 0 0.9000001
vt 0.2 0.9000001
vt 0.3 0.9000001
vt 0.4 0.9000001
vt 0.5 0.9000001
vt 0.05 1
vt 0.15 1
vt 0.25 1
vt 0.35 1
vt 0.45 1
vt 0.55 1
vt 0.65 1
vt 0.8000001 0.9000001
vt 0.9000001 0.9000001
vt 1 0.9000001
vt 0.75 1
vt 0.85 1
vt 0.95 1
vn 0 -1 0
vn -0.3658704 0.6815829 0.6337062
vn 0.4732813 0.3225195 0.8197475
vn 0.5490664 0.8357786 0
vn 0.3658704 0.6815829 -0.6337062
vn -0.5490664 0.8357786 0
vn -0.4732813 0.3225195 -0.8197475
vn 0.677928 -0.5457239 -0.4925435
vn 0.7546836 -0.3602908 -0.5483096
vn 0.2882634 -0.3602908 -0.8871837
vn 0.2589454 -0.5457239 -0.7969521
vn -0.2882635 -0.3602908 -0.8871835
vn -0.2589455 -0.5457239 -0.7969521
vn -0.7546835 -0.3602908 -0.5483096
vn -0.677928 -0.545724 -0.4925434
vn -0.93284 -0.3602908 0
vn -0.837965 -0.545724 0
vn -0.7546834 -0.3602908 0.5483097
vn -0.6779279 -0.545724 0.4925435
vn -0.2882634 -0.3602907 0.8871837
vn -0.2589453 -0.5457239 0.7969521
vn 0.2882635 -0.3602907 0.8871837
vn 0.2589455 -0.5457239 0.7969521
vn 0.7546835 -0.3602906 0.5483097
vn 0.6779281 -0.5457239 0.4925435
vn 0.93284 -0.3602907 0
vn 0.8379651 -0.5457237 0
vn 0.7546836 -0.3602908 -0.5483096
vn 0.677928 -0.5457239 -0.4925435
vn -1 0 0
vn -0.809017 0 0.5877854
vn -0.3090169 0 0.9510565
vn 0.3090171 0 0.9510565
vn 0.809017 0 0.5877852
vn 1 0 0
vn 0.809017 0 -0.5877852
vn -0.7692471 0.3096771 0.5588909
vn -0.9508418 0.309677 0
vn -0.8090171 0 -0.5877852
vn -0.309017 0 -0.9510565
vn 0.3090169 0 -0.9510565
vn 0.809017 0 -0.5877852
vn 0.2938262 0.3096771 -0.9043043
vn 0.7692472 0.3096771 -0.5588908
vn -0.2938263 0.3096772 -0.9043043
vn -0.7692472 0.3096771 -0.5588908
vn 0.7692472 0.3096771 -0.5588908
vn 0.249791 0.588715 -0.7687778
vn 0.6539614 0.588715 -0.4751307
vn -0.2497911 0.588715 -0.7687777
vn -0.6539614 0.588715 -0.4751306
vn -0.8083407 0.5887149 0
vn -0.6539613 0.588715 0.4751308
vn -0.2497909 0.588715 0.7687777
vn -0.2938262 0.3096771 0.9043043
vn 0.2938263 0.3096771 0.9043043
vn 0.7692472 0.309677 0.5588908
vn 0.9508418 0.309677 0
vn 0.2497911 0.588715 0.7687777
vn 0.6539614 0.5887148 0.4751308
vn 0.8083408 0.5887148 0
vn 0.6539614 0.588715 -0.4751307
vn 0.1813394 0.8097126 0.5581052
vn -0.1813394 0.8097126 0.5581052
vn 0.4747527 0.8097127 0.344928
vn 0.5868266 0.8097127 0
vn 0.4747526 0.8097127 -0.344928
vn 0.09527096 0.9512881 0.2932137
vn -0.09527092 0.9512881 0.2932138
vn -0.4747527 0.8097127 0.344928
vn -0.5868266 0.8097127 0
vn -0.4747527 0.8097127 -0.344928
vn -0.1813394 0.8097127 -0.5581052
vn 0.1813393 0.8097126 -0.5581052
vn 0.4747526 0.8097127 -0.344928
vn 0.09527092 0.9512881 -0.2932137
vn 0.2494226 0.9512881 -0.181216
vn -0.09527094 0.9512881 -0.2932137
vn -0.2494226 0.9512881 -0.181216
vn -0.3083032 0.9512881 0
vn -0.2494225 0.9512881 0.1812161
vn 0 1 0
vn 0 1 0
vn 0 1 0
vn 0 1 0
vn 0 1 0
vn 0 1 0
vn 0 1 0
vn 0.2494226 0.9512881 0.181216
vn 0.3083032 0.9512881 0
vn 0.2494226 0.9512881 -0.181216
vn 0 1 0
vn 0 1 0
vn 0 1 0
g Cone1_0
f 3/3/3 2/2/2 1/1/1
f 4/4/4 3/3/3 1/1/1
f 2/2/2 3/3/3 4/4/4
f 5/5/5 4/4/4 1/1/1
f 6/6/6 4/4/4 5/5/5
f 6/6/6 2/2/2 4/4/4
f 2/2/2 6/6/6 1/1/1
f 6/6/6 7/7/7 1/1/1
f 5/5/5 7/7/7 6/6/6
f 7/7/7 5/5/5 1/1/1
f 10/10/10 9/9/9 8/8/8
f 11/11/11 10/10/10 8/8/8
f 12/12/12 10/10/10 11/11/11
f 13/13/13 12/12/12 11/11/11
f 14/14/14 12/12/12 13/13/13
f 15/15/15 14/14/14 13/13/13
f 16/16/16 14/14/14 15/15/15
f 17/17/17 16/16/16 15/15/15
f 18/18/18 16/16/16 17/17/17
f 19/19/19 18/18/18 17/17/17
f 20/20/20 18/18/18 19/19/19
f 21/21/21 20/20/20 19/19/19
f 22/22/22 20/20/20 21/21/21
f 23/23/23 22/22/22 21/21/21
f 24/24/24 22/22/22 23/23/23
f 25/25/25 24/24/24 23/23/23
f 26/26/26 24/24/24 25/25/25
f 27/27/27 26/26/26 25/25/25
f 28/28/28 26/26/26 27/27/27
f 29/29/29 28/28/28 27/27/27
f 16/16/16 30/30/30 14/14/14
f 31/31/31 30/30/30 16/16/16
f 18/18/18 31/31/31 16/16/16
f 32/32/32 31/31/31 18/18/18
f 20/20/20 32/32/32 18/18/18
f 33/33/33 32/32/32 20/20/20
f 22/22/22 33/33/33 20/20/20
f 34/34/34 33/33/33 22/22/22
f 24/24/24 34/34/34 22/22/22
f 35/35/35 34/34/34 24/24/24
f 26/26/26 35/35/35 24/24/24
f 36/36/36 35/35/35 26/26/26
f 28/28/28 36/36/36 26/26/26
f 31/31/31 37/37/37 30/30/30
f 37/37/37 38/38/38 30/30/30
f 30/30/30 38/38/38 39/39/39
f 30/30/30 39/39/39 14/14/14
f 14/14/14 39/39/39 12/12/12
f 39/39/39 40/40/40 12/12/12
f 12/12/12 40/40/40 10/10/10
f 40/40/40 41/41/41 10/10/10
f 10/10/10 41/41/41 9/9/9
f 41/41/41 42/42/42 9/9/9
f 41/41/41 43/43/43 42/42/42
f 43/43/43 44/44/44 42/42/42
f 45/45/45 43/43/43 41/41/41
f 40/40/40 45/45/45 41/41/41
f 46/46/46 45/45/45 40/40/40
f 39/39/39 46/46/46 40/40/40
f 38/38/38 46/46/46 39/39/39
f 36/36/36 47/47/47 35/35/35
f 43/43/43 48/48/48 44/44/44
f 48/48/48 49/49/49 44/44/44
f 50/50/50 48/48/48 43/43/43
f 45/45/45 50/50/50 43/43/43
f 51/51/51 50/50/50 45/45/45
f 46/46/46 51/51/51 45/45/45
f 52/52/52 51/51/51 46/46/46
f 38/38/38 52/52/52 46/46/46
f 53/53/53 52/52/52 38/38/38
f 37/37/37 53/53/53 38/38/38
f 54/54/54 53/53/53 37/37/37
f 55/55/55 54/54/54 37/37/37
f 55/55/55 37/37/37 31/31/31
f 32/32/32 55/55/55 31/31/31
f 56/56/56 55/55/55 32/32/32
f 33/33/33 56/56/56 32/32/32
f 57/57/57 56/56/56 33/33/33
f 34/34/34 57/57/57 33/33/33
f 58/58/58 57/57/57 34/34/34
f 35/35/35 58/58/58 34/34/34
f 47/47/47 58/58/58 35/35/35
f 59/59/59 54/54/54 55/55/55
f 56/56/56 59/59/59 55/55/55
f 60/60/60 59/59/59 56/56/56
f 57/57/57 60/60/60 56/56/56
f 61/61/61 60/60/60 57/57/57
f 58/58/58 61/61/61 57/57/57
f 62/62/62 61/61/61 58/58/58
f 47/47/47 62/62/62 58/58/58
f 59/59/59 63/63/63 54/54/54
f 63/63/63 64/64/64 54/54/54
f 65/65/65 63/63/63 59/59/59
f 60/60/60 65/65/65 59/59/59
f 66/66/66 65/65/65 60/60/60
f 61/61/61 66/66/66 60/60/60
f 67/67/67 66/66/66 61/61/61
f 62/62/62 67/67/67 61/61/61
f 63/63/63 68/68/68 64/64/64
f 68/68/68 69/69/69 64/64/64
f 64/64/64 69/69/69 70/70/70
f 64/64/64 70/70/70 53/53/53
f 53/53/53 70/70/70 52/52/52
f 70/70/70 71/71/71 52/52/52
f 52/52/52 71/71/71 51/51/51
f 71/71/71 72/72/72 51/51/51
f 51/51/51 72/72/72 50/50/50
f 72/72/72 73/73/73 50/50/50
f 50/50/50 73/73/73 48/48/48
f 73/73/73 74/74/74 48/48/48
f 48/48/48 74/74/74 49/49/49
f 74/74/74 75/75/75 49/49/49
f 74/74/74 76/76/76 75/75/75
f 76/76/76 77/77/77 75/75/75
f 78/78/78 76/76/76 74/74/74
f 73/73/73 78/78/78 74/74/74
f 79/79/79 78/78/78 73/73/73
f 72/72/72 79/79/79 73/73/73
f 80/80/80 79/79/79 72/72/72
f 71/71/71 80/80/80 72/72/72
f 81/81/81 80/80/80 71/71/71
f 70/70/70 81/81/81 71/71/71
f 69/69/69 81/81/81 70/70/70
f 76/76/76 82/82/82 77/77/77
f 78/78/78 83/83/83 76/76/76
f 79/79/79 84/84/84 78/78/78
f 80/80/80 85/85/85 79/79/79
f 81/81/81 86/86/86 80/80/80
f 69/69/69 87/87/87 81/81/81
f 68/68/68 88/88/88 69/69/69
f 89/89/89 68/68/68 63/63/63
f 65/65/65 89/89/89 63/63/63
f 90/90/90 89/89/89 65/65/65
f 66/66/66 90/90/90 65/65/65
f 91/91/91 90/90/90 66/66/66
f 67/67/67 91/91/91 66/66/66
f 89/89/89 92/92/92 68/68/68
f 90/90/90 93/93/93 89/89/89
f 91/91/91 94/94/94 90/90/90
f 54/54/54 64/64/64 53/53/53
