g Cube.000
v -19 -0.02395536 -0.95
v -19 -0.02390882 -1
v -20 -0.02390882 -1
v -20 -0.02390882 -0.95
v -20 0.02326484 1
v -20 -0.02390882 1
v -20 -0.02390882 0.95
v -20 -0.02390882 0
v -20 -0.02390882 -0.95
v -20 -0.02390882 -1
v -20 0.02326484 -1
v -20 0.02326484 0.95
v -20 0.02326484 0
v -20 0.02326484 -0.95
v -19 0.02326484 -1
v -20 -0.02390882 -1
v -19 -0.02390882 -1
v -3.013923 0.02338901 -0.9999551
v -3.013691 -0.02229878 -0.9999551
v -19 0.02326484 -0.95
v -19 -0.02395536 -0.95
v -19 -0.02395536 0
v -19 0.02326484 0
v -19 0.02326484 -1
v -3.013923 0.02338901 -0.9999551
v -3.026018 0.02268318 -0.95
v -20 0.02326484 0
v -19 0.02326484 -0.95
v -20 0.02326484 -0.95
v -19 -0.02395536 0
v -20 -0.02390882 -0.95
v -20 -0.02390882 0
v -20 0.02326484 0.95
v -20 0.02326484 0
v -19 0.02326484 0
v -19 0.02326484 0.95
v -19 0.02326484 0
v -19 -0.02395536 0.95
v -19 -0.02395536 0
v -19 -0.02395536 0
v -20 -0.02390882 0
v -20 -0.02390882 0.95
v -3.034868 -0.02379304 1
v -3.02147 -0.02362183 0.9500405
v -19 -0.02390882 1
v -20 0.02326484 1
v -20 0.02326484 0.95
v -19 0.02326484 0.95
v -19 0.02326484 1
v -20 0.02326484 -0.95
v -20 0.02326484 -1
v -19 0.02326484 -1
v -19 0.02326484 -0.95
v -3.026018 0.02268318 -0.95
v -19 -0.02395536 -0.95
v -3.025553 -0.02335054 -0.95
v -3.013691 -0.02229878 -0.9999551
v -3.013923 0.02338901 -0.9999551
v -3.025553 -0.02335054 -0.95
v -19 -0.02390882 -1
v -19 -0.02395536 -0.95
v -19 0.02326484 1
v -19 0.02326484 0.95
v -3.021703 0.02286603 0.9500405
v -3.034868 0.02314895 1
v -19 -0.02390882 1
v -19 -0.02395536 0.95
v -20 -0.02390882 0.95
v -20 -0.02390882 1
v -19 0.02326484 0.95
v -3.02147 -0.02362183 0.9500405
v -3.021703 0.02286603 0.9500405
v -19 0.02326484 1
v -3.034868 0.02314895 1
v -3.034868 -0.02379304 1
v -19 -0.02390882 1
v -20 0.02326484 1
v -20 -0.02390882 1
v -3.02147 -0.02362183 0.9500405
v -3.021703 0.02286603 0.9500405
v 19 0.02395539 -0.95
v 19 0.02390885 -1
v 20 0.02390885 -1
v 20 0.02390885 -0.95
v 20 0.02390885 -1
v 20 -0.02326481 -1
v 20 -0.02326481 -0.95
v 20 -0.02326481 0
v 20 -0.02326481 0.95
v 20 -0.02326481 1
v 20 0.02390885 1
v 20 0.02390885 -0.95
v 20 0.02390885 0
v 20 0.02390885 0.95
v 19 -0.02326481 -1
v 20 0.02390885 -1
v 19 0.02390885 -1
v 3.013923 -0.02338901 -0.9999551
v 3.013691 0.02229878 -0.9999551
v 19 -0.02326481 -0.95
v 19 0.02395539 -0.95
v 19 0.02395539 0
v 19 -0.02326481 0
v 19 -0.02326481 -1
v 3.013923 -0.02338901 -0.9999551
v 3.026018 -0.02268318 -0.95
v 20 -0.02326481 0
v 19 -0.02326481 -0.95
v 20 -0.02326481 -0.95
v 19 0.02395539 0
v 20 0.02390885 -0.95
v 20 0.02390885 0
v 20 -0.02326481 0.95
v 20 -0.02326481 0
v 19 -0.02326481 0
v 19 -0.02326481 0.95
v 19 -0.02326481 0
v 19 0.02395539 0.95
v 19 0.02395539 0
v 19 0.02395539 0
v 20 0.02390885 0
v 20 0.02390885 0.95
v 3.034868 0.02379304 1
v 3.02147 0.02362183 0.9500405
v 19 0.02390885 1
v 20 -0.02326481 1
v 20 -0.02326481 0.95
v 19 -0.02326481 0.95
v 19 -0.02326481 1
v 20 -0.02326481 -0.95
v 20 -0.02326481 -1
v 19 -0.02326481 -1
v 19 -0.02326481 -0.95
v 3.026018 -0.02268318 -0.95
v 19 0.02395539 -0.95
v 3.025553 0.02335054 -0.95
v 3.013691 0.02229878 -0.9999551
v 3.013923 -0.02338901 -0.9999551
v 3.025553 0.02335054 -0.95
v 19 0.02390885 -1
v 19 0.02395539 -0.95
v 19 -0.02326481 1
v 19 -0.02326481 0.95
v 3.021703 -0.02286602 0.9500405
v 3.034868 -0.02314895 1
v 19 0.02390885 1
v 19 0.02395539 0.95
v 20 0.02390885 0.95
v 20 0.02390885 1
v 19 -0.02326481 0.95
v 3.02147 0.02362183 0.9500405
v 3.021703 -0.02286602 0.9500405
v 19 0.02390885 1
v 20 0.02390885 1
v 20 -0.02326481 1
v 19 -0.02326481 1
v 3.034868 0.02379304 1
v 3.034868 -0.02314895 1
v 3.02147 0.02362183 0.9500405
v 3.021703 -0.02286602 0.9500405
vt 0 0
vt 0 1
vt 1 1
vt 1 0
vt 0.7938926 0.9045085
vt 0.5 1
vt 0.2061075 0.9045086
vt 0.02447176 0.6545086
vt 0.02447176 0.3454915
vt 0.2061073 0.09549153
vt 0.5 0
vt 0.9755282 0.6545085
vt 0.9755282 0.3454915
vt 0.7938926 0.09549147
vt 0.06698728 0.2500001
vt 0.9330127 0.25
vt 0.9330127 0.75
vt 0.06698728 0.7499999
vt 0.5 1
vt 0 0
vt 0 1
vt 1 1
vt 1 0
vt 0 1
vt 1 1
vt 1 0
vt 0 0
vt 1 1
vt 0 1
vt 0 0
vt 1 1
vt 1 0
vt 0 0
vt 0 1
vt 1 1
vt 1 0
vt 0 0
vt 1 1
vt 0 1
vt 0.9999982 5.783837E-08
vt 0 0
vt 5.960197E-07 0.9999999
vt 0 0
vt 0 1
vt 1 0
vt 0 0
vt 0 1
vt 1 1
vt 1 0
vt 0 0
vt 0 1
vt 1 1
vt 1 0
vt 0 0
vt 1 1
vt 0 1
vt 0 1
vt 0 0
vt 0 0
vt 1 1
vt 1 0
vt 0 0
vt 0 1
vt 1 1
vt 1 0
vt 0 0
vt 0 1
vt 1 1
vt 1 0
vt 0 0
vt 1 1
vt 1 0
vt 0.9330127 0.75
vt 0.5 1
vt 0.06698728 0.7499999
vt 0.06698728 0.2500001
vt 0.9330127 0.25
vt 0.5 0
vt 0.06698728 0.7499999
vt 0.5 1
vt 0 0
vt 0 1
vt 1 1
vt 1 0
vt 0.2061073 0.09549153
vt 0.5 0
vt 0.7938926 0.09549147
vt 0.9755282 0.3454915
vt 0.9755282 0.6545085
vt 0.7938926 0.9045085
vt 0.5 1
vt 0.02447176 0.3454915
vt 0.02447176 0.6545086
vt 0.2061075 0.9045086
vt 0.06698728 0.2500001
vt 0.9330127 0.25
vt 0.9330127 0.75
vt 0.06698728 0.7499999
vt 0.5 1
vt 0 0
vt 0 1
vt 1 1
vt 1 0
vt 0 1
vt 1 1
vt 1 0
vt 0 0
vt 1 1
vt 0 1
vt 0 0
vt 1 1
vt 1 0
vt 0 0
vt 0 1
vt 1 1
vt 1 0
vt 0 0
vt 1 1
vt 0 1
vt 0.9999982 5.783837E-08
vt 0 0
vt 5.960197E-07 0.9999999
vt 0 0
vt 0 1
vt 1 0
vt 0 0
vt 0 1
vt 1 1
vt 1 0
vt 0 0
vt 0 1
vt 1 1
vt 1 0
vt 0 0
vt 1 1
vt 0 1
vt 0 1
vt 0 0
vt 0 0
vt 1 1
vt 1 0
vt 0 0
vt 0 1
vt 1 1
vt 1 0
vt 0 0
vt 0 1
vt 1 1
vt 1 0
vt 0 0
vt 1 1
vt 1 0
vt 0.06698728 0.2500001
vt 0.5 0
vt 0.9330127 0.25
vt 0.9330127 0.75
vt 0.06698728 0.7499999
vt 0.5 1
vt 0.06698728 0.7499999
vt 0.5 1
vn 0.3018349 -0.905466 0.2983738
vn 1.91728E-05 -0.5532266 -0.8330308
vn -0.6665977 -0.3332988 -0.6667528
vn -0.707115 -0.7070985 -0.0001645288
vn -0.8703883 0.3481553 0.3481553
vn -0.5772607 -0.5772607 0.5775294
vn -0.707115 -0.7070985 0.0001645288
vn -0.7071232 -0.7070903 0
vn -0.707115 -0.7070985 -0.0001645288
vn -0.6665977 -0.3332988 -0.6667528
vn -0.2357023 0.9428091 -0.2357023
vn 0 1 0
vn 0 1 0
vn 0 1 0
vn 0 0.5556007 -0.8314493
vn -0.6665977 -0.3332988 -0.6667528
vn 1.91728E-05 -0.5532266 -0.8330308
vn 0.4324222 0.4479775 -0.7825134
vn 0.610698 -0.6233162 -0.4883901
vn 0.3013232 0.9039492 0.3034471
vn 0.3018349 -0.905466 0.2983738
vn 0.7070903 -0.7071232 0
vn 0.7071068 0.7071068 0
vn 0 0.5556007 -0.8314493
vn 0.4324222 0.4479775 -0.7825134
vn 0.5198539 0.5385544 0.6631071
vn 0 1 0
vn 0.3013232 0.9039492 0.3034471
vn 0 1 0
vn 0.7070903 -0.7071232 0
vn -0.707115 -0.7070985 -0.0001645288
vn -0.7071232 -0.7070903 0
vn 0 1 0
vn 0 1 0
vn 0.7071068 0.7071068 0
vn 0.3014385 0.9042996 -0.3022861
vn 0.7071068 0.7071068 0
vn 0.3014812 -0.9044725 -0.3017261
vn 0.7070903 -0.7071232 0
vn 0.7070903 -0.7071232 0
vn -0.7071232 -0.7070903 0
vn -0.707115 -0.7070985 0.0001645288
vn 0.3648319 -0.3765886 0.8515156
vn 0.6132951 -0.6330585 -0.4723412
vn 0 -0.5547999 0.8319838
vn -0.8703883 0.3481553 0.3481553
vn 0 1 0
vn 0.3014385 0.9042996 -0.3022861
vn 0 0.5550617 0.8318092
vn 0 1 0
vn -0.2357023 0.9428091 -0.2357023
vn 0 0.5556007 -0.8314493
vn 0.3013232 0.9039492 0.3034471
vn 0.5198539 0.5385544 0.6631071
vn 0.3018349 -0.905466 0.2983738
vn 0.5254689 -0.5363261 0.6604822
vn 0.610698 -0.6233162 -0.4883901
vn 0.4324222 0.4479775 -0.7825134
vn 0.5254689 -0.5363261 0.6604822
vn 1.91728E-05 -0.5532266 -0.8330308
vn 0.3018349 -0.905466 0.2983738
vn 0 0.5550617 0.8318092
vn 0.3014385 0.9042996 -0.3022861
vn 0.6118193 0.6345856 -0.4722057
vn 0.5157342 0.534925 0.6692335
vn 0 -0.5547999 0.8319838
vn 0.3014812 -0.9044725 -0.3017261
vn -0.707115 -0.7070985 0.0001645288
vn -0.5772607 -0.5772607 0.5775294
vn 0.3014385 0.9042996 -0.3022861
vn 0.6132951 -0.6330585 -0.4723412
vn 0.6118193 0.6345856 -0.4722057
vn 0 0.5550617 0.8318092
vn 0.5157342 0.534925 0.6692335
vn 0.3648319 -0.3765886 0.8515156
vn 0 -0.5547999 0.8319838
vn -0.8703883 0.3481553 0.3481553
vn -0.5772607 -0.5772607 0.5775294
vn 0.6132951 -0.6330585 -0.4723412
vn 0.6118193 0.6345856 -0.4722057
vn -0.3018349 0.905466 0.2983738
vn -1.917329E-05 0.5532266 -0.8330308
vn 0.8703637 0.3481455 -0.3482265
vn 1.163362E-05 1 -0.0001163408
vn 0.8703637 0.3481455 -0.3482265
vn 0.5773503 -0.5773503 -0.5773503
vn 0.7071068 -0.7071068 0
vn 0.7071068 -0.7071068 0
vn 0.7071068 -0.7071068 0
vn 0.6666667 -0.3333333 0.6666667
vn 0.2356962 0.9427847 0.2358059
vn 1.163362E-05 1 -0.0001163408
vn 2.326723E-05 1 0
vn 1.551149E-05 1 0.000155121
vn 0 -0.5556007 -0.8314493
vn 0.8703637 0.3481455 -0.3482265
vn -1.917329E-05 0.5532266 -0.8330308
vn -0.4324222 -0.4479775 -0.7825134
vn -0.610698 0.6233162 -0.4883901
vn -0.3013232 -0.9039492 0.3034471
vn -0.3018349 0.905466 0.2983738
vn -0.7070903 0.7071232 0
vn -0.7071068 -0.7071068 0
vn 0 -0.5556007 -0.8314493
vn -0.4324222 -0.4479775 -0.7825134
vn -0.5198539 -0.5385544 0.6631071
vn 0.7071068 -0.7071068 0
vn -0.3013232 -0.9039492 0.3034471
vn 0.7071068 -0.7071068 0
vn -0.7070903 0.7071232 0
vn 1.163362E-05 1 -0.0001163408
vn 2.326723E-05 1 0
vn 0.7071068 -0.7071068 0
vn 0.7071068 -0.7071068 0
vn -0.7071068 -0.7071068 0
vn -0.3014385 -0.9042996 -0.3022861
vn -0.7071068 -0.7071068 0
vn -0.3014812 0.9044725 -0.3017261
vn -0.7070903 0.7071232 0
vn -0.7070903 0.7071232 0
vn 2.326723E-05 1 0
vn 1.551149E-05 1 0.000155121
vn -0.3648319 0.3765886 0.8515156
vn -0.6132951 0.6330585 -0.4723412
vn 0 0.5547999 0.8319838
vn 0.6666667 -0.3333333 0.6666667
vn 0.7071068 -0.7071068 0
vn -0.3014385 -0.9042996 -0.3022861
vn 0 -0.5550617 0.8318092
vn 0.7071068 -0.7071068 0
vn 0.5773503 -0.5773503 -0.5773503
vn 0 -0.5556007 -0.8314493
vn -0.3013232 -0.9039492 0.3034471
vn -0.5198539 -0.5385544 0.6631071
vn -0.3018349 0.905466 0.2983738
vn -0.5254689 0.5363261 0.6604822
vn -0.610698 0.6233162 -0.4883901
vn -0.4324222 -0.4479775 -0.7825134
vn -0.5254689 0.5363261 0.6604822
vn -1.917329E-05 0.5532266 -0.8330308
vn -0.3018349 0.905466 0.2983738
vn 0 -0.5550617 0.8318092
vn -0.3014385 -0.9042996 -0.3022861
vn -0.6118193 -0.6345856 -0.4722057
vn -0.5157342 -0.534925 0.6692335
vn 0 0.5547999 0.8319838
vn -0.3014812 0.9044725 -0.3017261
vn 1.551149E-05 1 0.000155121
vn 0.2356962 0.9427847 0.2358059
vn -0.3014385 -0.9042996 -0.3022861
vn -0.6132951 0.6330585 -0.4723412
vn -0.6118193 -0.6345856 -0.4722057
vn 0 0.5547999 0.8319838
vn 0.2356962 0.9427847 0.2358059
vn 0.6666667 -0.3333333 0.6666667
vn 0 -0.5550617 0.8318092
vn -0.3648319 0.3765886 0.8515156
vn -0.5157342 -0.534925 0.6692335
vn -0.6132951 0.6330585 -0.4723412
vn -0.6118193 -0.6345856 -0.4722057
g Cube.000_0
f 3/3/3 2/2/2 1/1/1
f 4/4/4 3/3/3 1/1/1
f 7/7/7 6/6/6 5/5/5
f 5/5/5 8/8/8 7/7/7
f 5/5/5 9/9/9 8/8/8
f 5/5/5 10/10/10 9/9/9
f 5/5/5 11/11/11 10/10/10
f 5/5/5 12/12/12 11/11/11
f 12/12/12 13/13/13 11/11/11
f 13/13/13 14/14/14 11/11/11
f 16/16/16 11/11/11 15/15/15
f 17/17/17 16/16/16 15/15/15
f 17/17/17 15/15/15 18/18/18
f 18/18/18 19/19/19 17/17/17
f 22/22/22 21/21/21 20/20/20
f 23/23/23 22/22/22 20/20/20
f 25/25/25 24/24/24 20/20/20
f 26/26/26 25/25/25 20/20/20
f 23/23/23 28/28/28 27/27/27
f 28/28/28 29/29/29 27/27/27
f 31/31/31 21/21/21 30/30/30
f 32/32/32 31/31/31 30/30/30
f 35/35/35 34/34/34 33/33/33
f 36/36/36 35/35/35 33/33/33
f 36/36/36 38/38/38 37/37/37
f 38/38/38 39/39/39 37/37/37
f 41/41/41 40/40/40 38/38/38
f 42/42/42 41/41/41 38/38/38
f 38/38/38 44/44/44 43/43/43
f 45/45/45 38/38/38 43/43/43
f 48/48/48 47/47/47 46/46/46
f 49/49/49 48/48/48 46/46/46
f 52/52/52 51/51/51 50/50/50
f 53/53/53 52/52/52 50/50/50
f 53/53/53 55/55/55 54/54/54
f 55/55/55 56/56/56 54/54/54
f 56/56/56 57/57/57 54/54/54
f 57/57/57 58/58/58 54/54/54
f 60/60/60 57/57/57 59/59/59
f 61/61/61 60/60/60 59/59/59
f 64/64/64 63/63/63 62/62/62
f 65/65/65 64/64/64 62/62/62
f 68/68/68 67/67/67 66/66/66
f 69/69/69 68/68/68 66/66/66
f 71/71/71 67/67/67 70/70/70
f 72/72/72 71/71/71 70/70/70
f 75/75/75 74/74/74 73/73/73
f 73/73/73 76/76/76 75/75/75
f 73/73/73 77/77/77 76/76/76
f 77/77/77 78/78/78 76/76/76
f 75/75/75 79/79/79 74/74/74
f 79/79/79 80/80/80 74/74/74
f 83/83/83 82/82/82 81/81/81
f 84/84/84 83/83/83 81/81/81
f 87/87/87 86/86/86 85/85/85
f 85/85/85 88/88/88 87/87/87
f 85/85/85 89/89/89 88/88/88
f 85/85/85 90/90/90 89/89/89
f 85/85/85 91/91/91 90/90/90
f 85/85/85 92/92/92 91/91/91
f 92/92/92 93/93/93 91/91/91
f 93/93/93 94/94/94 91/91/91
f 96/96/96 86/86/86 95/95/95
f 95/95/95 97/97/97 96/96/96
f 95/95/95 98/98/98 97/97/97
f 98/98/98 99/99/99 97/97/97
f 102/102/102 101/101/101 100/100/100
f 103/103/103 102/102/102 100/100/100
f 105/105/105 104/104/104 100/100/100
f 106/106/106 105/105/105 100/100/100
f 103/103/103 108/108/108 107/107/107
f 108/108/108 109/109/109 107/107/107
f 111/111/111 101/101/101 110/110/110
f 112/112/112 111/111/111 110/110/110
f 115/115/115 114/114/114 113/113/113
f 116/116/116 115/115/115 113/113/113
f 116/116/116 118/118/118 117/117/117
f 118/118/118 119/119/119 117/117/117
f 121/121/121 120/120/120 118/118/118
f 122/122/122 121/121/121 118/118/118
f 118/118/118 124/124/124 123/123/123
f 125/125/125 118/118/118 123/123/123
f 128/128/128 127/127/127 126/126/126
f 129/129/129 128/128/128 126/126/126
f 132/132/132 131/131/131 130/130/130
f 133/133/133 132/132/132 130/130/130
f 133/133/133 135/135/135 134/134/134
f 135/135/135 136/136/136 134/134/134
f 136/136/136 137/137/137 134/134/134
f 137/137/137 138/138/138 134/134/134
f 140/140/140 137/137/137 139/139/139
f 141/141/141 140/140/140 139/139/139
f 144/144/144 143/143/143 142/142/142
f 145/145/145 144/144/144 142/142/142
f 148/148/148 147/147/147 146/146/146
f 149/149/149 148/148/148 146/146/146
f 151/151/151 147/147/147 150/150/150
f 152/152/152 151/151/151 150/150/150
f 155/155/155 154/154/154 153/153/153
f 153/153/153 156/156/156 155/155/155
f 153/153/153 157/157/157 156/156/156
f 157/157/157 158/158/158 156/156/156
f 157/157/157 159/159/159 158/158/158
f 159/159/159 160/160/160 158/158/158
