g Cylinder
v -6.459056E-24 0.99902 0.9774023
v 2.173971E-10 0.9898415 0.9805453
v 0.19367 0.9707665 0.9805453
v 0.185138 0.981765 0.9774023
v 2.173971E-10 0.9870725 1
v -0.193669 0.9707675 0.9805453
v -0.193128 0.9680505 1
v 0 1.007279 1.006857
v 0.19651 0.987924 1.006857
v 0.19313 0.9680505 1
v -0.196509 0.987924 1.006857
v -0.185137 0.981766 0.9774023
v 0.19313 0.9680505 1
v 0.185138 0.981765 0.9774023
v -0.185137 0.981766 0.9774023
v -0.193128 0.9680505 1
v 0.19651 0.987924 1.006857
v 0 1.007279 1.006857
v -6.459056E-24 0.99902 0.9774023
v -0.196509 0.987924 1.006857
v 2.173971E-10 0.9870725 1
v 2.173971E-10 0.9898415 0.9805453
v 0.19367 0.9707665 0.9805453
v -0.193669 0.9707675 0.9805453
v 0.185138 0.981765 -0.9737201
v 0.19367 0.9707665 -0.9768631
v 2.173971E-10 0.9898415 -0.9768631
v -1.343958E-23 0.99902 -0.9737201
v -0.185137 0.981766 -0.9737201
v 0 1.007279 -1.006857
v -0.196509 0.987924 -1.006857
v 0.19313 0.9680505 -1
v 0.19651 0.987924 -1.006857
v 2.173971E-10 0.9870725 -1
v -0.193128 0.9680505 -1
v -0.193669 0.9707675 -0.9768631
v 0.19651 0.987924 -1.006857
v 0.19367 0.9707665 -0.9768631
v -1.343958E-23 0.99902 -0.9737201
v 0 1.007279 -1.006857
v 0.185138 0.981765 -0.9737201
v 2.173971E-10 0.9898415 -0.9768631
v -0.193669 0.9707675 -0.9768631
v -0.185137 0.981766 -0.9737201
v 2.173971E-10 0.9870725 -1
v 0.19313 0.9680505 -1
v -0.196509 0.987924 -1.006857
v -0.193128 0.9680505 -1
v 0.919166 -0.391502 0.9774023
v 0.9127933 -0.3769902 0.9805453
v 0.8210563 -0.5486183 0.9805453
v 0.830655 -0.5550255 0.9774023
v 0.713451 -0.699377 0.9774023
v 0.837522 -0.559614 1.006857
v 0.712253 -0.712253 1.006857
v 0.6956393 -0.6970932 1
v 0.6975983 -0.6990523 0.9805453
v 0.8187533 -0.5470802 1
v 0.9102343 -0.3759302 1
v 0.930604 -0.385469 1.006857
v 0.930604 -0.385469 1.006857
v 0.9127933 -0.3769902 0.9805453
v 0.830655 -0.5550255 0.9774023
v 0.837522 -0.559614 1.006857
v 0.919166 -0.391502 0.9774023
v 0.8210563 -0.5486183 0.9805453
v 0.6975983 -0.6990523 0.9805453
v 0.713451 -0.699377 0.9774023
v 0.8187533 -0.5470802 1
v 0.712253 -0.712253 1.006857
v 0.6956393 -0.6970932 1
v 0.9102343 -0.3759302 1
v 0.830655 -0.5550255 -0.9737201
v 0.8210563 -0.5486183 -0.9768631
v 0.9127933 -0.3769902 -0.9768631
v 0.919166 -0.391502 -0.9737201
v 0.837522 -0.559614 -1.006857
v 0.712253 -0.712253 -1.006857
v 0.713451 -0.699377 -0.9737201
v 0.8187533 -0.5470802 -1
v 0.930604 -0.385469 -1.006857
v 0.9102343 -0.3759302 -1
v 0.6975983 -0.6990523 -0.9768631
v 0.6956393 -0.6970932 -1
v 0.9102343 -0.3759302 -1
v 0.919166 -0.391502 -0.9737201
v 0.930604 -0.385469 -1.006857
v 0.837522 -0.559614 -1.006857
v 0.830655 -0.5550255 -0.9737201
v 0.713451 -0.699377 -0.9737201
v 0.8210563 -0.5486183 -0.9768631
v 0.6975983 -0.6990523 -0.9768631
v 0.9127933 -0.3769902 -0.9768631
v 0.8187533 -0.5470802 -1
v 0.6956393 -0.6970932 -1
v 0.712253 -0.712253 -1.006857
v -0.713451 -0.699376 0.9774023
v -0.6988313 -0.7013341 0.9805453
v -0.8222883 -0.5509 0.9805453
v -0.830655 -0.555025 0.9774023
v -0.919166 -0.391502 0.9774023
v -0.837522 -0.559613 1.006857
v -0.930605 -0.385468 1.006857
v -0.9114663 -0.3782111 1
v -0.9140253 -0.3792711 0.9805453
v -0.8199853 -0.5493611 1
v -0.6968723 -0.699375 1
v -0.712254 -0.712253 1.006857
v -0.712254 -0.712253 1.006857
v -0.6988313 -0.7013341 0.9805453
v -0.830655 -0.555025 0.9774023
v -0.837522 -0.559613 1.006857
v -0.713451 -0.699376 0.9774023
v -0.8222883 -0.5509 0.9805453
v -0.9140253 -0.3792711 0.9805453
v -0.919166 -0.391502 0.9774023
v -0.8199853 -0.5493611 1
v -0.930605 -0.385468 1.006857
v -0.9114663 -0.3782111 1
v -0.6968723 -0.699375 1
v -0.830655 -0.555025 -0.9737201
v -0.8222883 -0.5509 -0.9768631
v -0.6988313 -0.7013341 -0.9768631
v -0.713451 -0.699376 -0.9737201
v -0.837522 -0.559613 -1.006857
v -0.930605 -0.385468 -1.006857
v -0.919166 -0.391502 -0.9737201
v -0.8199853 -0.5493611 -1
v -0.712254 -0.712253 -1.006857
v -0.6968723 -0.699375 -1
v -0.9140253 -0.3792711 -0.9768631
v -0.9114663 -0.3782111 -1
v -0.6968723 -0.699375 -1
v -0.713451 -0.699376 -0.9737201
v -0.712254 -0.712253 -1.006857
v -0.837522 -0.559613 -1.006857
v -0.830655 -0.555025 -0.9737201
v -0.919166 -0.391502 -0.9737201
v -0.8222883 -0.5509 -0.9768631
v -0.9140253 -0.3792711 -0.9768631
v -0.6988313 -0.7013341 -0.9768631
v -0.8199853 -0.5493611 -1
v -0.9114663 -0.3782111 -1
v -0.930605 -0.385468 -1.006857
vt 0 0
vt 0 1
vt 1 1
vt 1 0
vt 0 0
vt 1 1
vt 1 0
vt 0 1
vt 1 1
vt 1 0
vt 1 1
vt 1 0
vt 0 0
vt 0 0
vt 0 0
vt 0 0
vt 0 1
vt 1 1
vt 1 0
vt 0 1
vt 1 0
vt 1 1
vt 0 1
vt 0 1
vt 0 0
vt 0 1
vt 1 1
vt 1 0
vt 0 0
vt 1 1
vt 0 1
vt 0 0
vt 0 1
vt 1 0
vt 0 0
vt 0 1
vt 1 1
vt 1 1
vt 0 0
vt 0 1
vt 1 0
vt 0 1
vt 1 1
vt 1 0
vt 0 0
vt 1 0
vt 1 1
vt 1 0
vt 0 0
vt 0 1
vt 1 1
vt 1 0
vt 0 0
vt 1 1
vt 0 1
vt 0 0
vt 0 1
vt 1 0
vt 0 0
vt 0 1
vt 1 1
vt 1 1
vt 0 0
vt 0 1
vt 1 0
vt 0 1
vt 1 1
vt 1 0
vt 0 0
vt 1 1
vt 1 0
vt 1 0
vt 0 0
vt 0 1
vt 1 1
vt 1 0
vt 0 1
vt 1 1
vt 1 0
vt 0 0
vt 1 1
vt 1 0
vt 1 1
vt 1 0
vt 0 0
vt 0 0
vt 0 1
vt 1 1
vt 1 0
vt 0 0
vt 1 1
vt 0 1
vt 0 1
vt 1 0
vt 0 0
vt 0 1
vt 0 0
vt 0 1
vt 1 1
vt 1 0
vt 0 0
vt 1 1
vt 0 1
vt 0 0
vt 0 1
vt 1 0
vt 0 0
vt 0 1
vt 1 1
vt 1 1
vt 0 0
vt 0 1
vt 1 0
vt 0 1
vt 1 1
vt 1 0
vt 0 0
vt 1 1
vt 1 0
vt 1 0
vt 0 0
vt 0 1
vt 1 1
vt 1 0
vt 0 1
vt 1 1
vt 1 0
vt 0 0
vt 1 1
vt 1 0
vt 1 1
vt 1 0
vt 0 0
vt 0 0
vt 0 1
vt 1 1
vt 1 0
vt 0 0
vt 1 1
vt 0 1
vt 0 1
vt 1 0
vt 0 0
vt 0 1
vn 0 0.4773778 -0.8786982
vn 0 -0.7645516 -0.6445624
vn 0.4344937 -0.5799371 -0.6891214
vn 0.5236067 0.4320354 -0.7342898
vn 0 -0.8510178 0.5251369
vn -0.4344968 -0.5799443 -0.6891133
vn -0.5484758 -0.742147 0.385217
vn 0 0.6794478 0.7337239
vn 0.7302651 0.5947897 0.3360626
vn 0.5484765 -0.7421426 0.3852245
vn -0.7302696 0.5947676 0.3360919
vn -0.5236229 0.4320295 -0.7342818
vn 0.5484765 -0.7421426 0.3852245
vn 0.5236067 0.4320354 -0.7342898
vn -0.5236229 0.4320295 -0.7342818
vn -0.5484758 -0.742147 0.385217
vn 0.7302651 0.5947897 0.3360626
vn 0 0.6794478 0.7337239
vn 0 0.4773778 -0.8786982
vn -0.7302696 0.5947676 0.3360919
vn 0 -0.8510178 0.5251369
vn 0 -0.7645516 -0.6445624
vn 0.4344937 -0.5799371 -0.6891214
vn -0.4344968 -0.5799443 -0.6891133
vn 0.5367783 0.4419905 0.7186887
vn 0.4444492 -0.5914347 0.6728074
vn 0 -0.771655 0.6360414
vn 0 0.489358 0.8720829
vn -0.5367933 0.4419836 0.7186816
vn 0 0.6693219 -0.7429726
vn -0.7214311 0.5863948 -0.3683452
vn 0.5428827 -0.7323051 -0.4111052
vn 0.7214269 0.5864162 -0.3683193
vn 0 -0.8451324 -0.534557
vn -0.542881 -0.7323104 -0.411098
vn -0.4444514 -0.5914427 0.672799
vn 0.7214269 0.5864162 -0.3683193
vn 0.4444492 -0.5914347 0.6728074
vn 0 0.489358 0.8720829
vn 0 0.6693219 -0.7429726
vn 0.5367783 0.4419905 0.7186887
vn 0 -0.771655 0.6360414
vn -0.4444514 -0.5914427 0.672799
vn -0.5367933 0.4419836 0.7186816
vn 0 -0.8451324 -0.534557
vn 0.5428827 -0.7323051 -0.4111052
vn -0.7214311 0.5863948 -0.3683452
vn -0.542881 -0.7323104 -0.411098
vn 0.6561887 0.1875992 -0.7309055
vn -0.2243937 0.6795696 -0.69845
vn -0.6196289 0.4140237 -0.6668167
vn 0.4182161 -0.279443 -0.8642955
vn 0.07805895 -0.6780792 -0.7308319
vn 0.5747133 -0.3840104 0.7226622
vn 0.08898757 -0.9360152 0.340524
vn -0.9188532 -0.05023385 0.3913889
vn -0.7135605 -0.05287807 -0.6985953
vn -0.7004362 0.468018 0.5388397
vn -0.305397 0.8681177 0.3912853
vn 0.8986861 0.2763289 0.3405961
vn 0.8986861 0.2763289 0.3405961
vn -0.2243937 0.6795696 -0.69845
vn 0.4182161 -0.279443 -0.8642955
vn 0.5747133 -0.3840104 0.7226622
vn 0.6561887 0.1875992 -0.7309055
vn -0.6196289 0.4140237 -0.6668167
vn -0.7135605 -0.05287807 -0.6985953
vn 0.07805895 -0.6780792 -0.7308319
vn -0.7004362 0.468018 0.5388397
vn 0.08898757 -0.9360152 0.340524
vn -0.9188532 -0.05023385 0.3913889
vn -0.305397 0.8681177 0.3912853
vn 0.4280134 -0.2859893 0.8573299
vn -0.6257405 0.4181074 0.6585098
vn -0.2281924 0.6942989 0.682552
vn 0.6716149 0.1926131 0.7154255
vn 0.5664183 -0.3784679 -0.732074
vn 0.08717123 -0.9240157 -0.3722851
vn 0.07933499 -0.6942487 0.7153494
vn -0.6954167 0.464664 -0.5481632
vn 0.8869022 0.2734076 -0.372361
vn -0.300379 0.8578575 -0.4169569
vn -0.7286264 -0.05501008 0.6826987
vn -0.9074464 -0.05094309 -0.4170682
vn -0.300379 0.8578575 -0.4169569
vn 0.6716149 0.1926131 0.7154255
vn 0.8869022 0.2734076 -0.372361
vn 0.5664183 -0.3784679 -0.732074
vn 0.4280134 -0.2859893 0.8573299
vn 0.07933499 -0.6942487 0.7153494
vn -0.6257405 0.4181074 0.6585098
vn -0.7286264 -0.05501008 0.6826987
vn -0.2281924 0.6942989 0.682552
vn -0.6954167 0.464664 -0.5481632
vn -0.9074464 -0.05094309 -0.4170682
vn 0.08717123 -0.9240157 -0.3722851
vn -0.1014279 -0.6799414 -0.7262177
vn 0.7056445 -0.05307299 -0.7065755
vn 0.6350306 0.4245393 -0.6453701
vn -0.3978163 -0.2655326 -0.8781996
vn -0.6313543 0.2233923 -0.7426221
vn -0.5653604 -0.3775494 0.7333649
vn -0.8817144 0.3203413 0.3463539
vn 0.3338775 0.8660643 0.3721002
vn 0.2612133 0.6925769 -0.6723875
vn 0.7073121 0.47274 0.5255725
vn 0.9141927 -0.06263608 0.4004101
vn -0.1342107 -0.9351242 0.327918
vn -0.1342107 -0.9351242 0.327918
vn 0.7056445 -0.05307299 -0.7065755
vn -0.3978163 -0.2655326 -0.8781996
vn -0.5653604 -0.3775494 0.7333649
vn -0.1014279 -0.6799414 -0.7262177
vn 0.6350306 0.4245393 -0.6453701
vn 0.2612133 0.6925769 -0.6723875
vn -0.6313543 0.2233923 -0.7426221
vn 0.7073121 0.47274 0.5255725
vn -0.8817144 0.3203413 0.3463539
vn 0.3338775 0.8660643 0.3721002
vn 0.9141927 -0.06263608 0.4004101
vn -0.4077739 -0.2721818 0.871572
vn 0.6409448 0.4284926 0.6368546
vn 0.721144 -0.05552394 0.6905566
vn -0.1031099 -0.6962777 0.7103278
vn -0.5569426 -0.3719299 -0.7426189
vn -0.8695157 0.316746 -0.378965
vn -0.6467217 0.2294801 0.7273858
vn 0.702414 0.4694661 -0.5349917
vn -0.1316032 -0.9237357 -0.3597123
vn 0.9020239 -0.06343316 -0.4270004
vn 0.2655886 0.7065693 0.6559134
vn 0.3291325 0.8566902 -0.3971821
vn 0.9020239 -0.06343316 -0.4270004
vn -0.1031099 -0.6962777 0.7103278
vn -0.1316032 -0.9237357 -0.3597123
vn -0.5569426 -0.3719299 -0.7426189
vn -0.4077739 -0.2721818 0.871572
vn -0.6467217 0.2294801 0.7273858
vn 0.6409448 0.4284926 0.6368546
vn 0.2655886 0.7065693 0.6559134
vn 0.721144 -0.05552394 0.6905566
vn 0.702414 0.4694661 -0.5349917
vn 0.3291325 0.8566902 -0.3971821
vn -0.8695157 0.316746 -0.378965
g Cylinder_0
f 3/3/3 2/2/2 1/1/1
f 4/4/4 3/3/3 1/1/1
f 6/6/6 2/2/2 5/5/5
f 7/7/7 6/6/6 5/5/5
f 9/9/9 8/8/8 5/5/5
f 10/10/10 9/9/9 5/5/5
f 11/11/11 8/8/8 1/1/1
f 12/12/12 11/11/11 1/1/1
f 9/9/9 13/13/13 3/3/3
f 14/14/14 9/9/9 3/3/3
f 11/11/11 15/15/15 6/6/6
f 16/16/16 11/11/11 6/6/6
f 18/18/18 17/17/17 14/14/14
f 19/19/19 18/18/18 14/14/14
f 18/18/18 20/20/20 16/16/16
f 21/21/21 18/18/18 16/16/16
f 21/21/21 22/22/22 13/13/13
f 19/19/19 22/22/22 15/15/15
f 22/22/22 23/23/23 13/13/13
f 22/22/22 24/24/24 15/15/15
f 27/27/27 26/26/26 25/25/25
f 28/28/28 27/27/27 25/25/25
f 28/28/28 30/30/30 29/29/29
f 30/30/30 31/31/31 29/29/29
f 30/30/30 33/33/33 32/32/32
f 34/34/34 30/30/30 32/32/32
f 34/34/34 27/27/27 35/35/35
f 27/27/27 36/36/36 35/35/35
f 32/32/32 37/37/37 25/25/25
f 38/38/38 32/32/32 25/25/25
f 37/37/37 40/40/40 39/39/39
f 41/41/41 37/37/37 39/39/39
f 43/43/43 42/42/42 39/39/39
f 44/44/44 43/43/43 39/39/39
f 38/38/38 42/42/42 45/45/45
f 46/46/46 38/38/38 45/45/45
f 47/47/47 40/40/40 45/45/45
f 47/47/47 35/35/35 43/43/43
f 48/48/48 47/47/47 45/45/45
f 29/29/29 47/47/47 43/43/43
f 51/51/51 50/50/50 49/49/49
f 52/52/52 51/51/51 49/49/49
f 52/52/52 54/54/54 53/53/53
f 54/54/54 55/55/55 53/53/53
f 51/51/51 57/57/57 56/56/56
f 58/58/58 51/51/51 56/56/56
f 58/58/58 54/54/54 59/59/59
f 54/54/54 60/60/60 59/59/59
f 59/59/59 61/61/61 49/49/49
f 62/62/62 59/59/59 49/49/49
f 61/61/61 64/64/64 63/63/63
f 65/65/65 61/61/61 63/63/63
f 67/67/67 66/66/66 63/63/63
f 68/68/68 67/67/67 63/63/63
f 62/62/62 66/66/66 69/69/69
f 70/70/70 64/64/64 69/69/69
f 70/70/70 56/56/56 67/67/67
f 71/71/71 70/70/70 69/69/69
f 72/72/72 62/62/62 69/69/69
f 53/53/53 70/70/70 67/67/67
f 75/75/75 74/74/74 73/73/73
f 76/76/76 75/75/75 73/73/73
f 78/78/78 77/77/77 73/73/73
f 79/79/79 78/78/78 73/73/73
f 81/81/81 77/77/77 80/80/80
f 82/82/82 81/81/81 80/80/80
f 83/83/83 74/74/74 80/80/80
f 84/84/84 83/83/83 80/80/80
f 81/81/81 85/85/85 75/75/75
f 86/86/86 81/81/81 75/75/75
f 88/88/88 87/87/87 86/86/86
f 89/89/89 88/88/88 86/86/86
f 89/89/89 91/91/91 90/90/90
f 91/91/91 92/92/92 90/90/90
f 91/91/91 93/93/93 85/85/85
f 94/94/94 91/91/91 85/85/85
f 94/94/94 88/88/88 95/95/95
f 83/83/83 95/95/95 90/90/90
f 88/88/88 96/96/96 95/95/95
f 95/95/95 78/78/78 90/90/90
f 99/99/99 98/98/98 97/97/97
f 100/100/100 99/99/99 97/97/97
f 100/100/100 102/102/102 101/101/101
f 102/102/102 103/103/103 101/101/101
f 99/99/99 105/105/105 104/104/104
f 106/106/106 99/99/99 104/104/104
f 106/106/106 102/102/102 107/107/107
f 102/102/102 108/108/108 107/107/107
f 107/107/107 109/109/109 97/97/97
f 110/110/110 107/107/107 97/97/97
f 109/109/109 112/112/112 111/111/111
f 113/113/113 109/109/109 111/111/111
f 115/115/115 114/114/114 111/111/111
f 116/116/116 115/115/115 111/111/111
f 110/110/110 114/114/114 117/117/117
f 118/118/118 112/112/112 117/117/117
f 118/118/118 104/104/104 115/115/115
f 119/119/119 118/118/118 117/117/117
f 120/120/120 110/110/110 117/117/117
f 101/101/101 118/118/118 115/115/115
f 123/123/123 122/122/122 121/121/121
f 124/124/124 123/123/123 121/121/121
f 126/126/126 125/125/125 121/121/121
f 127/127/127 126/126/126 121/121/121
f 129/129/129 125/125/125 128/128/128
f 130/130/130 129/129/129 128/128/128
f 131/131/131 122/122/122 128/128/128
f 132/132/132 131/131/131 128/128/128
f 129/129/129 133/133/133 123/123/123
f 134/134/134 129/129/129 123/123/123
f 136/136/136 135/135/135 134/134/134
f 137/137/137 136/136/136 134/134/134
f 137/137/137 139/139/139 138/138/138
f 139/139/139 140/140/140 138/138/138
f 139/139/139 141/141/141 133/133/133
f 142/142/142 139/139/139 133/133/133
f 142/142/142 136/136/136 143/143/143
f 131/131/131 143/143/143 138/138/138
f 136/136/136 144/144/144 143/143/143
f 143/143/143 126/126/126 138/138/138
