g Cylinder
v 2.172363E-08 0.01800599 -0.9135349
v 0.01273175 0.01273174 -0.9135346
v 0.01373393 0.01373394 0.9358151
v 9.140289E-10 0.01942237 0.9358147
v 0.01273175 0.01273174 -0.9135346
v 0.01800599 -1.613281E-08 -0.9135349
v 0.01942237 1.921622E-09 0.9358147
v 0.01373393 0.01373394 0.9358151
v 0.01800599 -1.613281E-08 -0.9135349
v 0.01273175 -0.01273174 -0.9135346
v 0.01373394 -0.01373393 0.9358151
v 0.01942237 1.921622E-09 0.9358147
v 0.01273175 -0.01273174 -0.9135346
v 1.740846E-09 -0.01800599 -0.9135349
v 6.074793E-09 -0.01942237 0.9358147
v 0.01373394 -0.01373393 0.9358151
v 1.740846E-09 -0.01800599 -0.9135349
v -0.01273178 -0.0127317 -0.9135346
v -0.01373392 -0.01373393 0.9358151
v 6.074793E-09 -0.01942237 0.9358147
v -0.01273178 -0.0127317 -0.9135346
v -0.01800599 -2.605613E-09 -0.9135349
v -0.01942238 1.192488E-09 0.9358147
v -0.01373392 -0.01373393 0.9358151
v 0.01373393 0.01373394 0.9358151
v 0.01942237 1.921622E-09 0.9358147
v 0.01373394 -0.01373393 0.9358151
v 6.074793E-09 -0.01942237 0.9358147
v 9.140289E-10 0.01942237 0.9358147
v -0.01373392 -0.01373393 0.9358151
v -0.01373393 0.01373393 0.9358151
v -0.01942238 1.192488E-09 0.9358147
v -0.01273176 0.01273172 -0.9135346
v 2.172363E-08 0.01800599 -0.9135349
v 9.140289E-10 0.01942237 0.9358147
v -0.01373393 0.01373393 0.9358151
v -0.01800599 -2.605613E-09 -0.9135349
v -0.01273176 0.01273172 -0.9135346
v -0.01373393 0.01373393 0.9358151
v -0.01942238 1.192488E-09 0.9358147
v 0.01273175 -0.01273174 -0.9135346
v 0.01800599 -1.613281E-08 -0.9135349
v 0.01273175 0.01273174 -0.9135346
v 1.740846E-09 -0.01800599 -0.9135349
v 2.172363E-08 0.01800599 -0.9135349
v -0.01273176 0.01273172 -0.9135346
v -0.01273178 -0.0127317 -0.9135346
v -0.01800599 -2.605613E-09 -0.9135349
vt 0 0
vt 0 1
vt 1 1
vt 1 0
vt 0 0
vt 0 1
vt 1 1
vt 1 0
vt 0 0
vt 0 1
vt 1 1
vt 1 0
vt 0.2666873 1
vt 0.733227 1
vt 1 1.21809E-07
vt 0 0
vt 0 0
vt 0 1
vt 1 1
vt 1 0
vt 0 0
vt 0 1
vt 1 1
vt 1 0
vt 0.5 1
vt 0.1464466 0.8535534
vt 0 0.5
vt 0.1464466 0.1464467
vt 0.8535534 0.8535534
vt 0.5 0
vt 1 0.5
vt 0.8535534 0.1464466
vt 0 0
vt 0 1
vt 1 1
vt 1 0
vt 0 0
vt 0 1
vt 1 1
vt 1 0
vt 0.8535534 0.1464466
vt 1 0.5
vt 0.8535534 0.8535534
vt 0.5 0
vt 0.5 1
vt 0.1464466 0.8535534
vt 0.1464466 0.1464467
vt 0 0.5
vn 0 0.6783379 -0.7347501
vn 0.3707006 0.3707004 -0.8515647
vn 0.3709543 0.3709541 0.8513436
vn 0 0.5246059 0.8513452
vn 0.3707006 0.3707004 -0.8515647
vn 0.8791824 0 -0.4764853
vn 0.8797465 0 0.475443
vn 0.3709543 0.3709541 0.8513436
vn 0.8791824 0 -0.4764853
vn 0.4796591 -0.479659 -0.7347478
vn 0.4800256 -0.4800255 0.734269
vn 0.8797465 0 0.475443
vn 0.4796591 -0.479659 -0.7347478
vn 0 -0.4192349 -0.9078779
vn 0 -0.5246059 0.8513452
vn 0.4800256 -0.4800255 0.734269
vn 0 -0.4192349 -0.9078779
vn -0.4796594 -0.4796589 -0.7347478
vn -0.3709544 -0.370954 0.8513435
vn 0 -0.5246059 0.8513452
vn -0.4796594 -0.4796589 -0.7347478
vn -0.8791824 0 -0.4764853
vn -0.8797465 0 0.475443
vn -0.3709544 -0.370954 0.8513435
vn 0.3709543 0.3709541 0.8513436
vn 0.8797465 0 0.475443
vn 0.4800256 -0.4800255 0.734269
vn 0 -0.5246059 0.8513452
vn 0 0.5246059 0.8513452
vn -0.3709544 -0.370954 0.8513435
vn -0.4800257 0.4800255 0.734269
vn -0.8797465 0 0.475443
vn -0.3707005 0.3707004 -0.8515646
vn 0 0.6783379 -0.7347501
vn 0 0.5246059 0.8513452
vn -0.4800257 0.4800255 0.734269
vn -0.8791824 0 -0.4764853
vn -0.3707005 0.3707004 -0.8515646
vn -0.4800257 0.4800255 0.734269
vn -0.8797465 0 0.475443
vn 0.4796591 -0.479659 -0.7347478
vn 0.8791824 0 -0.4764853
vn 0.3707006 0.3707004 -0.8515647
vn 0 -0.4192349 -0.9078779
vn 0 0.6783379 -0.7347501
vn -0.3707005 0.3707004 -0.8515646
vn -0.4796594 -0.4796589 -0.7347478
vn -0.8791824 0 -0.4764853
g Cylinder_0
f 3/3/3 2/2/2 1/1/1
f 4/4/4 3/3/3 1/1/1
f 7/7/7 6/6/6 5/5/5
f 8/8/8 7/7/7 5/5/5
f 11/11/11 10/10/10 9/9/9
f 12/12/12 11/11/11 9/9/9
f 15/15/15 14/14/14 13/13/13
f 16/16/16 15/15/15 13/13/13
f 19/19/19 18/18/18 17/17/17
f 20/20/20 19/19/19 17/17/17
f 23/23/23 22/22/22 21/21/21
f 24/24/24 23/23/23 21/21/21
f 27/27/27 26/26/26 25/25/25
f 25/25/25 28/28/28 27/27/27
f 25/25/25 29/29/29 28/28/28
f 29/29/29 30/30/30 28/28/28
f 29/29/29 31/31/31 30/30/30
f 31/31/31 32/32/32 30/30/30
f 35/35/35 34/34/34 33/33/33
f 36/36/36 35/35/35 33/33/33
f 39/39/39 38/38/38 37/37/37
f 40/40/40 39/39/39 37/37/37
f 43/43/43 42/42/42 41/41/41
f 41/41/41 44/44/44 43/43/43
f 44/44/44 45/45/45 43/43/43
f 44/44/44 46/46/46 45/45/45
f 44/44/44 47/47/47 46/46/46
f 47/47/47 48/48/48 46/46/46
