g Geo_FloorForeground
v 29.32131 0 -3.860388
v 0 0 0
v 28.56689 0 -7.654419
v 27.32271 0 -11.31765
v 25.61133 0 -14.78709
v 23.46228 0 -18.00347
v 20.91187 0 -20.91211
v 18.0032 0 -23.46248
v 14.78682 0 -25.6116
v 11.31737 0 -27.32297
v 7.654169 0 -28.56692
v 3.860123 0 -29.32153
v -0.0001316876 0 -29.5741
v -3.8604 0 -29.32153
v -7.654431 0 -28.56692
v -11.31766 0 -27.32297
v -14.7871 0 -25.6116
v -18.00349 0 -23.46248
v 148.3854 0 -39.7597
v 152.3055 0 -20.05149
v 108.6253 0 -108.6255
v 121.8743 0 -93.51757
v 133.0381 0 -76.80978
v 141.9258 0 -58.78773
v -39.75971 0 -148.3855
v -20.0515 0 -152.3056
v -6.991037E-05 0 -153.6195
v 20.05135 0 -152.3056
v 39.75957 0 -148.3855
v 58.78757 0 -141.926
v 76.80964 0 -133.0382
v 93.51742 0 -121.8744
v 138.8325 0 -240.4648
v 106.2578 0 -256.529
v 200.8553 0 -347.8914
v 153.728 0 -371.1321
v 71.86497 0 -268.204
v 103.9704 0 -388.0226
v 36.24257 0 -275.2897
v 52.4338 0 -398.2738
v -8.133101E-06 0 -277.665
v 5.364418E-05 0 -401.7104
v -36.24259 0 -275.2897
v -52.43369 0 -398.2738
v -71.86499 0 -268.204
v -103.9703 0 -388.0226
v -106.2578 0 -256.529
v -153.7279 0 -371.1321
v -138.8325 0 -240.4648
v -200.8552 0 -347.8914
v -169.0317 0 -220.2864
v -244.5458 0 -318.6983
v -196.3388 0 -196.3388
v -284.0521 0 -284.0522
v -220.2864 0 -169.0317
v -318.6983 0 -244.5458
v -240.4648 0 -138.8325
v -347.8914 0 -200.8553
v -256.529 0 -106.2579
v -371.132 0 -153.728
v -268.204 0 -71.86504
v -388.0225 0 -103.9704
v -275.2896 0 -36.24265
v -398.2736 0 -52.43378
v -277.6649 0 -8.265525E-05
v -401.7103 0 -5.960464E-05
v -275.2896 0 36.24249
v -398.2736 0 52.43367
v -268.204 0 71.86488
v -388.0224 0 103.9702
v -256.5289 0 106.2577
v -371.1319 0 153.7278
v -240.4647 0 138.8323
v -347.8913 0 200.8551
v -220.2863 0 169.0315
v -318.6982 0 244.5457
v -196.3387 0 196.3386
v -284.0521 0 284.052
v -169.0316 0 220.2861
v -244.5457 0 318.6982
v -138.8324 0 240.4646
v -200.8551 0 347.8912
v -106.2578 0 256.5288
v -153.7278 0 371.1319
v -71.86498 0 268.2037
v -103.9703 0 388.0222
v -36.24262 0 275.2894
v -52.43373 0 398.2735
v -6.55545E-05 0 277.6647
v -2.940297E-05 0 401.7102
v 36.24249 0 275.2894
v 52.43367 0 398.2735
v 71.86485 0 268.2037
v 103.9702 0 388.0222
v 106.2576 0 256.5287
v 153.7278 0 371.1317
v 138.8323 0 240.4645
v 200.855 0 347.8912
v 169.0314 0 220.2861
v 244.5456 0 318.6981
v 196.3385 0 196.3386
v 284.0519 0 284.0519
v 220.2861 0 169.0314
v 318.698 0 244.5456
v 240.4645 0 138.8323
v 347.8911 0 200.855
v 256.5287 0 106.2576
v 371.1317 0 153.7278
v 268.2037 0 71.86486
v 388.0221 0 103.9702
v 275.2893 0 36.2425
v 398.2734 0 52.43369
v 277.6646 0 -3.613709E-05
v 401.71 0 7.969141E-06
v 275.2896 0 -36.24258
v 398.2738 0 -52.43368
v 268.204 0 -71.86498
v 388.0226 0 -103.9703
v 256.529 0 -106.2578
v 371.1322 0 -153.7279
v 240.4648 0 -138.8325
v 347.8915 0 -200.8552
v 220.2864 0 -169.0317
v 318.6984 0 -244.5458
v 196.3388 0 -196.3388
v 284.0522 0 -284.0522
v 169.0316 0 -220.2864
v 244.5459 0 -318.6983
v 153.6192 0 -8.02433E-05
v 29.57378 0 -0.0001243495
v 29.32117 0 3.860135
v 28.56689 0 7.65415
v 27.32268 0 11.31738
v 25.61133 0 14.78683
v 23.46228 0 18.0032
v 20.91184 0 20.91187
v 18.0032 0 23.46221
v 14.78682 0 25.61133
v 11.31737 0 27.32268
v 7.654138 0 28.56665
v 3.860123 0 29.32126
v -0.0001378575 0 29.57383
v -3.8604 0 29.32126
v -7.654431 0 28.56665
v -11.31766 0 27.32271
v -14.78709 0 25.61133
v -18.00349 0 23.46221
v -20.91214 0 20.91187
v -23.46257 0 18.0032
v -25.61162 0 14.78683
v -27.32297 0 11.31738
v -28.56719 0 7.654157
v -29.32146 0 3.860135
v -29.57407 0 -0.0001287565
v -29.32146 0 -3.860388
v -28.56719 0 -7.654419
v -27.32297 0 -11.31765
v -25.61162 0 -14.7871
v -23.46257 0 -18.00347
v -20.91214 0 -20.91214
v -93.51757 0 -121.8744
v -76.80978 0 -133.0382
v -58.78773 0 -141.926
v -108.6255 0 -108.6255
v -121.8745 0 -93.51758
v -133.0382 0 -76.80981
v -141.926 0 -58.78776
v -148.3856 0 -39.75973
v -152.3055 0 -20.05152
v -153.6195 0 -0.0001057059
v -152.3055 0 20.05131
v -148.3856 0 39.75952
v -141.9259 0 58.78753
v -133.0382 0 76.80958
v -121.8744 0 93.51734
v -108.6254 0 108.6252
v -93.51757 0 121.8742
v -76.80977 0 133.0379
v -58.78772 0 141.9258
v -39.75971 0 148.3852
v -20.05151 0 152.3053
v -0.000101706 0 153.6193
v 20.0513 0 152.3053
v 39.75949 0 148.3852
v 58.7875 0 141.9257
v 76.80956 0 133.0379
v 93.51732 0 121.8741
v 108.6252 0 108.6252
v 121.8742 0 93.51733
v 133.0379 0 76.80956
v 141.9257 0 58.78751
v 148.3853 0 39.7595
v 152.3052 0 20.05132
vt 0.5364958 0.5048047
vt 0.5000002 0.4999998
vt 0.5355568 0.5095271
vt 0.5340083 0.5140866
vt 0.5318781 0.518405
vt 0.5292032 0.5224084
vt 0.5260288 0.5260286
vt 0.5224085 0.5292031
vt 0.5184051 0.531878
vt 0.5140867 0.5340081
vt 0.5095272 0.5355564
vt 0.5048048 0.5364957
vt 0.5000001 0.53681
vt 0.4951953 0.5364957
vt 0.4904729 0.5355564
vt 0.4859134 0.5340081
vt 0.481595 0.531878
vt 0.4775917 0.5292031
vt 0.6846924 0.5494878
vt 0.6895715 0.5249574
vt 0.6352038 0.6352036
vt 0.6516945 0.616399
vt 0.6655898 0.5956032
vt 0.6766522 0.5731716
vt 0.4505122 0.6846919
vt 0.4750426 0.6895713
vt 0.5000001 0.6912067
vt 0.5249577 0.6895713
vt 0.5494881 0.6846919
vt 0.5731719 0.676652
vt 0.5956035 0.6655896
vt 0.6163993 0.6516943
vt 0.672802 0.7993011
vt 0.632257 0.8192959
vt 0.7500005 0.9330127
vt 0.6913421 0.9619398
vt 0.589449 0.8338275
vt 0.6294099 0.982963
vt 0.5451106 0.8426468
vt 0.5652634 0.9957224
vt 0.5000002 0.8456033
vt 0.5000004 1
vt 0.4548899 0.8426468
vt 0.4347372 0.9957224
vt 0.4105514 0.8338275
vt 0.3705907 0.982963
vt 0.3677435 0.8192959
vt 0.3086585 0.9619398
vt 0.3271985 0.7993011
vt 0.2500002 0.9330127
vt 0.2896103 0.7741854
vt 0.1956195 0.8966767
vt 0.2556217 0.7443784
vt 0.1464468 0.8535534
vt 0.2258146 0.7103899
vt 0.1033235 0.8043807
vt 0.200699 0.6728016
vt 0.06698745 0.75
vt 0.1807042 0.6322566
vt 0.03806031 0.6913416
vt 0.1661726 0.5894487
vt 0.01703715 0.6294094
vt 0.1573533 0.5451102
vt 0.004277766 0.565263
vt 0.1543968 0.4999999
vt 2.384186E-07 0.4999999
vt 0.1573533 0.4548896
vt 0.004277766 0.4347368
vt 0.1661726 0.4105512
vt 0.01703721 0.3705903
vt 0.1807043 0.3677433
vt 0.03806043 0.3086582
vt 0.2006991 0.3271983
vt 0.06698751 0.2499999
vt 0.2258147 0.28961
vt 0.1033236 0.1956192
vt 0.2556217 0.2556214
vt 0.1464468 0.1464465
vt 0.2896103 0.2258145
vt 0.1956195 0.1033232
vt 0.3271985 0.2006989
vt 0.2500002 0.06698722
vt 0.3677435 0.1807041
vt 0.3086585 0.03806007
vt 0.4105515 0.1661726
vt 0.3705907 0.01703703
vt 0.4548898 0.1573532
vt 0.4347371 0.004277527
vt 0.5000001 0.1543967
vt 0.5000002 -2.980232E-08
vt 0.5451105 0.1573532
vt 0.5652633 0.004277587
vt 0.5894488 0.1661726
vt 0.6294097 0.01703709
vt 0.6322567 0.1807041
vt 0.6913419 0.03806025
vt 0.6728017 0.2006989
vt 0.7500001 0.06698728
vt 0.71039 0.2258146
vt 0.8043808 0.1033233
vt 0.7443786 0.2556215
vt 0.8535534 0.1464466
vt 0.7741855 0.28961
vt 0.8966767 0.1956192
vt 0.7993011 0.3271983
vt 0.9330127 0.2499999
vt 0.8192959 0.3677433
vt 0.9619398 0.3086582
vt 0.8338275 0.4105512
vt 0.9829628 0.3705904
vt 0.8426468 0.4548896
vt 0.9957223 0.4347367
vt 0.8456032 0.4999999
vt 0.9999999 0.4999998
vt 0.8426473 0.5451102
vt 0.995723 0.5652629
vt 0.8338279 0.5894486
vt 0.9829634 0.6294093
vt 0.8192962 0.6322566
vt 0.9619403 0.6913416
vt 0.7993015 0.6728016
vt 0.9330132 0.7499999
vt 0.7741859 0.7103899
vt 0.8966773 0.8043807
vt 0.7443788 0.7443784
vt 0.8535539 0.8535533
vt 0.7103902 0.7741854
vt 0.8043811 0.8966767
vt 0.6912067 0.4999999
vt 0.53681 0.5
vt 0.5364957 0.4951952
vt 0.5355568 0.4904729
vt 0.5340081 0.4859133
vt 0.5318781 0.481595
vt 0.5292032 0.4775916
vt 0.5260288 0.4739713
vt 0.5224085 0.4707969
vt 0.5184051 0.4681219
vt 0.5140867 0.4659919
vt 0.5095272 0.4644436
vt 0.5048048 0.4635043
vt 0.5000001 0.4631899
vt 0.4951953 0.4635043
vt 0.4904729 0.4644436
vt 0.4859134 0.4659919
vt 0.4815951 0.4681219
vt 0.4775917 0.4707969
vt 0.4739714 0.4739713
vt 0.4707969 0.4775916
vt 0.468122 0.481595
vt 0.4659919 0.4859133
vt 0.4644433 0.4904729
vt 0.4635044 0.4951952
vt 0.46319 0.5
vt 0.4635044 0.5048047
vt 0.4644433 0.5095271
vt 0.4659919 0.5140866
vt 0.468122 0.518405
vt 0.4707969 0.5224084
vt 0.4739714 0.5260288
vt 0.383601 0.6516943
vt 0.4043968 0.6655896
vt 0.4268284 0.676652
vt 0.3647965 0.6352036
vt 0.3483058 0.6163992
vt 0.3344105 0.5956033
vt 0.323348 0.5731716
vt 0.3153079 0.5494878
vt 0.3104289 0.5249575
vt 0.3087934 0.4999999
vt 0.3104289 0.4750424
vt 0.315308 0.4505121
vt 0.3233481 0.4268283
vt 0.3344105 0.4043967
vt 0.3483058 0.3836008
vt 0.3647965 0.3647963
vt 0.383601 0.3483057
vt 0.4043968 0.3344104
vt 0.4268284 0.3233479
vt 0.4505122 0.315308
vt 0.4750426 0.3104287
vt 0.5000001 0.3087933
vt 0.5249577 0.3104287
vt 0.5494881 0.3153081
vt 0.5731717 0.323348
vt 0.5956035 0.3344104
vt 0.6163992 0.3483057
vt 0.6352036 0.3647964
vt 0.6516944 0.3836008
vt 0.6655896 0.4043967
vt 0.6766521 0.4268283
vt 0.6846921 0.4505121
vt 0.6895713 0.4750424
vn 0 1 0
vn 0 1 0
vn 0 1 0
vn 0 1 0
vn 0 1 0
vn 0 1 0
vn 0 1 0
vn 0 1 0
vn 0 1 0
vn 0 1 0
vn 0 1 0
vn 0 1 0
vn 0 1 0
vn 0 1 0
vn 0 1 0
vn 0 1 0
vn 0 1 0
vn 0 1 0
vn 0 1 0
vn 0 1 0
vn 0 1 0
vn 0 1 0
vn 0 1 0
vn 0 1 0
vn 0 1 0
vn 0 1 0
vn 0 1 0
vn 0 1 0
vn 0 1 0
vn 0 1 0
vn 0 1 0
vn 0 1 0
vn 0 1 0
vn 0 1 0
vn 0 1 0
vn 0 1 0
vn 0 1 0
vn 0 1 0
vn 0 1 0
vn 0 1 0
vn 0 1 0
vn 0 1 0
vn 0 1 0
vn 0 1 0
vn 0 1 0
vn 0 1 0
vn 0 1 0
vn 0 1 0
vn 0 1 0
vn 0 1 0
vn 0 1 0
vn 0 1 0
vn 0 1 0
vn 0 1 0
vn 0 1 0
vn 0 1 0
vn 0 1 0
vn 0 1 0
vn 0 1 0
vn 0 1 0
vn 0 1 0
vn 0 1 0
vn 0 1 0
vn 0 1 0
vn 0 1 0
vn 0 1 0
vn 0 1 0
vn 0 1 0
vn 0 1 0
vn 0 1 0
vn 0 1 0
vn 0 1 0
vn 0 1 0
vn 0 1 0
vn 0 1 0
vn 0 1 0
vn 0 1 0
vn 0 1 0
vn 0 1 0
vn 0 1 0
vn 0 1 0
vn 0 1 0
vn 0 1 0
vn 0 1 0
vn 0 1 0
vn 0 1 0
vn 0 1 0
vn 0 1 0
vn 0 1 0
vn 0 1 0
vn 0 1 0
vn 0 1 0
vn 0 1 0
vn 0 1 0
vn 0 1 0
vn 0 1 0
vn 0 1 0
vn 0 1 0
vn 0 1 0
vn 0 1 0
vn 0 1 0
vn 0 1 0
vn 0 1 0
vn 0 1 0
vn 0 1 0
vn 0 1 0
vn 0 1 0
vn 0 1 0
vn 0 1 0
vn 0 1 0
vn 0 1 0
vn 0 1 0
vn 0 1 0
vn 0 1 0
vn 0 1 0
vn 0 1 0
vn 0 1 0
vn 0 1 0
vn 0 1 0
vn 0 1 0
vn 0 1 0
vn 0 1 0
vn 0 1 0
vn 0 1 0
vn 0 1 0
vn 0 1 0
vn 0 1 0
vn 0 1 0
vn 0 1 0
vn 0 1 0
vn 0 1 0
vn 0 1 0
vn 0 1 0
vn 0 1 0
vn 0 1 0
vn 0 1 0
vn 0 1 0
vn 0 1 0
vn 0 1 0
vn 0 1 0
vn 0 1 0
vn 0 1 0
vn 0 1 0
vn 0 1 0
vn 0 1 0
vn 0 1 0
vn 0 1 0
vn 0 1 0
vn 0 1 0
vn 0 1 0
vn 0 1 0
vn 0 1 0
vn 0 1 0
vn 0 1 0
vn 0 1 0
vn 0 1 0
vn 0 1 0
vn 0 1 0
vn 0 1 0
vn 0 1 0
vn 0 1 0
vn 0 1 0
vn 0 1 0
vn 0 1 0
vn 0 1 0
vn 0 1 0
vn 0 1 0
vn 0 1 0
vn 0 1 0
vn 0 1 0
vn 0 1 0
vn 0 1 0
vn 0 1 0
vn 0 1 0
vn 0 1 0
vn 0 1 0
vn 0 1 0
vn 0 1 0
vn 0 1 0
vn 0 1 0
vn 0 1 0
vn 0 1 0
vn 0 1 0
vn 0 1 0
vn 0 1 0
vn 0 1 0
vn 0 1 0
vn 0 1 0
vn 0 1 0
vn 0 1 0
vn 0 1 0
vn 0 1 0
vn 0 1 0
g Geo_FloorForeground_0
f 3/3/3 2/2/2 1/1/1
f 4/4/4 2/2/2 3/3/3
f 5/5/5 2/2/2 4/4/4
f 6/6/6 2/2/2 5/5/5
f 7/7/7 2/2/2 6/6/6
f 8/8/8 2/2/2 7/7/7
f 9/9/9 2/2/2 8/8/8
f 10/10/10 2/2/2 9/9/9
f 11/11/11 2/2/2 10/10/10
f 12/12/12 2/2/2 11/11/11
f 13/13/13 2/2/2 12/12/12
f 14/14/14 2/2/2 13/13/13
f 15/15/15 2/2/2 14/14/14
f 16/16/16 2/2/2 15/15/15
f 17/17/17 2/2/2 16/16/16
f 18/18/18 2/2/2 17/17/17
f 3/3/3 19/19/19 4/4/4
f 20/20/20 19/19/19 3/3/3
f 1/1/1 20/20/20 3/3/3
f 7/7/7 21/21/21 8/8/8
f 22/22/22 21/21/21 7/7/7
f 6/6/6 22/22/22 7/7/7
f 23/23/23 22/22/22 6/6/6
f 5/5/5 23/23/23 6/6/6
f 24/24/24 23/23/23 5/5/5
f 19/19/19 24/24/24 4/4/4
f 4/4/4 24/24/24 5/5/5
f 15/15/15 25/25/25 16/16/16
f 26/26/26 25/25/25 15/15/15
f 14/14/14 26/26/26 15/15/15
f 27/27/27 26/26/26 14/14/14
f 13/13/13 27/27/27 14/14/14
f 28/28/28 27/27/27 13/13/13
f 12/12/12 28/28/28 13/13/13
f 29/29/29 28/28/28 12/12/12
f 11/11/11 29/29/29 12/12/12
f 30/30/30 29/29/29 11/11/11
f 10/10/10 30/30/30 11/11/11
f 31/31/31 30/30/30 10/10/10
f 9/9/9 31/31/31 10/10/10
f 32/32/32 31/31/31 9/9/9
f 8/8/8 32/32/32 9/9/9
f 21/21/21 32/32/32 8/8/8
f 31/31/31 33/33/33 30/30/30
f 33/33/33 34/34/34 30/30/30
f 30/30/30 34/34/34 29/29/29
f 33/33/33 35/35/35 34/34/34
f 35/35/35 36/36/36 34/34/34
f 34/34/34 36/36/36 37/37/37
f 34/34/34 37/37/37 29/29/29
f 29/29/29 37/37/37 28/28/28
f 36/36/36 38/38/38 37/37/37
f 37/37/37 38/38/38 39/39/39
f 38/38/38 40/40/40 39/39/39
f 39/39/39 40/40/40 41/41/41
f 40/40/40 42/42/42 41/41/41
f 41/41/41 42/42/42 43/43/43
f 42/42/42 44/44/44 43/43/43
f 43/43/43 44/44/44 45/45/45
f 44/44/44 46/46/46 45/45/45
f 45/45/45 46/46/46 47/47/47
f 46/46/46 48/48/48 47/47/47
f 47/47/47 48/48/48 49/49/49
f 48/48/48 50/50/50 49/49/49
f 49/49/49 50/50/50 51/51/51
f 50/50/50 52/52/52 51/51/51
f 51/51/51 52/52/52 53/53/53
f 52/52/52 54/54/54 53/53/53
f 53/53/53 54/54/54 55/55/55
f 54/54/54 56/56/56 55/55/55
f 55/55/55 56/56/56 57/57/57
f 56/56/56 58/58/58 57/57/57
f 57/57/57 58/58/58 59/59/59
f 58/58/58 60/60/60 59/59/59
f 59/59/59 60/60/60 61/61/61
f 60/60/60 62/62/62 61/61/61
f 61/61/61 62/62/62 63/63/63
f 62/62/62 64/64/64 63/63/63
f 63/63/63 64/64/64 65/65/65
f 64/64/64 66/66/66 65/65/65
f 65/65/65 66/66/66 67/67/67
f 66/66/66 68/68/68 67/67/67
f 67/67/67 68/68/68 69/69/69
f 68/68/68 70/70/70 69/69/69
f 69/69/69 70/70/70 71/71/71
f 70/70/70 72/72/72 71/71/71
f 71/71/71 72/72/72 73/73/73
f 72/72/72 74/74/74 73/73/73
f 73/73/73 74/74/74 75/75/75
f 74/74/74 76/76/76 75/75/75
f 75/75/75 76/76/76 77/77/77
f 76/76/76 78/78/78 77/77/77
f 77/77/77 78/78/78 79/79/79
f 78/78/78 80/80/80 79/79/79
f 79/79/79 80/80/80 81/81/81
f 80/80/80 82/82/82 81/81/81
f 81/81/81 82/82/82 83/83/83
f 82/82/82 84/84/84 83/83/83
f 83/83/83 84/84/84 85/85/85
f 84/84/84 86/86/86 85/85/85
f 85/85/85 86/86/86 87/87/87
f 86/86/86 88/88/88 87/87/87
f 87/87/87 88/88/88 89/89/89
f 88/88/88 90/90/90 89/89/89
f 89/89/89 90/90/90 91/91/91
f 90/90/90 92/92/92 91/91/91
f 91/91/91 92/92/92 93/93/93
f 92/92/92 94/94/94 93/93/93
f 93/93/93 94/94/94 95/95/95
f 94/94/94 96/96/96 95/95/95
f 95/95/95 96/96/96 97/97/97
f 96/96/96 98/98/98 97/97/97
f 97/97/97 98/98/98 99/99/99
f 98/98/98 100/100/100 99/99/99
f 99/99/99 100/100/100 101/101/101
f 100/100/100 102/102/102 101/101/101
f 101/101/101 102/102/102 103/103/103
f 102/102/102 104/104/104 103/103/103
f 103/103/103 104/104/104 105/105/105
f 104/104/104 106/106/106 105/105/105
f 105/105/105 106/106/106 107/107/107
f 106/106/106 108/108/108 107/107/107
f 107/107/107 108/108/108 109/109/109
f 108/108/108 110/110/110 109/109/109
f 109/109/109 110/110/110 111/111/111
f 110/110/110 112/112/112 111/111/111
f 111/111/111 112/112/112 113/113/113
f 112/112/112 114/114/114 113/113/113
f 113/113/113 114/114/114 115/115/115
f 114/114/114 116/116/116 115/115/115
f 115/115/115 116/116/116 117/117/117
f 116/116/116 118/118/118 117/117/117
f 117/117/117 118/118/118 119/119/119
f 118/118/118 120/120/120 119/119/119
f 119/119/119 120/120/120 121/121/121
f 120/120/120 122/122/122 121/121/121
f 121/121/121 122/122/122 123/123/123
f 122/122/122 124/124/124 123/123/123
f 123/123/123 124/124/124 125/125/125
f 124/124/124 126/126/126 125/125/125
f 125/125/125 126/126/126 127/127/127
f 126/126/126 128/128/128 127/127/127
f 127/127/127 128/128/128 33/33/33
f 128/128/128 35/35/35 33/33/33
f 115/115/115 117/117/117 19/19/19
f 20/20/20 115/115/115 19/19/19
f 113/113/113 115/115/115 20/20/20
f 129/129/129 113/113/113 20/20/20
f 129/129/129 20/20/20 1/1/1
f 130/130/130 129/129/129 1/1/1
f 1/1/1 2/2/2 130/130/130
f 130/130/130 2/2/2 131/131/131
f 131/131/131 2/2/2 132/132/132
f 132/132/132 2/2/2 133/133/133
f 133/133/133 2/2/2 134/134/134
f 134/134/134 2/2/2 135/135/135
f 135/135/135 2/2/2 136/136/136
f 136/136/136 2/2/2 137/137/137
f 137/137/137 2/2/2 138/138/138
f 138/138/138 2/2/2 139/139/139
f 139/139/139 2/2/2 140/140/140
f 140/140/140 2/2/2 141/141/141
f 141/141/141 2/2/2 142/142/142
f 142/142/142 2/2/2 143/143/143
f 143/143/143 2/2/2 144/144/144
f 144/144/144 2/2/2 145/145/145
f 145/145/145 2/2/2 146/146/146
f 146/146/146 2/2/2 147/147/147
f 147/147/147 2/2/2 148/148/148
f 148/148/148 2/2/2 149/149/149
f 149/149/149 2/2/2 150/150/150
f 150/150/150 2/2/2 151/151/151
f 151/151/151 2/2/2 152/152/152
f 152/152/152 2/2/2 153/153/153
f 153/153/153 2/2/2 154/154/154
f 154/154/154 2/2/2 155/155/155
f 155/155/155 2/2/2 156/156/156
f 156/156/156 2/2/2 157/157/157
f 157/157/157 2/2/2 158/158/158
f 158/158/158 2/2/2 159/159/159
f 159/159/159 2/2/2 160/160/160
f 160/160/160 2/2/2 18/18/18
f 18/18/18 161/161/161 160/160/160
f 162/162/162 161/161/161 18/18/18
f 17/17/17 162/162/162 18/18/18
f 163/163/163 162/162/162 17/17/17
f 16/16/16 163/163/163 17/17/17
f 25/25/25 163/163/163 16/16/16
f 161/161/161 164/164/164 160/160/160
f 160/160/160 164/164/164 159/159/159
f 164/164/164 165/165/165 159/159/159
f 159/159/159 165/165/165 158/158/158
f 165/165/165 166/166/166 158/158/158
f 158/158/158 166/166/166 157/157/157
f 166/166/166 167/167/167 157/157/157
f 157/157/157 167/167/167 156/156/156
f 167/167/167 168/168/168 156/156/156
f 25/25/25 45/45/45 163/163/163
f 43/43/43 45/45/45 25/25/25
f 26/26/26 43/43/43 25/25/25
f 41/41/41 43/43/43 26/26/26
f 27/27/27 41/41/41 26/26/26
f 39/39/39 41/41/41 27/27/27
f 28/28/28 39/39/39 27/27/27
f 37/37/37 39/39/39 28/28/28
f 45/45/45 47/47/47 163/163/163
f 164/164/164 53/53/53 165/165/165
f 51/51/51 53/53/53 164/164/164
f 161/161/161 51/51/51 164/164/164
f 49/49/49 51/51/51 161/161/161
f 47/47/47 49/49/49 162/162/162
f 162/162/162 49/49/49 161/161/161
f 163/163/163 47/47/47 162/162/162
f 168/168/168 169/169/169 155/155/155
f 156/156/156 168/168/168 155/155/155
f 155/155/155 169/169/169 154/154/154
f 169/169/169 170/170/170 154/154/154
f 154/154/154 170/170/170 153/153/153
f 170/170/170 171/171/171 153/153/153
f 153/153/153 171/171/171 152/152/152
f 171/171/171 172/172/172 152/152/152
f 152/152/152 172/172/172 151/151/151
f 172/172/172 173/173/173 151/151/151
f 151/151/151 173/173/173 150/150/150
f 173/173/173 174/174/174 150/150/150
f 150/150/150 174/174/174 149/149/149
f 174/174/174 175/175/175 149/149/149
f 149/149/149 175/175/175 148/148/148
f 175/175/175 176/176/176 148/148/148
f 148/148/148 176/176/176 147/147/147
f 176/176/176 177/177/177 147/147/147
f 147/147/147 177/177/177 146/146/146
f 177/177/177 178/178/178 146/146/146
f 146/146/146 178/178/178 145/145/145
f 178/178/178 179/179/179 145/145/145
f 145/145/145 179/179/179 144/144/144
f 179/179/179 180/180/180 144/144/144
f 144/144/144 180/180/180 143/143/143
f 180/180/180 181/181/181 143/143/143
f 143/143/143 181/181/181 142/142/142
f 181/181/181 182/182/182 142/142/142
f 142/142/142 182/182/182 141/141/141
f 182/182/182 183/183/183 141/141/141
f 141/141/141 183/183/183 140/140/140
f 183/183/183 184/184/184 140/140/140
f 140/140/140 184/184/184 139/139/139
f 184/184/184 185/185/185 139/139/139
f 139/139/139 185/185/185 138/138/138
f 185/185/185 186/186/186 138/138/138
f 138/138/138 186/186/186 137/137/137
f 186/186/186 187/187/187 137/137/137
f 137/137/137 187/187/187 136/136/136
f 187/187/187 188/188/188 136/136/136
f 136/136/136 188/188/188 135/135/135
f 188/188/188 189/189/189 135/135/135
f 135/135/135 189/189/189 134/134/134
f 189/189/189 190/190/190 134/134/134
f 134/134/134 190/190/190 133/133/133
f 190/190/190 191/191/191 133/133/133
f 133/133/133 191/191/191 132/132/132
f 191/191/191 192/192/192 132/132/132
f 132/132/132 192/192/192 131/131/131
f 192/192/192 193/193/193 131/131/131
f 131/131/131 193/193/193 130/130/130
f 193/193/193 129/129/129 130/130/130
f 187/187/187 99/99/99 188/188/188
f 97/97/97 99/99/99 187/187/187
f 99/99/99 101/101/101 188/188/188
f 188/188/188 101/101/101 189/189/189
f 101/101/101 103/103/103 189/189/189
f 189/189/189 103/103/103 190/190/190
f 103/103/103 105/105/105 190/190/190
f 190/190/190 105/105/105 191/191/191
f 105/105/105 107/107/107 191/191/191
f 191/191/191 107/107/107 192/192/192
f 107/107/107 109/109/109 192/192/192
f 192/192/192 109/109/109 193/193/193
f 109/109/109 111/111/111 193/193/193
f 193/193/193 111/111/111 129/129/129
f 111/111/111 113/113/113 129/129/129
f 95/95/95 97/97/97 186/186/186
f 185/185/185 95/95/95 186/186/186
f 93/93/93 95/95/95 185/185/185
f 184/184/184 93/93/93 185/185/185
f 91/91/91 93/93/93 184/184/184
f 183/183/183 91/91/91 184/184/184
f 89/89/89 91/91/91 183/183/183
f 182/182/182 89/89/89 183/183/183
f 87/87/87 89/89/89 182/182/182
f 181/181/181 87/87/87 182/182/182
f 85/85/85 87/87/87 181/181/181
f 180/180/180 85/85/85 181/181/181
f 83/83/83 85/85/85 180/180/180
f 179/179/179 83/83/83 180/180/180
f 81/81/81 83/83/83 179/179/179
f 178/178/178 81/81/81 179/179/179
f 79/79/79 81/81/81 178/178/178
f 177/177/177 79/79/79 178/178/178
f 77/77/77 79/79/79 177/177/177
f 176/176/176 77/77/77 177/177/177
f 75/75/75 77/77/77 176/176/176
f 175/175/175 75/75/75 176/176/176
f 73/73/73 75/75/75 175/175/175
f 174/174/174 73/73/73 175/175/175
f 71/71/71 73/73/73 174/174/174
f 173/173/173 71/71/71 174/174/174
f 69/69/69 71/71/71 173/173/173
f 172/172/172 69/69/69 173/173/173
f 67/67/67 69/69/69 172/172/172
f 171/171/171 67/67/67 172/172/172
f 65/65/65 67/67/67 171/171/171
f 170/170/170 65/65/65 171/171/171
f 63/63/63 65/65/65 170/170/170
f 169/169/169 63/63/63 170/170/170
f 61/61/61 63/63/63 169/169/169
f 168/168/168 61/61/61 169/169/169
f 59/59/59 61/61/61 168/168/168
f 167/167/167 59/59/59 168/168/168
f 57/57/57 59/59/59 167/167/167
f 166/166/166 57/57/57 167/167/167
f 55/55/55 57/57/57 166/166/166
f 165/165/165 55/55/55 166/166/166
f 53/53/53 55/55/55 165/165/165
f 186/186/186 97/97/97 187/187/187
f 117/117/117 119/119/119 24/24/24
f 19/19/19 117/117/117 24/24/24
f 24/24/24 119/119/119 23/23/23
f 119/119/119 121/121/121 23/23/23
f 23/23/23 121/121/121 22/22/22
f 121/121/121 123/123/123 22/22/22
f 22/22/22 123/123/123 21/21/21
f 123/123/123 125/125/125 21/21/21
f 21/21/21 125/125/125 32/32/32
f 125/125/125 127/127/127 32/32/32
f 32/32/32 127/127/127 31/31/31
f 127/127/127 33/33/33 31/31/31
