g KnucklesLController_AButton
v 0.01756642 0.0328588 0.0116311
v 0.01791638 0.03083459 0.01607311
v -0.0008089133 0.03158052 0.01519257
v 0.01699139 0.0288165 0.02043447
v 0.01485425 0.0269418 0.02441809
v 0.01165099 0.02533839 0.02775258
v 0.007599827 0.0241156 0.03021055
v 0.002976339 0.0233567 0.0316245
v -0.00190397 0.0231132 0.0318982
v -0.006708462 0.0234021 0.03101289
v -0.01110952 0.02420341 0.02902886
v -0.01480815 0.02546261 0.02608147
v -0.01755129 0.02709391 0.02237126
v -0.01915245 0.0289861 0.01815164
v -0.01950254 0.03101022 0.01370978
v -0.01857759 0.0330284 0.009348303
v -0.01644057 0.03490309 0.005364805
v -0.01323717 0.03650642 0.002030313
v -0.009186048 0.0377293 -0.0004277527
v -0.004562352 0.03848822 -0.001841515
v 0.0003177188 0.03873161 -0.002115309
v 0.005122256 0.0384428 -0.001230121
v 0.009523612 0.03764153 0.0007539093
v 0.0132219 0.0363823 0.003701299
v 0.015965 0.03475101 0.007411301
v -0.03421678 0.0194368 0.02809936
v -0.0374192 0.0232212 0.01965991
v -0.03626925 0.0313058 0.002053171
v -0.03199515 0.03505511 -0.005914032
v -0.01748599 0.04070751 -0.01749882
v -0.008239124 0.0422254 -0.02032679
v 0.001521122 0.04271222 -0.02087414
v 0.01993291 0.04053188 -0.0151355
v 0.02732965 0.03801353 -0.009240717
v 0.03601843 0.0309665 0.006619006
v 0.03671857 0.02691812 0.0155029
v 0.03486845 0.0228819 0.02422556
v 0.03059439 0.01913261 0.03219292
v 0.02418778 0.01592582 0.03886172
v 0.01608511 0.01348021 0.04377767
v 0.006838348 0.0119622 0.04660556
v -0.002921928 0.01147551 0.04715285
v -0.012531 0.01205321 0.04538217
v -0.02133373 0.01365571 0.04141429
v -0.02873044 0.0161742 0.03551951
v 0.01836702 0.009785302 0.04699889
v 0.02754918 0.01255681 0.04142806
v 0.007888358 0.008065201 0.05020359
v -0.003172431 0.007513605 0.05082384
v -0.0140615 0.008168213 0.04881719
v -0.02403719 0.009984307 0.04432067
v -0.0324194 0.01283831 0.03764039
v -0.03863681 0.01653551 0.02923185
v -0.04226567 0.0208241 0.01966786
v -0.043059 0.02541181 0.009600371
v -0.03811908 0.0272694 0.0107761
v -0.04096268 0.02998579 -0.0002845228
v -0.03611915 0.03423471 -0.009313315
v -0.02885902 0.03786872 -0.01687083
v -0.02558859 0.03826181 -0.01258293
v -0.01967669 0.04064021 -0.02244157
v -0.009198207 0.04236028 -0.02564636
v 0.001862641 0.04291189 -0.02626646
v 0.01275189 0.04225732 -0.02426007
v 0.01113011 0.04213453 -0.0191035
v 0.02272743 0.04044122 -0.01976338
v 0.03110968 0.0375872 -0.0130831
v 0.03732721 0.0338899 -0.004674613
v 0.03281603 0.0347508 -0.001820475
v 0.04095593 0.0296014 0.004889488
v 0.04174938 0.02501381 0.01495683
v 0.03965293 0.0204396 0.02484187
v 0.03480956 0.0161907 0.03387067
v 0.04392423 0.0204628 0.01300925
v 0.04309237 0.02527381 0.002451509
v 0.04172574 0.01566591 0.0233756
v 0.03664641 0.01121011 0.03284401
v 0.02903276 0.007399194 0.04076949
v 0.01940319 0.004492693 0.04661158
v 0.008414309 0.002688818 0.04997239
v -0.003185112 0.002110399 0.05062279
v -0.01460453 0.002796806 0.04851851
v -0.02506589 0.004701413 0.04380295
v -0.0338562 0.007694416 0.03679737
v -0.04037655 0.01157161 0.02797928
v -0.04418208 0.01606911 0.01794955
v -0.04501419 0.0208801 0.007392019
v -0.0428155 0.02567702 -0.002974421
v -0.03773626 0.03013272 -0.01244289
v -0.03012249 0.03394372 -0.02036831
v -0.02049302 0.0368501 -0.02621037
v -0.009504218 0.0386541 -0.02957132
v 0.002095144 0.0392325 -0.03022173
v 0.01351477 0.03854612 -0.02811745
v 0.02397605 0.03664143 -0.02340186
v 0.03276649 0.03364841 -0.01639608
v 0.03928661 0.02977122 -0.007578164
v -0.008414436 -0.006368198 -0.0501734
v -0.01940321 -0.008171998 -0.04681256
v 0.003185239 -0.005789705 -0.05082384
v 0.01460456 -0.006476201 -0.04871964
v 0.02506593 -0.008380793 -0.04400393
v 0.03385646 -0.0113738 -0.03699839
v 0.04037652 -0.01525109 -0.0281803
v 0.04418222 -0.0197484 -0.01815069
v 0.04501419 -0.02455951 -0.007592916
v 0.04281553 -0.02935638 0.002773345
v 0.03773623 -0.0338121 0.01224199
v 0.03012249 -0.03762309 0.02016741
v 0.02049322 -0.0405295 0.02600959
v 0.009504136 -0.04233349 0.02937043
v -0.002095167 -0.04291189 0.03002071
v -0.01351464 -0.0422254 0.02791649
v -0.02397596 -0.04032079 0.0232009
v -0.03276635 -0.03732789 0.01619518
v -0.0392866 -0.03345049 0.007377267
v -0.0430923 -0.02895319 -0.002652287
v -0.04392425 -0.02414209 -0.01321024
v -0.0417258 -0.01934519 -0.02357656
v -0.03664633 -0.01488949 -0.03304508
v -0.02903273 -0.01107848 -0.04097044
vt 0.1316586 0.8227676
vt 0.133179 0.8343149
vt 0.1762737 0.8227676
vt 0.1376359 0.8450754
vt 0.1447263 0.8543152
vt 0.1539663 0.8614053
vt 0.1647264 0.8658625
vt 0.1762737 0.8673828
vt 0.1878209 0.8658625
vt 0.1985813 0.8614053
vt 0.2078211 0.8543152
vt 0.2149118 0.8450754
vt 0.2193686 0.8343149
vt 0.220889 0.8227676
vt 0.2193686 0.8112206
vt 0.2149118 0.8004604
vt 0.2078211 0.7912198
vt 0.1985813 0.7841299
vt 0.1878209 0.7796728
vt 0.1762737 0.7781525
vt 0.1647267 0.7796728
vt 0.1539663 0.7841299
vt 0.1447263 0.7912198
vt 0.1376359 0.8004602
vt 0.133179 0.8112206
vt 0.2624633 0.8458622
vt 0.265504 0.8227676
vt 0.2535493 0.7781528
vt 0.2393691 0.7596725
vt 0.1993683 0.7365783
vt 0.1762737 0.7335378
vt 0.1531794 0.7365779
vt 0.1131786 0.7596725
vt 0.09899808 0.7781525
vt 0.08704393 0.8227676
vt 0.09008402 0.8458622
vt 0.09899808 0.8673825
vt 0.1131786 0.8858629
vt 0.1316586 0.9000432
vt 0.1531792 0.9089572
vt 0.1762737 0.9119977
vt 0.1993683 0.9089572
vt 0.220889 0.9000432
vt 0.2393688 0.8858629
vt 0.2535493 0.8673828
vt 0.1501023 0.9204404
vt 0.1257145 0.9103388
vt 0.1762737 0.9238861
vt 0.2024451 0.9204404
vt 0.2268329 0.910339
vt 0.2477752 0.8942692
vt 0.2638448 0.8733267
vt 0.2739464 0.8489391
vt 0.277392 0.8227679
vt 0.2739464 0.7965964
vt 0.2624633 0.799673
vt 0.2638448 0.7722088
vt 0.2477752 0.7512664
vt 0.2268331 0.7351968
vt 0.220889 0.7454922
vt 0.2024451 0.7250946
vt 0.1762737 0.7216493
vt 0.1501023 0.7250946
vt 0.1257148 0.7351965
vt 0.131659 0.7454922
vt 0.1047725 0.751266
vt 0.08870266 0.7722085
vt 0.078601 0.7965962
vt 0.09008402 0.799673
vt 0.07515569 0.8227676
vt 0.078601 0.8489391
vt 0.08870266 0.8733267
vt 0.1047725 0.8942692
vt 0.07384442 0.8502134
vt 0.07023104 0.8227676
vt 0.08443815 0.8757891
vt 0.1012904 0.8977511
vt 0.1232525 0.9146031
vt 0.1488278 0.9251967
vt 0.1762737 0.9288101
vt 0.2037196 0.9251971
vt 0.2292952 0.9146031
vt 0.251257 0.8977511
vt 0.2681092 0.8757891
vt 0.2787032 0.8502134
vt 0.2823163 0.8227679
vt 0.2787032 0.795322
vt 0.2681092 0.7697464
vt 0.251257 0.7477842
vt 0.2292955 0.7309321
vt 0.2037199 0.7203386
vt 0.1762737 0.7167249
vt 0.1488281 0.7203383
vt 0.1232528 0.7309321
vt 0.1012904 0.7477842
vt 0.08443815 0.7697464
vt 0.07384442 0.795322
vt 0.1767349 0.6601073
vt 0.2187154 0.66565
vt 0.1347548 0.6656494
vt 0.09563602 0.6819
vt 0.06204305 0.7077492
vt 0.03626662 0.7414378
vt 0.02006239 0.7806684
vt 0.01453564 0.8227676
vt 0.02006239 0.8648674
vt 0.03626662 0.9040979
vt 0.06204305 0.9377865
vt 0.09563602 0.9636356
vt 0.1347548 0.9798855
vt 0.1767349 0.9854281
vt 0.2187154 0.9798859
vt 0.2578347 0.9636356
vt 0.291427 0.9377865
vt 0.3172035 0.9040979
vt 0.3334074 0.8648674
vt 0.3389339 0.8227681
vt 0.3334074 0.7806684
vt 0.3172035 0.7414378
vt 0.291427 0.7077495
vt 0.2578347 0.6819
vn 0.1122412 0.9146789 0.3882838
vn 0.1147975 0.8999023 0.4207104
vn -0.02200706 0.9090977 0.4160013
vn 0.1080418 0.8851668 0.4525558
vn 0.09243746 0.8714783 0.481644
vn 0.06905499 0.8597741 0.5059842
vn 0.03947715 0.8508458 0.5239303
vn 0.005720241 0.8453053 0.5342529
vn -0.02990588 0.8435262 0.5362548
vn -0.0649879 0.845637 0.5297874
vn -0.09712778 0.8514888 0.515299
vn -0.1241234 0.86068 0.4937846
vn -0.1441501 0.8725916 0.4666954
vn -0.1558415 0.8864051 0.4358892
vn -0.1583968 0.9011833 0.403459
vn -0.1516473 0.9159149 0.371622
vn -0.1360404 0.929604 0.3425336
vn -0.1126531 0.9413117 0.3181849
vn -0.08307543 0.9502389 0.3002409
vn -0.04931812 0.9557794 0.2899198
vn -0.01369361 0.9575561 0.2879217
vn 0.02138994 0.9554474 0.2943852
vn 0.05352022 0.949597 0.3088708
vn 0.08052149 0.9404042 0.3303881
vn 0.1005502 0.9284941 0.357475
vn -0.2967176 0.8017492 0.5188034
vn -0.3230706 0.8328864 0.4493613
vn -0.3136086 0.8994086 0.3044893
vn -0.2784379 0.9302604 0.2389309
vn -0.1590483 0.9767697 0.1436121
vn -0.0829663 0.9892598 0.1203393
vn -0.00265723 0.9932653 0.1158314
vn 0.1488431 0.9753253 0.1630533
vn 0.2097107 0.9546025 0.2115549
vn 0.2812018 0.8966171 0.3420574
vn 0.2869579 0.8633071 0.415158
vn 0.2717425 0.8300945 0.4869282
vn 0.2365734 0.7992424 0.5524895
vn 0.1838507 0.7728607 0.6073592
vn 0.1171859 0.7527322 0.6478131
vn 0.04109507 0.7402436 0.6710817
vn -0.03921368 0.7362388 0.6755847
vn -0.1182813 0.7409908 0.6610159
vn -0.1907144 0.7541778 0.628366
vn -0.2515741 0.7748983 0.5798647
vn 0.308165 0.3663895 0.8779482
vn 0.4642637 0.4135158 0.7832394
vn 0.1300198 0.3371502 0.9324293
vn -0.05802049 0.3277761 0.9429721
vn -0.2431416 0.3389058 0.9088593
vn -0.412735 0.369777 0.8324151
vn -0.5552377 0.4182889 0.7188502
vn -0.6609424 0.4811469 0.575893
vn -0.722638 0.5540553 0.4133001
vn -0.7361197 0.6320546 0.242146
vn -0.3288231 0.8662008 0.37626
vn -0.7004786 0.7098168 0.07409429
vn -0.6181415 0.7820466 -0.07939935
vn -0.4947113 0.8438279 -0.2078829
vn -0.2257186 0.9566469 0.1840595
vn -0.3386041 0.8909457 -0.3025936
vn -0.1604562 0.9201909 -0.3570748
vn 0.02758053 0.9295675 -0.3676189
vn 0.2127055 0.918438 -0.3335087
vn 0.07641169 0.988512 0.1304034
vn 0.3823 0.8875633 -0.2570564
vn 0.5248038 0.8390413 -0.1434946
vn 0.6305044 0.7761855 -0.0005433
vn 0.2548561 0.9277562 0.2726113
vn 0.6921938 0.7032814 0.1620592
vn 0.7056886 0.6252812 0.333207
vn 0.670047 0.5475175 0.50126
vn 0.5877091 0.4752842 0.6547542
vn 0.9751957 0.169994 0.1417583
vn 0.9568716 0.2759665 -0.09076983
vn 0.9267741 0.06434533 0.3700668
vn 0.8149089 -0.03378607 0.5786034
vn 0.6472102 -0.1177171 0.7531678
vn 0.4351201 -0.181734 0.8818408
vn 0.1930966 -0.2214614 0.9558602
vn -0.06237392 -0.2342005 0.9701854
vn -0.3138861 -0.219078 0.9238399
vn -0.5442969 -0.1771325 0.8199787
vn -0.7378982 -0.1112191 0.665685
vn -0.8815065 -0.02582534 0.4714652
vn -0.9653261 0.07322972 0.2505648
vn -0.983649 0.1791904 0.01803894
vn -0.9352241 0.2848466 -0.2102813
vn -0.8233579 0.3829775 -0.4188198
vn -0.6556665 0.4669122 -0.5933755
vn -0.4435806 0.5309213 -0.7220518
vn -0.2015522 0.5706562 -0.7960705
vn 0.05392198 0.5833987 -0.810394
vn 0.3054317 0.5682804 -0.7640477
vn 0.5358467 0.5263314 -0.6601846
vn 0.7294487 0.4604115 -0.5058912
vn 0.8730499 0.3750192 -0.3116803
vn -0.2010671 0.4035757 -0.8925799
vn -0.4476854 0.3630917 -0.8171549
vn 0.05924937 0.4165567 -0.9071769
vn 0.3155335 0.4011512 -0.8599514
vn 0.5503146 0.3584064 -0.7541211
vn 0.7475919 0.2912376 -0.5968977
vn 0.8939203 0.2042217 -0.3989986
vn 0.9793297 0.1032879 -0.1739113
vn 0.9980003 -0.00468424 0.06303377
vn 0.9486586 -0.1123358 0.2956815
vn 0.8346674 -0.2123342 0.5081776
vn 0.6637977 -0.2978625 0.6860397
vn 0.447686 -0.3630905 0.8171552
vn 0.2010644 -0.4035739 0.8925812
vn -0.05925163 -0.4165557 0.9071772
vn -0.3155336 -0.40115 0.8599518
vn -0.5503152 -0.358406 0.7541208
vn -0.7475911 -0.291237 0.5968991
vn -0.8939187 -0.2042226 0.399002
vn -0.9793297 -0.1032876 0.173911
vn -0.9980004 0.004685809 -0.06303265
vn -0.9486586 0.1123386 -0.2956802
vn -0.8346681 0.2123361 -0.5081758
vn -0.663795 0.2978635 -0.686042
g KnucklesLController_AButton_0
f 3/3/3 2/2/2 1/1/1
f 3/3/3 4/4/4 2/2/2
f 3/3/3 5/5/5 4/4/4
f 3/3/3 6/6/6 5/5/5
f 3/3/3 7/7/7 6/6/6
f 3/3/3 8/8/8 7/7/7
f 3/3/3 9/9/9 8/8/8
f 3/3/3 10/10/10 9/9/9
f 3/3/3 11/11/11 10/10/10
f 3/3/3 12/12/12 11/11/11
f 3/3/3 13/13/13 12/12/12
f 3/3/3 14/14/14 13/13/13
f 3/3/3 15/15/15 14/14/14
f 3/3/3 16/16/16 15/15/15
f 3/3/3 17/17/17 16/16/16
f 3/3/3 18/18/18 17/17/17
f 3/3/3 19/19/19 18/18/18
f 3/3/3 20/20/20 19/19/19
f 3/3/3 21/21/21 20/20/20
f 3/3/3 22/22/22 21/21/21
f 3/3/3 23/23/23 22/22/22
f 3/3/3 24/24/24 23/23/23
f 3/3/3 25/25/25 24/24/24
f 3/3/3 1/1/1 25/25/25
f 13/13/13 26/26/26 12/12/12
f 14/14/14 27/27/27 13/13/13
f 26/26/26 13/13/13 27/27/27
f 16/16/16 28/28/28 15/15/15
f 17/17/17 29/29/29 16/16/16
f 28/28/28 16/16/16 29/29/29
f 19/19/19 30/30/30 18/18/18
f 20/20/20 31/31/31 19/19/19
f 30/30/30 19/19/19 31/31/31
f 21/21/21 32/32/32 20/20/20
f 31/31/31 20/20/20 32/32/32
f 23/23/23 33/33/33 22/22/22
f 24/24/24 34/34/34 23/23/23
f 33/33/33 23/23/23 34/34/34
f 1/1/1 35/35/35 25/25/25
f 35/35/35 1/1/1 36/36/36
f 2/2/2 36/36/36 1/1/1
f 36/36/36 2/2/2 37/37/37
f 4/4/4 37/37/37 2/2/2
f 37/37/37 4/4/4 38/38/38
f 5/5/5 38/38/38 4/4/4
f 38/38/38 5/5/5 39/39/39
f 6/6/6 39/39/39 5/5/5
f 39/39/39 6/6/6 40/40/40
f 7/7/7 40/40/40 6/6/6
f 40/40/40 7/7/7 41/41/41
f 8/8/8 41/41/41 7/7/7
f 41/41/41 8/8/8 42/42/42
f 9/9/9 42/42/42 8/8/8
f 42/42/42 9/9/9 43/43/43
f 10/10/10 43/43/43 9/9/9
f 43/43/43 10/10/10 44/44/44
f 11/11/11 44/44/44 10/10/10
f 44/44/44 11/11/11 45/45/45
f 12/12/12 45/45/45 11/11/11
f 45/45/45 12/12/12 26/26/26
f 40/40/40 46/46/46 39/39/39
f 47/47/47 39/39/39 46/46/46
f 41/41/41 48/48/48 40/40/40
f 46/46/46 40/40/40 48/48/48
f 42/42/42 49/49/49 41/41/41
f 48/48/48 41/41/41 49/49/49
f 43/43/43 50/50/50 42/42/42
f 49/49/49 42/42/42 50/50/50
f 44/44/44 51/51/51 43/43/43
f 50/50/50 43/43/43 51/51/51
f 45/45/45 52/52/52 44/44/44
f 51/51/51 44/44/44 52/52/52
f 26/26/26 53/53/53 45/45/45
f 52/52/52 45/45/45 53/53/53
f 53/53/53 26/26/26 54/54/54
f 27/27/27 54/54/54 26/26/26
f 54/54/54 27/27/27 55/55/55
f 56/56/56 55/55/55 27/27/27
f 27/27/27 14/14/14 56/56/56
f 15/15/15 56/56/56 14/14/14
f 56/56/56 15/15/15 28/28/28
f 28/28/28 57/57/57 56/56/56
f 55/55/55 56/56/56 57/57/57
f 57/57/57 28/28/28 58/58/58
f 29/29/29 58/58/58 28/28/28
f 58/58/58 29/29/29 59/59/59
f 60/60/60 59/59/59 29/29/29
f 29/29/29 17/17/17 60/60/60
f 18/18/18 60/60/60 17/17/17
f 60/60/60 18/18/18 30/30/30
f 30/30/30 61/61/61 60/60/60
f 59/59/59 60/60/60 61/61/61
f 61/61/61 30/30/30 62/62/62
f 31/31/31 62/62/62 30/30/30
f 62/62/62 31/31/31 63/63/63
f 32/32/32 63/63/63 31/31/31
f 63/63/63 32/32/32 64/64/64
f 65/65/65 64/64/64 32/32/32
f 32/32/32 21/21/21 65/65/65
f 22/22/22 65/65/65 21/21/21
f 65/65/65 22/22/22 33/33/33
f 33/33/33 66/66/66 65/65/65
f 64/64/64 65/65/65 66/66/66
f 66/66/66 33/33/33 67/67/67
f 34/34/34 67/67/67 33/33/33
f 67/67/67 34/34/34 68/68/68
f 69/69/69 68/68/68 34/34/34
f 34/34/34 24/24/24 69/69/69
f 25/25/25 69/69/69 24/24/24
f 69/69/69 25/25/25 35/35/35
f 35/35/35 70/70/70 69/69/69
f 68/68/68 69/69/69 70/70/70
f 70/70/70 35/35/35 71/71/71
f 36/36/36 71/71/71 35/35/35
f 71/71/71 36/36/36 72/72/72
f 37/37/37 72/72/72 36/36/36
f 72/72/72 37/37/37 73/73/73
f 38/38/38 73/73/73 37/37/37
f 73/73/73 38/38/38 47/47/47
f 39/39/39 47/47/47 38/38/38
f 71/71/71 74/74/74 70/70/70
f 75/75/75 70/70/70 74/74/74
f 70/70/70 75/75/75 68/68/68
f 72/72/72 76/76/76 71/71/71
f 74/74/74 71/71/71 76/76/76
f 73/73/73 77/77/77 72/72/72
f 76/76/76 72/72/72 77/77/77
f 47/47/47 78/78/78 73/73/73
f 77/77/77 73/73/73 78/78/78
f 78/78/78 47/47/47 79/79/79
f 46/46/46 79/79/79 47/47/47
f 79/79/79 46/46/46 80/80/80
f 48/48/48 80/80/80 46/46/46
f 80/80/80 48/48/48 81/81/81
f 49/49/49 81/81/81 48/48/48
f 81/81/81 49/49/49 82/82/82
f 50/50/50 82/82/82 49/49/49
f 82/82/82 50/50/50 83/83/83
f 51/51/51 83/83/83 50/50/50
f 83/83/83 51/51/51 84/84/84
f 52/52/52 84/84/84 51/51/51
f 84/84/84 52/52/52 85/85/85
f 53/53/53 85/85/85 52/52/52
f 85/85/85 53/53/53 86/86/86
f 54/54/54 86/86/86 53/53/53
f 86/86/86 54/54/54 87/87/87
f 55/55/55 87/87/87 54/54/54
f 87/87/87 55/55/55 88/88/88
f 57/57/57 88/88/88 55/55/55
f 88/88/88 57/57/57 89/89/89
f 58/58/58 89/89/89 57/57/57
f 89/89/89 58/58/58 90/90/90
f 59/59/59 90/90/90 58/58/58
f 90/90/90 59/59/59 91/91/91
f 61/61/61 91/91/91 59/59/59
f 91/91/91 61/61/61 92/92/92
f 62/62/62 92/92/92 61/61/61
f 92/92/92 62/62/62 93/93/93
f 63/63/63 93/93/93 62/62/62
f 93/93/93 63/63/63 94/94/94
f 64/64/64 94/94/94 63/63/63
f 94/94/94 64/64/64 95/95/95
f 66/66/66 95/95/95 64/64/64
f 95/95/95 66/66/66 96/96/96
f 67/67/67 96/96/96 66/66/66
f 96/96/96 67/67/67 97/97/97
f 68/68/68 97/97/97 67/67/67
f 97/97/97 68/68/68 75/75/75
f 92/92/92 98/98/98 91/91/91
f 99/99/99 91/91/91 98/98/98
f 93/93/93 100/100/100 92/92/92
f 98/98/98 92/92/92 100/100/100
f 94/94/94 101/101/101 93/93/93
f 100/100/100 93/93/93 101/101/101
f 95/95/95 102/102/102 94/94/94
f 101/101/101 94/94/94 102/102/102
f 96/96/96 103/103/103 95/95/95
f 102/102/102 95/95/95 103/103/103
f 97/97/97 104/104/104 96/96/96
f 103/103/103 96/96/96 104/104/104
f 75/75/75 105/105/105 97/97/97
f 104/104/104 97/97/97 105/105/105
f 105/105/105 75/75/75 106/106/106
f 74/74/74 106/106/106 75/75/75
f 106/106/106 74/74/74 107/107/107
f 76/76/76 107/107/107 74/74/74
f 107/107/107 76/76/76 108/108/108
f 77/77/77 108/108/108 76/76/76
f 108/108/108 77/77/77 109/109/109
f 78/78/78 109/109/109 77/77/77
f 109/109/109 78/78/78 110/110/110
f 79/79/79 110/110/110 78/78/78
f 110/110/110 79/79/79 111/111/111
f 80/80/80 111/111/111 79/79/79
f 111/111/111 80/80/80 112/112/112
f 81/81/81 112/112/112 80/80/80
f 112/112/112 81/81/81 113/113/113
f 82/82/82 113/113/113 81/81/81
f 113/113/113 82/82/82 114/114/114
f 83/83/83 114/114/114 82/82/82
f 114/114/114 83/83/83 115/115/115
f 84/84/84 115/115/115 83/83/83
f 115/115/115 84/84/84 116/116/116
f 85/85/85 116/116/116 84/84/84
f 116/116/116 85/85/85 117/117/117
f 86/86/86 117/117/117 85/85/85
f 117/117/117 86/86/86 118/118/118
f 87/87/87 118/118/118 86/86/86
f 118/118/118 87/87/87 119/119/119
f 88/88/88 119/119/119 87/87/87
f 119/119/119 88/88/88 120/120/120
f 89/89/89 120/120/120 88/88/88
f 120/120/120 89/89/89 121/121/121
f 90/90/90 121/121/121 89/89/89
f 121/121/121 90/90/90 99/99/99
f 91/91/91 99/99/99 90/90/90
