g l_Y_Slice
v 0.007451399 0.01104524 5.042068E-05
v 0.009025029 0.01125242 5.040668E-05
v 0.009025031 0.01125242 0.001045459
v 0.007451402 0.01104524 0.001065952
v 0.0203071 0.01125242 0.0003570656
v 0.02005776 0.01125242 0.001045353
v 0.005985012 0.01043785 5.043298E-05
v 0.005985014 0.01043785 0.001086443
v 0.0203071 0.01125242 -0.0001917499
v 0.009025029 0.01125242 -0.0004984089
v 0.007451399 0.01104524 -0.0004983949
v 0.005985012 0.01043785 -0.0004983826
v 0.004725795 0.009471615 5.044266E-05
v 0.005985014 0.01043785 0.001086443
v 0.004725798 0.009471614 0.001086453
v 0.003759564 0.008212398 5.044915E-05
v 0.003759566 0.008212398 0.001086459
v 0.003152166 0.006746009 5.04519E-05
v 0.003152168 0.006746009 0.001086462
v 0.002944994 0.00517238 5.045086E-05
v 0.002944997 0.005172381 0.001086461
v 0.002944997 -0.01928757 0.001086415
v 0.002944994 -0.01924522 5.106814E-06
v 0.003152166 0.006746009 -0.0004983637
v 0.002944994 0.00517238 -0.0004983647
v 0.003759564 0.008212398 -0.0004983664
v 0.004725795 0.009471615 -0.0004983729
v 0.002944994 -0.01873746 -0.0005437087
v 0.00473133 -0.01918726 1.007945E-05
v 0.004731332 -0.01918726 0.00108638
v 0.008903963 -0.01788072 0.001086422
v 0.009456047 -0.01769779 1.007945E-05
v 0.002944994 -0.01924522 5.106814E-06
v 0.002944997 -0.01928757 0.001086415
v 0.02013366 -0.006288518 1.007945E-05
v 0.0195247 -0.006490291 0.001075357
v 0.02096763 -0.002118544 0.001068094
v 0.02158733 -0.001913211 1.007945E-05
v 0.02165388 0.002369791 0.001029275
v 0.02206442 0.002560895 1.007945E-05
v 0.02147191 0.005917203 0.001049722
v 0.02185581 0.006095911 0.0001666817
v 0.02005776 0.01125242 0.001045353
v 0.0203071 0.01125242 0.0003570656
v 0.01751848 -0.01080157 1.007945E-05
v 0.0195247 -0.006490291 0.001075357
v 0.01692087 -0.01099959 0.001080922
v 0.01392594 -0.01459016 1.007945E-05
v 0.01333431 -0.0147862 0.001082431
v 0.009456047 -0.01769779 1.007945E-05
v 0.008903963 -0.01788072 0.001086422
v 0.01333431 -0.0147862 0.001082431
v 0.01392594 -0.01459016 1.007945E-05
v 0.004731332 -0.01918726 0.00108638
v 0.004677509 -0.01888981 0.001376893
v 0.00841813 -0.01772483 0.001376859
v 0.008903963 -0.01788072 0.001086422
v 0.002944997 -0.01928757 0.001086415
v 0.003244997 -0.01897025 0.001376908
v 0.02147191 0.005917203 0.001049722
v 0.0209142 0.005748573 0.001376858
v 0.01954001 0.01095242 0.001376817
v 0.02005776 0.01125242 0.001045353
v 0.02165388 0.002369791 0.001029275
v 0.02111907 0.002276916 0.001376899
v 0.02096763 -0.002118544 0.001068094
v 0.02039057 -0.002140794 0.001376969
v 0.0195247 -0.006490291 0.001075357
v 0.01895406 -0.006464465 0.001376946
v 0.01692087 -0.01099959 0.001080922
v 0.01637197 -0.01092042 0.001376914
v 0.01333431 -0.0147862 0.001082431
v 0.01282483 -0.01466114 0.001376879
v 0.008903963 -0.01788072 0.001086422
v 0.00841813 -0.01772483 0.001376859
v 0.01333431 -0.0147862 0.001082431
v 0.003244997 0.005152718 0.001376959
v 0.002944997 0.005172381 0.001086461
v 0.003152168 0.006746009 0.001086462
v 0.003444448 0.006667693 0.001376958
v 0.003759566 0.008212398 0.001086459
v 0.004021617 0.008061103 0.001376955
v 0.004725798 0.009471614 0.001086453
v 0.004939761 0.009257651 0.001376949
v 0.005985014 0.01043785 0.001086443
v 0.006136309 0.0101758 0.00137694
v 0.003244997 -0.01897025 0.001376908
v 0.002944997 -0.01928757 0.001086415
v 0.006136309 0.0101758 0.00137694
v 0.005985014 0.01043785 0.001086443
v 0.007451402 0.01104524 0.001065952
v 0.007529721 0.01075297 0.001376929
v 0.009025031 0.01125242 0.001045459
v 0.009044696 0.01095242 0.001376916
v 0.02005776 0.01125242 0.001045353
v 0.01954001 0.01095242 0.001376817
v 0.0209142 0.005748573 0.001376858
v 0.02111907 0.002276916 0.001376899
v 0.02039057 -0.002140794 0.001376969
v 0.01954001 0.01095242 0.001376817
v 0.01895406 -0.006464465 0.001376946
v 0.009044696 0.01095242 0.001376916
v 0.01637197 -0.01092042 0.001376914
v 0.01282483 -0.01466114 0.001376879
v 0.00841813 -0.01772483 0.001376859
v 0.007529721 0.01075297 0.001376929
v 0.004677509 -0.01888981 0.001376893
v 0.006136309 0.0101758 0.00137694
v 0.004939761 0.009257651 0.001376949
v 0.004021617 0.008061103 0.001376955
v 0.003244997 -0.01897025 0.001376908
v 0.003444448 0.006667693 0.001376958
v 0.003244997 0.005152718 0.001376959
v 0.0203071 0.01125242 0.0003570656
v 0.0203071 0.01125242 -0.0001917499
v 0.02185581 0.006095911 -0.0003821339
v 0.02185581 0.006095911 0.0001666817
v 0.02206442 0.002560895 -0.0005387361
v 0.02206442 0.002560895 1.007945E-05
v 0.02158733 -0.001913211 -0.0005387361
v 0.02158733 -0.001913211 1.007945E-05
v 0.02013366 -0.006288518 -0.0005387361
v 0.02013366 -0.006288518 1.007945E-05
v 0.01751848 -0.01080157 -0.0005387361
v 0.01751848 -0.01080157 1.007945E-05
v 0.01392594 -0.01408241 -0.0005387361
v 0.01392594 -0.01459016 1.007945E-05
v 0.009456047 -0.01719003 -0.0005387361
v 0.009456047 -0.01769779 1.007945E-05
v 0.00473133 -0.01867951 -0.0005387361
v 0.00473133 -0.01918726 1.007945E-05
v 0.002944994 -0.01873746 -0.0005437087
v 0.002944994 -0.01924522 5.106814E-06
vt 0.2784347 -0.09017837
vt 0.3665847 -0.1008145
vt 0.3640006 -0.09955287
vt 0.2743334 -0.08800083
vt 0.9063486 -0.07452214
vt 0.9025348 -0.07405537
vt 0.1928723 -0.05721372
vt 0.1903105 -0.05422437
vt 0.9063486 -0.07452214
vt 0.3665847 -0.1008145
vt 0.2784347 -0.09017837
vt 0.1928723 -0.05721372
vt 0.1172777 -0.001045763
vt 0.1903105 -0.05422437
vt 0.1170374 0.001918256
vt 0.05710632 0.07530439
vt 0.06012785 0.07726336
vt 0.02249742 0.1661435
vt 0.02492785 0.1659825
vt 0.007555068 0.2601694
vt 0.01107264 0.262198
vt 0.003554881 1.512392
vt 0.002229571 1.514676
vt 0.02249742 0.1661435
vt 0.007555068 0.2601694
vt 0.05710632 0.07530439
vt 0.1172777 -0.001045763
vt 0.002229571 1.514676
vt 0.09070826 1.536272
vt 0.08891153 1.532985
vt 0.3137388 1.487048
vt 0.3437581 1.482701
vt 0.002229571 1.514676
vt 0.003554881 1.512392
vt 0.9472004 0.9031808
vt 0.93599 0.9108984
vt 1.021041 0.6636887
vt 1.026372 0.6609517
vt 1.058542 0.4061354
vt 1.062366 0.4053328
vt 1.037261 0.2063492
vt 1.040216 0.2059305
vt 0.9025348 -0.07405537
vt 0.9063486 -0.07452214
vt 0.8054899 1.133028
vt 0.93599 0.9108984
vt 0.7826577 1.152271
vt 0.5950087 1.337632
vt 0.5701756 1.348829
vt 0.3437581 1.482701
vt 0.3137388 1.487048
vt 0.5701756 1.348828
vt 0.5950087 1.337632
vt 0.08891153 1.532985
vt 0.08744389 1.513248
vt 0.288628 1.474293
vt 0.3137388 1.487048
vt 0.003554881 1.512392
vt 0.01894224 1.498608
vt 1.037261 0.2063492
vt 1.016969 0.2101758
vt 0.8887447 -0.05829352
vt 0.9025348 -0.07405537
vt 1.058542 0.4061354
vt 1.038552 0.4058139
vt 1.021041 0.6636887
vt 1.001283 0.6603398
vt 0.93599 0.9108984
vt 0.9146109 0.9066546
vt 0.7826577 1.152271
vt 0.7573767 1.150707
vt 0.5701756 1.348829
vt 0.546433 1.340572
vt 0.3137388 1.487048
vt 0.288628 1.474293
vt 0.5701756 1.348828
vt 0.02949107 0.2619838
vt 0.01107264 0.262198
vt 0.02492785 0.1659825
vt 0.04224384 0.1701421
vt 0.06012785 0.07726336
vt 0.07597196 0.08663523
vt 0.1170374 0.001918256
vt 0.1286856 0.01555169
vt 0.1903105 -0.05422437
vt 0.1972181 -0.03784972
vt 0.01894224 1.498608
vt 0.003554881 1.512392
vt 0.1972181 -0.03784972
vt 0.1903105 -0.05422437
vt 0.2743334 -0.08800083
vt 0.2763186 -0.07042056
vt 0.3640006 -0.09955287
vt 0.3621404 -0.08159411
vt 0.9025348 -0.07405537
vt 0.8887447 -0.05829352
vt 1.016969 0.2101758
vt 1.038552 0.4058139
vt 1.001283 0.6603398
vt 0.8887447 -0.05829352
vt 0.9146109 0.9066546
vt 0.3621404 -0.08159411
vt 0.7573767 1.150707
vt 0.546433 1.340572
vt 0.288628 1.474293
vt 0.2763186 -0.07042056
vt 0.08744389 1.513248
vt 0.1972181 -0.03784972
vt 0.1286856 0.01555169
vt 0.07597196 0.08663523
vt 0.01894224 1.498608
vt 0.04224384 0.1701421
vt 0.02949107 0.2619838
vt 0.9063486 -0.07452214
vt 0.9063486 -0.07452214
vt 1.040216 0.2059305
vt 1.040216 0.2059305
vt 1.062366 0.4053328
vt 1.062366 0.4053328
vt 1.026372 0.6609517
vt 1.026372 0.6609517
vt 0.9472004 0.9031808
vt 0.9472004 0.9031808
vt 0.8054899 1.133028
vt 0.8054899 1.133028
vt 0.5950087 1.337632
vt 0.5950087 1.337632
vt 0.3437581 1.482701
vt 0.3437581 1.482701
vt 0.09070826 1.536272
vt 0.09070826 1.536272
vt 0.002229571 1.514676
vt 0.002229571 1.514676
vn -0.2588022 0.9659303 0
vn -0.06540286 0.9978589 0
vn -0.06564596 0.997843 0
vn -0.2598388 0.965652 0
vn 0 1 0
vn 0 1 0
vn -0.4999893 0.8660316 0
vn -0.5004515 0.8657646 0
vn 0 1 0
vn -0.06595182 0.9978228 0
vn -0.2588022 0.9659303 0
vn -0.4999893 0.8660316 0
vn -0.7071068 0.7071068 0
vn -0.5004515 0.8657646 0
vn -0.7071068 0.7071068 0
vn -0.8660316 0.4999893 0
vn -0.8660316 0.4999893 0
vn -0.9659303 0.2588022 0
vn -0.9659303 0.2588022 0
vn -0.9978589 0.06540286 0
vn -0.9978589 0.06540286 0
vn -1 0 0
vn -1 0 0
vn -0.9659303 0.2588022 0
vn -0.997863 0.06534208 0
vn -0.8660316 0.4999893 0
vn -0.7071068 0.7071068 0
vn -1 0 0
vn 0.1733776 -0.9847824 -0.01199391
vn 0.1735012 -0.9847606 -0.01199402
vn 0.3969319 -0.916337 0.05264551
vn 0.4797079 -0.871336 0.1032175
vn 0.04425266 -0.9988282 -0.01959325
vn 0.04425266 -0.9988282 -0.01959325
vn 0.8386016 -0.3542038 0.4138684
vn 0.8277704 -0.3959247 0.3975422
vn 0.8748515 -0.2139977 0.434557
vn 0.8829583 -0.184307 0.4317587
vn 0.9104845 -0.04629789 0.4109434
vn 0.9128062 -0.02884088 0.4073736
vn 0.9101741 0.1359325 0.3912867
vn 0.9083763 0.1483543 0.3909521
vn 0.8894556 0.2443378 0.3862223
vn 0.8894556 0.2443378 0.3862223
vn 0.7724176 -0.5405916 0.3333643
vn 0.8277704 -0.3959247 0.3975422
vn 0.7436371 -0.5946106 0.3056829
vn 0.6569339 -0.7179427 0.2302092
vn 0.6153672 -0.7632959 0.1967295
vn 0.4797079 -0.871336 0.1032175
vn 0.3969319 -0.916337 0.05264551
vn 0.6153672 -0.7632959 0.1967295
vn 0.6569339 -0.7179427 0.2302092
vn 0.1241827 -0.6836306 0.7191856
vn 0.1242128 -0.683628 0.7191828
vn 0.2488848 -0.6163066 0.7471428
vn 0.3047626 -0.5365238 0.7869321
vn 0.03900323 -0.6945505 0.7183859
vn 0.03900323 -0.6945505 0.7183859
vn 0.4980485 0.0805716 0.8633979
vn 0.5013394 0.07297148 0.8621683
vn 0.4773225 0.1266247 0.869557
vn 0.4773225 0.1266247 0.869557
vn 0.5179735 -0.01919664 0.8551813
vn 0.5170583 -0.03164854 0.8553649
vn 0.4927661 -0.1092899 0.8632714
vn 0.4850779 -0.1210406 0.8660535
vn 0.4539682 -0.191689 0.8701541
vn 0.4483252 -0.212779 0.868176
vn 0.4232984 -0.2960037 0.8562712
vn 0.4117415 -0.3300707 0.8494247
vn 0.3775806 -0.4106021 0.8299632
vn 0.3579871 -0.4477433 0.8193724
vn 0.3047626 -0.5365238 0.7869321
vn 0.2488848 -0.6163066 0.7471428
vn 0.3775806 -0.4106021 0.8299632
vn -0.6933643 0.045443 0.719153
vn -0.6933643 0.045443 0.719153
vn -0.6689457 0.179238 0.7213774
vn -0.6689457 0.179238 0.7213774
vn -0.5997598 0.3462688 0.721378
vn -0.5997598 0.3462688 0.721378
vn -0.4897046 0.4897046 0.7213728
vn -0.4897046 0.4897046 0.7213728
vn -0.3463343 0.606726 0.7154971
vn -0.3465812 0.6065782 0.7155028
vn -0.6956313 0 0.7183989
vn -0.6956313 0 0.7183989
vn -0.3465812 0.6065782 0.7155028
vn -0.3463343 0.606726 0.7154971
vn -0.1790245 0.6939108 0.6974511
vn -0.1795752 0.6937022 0.6975171
vn -0.04535207 0.734148 0.6774732
vn -0.04550442 0.7341136 0.6775001
vn 0 0.7414049 0.671058
vn 0 0.7414049 0.671058
vn 0 0 1
vn 0 0 1
vn 0 0 1
vn 0 0 1
vn 0 0 1
vn 0 0 1
vn 0 0 1
vn 0 0 1
vn 0 0 1
vn 0 0 1
vn 0 0 1
vn 0 0 1
vn 0 0 1
vn 0 0 1
vn 0 0 1
vn 0 0 1
vn 0 0 1
vn 0.9577389 0.2876391 0
vn 0.9577389 0.2876391 0
vn 0.9851761 0.1715459 0
vn 0.9841431 0.1773759 0
vn 0.9996921 -0.02481224 0
vn 0.999747 -0.02249263 0
vn 0.9772998 -0.2118607 0
vn 0.9772998 -0.2118607 0
vn 0.9118707 -0.4104776 0
vn 0.9118707 -0.4104776 0
vn 0.782307 -0.6019976 -0.1599833
vn 0.782307 -0.6019976 -0.1599833
vn 0.5981176 -0.6788718 -0.4258971
vn 0.536379 -0.6719158 -0.5107121
vn 0.3633661 -0.6838522 -0.6327015
vn 0.3188341 -0.6957157 -0.6436805
vn 0.1330031 -0.7275189 -0.6730725
vn 0.1185367 -0.7288606 -0.6743227
vn 0.02569674 -0.7337916 -0.6788884
vn 0.02569674 -0.7337916 -0.6788884
g l_Y_Slice_0
f 3/3/3 2/2/2 1/1/1
f 4/4/4 3/3/3 1/1/1
f 2/2/2 3/3/3 5/5/5
f 3/3/3 6/6/6 5/5/5
f 4/4/4 1/1/1 7/7/7
f 8/8/8 4/4/4 7/7/7
f 5/5/5 9/9/9 2/2/2
f 9/9/9 10/10/10 2/2/2
f 2/2/2 10/10/10 1/1/1
f 1/1/1 11/11/11 7/7/7
f 10/10/10 11/11/11 1/1/1
f 11/11/11 12/12/12 7/7/7
f 7/7/7 12/12/12 13/13/13
f 14/14/14 7/7/7 13/13/13
f 15/15/15 14/14/14 13/13/13
f 15/15/15 13/13/13 16/16/16
f 17/17/17 15/15/15 16/16/16
f 17/17/17 16/16/16 18/18/18
f 19/19/19 17/17/17 18/18/18
f 19/19/19 18/18/18 20/20/20
f 21/21/21 19/19/19 20/20/20
f 22/22/22 21/21/21 20/20/20
f 23/23/23 22/22/22 20/20/20
f 18/18/18 24/24/24 20/20/20
f 24/24/24 25/25/25 20/20/20
f 20/20/20 25/25/25 23/23/23
f 26/26/26 24/24/24 18/18/18
f 16/16/16 26/26/26 18/18/18
f 27/27/27 26/26/26 16/16/16
f 13/13/13 27/27/27 16/16/16
f 12/12/12 27/27/27 13/13/13
f 25/25/25 28/28/28 23/23/23
f 31/31/31 30/30/30 29/29/29
f 32/32/32 31/31/31 29/29/29
f 29/29/29 30/30/30 33/33/33
f 30/30/30 34/34/34 33/33/33
f 37/37/37 36/36/36 35/35/35
f 38/38/38 37/37/37 35/35/35
f 39/39/39 37/37/37 38/38/38
f 40/40/40 39/39/39 38/38/38
f 41/41/41 39/39/39 40/40/40
f 42/42/42 41/41/41 40/40/40
f 43/43/43 41/41/41 42/42/42
f 44/44/44 43/43/43 42/42/42
f 35/35/35 46/46/46 45/45/45
f 46/46/46 47/47/47 45/45/45
f 45/45/45 47/47/47 48/48/48
f 47/47/47 49/49/49 48/48/48
f 52/52/52 51/51/51 50/50/50
f 53/53/53 52/52/52 50/50/50
f 56/56/56 55/55/55 54/54/54
f 57/57/57 56/56/56 54/54/54
f 54/54/54 55/55/55 58/58/58
f 55/55/55 59/59/59 58/58/58
f 62/62/62 61/61/61 60/60/60
f 63/63/63 62/62/62 60/60/60
f 60/60/60 61/61/61 64/64/64
f 61/61/61 65/65/65 64/64/64
f 64/64/64 65/65/65 66/66/66
f 65/65/65 67/67/67 66/66/66
f 66/66/66 67/67/67 68/68/68
f 67/67/67 69/69/69 68/68/68
f 68/68/68 69/69/69 70/70/70
f 69/69/69 71/71/71 70/70/70
f 70/70/70 71/71/71 72/72/72
f 71/71/71 73/73/73 72/72/72
f 73/73/73 75/75/75 74/74/74
f 76/76/76 73/73/73 74/74/74
f 79/79/79 78/78/78 77/77/77
f 80/80/80 79/79/79 77/77/77
f 81/81/81 79/79/79 80/80/80
f 82/82/82 81/81/81 80/80/80
f 83/83/83 81/81/81 82/82/82
f 84/84/84 83/83/83 82/82/82
f 85/85/85 83/83/83 84/84/84
f 86/86/86 85/85/85 84/84/84
f 77/77/77 78/78/78 87/87/87
f 78/78/78 88/88/88 87/87/87
f 91/91/91 90/90/90 89/89/89
f 92/92/92 91/91/91 89/89/89
f 93/93/93 91/91/91 92/92/92
f 94/94/94 93/93/93 92/92/92
f 95/95/95 93/93/93 94/94/94
f 96/96/96 95/95/95 94/94/94
f 99/99/99 98/98/98 97/97/97
f 97/97/97 100/100/100 99/99/99
f 100/100/100 101/101/101 99/99/99
f 100/100/100 102/102/102 101/101/101
f 102/102/102 103/103/103 101/101/101
f 102/102/102 104/104/104 103/103/103
f 102/102/102 105/105/105 104/104/104
f 102/102/102 106/106/106 105/105/105
f 106/106/106 107/107/107 105/105/105
f 106/106/106 108/108/108 107/107/107
f 108/108/108 109/109/109 107/107/107
f 109/109/109 110/110/110 107/107/107
f 110/110/110 111/111/111 107/107/107
f 110/110/110 112/112/112 111/111/111
f 112/112/112 113/113/113 111/111/111
f 116/116/116 115/115/115 114/114/114
f 117/117/117 116/116/116 114/114/114
f 118/118/118 116/116/116 117/117/117
f 119/119/119 118/118/118 117/117/117
f 120/120/120 118/118/118 119/119/119
f 121/121/121 120/120/120 119/119/119
f 122/122/122 120/120/120 121/121/121
f 123/123/123 122/122/122 121/121/121
f 124/124/124 122/122/122 123/123/123
f 125/125/125 124/124/124 123/123/123
f 126/126/126 124/124/124 125/125/125
f 127/127/127 126/126/126 125/125/125
f 128/128/128 126/126/126 127/127/127
f 129/129/129 128/128/128 127/127/127
f 130/130/130 128/128/128 129/129/129
f 131/131/131 130/130/130 129/129/129
f 132/132/132 130/130/130 131/131/131
f 133/133/133 132/132/132 131/131/131
