g lctrl:o_button_PLY
v 0.01028594 -0.0003234019 -0.01822352
v 0.01028309 -0.0002433015 -0.01821546
v 0.00882965 -0.0004079092 -0.01725779
v 0.008832235 -0.0003274834 -0.01725337
v 0.008856191 -0.0002548932 -0.01722786
v 0.0102924 -0.0001715399 -0.01818006
v 0.00889451 -0.000172156 -0.01718778
v 0.01030924 -9.180559E-05 -0.01812518
v 0.007909917 -0.0002315712 -0.01578531
v 0.007962675 -0.0001482141 -0.01576712
v 0.007876148 -0.0003039432 -0.01579611
v 0.007869939 -0.0003842879 -0.01579507
v 0.01196249 7.302585E-05 -0.01847938
v 0.01197091 -1.786335E-06 -0.01853976
v 0.01197885 -7.179797E-05 -0.01857872
v 0.01198808 -0.000151226 -0.0185881
v 0.01368703 8.830776E-05 -0.01824741
v 0.01367143 0.0001668202 -0.01823924
v 0.01364627 0.0002344262 -0.01820358
v 0.01361267 0.0003031123 -0.01814786
v 0.01501903 0.00056001 -0.01722988
v 0.0150739 0.0004977147 -0.0172715
v 0.01600707 0.0007485232 -0.01584225
v 0.01605651 0.0006861898 -0.01585366
v 0.01511362 0.000432804 -0.01729749
v 0.01513461 0.0003553132 -0.01730209
v 0.01608109 0.0006096777 -0.01585285
v 0.01593804 0.0008052061 -0.01582206
v 0.01627271 0.001003688 -0.01416837
v 0.01634658 0.0009510771 -0.01416311
v 0.01639938 0.0008908084 -0.01415724
v 0.01642523 0.0008150758 -0.01415003
v 0.01604133 0.001010601 -0.01245595
v 0.01606586 0.0009353338 -0.01244234
v 0.01599203 0.001069636 -0.01247913
v 0.01592336 0.001120394 -0.01251002
v 0.01499175 0.001144358 -0.01108941
v 0.01504598 0.001093025 -0.01103664
v 0.01360978 0.00100966 -0.01008412
v 0.01508543 0.001034206 -0.01099874
v 0.01363457 0.0009500098 -0.01003631
v 0.01510632 0.0009590159 -0.01097968
v 0.01365003 0.0008744966 -0.01001359
v 0.01357703 0.001064038 -0.01015171
v 0.01192367 0.0008992188 -0.009797229
v 0.01193115 0.0008398937 -0.009724144
v 0.01027335 0.0006691146 -0.01012877
v 0.01025564 0.0006036877 -0.01006037
v 0.01193868 0.0007784919 -0.009672782
v 0.01024594 0.0005398737 -0.01001234
v 0.01194776 0.0007023064 -0.009648732
v 0.01024863 0.0004627703 -0.009989534
v 0.008866863 0.0004121823 -0.01104693
v 0.008827858 0.0003404076 -0.01099265
v 0.008803597 0.0002738971 -0.01095433
v 0.008800888 0.0001957661 -0.01093512
v 0.00786067 2.045408E-05 -0.01239822
v 0.007854395 -5.865085E-05 -0.01238439
v 0.007894611 8.953589E-05 -0.01242196
v 0.007947731 0.0001669671 -0.01245483
v 0.007613115 -3.151576E-05 -0.01410858
v 0.00755517 -0.000113043 -0.01410116
v 0.007517891 -0.0001841836 -0.01409466
v 0.007510385 -0.0002640646 -0.01408721
v 0.009976911 0.0003306005 -0.01329375
v 0.01043647 0.0004532081 -0.0125898
v 0.01113972 0.0005816748 -0.01213072
v 0.01196487 0.000696727 -0.01196495
v 0.01200563 0.0004941731 -0.01413276
v 0.01279156 0.0007791374 -0.01214219
v 0.01349892 0.0008192965 -0.01261104
v 0.009809598 0.0002313591 -0.01412063
v 0.01396472 0.0008073148 -0.01332134
v 0.01413939 0.000748962 -0.01415052
v 0.01397206 0.0006497205 -0.01497736
v 0.01351255 0.0005271225 -0.01568127
v 0.01280937 0.0003986737 -0.01614027
v 0.01198428 0.0002836311 -0.01630603
v 0.01115766 0.0002012148 -0.01612892
v 0.0104503 0.0001610389 -0.01566022
v 0.009984379 0.0001730099 -0.01494989
v 0.01621142 -0.0001618893 -0.01233224
v 0.01524248 -9.572586E-05 -0.01086839
v 0.01606586 0.0009353338 -0.01244234
v 0.01510632 0.0009590159 -0.01097968
v 0.01365003 0.0008744966 -0.01001359
v 0.01378453 -0.0002113188 -0.009895163
v 0.01194776 0.0007023064 -0.009648732
v 0.01207862 -0.0004093708 -0.009526032
v 0.01036913 -0.0006188167 -0.009871667
v 0.01024863 0.0004627703 -0.009989534
v 0.008911839 -0.0008510458 -0.01082484
v 0.008800888 0.0001957661 -0.01093512
v 0.007854395 -5.865085E-05 -0.01238439
v 0.007965898 -0.001145677 -0.01227553
v 0.007510385 -0.0002640646 -0.01408721
v 0.007624111 -0.001385934 -0.01398171
v 0.007982635 -0.001483271 -0.01569859
v 0.007869939 -0.0003842879 -0.01579507
v 0.008942852 -0.001476795 -0.01716967
v 0.00882965 -0.0004079092 -0.01725779
v 0.01028594 -0.0003234019 -0.01822352
v 0.01040953 -0.001433842 -0.01813567
v 0.01198808 -0.000151226 -0.0185881
v 0.01212248 -0.001294316 -0.01849898
v 0.01382493 -0.001026345 -0.01815917
v 0.01368703 8.830776E-05 -0.01824741
v 0.01527349 -0.0007214763 -0.01721322
v 0.01513461 0.0003553132 -0.01730209
v 0.01608109 0.0006096777 -0.01585285
v 0.01622816 -0.0004994842 -0.01575531
v 0.01642523 0.0008150758 -0.01415003
v 0.01657699 -0.0003177515 -0.0140433
v 0.01621142 -0.0001618893 -0.01233224
v 0.01606586 0.0009353338 -0.01244234
vt 0.06010191 0.7132124
vt 0.06127857 0.7114908
vt 0.02747159 0.6805946
vt 0.02921395 0.6794506
vt 0.0309513 0.6783082
vt 0.06245105 0.7097732
vt 0.03268449 0.6771684
vt 0.06361984 0.7080593
vt 0.01443253 0.6368747
vt 0.01647787 0.6364796
vt 0.01238249 0.6372705
vt 0.01032589 0.6376673
vt 0.1037108 0.7254001
vt 0.1032845 0.7274246
vt 0.1028553 0.7294536
vt 0.1024234 0.7314872
vt 0.1485094 0.7316501
vt 0.1481344 0.7296016
vt 0.1477588 0.7275594
vt 0.1473815 0.7255226
vt 0.1880701 0.7095788
vt 0.1891949 0.7113155
vt 0.2208761 0.6799626
vt 0.2225879 0.6811453
vt 0.1903203 0.7130574
vt 0.191447 0.7148047
vt 0.2243045 0.682332
vt 0.2191671 0.6787844
vt 0.2367704 0.6385959
vt 0.2388082 0.6390247
vt 0.2408507 0.6394558
vt 0.2428982 0.6398884
vt 0.2408488 0.5939312
vt 0.2428982 0.5935395
vt 0.2388056 0.5943221
vt 0.2367672 0.5947123
vt 0.2206163 0.5540169
vt 0.2223434 0.5528798
vt 0.1908713 0.5213686
vt 0.2240743 0.5517399
vt 0.1920346 0.5196504
vt 0.225809 0.5505961
vt 0.1932008 0.5179267
vt 0.1897086 0.5230815
vt 0.1496132 0.5056884
vt 0.1500324 0.5036634
vt 0.1059033 0.5055407
vt 0.1055167 0.503504
vt 0.1504508 0.5016335
vt 0.1051269 0.5014633
vt 0.1508683 0.4995984
vt 0.1047347 0.4994166
vt 0.06516735 0.5214904
vt 0.064032 0.5197549
vt 0.06289254 0.5180169
vt 0.06174902 0.5162753
vt 0.03058534 0.5499685
vt 0.02885501 0.5487888
vt 0.0323097 0.5511455
vt 0.03402911 0.5523214
vt 0.0164213 0.5925671
vt 0.01437341 0.5921426
vt 0.01232068 0.5917185
vt 0.01026164 0.5912938
vt 0.08091057 0.5851476
vt 0.09647969 0.5697322
vt 0.1168477 0.5617573
vt 0.1387026 0.5618312
vt 0.127792 0.617974
vt 0.1587503 0.5705277
vt 0.1742042 0.5859954
vt 0.07210667 0.6052706
vt 0.1822796 0.6063431
vt 0.1822812 0.6282849
vt 0.1734795 0.6483792
vt 0.1579311 0.6637763
vt 0.1375867 0.6717482
vt 0.1157514 0.6716871
vt 0.09570593 0.6630166
vt 0.08023827 0.6475711
vt 0.07213496 0.6272268
vt 0.002793963 0.2798294
vt 0.002793963 0.2890671
vt 0.02846968 0.2801266
vt 0.02846968 0.2893179
vt 0.02846968 0.2985117
vt 0.002793963 0.2982898
vt 0.02846968 0.3077056
vt 0.002793963 0.3075154
vt 0.002793963 0.3167525
vt 0.02846968 0.3169009
vt 0.002793963 0.3259907
vt 0.02846968 0.3260986
vt 0.02846968 0.3352968
vt 0.002793963 0.3352199
vt 0.02846968 0.3444941
vt 0.002793963 0.3444514
vt 0.002793963 0.3536866
vt 0.02846968 0.3536917
vt 0.002793963 0.3629199
vt 0.02846968 0.3628893
vt 0.02846968 0.3720843
vt 0.002793963 0.3721531
vt 0.02846968 0.3812768
vt 0.002793963 0.3813859
vt 0.002793963 0.3906102
vt 0.02846968 0.3904673
vt 0.002793963 0.39983
vt 0.02846968 0.3996568
vt 0.02846968 0.4088446
vt 0.002793963 0.4090608
vt 0.02846968 0.4180291
vt 0.002793963 0.4182883
vt 0.002793963 0.4274981
vt 0.02846968 0.427211
vn -0.3778993 -0.1020619 -0.920204
vn -0.3928771 0.2583639 -0.8825507
vn -0.7022779 -0.1191146 -0.701867
vn -0.6909149 0.2424409 -0.6810721
vn -0.6210728 0.4977084 -0.6054379
vn -0.3673299 0.5167245 -0.7733464
vn -0.1471458 0.9814494 -0.1229031
vn -0.1341757 0.9820871 -0.1322939
vn -0.7920042 0.4989412 -0.3518339
vn -0.1601165 0.9807889 -0.1114264
vn -0.8908123 0.2471728 -0.3812599
vn -0.9192955 -0.1144491 -0.3765598
vn -0.1185866 0.9836431 -0.1355856
vn -0.07262839 0.5523086 -0.83047
vn -0.04211445 0.293137 -0.9551424
vn 0.00150862 -0.0651381 -0.9978751
vn 0.3798083 -0.01351821 -0.9249665
vn 0.308127 0.3412092 -0.8880507
vn 0.2185153 0.5999137 -0.7696457
vn -0.1038008 0.9860175 -0.1303641
vn -0.09139256 0.9883068 -0.1220533
vn 0.46137 0.6509135 -0.6028677
vn 0.620878 0.698528 -0.3557656
vn 0.8032697 0.4465361 -0.3941616
vn 0.6051049 0.3951448 -0.6911648
vn 0.7018874 0.04492927 -0.7108696
vn 0.9159877 0.100096 -0.3885193
vn -0.08261432 0.9905244 -0.1097107
vn -0.08394399 0.9919526 -0.09478071
vn 0.674656 0.7350342 -0.06755809
vn 0.8719432 0.4876955 -0.04322274
vn 0.9894985 0.1442312 -0.009488368
vn 0.8006694 0.5131751 0.3091598
vn 0.9127471 0.1712404 0.3709035
vn 0.6165471 0.7554728 0.2216541
vn -0.08330268 0.9933049 -0.08003808
vn -0.09238262 0.9933906 -0.06812313
vn 0.453805 0.7572432 0.4697274
vn 0.2103226 0.7393493 0.6396303
vn 0.6007627 0.5171123 0.6096548
vn 0.3016502 0.5014098 0.8109226
vn 0.6957626 0.1766296 0.6962159
vn 0.3721083 0.1588764 0.9144909
vn -0.1046309 0.9926926 -0.06011391
vn -0.1188605 0.9913748 -0.05520941
vn -0.07907575 0.7045468 0.7052382
vn -0.1340919 0.9893007 -0.05747658
vn -0.372118 0.6583929 0.6542529
vn -0.0494892 0.4659785 0.8834109
vn -0.3999496 0.418622 0.8153502
vn -0.007027176 0.1214794 0.992569
vn -0.3859382 0.07033937 0.9198391
vn -0.1482154 0.9868302 -0.06479576
vn -0.6236517 0.6065757 0.4930764
vn -0.6966459 0.364069 0.6181734
vn -0.7081544 0.01272402 0.7059429
vn -0.8938214 0.3131756 0.3209427
vn -0.9225569 -0.04322333 0.3834326
vn -0.792802 0.5583703 0.2443106
vn -0.157432 0.9844327 -0.07815
vn -0.1594331 0.9827004 -0.09423882
vn -0.8523622 0.520247 -0.05311877
vn -0.9620146 0.2713816 -0.02966135
vn -0.9961174 -0.08795546 0.003759322
vn -0.1188104 0.9884014 -0.09458711
vn -0.1188119 0.9884012 -0.09458821
vn -0.1188112 0.9884013 -0.09458768
vn -0.11881 0.9884015 -0.09458656
vn -0.1188108 0.9884014 -0.09458727
vn -0.11881 0.9884015 -0.09458724
vn -0.1188103 0.9884015 -0.09458721
vn -0.1188106 0.9884014 -0.09458727
vn -0.1188109 0.9884014 -0.09458665
vn -0.1188106 0.9884014 -0.09458735
vn -0.1188106 0.9884014 -0.09458793
vn -0.1188099 0.9884015 -0.09458713
vn -0.1188099 0.9884015 -0.09458697
vn -0.1188098 0.9884015 -0.09458672
vn -0.11881 0.9884016 -0.09458628
vn -0.118811 0.9884014 -0.09458711
vn -0.118811 0.9884014 -0.09458745
vn 0.915495 0.158573 0.3697616
vn 0.6978371 0.1637097 0.6972966
vn 0.9127471 0.1712404 0.3709035
vn 0.6957626 0.1766296 0.6962159
vn 0.3721083 0.1588764 0.9144909
vn 0.3713906 0.1460213 0.9169225
vn -0.007027176 0.1214794 0.992569
vn -0.006463999 0.1089516 0.9940259
vn -0.3833331 0.05775958 0.9218023
vn -0.3859382 0.07033937 0.9198391
vn -0.7077182 -0.0005766183 0.7064945
vn -0.7081544 0.01272402 0.7059429
vn -0.9225569 -0.04322333 0.3834326
vn -0.9225503 -0.05642146 0.3817297
vn -0.9961174 -0.08795546 0.003759322
vn -0.9949341 -0.100433 0.004384781
vn -0.9187231 -0.1270491 -0.3739069
vn -0.9192955 -0.1144491 -0.3765598
vn -0.7005817 -0.1320626 -0.7012451
vn -0.7022779 -0.1191146 -0.701867
vn -0.3778993 -0.1020619 -0.920204
vn -0.374749 -0.1145118 -0.9200273
vn 0.00150862 -0.0651381 -0.9978751
vn 0.00209256 -0.0774874 -0.9969912
vn 0.3786025 -0.02641294 -0.9251825
vn 0.3798083 -0.01351821 -0.9249665
vn 0.702752 0.03197577 -0.710716
vn 0.7018874 0.04492927 -0.7108696
vn 0.9159877 0.100096 -0.3885193
vn 0.9181579 0.08777387 -0.3863701
vn 0.9894985 0.1442312 -0.009488368
vn 0.9912158 0.1319597 -0.008819615
vn 0.915495 0.158573 0.3697616
vn 0.9127471 0.1712404 0.3709035
g lctrl:o_button_PLY_0
f 3/3/3 2/2/2 1/1/1
f 4/4/4 2/2/2 3/3/3
f 4/4/4 5/5/5 2/2/2
f 2/2/2 5/5/5 6/6/6
f 5/5/5 7/7/7 6/6/6
f 6/6/6 7/7/7 8/8/8
f 5/5/5 9/9/9 7/7/7
f 7/7/7 9/9/9 10/10/10
f 5/5/5 11/11/11 9/9/9
f 4/4/4 11/11/11 5/5/5
f 4/4/4 12/12/12 11/11/11
f 3/3/3 12/12/12 4/4/4
f 13/13/13 6/6/6 8/8/8
f 14/14/14 6/6/6 13/13/13
f 14/14/14 2/2/2 6/6/6
f 15/15/15 2/2/2 14/14/14
f 15/15/15 1/1/1 2/2/2
f 16/16/16 1/1/1 15/15/15
f 16/16/16 15/15/15 17/17/17
f 17/17/17 15/15/15 18/18/18
f 15/15/15 14/14/14 18/18/18
f 18/18/18 14/14/14 19/19/19
f 14/14/14 13/13/13 19/19/19
f 19/19/19 13/13/13 20/20/20
f 21/21/21 19/19/19 20/20/20
f 22/22/22 19/19/19 21/21/21
f 22/22/22 18/18/18 19/19/19
f 22/22/22 21/21/21 23/23/23
f 24/24/24 22/22/22 23/23/23
f 25/25/25 22/22/22 24/24/24
f 25/25/25 18/18/18 22/22/22
f 25/25/25 17/17/17 18/18/18
f 25/25/25 24/24/24 26/26/26
f 26/26/26 17/17/17 25/25/25
f 26/26/26 24/24/24 27/27/27
f 23/23/23 21/21/21 28/28/28
f 29/29/29 23/23/23 28/28/28
f 30/30/30 23/23/23 29/29/29
f 30/30/30 24/24/24 23/23/23
f 31/31/31 24/24/24 30/30/30
f 31/31/31 27/27/27 24/24/24
f 32/32/32 27/27/27 31/31/31
f 31/31/31 33/33/33 32/32/32
f 32/32/32 33/33/33 34/34/34
f 31/31/31 35/35/35 33/33/33
f 30/30/30 35/35/35 31/31/31
f 30/30/30 29/29/29 35/35/35
f 35/35/35 29/29/29 36/36/36
f 37/37/37 35/35/35 36/36/36
f 38/38/38 35/35/35 37/37/37
f 38/38/38 33/33/33 35/35/35
f 38/38/38 37/37/37 39/39/39
f 38/38/38 39/39/39 40/40/40
f 40/40/40 33/33/33 38/38/38
f 40/40/40 34/34/34 33/33/33
f 40/40/40 39/39/39 41/41/41
f 40/40/40 41/41/41 42/42/42
f 42/42/42 34/34/34 40/40/40
f 42/42/42 41/41/41 43/43/43
f 39/39/39 37/37/37 44/44/44
f 45/45/45 39/39/39 44/44/44
f 46/46/46 39/39/39 45/45/45
f 46/46/46 41/41/41 39/39/39
f 45/45/45 47/47/47 46/46/46
f 46/46/46 47/47/47 48/48/48
f 46/46/46 48/48/48 49/49/49
f 49/49/49 41/41/41 46/46/46
f 49/49/49 43/43/43 41/41/41
f 49/49/49 48/48/48 50/50/50
f 49/49/49 50/50/50 51/51/51
f 51/51/51 43/43/43 49/49/49
f 51/51/51 50/50/50 52/52/52
f 53/53/53 48/48/48 47/47/47
f 54/54/54 48/48/48 53/53/53
f 54/54/54 50/50/50 48/48/48
f 55/55/55 50/50/50 54/54/54
f 55/55/55 52/52/52 50/50/50
f 56/56/56 52/52/52 55/55/55
f 55/55/55 57/57/57 56/56/56
f 56/56/56 57/57/57 58/58/58
f 55/55/55 59/59/59 57/57/57
f 54/54/54 59/59/59 55/55/55
f 54/54/54 60/60/60 59/59/59
f 53/53/53 60/60/60 54/54/54
f 61/61/61 59/59/59 60/60/60
f 62/62/62 59/59/59 61/61/61
f 62/62/62 57/57/57 59/59/59
f 63/63/63 57/57/57 62/62/62
f 63/63/63 58/58/58 57/57/57
f 64/64/64 58/58/58 63/63/63
f 63/63/63 11/11/11 64/64/64
f 64/64/64 11/11/11 12/12/12
f 63/63/63 9/9/9 11/11/11
f 62/62/62 9/9/9 63/63/63
f 62/62/62 61/61/61 9/9/9
f 9/9/9 61/61/61 10/10/10
f 60/60/60 53/53/53 65/65/65
f 65/65/65 53/53/53 66/66/66
f 53/53/53 47/47/47 66/66/66
f 66/66/66 47/47/47 67/67/67
f 47/47/47 45/45/45 67/67/67
f 67/67/67 45/45/45 68/68/68
f 69/69/69 67/67/67 68/68/68
f 69/69/69 66/66/66 67/67/67
f 69/69/69 65/65/65 66/66/66
f 69/69/69 68/68/68 70/70/70
f 69/69/69 70/70/70 71/71/71
f 70/70/70 37/37/37 71/71/71
f 44/44/44 37/37/37 70/70/70
f 68/68/68 44/44/44 70/70/70
f 45/45/45 44/44/44 68/68/68
f 69/69/69 72/72/72 65/65/65
f 72/72/72 60/60/60 65/65/65
f 61/61/61 60/60/60 72/72/72
f 61/61/61 72/72/72 10/10/10
f 69/69/69 71/71/71 73/73/73
f 69/69/69 73/73/73 74/74/74
f 69/69/69 74/74/74 75/75/75
f 69/69/69 75/75/75 76/76/76
f 28/28/28 76/76/76 75/75/75
f 74/74/74 28/28/28 75/75/75
f 21/21/21 76/76/76 28/28/28
f 29/29/29 28/28/28 74/74/74
f 69/69/69 76/76/76 77/77/77
f 21/21/21 77/77/77 76/76/76
f 69/69/69 77/77/77 78/78/78
f 69/69/69 78/78/78 79/79/79
f 69/69/69 79/79/79 80/80/80
f 8/8/8 80/80/80 79/79/79
f 7/7/7 80/80/80 8/8/8
f 69/69/69 80/80/80 81/81/81
f 80/80/80 10/10/10 81/81/81
f 7/7/7 10/10/10 80/80/80
f 13/13/13 79/79/79 78/78/78
f 8/8/8 79/79/79 13/13/13
f 20/20/20 78/78/78 77/77/77
f 13/13/13 78/78/78 20/20/20
f 20/20/20 77/77/77 21/21/21
f 69/69/69 81/81/81 72/72/72
f 10/10/10 72/72/72 81/81/81
f 29/29/29 74/74/74 36/36/36
f 36/36/36 74/74/74 73/73/73
f 71/71/71 36/36/36 73/73/73
f 37/37/37 36/36/36 71/71/71
f 84/84/84 83/83/83 82/82/82
f 85/85/85 83/83/83 84/84/84
f 86/86/86 83/83/83 85/85/85
f 87/87/87 83/83/83 86/86/86
f 88/88/88 87/87/87 86/86/86
f 89/89/89 87/87/87 88/88/88
f 88/88/88 90/90/90 89/89/89
f 91/91/91 90/90/90 88/88/88
f 91/91/91 92/92/92 90/90/90
f 93/93/93 92/92/92 91/91/91
f 94/94/94 92/92/92 93/93/93
f 95/95/95 92/92/92 94/94/94
f 96/96/96 95/95/95 94/94/94
f 97/97/97 95/95/95 96/96/96
f 96/96/96 98/98/98 97/97/97
f 99/99/99 98/98/98 96/96/96
f 99/99/99 100/100/100 98/98/98
f 101/101/101 100/100/100 99/99/99
f 102/102/102 100/100/100 101/101/101
f 103/103/103 100/100/100 102/102/102
f 104/104/104 103/103/103 102/102/102
f 105/105/105 103/103/103 104/104/104
f 104/104/104 106/106/106 105/105/105
f 107/107/107 106/106/106 104/104/104
f 107/107/107 108/108/108 106/106/106
f 109/109/109 108/108/108 107/107/107
f 110/110/110 108/108/108 109/109/109
f 111/111/111 108/108/108 110/110/110
f 112/112/112 111/111/111 110/110/110
f 113/113/113 111/111/111 112/112/112
f 112/112/112 114/114/114 113/113/113
f 115/115/115 114/114/114 112/112/112
