g LeftBorder
v 0 9.99999E-05 0.0028
v 0 0 0.0028
v -0.001398643 3.115241E-05 0.0028
v -0.0013942 0.0001308621 0.0028
v 0 9.99999E-05 -0.0025
v 0 9.99999E-05 -0.0028
v 0 0 -0.0028
v 0 0 -0.0025
v -0.002418222 9.999994E-05 0.0007211657
v -0.003881781 0.0008167705 0.0007988113
v -0.0025 9.999994E-05 0.0001000001
v -0.002418222 3.72529E-11 -0.0007211658
v -0.003917464 0.0007235163 -0.0007988113
v -0.0025 3.72529E-11 -0.0001000002
v -0.0013942 0.0001308621 0.0028
v -0.001398643 3.115241E-05 0.0028
v -0.002091969 0.0001047749 0.002708
v -0.002082016 0.0002037985 0.002708
v -0.002091969 0.0001047749 0.002708
v -0.00272986 0.0002351485 0.002438268
v -0.002712852 0.0003329559 0.002438269
v -0.002082016 0.0002037985 0.002708
v -0.00272986 0.0002351485 0.002438268
v -0.003267023 0.0004087336 0.002009188
v -0.003242515 0.0005049234 0.002009188
v -0.003267023 0.0004087336 0.002009188
v -0.00366969 0.0005879432 0.00145
v -0.003638553 0.0006824617 0.00145
v -0.00366969 0.0005879432 0.00145
v -0.003917464 0.0007235163 0.0007988114
v -0.003881781 0.0008167705 0.0007988113
v -0.003638553 0.0006824617 0.00145
v -0.003881781 0.0008167705 0.0007988113
v -0.003917464 0.0007235163 0.0007988114
v -0.004000893 0.0007740724 9.99999E-05
v -0.003963595 0.000866856 9.99999E-05
v -0.004000893 0.0007740724 9.99999E-05
v -0.004000893 0.0007740724 -9.99999E-05
v -0.003963595 0.000866856 -9.99999E-05
v -0.003963595 0.000866856 9.99999E-05
v -0.001398644 3.115242E-05 -0.0028
v -0.001394199 0.0001308621 -0.0028
v -0.002082016 0.0002037984 -0.002708
v -0.002091969 0.0001047749 -0.002708
v -0.002082016 0.0002037984 -0.002708
v -0.002712853 0.0003329559 -0.002438268
v -0.00272986 0.0002351484 -0.002438269
v -0.002091969 0.0001047749 -0.002708
v -0.002712853 0.0003329559 -0.002438268
v -0.003242515 0.0005049234 -0.002009188
v -0.003267022 0.0004087336 -0.002009188
v -0.00272986 0.0002351484 -0.002438269
v -0.003242515 0.0005049234 -0.002009188
v -0.003638554 0.0006824619 -0.00145
v -0.00366969 0.0005879432 -0.00145
v -0.003638554 0.0006824619 -0.00145
v -0.003881782 0.0008167705 -0.0007988114
v -0.003917464 0.0007235163 -0.0007988113
v -0.00366969 0.0005879432 -0.00145
v -0.003917464 0.0007235163 -0.0007988113
v -0.003881782 0.0008167705 -0.0007988114
v -0.003963595 0.000866856 -9.99999E-05
v -0.004000893 0.0007740724 -9.99999E-05
v -0.001394199 0.0001308621 -0.0028
v -0.001398644 3.115242E-05 -0.0028
v 0 0 -0.0028
v 0 9.99999E-05 -0.0028
v -0.001797056 9.99999E-05 0.001797056
v -0.001797057 -3.72529E-11 0.001797056
v -0.0013 0 0.002178461
v -0.0013 9.999998E-05 0.002178461
v -0.0013 9.999998E-05 0.002178461
v -0.0013 0 0.002178461
v -0.000721166 0 0.002418222
v -0.000721166 9.999998E-05 0.002418222
v -0.002178461 9.999994E-05 0.0013
v -0.002178461 3.72529E-11 0.0013
v -0.001797057 -3.72529E-11 0.001797056
v -0.001797056 9.99999E-05 0.001797056
v -0.002418222 9.999994E-05 0.0007211657
v -0.002418222 3.72529E-11 0.0007211657
v -0.002178461 3.72529E-11 0.0013
v -0.002178461 9.999994E-05 0.0013
v -0.0025 9.999994E-05 -0.0001000002
v -0.0025 3.72529E-11 -0.0001000002
v -0.0025 3.72529E-11 0.0001
v -0.0025 9.999994E-05 0.0001000001
v -0.0001000002 0 -0.0025
v -0.0001000002 9.99999E-05 -0.0025
v 0 9.99999E-05 -0.0025
v 0 0 -0.0025
v -0.0025 9.999994E-05 0.0001000001
v -0.0025 3.72529E-11 0.0001
v -0.002418222 3.72529E-11 0.0007211657
v -0.002418222 9.999994E-05 0.0007211657
v -0.002418222 3.72529E-11 -0.0007211658
v -0.002418222 9.99999E-05 -0.0007211658
v -0.002178461 9.99999E-05 -0.0013
v -0.002178461 3.72529E-11 -0.0013
v -0.002178461 3.72529E-11 -0.0013
v -0.002178461 9.99999E-05 -0.0013
v -0.001797056 9.99999E-05 -0.001797056
v -0.001797056 3.72529E-11 -0.001797056
v -0.0007211659 0 -0.002418222
v -0.000721166 9.999987E-05 -0.002418222
v -0.0001000002 9.99999E-05 -0.0025
v -0.0001000002 0 -0.0025
v 0 9.99999E-05 0.002499999
v 0 0 0.002499999
v 0 0 0.0028
v 0 9.99999E-05 0.0028
v -0.0001000003 9.99999E-05 0.0025
v -0.0001000003 0 0.0025
v 0 0 0.002499999
v 0 9.99999E-05 0.002499999
v -0.0025 3.72529E-11 -0.0001000002
v -0.0025 9.999994E-05 -0.0001000002
v -0.002418222 9.99999E-05 -0.0007211658
v -0.002418222 3.72529E-11 -0.0007211658
v -0.001797056 3.72529E-11 -0.001797056
v -0.001797056 9.99999E-05 -0.001797056
v -0.0013 9.99999E-05 -0.002178461
v -0.0013 -3.72529E-11 -0.002178461
v -0.0013 -3.72529E-11 -0.002178461
v -0.0013 9.99999E-05 -0.002178461
v -0.000721166 9.999987E-05 -0.002418222
v -0.0007211659 0 -0.002418222
v -0.000721166 0 0.002418222
v -0.0001000003 0 0.0025
v -0.0001000003 9.99999E-05 0.0025
v -0.000721166 9.999998E-05 0.002418222
v 0 9.99999E-05 -0.0028
v 0 9.99999E-05 -0.0025
v -0.0001000002 9.99999E-05 -0.0025
v -0.000721166 9.999987E-05 -0.002418222
v -0.001394199 0.0001308621 -0.0028
v -0.000721166 9.999987E-05 -0.002418222
v -0.0013 9.99999E-05 -0.002178461
v -0.002082016 0.0002037984 -0.002708
v -0.001797056 9.99999E-05 -0.001797056
v -0.002712853 0.0003329559 -0.002438268
v -0.003242515 0.0005049234 -0.002009188
v -0.002178461 9.99999E-05 -0.0013
v -0.003638554 0.0006824619 -0.00145
v -0.003881782 0.0008167705 -0.0007988114
v -0.0025 9.999994E-05 -0.0001000002
v -0.003963595 0.000866856 -9.99999E-05
v -0.003963595 0.000866856 9.99999E-05
v -0.0025 9.999994E-05 0.0001000001
v -0.003881781 0.0008167705 0.0007988113
v -0.003638554 0.0006824619 -0.00145
v -0.002418222 9.99999E-05 -0.0007211658
v -0.003638553 0.0006824617 0.00145
v -0.002418222 9.999994E-05 0.0007211657
v -0.003638553 0.0006824617 0.00145
v -0.002178461 9.999994E-05 0.0013
v -0.003242515 0.0005049234 0.002009188
v -0.002712852 0.0003329559 0.002438269
v -0.001797056 9.99999E-05 0.001797056
v -0.002082016 0.0002037985 0.002708
v -0.0013942 0.0001308621 0.0028
v -0.000721166 9.999998E-05 0.002418222
v 0 9.99999E-05 0.0028
v -0.0001000003 9.99999E-05 0.0025
v 0 9.99999E-05 0.002499999
v -0.0013 9.999998E-05 0.002178461
v -0.003242515 0.0005049234 0.002009188
v -0.002178461 9.999994E-05 0.0013
v -0.002712852 0.0003329559 0.002438269
v -0.002712853 0.0003329559 -0.002438268
v -0.002178461 9.99999E-05 -0.0013
v -0.003242515 0.0005049234 -0.002009188
v -0.003638554 0.0006824619 -0.00145
v -0.002178461 9.99999E-05 -0.0013
v -0.002418222 9.99999E-05 -0.0007211658
v -0.0013 9.99999E-05 -0.002178461
v -0.002082016 0.0002037984 -0.002708
v -0.001394199 0.0001308621 -0.0028
v -0.002082016 0.0002037985 0.002708
v -0.0013 9.999998E-05 0.002178461
v -0.0013942 0.0001308621 0.0028
v -0.002082016 0.0002037985 0.002708
v -0.001797056 9.99999E-05 0.001797056
v -0.0013 9.999998E-05 0.002178461
v -0.001797056 9.99999E-05 -0.001797056
v -0.002082016 0.0002037984 -0.002708
v -0.0013 9.99999E-05 -0.002178461
v -0.002178461 9.99999E-05 -0.0013
v -0.002712853 0.0003329559 -0.002438268
v -0.001797056 9.99999E-05 -0.001797056
v -0.002712852 0.0003329559 0.002438269
v -0.002178461 9.999994E-05 0.0013
v -0.001797056 9.99999E-05 0.001797056
v -0.003638553 0.0006824617 0.00145
v -0.002418222 9.999994E-05 0.0007211657
v -0.002178461 9.999994E-05 0.0013
v -0.002418222 9.99999E-05 -0.0007211658
v -0.0025 9.999994E-05 -0.0001000002
v -0.003881782 0.0008167705 -0.0007988114
v -0.001398644 3.115242E-05 -0.0028
v -0.0007211659 0 -0.002418222
v 0 0 -0.0028
v -0.0001000002 0 -0.0025
v 0 0 -0.0025
v -0.0013 -3.72529E-11 -0.002178461
v -0.00272986 0.0002351484 -0.002438269
v -0.001797056 3.72529E-11 -0.001797056
v -0.002091969 0.0001047749 -0.002708
v -0.00366969 0.0005879432 -0.00145
v -0.002418222 3.72529E-11 -0.0007211658
v -0.002178461 3.72529E-11 -0.0013
v -0.004000893 0.0007740724 -9.99999E-05
v -0.0025 3.72529E-11 -0.0001000002
v -0.003917464 0.0007235163 -0.0007988113
v -0.004000893 0.0007740724 9.99999E-05
v -0.0025 3.72529E-11 0.0001
v -0.003917464 0.0007235163 0.0007988114
v -0.00366969 0.0005879432 0.00145
v -0.002418222 3.72529E-11 0.0007211657
v -0.002418222 3.72529E-11 -0.0007211658
v -0.00366969 0.0005879432 -0.00145
v -0.003267023 0.0004087336 0.002009188
v -0.002178461 3.72529E-11 0.0013
v -0.00366969 0.0005879432 0.00145
v -0.002091969 0.0001047749 0.002708
v -0.001797057 -3.72529E-11 0.001797056
v -0.00272986 0.0002351485 0.002438268
v 0 0 0.0028
v -0.000721166 0 0.002418222
v -0.001398643 3.115241E-05 0.0028
v -0.0001000003 0 0.0025
v 0 0 0.002499999
v -0.0013 0 0.002178461
v -0.002091969 0.0001047749 -0.002708
v -0.0013 -3.72529E-11 -0.002178461
v -0.001398644 3.115242E-05 -0.0028
v -0.001398643 3.115241E-05 0.0028
v -0.0013 0 0.002178461
v -0.002091969 0.0001047749 0.002708
v -0.0013 0 0.002178461
v -0.001797057 -3.72529E-11 0.001797056
v -0.002091969 0.0001047749 0.002708
v -0.002091969 0.0001047749 -0.002708
v -0.001797056 3.72529E-11 -0.001797056
v -0.0013 -3.72529E-11 -0.002178461
v -0.001797057 -3.72529E-11 0.001797056
v -0.002178461 3.72529E-11 0.0013
v -0.00272986 0.0002351485 0.002438268
v -0.002178461 3.72529E-11 0.0013
v -0.003267023 0.0004087336 0.002009188
v -0.00272986 0.0002351485 0.002438268
v -0.00272986 0.0002351484 -0.002438269
v -0.002178461 3.72529E-11 -0.0013
v -0.001797056 3.72529E-11 -0.001797056
v -0.00272986 0.0002351484 -0.002438269
v -0.003267022 0.0004087336 -0.002009188
v -0.002178461 3.72529E-11 -0.0013
v -0.002418222 3.72529E-11 0.0007211657
v -0.00366969 0.0005879432 0.00145
v -0.002178461 3.72529E-11 0.0013
v -0.0025 3.72529E-11 0.0001
v -0.003917464 0.0007235163 0.0007988114
v -0.002418222 3.72529E-11 0.0007211657
v -0.003267022 0.0004087336 -0.002009188
v -0.00366969 0.0005879432 -0.00145
v -0.002178461 3.72529E-11 -0.0013
v -0.00272986 0.0002351485 0.002438268
v -0.003242515 0.0005049234 0.002009188
v -0.002712852 0.0003329559 0.002438269
v -0.003267023 0.0004087336 0.002009188
v -0.003638553 0.0006824617 0.00145
v -0.003242515 0.0005049234 0.002009188
v -0.003242515 0.0005049234 -0.002009188
v -0.00366969 0.0005879432 -0.00145
v -0.003267022 0.0004087336 -0.002009188
vn -1.664691E-07 0 1
vn -1.664691E-07 0 1
vn -1.664691E-07 0 1
vn 0 0 1
vn 1 0 0
vn 1 0 0
vn 1 0 0
vn 1 0 0
vn 0.4366418 0.8977969 -0.05748487
vn 0.4366418 0.8977969 -0.05748487
vn 0.4366418 0.8977969 -0.05748487
vn -0.4315343 -0.9003057 -0.05681261
vn -0.4315343 -0.9003057 -0.05681261
vn -0.4315343 -0.9003057 -0.05681261
vn -0.1309304 0.005835162 0.9913744
vn -0.1309304 0.005835162 0.9913744
vn -0.1309304 0.005835162 0.9913744
vn -0.1311911 0.01318516 0.9912694
vn -0.3772203 0.06559488 0.9237977
vn -0.3772203 0.06559488 0.9237977
vn -0.3772203 0.06559488 0.9237977
vn -0.3861225 0.03880706 0.9216308
vn -0.5871347 0.1495903 0.7955473
vn -0.5871347 0.1495903 0.7955473
vn -0.5871347 0.1495903 0.7955473
vn -0.7473825 0.2462112 0.6170896
vn -0.7473825 0.2462112 0.6170896
vn -0.7473825 0.2462112 0.6170896
vn -0.8580729 0.3283373 0.3948487
vn -0.8580729 0.3283373 0.3948487
vn -0.8580729 0.3283373 0.3948487
vn -0.8759121 0.2885439 0.3866786
vn -0.9252743 0.3540475 0.1360801
vn -0.9252743 0.3540475 0.1360801
vn -0.9252743 0.3540475 0.1360801
vn -0.919448 0.3696254 0.1341359
vn -0.927837 0.3729862 0
vn -0.927837 0.3729862 0
vn -0.927837 0.3729862 0
vn -0.927837 0.3729862 0
vn -0.1319602 0.005884467 -0.9912375
vn -0.1319602 0.005884467 -0.9912375
vn -0.1319602 0.005884467 -0.9912375
vn -0.1301648 0.01308268 -0.9914061
vn -0.3807909 0.0662167 -0.9222871
vn -0.3807909 0.0662167 -0.9222871
vn -0.3807909 0.0662167 -0.9222871
vn -0.3824964 0.03844403 -0.9231569
vn -0.5922237 0.1508814 -0.7915213
vn -0.5922237 0.1508814 -0.7915213
vn -0.5922237 0.1508814 -0.7915213
vn -0.5999165 0.1043217 -0.7932322
vn -0.751816 0.2476601 -0.6110951
vn -0.751816 0.2476601 -0.6110951
vn -0.751816 0.2476601 -0.6110951
vn -0.8603125 0.3291825 -0.3892319
vn -0.8603125 0.3291825 -0.3892319
vn -0.8603125 0.3291825 -0.3892319
vn -0.8736432 0.2877903 -0.3923317
vn -0.9255766 0.3541474 -0.1337444
vn -0.9255766 0.3541474 -0.1337444
vn -0.9255766 0.3541474 -0.1337444
vn -0.9191543 0.3695022 -0.1364678
vn -1.66788E-07 2.985945E-06 -1
vn -1.66788E-07 2.985945E-06 -1
vn -1.66788E-07 2.985945E-06 -1
vn -3.339994E-07 0 -1
vn 0.6087611 0 -0.7933536
vn 0.6087611 0 -0.7933536
vn 0.6087611 0 -0.7933536
vn 0.6087613 0 -0.7933535
vn 0.3826837 0 -0.9238794
vn 0.3826837 0 -0.9238794
vn 0.3826837 0 -0.9238794
vn 0.3826843 0 -0.9238791
vn 0.7933534 0 -0.6087614
vn 0.7933534 0 -0.6087614
vn 0.7933534 0 -0.6087614
vn 0.7933531 0 -0.6087617
vn 0.9238795 0 -0.3826833
vn 0.9238795 0 -0.3826833
vn 0.9238795 0 -0.3826833
vn 0.9238796 -1.443493E-06 -0.3826831
vn 1 0 0
vn 1 0 0
vn 1 0 0
vn 1 -2.328306E-06 0
vn 0 0 1
vn 0 0 1
vn 0 0 1
vn 0 0 1
vn 0.9914449 0 -0.130526
vn 0.9914449 0 -0.130526
vn 0.9914449 0 -0.130526
vn 0.9914449 0 -0.130526
vn 0.9238794 2.972979E-06 0.3826837
vn 0.9238794 2.972979E-06 0.3826837
vn 0.9238794 2.972979E-06 0.3826837
vn 0.9238795 0 0.3826835
vn 0.7933536 0 0.6087611
vn 0.7933536 0 0.6087611
vn 0.7933536 0 0.6087611
vn 0.7933533 2.972979E-06 0.6087614
vn 0.1305257 0 0.9914449
vn 0.1305257 0 0.9914449
vn 0.1305257 0 0.9914449
vn 0.1305264 0 0.9914449
vn 1 0 0
vn 1 0 0
vn 1 0 0
vn 1 0 0
vn -4.656602E-06 0 -1
vn -4.656602E-06 0 -1
vn -4.656602E-06 0 -1
vn -4.656602E-06 0 -1
vn 0.9914449 0 0.130526
vn 0.9914449 0 0.130526
vn 0.9914449 0 0.130526
vn 0.9914449 2.972979E-06 0.1305262
vn 0.6087611 2.972978E-06 0.7933536
vn 0.6087611 2.972978E-06 0.7933536
vn 0.6087611 2.972978E-06 0.7933536
vn 0.6087618 0 0.793353
vn 0.3826831 0 0.9238797
vn 0.3826831 0 0.9238797
vn 0.3826831 0 0.9238797
vn 0.3826841 7.432448E-07 0.9238793
vn 0.1305263 0 -0.9914449
vn 0.1305263 0 -0.9914449
vn 0.1305263 0 -0.9914449
vn 0.1305261 0 -0.9914449
vn 0 1 0
vn 0 1 0
vn 0 1 0
vn 0 1 0
vn 0.0221114 0.9988826 0.04176782
vn 0.01932801 0.9987237 0.04666178
vn 0.01932801 0.9987237 0.04666178
vn 0.2179723 0.9750111 0.042913
vn 0.2179723 0.9750111 0.042913
vn 0.2179723 0.9750111 0.042913
vn 0.3730346 0.9273251 -0.03022219
vn 0.3730346 0.9273251 -0.03022219
vn 0.3730346 0.9273251 -0.03022219
vn 0.4640877 0.8857419 -0.009150284
vn 0.4640877 0.8857419 -0.009150284
vn 0.4640877 0.8857419 -0.009150284
vn 0.4641073 0.885779 0
vn 0.4641073 0.885779 0
vn 0.4406161 0.8974609 0.02052718
vn 0.4406158 0.8974611 -0.02052701
vn 0.4406158 0.8974611 -0.02052701
vn 0.4406161 0.8974609 0.02052718
vn 0.4406161 0.8974609 0.02052718
vn 0.3730345 0.9273251 0.03022205
vn 0.3730345 0.9273251 0.03022205
vn 0.3730345 0.9273251 0.03022205
vn 0.2179726 0.9750111 -0.04291297
vn 0.2179726 0.9750111 -0.04291297
vn 0.2179726 0.9750111 -0.04291297
vn 0.02211137 0.9988827 -0.0417675
vn 0.02211137 0.9988827 -0.0417675
vn 0.02211137 0.9988827 -0.0417675
vn 0 1 0
vn 0 1 0
vn 0.01932796 0.9987237 -0.04666164
vn 0.3346062 0.9416841 -0.03563331
vn 0.3346062 0.9416841 -0.03563331
vn 0.3346062 0.9416841 -0.03563331
vn 0.3346061 0.9416842 0.03563324
vn 0.3346061 0.9416842 0.03563324
vn 0.3346061 0.9416842 0.03563324
vn 0.353518 0.9238954 0.146432
vn 0.353518 0.9238954 0.146432
vn 0.353518 0.9238954 0.146432
vn 0.1097169 0.9934249 0.03269948
vn 0.1097169 0.9934249 0.03269948
vn 0.1097169 0.9934249 0.03269948
vn 0.1097169 0.9934249 -0.03269933
vn 0.1097169 0.9934249 -0.03269933
vn 0.1097169 0.9934249 -0.03269933
vn 0.07004096 0.9933591 -0.09127936
vn 0.07004096 0.9933591 -0.09127936
vn 0.07004096 0.9933591 -0.09127936
vn 0.07004114 0.993359 0.09127939
vn 0.07004114 0.993359 0.09127939
vn 0.07004114 0.993359 0.09127939
vn 0.1619875 0.9789332 0.1242973
vn 0.1619875 0.9789332 0.1242973
vn 0.1619875 0.9789332 0.1242973
vn 0.1619874 0.9789332 -0.1242973
vn 0.1619874 0.9789332 -0.1242973
vn 0.1619874 0.9789332 -0.1242973
vn 0.353518 0.9238954 -0.1464318
vn 0.353518 0.9238954 -0.1464318
vn 0.353518 0.9238954 -0.1464318
vn 0.4366417 0.897797 0.05748486
vn 0.4366417 0.897797 0.05748486
vn 0.4366417 0.897797 0.05748486
vn -0.02224812 -0.9988688 -0.04202593
vn -0.02224812 -0.9988688 -0.04202593
vn -0.02224812 -0.9988688 -0.04202593
vn 0 -1 0
vn 0 -1 0
vn -0.0194551 -0.9987069 -0.04696896
vn -0.2170457 -0.9752616 -0.04190547
vn -0.2170457 -0.9752616 -0.04190547
vn -0.2170457 -0.9752616 -0.04190547
vn -0.3502446 -0.925355 -0.145076
vn -0.3502446 -0.925355 -0.145076
vn -0.3502446 -0.925355 -0.145076
vn -0.4583496 -0.8887204 0.009573641
vn -0.4583496 -0.8887204 0.009573641
vn -0.4583496 -0.8887204 0.009573641
vn -0.4583496 -0.8887205 -0.009573874
vn -0.4583496 -0.8887205 -0.009573874
vn -0.4583496 -0.8887205 -0.009573874
vn -0.4354329 -0.89996 -0.0216858
vn -0.4354329 -0.89996 -0.0216858
vn -0.4354331 -0.8999599 0.02168584
vn -0.4354331 -0.8999599 0.02168584
vn -0.3693603 -0.9287465 -0.03167225
vn -0.3693603 -0.9287465 -0.03167225
vn -0.3693603 -0.9287465 -0.03167225
vn -0.2170456 -0.9752616 0.04190559
vn -0.2170456 -0.9752616 0.04190559
vn -0.2170456 -0.9752616 0.04190559
vn -0.02224809 -0.9988688 0.04202592
vn -0.02224809 -0.9988688 0.04202592
vn -0.02224809 -0.9988688 0.04202592
vn 0 -1 0
vn 0 -1 0
vn -0.01945519 -0.9987069 0.04696887
vn -0.1097849 -0.9934282 -0.03236831
vn -0.1097849 -0.9934282 -0.03236831
vn -0.1097849 -0.9934282 -0.03236831
vn -0.1097847 -0.9934282 0.03236824
vn -0.1097847 -0.9934282 0.03236824
vn -0.1097847 -0.9934282 0.03236824
vn -0.07022262 -0.9933245 0.09151607
vn -0.07022262 -0.9933245 0.09151607
vn -0.07022262 -0.9933245 0.09151607
vn -0.07022276 -0.9933245 -0.09151595
vn -0.07022276 -0.9933245 -0.09151595
vn -0.07022276 -0.9933245 -0.09151595
vn -0.161578 -0.9790407 0.1239829
vn -0.161578 -0.9790407 0.1239829
vn -0.161578 -0.9790407 0.1239829
vn -0.3318165 -0.9427305 0.03401501
vn -0.3318165 -0.9427305 0.03401501
vn -0.3318165 -0.9427305 0.03401501
vn -0.1615779 -0.9790407 -0.123983
vn -0.1615779 -0.9790407 -0.123983
vn -0.1615779 -0.9790407 -0.123983
vn -0.3318166 -0.9427305 -0.03401496
vn -0.3318166 -0.9427305 -0.03401496
vn -0.3318166 -0.9427305 -0.03401496
vn -0.3502448 -0.9253548 0.1450761
vn -0.3502448 -0.9253548 0.1450761
vn -0.3502448 -0.9253548 0.1450761
vn -0.4315343 -0.9003057 0.05681254
vn -0.4315343 -0.9003057 0.05681254
vn -0.4315343 -0.9003057 0.05681254
vn -0.3693601 -0.9287465 0.03167205
vn -0.3693601 -0.9287465 0.03167205
vn -0.3693601 -0.9287465 0.03167205
vn -0.6051245 0.1052245 0.7891465
vn -0.6051245 0.1052245 0.7891465
vn -0.6051245 0.1052245 0.7891465
vn -0.7697698 0.1961177 0.6074473
vn -0.7697698 0.1961177 0.6074473
vn -0.7697698 0.1961177 0.6074473
vn -0.7652334 0.1949618 -0.6135207
vn -0.7652334 0.1949618 -0.6135207
vn -0.7652334 0.1949618 -0.6135207
g LeftBorder_0
f 3/3/3 2/2/2 1/1/1
f 4/4/4 3/3/3 1/1/1
f 7/7/7 6/6/6 5/5/5
f 8/8/8 7/7/7 5/5/5
f 11/11/11 10/10/10 9/9/9
f 14/14/14 13/13/13 12/12/12
f 17/17/17 16/16/16 15/15/15
f 18/18/18 17/17/17 15/15/15
f 21/21/21 20/20/20 19/19/19
f 22/22/22 21/21/21 19/19/19
f 25/25/25 24/24/24 23/23/23
f 28/28/28 27/27/27 26/26/26
f 31/31/31 30/30/30 29/29/29
f 32/32/32 31/31/31 29/29/29
f 35/35/35 34/34/34 33/33/33
f 36/36/36 35/35/35 33/33/33
f 39/39/39 38/38/38 37/37/37
f 40/40/40 39/39/39 37/37/37
f 43/43/43 42/42/42 41/41/41
f 44/44/44 43/43/43 41/41/41
f 47/47/47 46/46/46 45/45/45
f 48/48/48 47/47/47 45/45/45
f 51/51/51 50/50/50 49/49/49
f 52/52/52 51/51/51 49/49/49
f 55/55/55 54/54/54 53/53/53
f 58/58/58 57/57/57 56/56/56
f 59/59/59 58/58/58 56/56/56
f 62/62/62 61/61/61 60/60/60
f 63/63/63 62/62/62 60/60/60
f 66/66/66 65/65/65 64/64/64
f 67/67/67 66/66/66 64/64/64
f 70/70/70 69/69/69 68/68/68
f 71/71/71 70/70/70 68/68/68
f 74/74/74 73/73/73 72/72/72
f 75/75/75 74/74/74 72/72/72
f 78/78/78 77/77/77 76/76/76
f 79/79/79 78/78/78 76/76/76
f 82/82/82 81/81/81 80/80/80
f 83/83/83 82/82/82 80/80/80
f 86/86/86 85/85/85 84/84/84
f 87/87/87 86/86/86 84/84/84
f 90/90/90 89/89/89 88/88/88
f 91/91/91 90/90/90 88/88/88
f 94/94/94 93/93/93 92/92/92
f 95/95/95 94/94/94 92/92/92
f 98/98/98 97/97/97 96/96/96
f 99/99/99 98/98/98 96/96/96
f 102/102/102 101/101/101 100/100/100
f 103/103/103 102/102/102 100/100/100
f 106/106/106 105/105/105 104/104/104
f 107/107/107 106/106/106 104/104/104
f 110/110/110 109/109/109 108/108/108
f 111/111/111 110/110/110 108/108/108
f 114/114/114 113/113/113 112/112/112
f 115/115/115 114/114/114 112/112/112
f 118/118/118 117/117/117 116/116/116
f 119/119/119 118/118/118 116/116/116
f 122/122/122 121/121/121 120/120/120
f 123/123/123 122/122/122 120/120/120
f 126/126/126 125/125/125 124/124/124
f 127/127/127 126/126/126 124/124/124
f 130/130/130 129/129/129 128/128/128
f 131/131/131 130/130/130 128/128/128
f 134/134/134 133/133/133 132/132/132
f 135/135/135 134/134/134 132/132/132
f 136/136/136 135/135/135 132/132/132
f 136/136/136 138/138/138 137/137/137
f 141/141/141 140/140/140 139/139/139
f 144/144/144 143/143/143 142/142/142
f 147/147/147 146/146/146 145/145/145
f 148/148/148 146/146/146 147/147/147
f 149/149/149 146/146/146 148/148/148
f 150/150/150 149/149/149 148/148/148
f 145/145/145 152/152/152 151/151/151
f 154/154/154 150/150/150 153/153/153
f 157/157/157 156/156/156 155/155/155
f 160/160/160 159/159/159 158/158/158
f 163/163/163 162/162/162 161/161/161
f 164/164/164 162/162/162 163/163/163
f 165/165/165 164/164/164 163/163/163
f 162/162/162 166/166/166 161/161/161
f 169/169/169 168/168/168 167/167/167
f 172/172/172 171/171/171 170/170/170
f 175/175/175 174/174/174 173/173/173
f 178/178/178 177/177/177 176/176/176
f 181/181/181 180/180/180 179/179/179
f 184/184/184 183/183/183 182/182/182
f 187/187/187 186/186/186 185/185/185
f 190/190/190 189/189/189 188/188/188
f 193/193/193 192/192/192 191/191/191
f 196/196/196 195/195/195 194/194/194
f 199/199/199 198/198/198 197/197/197
f 202/202/202 201/201/201 200/200/200
f 203/203/203 201/201/201 202/202/202
f 204/204/204 203/203/203 202/202/202
f 201/201/201 205/205/205 200/200/200
f 208/208/208 207/207/207 206/206/206
f 211/211/211 210/210/210 209/209/209
f 214/214/214 213/213/213 212/212/212
f 212/212/212 213/213/213 215/215/215
f 216/216/216 215/215/215 213/213/213
f 215/215/215 216/216/216 217/217/217
f 217/217/217 219/219/219 218/218/218
f 221/221/221 220/220/220 214/214/214
f 224/224/224 223/223/223 222/222/222
f 227/227/227 226/226/226 225/225/225
f 230/230/230 229/229/229 228/228/228
f 231/231/231 228/228/228 229/229/229
f 232/232/232 228/228/228 231/231/231
f 233/233/233 229/229/229 230/230/230
f 236/236/236 235/235/235 234/234/234
f 239/239/239 238/238/238 237/237/237
f 242/242/242 241/241/241 240/240/240
f 245/245/245 244/244/244 243/243/243
f 248/248/248 247/247/247 246/246/246
f 251/251/251 250/250/250 249/249/249
f 254/254/254 253/253/253 252/252/252
f 257/257/257 256/256/256 255/255/255
f 260/260/260 259/259/259 258/258/258
f 263/263/263 262/262/262 261/261/261
f 266/266/266 265/265/265 264/264/264
f 269/269/269 268/268/268 267/267/267
f 272/272/272 271/271/271 270/270/270
f 275/275/275 274/274/274 273/273/273
