g LeftBG
v -0.001184696 0.001268048 0.00425
v -0.001284686 0.001266633 0.00425
v -0.001284814 0.004266633 0.00425
v -0.001184814 0.004266633 0.00425
v -0.001089752 0.0008198136 0.00425
v -0.001181729 0.0007805669 0.00425
v -0.0008318416 0.0004411172 0.00425
v -0.0009020501 0.0003699081 0.00425
v -0.0004495335 0.0001885913 0.00425
v -0.0004874747 9.606868E-05 0.00425
v 0 9.99999E-05 0.00425
v 0 0 0.00425
v -0.0004495335 0.0001885913 -0.00425
v 0 9.99999E-05 -0.00425
v 0 9.99999E-05 0.00425
v -0.0004495335 0.0001885913 0.00425
v 0 9.99999E-05 -0.00425
v 0 0 -0.00425
v 0 0 0.00425
v 0 9.99999E-05 0.00425
v -0.001184814 0.004266633 -0.00425
v -0.001184696 0.001268048 -0.00425
v -0.001184696 0.001268048 0.00425
v -0.001184814 0.004266633 0.00425
v -0.001184814 0.004887798 -0.004168222
v -0.001184814 0.004887798 0.004168222
v -0.001184814 0.005466633 -0.003928461
v -0.001184814 0.005466633 0.003928461
v -0.001184814 0.005963689 -0.003547056
v -0.001184814 0.005963689 0.003547056
v -0.001184814 0.006345094 -0.00305
v -0.001184814 0.006345094 0.00305
v -0.001184814 0.006584855 -0.002471166
v -0.001184814 0.006584855 0.002471165
v -0.001184814 0.006666633 -0.00185
v -0.001184814 0.006666633 0.00185
v -0.0004495335 0.0001885913 -0.00425
v -0.0004874747 9.606868E-05 -0.00425
v 0 0 -0.00425
v 0 9.99999E-05 -0.00425
v -0.0008318416 0.0004411172 -0.00425
v -0.0009020501 0.0003699081 -0.00425
v -0.001089752 0.0008198136 -0.00425
v -0.001181729 0.0007805669 -0.00425
v -0.001184696 0.001268048 -0.00425
v -0.001284686 0.001266633 -0.00425
v -0.001184814 0.004266633 -0.00425
v -0.001284814 0.004266633 -0.00425
v -0.001284814 0.004266633 0.00425
v -0.001284686 0.001266633 0.00425
v -0.001284686 0.001266633 -0.00425
v -0.001284814 0.004266633 -0.00425
v -0.001284814 0.004887798 0.004168222
v -0.001284814 0.004887798 -0.004168222
v -0.001284814 0.005466633 0.003928461
v -0.001284814 0.005466633 -0.003928461
v -0.001284814 0.005963689 0.003547056
v -0.001284814 0.005963689 -0.003547056
v -0.001284814 0.006345094 0.00305
v -0.001284814 0.006345094 -0.00305
v -0.001284814 0.006584855 0.002471166
v -0.001284814 0.006584855 -0.002471165
v -0.001284814 0.006666633 0.00185
v -0.001284814 0.006666633 -0.00185
v 0 0 -0.00425
v -0.0004874747 9.606868E-05 -0.00425
v -0.0004874747 9.606868E-05 0.00425
v 0 0 0.00425
v -0.0004874747 9.606868E-05 -0.00425
v -0.0009020501 0.0003699081 -0.00425
v -0.0009020501 0.0003699081 0.00425
v -0.0004874747 9.606868E-05 0.00425
v -0.0009020501 0.0003699081 -0.00425
v -0.001181729 0.0007805669 -0.00425
v -0.001181729 0.0007805669 0.00425
v -0.0009020501 0.0003699081 0.00425
v -0.001181729 0.0007805669 -0.00425
v -0.001284686 0.001266633 -0.00425
v -0.001284686 0.001266633 0.00425
v -0.001181729 0.0007805669 0.00425
v -0.001184696 0.001268048 -0.00425
v -0.001089752 0.0008198136 -0.00425
v -0.001089752 0.0008198136 0.00425
v -0.001184696 0.001268048 0.00425
v -0.001089752 0.0008198136 -0.00425
v -0.0008318416 0.0004411172 -0.00425
v -0.0008318416 0.0004411172 0.00425
v -0.001089752 0.0008198136 0.00425
v -0.0008318416 0.0004411172 -0.00425
v -0.0004495335 0.0001885913 -0.00425
v -0.0004495335 0.0001885913 0.00425
v -0.0008318416 0.0004411172 0.00425
v -0.001284814 0.004266633 0.00425
v -0.001284814 0.004887798 0.004168222
v -0.001184814 0.004887798 0.004168222
v -0.001184814 0.004266633 0.00425
v -0.001284814 0.004887798 0.004168222
v -0.001284814 0.005466633 0.003928461
v -0.001184814 0.005466633 0.003928461
v -0.001184814 0.004887798 0.004168222
v -0.001284814 0.005466633 0.003928461
v -0.001284814 0.005963689 0.003547056
v -0.001184814 0.005963689 0.003547056
v -0.001184814 0.005466633 0.003928461
v -0.001284814 0.005963689 0.003547056
v -0.001284814 0.006345094 0.00305
v -0.001184814 0.006345094 0.00305
v -0.001184814 0.005963689 0.003547056
v -0.001284814 0.006345094 0.00305
v -0.001284814 0.006584855 0.002471166
v -0.001184814 0.006584855 0.002471165
v -0.001184814 0.006345094 0.00305
v -0.001284814 0.006584855 0.002471166
v -0.001284814 0.006666633 0.00185
v -0.001184814 0.006666633 0.00185
v -0.001184814 0.006584855 0.002471165
v -0.001284814 0.006666633 -0.00185
v -0.001184814 0.006666633 -0.00185
v -0.001184814 0.006666633 0.00185
v -0.001284814 0.006666633 0.00185
v -0.001184814 0.004266633 -0.00425
v -0.001184814 0.004887798 -0.004168222
v -0.001284814 0.004887798 -0.004168222
v -0.001284814 0.004266633 -0.00425
v -0.001184814 0.004887798 -0.004168222
v -0.001184814 0.005466633 -0.003928461
v -0.001284814 0.005466633 -0.003928461
v -0.001284814 0.004887798 -0.004168222
v -0.001184814 0.005466633 -0.003928461
v -0.001184814 0.005963689 -0.003547056
v -0.001284814 0.005963689 -0.003547056
v -0.001284814 0.005466633 -0.003928461
v -0.001184814 0.005963689 -0.003547056
v -0.001184814 0.006345094 -0.00305
v -0.001284814 0.006345094 -0.00305
v -0.001284814 0.005963689 -0.003547056
v -0.001184814 0.006345094 -0.00305
v -0.001184814 0.006584855 -0.002471166
v -0.001284814 0.006584855 -0.002471165
v -0.001284814 0.006345094 -0.00305
v -0.001184814 0.006584855 -0.002471166
v -0.001184814 0.006666633 -0.00185
v -0.001284814 0.006666633 -0.00185
v -0.001284814 0.006584855 -0.002471165
vn 0 0 1
vn 0 0 1
vn 0 0 1
vn 0 0 1
vn 0 0 1
vn 0 0 1
vn 0 0 1
vn 0 0 1
vn 9.939332E-07 0 1
vn 9.939332E-07 0 1
vn 9.939332E-07 0 1
vn 9.939332E-07 0 1
vn 0.1933551 0.9811288 0
vn 0.1933551 0.9811288 0
vn 0.1933551 0.9811288 0
vn 0.1933551 0.9811288 0
vn 1 0 0
vn 1 0 0
vn 1 0 0
vn 1 0 0
vn 1 2.322245E-05 0
vn 1 2.322245E-05 0
vn 1 2.322245E-05 0
vn 1 2.322245E-05 0
vn 1 2.322245E-05 0
vn 1 2.322245E-05 0
vn 1 2.322245E-05 0
vn 1 2.322245E-05 0
vn 1 2.322245E-05 0
vn 1 2.322245E-05 0
vn 1 2.322245E-05 0
vn 1 2.322245E-05 0
vn 1 2.322245E-05 0
vn 1 2.322245E-05 0
vn 1 2.322245E-05 0
vn 1 2.322245E-05 0
vn 0 0 -1
vn 0 0 -1
vn 0 0 -1
vn 0 0 -1
vn 0 0 -1
vn 0 0 -1
vn 3.975731E-06 0 -1
vn 3.975731E-06 0 -1
vn 3.975731E-06 0 -1
vn 3.975731E-06 0 -1
vn 0 0 -1
vn 0 0 -1
vn -1 -2.519232E-05 0
vn -1 -2.519232E-05 0
vn -1 -2.519232E-05 0
vn -1 -2.519232E-05 0
vn -1 -2.519232E-05 0
vn -1 -2.519232E-05 0
vn -1 -2.519232E-05 0
vn -1 -2.519232E-05 0
vn -1 -2.519232E-05 0
vn -1 -2.519232E-05 0
vn -1 -2.519232E-05 0
vn -1 -2.519232E-05 0
vn -1 -2.519232E-05 0
vn -1 -2.519232E-05 0
vn -1 -2.519232E-05 0
vn -1 -2.519232E-05 0
vn -0.1933552 -0.9811288 0
vn -0.1933552 -0.9811288 0
vn -0.1933552 -0.9811288 0
vn -0.1933552 -0.9811288 0
vn -0.5511501 -0.8344061 0
vn -0.5511501 -0.8344061 0
vn -0.5511501 -0.8344061 0
vn -0.5511501 -0.8344061 0
vn -0.8265234 -0.5629023 0
vn -0.8265234 -0.5629023 0
vn -0.8265234 -0.5629023 0
vn -0.8265234 -0.5629023 0
vn -0.9782945 -0.2072194 0
vn -0.9782945 -0.2072194 0
vn -0.9782945 -0.2072194 0
vn -0.9782945 -0.2072194 0
vn 0.9782945 0.2072195 0
vn 0.9782945 0.2072195 0
vn 0.9782945 0.2072195 0
vn 0.9782945 0.2072195 0
vn 0.8265235 0.5629022 0
vn 0.8265235 0.5629022 0
vn 0.8265235 0.5629022 0
vn 0.8265235 0.5629022 0
vn 0.5511501 0.8344061 0
vn 0.5511501 0.8344061 0
vn 0.5511501 0.8344061 0
vn 0.5511501 0.8344061 0
vn 0 0.1305264 0.9914449
vn 0 0.1305264 0.9914449
vn 0 0.1305264 0.9914449
vn 0 0.1305264 0.9914449
vn 0 0.3826829 0.9238797
vn 0 0.3826829 0.9238797
vn 0 0.3826829 0.9238797
vn 0 0.3826829 0.9238797
vn 0 0.6087614 0.7933533
vn 0 0.6087614 0.7933533
vn 0 0.6087614 0.7933533
vn 0 0.6087614 0.7933533
vn 0 0.7933533 0.6087614
vn 0 0.7933533 0.6087614
vn 0 0.7933533 0.6087614
vn 0 0.7933533 0.6087614
vn 0 0.9238798 0.3826827
vn 0 0.9238798 0.3826827
vn 0 0.9238798 0.3826827
vn 0 0.9238798 0.3826827
vn 0 0.9914449 0.1305263
vn 0 0.9914449 0.1305263
vn 0 0.9914449 0.1305263
vn 0 0.9914449 0.1305263
vn 0 1 0
vn 0 1 0
vn 0 1 0
vn 0 1 0
vn 0 0.1305264 -0.9914449
vn 0 0.1305264 -0.9914449
vn 0 0.1305264 -0.9914449
vn 0 0.1305264 -0.9914449
vn 0 0.3826832 -0.9238796
vn 0 0.3826832 -0.9238796
vn 0 0.3826832 -0.9238796
vn 0 0.3826832 -0.9238796
vn 0 0.608761 -0.7933537
vn 0 0.608761 -0.7933537
vn 0 0.608761 -0.7933537
vn 0 0.608761 -0.7933537
vn 0 0.7933533 -0.6087614
vn 0 0.7933533 -0.6087614
vn 0 0.7933533 -0.6087614
vn 0 0.7933533 -0.6087614
vn 0 0.9238798 -0.3826827
vn 0 0.9238798 -0.3826827
vn 0 0.9238798 -0.3826827
vn 0 0.9238798 -0.3826827
vn -1.858111E-07 0.9914449 -0.1305263
vn -1.858111E-07 0.9914449 -0.1305263
vn -1.858111E-07 0.9914449 -0.1305263
vn -1.858111E-07 0.9914449 -0.1305263
g LeftBG_0
f 3/3/3 2/2/2 1/1/1
f 4/4/4 3/3/3 1/1/1
f 1/1/1 2/2/2 5/5/5
f 2/2/2 6/6/6 5/5/5
f 5/5/5 6/6/6 7/7/7
f 6/6/6 8/8/8 7/7/7
f 7/7/7 8/8/8 9/9/9
f 8/8/8 10/10/10 9/9/9
f 9/9/9 10/10/10 11/11/11
f 10/10/10 12/12/12 11/11/11
f 15/15/15 14/14/14 13/13/13
f 16/16/16 15/15/15 13/13/13
f 19/19/19 18/18/18 17/17/17
f 20/20/20 19/19/19 17/17/17
f 23/23/23 22/22/22 21/21/21
f 21/21/21 24/24/24 23/23/23
f 21/21/21 25/25/25 24/24/24
f 25/25/25 26/26/26 24/24/24
f 25/25/25 27/27/27 26/26/26
f 27/27/27 28/28/28 26/26/26
f 27/27/27 29/29/29 28/28/28
f 29/29/29 30/30/30 28/28/28
f 29/29/29 31/31/31 30/30/30
f 31/31/31 32/32/32 30/30/30
f 31/31/31 33/33/33 32/32/32
f 33/33/33 34/34/34 32/32/32
f 33/33/33 35/35/35 34/34/34
f 35/35/35 36/36/36 34/34/34
f 39/39/39 38/38/38 37/37/37
f 40/40/40 39/39/39 37/37/37
f 37/37/37 38/38/38 41/41/41
f 38/38/38 42/42/42 41/41/41
f 41/41/41 42/42/42 43/43/43
f 42/42/42 44/44/44 43/43/43
f 43/43/43 44/44/44 45/45/45
f 44/44/44 46/46/46 45/45/45
f 45/45/45 46/46/46 47/47/47
f 46/46/46 48/48/48 47/47/47
f 51/51/51 50/50/50 49/49/49
f 49/49/49 52/52/52 51/51/51
f 49/49/49 53/53/53 52/52/52
f 53/53/53 54/54/54 52/52/52
f 53/53/53 55/55/55 54/54/54
f 55/55/55 56/56/56 54/54/54
f 55/55/55 57/57/57 56/56/56
f 57/57/57 58/58/58 56/56/56
f 57/57/57 59/59/59 58/58/58
f 59/59/59 60/60/60 58/58/58
f 59/59/59 61/61/61 60/60/60
f 61/61/61 62/62/62 60/60/60
f 61/61/61 63/63/63 62/62/62
f 63/63/63 64/64/64 62/62/62
f 67/67/67 66/66/66 65/65/65
f 68/68/68 67/67/67 65/65/65
f 71/71/71 70/70/70 69/69/69
f 72/72/72 71/71/71 69/69/69
f 75/75/75 74/74/74 73/73/73
f 76/76/76 75/75/75 73/73/73
f 79/79/79 78/78/78 77/77/77
f 80/80/80 79/79/79 77/77/77
f 83/83/83 82/82/82 81/81/81
f 84/84/84 83/83/83 81/81/81
f 87/87/87 86/86/86 85/85/85
f 88/88/88 87/87/87 85/85/85
f 91/91/91 90/90/90 89/89/89
f 92/92/92 91/91/91 89/89/89
f 95/95/95 94/94/94 93/93/93
f 96/96/96 95/95/95 93/93/93
f 99/99/99 98/98/98 97/97/97
f 100/100/100 99/99/99 97/97/97
f 103/103/103 102/102/102 101/101/101
f 104/104/104 103/103/103 101/101/101
f 107/107/107 106/106/106 105/105/105
f 108/108/108 107/107/107 105/105/105
f 111/111/111 110/110/110 109/109/109
f 112/112/112 111/111/111 109/109/109
f 115/115/115 114/114/114 113/113/113
f 116/116/116 115/115/115 113/113/113
f 119/119/119 118/118/118 117/117/117
f 120/120/120 119/119/119 117/117/117
f 123/123/123 122/122/122 121/121/121
f 124/124/124 123/123/123 121/121/121
f 127/127/127 126/126/126 125/125/125
f 128/128/128 127/127/127 125/125/125
f 131/131/131 130/130/130 129/129/129
f 132/132/132 131/131/131 129/129/129
f 135/135/135 134/134/134 133/133/133
f 136/136/136 135/135/135 133/133/133
f 139/139/139 138/138/138 137/137/137
f 140/140/140 139/139/139 137/137/137
f 143/143/143 142/142/142 141/141/141
f 144/144/144 143/143/143 141/141/141
