g LogiPen_RGrip
v -0.009095059 -0.03825999 0.04812346
v 0.01493496 -0.03826002 0.04812346
v 0.01493496 -0.03826002 -0.04812401
v -0.009095059 -0.03825999 -0.04812401
v -0.009095029 -0.03534999 0.06276361
v 0.01493499 -0.03535 0.06276361
v 0.01493499 -0.03535 -0.062774
v -0.009095029 -0.03534999 -0.062774
v 0.01493499 -0.02706 -0.07518398
v -0.009094999 -0.02706001 -0.07518398
v 0.014935 -0.01465 -0.08347397
v -0.009094999 -0.01464999 -0.08347397
v 0.01493499 -1.629815E-08 -0.0863839
v -0.009095029 -1.629815E-08 -0.0863839
v 0.01493503 0.01463998 -0.08347397
v -0.009094999 0.01463997 -0.08347397
v 0.01493499 0.02704997 -0.07518398
v -0.009094984 0.02704997 -0.07518398
v 0.01493499 0.03533999 -0.062774
v -0.009094969 0.03533998 -0.062774
v 0.01493497 0.03826002 -0.04812401
v -0.009094984 0.03826 -0.04812401
v 0.01493497 0.03826002 0.04812352
v -0.009094984 0.03826 0.04812352
v 0.01493499 0.03533999 0.06276361
v -0.009094969 0.03533998 0.06276361
v 0.01493499 0.02704997 0.07518397
v -0.009094984 0.02704997 0.07518397
v 0.01493503 0.01463998 0.08347402
v -0.009094999 0.01463997 0.08347402
v 0.01493499 -1.629815E-08 0.08638392
v -0.009095029 -1.629815E-08 0.08638392
v 0.014935 -0.01465 0.08347393
v -0.009094999 -0.01464999 0.08347393
v 0.01493499 -0.02706 0.07518391
v -0.009094999 -0.02706001 0.07518391
v -0.009095029 -0.03534999 0.06276361
v -0.01182495 0.03356998 0.06045363
v -0.01182495 0.03633997 0.04654352
v -0.01379497 0.0315 0.05774365
v -0.01379496 0.03408997 0.04469339
v -0.011825 0.01389996 0.08012394
v -0.011825 0.02568998 0.07224385
v -0.01182501 -0.01391002 0.08012394
v -0.01182501 -0.02570002 0.07224373
v -0.009094999 -0.02706001 0.07518391
v -0.01182501 -1.629815E-08 0.08288393
v -0.01182501 -0.03358001 0.06045357
v -0.009095029 -0.03534999 0.06276361
v -0.01182503 -0.03634998 0.04654352
v -0.01182503 -0.03634998 -0.04654395
v -0.01182501 -0.03358001 -0.06045394
v -0.01182501 -0.02570002 -0.07224398
v -0.01182501 -0.01391002 -0.08012395
v -0.01182501 -1.629815E-08 -0.08289387
v -0.011825 0.01389996 -0.08012395
v -0.011825 0.02568998 -0.07224398
v -0.01182495 0.03356998 -0.06045394
v -0.01182495 0.03633997 -0.04654395
v -0.01379497 0.01303997 -0.07619398
v -0.01379503 -1.629815E-08 -0.07879394
v -0.013795 -0.01305001 -0.07619398
v -0.01493503 -1.629815E-08 -0.07483398
v -0.01493502 -0.01222002 -0.07240396
v -0.01379496 0.03408997 -0.04469388
v -0.01379497 0.0315 -0.05774396
v -0.013795 0.02410995 -0.06880396
v -0.01493499 0.03192998 0.04290334
v -0.01493499 0.03192998 -0.04290395
v -0.013795 -0.02412 -0.06880396
v -0.01379503 -0.03151001 -0.05774396
v -0.01379503 -0.03410002 -0.04469385
v -0.01379503 -0.03410002 0.04469327
v -0.01379503 -0.03151001 0.05774365
v -0.013795 -0.02412 0.06880376
v -0.013795 -0.01305001 0.07619397
v -0.01379503 -1.629815E-08 0.07879392
v -0.01379497 0.01303997 0.07619397
v -0.013795 0.02410995 0.06880382
v -0.01493505 -0.02951 0.0551236
v -0.01493499 -0.02258001 0.06548361
v -0.01493502 -0.01222002 0.07240377
v -0.01493503 -1.629815E-08 0.07483397
v -0.01493502 0.01222002 0.07240377
v -0.01493497 0.02257995 0.06548361
v -0.01493499 0.02950001 0.05512366
v -0.01493499 -0.02203001 0.06427381
v -0.01493502 -0.01192002 0.07102392
v -0.01493503 -1.629815E-08 0.07339398
v -0.01493502 0.01191002 0.07102392
v -0.01493499 0.02201994 0.06427381
v -0.01493497 0.02876998 0.05417363
v -0.01493497 0.03114001 0.04225335
v -0.01493502 -0.02878 0.05417363
v -0.01493497 0.03114001 -0.04225396
v -0.01493499 0.02950001 -0.05512398
v -0.01493497 0.02257995 -0.06548398
v -0.01493502 0.01222002 -0.07240396
v -0.01493497 0.02876998 -0.05417394
v -0.01493499 0.02201994 -0.06427395
v -0.01493502 0.01191002 -0.07103395
v -0.01493503 -1.629815E-08 -0.07340395
v -0.01493502 -0.01192002 -0.07103395
v -0.01493499 -0.02258001 -0.06548398
v -0.01493499 -0.02203001 -0.06427395
v -0.01493505 -0.02951 -0.05512398
v -0.01493503 -0.03194001 -0.04290395
v -0.01493503 -0.03194001 0.04290334
v -0.01493502 -0.02878 -0.05417394
v -0.01401499 -0.02112001 -0.06231391
v -0.01401499 -0.02759003 -0.05262398
v -0.01493502 -0.03115004 -0.04225396
v -0.01493502 -0.03115004 0.04225329
v -0.01401503 -0.02987001 -0.0411939
v -0.012565 -0.02071 -0.04363399
v -0.01256502 -0.02241999 -0.03505396
v -0.01401503 -0.02987001 0.04119328
v -0.01401499 -0.02759003 0.05262361
v -0.01401499 -0.02112001 0.06230364
v -0.01401502 -0.01143002 0.0687838
v -0.01401503 -1.629815E-08 0.07105396
v -0.01401499 0.01141996 0.0687838
v -0.01401498 0.02110996 0.06230364
v -0.01401498 0.02758 0.05262361
v -0.01401499 0.02985999 0.04119328
v -0.01401499 0.02985999 -0.0411939
v -0.01401498 0.02758 -0.05262398
v -0.01401498 0.02110996 -0.06231391
v -0.01401499 0.01141996 -0.06878393
v -0.01401503 -1.629815E-08 -0.07105397
v -0.01401502 -0.01143002 -0.06878393
v -0.012565 0.02240998 -0.03505396
v -0.012565 0.02069997 -0.04363399
v -0.01193501 0.01262001 -0.02696388
v -0.011935 0.01164996 -0.03179394
v -0.01256502 0.01585 -0.05090397
v -0.012565 0.008570014 -0.05576395
v -0.01256502 -1.629815E-08 -0.05746388
v -0.01256502 -0.008580022 -0.05576395
v -0.012565 -0.01585001 -0.05090397
v -0.01193501 0.01262001 0.02696339
v -0.011935 0.01164996 0.03179333
v -0.011935 0.008919967 -0.03589397
v -0.011935 0.008919967 0.03588334
v -0.011935 0.004819987 -0.03862398
v -0.011935 0.004819987 0.03862325
v -0.01193501 -1.629815E-08 -0.03958397
v -0.01193501 -1.629815E-08 0.0395833
v -0.01193501 -0.004830014 -0.03862398
v -0.01193501 -0.004830014 0.03862325
v -0.011935 -0.008930013 -0.03589397
v -0.011935 -0.008930013 0.03588334
v -0.011935 -0.01166001 -0.03179394
v -0.011935 -0.01166001 0.03179333
v -0.01193501 -0.01262002 -0.02696388
v -0.01193501 -0.01262002 0.02696339
v -0.01256502 0.01585 0.05089364
v -0.012565 0.008570014 0.05575369
v -0.01256502 -1.629815E-08 0.05746368
v -0.012565 0.02069997 0.04362331
v -0.012565 0.02240998 0.0350434
v -0.01256502 -0.008580022 0.05575369
v -0.012565 -0.01585001 0.05089364
v -0.012565 -0.02071 0.04362331
v -0.01256502 -0.02241999 0.0350434
vt 0.8985822 0.06923699
vt 0.8985822 0.06923699
vt 0.8989116 0.2115948
vt 0.8989115 0.2115948
vt 0.8931603 0.047591
vt 0.8931602 0.047591
vt 0.8935899 0.2332714
vt 0.8935899 0.2332714
vt 0.8783289 0.2516496
vt 0.8783289 0.2516495
vt 0.8554484 0.2639452
vt 0.8554484 0.2639452
vt 0.8284144 0.2682894
vt 0.8284144 0.2682894
vt 0.801379 0.2640255
vt 0.8013791 0.2640255
vt 0.7784418 0.2517979
vt 0.7784418 0.2517979
vt 0.7630959 0.2334653
vt 0.7630959 0.2334653
vt 0.7576554 0.2118047
vt 0.7576555 0.2118047
vt 0.757326 0.06944677
vt 0.7573261 0.06944677
vt 0.7626663 0.04778486
vt 0.7626663 0.04778486
vt 0.7779272 0.02939141
vt 0.7779272 0.02939141
vt 0.8008076 0.01709574
vt 0.8008077 0.01709574
vt 0.8278231 0.01275162
vt 0.8278231 0.01275162
vt 0.854877 0.01701552
vt 0.854877 0.01701552
vt 0.8778143 0.0292431
vt 0.8778143 0.0292431
vt 0.8931603 0.047591
vt 0.7659416 0.05119663
vt 0.7608758 0.07177848
vt 0.7697721 0.05519935
vt 0.7650356 0.07450879
vt 0.8021852 0.02204877
vt 0.7804478 0.03373632
vt 0.8535225 0.02197246
vt 0.8753138 0.03359565
vt 0.8778143 0.0292431
vt 0.8278351 0.01792833
vt 0.8899006 0.05101261
vt 0.8931603 0.047591
vt 0.8950617 0.07157911
vt 0.8953801 0.209263
vt 0.8903143 0.2298446
vt 0.8758083 0.2473047
vt 0.8540709 0.2589922
vt 0.8284024 0.2631273
vt 0.8027337 0.2590685
vt 0.7809423 0.2474456
vt 0.7663554 0.2300288
vt 0.7611943 0.2094624
vt 0.8043077 0.2532534
vt 0.8283885 0.2570631
vt 0.8524699 0.2531818
vt 0.828375 0.251206
vt 0.8509247 0.2475784
vt 0.7653416 0.2067198
vt 0.7701674 0.2260149
vt 0.7838473 0.2423532
vt 0.7690289 0.07715046
vt 0.7693228 0.2040665
vt 0.8728798 0.242221
vt 0.886484 0.2258421
vt 0.8912205 0.2065329
vt 0.8909144 0.07432197
vt 0.8860885 0.0550265
vt 0.8724089 0.03868793
vt 0.8519483 0.02778752
vt 0.8278491 0.02397785
vt 0.8037862 0.02785912
vt 0.7833763 0.03882015
vt 0.8824056 0.05890723
vt 0.8695773 0.04360291
vt 0.8504291 0.03339586
vt 0.8278626 0.0298349
vt 0.8053128 0.03346294
vt 0.786212 0.04372677
vt 0.7734731 0.05906895
vt 0.8685662 0.04539381
vt 0.84988 0.0354376
vt 0.8278676 0.03196475
vt 0.8058898 0.03550294
vt 0.78725 0.04551458
vt 0.7748239 0.06047216
vt 0.7704896 0.07810971
vt 0.8810611 0.06031434
vt 0.7707789 0.2031029
vt 0.7738503 0.2221343
vt 0.7866603 0.2374386
vt 0.8058084 0.2476454
vt 0.7751948 0.2207271
vt 0.7876899 0.2356473
vt 0.806376 0.2456181
vt 0.8283701 0.2490909
vt 0.8503663 0.2455528
vt 0.8700256 0.2373148
vt 0.8690062 0.2355265
vt 0.8827831 0.2219724
vt 0.8872269 0.2038914
vt 0.8869332 0.07697529
vt 0.8814321 0.2205692
vt 0.8673197 0.2326299
vt 0.8792301 0.21828
vt 0.8857665 0.2029321
vt 0.8854772 0.07793896
vt 0.8833997 0.2013678
vt 0.8664988 0.205002
vt 0.869626 0.1923067
vt 0.883118 0.07951029
vt 0.8788698 0.06261022
vt 0.8668932 0.0483103
vt 0.8489832 0.03875231
vt 0.8278757 0.0354258
vt 0.806802 0.03881499
vt 0.7889364 0.04842612
vt 0.7770259 0.06276157
vt 0.7728562 0.07967412
vt 0.7731382 0.2015316
vt 0.7773862 0.2184313
vt 0.7893631 0.2327457
vt 0.8072729 0.2422889
vt 0.828362 0.2456151
vt 0.849454 0.2422262
vt 0.7868699 0.1924296
vt 0.7900559 0.2051155
vt 0.8049145 0.1804369
vt 0.8067217 0.1875783
vt 0.7990339 0.215855
vt 0.8124894 0.2230235
vt 0.8283155 0.2255142
vt 0.8441484 0.2229764
vt 0.8575522 0.2157681
vt 0.8047298 0.100674
vt 0.8065039 0.09352753
vt 0.8117754 0.1936351
vt 0.8115297 0.0874705
vt 0.8193533 0.1976617
vt 0.8190889 0.0834067
vt 0.8282543 0.1990683
vt 0.8279834 0.08197348
vt 0.8371671 0.1976353
vt 0.836903 0.08338025
vt 0.8447263 0.1935861
vt 0.8444808 0.08742157
vt 0.8497519 0.1875144
vt 0.8495343 0.0934636
vt 0.8515075 0.1803677
vt 0.8513232 0.1006048
vt 0.7986855 0.06528804
vt 0.8121076 0.05807966
vt 0.8279221 0.05552691
vt 0.7897573 0.07605481
vt 0.78663 0.08874986
vt 0.8437668 0.05803263
vt 0.8572037 0.06520112
vt 0.8662002 0.07594125
vt 0.8693862 0.08862691
vn 0 -1 0
vn 0 -1 0
vn 0 -1 0
vn 0 -1 0
vn 0 -0.9808123 0.1949547
vn 0 -0.9808123 0.1949547
vn 0 -0.8315344 -0.5554732
vn 0 -0.8315344 -0.5554732
vn 0 -0.5554711 -0.8315358
vn 0 -0.5554711 -0.8315358
vn 0 -0.1948246 -0.9808381
vn 0 -0.1948246 -0.9808381
vn 0 -0.1948246 -0.9808381
vn 0 -0.1948246 -0.9808381
vn 0 0.5554716 -0.8315355
vn 0 0.5554716 -0.8315355
vn 0 0.8315338 -0.5554742
vn 0 0.8315338 -0.5554742
vn 0 0.9807088 -0.195474
vn 0 0.9807088 -0.195474
vn 0 0.9807088 -0.195474
vn 0 0.9807088 -0.195474
vn 0 0.9806835 0.1956013
vn 0 0.9806835 0.1956013
vn 0 0.8317476 0.5551538
vn 0 0.8317476 0.5551538
vn 0 0.5554751 0.8315331
vn 0 0.5554751 0.8315331
vn 0 0.19495 0.9808132
vn 0 0.19495 0.9808132
vn 0 -0.194827 0.9808376
vn 0 -0.194827 0.9808376
vn 0 -0.5554744 0.8315337
vn 0 -0.5554744 0.8315337
vn 0 -0.8317469 0.555155
vn 0 -0.8317469 0.555155
vn 0 -0.9808123 0.1949547
vn -0.7928665 0.5976979 0.1188273
vn -0.7928665 0.5976979 0.1188273
vn -0.7928665 0.5976979 0.1188273
vn -0.7928665 0.5976979 0.1188273
vn -0.7606072 0.360687 0.5397977
vn -0.7606072 0.360687 0.5397977
vn -0.7606029 -0.3606907 0.5398013
vn -0.7606029 -0.3606907 0.5398013
vn 0 -0.8317469 0.555155
vn -0.7825556 -0.1212345 0.6106628
vn -0.6247267 -0.7658343 0.1523621
vn 0 -0.9808123 0.1949547
vn -0.6247267 -0.7658343 0.1523621
vn -0.5732678 -0.819368 0
vn -0.711266 -0.5844589 -0.3905232
vn -0.711266 -0.5844589 -0.3905232
vn -0.7821174 -0.1215457 -0.6111619
vn -0.7821174 -0.1215457 -0.6111619
vn -0.7605988 0.3606883 -0.5398086
vn -0.7605988 0.3606883 -0.5398086
vn -0.6258256 0.7649297 -0.1523973
vn -0.6258256 0.7649297 -0.1523973
vn -0.8980374 0.08599907 -0.4314312
vn -0.9594727 -0.05501571 -0.2763794
vn -0.9594727 -0.05501571 -0.2763794
vn -0.9594727 -0.05501571 -0.2763794
vn -0.9594727 -0.05501571 -0.2763794
vn -0.7523689 0.6587421 0
vn -0.7928674 0.5976965 -0.1188286
vn -0.8534422 0.433333 -0.289584
vn -0.8843778 0.4667717 0
vn -0.8843778 0.4667717 0
vn -0.8848625 -0.2587601 -0.3873778
vn -0.8534437 -0.4333303 -0.2895838
vn -0.792863 -0.5977019 -0.1188305
vn -0.7928656 -0.5976987 0.118829
vn -0.7928656 -0.5976987 0.118829
vn -0.8534424 -0.433333 0.2895833
vn -0.8848608 -0.2587674 0.387377
vn -0.8978361 -0.08586351 0.4318771
vn -0.8978319 0.085928 0.4318729
vn -0.8848621 0.2587628 0.3873768
vn -0.9393409 -0.2851344 0.190623
vn -0.9393409 -0.2851344 0.190623
vn -0.953693 -0.1670361 0.2501374
vn -0.9594742 -0.05501721 0.2763738
vn -0.9594536 0.05505171 0.276438
vn -0.9535607 0.1672691 0.2504855
vn -0.9391769 0.2855693 0.1907796
vn -1 0 0
vn -1 0 0
vn -1 0 0
vn -1 0 0
vn -1 0 0
vn -1 0 0
vn -1 -1.639707E-05 0
vn -1 4.919202E-05 0
vn -1 -1.639747E-05 0
vn -0.9079398 0.4110685 -0.08165894
vn -0.939176 0.2855716 -0.1907812
vn -0.9535566 0.1672738 -0.2504981
vn -1 -1.639747E-05 0
vn -1 0 0
vn -1 0 0
vn -1 0 0
vn -1 0 0
vn -1 0 0
vn -1 0 0
vn -0.9393395 -0.2851361 -0.190627
vn -0.9079435 -0.4110603 -0.08165819
vn -0.8843862 -0.4667556 0
vn -0.8951919 0.3705986 0.2475643
vn -0.8951919 0.3705986 0.2475643
vn -0.8951919 0.3705986 0.2475643
vn -1 1.639761E-05 0
vn -1 2.163165E-05 0
vn -0.9857793 0.1648016 0.03285843
vn -0.9857793 0.1648016 0.03285843
vn -0.9857793 0.1648016 0.03285843
vn -0.8120285 0.5836178 0
vn -0.8470391 0.521295 -0.1038086
vn -0.8954855 0.370052 -0.2473201
vn -0.9281373 0.07255169 -0.365099
vn -0.9281373 0.07255169 -0.365099
vn -0.9281358 -0.07261232 -0.3650911
vn -0.9186468 -0.2194997 -0.3284936
vn -0.8954862 -0.3700486 -0.2473225
vn -0.8470418 -0.5212905 -0.103809
vn -0.8470434 -0.5212874 0.1038118
vn -0.8470434 -0.5212874 0.1038118
vn -0.8951929 -0.370596 0.2475646
vn -0.9186426 -0.2194983 0.3285062
vn -0.9286767 -0.07234573 0.3637662
vn -0.9286793 0.07228625 0.363771
vn -0.998419 -0.05511953 0.01101466
vn -0.998419 -0.05511953 0.01101466
vn -0.998419 -0.05511953 0.01101466
vn -0.998419 -0.05511953 0.01101466
vn -0.990962 -0.111572 0.07447175
vn -0.9932439 -0.06443751 0.096512
vn -0.9941338 -0.02106496 0.1060865
vn -0.994134 0.02104711 0.1060882
vn -0.9932458 0.06445216 0.09648208
vn -1 0 0
vn -1 0 0
vn -1 0 0
vn -1 0 0
vn -1 0 0
vn -1 0 0
vn -1 0 0
vn -1 0 0
vn -1 0 0
vn -1 0 0
vn -1 0 0
vn -1 0 0
vn -1 0 0
vn -1 0 0
vn -1 0 0
vn -1 0 0
vn -0.9932468 -0.06446255 -0.09646407
vn -0.9941376 -0.02111075 -0.1060407
vn -0.9941376 -0.02111075 -0.1060407
vn -0.9909688 -0.1115109 -0.07447227
vn -0.9857862 -0.1647618 -0.03285202
vn -0.9932488 0.06447702 -0.09643389
vn -0.9909787 0.1114203 -0.07447574
vn -0.9857855 0.1647655 -0.03285082
vn -0.981581 0.1910462 0
g LogiPen_RGrip_0
f 3/3/3 2/2/2 1/1/1
f 4/4/4 3/3/3 1/1/1
f 5/5/5 1/1/1 2/2/2
f 6/6/6 5/5/5 2/2/2
f 3/3/3 4/4/4 7/7/7
f 4/4/4 8/8/8 7/7/7
f 7/7/7 8/8/8 9/9/9
f 8/8/8 10/10/10 9/9/9
f 9/9/9 10/10/10 11/11/11
f 10/10/10 12/12/12 11/11/11
f 11/11/11 12/12/12 13/13/13
f 12/12/12 14/14/14 13/13/13
f 13/13/13 14/14/14 15/15/15
f 14/14/14 16/16/16 15/15/15
f 15/15/15 16/16/16 17/17/17
f 16/16/16 18/18/18 17/17/17
f 17/17/17 18/18/18 19/19/19
f 18/18/18 20/20/20 19/19/19
f 19/19/19 20/20/20 21/21/21
f 20/20/20 22/22/22 21/21/21
f 21/21/21 22/22/22 23/23/23
f 22/22/22 24/24/24 23/23/23
f 23/23/23 24/24/24 25/25/25
f 24/24/24 26/26/26 25/25/25
f 25/25/25 26/26/26 27/27/27
f 26/26/26 28/28/28 27/27/27
f 27/27/27 28/28/28 29/29/29
f 28/28/28 30/30/30 29/29/29
f 29/29/29 30/30/30 31/31/31
f 30/30/30 32/32/32 31/31/31
f 31/31/31 32/32/32 33/33/33
f 32/32/32 34/34/34 33/33/33
f 33/33/33 34/34/34 35/35/35
f 34/34/34 36/36/36 35/35/35
f 35/35/35 36/36/36 6/6/6
f 36/36/36 37/37/37 6/6/6
f 38/38/38 26/26/26 24/24/24
f 39/39/39 38/38/38 24/24/24
f 40/40/40 38/38/38 39/39/39
f 41/41/41 40/40/40 39/39/39
f 42/42/42 30/30/30 28/28/28
f 43/43/43 42/42/42 28/28/28
f 44/44/44 34/34/34 32/32/32
f 44/44/44 45/45/45 34/34/34
f 45/45/45 46/46/46 34/34/34
f 47/47/47 44/44/44 32/32/32
f 45/45/45 48/48/48 46/46/46
f 48/48/48 49/49/49 46/46/46
f 48/48/48 50/50/50 49/49/49
f 50/50/50 1/1/1 49/49/49
f 38/38/38 43/43/43 26/26/26
f 43/43/43 28/28/28 26/26/26
f 50/50/50 51/51/51 1/1/1
f 51/51/51 4/4/4 1/1/1
f 51/51/51 52/52/52 4/4/4
f 52/52/52 8/8/8 4/4/4
f 52/52/52 53/53/53 8/8/8
f 53/53/53 10/10/10 8/8/8
f 53/53/53 54/54/54 10/10/10
f 54/54/54 12/12/12 10/10/10
f 54/54/54 55/55/55 12/12/12
f 55/55/55 14/14/14 12/12/12
f 55/55/55 56/56/56 14/14/14
f 56/56/56 16/16/16 14/14/14
f 56/56/56 57/57/57 16/16/16
f 57/57/57 18/18/18 16/16/16
f 57/57/57 58/58/58 18/18/18
f 58/58/58 20/20/20 18/18/18
f 58/58/58 59/59/59 20/20/20
f 59/59/59 22/22/22 20/20/20
f 59/59/59 39/39/39 22/22/22
f 39/39/39 24/24/24 22/22/22
f 60/60/60 56/56/56 55/55/55
f 61/61/61 60/60/60 55/55/55
f 61/61/61 55/55/55 54/54/54
f 62/62/62 61/61/61 54/54/54
f 63/63/63 61/61/61 62/62/62
f 64/64/64 63/63/63 62/62/62
f 41/41/41 39/39/39 59/59/59
f 65/65/65 41/41/41 59/59/59
f 65/65/65 59/59/59 58/58/58
f 66/66/66 65/65/65 58/58/58
f 66/66/66 58/58/58 57/57/57
f 67/67/67 66/66/66 57/57/57
f 60/60/60 67/67/67 56/56/56
f 67/67/67 57/57/57 56/56/56
f 68/68/68 41/41/41 65/65/65
f 69/69/69 68/68/68 65/65/65
f 69/69/69 65/65/65 66/66/66
f 64/64/64 62/62/62 70/70/70
f 70/70/70 62/62/62 53/53/53
f 62/62/62 54/54/54 53/53/53
f 70/70/70 53/53/53 52/52/52
f 71/71/71 70/70/70 52/52/52
f 71/71/71 52/52/52 51/51/51
f 72/72/72 71/71/71 51/51/51
f 72/72/72 51/51/51 50/50/50
f 73/73/73 72/72/72 50/50/50
f 73/73/73 50/50/50 48/48/48
f 74/74/74 73/73/73 48/48/48
f 74/74/74 48/48/48 45/45/45
f 75/75/75 74/74/74 45/45/45
f 75/75/75 45/45/45 44/44/44
f 76/76/76 75/75/75 44/44/44
f 76/76/76 44/44/44 47/47/47
f 77/77/77 76/76/76 47/47/47
f 77/77/77 47/47/47 42/42/42
f 42/42/42 47/47/47 30/30/30
f 47/47/47 32/32/32 30/30/30
f 78/78/78 77/77/77 42/42/42
f 78/78/78 42/42/42 43/43/43
f 79/79/79 78/78/78 43/43/43
f 79/79/79 43/43/43 38/38/38
f 40/40/40 79/79/79 38/38/38
f 80/80/80 74/74/74 75/75/75
f 81/81/81 80/80/80 75/75/75
f 81/81/81 75/75/75 76/76/76
f 82/82/82 81/81/81 76/76/76
f 82/82/82 76/76/76 77/77/77
f 83/83/83 82/82/82 77/77/77
f 83/83/83 77/77/77 78/78/78
f 84/84/84 83/83/83 78/78/78
f 84/84/84 78/78/78 79/79/79
f 85/85/85 84/84/84 79/79/79
f 85/85/85 79/79/79 40/40/40
f 86/86/86 85/85/85 40/40/40
f 86/86/86 40/40/40 41/41/41
f 68/68/68 86/86/86 41/41/41
f 87/87/87 81/81/81 82/82/82
f 88/88/88 87/87/87 82/82/82
f 88/88/88 82/82/82 83/83/83
f 89/89/89 88/88/88 83/83/83
f 89/89/89 83/83/83 84/84/84
f 90/90/90 89/89/89 84/84/84
f 90/90/90 84/84/84 85/85/85
f 91/91/91 90/90/90 85/85/85
f 91/91/91 85/85/85 86/86/86
f 92/92/92 91/91/91 86/86/86
f 92/92/92 86/86/86 68/68/68
f 93/93/93 92/92/92 68/68/68
f 94/94/94 80/80/80 81/81/81
f 87/87/87 94/94/94 81/81/81
f 93/93/93 68/68/68 69/69/69
f 95/95/95 93/93/93 69/69/69
f 95/95/95 69/69/69 96/96/96
f 96/96/96 69/69/69 66/66/66
f 96/96/96 66/66/66 67/67/67
f 97/97/97 96/96/96 67/67/67
f 97/97/97 67/67/67 60/60/60
f 98/98/98 97/97/97 60/60/60
f 98/98/98 60/60/60 61/61/61
f 63/63/63 98/98/98 61/61/61
f 99/99/99 95/95/95 96/96/96
f 99/99/99 96/96/96 97/97/97
f 100/100/100 99/99/99 97/97/97
f 100/100/100 97/97/97 98/98/98
f 101/101/101 100/100/100 98/98/98
f 101/101/101 98/98/98 63/63/63
f 102/102/102 101/101/101 63/63/63
f 102/102/102 63/63/63 64/64/64
f 103/103/103 102/102/102 64/64/64
f 103/103/103 64/64/64 104/104/104
f 105/105/105 103/103/103 104/104/104
f 104/104/104 64/64/64 70/70/70
f 104/104/104 70/70/70 71/71/71
f 106/106/106 104/104/104 71/71/71
f 105/105/105 104/104/104 106/106/106
f 106/106/106 71/71/71 72/72/72
f 107/107/107 106/106/106 72/72/72
f 107/107/107 72/72/72 73/73/73
f 108/108/108 107/107/107 73/73/73
f 108/108/108 73/73/73 74/74/74
f 80/80/80 108/108/108 74/74/74
f 109/109/109 105/105/105 106/106/106
f 109/109/109 106/106/106 107/107/107
f 110/110/110 105/105/105 109/109/109
f 111/111/111 110/110/110 109/109/109
f 112/112/112 109/109/109 107/107/107
f 112/112/112 107/107/107 108/108/108
f 111/111/111 109/109/109 112/112/112
f 113/113/113 112/112/112 108/108/108
f 113/113/113 108/108/108 80/80/80
f 94/94/94 113/113/113 80/80/80
f 114/114/114 111/111/111 112/112/112
f 114/114/114 112/112/112 113/113/113
f 115/115/115 111/111/111 114/114/114
f 116/116/116 115/115/115 114/114/114
f 117/117/117 114/114/114 113/113/113
f 117/117/117 113/113/113 94/94/94
f 116/116/116 114/114/114 117/117/117
f 118/118/118 117/117/117 94/94/94
f 118/118/118 94/94/94 87/87/87
f 119/119/119 118/118/118 87/87/87
f 119/119/119 87/87/87 88/88/88
f 120/120/120 119/119/119 88/88/88
f 120/120/120 88/88/88 89/89/89
f 121/121/121 120/120/120 89/89/89
f 121/121/121 89/89/89 90/90/90
f 122/122/122 121/121/121 90/90/90
f 122/122/122 90/90/90 91/91/91
f 123/123/123 122/122/122 91/91/91
f 123/123/123 91/91/91 92/92/92
f 124/124/124 123/123/123 92/92/92
f 124/124/124 92/92/92 93/93/93
f 125/125/125 124/124/124 93/93/93
f 125/125/125 93/93/93 95/95/95
f 126/126/126 125/125/125 95/95/95
f 126/126/126 95/95/95 99/99/99
f 127/127/127 126/126/126 99/99/99
f 127/127/127 99/99/99 100/100/100
f 128/128/128 127/127/127 100/100/100
f 128/128/128 100/100/100 101/101/101
f 129/129/129 128/128/128 101/101/101
f 129/129/129 101/101/101 102/102/102
f 130/130/130 129/129/129 102/102/102
f 130/130/130 102/102/102 103/103/103
f 131/131/131 130/130/130 103/103/103
f 131/131/131 103/103/103 105/105/105
f 110/110/110 131/131/131 105/105/105
f 132/132/132 126/126/126 127/127/127
f 133/133/133 132/132/132 127/127/127
f 133/133/133 127/127/127 128/128/128
f 134/134/134 132/132/132 133/133/133
f 135/135/135 134/134/134 133/133/133
f 136/136/136 133/133/133 128/128/128
f 136/136/136 128/128/128 129/129/129
f 135/135/135 133/133/133 136/136/136
f 137/137/137 136/136/136 129/129/129
f 137/137/137 129/129/129 130/130/130
f 138/138/138 137/137/137 130/130/130
f 138/138/138 130/130/130 131/131/131
f 139/139/139 138/138/138 131/131/131
f 139/139/139 131/131/131 110/110/110
f 140/140/140 139/139/139 110/110/110
f 140/140/140 110/110/110 111/111/111
f 115/115/115 140/140/140 111/111/111
f 141/141/141 134/134/134 135/135/135
f 134/134/134 141/141/141 132/132/132
f 142/142/142 141/141/141 135/135/135
f 142/142/142 135/135/135 143/143/143
f 143/143/143 135/135/135 136/136/136
f 143/143/143 136/136/136 137/137/137
f 144/144/144 142/142/142 143/143/143
f 144/144/144 143/143/143 145/145/145
f 145/145/145 143/143/143 137/137/137
f 145/145/145 137/137/137 138/138/138
f 146/146/146 144/144/144 145/145/145
f 146/146/146 145/145/145 147/147/147
f 147/147/147 145/145/145 138/138/138
f 147/147/147 138/138/138 139/139/139
f 148/148/148 146/146/146 147/147/147
f 148/148/148 147/147/147 149/149/149
f 149/149/149 147/147/147 139/139/139
f 149/149/149 139/139/139 140/140/140
f 150/150/150 148/148/148 149/149/149
f 150/150/150 149/149/149 151/151/151
f 151/151/151 149/149/149 140/140/140
f 151/151/151 140/140/140 115/115/115
f 152/152/152 150/150/150 151/151/151
f 152/152/152 151/151/151 153/153/153
f 153/153/153 151/151/151 115/115/115
f 154/154/154 152/152/152 153/153/153
f 154/154/154 153/153/153 155/155/155
f 155/155/155 156/156/156 154/154/154
f 144/144/144 146/146/146 157/157/157
f 146/146/146 158/158/158 157/157/157
f 146/146/146 148/148/148 158/158/158
f 157/157/157 158/158/158 123/123/123
f 158/158/158 122/122/122 123/123/123
f 158/158/158 159/159/159 122/122/122
f 148/148/148 150/150/150 159/159/159
f 148/148/148 159/159/159 158/158/158
f 159/159/159 121/121/121 122/122/122
f 157/157/157 123/123/123 124/124/124
f 160/160/160 157/157/157 124/124/124
f 160/160/160 124/124/124 125/125/125
f 161/161/161 160/160/160 125/125/125
f 161/161/161 125/125/125 126/126/126
f 132/132/132 161/161/161 126/126/126
f 159/159/159 162/162/162 121/121/121
f 162/162/162 120/120/120 121/121/121
f 162/162/162 163/163/163 120/120/120
f 163/163/163 119/119/119 120/120/120
f 163/163/163 164/164/164 119/119/119
f 164/164/164 118/118/118 119/119/119
f 164/164/164 165/165/165 118/118/118
f 165/165/165 117/117/117 118/118/118
f 165/165/165 116/116/116 117/117/117
f 155/155/155 116/116/116 165/165/165
f 156/156/156 155/155/155 165/165/165
f 156/156/156 165/165/165 164/164/164
f 142/142/142 160/160/160 161/161/161
f 141/141/141 142/142/142 161/161/161
f 141/141/141 161/161/161 132/132/132
f 154/154/154 156/156/156 164/164/164
f 154/154/154 164/164/164 163/163/163
f 152/152/152 154/154/154 163/163/163
f 152/152/152 163/163/163 162/162/162
f 150/150/150 152/152/152 162/162/162
f 150/150/150 162/162/162 159/159/159
f 155/155/155 153/153/153 116/116/116
f 153/153/153 115/115/115 116/116/116
f 142/142/142 144/144/144 160/160/160
f 144/144/144 157/157/157 160/160/160
