g LogiPen_TouchPadRing
v 0.1951687 0.0684045 -0.745362
v 0.3604964 0.0684045 -0.6598885
v 0.3423784 0.09570462 -0.6295764
v 0.1853107 0.09570462 -0.7108209
v 2.28174E-07 0.06840497 -0.7753646
v 2.28174E-07 0.09570462 -0.7392786
v 0.4473565 0.09570485 -0.5080154
v 0.4709364 0.06840497 -0.5318334
v 0.4842587 0.09570509 -0.364599
v 0.5097038 0.06840521 -0.3808892
v 0.4842587 0.09570509 0.3645985
v 0.5097038 0.06840521 0.3808892
v 0.4473565 0.09570485 0.5080159
v 0.4709364 0.06840497 0.5319364
v 0.3423784 0.09570462 0.629576
v 0.3604964 0.0684045 0.6598885
v -0.1950353 0.0684045 -0.7453625
v -0.1851768 0.09570438 -0.7108209
v -0.3603625 0.0684045 -0.659889
v -0.3422446 0.09570462 -0.6295764
v -0.4708029 0.06840426 -0.5318334
v -0.4472228 0.09570414 -0.5080168
v -0.5097039 0.0684045 -0.3808897
v -0.484125 0.09570414 -0.364599
v -0.4196463 0.1154044 -0.4800756
v -0.4541501 0.1154044 -0.345525
v -0.5097039 0.0684045 0.3808892
v -0.484125 0.09570414 0.3645985
v -0.4708029 0.06840426 0.5319364
v -0.4472228 0.09570414 0.5080159
v -0.3603625 0.0684045 0.6598885
v -0.3422446 0.09570462 0.629576
v -0.1950353 0.0684045 0.7453616
v -0.1851768 0.09570438 0.7108214
v 2.28174E-07 0.06840497 0.7753646
v 2.28174E-07 0.09570462 0.7393811
v 0.1951687 0.0684045 0.7453616
v 0.1853107 0.09570462 0.7108214
v -0.1737199 0.1154044 0.6703017
v 2.28174E-07 0.1154049 0.6971085
v 0.1738536 0.1154047 0.6703017
v 0.3213293 0.1154047 0.5941079
v 0.4197798 0.1154049 0.4800751
v 0.4542844 0.1154049 0.3455245
v 0.4542844 0.1154049 -0.3455245
v 0.4197798 0.1154049 -0.4800756
v 0.3213293 0.1154047 -0.5941083
v 0.1738536 0.1154047 -0.6703031
v 2.28174E-07 0.1154049 -0.697109
v -0.1737199 0.1154044 -0.6703031
v -0.3211953 0.1154047 -0.5941083
v -0.4541501 0.1154044 0.3455231
v -0.4196463 0.1154044 0.4800751
v -0.3211953 0.1154047 0.5941079
v 0.5097038 0.06840521 -0.3808892
v 0.5097039 -0.06830567 -0.3808897
v 0.5097039 -0.06830567 0.3808892
v 0.5097038 0.06840521 0.3808892
v 0.4709364 0.06840497 -0.5318334
v 0.4708697 -0.06830591 -0.5318334
v 0.5097039 -0.06830567 -0.3808897
v 0.5097038 0.06840521 -0.3808892
v 0.3604964 0.0684045 -0.6598885
v 0.3604295 -0.06830603 -0.659889
v 0.4708697 -0.06830591 -0.5318334
v 0.4709364 0.06840497 -0.5318334
v 0.1951687 0.0684045 -0.745362
v 0.195102 -0.06830615 -0.745362
v 0.3604295 -0.06830603 -0.659889
v 0.3604964 0.0684045 -0.6598885
v 2.28174E-07 0.06840497 -0.7753646
v 0 -0.06830615 -0.7753646
v 0.195102 -0.06830615 -0.745362
v 0.1951687 0.0684045 -0.745362
v -0.1950353 0.0684045 -0.7453625
v -0.1950353 -0.06820768 -0.7453625
v 0 -0.06830615 -0.7753646
v 2.28174E-07 0.06840497 -0.7753646
v -0.3603625 0.0684045 -0.659889
v -0.3603625 -0.06820792 -0.659889
v -0.1950353 -0.06820768 -0.7453625
v -0.1950353 0.0684045 -0.7453625
v -0.4708029 0.06840426 -0.5318334
v -0.4708697 -0.06830639 -0.5318334
v -0.3603625 -0.06820792 -0.659889
v -0.3603625 0.0684045 -0.659889
v -0.5097039 0.0684045 -0.3808897
v -0.5097039 -0.06830651 -0.3808897
v -0.4708697 -0.06830639 -0.5318334
v -0.4708029 0.06840426 -0.5318334
v 0.1951687 0.0684045 0.7453616
v 0.195102 -0.06830615 0.7453616
v 0 -0.06830615 0.7753646
v 2.28174E-07 0.06840497 0.7753646
v 0.3604964 0.0684045 0.6598885
v 0.3604295 -0.06830603 0.6598885
v 0.195102 -0.06830615 0.7453616
v 0.1951687 0.0684045 0.7453616
v 0.4709364 0.06840497 0.5319364
v 0.4708697 -0.06830591 0.5319364
v 0.3604295 -0.06830603 0.6598885
v 0.3604964 0.0684045 0.6598885
v 0.5097038 0.06840521 0.3808892
v 0.5097039 -0.06830567 0.3808892
v 0.4708697 -0.06830591 0.5319364
v 0.4709364 0.06840497 0.5319364
v -0.4708029 0.06840426 0.5319364
v -0.4708697 -0.06830639 0.5319364
v -0.5097039 -0.06830651 0.3808892
v -0.5097039 0.0684045 0.3808892
v -0.3603625 0.0684045 0.6598885
v -0.3604295 -0.06830615 0.6598885
v -0.4708697 -0.06830639 0.5319364
v -0.4708029 0.06840426 0.5319364
v -0.1950353 0.0684045 0.7453616
v -0.195102 -0.06830615 0.7453616
v -0.3604295 -0.06830615 0.6598885
v -0.3603625 0.0684045 0.6598885
v 2.28174E-07 0.06840497 0.7753646
v 0 -0.06830615 0.7753646
v -0.195102 -0.06830615 0.7453616
v -0.1950353 0.0684045 0.7453616
v -0.5097039 0.0684045 0.3808892
v -0.5097039 -0.06830651 0.3808892
v -0.5097039 -0.06830651 -0.3808897
v -0.5097039 0.0684045 -0.3808897
v -0.1951687 -0.0684045 -0.745362
v -0.3604964 -0.0684045 -0.6598885
v -0.3423784 -0.0957045 -0.6295764
v -0.1853107 -0.0957045 -0.7108209
v 0 -0.06830615 -0.7753646
v -2.28174E-07 -0.09570462 -0.7392786
v -0.4473565 -0.09570473 -0.5080154
v -0.4708697 -0.06830639 -0.5318334
v -0.4842587 -0.09570497 -0.364599
v -0.5097039 -0.06830651 -0.3808897
v -0.4842587 -0.09570497 0.3645985
v -0.5097039 -0.06830651 0.3808892
v -0.4473565 -0.09570473 0.5080159
v -0.4708697 -0.06830639 0.5319364
v -0.3423784 -0.0957045 0.629576
v -0.3604295 -0.06830615 0.6598885
v 0.195102 -0.06830615 -0.745362
v 0.1851768 -0.09570438 -0.7108209
v 0.3604295 -0.06830603 -0.659889
v 0.3422446 -0.0957045 -0.6295764
v 0.4708697 -0.06830591 -0.5318334
v 0.4472228 -0.09570402 -0.5080168
v 0.5097039 -0.06830567 -0.3808897
v 0.484125 -0.09570402 -0.364599
v 0.4196463 -0.1154043 -0.4800756
v 0.4541501 -0.1154043 -0.345525
v 0.5097039 -0.06830567 0.3808892
v 0.484125 -0.09570402 0.3645985
v 0.4708697 -0.06830591 0.5319364
v 0.4472228 -0.09570402 0.5080159
v 0.3604295 -0.06830603 0.6598885
v 0.3422446 -0.0957045 0.629576
v 0.195102 -0.06830615 0.7453616
v 0.1851768 -0.09570438 0.7108214
v 0 -0.06830615 0.7753646
v -2.28174E-07 -0.09570462 0.7393811
v -0.195102 -0.06830615 0.7453616
v -0.1853107 -0.0957045 0.7108214
v 0.1737199 -0.1154043 0.6703017
v -2.28174E-07 -0.1154049 0.6971085
v -0.1738536 -0.1154045 0.6703017
v -0.3213293 -0.1154045 0.5941079
v -0.4197798 -0.1154049 0.4800751
v -0.4542844 -0.1154049 0.3455245
v -0.4542844 -0.1154049 -0.3455245
v -0.4197798 -0.1154049 -0.4800756
v -0.3213293 -0.1154045 -0.5941083
v -0.1738536 -0.1154045 -0.6703031
v -2.28174E-07 -0.1154049 -0.697109
v 0.1737199 -0.1154043 -0.6703031
v 0.3211953 -0.1154045 -0.5941083
v 0.4541501 -0.1154043 0.3455231
v 0.4196463 -0.1154043 0.4800751
v 0.3211953 -0.1154045 0.5941079
vt 0.8862776 0.8424561
vt 0.8750859 0.821638
vt 0.8702826 0.8249619
vt 0.8807465 0.8442012
vt 0.8901522 0.8669004
vt 0.8844042 0.8668972
vt 0.8546878 0.8120227
vt 0.8583345 0.8075043
vt 0.8363945 0.8069379
vt 0.8385972 0.801667
vt 0.6177215 0.8068179
vt 0.6155235 0.8015389
vt 0.599428 0.8118799
vt 0.5957732 0.8073591
vt 0.5838251 0.8248027
vt 0.5790244 0.8214734
vt 0.8862599 0.8913245
vt 0.88073 0.8895731
vt 0.8750529 0.9121305
vt 0.870252 0.9088011
vt 0.8582904 0.9262461
vt 0.8546477 0.9217235
vt 0.8385489 0.9320742
vt 0.8363506 0.9267861
vt 0.8508364 0.9175851
vt 0.8338682 0.922047
vt 0.6154755 0.931946
vt 0.6176777 0.9266657
vt 0.5957313 0.9260986
vt 0.5993895 0.9215816
vt 0.5789939 0.9119691
vt 0.5837968 0.9086445
vt 0.5678023 0.8911519
vt 0.5733332 0.8894057
vt 0.5639259 0.866723
vt 0.5696638 0.8667256
vt 0.5678182 0.8422812
vt 0.573348 0.8440323
vt 0.5789883 0.8877494
vt 0.575555 0.8667284
vt 0.5790021 0.8456941
vt 0.5887473 0.8279034
vt 0.6032388 0.8160185
vt 0.6202036 0.811557
vt 0.8339078 0.8116717
vt 0.8508734 0.8161561
vt 0.8653578 0.8280569
vt 0.8750913 0.8458567
vt 0.8785247 0.8668938
vt 0.8750761 0.887911
vt 0.8653296 0.9057004
vt 0.620164 0.9219319
vt 0.6032035 0.917448
vt 0.5887212 0.9055488
vt 0.6373404 0.7575743
vt 0.6373404 0.976039
vt 0.8160396 0.976039
vt 0.8160396 0.7575743
vt 0.6373404 0.7575743
vt 0.6373404 0.976039
vt 0.8160396 0.976039
vt 0.8160396 0.7575743
vt 0.6373404 0.7575743
vt 0.6373404 0.976039
vt 0.8160396 0.976039
vt 0.8160396 0.7575743
vt 0.6373404 0.7575743
vt 0.6373404 0.976039
vt 0.8160396 0.976039
vt 0.8160396 0.7575743
vt 0.6373404 0.7575743
vt 0.6373404 0.976039
vt 0.8160396 0.976039
vt 0.8160396 0.7575743
vt 0.6373404 0.7575743
vt 0.6373404 0.976039
vt 0.8160396 0.976039
vt 0.8160396 0.7575743
vt 0.6373404 0.7575743
vt 0.6373404 0.976039
vt 0.8160396 0.976039
vt 0.8160396 0.7575743
vt 0.6373404 0.7575743
vt 0.6373404 0.976039
vt 0.8160396 0.976039
vt 0.8160396 0.7575743
vt 0.6373404 0.7575743
vt 0.6373404 0.976039
vt 0.8160396 0.976039
vt 0.8160396 0.7575743
vt 0.6373404 0.7575743
vt 0.6373404 0.976039
vt 0.8160396 0.976039
vt 0.8160396 0.7575743
vt 0.6373404 0.7575743
vt 0.6373404 0.976039
vt 0.8160396 0.976039
vt 0.8160396 0.7575743
vt 0.6373404 0.7575743
vt 0.6373404 0.976039
vt 0.8160396 0.976039
vt 0.8160396 0.7575743
vt 0.6373404 0.7575743
vt 0.6373404 0.976039
vt 0.8160396 0.976039
vt 0.8160396 0.7575743
vt 0.6373404 0.7575743
vt 0.6373404 0.976039
vt 0.8160396 0.976039
vt 0.8160396 0.7575743
vt 0.6373404 0.7575743
vt 0.6373404 0.976039
vt 0.8160396 0.976039
vt 0.8160396 0.7575743
vt 0.6373404 0.7575743
vt 0.6373404 0.976039
vt 0.8160396 0.976039
vt 0.8160396 0.7575743
vt 0.6373404 0.7575743
vt 0.6373404 0.976039
vt 0.8160396 0.976039
vt 0.8160396 0.7575743
vt 0.6373404 0.7575743
vt 0.6373404 0.976039
vt 0.8160396 0.976039
vt 0.8160396 0.7575743
vt 0.8862776 0.8424561
vt 0.8750859 0.821638
vt 0.8702826 0.8249619
vt 0.8807465 0.8442012
vt 0.8901522 0.8669004
vt 0.8844042 0.8668972
vt 0.8546878 0.8120227
vt 0.8583345 0.8075043
vt 0.8363945 0.8069379
vt 0.8385972 0.801667
vt 0.6177215 0.8068179
vt 0.6155235 0.8015389
vt 0.599428 0.8118799
vt 0.5957732 0.8073591
vt 0.5838251 0.8248027
vt 0.5790244 0.8214734
vt 0.8862599 0.8913245
vt 0.88073 0.8895731
vt 0.8750529 0.9121305
vt 0.870252 0.9088011
vt 0.8582904 0.9262461
vt 0.8546477 0.9217235
vt 0.8385489 0.9320742
vt 0.8363506 0.9267861
vt 0.8508364 0.9175851
vt 0.8338682 0.922047
vt 0.6154755 0.931946
vt 0.6176777 0.9266657
vt 0.5957313 0.9260986
vt 0.5993895 0.9215816
vt 0.5789939 0.9119691
vt 0.5837968 0.9086445
vt 0.5678023 0.8911519
vt 0.5733332 0.8894057
vt 0.5639259 0.866723
vt 0.5696638 0.8667256
vt 0.5678182 0.8422812
vt 0.573348 0.8440323
vt 0.5789883 0.8877494
vt 0.575555 0.8667284
vt 0.5790021 0.8456941
vt 0.5887473 0.8279034
vt 0.6032388 0.8160185
vt 0.6202036 0.811557
vt 0.8339078 0.8116717
vt 0.8508734 0.8161561
vt 0.8653578 0.8280569
vt 0.8750913 0.8458567
vt 0.8785247 0.8668938
vt 0.8750761 0.887911
vt 0.8653296 0.9057004
vt 0.620164 0.9219319
vt 0.6032035 0.917448
vt 0.5887212 0.9055488
vn 0.4592505 0 -0.8883067
vn 0.7572696 0 -0.6531023
vn 0.2813686 0.7904357 -0.5440984
vn 0.2813686 0.7904357 -0.5440984
vn 0.1519426 0 -0.9883893
vn 0.09232729 0.7939655 -0.6009113
vn 0.6671 0.7249616 -0.1714885
vn 0.9685649 0 -0.2487612
vn 0.6671 0.7249616 -0.1714885
vn 1 0 0
vn 0.7315156 0.6818246 0
vn 1 0 0
vn 0.478153 0.7752098 0.4128189
vn 0.7570096 0 0.6534037
vn 0.478153 0.7752098 0.4128189
vn 0.4592465 0 0.8883089
vn -0.1520407 0 -0.9883742
vn -0.2813646 0.7904385 -0.5440965
vn -0.4592508 0 -0.8883066
vn -0.2813646 0.7904385 -0.5440965
vn -0.7572706 0 -0.6531012
vn -0.48859 0.8634388 -0.1255114
vn -0.9683583 0 -0.2495642
vn -0.48859 0.8634388 -0.1255114
vn -0.48859 0.8634388 -0.1255114
vn -0.48859 0.8634388 -0.1255114
vn -0.9683998 0 0.2494032
vn -0.6660385 0.7259446 0.1714561
vn -0.9683998 0 0.2494032
vn -0.6660385 0.7259446 0.1714561
vn -0.7570083 0 0.6534054
vn -0.2813666 0.790436 0.544099
vn -0.4592469 0 0.8883087
vn -0.2813666 0.790436 0.544099
vn 0.1519457 0 0.9883888
vn 0.09257217 0.7935436 0.6014308
vn 0.1519457 0 0.9883888
vn 0.09257217 0.7935436 0.6014308
vn -0.06502003 0.9045138 0.4214585
vn 0.04141722 0.962293 0.2688438
vn 0.04141722 0.962293 0.2688438
vn 0.1980479 0.9022287 0.3830932
vn 0.3404053 0.8931558 0.2939337
vn 0.488588 0.8634398 0.1255127
vn 0.4885871 0.8634403 -0.1255131
vn 0.4885871 0.8634403 -0.1255131
vn 0.3404063 0.8931551 -0.2939345
vn 0.1980478 0.9022288 -0.3830931
vn 0.06491711 0.9043152 -0.4219003
vn -0.06496513 0.9043133 -0.4218971
vn -0.1980449 0.902229 -0.3830938
vn -0.5492262 0.8356737 0
vn -0.488587 0.8634408 0.1255105
vn -0.3404087 0.8931543 0.2939342
vn 1 0 0
vn 0.9903709 -0.1310859 -0.04451733
vn 0.9903695 -0.1310989 0.04451277
vn 1 0 0
vn 0.9685649 0 -0.2487612
vn 0.865552 -0.1742456 -0.4695296
vn 0.9903709 -0.1310859 -0.04451733
vn 1 0 0
vn 0.7572696 0 -0.6531023
vn 0.5994675 -0.1898334 -0.7775616
vn 0.865552 -0.1742456 -0.4695296
vn 0.9685649 0 -0.2487612
vn 0.4592505 0 -0.8883067
vn 0.2987049 -0.1957987 -0.9340441
vn 0.5994675 -0.1898334 -0.7775616
vn 0.7572696 0 -0.6531023
vn 0.1519426 0 -0.9883893
vn 9.22943E-05 -0.197247 -0.9803538
vn 0.2987049 -0.1957987 -0.9340441
vn 0.4592505 0 -0.8883067
vn -0.1520407 0 -0.9883742
vn -0.3051056 0 -0.9523185
vn 9.22943E-05 -0.197247 -0.9803538
vn 0.1519426 0 -0.9883893
vn -0.4592508 0 -0.8883066
vn -0.6122386 8.967448E-05 -0.7906731
vn -0.3051056 0 -0.9523185
vn -0.1520407 0 -0.9883742
vn -0.7572706 0 -0.6531012
vn -0.8656482 -0.1734049 -0.4696636
vn -0.6122386 8.967448E-05 -0.7906731
vn -0.4592508 0 -0.8883066
vn -0.9683583 0 -0.2495642
vn -0.9904675 -0.130329 -0.04459267
vn -0.8656482 -0.1734049 -0.4696636
vn -0.7572706 0 -0.6531012
vn 0.1519457 0 0.9883888
vn 0.2987337 -0.1956584 0.9340643
vn 0 -0.1968748 0.9804286
vn 0.1519457 0 0.9883888
vn 0.4592465 0 0.8883089
vn 0.599289 -0.1899431 0.7776724
vn 0.2987337 -0.1956584 0.9340643
vn 0.1519457 0 0.9883888
vn 0.7570096 0 0.6534037
vn 0.8655102 -0.1743707 0.4695604
vn 0.599289 -0.1899431 0.7776724
vn 0.4592465 0 0.8883089
vn 1 0 0
vn 0.9903695 -0.1310989 0.04451277
vn 0.8655102 -0.1743707 0.4695604
vn 0.7570096 0 0.6534037
vn -0.9683998 0 0.2494032
vn -0.8656037 -0.1733178 0.4697777
vn -0.990466 -0.1303419 0.04458824
vn -0.9683998 0 0.2494032
vn -0.7570083 0 0.6534054
vn -0.5994114 -0.1890936 0.7777851
vn -0.8656037 -0.1733178 0.4697777
vn -0.9683998 0 0.2494032
vn -0.4592469 0 0.8883087
vn -0.2988173 -0.1953479 0.9341024
vn -0.5994114 -0.1890936 0.7777851
vn -0.7570083 0 0.6534054
vn 0.1519457 0 0.9883888
vn 0 -0.1968748 0.9804286
vn -0.2988173 -0.1953479 0.9341024
vn -0.4592469 0 0.8883087
vn -0.9683998 0 0.2494032
vn -0.990466 -0.1303419 0.04458824
vn -0.9904675 -0.130329 -0.04459267
vn -0.9683583 0 -0.2495642
vn -0.4592505 0 -0.8883067
vn -0.7572696 0 -0.6531023
vn -0.2813686 -0.7904357 -0.5440984
vn -0.2813686 -0.7904357 -0.5440984
vn 9.22943E-05 -0.197247 -0.9803538
vn -0.09232729 -0.7939655 -0.6009113
vn -0.6671 -0.7249616 -0.1714885
vn -0.8656482 -0.1734049 -0.4696636
vn -0.6671 -0.7249616 -0.1714885
vn -0.9904675 -0.130329 -0.04459267
vn -0.7315156 -0.6818246 0
vn -0.990466 -0.1303419 0.04458824
vn -0.478153 -0.7752098 0.4128189
vn -0.8656037 -0.1733178 0.4697777
vn -0.478153 -0.7752098 0.4128189
vn -0.5994114 -0.1890936 0.7777851
vn 0.2987049 -0.1957987 -0.9340441
vn 0.2813646 -0.7904385 -0.5440965
vn 0.5994675 -0.1898334 -0.7775616
vn 0.2813646 -0.7904385 -0.5440965
vn 0.865552 -0.1742456 -0.4695296
vn 0.48859 -0.8634388 -0.1255114
vn 0.9903709 -0.1310859 -0.04451733
vn 0.48859 -0.8634388 -0.1255114
vn 0.48859 -0.8634388 -0.1255114
vn 0.48859 -0.8634388 -0.1255114
vn 0.9903695 -0.1310989 0.04451277
vn 0.6660385 -0.7259446 0.1714561
vn 0.8655102 -0.1743707 0.4695604
vn 0.6660385 -0.7259446 0.1714561
vn 0.599289 -0.1899431 0.7776724
vn 0.2813666 -0.790436 0.544099
vn 0.2987337 -0.1956584 0.9340643
vn 0.2813666 -0.790436 0.544099
vn 0 -0.1968748 0.9804286
vn -0.09257217 -0.7935436 0.6014308
vn -0.2988173 -0.1953479 0.9341024
vn -0.09257217 -0.7935436 0.6014308
vn 0.06502003 -0.9045138 0.4214585
vn -0.04141722 -0.962293 0.2688438
vn -0.04141722 -0.962293 0.2688438
vn -0.1980479 -0.9022287 0.3830932
vn -0.3404053 -0.8931558 0.2939337
vn -0.488588 -0.8634398 0.1255127
vn -0.4885871 -0.8634403 -0.1255131
vn -0.4885871 -0.8634403 -0.1255131
vn -0.3404063 -0.8931551 -0.2939345
vn -0.1980478 -0.9022288 -0.3830931
vn -0.06491711 -0.9043152 -0.4219003
vn 0.06496513 -0.9043133 -0.4218971
vn 0.1980449 -0.902229 -0.3830938
vn 0.5492262 -0.8356737 0
vn 0.488587 -0.8634408 0.1255105
vn 0.3404087 -0.8931543 0.2939342
g LogiPen_TouchPadRing_0
f 3/3/3 2/2/2 1/1/1
f 4/4/4 3/3/3 1/1/1
f 4/4/4 1/1/1 5/5/5
f 6/6/6 4/4/4 5/5/5
f 3/3/3 7/7/7 2/2/2
f 7/7/7 8/8/8 2/2/2
f 7/7/7 9/9/9 8/8/8
f 9/9/9 10/10/10 8/8/8
f 9/9/9 11/11/11 10/10/10
f 11/11/11 12/12/12 10/10/10
f 11/11/11 13/13/13 12/12/12
f 13/13/13 14/14/14 12/12/12
f 13/13/13 15/15/15 14/14/14
f 15/15/15 16/16/16 14/14/14
f 6/6/6 5/5/5 17/17/17
f 18/18/18 6/6/6 17/17/17
f 18/18/18 17/17/17 19/19/19
f 20/20/20 18/18/18 19/19/19
f 20/20/20 19/19/19 21/21/21
f 22/22/22 20/20/20 21/21/21
f 22/22/22 21/21/21 23/23/23
f 24/24/24 22/22/22 23/23/23
f 25/25/25 22/22/22 24/24/24
f 26/26/26 25/25/25 24/24/24
f 24/24/24 23/23/23 27/27/27
f 28/28/28 24/24/24 27/27/27
f 26/26/26 24/24/24 28/28/28
f 28/28/28 27/27/27 29/29/29
f 30/30/30 28/28/28 29/29/29
f 30/30/30 29/29/29 31/31/31
f 32/32/32 30/30/30 31/31/31
f 32/32/32 31/31/31 33/33/33
f 34/34/34 32/32/32 33/33/33
f 34/34/34 33/33/33 35/35/35
f 36/36/36 34/34/34 35/35/35
f 36/36/36 35/35/35 37/37/37
f 38/38/38 36/36/36 37/37/37
f 38/38/38 37/37/37 16/16/16
f 15/15/15 38/38/38 16/16/16
f 39/39/39 34/34/34 36/36/36
f 40/40/40 39/39/39 36/36/36
f 40/40/40 36/36/36 38/38/38
f 41/41/41 40/40/40 38/38/38
f 41/41/41 38/38/38 15/15/15
f 42/42/42 41/41/41 15/15/15
f 42/42/42 15/15/15 13/13/13
f 43/43/43 42/42/42 13/13/13
f 43/43/43 13/13/13 11/11/11
f 44/44/44 43/43/43 11/11/11
f 44/44/44 11/11/11 9/9/9
f 45/45/45 44/44/44 9/9/9
f 45/45/45 9/9/9 7/7/7
f 46/46/46 45/45/45 7/7/7
f 46/46/46 7/7/7 3/3/3
f 47/47/47 46/46/46 3/3/3
f 47/47/47 3/3/3 4/4/4
f 48/48/48 47/47/47 4/4/4
f 48/48/48 4/4/4 6/6/6
f 49/49/49 48/48/48 6/6/6
f 49/49/49 6/6/6 18/18/18
f 50/50/50 49/49/49 18/18/18
f 50/50/50 18/18/18 20/20/20
f 51/51/51 50/50/50 20/20/20
f 51/51/51 20/20/20 22/22/22
f 25/25/25 51/51/51 22/22/22
f 52/52/52 26/26/26 28/28/28
f 52/52/52 28/28/28 30/30/30
f 53/53/53 52/52/52 30/30/30
f 53/53/53 30/30/30 32/32/32
f 54/54/54 53/53/53 32/32/32
f 54/54/54 32/32/32 34/34/34
f 39/39/39 54/54/54 34/34/34
f 57/57/57 56/56/56 55/55/55
f 58/58/58 57/57/57 55/55/55
f 61/61/61 60/60/60 59/59/59
f 62/62/62 61/61/61 59/59/59
f 65/65/65 64/64/64 63/63/63
f 66/66/66 65/65/65 63/63/63
f 69/69/69 68/68/68 67/67/67
f 70/70/70 69/69/69 67/67/67
f 73/73/73 72/72/72 71/71/71
f 74/74/74 73/73/73 71/71/71
f 77/77/77 76/76/76 75/75/75
f 78/78/78 77/77/77 75/75/75
f 81/81/81 80/80/80 79/79/79
f 82/82/82 81/81/81 79/79/79
f 85/85/85 84/84/84 83/83/83
f 86/86/86 85/85/85 83/83/83
f 89/89/89 88/88/88 87/87/87
f 90/90/90 89/89/89 87/87/87
f 93/93/93 92/92/92 91/91/91
f 94/94/94 93/93/93 91/91/91
f 97/97/97 96/96/96 95/95/95
f 98/98/98 97/97/97 95/95/95
f 101/101/101 100/100/100 99/99/99
f 102/102/102 101/101/101 99/99/99
f 105/105/105 104/104/104 103/103/103
f 106/106/106 105/105/105 103/103/103
f 109/109/109 108/108/108 107/107/107
f 110/110/110 109/109/109 107/107/107
f 113/113/113 112/112/112 111/111/111
f 114/114/114 113/113/113 111/111/111
f 117/117/117 116/116/116 115/115/115
f 118/118/118 117/117/117 115/115/115
f 121/121/121 120/120/120 119/119/119
f 122/122/122 121/121/121 119/119/119
f 125/125/125 124/124/124 123/123/123
f 126/126/126 125/125/125 123/123/123
f 129/129/129 128/128/128 127/127/127
f 130/130/130 129/129/129 127/127/127
f 130/130/130 127/127/127 131/131/131
f 132/132/132 130/130/130 131/131/131
f 129/129/129 133/133/133 128/128/128
f 133/133/133 134/134/134 128/128/128
f 133/133/133 135/135/135 134/134/134
f 135/135/135 136/136/136 134/134/134
f 135/135/135 137/137/137 136/136/136
f 137/137/137 138/138/138 136/136/136
f 137/137/137 139/139/139 138/138/138
f 139/139/139 140/140/140 138/138/138
f 139/139/139 141/141/141 140/140/140
f 141/141/141 142/142/142 140/140/140
f 132/132/132 131/131/131 143/143/143
f 144/144/144 132/132/132 143/143/143
f 144/144/144 143/143/143 145/145/145
f 146/146/146 144/144/144 145/145/145
f 146/146/146 145/145/145 147/147/147
f 148/148/148 146/146/146 147/147/147
f 148/148/148 147/147/147 149/149/149
f 150/150/150 148/148/148 149/149/149
f 151/151/151 148/148/148 150/150/150
f 152/152/152 151/151/151 150/150/150
f 150/150/150 149/149/149 153/153/153
f 154/154/154 150/150/150 153/153/153
f 152/152/152 150/150/150 154/154/154
f 154/154/154 153/153/153 155/155/155
f 156/156/156 154/154/154 155/155/155
f 156/156/156 155/155/155 157/157/157
f 158/158/158 156/156/156 157/157/157
f 158/158/158 157/157/157 159/159/159
f 160/160/160 158/158/158 159/159/159
f 160/160/160 159/159/159 161/161/161
f 162/162/162 160/160/160 161/161/161
f 162/162/162 161/161/161 163/163/163
f 164/164/164 162/162/162 163/163/163
f 164/164/164 163/163/163 142/142/142
f 141/141/141 164/164/164 142/142/142
f 165/165/165 160/160/160 162/162/162
f 166/166/166 165/165/165 162/162/162
f 166/166/166 162/162/162 164/164/164
f 167/167/167 166/166/166 164/164/164
f 167/167/167 164/164/164 141/141/141
f 168/168/168 167/167/167 141/141/141
f 168/168/168 141/141/141 139/139/139
f 169/169/169 168/168/168 139/139/139
f 169/169/169 139/139/139 137/137/137
f 170/170/170 169/169/169 137/137/137
f 170/170/170 137/137/137 135/135/135
f 171/171/171 170/170/170 135/135/135
f 171/171/171 135/135/135 133/133/133
f 172/172/172 171/171/171 133/133/133
f 172/172/172 133/133/133 129/129/129
f 173/173/173 172/172/172 129/129/129
f 173/173/173 129/129/129 130/130/130
f 174/174/174 173/173/173 130/130/130
f 174/174/174 130/130/130 132/132/132
f 175/175/175 174/174/174 132/132/132
f 175/175/175 132/132/132 144/144/144
f 176/176/176 175/175/175 144/144/144
f 176/176/176 144/144/144 146/146/146
f 177/177/177 176/176/176 146/146/146
f 177/177/177 146/146/146 148/148/148
f 151/151/151 177/177/177 148/148/148
f 178/178/178 152/152/152 154/154/154
f 178/178/178 154/154/154 156/156/156
f 179/179/179 178/178/178 156/156/156
f 179/179/179 156/156/156 158/158/158
f 180/180/180 179/179/179 158/158/158
f 180/180/180 158/158/158 160/160/160
f 165/165/165 180/180/180 160/160/160
