g LogiPen_LGrip
v 0.009095048 -0.03825999 -0.04812347
v -0.01493497 -0.03826002 -0.04812347
v -0.01493497 -0.03826002 0.048124
v 0.009095048 -0.03825999 0.048124
v 0.009095018 -0.03534999 -0.06276365
v -0.01493499 -0.03535 -0.06276365
v 0.009094995 -0.02706001 -0.07518392
v -0.01493499 -0.02706 -0.07518392
v -0.01493499 -0.03535 0.06277398
v 0.009095018 -0.03534999 0.06277398
v 0.01182501 -0.03634998 -0.04654353
v 0.011825 -0.03358001 -0.06045358
v 0.011825 -0.02570002 -0.07224377
v 0.009094995 -0.01464999 -0.08347397
v 0.011825 -0.01391002 -0.08012395
v 0.009095018 -1.645866E-08 -0.08638393
v -0.01493501 -0.01465 -0.08347397
v -0.01493499 -1.645866E-08 -0.08638393
v 0.009094995 0.01463997 -0.08347403
v -0.01493504 0.01463998 -0.08347403
v 0.009094973 0.02704997 -0.07518398
v -0.01493501 0.02704997 -0.07518398
v 0.01182499 0.01389996 -0.08012395
v 0.01182499 0.02568998 -0.07224386
v 0.011825 -1.645866E-08 -0.08288395
v 0.009094958 0.03533998 -0.06276365
v 0.01182494 0.03356998 -0.06045367
v 0.009094973 0.03826 -0.04812356
v 0.01182494 0.03633997 -0.04654353
v 0.01379497 0.0315 -0.05774366
v 0.01379495 0.03408997 -0.0446934
v 0.009094973 0.03826 0.048124
v 0.01182494 0.03633997 0.04654394
v 0.009094958 0.03533998 0.06277398
v -0.01493499 0.03826002 0.048124
v -0.01493501 0.03533999 0.06277398
v 0.009094973 0.02704997 0.07518397
v -0.01493501 0.02704997 0.07518397
v 0.009094995 0.01463997 0.08347393
v -0.01493504 0.01463998 0.08347393
v 0.009095018 -1.645866E-08 0.08638386
v -0.01493499 -1.645866E-08 0.08638386
v -0.01493499 0.03826002 -0.04812356
v 0.009094973 0.03826 -0.04812356
v 0.01182499 0.02568998 0.07224397
v 0.01182499 0.01389996 0.08012391
v 0.01182494 0.03356998 0.06045393
v 0.009095018 -1.645866E-08 0.08638386
v 0.011825 -1.645866E-08 0.08289386
v 0.009094995 -0.01464999 0.08347393
v 0.011825 -0.01391002 0.08012391
v 0.009094995 -0.02706001 0.07518397
v -0.01493501 -0.01465 0.08347393
v -0.01493499 -0.02706 0.07518397
v 0.011825 -0.02570002 0.07224397
v 0.011825 -0.03358001 0.06045393
v 0.01182501 -0.03634998 0.04654394
v 0.01379497 0.01303997 0.07619397
v 0.01379502 -1.645866E-08 0.07879392
v 0.01379499 -0.01305001 0.07619397
v 0.01493502 -1.645866E-08 0.07483391
v 0.01493501 -0.01222002 0.07240395
v 0.01379499 -0.02412 0.06880394
v 0.01379502 -0.03151001 0.05774395
v 0.01379502 -0.03410002 0.04469384
v 0.01379502 -0.03410002 -0.04469331
v 0.01379502 -0.03151001 -0.05774366
v 0.01379499 -0.02412 -0.06880378
v 0.01379499 -0.01305001 -0.07619398
v 0.01379502 -1.645866E-08 -0.07879394
v 0.01379497 0.01303997 -0.07619398
v 0.01379499 0.02410995 -0.06880384
v 0.01493504 -0.02951 -0.05512362
v 0.01493498 -0.02258001 -0.06548362
v 0.01493501 -0.01222002 -0.07240381
v 0.01493502 -1.645866E-08 -0.07483398
v 0.01493501 0.01222002 -0.07240381
v 0.01493496 0.02257995 -0.06548362
v 0.01493498 0.02950001 -0.05512368
v 0.01493498 0.03192998 -0.04290338
v 0.01379495 0.03408997 0.04469387
v 0.01379497 0.0315 0.05774395
v 0.01379499 0.02410995 0.06880394
v 0.01493498 0.03192998 0.04290394
v 0.01493498 0.02950001 0.05512397
v 0.01493496 0.02257995 0.06548396
v 0.01493501 0.01222002 0.07240395
v 0.01493496 0.03114001 0.04225395
v 0.01493496 0.02876998 0.05417393
v 0.01493498 0.02201994 0.06427393
v 0.01493501 0.01191002 0.07103393
v 0.01493502 -1.645866E-08 0.07340393
v 0.01493501 -0.01192002 0.07103393
v 0.01493498 -0.02258001 0.06548396
v 0.01493498 -0.02203001 0.06427393
v 0.01493504 -0.02951 0.05512397
v 0.01493502 -0.03194001 0.04290394
v 0.01493502 -0.03194001 -0.04290338
v 0.01493501 -0.02878 0.05417393
v 0.01401499 -0.02112001 0.0623139
v 0.01401499 -0.02759003 0.05262397
v 0.01493501 -0.03115004 0.04225395
v 0.01493501 -0.03115004 -0.0422533
v 0.01493501 -0.02878 -0.05417364
v 0.01493498 -0.02203001 -0.06427383
v 0.01493501 -0.01192002 -0.07102396
v 0.01493502 -1.645866E-08 -0.07339399
v 0.01493501 0.01191002 -0.07102396
v 0.01493498 0.02201994 -0.06427383
v 0.01493496 0.02876998 -0.05417364
v 0.01493496 0.03114001 -0.04225339
v 0.01401501 -0.01143002 -0.06878381
v 0.01401502 -1.645866E-08 -0.07105397
v 0.01401499 0.01141996 -0.06878381
v 0.01401496 0.02110996 -0.06230365
v 0.01401496 0.02758 -0.05262362
v 0.01401499 0.02985999 -0.04119333
v 0.01401499 0.02985999 0.04119388
v 0.01401496 0.02758 0.05262397
v 0.01401496 0.02110996 0.0623139
v 0.01401499 0.01141996 0.06878392
v 0.01401502 -1.645866E-08 0.07105396
v 0.01401501 -0.01143002 0.06878392
v 0.01256499 0.02240998 0.03505395
v 0.01256499 0.02069997 0.04363398
v 0.01193501 0.01262001 0.02696387
v 0.01193499 0.01164996 0.03179393
v 0.01256501 0.01585 0.05090396
v 0.01256499 0.008570014 0.05576394
v 0.01256501 -1.645866E-08 0.05746387
v 0.01256501 -0.008580022 0.05576394
v 0.01256499 -0.01585001 0.05090396
v 0.01256499 -0.02071 0.04363398
v 0.01401502 -0.02987001 0.04119388
v 0.01256501 -0.02241999 0.03505395
v 0.01401502 -0.02987001 -0.04119333
v 0.01401499 -0.02759003 -0.05262362
v 0.01401499 -0.02112001 -0.06230365
v 0.01256501 -0.02241999 -0.03504341
v 0.01256499 -0.02071 -0.04362332
v 0.01256499 -0.01585001 -0.05089368
v 0.01256501 -0.008580022 -0.0557537
v 0.01256501 -1.645866E-08 -0.05746369
v 0.01256499 0.008570014 -0.0557537
v 0.01256501 0.01585 -0.05089368
v 0.01256499 0.02069997 -0.04362332
v 0.01256499 0.02240998 -0.03504341
v 0.01193499 0.004819987 -0.03862326
v 0.01193499 0.008919967 -0.03588336
v 0.01193499 0.004819987 0.03862397
v 0.01193501 -1.645866E-08 0.03958396
v 0.01193501 -1.645866E-08 -0.03958331
v 0.01193501 -0.004830014 0.03862397
v 0.01193501 -0.004830014 -0.03862326
v 0.01193499 -0.008930013 0.0358939
v 0.01193499 -0.008930013 -0.03588336
v 0.01193499 -0.01166001 0.03179393
v 0.01193499 -0.01166001 -0.03179337
v 0.01193501 -0.01262002 0.02696387
v 0.01193501 -0.01262002 -0.0269634
v 0.01193499 0.008919967 0.0358939
v 0.01193499 0.01164996 -0.03179337
v 0.01193501 0.01262001 -0.0269634
v -0.01493499 -0.02706 -0.07518392
v 0.009094995 -0.02706001 -0.07518392
v -0.01493501 -0.01465 -0.08347397
v 0.009094973 0.02704997 -0.07518398
v 0.009094958 0.03533998 -0.06276365
v -0.01493501 0.03533999 -0.06276365
v -0.01493499 0.03826002 -0.04812356
v -0.01493499 -1.645866E-08 0.08638386
v 0.009095018 -1.645866E-08 0.08638386
v -0.01493501 -0.01465 0.08347393
v -0.01493499 -0.02706 0.07518397
v 0.009094995 -0.02706001 0.07518397
v -0.01493499 -0.03535 0.06277398
vt 0.5632298 0.312112
vt 0.5632298 0.312112
vt 0.5636426 0.4581482
vt 0.5636426 0.4581482
vt 0.5575818 0.2899083
vt 0.5575818 0.2899083
vt 0.5416172 0.2710911
vt 0.5416173 0.2710912
vt 0.55812 0.4803865
vt 0.55812 0.4803865
vt 0.5595707 0.3145157
vt 0.5541945 0.2934194
vt 0.5390195 0.2755568
vt 0.5177625 0.2585547
vt 0.5163565 0.2636402
vt 0.4896315 0.254189
vt 0.5177625 0.2585546
vt 0.4896315 0.254189
vt 0.4615447 0.2586539
vt 0.4615446 0.2586539
vt 0.437761 0.2712744
vt 0.437761 0.2712744
vt 0.4629793 0.2637345
vt 0.4403839 0.2757309
vt 0.4896466 0.2594996
vt 0.4219027 0.2901478
vt 0.42531 0.2936468
vt 0.4163609 0.3123712
vt 0.420053 0.314762
vt 0.4292946 0.2977517
vt 0.4243795 0.3175616
vt 0.4167735 0.4584076
vt 0.420452 0.4560036
vt 0.4224408 0.4806261
vt 0.4167735 0.4584076
vt 0.4224408 0.4806261
vt 0.4384055 0.4994276
vt 0.4384055 0.4994277
vt 0.4622602 0.511964
vt 0.4622602 0.511964
vt 0.4903719 0.5163294
vt 0.4903719 0.5163296
vt 0.4163609 0.3123712
vt 0.4163609 0.3123712
vt 0.4410033 0.4949622
vt 0.4636663 0.5068784
vt 0.4258282 0.4770998
vt 0.4903719 0.5163294
vt 0.490357 0.511034
vt 0.5184779 0.5118647
vt 0.5170434 0.5067843
vt 0.5422618 0.4992442
vt 0.5184783 0.5118647
vt 0.5422617 0.4992442
vt 0.5396389 0.4947881
vt 0.5547128 0.4768723
vt 0.5599696 0.4557573
vt 0.4653 0.5009125
vt 0.4903396 0.5048131
vt 0.5153759 0.5008242
vt 0.4903226 0.4988047
vt 0.5137666 0.4950764
vt 0.5365916 0.4895737
vt 0.5507281 0.4727674
vt 0.5556434 0.4529578
vt 0.5552602 0.3173307
vt 0.5502332 0.2975382
vt 0.5360017 0.2807818
vt 0.5147228 0.2696061
vt 0.489664 0.2657054
vt 0.4646468 0.2696945
vt 0.4434313 0.280945
vt 0.5464056 0.3015203
vt 0.53306 0.2858246
vt 0.5131459 0.2753597
vt 0.489681 0.2717138
vt 0.4662369 0.2754425
vt 0.4463821 0.2859776
vt 0.4331445 0.3017202
vt 0.4285329 0.3202702
vt 0.4247626 0.4531888
vt 0.4297896 0.4729809
vt 0.4440212 0.4897373
vt 0.4289007 0.4504656
vt 0.4336171 0.468999
vt 0.4469435 0.4846947
vt 0.4668576 0.4951592
vt 0.4304142 0.4494768
vt 0.4350142 0.4675549
vt 0.4480131 0.4828569
vt 0.4674467 0.4930796
vt 0.4903164 0.496635
vt 0.5131848 0.4929987
vt 0.5336213 0.4845417
vt 0.5325605 0.4827076
vt 0.5468782 0.468799
vt 0.5514898 0.4502493
vt 0.5511221 0.3200538
vt 0.545473 0.4673599
vt 0.5308055 0.4797366
vt 0.5431823 0.4650123
vt 0.5499708 0.4492658
vt 0.5496086 0.3210429
vt 0.5450085 0.3029641
vt 0.5320097 0.2876621
vt 0.5125761 0.2774544
vt 0.4896872 0.2738987
vt 0.4668377 0.2775351
vt 0.4474622 0.2878113
vt 0.4345497 0.3031592
vt 0.4300519 0.3212538
vt 0.5116452 0.280855
vt 0.4896972 0.2774492
vt 0.4677879 0.2809324
vt 0.4492171 0.2907975
vt 0.4368404 0.305507
vt 0.4325133 0.3228579
vt 0.4328664 0.447864
vt 0.4372915 0.4651992
vt 0.4497513 0.4798797
vt 0.4683776 0.4896639
vt 0.4903063 0.4930696
vt 0.5122349 0.4895865
vt 0.4471393 0.4385225
vt 0.4504582 0.4515353
vt 0.4658951 0.4262144
vt 0.4677776 0.4335397
vt 0.4597982 0.4625497
vt 0.4737919 0.4698991
vt 0.4902481 0.4724493
vt 0.5067089 0.4698408
vt 0.5206417 0.4624422
vt 0.5299385 0.451395
vt 0.5475094 0.4476616
vt 0.5331839 0.4383708
vt 0.5471562 0.3226554
vt 0.542731 0.30532
vt 0.5302714 0.2906545
vt 0.5328834 0.3320121
vt 0.5295645 0.3189995
vt 0.5202051 0.3079847
vt 0.5062308 0.3006352
vt 0.4897555 0.2980697
vt 0.4733138 0.3006934
vt 0.4593618 0.3080921
vt 0.4500842 0.3191399
vt 0.4468388 0.332164
vt 0.4805849 0.3266726
vt 0.4727273 0.3308438
vt 0.4809161 0.4438798
vt 0.4901714 0.4453201
vt 0.4898321 0.3251996
vt 0.4994379 0.4438471
vt 0.4991067 0.32664
vt 0.5072955 0.439691
vt 0.5069878 0.3307832
vt 0.5125177 0.4334608
vt 0.5122451 0.3369797
vt 0.5143396 0.4261288
vt 0.5141084 0.3443051
vt 0.473035 0.4397515
vt 0.467505 0.3370587
vt 0.4656639 0.3443907
vt 0.5416173 0.2710912
vt 0.5416172 0.2710911
vt 0.5177625 0.2585546
vt 0.437761 0.2712744
vt 0.4219027 0.2901478
vt 0.4219028 0.2901478
vt 0.4163609 0.3123712
vt 0.4903719 0.5163296
vt 0.4903719 0.5163294
vt 0.5184783 0.5118647
vt 0.5422617 0.4992442
vt 0.5422618 0.4992442
vt 0.55812 0.4803865
vn 0 -1 0
vn 0 -1 0
vn 0 -1 0
vn 0 -1 0
vn 0 -0.9808123 -0.1949547
vn 0 -0.9808123 -0.1949547
vn 0 -0.8317469 -0.555155
vn 0 -0.8317469 -0.555155
vn 0 -0.8315344 0.5554732
vn 0 -0.8315344 0.5554732
vn 0.6247256 -0.7658352 -0.1523623
vn 0.6247256 -0.7658352 -0.1523623
vn 0.7606029 -0.3606907 -0.5398013
vn 0 -0.5554744 -0.8315337
vn 0.7606029 -0.3606907 -0.5398013
vn 0 -0.194827 -0.9808376
vn 0 -0.5554744 -0.8315337
vn 0 -0.194827 -0.9808376
vn 0 0.19495 -0.9808132
vn 0 0.19495 -0.9808132
vn 0 0.555475 -0.8315331
vn 0 0.555475 -0.8315331
vn 0.7606077 0.3606857 -0.539798
vn 0.7606077 0.3606857 -0.539798
vn 0.7825578 -0.1212339 -0.61066
vn 0 0.8317476 -0.5551539
vn 0.7928653 0.5976995 -0.1188268
vn 0 0.9806835 -0.1956014
vn 0.7928653 0.5976995 -0.1188268
vn 0.7928653 0.5976995 -0.1188268
vn 0.7928653 0.5976995 -0.1188268
vn 0 0.9807088 0.1954742
vn 0.625824 0.7649311 0.1523969
vn 0 0.9807088 0.1954742
vn 0 0.9807088 0.1954742
vn 0 0.9807088 0.1954742
vn 0 0.8315337 0.5554743
vn 0 0.8315337 0.5554743
vn 0 0.5554716 0.8315355
vn 0 0.5554716 0.8315355
vn 0 -0.1948246 0.9808381
vn 0 -0.1948246 0.9808381
vn 0 0.9806835 -0.1956014
vn 0 0.9806835 -0.1956014
vn 0.7605959 0.3606912 0.5398107
vn 0.7605959 0.3606912 0.5398107
vn 0.625824 0.7649311 0.1523969
vn 0 -0.1948246 0.9808381
vn 0.7821131 -0.1215464 0.6111674
vn 0 -0.1948246 0.9808381
vn 0.7821131 -0.1215464 0.6111674
vn 0 -0.5554709 0.831536
vn 0 -0.1948246 0.9808381
vn 0 -0.5554709 0.831536
vn 0.7112657 -0.5844582 0.3905248
vn 0.7112657 -0.5844582 0.3905248
vn 0.5732679 -0.8193679 0
vn 0.8980386 0.08599898 0.4314288
vn 0.9594732 -0.0550149 0.2763776
vn 0.9594732 -0.0550149 0.2763776
vn 0.9594732 -0.0550149 0.2763776
vn 0.9594732 -0.0550149 0.2763776
vn 0.8848625 -0.2587601 0.3873778
vn 0.8534456 -0.4333277 0.289582
vn 0.792863 -0.5977019 0.1188305
vn 0.7928637 -0.5977014 -0.1188288
vn 0.7928637 -0.5977014 -0.1188288
vn 0.8534437 -0.433332 -0.2895814
vn 0.8848608 -0.2587674 -0.387377
vn 0.8978338 -0.08586442 -0.4318816
vn 0.8978342 0.08592672 -0.4318683
vn 0.8848618 0.2587642 -0.3873766
vn 0.9393426 -0.2851293 -0.1906225
vn 0.9393426 -0.2851293 -0.1906225
vn 0.953693 -0.1670361 -0.2501374
vn 0.9594737 -0.0550154 -0.2763757
vn 0.9594538 0.05505085 -0.276438
vn 0.9535604 0.1672685 -0.2504873
vn 0.9391785 0.2855651 -0.1907782
vn 0.8843779 0.4667717 0
vn 0.7523689 0.6587421 0
vn 0.7928655 0.5976991 0.1188283
vn 0.8534437 0.433332 0.289581
vn 0.8843779 0.4667717 0
vn 0.9079401 0.4110675 0.08165872
vn 0.939176 0.2855708 0.190782
vn 0.9535566 0.1672738 0.2504981
vn 1 -1.639747E-05 0
vn 1 -1.639747E-05 0
vn 1 0 0
vn 1 0 0
vn 1 0 0
vn 1 0 0
vn 1 0 0
vn 1 0 0
vn 0.939339 -0.2851381 0.190627
vn 0.907944 -0.4110593 0.081658
vn 0.8843877 -0.4667529 0
vn 0.8951961 0.3705906 -0.2475613
vn 0.8951961 0.3705906 -0.2475613
vn 0.8951961 0.3705906 -0.2475613
vn 1 3.279522E-05 0
vn 1 3.244747E-05 0
vn 1 3.279441E-05 0
vn 1 0 0
vn 1 0 0
vn 1 0 0
vn 1 0 0
vn 1 1.121026E-05 0
vn 1 0 0
vn 1 -1.639694E-05 0
vn 0.9281373 0.07255323 0.365099
vn 0.9281373 0.07255323 0.365099
vn 0.928134 -0.07261316 0.3650953
vn 0.9186488 -0.2194971 0.3284896
vn 0.8954848 -0.3700511 0.2473242
vn 0.8470418 -0.5212905 0.103809
vn 0.8470396 -0.5212938 -0.1038113
vn 0.8470396 -0.5212938 -0.1038113
vn 0.8951957 -0.3705904 -0.2475634
vn 0.9186413 -0.2195045 -0.3285057
vn 0.9286765 -0.0723465 -0.3637662
vn 0.9286793 0.07228625 -0.363771
vn 0.998419 -0.05511957 -0.01101467
vn 0.998419 -0.05511957 -0.01101467
vn 0.998419 -0.05511957 -0.01101467
vn 0.998419 -0.05511957 -0.01101467
vn 0.9909616 -0.1115746 -0.07447185
vn 0.9932439 -0.06443626 -0.09651227
vn 0.9941338 -0.0210654 -0.1060863
vn 0.994134 0.02104694 -0.1060882
vn 0.9932457 0.06445286 -0.09648206
vn 0.985779 0.1648025 -0.03285841
vn 0.985779 0.1648025 -0.03285841
vn 0.985779 0.1648025 -0.03285841
vn 0.8120312 0.5836141 0
vn 0.8470418 0.5212904 0.1038095
vn 0.8954855 0.370052 0.2473201
vn 0.9815806 0.1910487 0
vn 0.9857855 0.1647655 0.03285082
vn 0.9909788 0.1114197 0.07447587
vn 0.9932488 0.0644772 0.09643416
vn 0.9941376 -0.02111042 0.1060407
vn 0.9941376 -0.02111042 0.1060407
vn 0.9932468 -0.06446202 0.09646434
vn 0.9909688 -0.1115115 0.07447214
vn 0.9857862 -0.1647608 0.03285204
vn 1 0 0
vn 1 0 0
vn 1 0 0
vn 1 0 0
vn 1 0 0
vn 1 0 0
vn 1 0 0
vn 1 0 0
vn 1 0 0
vn 1 0 0
vn 1 0 0
vn 1 0 0
vn 1 0 0
vn 1 0 0
vn 1 0 0
vn 1 0 0
vn 0 -0.8317469 -0.555155
vn 0 -0.8317469 -0.555155
vn 0 -0.5554744 -0.8315337
vn 0 0.555475 -0.8315331
vn 0 0.8317476 -0.5551539
vn 0 0.8317476 -0.5551539
vn 0 0.9806835 -0.1956014
vn 0 -0.1948246 0.9808381
vn 0 -0.1948246 0.9808381
vn 0 -0.1948246 0.9808381
vn 0 -0.5554709 0.831536
vn 0 -0.5554709 0.831536
vn 0 -0.8315344 0.5554732
g LogiPen_LGrip_0
f 3/3/3 2/2/2 1/1/1
f 4/4/4 3/3/3 1/1/1
f 5/5/5 1/1/1 2/2/2
f 6/6/6 5/5/5 2/2/2
f 7/7/7 5/5/5 6/6/6
f 8/8/8 7/7/7 6/6/6
f 3/3/3 4/4/4 9/9/9
f 4/4/4 10/10/10 9/9/9
f 11/11/11 1/1/1 5/5/5
f 12/12/12 11/11/11 5/5/5
f 12/12/12 5/5/5 7/7/7
f 13/13/13 12/12/12 7/7/7
f 13/13/13 7/7/7 14/14/14
f 15/15/15 13/13/13 14/14/14
f 15/15/15 14/14/14 16/16/16
f 16/16/16 14/14/14 17/17/17
f 18/18/18 16/16/16 17/17/17
f 19/19/19 16/16/16 18/18/18
f 20/20/20 19/19/19 18/18/18
f 21/21/21 19/19/19 20/20/20
f 22/22/22 21/21/21 20/20/20
f 23/23/23 19/19/19 21/21/21
f 24/24/24 23/23/23 21/21/21
f 25/25/25 15/15/15 16/16/16
f 25/25/25 16/16/16 19/19/19
f 23/23/23 25/25/25 19/19/19
f 24/24/24 21/21/21 26/26/26
f 27/27/27 24/24/24 26/26/26
f 27/27/27 26/26/26 28/28/28
f 29/29/29 27/27/27 28/28/28
f 30/30/30 27/27/27 29/29/29
f 31/31/31 30/30/30 29/29/29
f 29/29/29 28/28/28 32/32/32
f 33/33/33 29/29/29 32/32/32
f 31/31/31 29/29/29 33/33/33
f 33/33/33 32/32/32 34/34/34
f 34/34/34 32/32/32 35/35/35
f 36/36/36 34/34/34 35/35/35
f 37/37/37 34/34/34 36/36/36
f 38/38/38 37/37/37 36/36/36
f 39/39/39 37/37/37 38/38/38
f 40/40/40 39/39/39 38/38/38
f 41/41/41 39/39/39 40/40/40
f 42/42/42 41/41/41 40/40/40
f 35/35/35 32/32/32 43/43/43
f 32/32/32 44/44/44 43/43/43
f 45/45/45 37/37/37 39/39/39
f 46/46/46 45/45/45 39/39/39
f 47/47/47 33/33/33 34/34/34
f 47/47/47 34/34/34 37/37/37
f 45/45/45 47/47/47 37/37/37
f 46/46/46 39/39/39 48/48/48
f 49/49/49 46/46/46 48/48/48
f 49/49/49 48/48/48 50/50/50
f 51/51/51 49/49/49 50/50/50
f 51/51/51 50/50/50 52/52/52
f 52/52/52 50/50/50 53/53/53
f 54/54/54 52/52/52 53/53/53
f 55/55/55 51/51/51 52/52/52
f 55/55/55 52/52/52 10/10/10
f 56/56/56 55/55/55 10/10/10
f 56/56/56 10/10/10 4/4/4
f 57/57/57 56/56/56 4/4/4
f 57/57/57 4/4/4 1/1/1
f 11/11/11 57/57/57 1/1/1
f 58/58/58 46/46/46 49/49/49
f 59/59/59 58/58/58 49/49/49
f 59/59/59 49/49/49 51/51/51
f 60/60/60 59/59/59 51/51/51
f 60/60/60 51/51/51 55/55/55
f 61/61/61 59/59/59 60/60/60
f 62/62/62 61/61/61 60/60/60
f 63/63/63 60/60/60 55/55/55
f 63/63/63 55/55/55 56/56/56
f 62/62/62 60/60/60 63/63/63
f 64/64/64 63/63/63 56/56/56
f 64/64/64 56/56/56 57/57/57
f 65/65/65 64/64/64 57/57/57
f 65/65/65 57/57/57 11/11/11
f 66/66/66 65/65/65 11/11/11
f 66/66/66 11/11/11 12/12/12
f 67/67/67 66/66/66 12/12/12
f 67/67/67 12/12/12 13/13/13
f 68/68/68 67/67/67 13/13/13
f 68/68/68 13/13/13 15/15/15
f 69/69/69 68/68/68 15/15/15
f 69/69/69 15/15/15 25/25/25
f 70/70/70 69/69/69 25/25/25
f 70/70/70 25/25/25 23/23/23
f 71/71/71 70/70/70 23/23/23
f 71/71/71 23/23/23 24/24/24
f 72/72/72 71/71/71 24/24/24
f 72/72/72 24/24/24 27/27/27
f 30/30/30 72/72/72 27/27/27
f 73/73/73 67/67/67 68/68/68
f 74/74/74 73/73/73 68/68/68
f 74/74/74 68/68/68 69/69/69
f 75/75/75 74/74/74 69/69/69
f 75/75/75 69/69/69 70/70/70
f 76/76/76 75/75/75 70/70/70
f 76/76/76 70/70/70 71/71/71
f 77/77/77 76/76/76 71/71/71
f 77/77/77 71/71/71 72/72/72
f 78/78/78 77/77/77 72/72/72
f 78/78/78 72/72/72 30/30/30
f 79/79/79 78/78/78 30/30/30
f 79/79/79 30/30/30 31/31/31
f 80/80/80 79/79/79 31/31/31
f 80/80/80 31/31/31 81/81/81
f 81/81/81 31/31/31 33/33/33
f 81/81/81 33/33/33 47/47/47
f 82/82/82 81/81/81 47/47/47
f 82/82/82 47/47/47 45/45/45
f 83/83/83 82/82/82 45/45/45
f 83/83/83 45/45/45 46/46/46
f 58/58/58 83/83/83 46/46/46
f 84/84/84 80/80/80 81/81/81
f 84/84/84 81/81/81 82/82/82
f 85/85/85 84/84/84 82/82/82
f 85/85/85 82/82/82 83/83/83
f 86/86/86 85/85/85 83/83/83
f 86/86/86 83/83/83 58/58/58
f 87/87/87 86/86/86 58/58/58
f 87/87/87 58/58/58 59/59/59
f 61/61/61 87/87/87 59/59/59
f 88/88/88 84/84/84 85/85/85
f 89/89/89 88/88/88 85/85/85
f 89/89/89 85/85/85 86/86/86
f 90/90/90 89/89/89 86/86/86
f 90/90/90 86/86/86 87/87/87
f 91/91/91 90/90/90 87/87/87
f 91/91/91 87/87/87 61/61/61
f 92/92/92 91/91/91 61/61/61
f 92/92/92 61/61/61 62/62/62
f 93/93/93 92/92/92 62/62/62
f 93/93/93 62/62/62 94/94/94
f 95/95/95 93/93/93 94/94/94
f 94/94/94 62/62/62 63/63/63
f 94/94/94 63/63/63 64/64/64
f 96/96/96 94/94/94 64/64/64
f 95/95/95 94/94/94 96/96/96
f 96/96/96 64/64/64 65/65/65
f 97/97/97 96/96/96 65/65/65
f 97/97/97 65/65/65 66/66/66
f 98/98/98 97/97/97 66/66/66
f 98/98/98 66/66/66 67/67/67
f 73/73/73 98/98/98 67/67/67
f 99/99/99 95/95/95 96/96/96
f 99/99/99 96/96/96 97/97/97
f 100/100/100 95/95/95 99/99/99
f 101/101/101 100/100/100 99/99/99
f 102/102/102 99/99/99 97/97/97
f 102/102/102 97/97/97 98/98/98
f 101/101/101 99/99/99 102/102/102
f 103/103/103 102/102/102 98/98/98
f 103/103/103 98/98/98 73/73/73
f 104/104/104 103/103/103 73/73/73
f 104/104/104 73/73/73 74/74/74
f 105/105/105 104/104/104 74/74/74
f 105/105/105 74/74/74 75/75/75
f 106/106/106 105/105/105 75/75/75
f 106/106/106 75/75/75 76/76/76
f 107/107/107 106/106/106 76/76/76
f 107/107/107 76/76/76 77/77/77
f 108/108/108 107/107/107 77/77/77
f 108/108/108 77/77/77 78/78/78
f 109/109/109 108/108/108 78/78/78
f 109/109/109 78/78/78 79/79/79
f 110/110/110 109/109/109 79/79/79
f 110/110/110 79/79/79 80/80/80
f 111/111/111 110/110/110 80/80/80
f 111/111/111 80/80/80 84/84/84
f 88/88/88 111/111/111 84/84/84
f 112/112/112 106/106/106 107/107/107
f 113/113/113 112/112/112 107/107/107
f 113/113/113 107/107/107 108/108/108
f 114/114/114 113/113/113 108/108/108
f 114/114/114 108/108/108 109/109/109
f 115/115/115 114/114/114 109/109/109
f 115/115/115 109/109/109 110/110/110
f 116/116/116 115/115/115 110/110/110
f 116/116/116 110/110/110 111/111/111
f 117/117/117 116/116/116 111/111/111
f 117/117/117 111/111/111 88/88/88
f 118/118/118 117/117/117 88/88/88
f 118/118/118 88/88/88 89/89/89
f 119/119/119 118/118/118 89/89/89
f 119/119/119 89/89/89 90/90/90
f 120/120/120 119/119/119 90/90/90
f 120/120/120 90/90/90 91/91/91
f 121/121/121 120/120/120 91/91/91
f 121/121/121 91/91/91 92/92/92
f 122/122/122 121/121/121 92/92/92
f 122/122/122 92/92/92 93/93/93
f 123/123/123 122/122/122 93/93/93
f 123/123/123 93/93/93 95/95/95
f 100/100/100 123/123/123 95/95/95
f 124/124/124 118/118/118 119/119/119
f 125/125/125 124/124/124 119/119/119
f 125/125/125 119/119/119 120/120/120
f 126/126/126 124/124/124 125/125/125
f 127/127/127 126/126/126 125/125/125
f 128/128/128 125/125/125 120/120/120
f 128/128/128 120/120/120 121/121/121
f 127/127/127 125/125/125 128/128/128
f 129/129/129 128/128/128 121/121/121
f 129/129/129 121/121/121 122/122/122
f 130/130/130 129/129/129 122/122/122
f 130/130/130 122/122/122 123/123/123
f 131/131/131 130/130/130 123/123/123
f 131/131/131 123/123/123 100/100/100
f 132/132/132 131/131/131 100/100/100
f 132/132/132 100/100/100 101/101/101
f 133/133/133 132/132/132 101/101/101
f 133/133/133 101/101/101 134/134/134
f 135/135/135 133/133/133 134/134/134
f 134/134/134 101/101/101 102/102/102
f 134/134/134 102/102/102 103/103/103
f 136/136/136 134/134/134 103/103/103
f 135/135/135 134/134/134 136/136/136
f 136/136/136 103/103/103 104/104/104
f 137/137/137 136/136/136 104/104/104
f 137/137/137 104/104/104 105/105/105
f 138/138/138 137/137/137 105/105/105
f 138/138/138 105/105/105 106/106/106
f 112/112/112 138/138/138 106/106/106
f 139/139/139 135/135/135 136/136/136
f 139/139/139 136/136/136 137/137/137
f 140/140/140 139/139/139 137/137/137
f 140/140/140 137/137/137 138/138/138
f 141/141/141 140/140/140 138/138/138
f 141/141/141 138/138/138 112/112/112
f 142/142/142 141/141/141 112/112/112
f 142/142/142 112/112/112 113/113/113
f 143/143/143 142/142/142 113/113/113
f 143/143/143 113/113/113 114/114/114
f 144/144/144 143/143/143 114/114/114
f 144/144/144 114/114/114 115/115/115
f 145/145/145 144/144/144 115/115/115
f 145/145/145 115/115/115 116/116/116
f 146/146/146 145/145/145 116/116/116
f 146/146/146 116/116/116 117/117/117
f 147/147/147 146/146/146 117/117/117
f 147/147/147 117/117/117 118/118/118
f 124/124/124 147/147/147 118/118/118
f 148/148/148 144/144/144 145/145/145
f 149/149/149 148/148/148 145/145/145
f 149/149/149 145/145/145 146/146/146
f 148/148/148 149/149/149 150/150/150
f 148/148/148 150/150/150 151/151/151
f 152/152/152 148/148/148 151/151/151
f 152/152/152 143/143/143 144/144/144
f 148/148/148 152/152/152 144/144/144
f 152/152/152 151/151/151 153/153/153
f 154/154/154 152/152/152 153/153/153
f 154/154/154 153/153/153 155/155/155
f 156/156/156 154/154/154 155/155/155
f 156/156/156 155/155/155 157/157/157
f 158/158/158 156/156/156 157/157/157
f 158/158/158 157/157/157 159/159/159
f 159/159/159 160/160/160 158/158/158
f 149/149/149 161/161/161 150/150/150
f 149/149/149 162/162/162 161/161/161
f 162/162/162 127/127/127 161/161/161
f 162/162/162 163/163/163 127/127/127
f 163/163/163 126/126/126 127/127/127
f 161/161/161 127/127/127 128/128/128
f 160/160/160 159/159/159 139/139/139
f 159/159/159 135/135/135 139/139/139
f 159/159/159 157/157/157 135/135/135
f 161/161/161 128/128/128 129/129/129
f 150/150/150 161/161/161 129/129/129
f 163/163/163 162/162/162 147/147/147
f 162/162/162 146/146/146 147/147/147
f 162/162/162 149/149/149 146/146/146
f 160/160/160 139/139/139 140/140/140
f 158/158/158 160/160/160 140/140/140
f 150/150/150 129/129/129 130/130/130
f 151/151/151 150/150/150 130/130/130
f 151/151/151 130/130/130 131/131/131
f 153/153/153 151/151/151 131/131/131
f 158/158/158 140/140/140 141/141/141
f 156/156/156 158/158/158 141/141/141
f 153/153/153 131/131/131 132/132/132
f 155/155/155 153/153/153 132/132/132
f 156/156/156 141/141/141 142/142/142
f 154/154/154 156/156/156 142/142/142
f 155/155/155 132/132/132 133/133/133
f 157/157/157 155/155/155 133/133/133
f 154/154/154 142/142/142 143/143/143
f 152/152/152 154/154/154 143/143/143
f 157/157/157 133/133/133 135/135/135
f 14/14/14 165/165/165 164/164/164
f 166/166/166 14/14/14 164/164/164
f 168/168/168 167/167/167 22/22/22
f 169/169/169 168/168/168 22/22/22
f 44/44/44 168/168/168 169/169/169
f 170/170/170 44/44/44 169/169/169
f 50/50/50 172/172/172 171/171/171
f 173/173/173 50/50/50 171/171/171
f 10/10/10 175/175/175 174/174/174
f 176/176/176 10/10/10 174/174/174
f 163/163/163 147/147/147 124/124/124
f 126/126/126 163/163/163 124/124/124
