g MoonLightWidget
v 0.02323321 0.08370733 -0.02172937
v 0.02130386 0.08586978 1.258854E-09
v 0.01450824 0.03495194 1.258854E-09
v 0.01651803 0.03353208 -0.02172937
v 0.02323321 0.08370733 0.02172937
v 0.01651803 0.03353207 0.02172937
v -0.002549627 -0.01114595 0.02172937
v -0.004896757 -0.01031313 1.07259E-09
v -0.03543833 -0.04831784 1.258854E-09
v -0.03235291 -0.04871 0.02172937
v -0.07564361 -0.07745447 1.258854E-09
v -0.07127507 -0.07754322 0.02172937
v -0.1176993 -0.0960288 0.02172937
v -0.1240398 -0.0961154 1.258854E-09
v -0.1700087 -0.10255 0.02172937
v -0.1791541 -0.102693 1.258854E-09
v -0.1581668 -0.129195 1.258854E-09
v -0.1508548 -0.1265435 0.02172937
v -0.1342053 -0.1515764 1.07259E-09
v -0.1285319 -0.1470448 0.02172937
v -0.1033635 -0.1636656 0.02172937
v -0.1075591 -0.1695261 1.258854E-09
v -0.1285319 -0.1470448 -0.02172937
v -0.1033635 -0.1636656 -0.02172937
v -0.07567281 -0.1760181 0.02172937
v -0.07851785 -0.1827326 1.07259E-09
v -0.0473712 -0.1908847 1.258854E-09
v -0.04578326 -0.1837142 0.02172937
v -0.01440868 -0.1936712 1.258854E-09
v -0.01401823 -0.1863658 0.02172937
v 0.03534858 -0.1796829 0.02172937
v 0.03677656 -0.1867027 1.258854E-09
v 0.07980027 -0.1608416 0.02172937
v 0.08293875 -0.1670706 1.07259E-09
v 0.1221677 -0.1366849 1.258854E-09
v 0.117526 -0.1316526 0.02172937
v 0.1467149 -0.09392695 0.02172937
v 0.1525534 -0.09745587 1.258854E-09
v 0.117526 -0.1316526 -0.02172937
v 0.1467149 -0.09392697 -0.02172937
v 0.1655562 -0.04947531 0.02172937
v 0.1721856 -0.0512937 1.258854E-09
v 0.1791541 -0.0001085032 1.258854E-09
v 0.172239 -0.0001085051 0.02172937
v 0.1725339 0.04990605 1.258854E-09
v 0.1659119 0.04812653 0.02172937
v 0.1480084 0.09164047 0.02172937
v 0.1537248 0.09510382 1.258854E-09
v 0.1201452 0.1288165 0.02172937
v 0.1243043 0.133782 1.258854E-09
v 0.08584984 0.1642379 1.258854E-09
v 0.08393929 0.1580378 0.02172937
v 0.03993883 0.1847686 1.258854E-09
v 0.04100743 0.1776874 0.02172937
v -0.007033606 0.1861488 0.02172937
v -0.01185131 0.1936713 1.258854E-09
v 0.04100743 0.1776874 -0.02172937
v -0.007033606 0.1861488 -0.02172937
v 0.1659119 0.04812653 -0.02172937
v 0.1480084 0.09164047 -0.02172937
v 0.08393929 0.1580378 -0.02172937
v 0.1201452 0.1288165 -0.02172937
v 0.001675667 0.1706381 0.02172937
v -0.01185131 0.1936713 1.258854E-09
v -0.001953219 0.176218 1.258854E-09
v 0.006270437 0.1586446 1.07259E-09
v 0.009091487 0.1544161 0.02172937
v 0.0127638 0.1408872 1.258854E-09
v 0.01508448 0.1375473 0.02172937
v 0.01952533 0.1200964 0.02172937
v 0.01747105 0.1228815 1.258854E-09
v 0.02228468 0.1021283 0.02172937
v 0.02033636 0.1045638 1.258854E-09
v 0.02130386 0.08586978 1.258854E-09
v 0.02323321 0.08370733 0.02172937
v 0.01508448 0.1375473 -0.02172937
v 0.01952533 0.1200964 -0.02172937
v 0.02228468 0.1021282 -0.02172937
v 0.02323321 0.08370733 -0.02172937
v 0.009091487 0.1544161 -0.02172937
v 0.001675667 0.1706381 -0.02172937
v 0.172239 -0.0001085069 -0.02172937
v 0.1655562 -0.04947527 -0.02172937
v -0.01401823 -0.1863658 -0.02172937
v 0.03534859 -0.1796829 -0.02172937
v 0.07980027 -0.1608416 -0.02172937
v -0.04578326 -0.1837142 -0.02172937
v -0.0756728 -0.1760181 -0.02172937
v -0.07127507 -0.07754319 -0.02172937
v -0.1176993 -0.0960288 -0.02172937
v -0.1700087 -0.10255 -0.02172937
v -0.1508548 -0.1265435 -0.02172937
v -0.03235291 -0.04871 -0.02172937
v -0.002549627 -0.01114595 -0.02172937
v 0.03534858 -0.1796829 0.02172937
v -0.01401823 -0.1863658 0.02172937
v 0.01651803 0.03353207 0.02172937
v 0.02323321 0.08370733 0.02172937
v -0.002549627 -0.01114595 0.02172937
v -0.03235291 -0.04871 0.02172937
v -0.04578326 -0.1837142 0.02172937
v -0.07127507 -0.07754322 0.02172937
v -0.07567281 -0.1760181 0.02172937
v -0.1176993 -0.0960288 0.02172937
v -0.1033635 -0.1636656 0.02172937
v -0.1285319 -0.1470448 0.02172937
v -0.1700087 -0.10255 0.02172937
v -0.1508548 -0.1265435 0.02172937
v 0.04100743 0.1776874 0.02172937
v 0.07980027 -0.1608416 0.02172937
v 0.08393929 0.1580378 0.02172937
v 0.117526 -0.1316526 0.02172937
v 0.1201452 0.1288165 0.02172937
v 0.1467149 -0.09392695 0.02172937
v 0.1480084 0.09164047 0.02172937
v 0.1655562 -0.04947531 0.02172937
v 0.1659119 0.04812653 0.02172937
v 0.172239 -0.0001085051 0.02172937
v 0.02228468 0.1021283 0.02172937
v 0.01952533 0.1200964 0.02172937
v 0.01508448 0.1375473 0.02172937
v 0.009091487 0.1544161 0.02172937
v 0.001675667 0.1706381 0.02172937
v -0.007033606 0.1861488 0.02172937
v 0.03534859 -0.1796829 -0.02172937
v 0.02323321 0.08370733 -0.02172937
v 0.01651803 0.03353208 -0.02172937
v -0.01401823 -0.1863658 -0.02172937
v -0.002549627 -0.01114595 -0.02172937
v -0.03235291 -0.04871 -0.02172937
v -0.04578326 -0.1837142 -0.02172937
v -0.07127507 -0.07754319 -0.02172937
v -0.0756728 -0.1760181 -0.02172937
v -0.1176993 -0.0960288 -0.02172937
v -0.1033635 -0.1636656 -0.02172937
v -0.1285319 -0.1470448 -0.02172937
v -0.1700087 -0.10255 -0.02172937
v -0.1508548 -0.1265435 -0.02172937
v 0.04100743 0.1776874 -0.02172937
v 0.07980027 -0.1608416 -0.02172937
v 0.08393929 0.1580378 -0.02172937
v 0.117526 -0.1316526 -0.02172937
v 0.1201452 0.1288165 -0.02172937
v 0.1467149 -0.09392697 -0.02172937
v 0.1480084 0.09164047 -0.02172937
v 0.1655562 -0.04947527 -0.02172937
v 0.1659119 0.04812653 -0.02172937
v 0.172239 -0.0001085069 -0.02172937
v 0.02228468 0.1021282 -0.02172937
v 0.01952533 0.1200964 -0.02172937
v 0.01508448 0.1375473 -0.02172937
v 0.009091487 0.1544161 -0.02172937
v 0.001675667 0.1706381 -0.02172937
v -0.007033606 0.1861488 -0.02172937
vt 1 1
vt 1 0.5
vt 0.9666666 0.5
vt 0.9666666 1
vt 1 0
vt 0.9666666 0
vt 0.9333333 0
vt 0.9333333 0.5
vt 0.9 0.5
vt 0.9 0
vt 0.8666667 0.5
vt 0.8666667 0
vt 0.8333333 0
vt 0.8333333 0.5
vt 0.8 0
vt 0.8 0.5
vt 0.7666667 0.5
vt 0.7666667 0
vt 0.7333333 0.5
vt 0.7333333 0
vt 0.7 0
vt 0.7 0.5
vt 0.7333333 1
vt 0.7 1
vt 0.6666667 0
vt 0.6666667 0.5
vt 0.6333333 0.5
vt 0.6333333 0
vt 0.6 0.5
vt 0.6 0
vt 0.5666667 0
vt 0.5666667 0.5
vt 0.5333334 0
vt 0.5333334 0.5
vt 0.5 0.5
vt 0.5 0
vt 0.4666667 0
vt 0.4666667 0.5
vt 0.5 1
vt 0.4666667 1
vt 0.4333333 0
vt 0.4333333 0.5
vt 0.4 0.5
vt 0.4 0
vt 0.3666667 0.5
vt 0.3666667 0
vt 0.3333333 0
vt 0.3333333 0.5
vt 0.3 0
vt 0.3 0.5
vt 0.2666667 0.5
vt 0.2666667 0
vt 0.2333333 0.5
vt 0.2333333 0
vt 0.2 0
vt 0.2 0.5
vt 0.2333333 1
vt 0.2 1
vt 0.3666667 1
vt 0.3333333 1
vt 0.2666667 1
vt 0.3 1
vt 0.1666667 0
vt 0.2 0.5
vt 0.1666667 0.5
vt 0.1333333 0.5
vt 0.1333333 0
vt 0.1 0.5
vt 0.1 0
vt 0.06666667 0
vt 0.06666667 0.5
vt 0.03333334 0
vt 0.03333334 0.5
vt 0 0.5
vt 0 0
vt 0.1 1
vt 0.06666667 1
vt 0.03333334 1
vt 0 1
vt 0.1333333 1
vt 0.1666667 1
vt 0.4 1
vt 0.4333333 1
vt 0.6 1
vt 0.5666667 1
vt 0.5333334 1
vt 0.6333333 1
vt 0.6666667 1
vt 0.8666667 1
vt 0.8333333 1
vt 0.8 1
vt 0.7666667 1
vt 0.9 1
vt 0.9333333 1
vt 0.3999747 0.01793981
vt 0.5442176 0
vt 0.454995 0.5903068
vt 0.4353741 0.7250001
vt 0.510708 0.4703704
vt 0.597789 0.3695313
vt 0.6370306 0.007118106
vt 0.7115141 0.2921297
vt 0.7243637 0.02777779
vt 0.8471591 0.2425059
vt 0.805272 0.06093752
vt 0.8788106 0.1055556
vt 0.9999999 0.2250001
vt 0.9440348 0.1605904
vt 0.3834404 0.9772859
vt 0.2700931 0.06851852
vt 0.2579995 0.9245371
vt 0.1598639 0.146875
vt 0.1522109 0.8460938
vt 0.07457793 0.2481482
vt 0.0707987 0.7462963
vt 0.0195263 0.3674769
vt 0.01848704 0.6294849
vt 0 0.4999999
vt 0.4381456 0.7744503
vt 0.4462081 0.8226852
vt 0.4591836 0.8695313
vt 0.4766943 0.9148148
vt 0.4983623 0.9583622
vt 0.5238096 1
vt 0.3999747 0.01793981
vt 0.4353741 0.7250001
vt 0.454995 0.5903068
vt 0.5442176 0
vt 0.510708 0.4703704
vt 0.597789 0.3695313
vt 0.6370306 0.007118106
vt 0.7115141 0.2921297
vt 0.7243637 0.02777779
vt 0.8471591 0.2425059
vt 0.805272 0.06093752
vt 0.8788106 0.1055556
vt 0.9999999 0.2250001
vt 0.9440348 0.1605904
vt 0.3834404 0.9772859
vt 0.2700931 0.06851852
vt 0.2579995 0.9245371
vt 0.1598639 0.146875
vt 0.1522109 0.8460938
vt 0.07457793 0.2481482
vt 0.0707987 0.7462963
vt 0.0195263 0.3674769
vt 0.01848704 0.6294849
vt 0 0.4999999
vt 0.4381456 0.7744503
vt 0.4462081 0.8226852
vt 0.4591836 0.8695313
vt 0.4766943 0.9148148
vt 0.4983623 0.9583622
vt 0.5238096 1
vn -0.01333131 0.001175631 -0.9999105
vn -0.9968625 0.07915337 0
vn -0.9657638 0.2594228 0
vn -0.01835012 0.005058909 -0.9998189
vn -0.0133313 0.001175632 0.9999105
vn -0.01835012 0.00505891 0.9998189
vn -0.01591645 0.009461452 0.9998286
vn -0.8576268 0.5142726 0
vn -0.68617 0.7274412 0
vn -0.01290317 0.01327506 0.9998286
vn -0.4674405 0.8840246 0
vn -0.009338276 0.01651623 0.9998201
vn -0.005232306 0.01922069 0.9998016
vn -0.2198478 0.9755342 0
vn -0.02023068 0.02393036 0.999509
vn -0.7509637 0.6603434 0
vn -0.7382323 -0.6745465 0
vn -0.008770124 -0.008220484 0.9999278
vn -0.6225206 -0.7826034 0
vn -0.007303354 -0.009319956 0.9999299
vn -0.005690583 -0.01031999 0.9999306
vn -0.4862058 -0.8738444 -5.276491E-07
vn -0.007303362 -0.009319955 -0.9999299
vn -0.00569059 -0.01031999 -0.9999306
vn -0.003927321 -0.01120907 0.9999294
vn -0.3326698 -0.9430434 0
vn -0.1677134 -0.9858358 0
vn -0.002016094 -0.01197386 0.9999263
vn 0.04792645 -0.9988508 0
vn 0.0008265346 -0.01610464 0.9998699
vn 0.005195299 -0.01892444 0.9998074
vn 0.2612785 -0.9652635 0
vn 0.009697247 -0.01651484 0.9998166
vn 0.5036114 -0.8639303 0
vn 0.7064001 -0.7078127 0
vn 0.01345585 -0.01343024 0.9998193
vn 0.016529 -0.009664079 0.9998167
vn 0.8629404 -0.5053058 0
vn 0.01345584 -0.01343024 -0.9998193
vn 0.016529 -0.009664084 -0.9998167
vn 0.01892497 -0.005160244 0.9998077
vn 0.9647852 -0.263039 0
vn 0.9999939 -0.003492421 0
vn 0.01967098 -7.067268E-05 0.9998066
vn 0.9664901 0.2567035 0
vn 0.01845956 0.004902122 0.9998177
vn 0.01620012 0.009239184 0.9998261
vn 0.8680668 0.4964473 0
vn 0.01333445 0.01292068 0.9998276
vn 0.7149429 0.6991829 0
vn 0.5163824 0.8563582 0
vn 0.009888906 0.01598939 0.9998233
vn 0.2811173 0.9596734 0
vn 0.005852708 0.01847509 0.9998122
vn -0.006515962 0.02905676 0.9995565
vn -0.146787 0.989168 0
vn 0.0058527 0.01847509 -0.9998122
vn -0.006515973 0.02905675 -0.9995565
vn 0.01845955 0.004902121 -0.9998177
vn 0.01620011 0.009239184 -0.9998261
vn 0.009888905 0.0159894 -0.9998233
vn 0.01333444 0.01292067 -0.9998276
vn -0.006104559 -0.003073323 0.9999766
vn -0.146787 0.989168 0
vn -0.886283 -0.4631441 0
vn -0.9225109 -0.3859711 0
vn -0.00625869 -0.002527017 0.9999772
vn -0.9539485 -0.2999706 0
vn -0.006415165 -0.001943517 0.9999776
vn -0.006572343 -0.001322504 0.9999776
vn -0.9785341 -0.2060847 0
vn -0.006728683 -0.0006647503 0.9999771
vn -0.9943596 -0.1060616 0
vn -0.9968625 0.07915337 0
vn -0.0133313 0.001175632 0.9999105
vn -0.006415172 -0.001943517 -0.9999776
vn -0.006572355 -0.001322503 -0.9999776
vn -0.006728686 -0.00066475 -0.9999771
vn -0.01333131 0.001175631 -0.9999105
vn -0.006258699 -0.002527018 -0.9999772
vn -0.006104568 -0.003073323 -0.9999766
vn 0.01967098 -7.067301E-05 -0.9998066
vn 0.01892497 -0.005160241 -0.9998077
vn 0.0008265267 -0.01610464 -0.9998699
vn 0.005195291 -0.01892444 -0.9998074
vn 0.00969724 -0.01651484 -0.9998166
vn -0.002016103 -0.01197385 -0.9999263
vn -0.003927325 -0.01120905 -0.9999294
vn -0.009338283 0.01651623 -0.9998201
vn -0.005232318 0.0192207 -0.9998016
vn -0.02023069 0.02393036 -0.999509
vn -0.008770134 -0.008220484 -0.9999278
vn -0.01290317 0.01327506 -0.9998286
vn -0.01591646 0.009461454 -0.9998286
vn 0.005195299 -0.01892444 0.9998074
vn 0.0008265346 -0.01610464 0.9998699
vn -0.01835012 0.00505891 0.9998189
vn -0.0133313 0.001175632 0.9999105
vn -0.01591645 0.009461452 0.9998286
vn -0.01290317 0.01327506 0.9998286
vn -0.002016094 -0.01197386 0.9999263
vn -0.009338276 0.01651623 0.9998201
vn -0.003927321 -0.01120907 0.9999294
vn -0.005232306 0.01922069 0.9998016
vn -0.005690583 -0.01031999 0.9999306
vn -0.007303354 -0.009319956 0.9999299
vn -0.02023068 0.02393036 0.999509
vn -0.008770124 -0.008220484 0.9999278
vn 0.005852708 0.01847509 0.9998122
vn 0.009697247 -0.01651484 0.9998166
vn 0.009888906 0.01598939 0.9998233
vn 0.01345585 -0.01343024 0.9998193
vn 0.01333445 0.01292068 0.9998276
vn 0.016529 -0.009664079 0.9998167
vn 0.01620012 0.009239184 0.9998261
vn 0.01892497 -0.005160244 0.9998077
vn 0.01845956 0.004902122 0.9998177
vn 0.01967098 -7.067268E-05 0.9998066
vn -0.006728683 -0.0006647503 0.9999771
vn -0.006572343 -0.001322504 0.9999776
vn -0.006415165 -0.001943517 0.9999776
vn -0.00625869 -0.002527017 0.9999772
vn -0.006104559 -0.003073323 0.9999766
vn -0.006515962 0.02905676 0.9995565
vn 0.005195291 -0.01892444 -0.9998074
vn -0.01333131 0.001175631 -0.9999105
vn -0.01835012 0.005058909 -0.9998189
vn 0.0008265267 -0.01610464 -0.9998699
vn -0.01591646 0.009461454 -0.9998286
vn -0.01290317 0.01327506 -0.9998286
vn -0.002016103 -0.01197385 -0.9999263
vn -0.009338283 0.01651623 -0.9998201
vn -0.003927325 -0.01120905 -0.9999294
vn -0.005232318 0.0192207 -0.9998016
vn -0.00569059 -0.01031999 -0.9999306
vn -0.007303362 -0.009319955 -0.9999299
vn -0.02023069 0.02393036 -0.999509
vn -0.008770134 -0.008220484 -0.9999278
vn 0.0058527 0.01847509 -0.9998122
vn 0.00969724 -0.01651484 -0.9998166
vn 0.009888905 0.0159894 -0.9998233
vn 0.01345584 -0.01343024 -0.9998193
vn 0.01333444 0.01292067 -0.9998276
vn 0.016529 -0.009664084 -0.9998167
vn 0.01620011 0.009239184 -0.9998261
vn 0.01892497 -0.005160241 -0.9998077
vn 0.01845955 0.004902121 -0.9998177
vn 0.01967098 -7.067301E-05 -0.9998066
vn -0.006728686 -0.00066475 -0.9999771
vn -0.006572355 -0.001322503 -0.9999776
vn -0.006415172 -0.001943517 -0.9999776
vn -0.006258699 -0.002527018 -0.9999772
vn -0.006104568 -0.003073323 -0.9999766
vn -0.006515973 0.02905675 -0.9995565
g MoonLightWidget_0
f 3/3/3 2/2/2 1/1/1
f 4/4/4 3/3/3 1/1/1
f 2/2/2 3/3/3 5/5/5
f 3/3/3 6/6/6 5/5/5
f 6/6/6 3/3/3 7/7/7
f 3/3/3 8/8/8 7/7/7
f 8/8/8 9/9/9 7/7/7
f 9/9/9 10/10/10 7/7/7
f 10/10/10 9/9/9 11/11/11
f 12/12/12 10/10/10 11/11/11
f 13/13/13 12/12/12 11/11/11
f 14/14/14 13/13/13 11/11/11
f 13/13/13 14/14/14 15/15/15
f 14/14/14 16/16/16 15/15/15
f 16/16/16 17/17/17 15/15/15
f 17/17/17 18/18/18 15/15/15
f 18/18/18 17/17/17 19/19/19
f 20/20/20 18/18/18 19/19/19
f 21/21/21 20/20/20 19/19/19
f 22/22/22 21/21/21 19/19/19
f 22/22/22 19/19/19 23/23/23
f 19/19/19 17/17/17 23/23/23
f 24/24/24 22/22/22 23/23/23
f 21/21/21 22/22/22 25/25/25
f 22/22/22 26/26/26 25/25/25
f 26/26/26 27/27/27 25/25/25
f 27/27/27 28/28/28 25/25/25
f 28/28/28 27/27/27 29/29/29
f 30/30/30 28/28/28 29/29/29
f 31/31/31 30/30/30 29/29/29
f 32/32/32 31/31/31 29/29/29
f 31/31/31 32/32/32 33/33/33
f 32/32/32 34/34/34 33/33/33
f 34/34/34 35/35/35 33/33/33
f 35/35/35 36/36/36 33/33/33
f 37/37/37 36/36/36 35/35/35
f 38/38/38 37/37/37 35/35/35
f 38/38/38 35/35/35 39/39/39
f 40/40/40 38/38/38 39/39/39
f 37/37/37 38/38/38 41/41/41
f 38/38/38 42/42/42 41/41/41
f 42/42/42 43/43/43 41/41/41
f 43/43/43 44/44/44 41/41/41
f 44/44/44 43/43/43 45/45/45
f 46/46/46 44/44/44 45/45/45
f 47/47/47 46/46/46 45/45/45
f 48/48/48 47/47/47 45/45/45
f 47/47/47 48/48/48 49/49/49
f 48/48/48 50/50/50 49/49/49
f 50/50/50 51/51/51 49/49/49
f 51/51/51 52/52/52 49/49/49
f 52/52/52 51/51/51 53/53/53
f 54/54/54 52/52/52 53/53/53
f 55/55/55 54/54/54 53/53/53
f 56/56/56 55/55/55 53/53/53
f 56/56/56 53/53/53 57/57/57
f 53/53/53 51/51/51 57/57/57
f 58/58/58 56/56/56 57/57/57
f 48/48/48 45/45/45 59/59/59
f 60/60/60 48/48/48 59/59/59
f 51/51/51 61/61/61 57/57/57
f 48/48/48 60/60/60 62/62/62
f 50/50/50 48/48/48 62/62/62
f 51/51/51 50/50/50 62/62/62
f 61/61/61 51/51/51 62/62/62
f 55/55/55 64/64/64 63/63/63
f 64/64/64 65/65/65 63/63/63
f 65/65/65 66/66/66 63/63/63
f 66/66/66 67/67/67 63/63/63
f 67/67/67 66/66/66 68/68/68
f 69/69/69 67/67/67 68/68/68
f 70/70/70 69/69/69 68/68/68
f 71/71/71 70/70/70 68/68/68
f 70/70/70 71/71/71 72/72/72
f 71/71/71 73/73/73 72/72/72
f 73/73/73 74/74/74 72/72/72
f 74/74/74 75/75/75 72/72/72
f 71/71/71 68/68/68 76/76/76
f 68/68/68 66/66/66 76/76/76
f 77/77/77 71/71/71 76/76/76
f 71/71/71 77/77/77 78/78/78
f 73/73/73 71/71/71 78/78/78
f 74/74/74 73/73/73 78/78/78
f 79/79/79 74/74/74 78/78/78
f 66/66/66 80/80/80 76/76/76
f 66/66/66 65/65/65 81/81/81
f 80/80/80 66/66/66 81/81/81
f 65/65/65 64/64/64 81/81/81
f 64/64/64 58/58/58 81/81/81
f 43/43/43 82/82/82 59/59/59
f 45/45/45 43/43/43 59/59/59
f 82/82/82 43/43/43 83/83/83
f 43/43/43 42/42/42 83/83/83
f 42/42/42 38/38/38 83/83/83
f 38/38/38 40/40/40 83/83/83
f 32/32/32 29/29/29 84/84/84
f 85/85/85 32/32/32 84/84/84
f 32/32/32 85/85/85 86/86/86
f 34/34/34 32/32/32 86/86/86
f 35/35/35 34/34/34 86/86/86
f 39/39/39 35/35/35 86/86/86
f 29/29/29 27/27/27 84/84/84
f 27/27/27 87/87/87 84/84/84
f 87/87/87 27/27/27 88/88/88
f 27/27/27 26/26/26 88/88/88
f 26/26/26 22/22/22 88/88/88
f 22/22/22 24/24/24 88/88/88
f 14/14/14 11/11/11 89/89/89
f 90/90/90 14/14/14 89/89/89
f 14/14/14 90/90/90 91/91/91
f 16/16/16 14/14/14 91/91/91
f 17/17/17 16/16/16 91/91/91
f 92/92/92 17/17/17 91/91/91
f 17/17/17 92/92/92 23/23/23
f 11/11/11 9/9/9 89/89/89
f 9/9/9 93/93/93 89/89/89
f 93/93/93 9/9/9 94/94/94
f 9/9/9 8/8/8 94/94/94
f 8/8/8 3/3/3 94/94/94
f 3/3/3 4/4/4 94/94/94
f 97/97/97 96/96/96 95/95/95
f 95/95/95 98/98/98 97/97/97
f 97/97/97 99/99/99 96/96/96
f 99/99/99 100/100/100 96/96/96
f 100/100/100 101/101/101 96/96/96
f 100/100/100 102/102/102 101/101/101
f 102/102/102 103/103/103 101/101/101
f 102/102/102 104/104/104 103/103/103
f 104/104/104 105/105/105 103/103/103
f 104/104/104 106/106/106 105/105/105
f 104/104/104 107/107/107 106/106/106
f 107/107/107 108/108/108 106/106/106
f 109/109/109 98/98/98 95/95/95
f 109/109/109 95/95/95 110/110/110
f 111/111/111 109/109/109 110/110/110
f 111/111/111 110/110/110 112/112/112
f 113/113/113 111/111/111 112/112/112
f 113/113/113 112/112/112 114/114/114
f 115/115/115 113/113/113 114/114/114
f 115/115/115 114/114/114 116/116/116
f 117/117/117 115/115/115 116/116/116
f 116/116/116 118/118/118 117/117/117
f 109/109/109 119/119/119 98/98/98
f 109/109/109 120/120/120 119/119/119
f 109/109/109 121/121/121 120/120/120
f 109/109/109 122/122/122 121/121/121
f 109/109/109 123/123/123 122/122/122
f 109/109/109 124/124/124 123/123/123
f 127/127/127 126/126/126 125/125/125
f 125/125/125 128/128/128 127/127/127
f 128/128/128 129/129/129 127/127/127
f 128/128/128 130/130/130 129/129/129
f 128/128/128 131/131/131 130/130/130
f 131/131/131 132/132/132 130/130/130
f 131/131/131 133/133/133 132/132/132
f 133/133/133 134/134/134 132/132/132
f 133/133/133 135/135/135 134/134/134
f 135/135/135 136/136/136 134/134/134
f 136/136/136 137/137/137 134/134/134
f 136/136/136 138/138/138 137/137/137
f 125/125/125 126/126/126 139/139/139
f 140/140/140 125/125/125 139/139/139
f 140/140/140 139/139/139 141/141/141
f 142/142/142 140/140/140 141/141/141
f 142/142/142 141/141/141 143/143/143
f 144/144/144 142/142/142 143/143/143
f 144/144/144 143/143/143 145/145/145
f 146/146/146 144/144/144 145/145/145
f 146/146/146 145/145/145 147/147/147
f 147/147/147 148/148/148 146/146/146
f 126/126/126 149/149/149 139/139/139
f 149/149/149 150/150/150 139/139/139
f 150/150/150 151/151/151 139/139/139
f 151/151/151 152/152/152 139/139/139
f 152/152/152 153/153/153 139/139/139
f 153/153/153 154/154/154 139/139/139
