g NewSketchBg
v -0.004581172 0 -0.01235115
v -0.0044 0 -0.012375
v 0.004400002 0 -0.012375
v 0.004581173 0 -0.01235115
v -0.00475 0 -0.01228122
v 0.004749998 0 -0.01228122
v -0.004894974 0 -0.01216997
v 0.004894973 0 -0.01216997
v -0.005006218 0 -0.012025
v 0.005006216 0 -0.012025
v 0.005076147 0 -0.01185617
v -0.005076149 0 -0.01185617
v -0.005100001 0 -0.011675
v 0.005100001 0 -0.011675
v -0.005100001 0 0.011675
v 0.005100001 0 0.011675
v -0.005076149 0 0.01185617
v 0.005076147 0 0.01185617
v -0.005006218 0 0.012025
v 0.005006216 0 0.012025
v 0.004894973 0 0.01216997
v -0.004894974 0 0.01216997
v -0.004749999 0 0.01228122
v 0.00475 0 0.01228122
v -0.004581172 0 0.01235115
v 0.004581173 0 0.01235115
v -0.0044 0 0.012375
v 0.004400002 0 0.012375
vt 0.9491344 0.0009636707
vt 0.9313725 0
vt 0.06862737 0
vt 0.05086548 0.0009638022
vt 0.9656865 0.003789005
vt 0.03431387 0.003789047
vt 0.9798995 0.008283271
vt 0.02010101 0.008284139
vt 0.9908056 0.01414145
vt 0.009194582 0.01414149
vt 0.002338589 0.02096276
vt 0.9976614 0.02096272
vt 1 0.02828285
vt 0 0.02828294
vt 1 0.9717171
vt 0 0.9717171
vt 0.9976615 0.9790373
vt 0.002338665 0.9790373
vt 0.9908056 0.9858586
vt 0.009194553 0.9858586
vt 0.02010106 0.9917164
vt 0.9798993 0.9917161
vt 0.9656861 0.9962108
vt 0.03431414 0.9962109
vt 0.9491345 0.9990363
vt 0.0508654 0.9990362
vt 0.9313725 1
vt 0.06862739 1
vn 0 1 0
vn 0 1 0
vn 0 1 0
vn 0 1 0
vn 0 1 0
vn 0 1 0
vn 0 1 0
vn 0 1 0
vn 0 1 0
vn 0 1 0
vn 0 1 0
vn 0 1 0
vn 0 1 0
vn 0 1 0
vn 0 1 0
vn 0 1 0
vn 0 1 0
vn 0 1 0
vn 0 1 0
vn 0 1 0
vn 0 1 0
vn 0 1 0
vn 0 1 0
vn 0 1 0
vn 0 1 0
vn 0 1 0
vn 0 1 0
vn 0 1 0
g NewSketchBg_0
f 3/3/3 2/2/2 1/1/1
f 1/1/1 4/4/4 3/3/3
f 1/1/1 5/5/5 4/4/4
f 5/5/5 6/6/6 4/4/4
f 5/5/5 7/7/7 6/6/6
f 7/7/7 8/8/8 6/6/6
f 7/7/7 9/9/9 8/8/8
f 9/9/9 10/10/10 8/8/8
f 9/9/9 11/11/11 10/10/10
f 9/9/9 12/12/12 11/11/11
f 12/12/12 13/13/13 11/11/11
f 13/13/13 14/14/14 11/11/11
f 13/13/13 15/15/15 14/14/14
f 15/15/15 16/16/16 14/14/14
f 15/15/15 17/17/17 16/16/16
f 17/17/17 18/18/18 16/16/16
f 17/17/17 19/19/19 18/18/18
f 19/19/19 20/20/20 18/18/18
f 19/19/19 21/21/21 20/20/20
f 19/19/19 22/22/22 21/21/21
f 22/22/22 23/23/23 21/21/21
f 23/23/23 24/24/24 21/21/21
f 23/23/23 25/25/25 24/24/24
f 25/25/25 26/26/26 24/24/24
f 25/25/25 27/27/27 26/26/26
f 27/27/27 28/28/28 26/26/26
