g PanelBorder_3x4_Oversized_LibraryTabBackground
v 0.2171988 -1.083144 0.003123195
v 0.2171988 1.078702 0.003123195
v 0.2171988 1.078702 -0.003079374
v 0.2171988 -1.083144 -0.003079374
v 0.21576 1.108428 0.003123195
v 0.21576 1.108428 -0.003079374
v 0.2064042 1.1345 -0.003079374
v 0.2064042 1.1345 0.003123195
v 0.1889198 1.158549 0.003123195
v 0.1889198 1.158549 -0.003079374
v 0.1669278 1.175255 0.003103361
v 0.1669278 1.175255 -0.00314808
v 0.1411307 1.18511 -0.00314808
v 0.1411307 1.18511 0.003103449
v 0.1241638 1.186978 0.003107622
v 0.1241638 1.186978 -0.00314808
v 0.2132045 -1.117978 -0.003079374
v 0.2132045 -1.117978 0.003123195
v 0.2035287 -1.13958 0.003123195
v 0.2035287 -1.13958 -0.003079374
v 0.1863635 -1.16221 -0.003079374
v 0.1863635 -1.16221 0.003123195
v 0.1618168 -1.179694 -0.003051364
v 0.1618168 -1.179694 0.003094574
v 0.1351053 -1.186496 0.003119378
v 0.1351053 -1.186496 -0.003051364
v -0.2171988 -1.186978 0.00314808
v -0.2171988 -1.186978 -0.003051364
v -0.2171988 1.186978 0.003146981
v -0.2171988 1.186978 -0.00314808
v 0.1241638 1.186978 0.003107622
v 0.1241638 1.186978 -0.00314808
v 0.21576 1.108428 0.003123195
v 0.2171988 1.078702 0.003123195
v 0.2171988 -1.083144 0.003123195
v 0.2132045 -1.117978 0.003123195
v 0.2064042 1.1345 0.003123195
v 0.2035287 -1.13958 0.003123195
v 0.1889198 1.158549 0.003123195
v 0.1863635 -1.16221 0.003123195
v 0.1669278 1.175255 0.003103361
v 0.1618168 -1.179694 0.003094574
v 0.1411307 1.18511 0.003103449
v 0.1351053 -1.186496 0.003119378
v 0.1241638 1.186978 0.003107622
v -0.2171988 -1.186978 0.00314808
v -0.2171988 1.186978 0.003146981
v 0.2132045 -1.117978 -0.003079374
v 0.2171988 -1.083144 -0.003079374
v 0.2171988 1.078702 -0.003079374
v 0.21576 1.108428 -0.003079374
v 0.2064042 1.1345 -0.003079374
v 0.2035287 -1.13958 -0.003079374
v 0.1889198 1.158549 -0.003079374
v 0.1863635 -1.16221 -0.003079374
v 0.1669278 1.175255 -0.00314808
v 0.1618168 -1.179694 -0.003051364
v 0.1411307 1.18511 -0.00314808
v 0.1351053 -1.186496 -0.003051364
v 0.1241638 1.186978 -0.00314808
v -0.2171988 -1.186978 -0.003051364
v -0.2171988 1.186978 -0.00314808
vt 0.25 0
vt 0.125 0
vt 0.125 1
vt 0.25 1
vt 0.1041667 0
vt 0.1041667 1
vt 0.08333334 1
vt 0.08333334 0
vt 0.0625 0
vt 0.0625 1
vt 0.04166667 0
vt 0.04166667 1
vt 0.02083333 1
vt 0.02083333 0
vt 0 0
vt 0 1
vt 0.2708333 1
vt 0.2708333 0
vt 0.2916667 0
vt 0.2916667 1
vt 0.3125 1
vt 0.3125 0
vt 0.3333333 1
vt 0.3333333 0
vt 0.3541667 0
vt 0.3541667 1
vt 0.5 0
vt 0.5 1
vt 0.875 0
vt 0.875 1
vt 1 0
vt 1 1
vt 0.003406286 0.9769574
vt -2.384186E-07 0.9686141
vt -2.384186E-07 0.511537
vt 0.003406286 0.5031937
vt 0.01301956 0.9844548
vt 0.01301956 0.4956965
vt 0.02793074 0.9908071
vt 0.02793074 0.4893445
vt 0.04723072 0.9957148
vt 0.04723072 0.484437
vt 0.0700109 0.9988788
vt 0.0700109 0.4812732
vt 0.09536242 1
vt 0.2475928 0.480152
vt 0.2475928 1
vt 0.003406286 0.5031937
vt -2.384186E-07 0.511537
vt -2.384186E-07 0.9686141
vt 0.003406286 0.9769574
vt 0.01301956 0.9844548
vt 0.01301956 0.4956965
vt 0.02793074 0.9908071
vt 0.02793074 0.4893445
vt 0.04723072 0.9957148
vt 0.04723072 0.484437
vt 0.0700109 0.9988788
vt 0.0700109 0.4812732
vt 0.09536242 1
vt 0.2475928 0.480152
vt 0.2475928 1
vn 0.9999983 -0.001818333 0
vn 0.9999998 0.0006565038 0
vn 0.9999998 0.0006565038 0
vn 0.9999983 -0.001818333 0
vn 0.9817963 0.1899366 0
vn 0.9817963 0.1899366 0
vn 0.8815566 0.4720782 0
vn 0.8815566 0.4720782 0
vn 0.7181066 0.6959331 0
vn 0.7180021 0.6960409 0
vn 0.4855894 0.8741869 0
vn 0.4854616 0.8742579 0
vn 0.2643591 0.9644243 0
vn 0.2643498 0.9644269 0
vn 0.005194589 0.9999865 0
vn 0.005195723 0.9999865 0
vn 0.9718947 -0.2354159 0
vn 0.9718947 -0.2354159 0
vn 0.8549108 -0.518775 0
vn 0.8549108 -0.518775 0
vn 0.693455 -0.7204999 0
vn 0.6934558 -0.7204993 0
vn 0.42844 -0.9035702 0
vn 0.4283928 -0.9035926 0
vn 0.01913281 -0.999817 0
vn 0.01914314 -0.9998168 0
vn -0.9893748 -0.1453878 0
vn -0.9893742 -0.1453914 0
vn -0.9897302 0.1429483 0
vn -0.9897282 0.1429623 0
vn 0.005194589 0.9999865 0
vn 0.005195723 0.9999865 0
vn 5.698071E-05 2.48596E-06 1
vn 5.69807E-05 2.485959E-06 1
vn 5.69807E-05 2.485959E-06 1
vn 5.698071E-05 2.485959E-06 1
vn 5.698071E-05 2.485959E-06 1
vn 5.698071E-05 2.485959E-06 1
vn 5.698071E-05 2.485959E-06 1
vn 5.698071E-05 2.48596E-06 1
vn 5.69807E-05 2.48596E-06 1
vn 5.69807E-05 2.485959E-06 1
vn 5.69807E-05 2.485959E-06 1
vn 5.69807E-05 2.485959E-06 1
vn 5.69807E-05 2.485959E-06 1
vn 5.698071E-05 2.485959E-06 1
vn 5.69807E-05 2.485959E-06 1
vn 4.612653E-05 -3.710398E-05 -1
vn 4.612653E-05 -3.710398E-05 -1
vn 4.612653E-05 -3.710398E-05 -1
vn 4.612653E-05 -3.710399E-05 -1
vn 4.612653E-05 -3.710398E-05 -1
vn 4.612653E-05 -3.710398E-05 -1
vn 4.612653E-05 -3.710398E-05 -1
vn 4.612653E-05 -3.710398E-05 -1
vn 4.612653E-05 -3.710398E-05 -1
vn 4.612653E-05 -3.710399E-05 -1
vn 4.612653E-05 -3.710398E-05 -1
vn 4.612653E-05 -3.710398E-05 -1
vn 4.612653E-05 -3.710398E-05 -1
vn 4.612653E-05 -3.710398E-05 -1
vn 4.612653E-05 -3.710398E-05 -1
g PanelBorder_3x4_Oversized_LibraryTabBackground_0
f 3/3/3 2/2/2 1/1/1
f 4/4/4 3/3/3 1/1/1
f 5/5/5 2/2/2 3/3/3
f 6/6/6 5/5/5 3/3/3
f 5/5/5 6/6/6 7/7/7
f 8/8/8 5/5/5 7/7/7
f 9/9/9 8/8/8 7/7/7
f 10/10/10 9/9/9 7/7/7
f 11/11/11 9/9/9 10/10/10
f 12/12/12 11/11/11 10/10/10
f 11/11/11 12/12/12 13/13/13
f 14/14/14 11/11/11 13/13/13
f 15/15/15 14/14/14 13/13/13
f 16/16/16 15/15/15 13/13/13
f 4/4/4 1/1/1 17/17/17
f 1/1/1 18/18/18 17/17/17
f 18/18/18 19/19/19 17/17/17
f 19/19/19 20/20/20 17/17/17
f 20/20/20 19/19/19 21/21/21
f 19/19/19 22/22/22 21/21/21
f 21/21/21 22/22/22 23/23/23
f 22/22/22 24/24/24 23/23/23
f 24/24/24 25/25/25 23/23/23
f 25/25/25 26/26/26 23/23/23
f 25/25/25 27/27/27 26/26/26
f 27/27/27 28/28/28 26/26/26
f 27/27/27 29/29/29 28/28/28
f 29/29/29 30/30/30 28/28/28
f 29/29/29 31/31/31 30/30/30
f 31/31/31 32/32/32 30/30/30
f 35/35/35 34/34/34 33/33/33
f 33/33/33 36/36/36 35/35/35
f 33/33/33 37/37/37 36/36/36
f 37/37/37 38/38/38 36/36/36
f 37/37/37 39/39/39 38/38/38
f 39/39/39 40/40/40 38/38/38
f 39/39/39 41/41/41 40/40/40
f 41/41/41 42/42/42 40/40/40
f 41/41/41 43/43/43 42/42/42
f 43/43/43 44/44/44 42/42/42
f 43/43/43 45/45/45 44/44/44
f 45/45/45 46/46/46 44/44/44
f 45/45/45 47/47/47 46/46/46
f 50/50/50 49/49/49 48/48/48
f 48/48/48 51/51/51 50/50/50
f 48/48/48 52/52/52 51/51/51
f 48/48/48 53/53/53 52/52/52
f 53/53/53 54/54/54 52/52/52
f 53/53/53 55/55/55 54/54/54
f 55/55/55 56/56/56 54/54/54
f 55/55/55 57/57/57 56/56/56
f 57/57/57 58/58/58 56/56/56
f 57/57/57 59/59/59 58/58/58
f 59/59/59 60/60/60 58/58/58
f 59/59/59 61/61/61 60/60/60
f 61/61/61 62/62/62 60/60/60
