g PanelButton_Small_Rounded
v 0.05423981 -0.02837448 0
v 0.05556244 -0.01852982 0
v 0.05556244 -0.01464096 0
v 0.05556244 -0.008006744 0
v 0.05556244 1.525879E-07 0
v 0.05556244 0.008006744 0
v 0.05556244 0.01464066 0
v 0.05556244 0.01852982 0
v 0.05423981 0.02837448 0
v 0.05050629 -0.03722092 0
v 0.05050629 0.03722092 0
v 0.04471527 -0.04471573 0
v 0.04471527 0.04471588 0
v 0.03722076 -0.05050644 0
v 0.03722076 0.05050629 0
v 0.02837433 -0.05423965 0
v 0.02837433 0.0542395 0
v 0.01852936 -0.05556259 0
v 0.01852936 0.05556259 0
v 0.01464081 -0.05556259 0
v 0.01464081 0.05556259 0
v 0.008006287 -0.05556259 0
v 0.008006287 0.05556259 0
v -3.051758E-07 -0.05556259 0
v -3.051758E-07 0.05556259 0
v -0.008006897 -0.05556259 0
v -0.008006897 0.05556259 0
v -0.01464081 -0.05556259 0
v -0.01464081 0.05556259 0
v -0.01852997 -0.05556259 0
v -0.01852997 0.05556259 0
v -0.02837494 -0.05423965 0
v -0.02837494 0.0542395 0
v -0.03722076 -0.05050644 0
v -0.03722076 0.05050629 0
v -0.04471649 -0.04471573 0
v -0.04471649 0.04471588 0
v -0.05050629 -0.03722092 0
v -0.05050629 0.03722092 0
v -0.05423981 -0.02837448 0
v -0.05423981 0.02837448 0
v -0.05556244 -0.01852982 0
v -0.05556244 0.01852982 0
v -0.05556244 -0.01464096 0
v -0.05556244 -0.008006744 0
v -0.05556244 1.525879E-07 0
v -0.05556244 0.008006744 0
v -0.05556244 0.01464066 0
vt 0.01664391 0.2460834
vt 0.004995227 0.3348553
vt 0.0051395 0.369917
vt 0.005466104 0.4296911
vt 0.005812347 0.5016697
vt 0.005963504 0.5735539
vt 0.005993754 0.6330633
vt 0.006005615 0.6679035
vt 0.01771322 0.755914
vt 0.04989877 0.1663089
vt 0.05086026 0.8348128
vt 0.101263 0.09881085
vt 0.1022976 0.9015319
vt 0.1677726 0.04681709
vt 0.1687528 0.9529937
vt 0.2463375 0.0132533
vt 0.2470807 0.9860651
vt 0.3337475 0.001130611
vt 0.3341537 0.9974951
vt 0.3682878 0.001111925
vt 0.3684321 0.9974974
vt 0.427297 0.001020193
vt 0.4272609 0.9973813
vt 0.498487 0.001021564
vt 0.4981613 0.997437
vt 0.5697184 0.001093209
vt 0.5691497 0.997508
vt 0.6287374 0.001196623
vt 0.6280047 0.9976134
vt 0.6553413 0.002251774
vt 0.662571 0.9977169
vt 0.7427468 0.01316035
vt 0.750055 0.9860679
vt 0.8215637 0.04591188
vt 0.8286738 0.9525826
vt 0.888516 0.09713644
vt 0.8951403 0.9004455
vt 0.9406794 0.1637187
vt 0.9463328 0.8328881
vt 0.9749238 0.2427133
vt 0.9792089 0.7531343
vt 0.9878709 0.3311112
vt 0.9906296 0.6645322
vt 0.98839 0.3660871
vt 0.9891084 0.4257356
vt 0.9897525 0.4977085
vt 0.9902069 0.5697669
vt 0.990476 0.6294436
vn 0 0 -1
vn 0 0 -1
vn 0 0 -1
vn 0 0 -1
vn 0 0 -1
vn 0 0 -1
vn 0 0 -1
vn 0 0 -1
vn 0 0 -1
vn 0 0 -1
vn 0 0 -1
vn 0 0 -1
vn 0 0 -1
vn 0 0 -1
vn 0 0 -1
vn 0 0 -1
vn 0 0 -1
vn 0 0 -1
vn 0 0 -1
vn 0 0 -1
vn 0 0 -1
vn 0 0 -1
vn 0 0 -1
vn 0 0 -1
vn 0 0 -1
vn 0 0 -1
vn 0 0 -1
vn 0 0 -1
vn 0 0 -1
vn 0 0 -1
vn 0 0 -1
vn 0 0 -1
vn 0 0 -1
vn 0 0 -1
vn 0 0 -1
vn 0 0 -1
vn 0 0 -1
vn 0 0 -1
vn 0 0 -1
vn 0 0 -1
vn 0 0 -1
vn 0 0 -1
vn 0 0 -1
vn 0 0 -1
vn 0 0 -1
vn 0 0 -1
vn 0 0 -1
vn 0 0 -1
g PanelButton_Small_Rounded_0
f 3/3/3 2/2/2 1/1/1
f 1/1/1 4/4/4 3/3/3
f 1/1/1 5/5/5 4/4/4
f 1/1/1 6/6/6 5/5/5
f 1/1/1 7/7/7 6/6/6
f 1/1/1 8/8/8 7/7/7
f 1/1/1 9/9/9 8/8/8
f 1/1/1 10/10/10 9/9/9
f 10/10/10 11/11/11 9/9/9
f 10/10/10 12/12/12 11/11/11
f 12/12/12 13/13/13 11/11/11
f 12/12/12 14/14/14 13/13/13
f 14/14/14 15/15/15 13/13/13
f 14/14/14 16/16/16 15/15/15
f 16/16/16 17/17/17 15/15/15
f 16/16/16 18/18/18 17/17/17
f 18/18/18 19/19/19 17/17/17
f 18/18/18 20/20/20 19/19/19
f 20/20/20 21/21/21 19/19/19
f 20/20/20 22/22/22 21/21/21
f 22/22/22 23/23/23 21/21/21
f 22/22/22 24/24/24 23/23/23
f 24/24/24 25/25/25 23/23/23
f 24/24/24 26/26/26 25/25/25
f 26/26/26 27/27/27 25/25/25
f 26/26/26 28/28/28 27/27/27
f 28/28/28 29/29/29 27/27/27
f 28/28/28 30/30/30 29/29/29
f 30/30/30 31/31/31 29/29/29
f 30/30/30 32/32/32 31/31/31
f 32/32/32 33/33/33 31/31/31
f 32/32/32 34/34/34 33/33/33
f 34/34/34 35/35/35 33/33/33
f 34/34/34 36/36/36 35/35/35
f 36/36/36 37/37/37 35/35/35
f 36/36/36 38/38/38 37/37/37
f 38/38/38 39/39/39 37/37/37
f 38/38/38 40/40/40 39/39/39
f 40/40/40 41/41/41 39/39/39
f 40/40/40 42/42/42 41/41/41
f 42/42/42 43/43/43 41/41/41
f 42/42/42 44/44/44 43/43/43
f 44/44/44 45/45/45 43/43/43
f 45/45/45 46/46/46 43/43/43
f 46/46/46 47/47/47 43/43/43
f 47/47/47 48/48/48 43/43/43
