g PanelHighlightMesh_3x4_MoreMenu
v -0.6043141 0.9688378 -0.08953539
v -0.6043141 0.9688378 0.09769338
v -0.6340405 0.9648432 0.09769338
v -0.6340405 0.9648432 -0.08953539
v -0.6607522 0.9535705 -0.08953539
v -0.6607522 0.9535705 0.09769338
v -0.6833831 0.9360854 0.09769338
v -0.6833831 0.9360854 -0.08953539
v -0.7008676 0.9134542 0.09769338
v -0.7008676 0.9134542 -0.08953539
v -0.7121399 0.8867429 -0.08953539
v -0.7121399 0.8867429 0.09769338
v -0.7161341 0.8570178 0.09769338
v -0.7161341 0.8570178 -0.08953539
v -0.7161341 -0.7802072 -0.08953539
v -0.7161341 -0.7802072 0.09769338
v -0.7121399 -0.8099322 -0.08953539
v -0.7121399 -0.8099322 0.09769338
v -0.7008676 -0.8366428 0.09769338
v -0.7008676 -0.8366428 -0.08953539
v -0.6833831 -0.8592731 -0.08953539
v -0.6833831 -0.8592731 0.09769338
v -0.6607522 -0.8767573 0.09769338
v -0.6607522 -0.8767573 -0.08953539
v -0.6340405 -0.8880295 -0.08953539
v -0.6340405 -0.8880295 0.09769338
v -0.6043141 -0.8920237 0.09769338
v -0.6043141 -0.8920237 -0.08953539
v -0.5094591 -0.8920237 -0.08953539
v -0.5094591 -0.8920237 0.09769338
v -0.5061596 -0.9111754 -0.08953539
v -0.5061596 -0.9111754 0.09769338
v -0.4949794 -0.9300253 0.09769338
v -0.4949794 -0.9300253 -0.08953539
v -0.4818085 -0.945927 -0.08953539
v -0.4818085 -0.945927 0.09769338
v -0.4651454 -0.9581679 0.09769338
v -0.4651454 -0.9581679 -0.08953539
v -0.445703 -0.966035 -0.08953539
v -0.445703 -0.966035 0.09769338
v -0.4241942 -0.9688157 0.09769338
v -0.4241942 -0.9688157 -0.08953539
v -0.4026852 -0.966035 -0.08953539
v -0.4026852 -0.966035 0.09769338
v -0.3832429 -0.9581679 0.09769338
v -0.3832429 -0.9581679 -0.08953539
v -0.3665797 -0.945927 -0.08953539
v -0.3665797 -0.945927 0.09769338
v -0.353409 -0.9300253 0.09769338
v -0.353409 -0.9300253 -0.08953539
v -0.3429668 -0.9131092 -0.08953539
v -0.3429668 -0.9131092 0.09769338
v -0.339418 -0.8920237 0.09769338
v -0.339418 -0.8920237 -0.08953539
v 0.6044318 -0.8920237 -0.08953539
v 0.6044318 -0.8920237 0.09769338
v 0.6341584 -0.8880295 0.09769338
v 0.6341584 -0.8880295 -0.08953539
v 0.66087 -0.8767573 -0.08953539
v 0.66087 -0.8767573 0.09769338
v 0.6835009 -0.8592731 0.09769338
v 0.6835009 -0.8592731 -0.08953539
v 0.7009853 -0.8366428 -0.08953539
v 0.7009853 -0.8366428 0.09769338
v 0.7122576 -0.8099322 0.09769338
v 0.7122576 -0.8099322 -0.08953539
v 0.7162519 -0.7802072 -0.08953539
v 0.7162519 -0.7802072 0.09769338
v 0.7162519 0.8570178 -0.08953539
v 0.7162519 0.8570178 0.09769338
v 0.7122576 0.8867429 0.09769338
v 0.7122576 0.8867429 -0.08953539
v 0.7009853 0.9134542 -0.08953539
v 0.7009853 0.9134542 0.09769338
v 0.6835009 0.9360854 0.09769338
v 0.6835009 0.9360854 -0.08953539
v 0.66087 0.9535705 -0.08953539
v 0.66087 0.9535705 0.09769338
v 0.6341584 0.9648432 0.09769338
v 0.6341584 0.9648432 -0.08953539
v 0.6044318 0.9688378 -0.08953539
v 0.6044318 0.9688378 0.09769338
v -0.6043141 0.9688378 -0.08953539
v -0.6043141 0.9688378 0.09769338
v 0.7122576 0.8867429 0.09769338
v 0.7162519 0.8570178 0.09769338
v 0.7162519 -0.7802072 0.09769338
v 0.7122576 -0.8099322 0.09769338
v 0.7009853 0.9134542 0.09769338
v 0.7009853 -0.8366428 0.09769338
v 0.6835009 0.9360854 0.09769338
v 0.6835009 -0.8592731 0.09769338
v 0.66087 0.9535705 0.09769338
v 0.66087 -0.8767573 0.09769338
v 0.6341584 0.9648432 0.09769338
v 0.6341584 -0.8880295 0.09769338
v 0.6044318 0.9688378 0.09769338
v 0.6044318 -0.8920237 0.09769338
v -0.6043141 0.9688378 0.09769338
v -0.339418 -0.8920237 0.09769338
v -0.3429668 -0.9131092 0.09769338
v -0.353409 -0.9300253 0.09769338
v -0.3665797 -0.945927 0.09769338
v -0.3832429 -0.9581679 0.09769338
v -0.4026852 -0.966035 0.09769338
v -0.4241942 -0.9688157 0.09769338
v -0.445703 -0.966035 0.09769338
v -0.4651454 -0.9581679 0.09769338
v -0.4818085 -0.945927 0.09769338
v -0.4949794 -0.9300253 0.09769338
v -0.5061596 -0.9111754 0.09769338
v -0.5094591 -0.8920237 0.09769338
v -0.6043141 -0.8920237 0.09769338
v -0.6340405 0.9648432 0.09769338
v -0.6340405 -0.8880295 0.09769338
v -0.6607522 0.9535705 0.09769338
v -0.6607522 -0.8767573 0.09769338
v -0.6833831 0.9360854 0.09769338
v -0.6833831 -0.8592731 0.09769338
v -0.7008676 0.9134542 0.09769338
v -0.7008676 -0.8366428 0.09769338
v -0.7121399 0.8867429 0.09769338
v -0.7121399 -0.8099322 0.09769338
v -0.7161341 0.8570178 0.09769338
v -0.7161341 -0.7802072 0.09769338
v 0.7122576 -0.8099322 -0.08953539
v 0.7162519 -0.7802072 -0.08953539
v 0.7162519 0.8570178 -0.08953539
v 0.7122576 0.8867429 -0.08953539
v 0.7009853 -0.8366428 -0.08953539
v 0.7009853 0.9134542 -0.08953539
v 0.6835009 -0.8592731 -0.08953539
v 0.6835009 0.9360854 -0.08953539
v 0.66087 -0.8767573 -0.08953539
v 0.66087 0.9535705 -0.08953539
v 0.6341584 -0.8880295 -0.08953539
v 0.6341584 0.9648432 -0.08953539
v 0.6044318 -0.8920237 -0.08953539
v 0.6044318 0.9688378 -0.08953539
v -0.339418 -0.8920237 -0.08953539
v -0.6043141 0.9688378 -0.08953539
v -0.3429668 -0.9131092 -0.08953539
v -0.353409 -0.9300253 -0.08953539
v -0.3665797 -0.945927 -0.08953539
v -0.3832429 -0.9581679 -0.08953539
v -0.4026852 -0.966035 -0.08953539
v -0.4241942 -0.9688157 -0.08953539
v -0.445703 -0.966035 -0.08953539
v -0.4651454 -0.9581679 -0.08953539
v -0.4818085 -0.945927 -0.08953539
v -0.4949794 -0.9300253 -0.08953539
v -0.5061596 -0.9111754 -0.08953539
v -0.5094591 -0.8920237 -0.08953539
v -0.6043141 -0.8920237 -0.08953539
v -0.6340405 -0.8880295 -0.08953539
v -0.6340405 0.9648432 -0.08953539
v -0.6607522 -0.8767573 -0.08953539
v -0.6607522 0.9535705 -0.08953539
v -0.6833831 -0.8592731 -0.08953539
v -0.6833831 0.9360854 -0.08953539
v -0.7008676 -0.8366428 -0.08953539
v -0.7008676 0.9134542 -0.08953539
v -0.7121399 -0.8099322 -0.08953539
v -0.7121399 0.8867429 -0.08953539
v -0.7161341 -0.7802072 -0.08953539
v -0.7161341 0.8570178 -0.08953539
vt 1 1
vt 1 0
vt 0.9848485 0
vt 0.9848485 1
vt 0.969697 1
vt 0.969697 0
vt 0.9545454 0
vt 0.9545454 1
vt 0.9393939 0
vt 0.9393939 1
vt 0.9242424 1
vt 0.9242424 0
vt 0.9090909 0
vt 0.9090909 1
vt 0.8181818 1
vt 0.8181818 0
vt 0.8030303 1
vt 0.8030303 0
vt 0.7878788 0
vt 0.7878788 1
vt 0.7727273 1
vt 0.7727273 0
vt 0.7575758 0
vt 0.7575758 1
vt 0.7424242 1
vt 0.7424242 0
vt 0.7272727 0
vt 0.7272727 1
vt 0.6363636 1
vt 0.6363636 0
vt 0.6212121 1
vt 0.6212121 0
vt 0.6060606 0
vt 0.6060606 1
vt 0.5909091 1
vt 0.5909091 0
vt 0.5757576 0
vt 0.5757576 1
vt 0.5606061 1
vt 0.5606061 0
vt 0.5454546 0
vt 0.5454546 1
vt 0.530303 1
vt 0.530303 0
vt 0.5151515 0
vt 0.5151515 1
vt 0.5 1
vt 0.5 0
vt 0.4848485 0
vt 0.4848485 1
vt 0.469697 1
vt 0.469697 0
vt 0.4545455 0
vt 0.4545455 1
vt 0.3636364 1
vt 0.3636364 0
vt 0.3484848 0
vt 0.3484848 1
vt 0.3333333 1
vt 0.3333333 0
vt 0.3181818 0
vt 0.3181818 1
vt 0.3030303 1
vt 0.3030303 0
vt 0.2878788 0
vt 0.2878788 1
vt 0.2727273 1
vt 0.2727273 0
vt 0.1818182 1
vt 0.1818182 0
vt 0.1666667 0
vt 0.1666667 1
vt 0.1515152 1
vt 0.1515152 0
vt 0.1363636 0
vt 0.1363636 1
vt 0.1212121 1
vt 0.1212121 0
vt 0.1060606 0
vt 0.1060606 1
vt 0.09090909 1
vt 0.09090909 0
vt 0 1
vt 0 0
vt 0.001251936 0.9574816
vt -5.960464E-08 0.9420865
vt -5.960464E-08 0.09868526
vt 0.001251936 0.08329016
vt 0.00478512 0.9713159
vt 0.00478512 0.06945628
vt 0.01026547 0.983037
vt 0.01026547 0.05773562
vt 0.0173589 0.9920927
vt 0.0173589 0.04868031
vt 0.02573138 0.9979311
vt 0.02573138 0.04284227
vt 0.0350489 1
vt 0.0350489 0.04077357
vt 0.4119497 1
vt 0.3301929 0.04077357
vt 0.3314617 0.02985299
vt 0.3342719 0.02009022
vt 0.3384001 0.01185447
vt 0.343623 0.005514741
vt 0.3497171 0.001440227
vt 0.3564588 0
vt 0.3632005 0.001440227
vt 0.3692946 0.005514741
vt 0.3745176 0.01185447
vt 0.3786458 0.02009022
vt 0.381456 0.02985299
vt 0.3827248 0.04077357
vt 0.4119497 0.04077357
vt 0.4212672 0.9979311
vt 0.4212672 0.04284227
vt 0.4296397 0.9920927
vt 0.4296397 0.04868031
vt 0.4367331 0.983037
vt 0.4367331 0.05773562
vt 0.4422135 0.9713159
vt 0.4422135 0.06945628
vt 0.4457467 0.9574816
vt 0.4457467 0.08329016
vt 0.4469986 0.9420865
vt 0.4469986 0.09868526
vt 0.001251936 0.08329016
vt -5.960464E-08 0.09868526
vt -5.960464E-08 0.9420865
vt 0.001251936 0.9574816
vt 0.00478512 0.06945628
vt 0.00478512 0.9713159
vt 0.01026547 0.05773562
vt 0.01026547 0.983037
vt 0.0173589 0.04868031
vt 0.0173589 0.9920927
vt 0.02573138 0.04284227
vt 0.02573138 0.9979311
vt 0.0350489 0.04077357
vt 0.0350489 1
vt 0.3301929 0.04077357
vt 0.4119497 1
vt 0.3314617 0.02985299
vt 0.3342719 0.02009022
vt 0.3384001 0.01185447
vt 0.343623 0.005514741
vt 0.3497171 0.001440227
vt 0.3564588 0
vt 0.3632005 0.001440227
vt 0.3692946 0.005514741
vt 0.3745176 0.01185447
vt 0.3786458 0.02009022
vt 0.381456 0.02985299
vt 0.3827248 0.04077357
vt 0.4119497 0.04077357
vt 0.4212672 0.04284227
vt 0.4212672 0.9979311
vt 0.4296397 0.04868031
vt 0.4296397 0.9920927
vt 0.4367331 0.05773562
vt 0.4367331 0.983037
vt 0.4422135 0.06945628
vt 0.4422135 0.9713159
vt 0.4457467 0.08329016
vt 0.4457467 0.9574816
vt 0.4469986 0.09868526
vt 0.4469986 0.9420865
vn -0.003225408 0.9999949 0
vn -0.003225408 0.9999949 0
vn -0.261129 0.965304 0
vn -0.261129 0.965304 0
vn -0.5035386 0.8639727 0
vn -0.5035386 0.8639727 0
vn -0.707114 0.7070996 0
vn -0.707114 0.7070996 0
vn -0.8639797 0.5035266 0
vn -0.8639797 0.5035266 0
vn -0.9653057 0.2611224 0
vn -0.9653057 0.2611224 0
vn -0.9999971 0.002396099 0
vn -0.9999971 0.002396099 0
vn -0.9999971 -0.002396099 0
vn -0.9999971 -0.002396099 0
vn -0.9653047 -0.2611261 0
vn -0.9653047 -0.2611261 0
vn -0.8639726 -0.5035388 0
vn -0.8639726 -0.5035388 0
vn -0.7070981 -0.7071154 0
vn -0.7070981 -0.7071154 0
vn -0.5035192 -0.863984 0
vn -0.5035192 -0.863984 0
vn -0.2611138 -0.9653081 0
vn -0.2611138 -0.9653081 0
vn -0.03204479 -0.9994864 0
vn -0.03204479 -0.9994864 0
vn -0.1915063 -0.9814914 0
vn -0.1915063 -0.9814914 0
vn -0.9344645 -0.3560563 0
vn -0.9344645 -0.3560563 0
vn -0.8189569 -0.5738552 0
vn -0.8189569 -0.5738552 0
vn -0.6861846 -0.7274275 0
vn -0.6861846 -0.7274275 0
vn -0.4865532 -0.873651 0
vn -0.4865532 -0.873651 0
vn -0.2516456 -0.9678195 0
vn -0.2516456 -0.9678195 0
vn 0 -1 0
vn 0 -1 0
vn 0.2516456 -0.9678195 0
vn 0.2516456 -0.9678195 0
vn 0.4865543 -0.8736504 0
vn 0.4865543 -0.8736504 0
vn 0.686185 -0.7274271 0
vn 0.686185 -0.7274271 0
vn 0.8117202 -0.5840465 0
vn 0.8117202 -0.5840465 0
vn 0.9384205 -0.345495 0
vn 0.9384205 -0.345495 0
vn 0.02225075 -0.9997525 0
vn 0.02225075 -0.9997525 0
vn 0.004102608 -0.9999917 0
vn 0.004102608 -0.9999917 0
vn 0.2611135 -0.9653081 0
vn 0.2611135 -0.9653081 0
vn 0.5035207 -0.8639831 0
vn 0.5035207 -0.8639831 0
vn 0.7070986 -0.7071149 0
vn 0.7070986 -0.7071149 0
vn 0.863973 -0.503538 0
vn 0.863973 -0.503538 0
vn 0.9653045 -0.2611272 0
vn 0.9653045 -0.2611272 0
vn 0.9999971 -0.002396177 0
vn 0.9999971 -0.002396177 0
vn 0.9999971 0.002396177 0
vn 0.9999971 0.002396177 0
vn 0.9653054 0.2611234 0
vn 0.9653054 0.2611234 0
vn 0.8639802 0.5035257 0
vn 0.8639802 0.5035257 0
vn 0.7071145 0.707099 0
vn 0.7071145 0.707099 0
vn 0.5035401 0.8639718 0
vn 0.5035401 0.8639718 0
vn 0.2611286 0.965304 0
vn 0.2611286 0.965304 0
vn 0.003225407 0.9999949 0
vn 0.003225407 0.9999949 0
vn -0.003225408 0.9999949 0
vn -0.003225408 0.9999949 0
vn 0 0 1
vn 0 0 1
vn 0 0 1
vn 0 0 1
vn 0 0 1
vn 0 0 1
vn 0 0 1
vn 0 0 1
vn 0 0 1
vn 0 0 1
vn 0 0 1
vn 0 0 1
vn 0 0 1
vn 0 0 1
vn 0 0 1
vn 0 0 1
vn 0 0 1
vn 0 0 1
vn 0 0 1
vn 0 0 1
vn 0 0 1
vn 0 0 1
vn 0 0 1
vn 0 0 1
vn 0 0 1
vn 0 0 1
vn 0 0 1
vn 0 0 1
vn 0 0 1
vn 0 0 1
vn 0 0 1
vn 0 0 1
vn 0 0 1
vn 0 0 1
vn 0 0 1
vn 0 0 1
vn 0 0 1
vn 0 0 1
vn 0 0 1
vn 0 0 1
vn 0 0 1
vn 0 0 -1
vn 0 0 -1
vn 0 0 -1
vn 0 0 -1
vn 0 0 -1
vn 0 0 -1
vn 0 0 -1
vn 0 0 -1
vn 0 0 -1
vn 0 0 -1
vn 0 0 -1
vn 0 0 -1
vn 0 0 -1
vn 0 0 -1
vn 0 0 -1
vn 0 0 -1
vn 0 0 -1
vn 0 0 -1
vn 0 0 -1
vn 0 0 -1
vn 0 0 -1
vn 0 0 -1
vn 0 0 -1
vn 0 0 -1
vn 0 0 -1
vn 0 0 -1
vn 0 0 -1
vn 0 0 -1
vn 0 0 -1
vn 0 0 -1
vn 0 0 -1
vn 0 0 -1
vn 0 0 -1
vn 0 0 -1
vn 0 0 -1
vn 0 0 -1
vn 0 0 -1
vn 0 0 -1
vn 0 0 -1
vn 0 0 -1
vn 0 0 -1
g PanelHighlightMesh_3x4_MoreMenu_0
f 3/3/3 2/2/2 1/1/1
f 4/4/4 3/3/3 1/1/1
f 3/3/3 4/4/4 5/5/5
f 6/6/6 3/3/3 5/5/5
f 7/7/7 6/6/6 5/5/5
f 8/8/8 7/7/7 5/5/5
f 9/9/9 7/7/7 8/8/8
f 10/10/10 9/9/9 8/8/8
f 9/9/9 10/10/10 11/11/11
f 12/12/12 9/9/9 11/11/11
f 13/13/13 12/12/12 11/11/11
f 14/14/14 13/13/13 11/11/11
f 13/13/13 14/14/14 15/15/15
f 16/16/16 13/13/13 15/15/15
f 16/16/16 15/15/15 17/17/17
f 18/18/18 16/16/16 17/17/17
f 19/19/19 18/18/18 17/17/17
f 20/20/20 19/19/19 17/17/17
f 19/19/19 20/20/20 21/21/21
f 22/22/22 19/19/19 21/21/21
f 23/23/23 22/22/22 21/21/21
f 24/24/24 23/23/23 21/21/21
f 23/23/23 24/24/24 25/25/25
f 26/26/26 23/23/23 25/25/25
f 27/27/27 26/26/26 25/25/25
f 28/28/28 27/27/27 25/25/25
f 27/27/27 28/28/28 29/29/29
f 30/30/30 27/27/27 29/29/29
f 30/30/30 29/29/29 31/31/31
f 32/32/32 30/30/30 31/31/31
f 33/33/33 32/32/32 31/31/31
f 34/34/34 33/33/33 31/31/31
f 33/33/33 34/34/34 35/35/35
f 36/36/36 33/33/33 35/35/35
f 37/37/37 36/36/36 35/35/35
f 38/38/38 37/37/37 35/35/35
f 37/37/37 38/38/38 39/39/39
f 40/40/40 37/37/37 39/39/39
f 41/41/41 40/40/40 39/39/39
f 42/42/42 41/41/41 39/39/39
f 41/41/41 42/42/42 43/43/43
f 44/44/44 41/41/41 43/43/43
f 45/45/45 44/44/44 43/43/43
f 46/46/46 45/45/45 43/43/43
f 45/45/45 46/46/46 47/47/47
f 48/48/48 45/45/45 47/47/47
f 49/49/49 48/48/48 47/47/47
f 50/50/50 49/49/49 47/47/47
f 49/49/49 50/50/50 51/51/51
f 52/52/52 49/49/49 51/51/51
f 53/53/53 52/52/52 51/51/51
f 54/54/54 53/53/53 51/51/51
f 54/54/54 55/55/55 53/53/53
f 55/55/55 56/56/56 53/53/53
f 57/57/57 56/56/56 55/55/55
f 58/58/58 57/57/57 55/55/55
f 57/57/57 58/58/58 59/59/59
f 60/60/60 57/57/57 59/59/59
f 61/61/61 60/60/60 59/59/59
f 62/62/62 61/61/61 59/59/59
f 61/61/61 62/62/62 63/63/63
f 64/64/64 61/61/61 63/63/63
f 65/65/65 64/64/64 63/63/63
f 66/66/66 65/65/65 63/63/63
f 65/65/65 66/66/66 67/67/67
f 68/68/68 65/65/65 67/67/67
f 67/67/67 69/69/69 68/68/68
f 69/69/69 70/70/70 68/68/68
f 71/71/71 70/70/70 69/69/69
f 72/72/72 71/71/71 69/69/69
f 71/71/71 72/72/72 73/73/73
f 74/74/74 71/71/71 73/73/73
f 75/75/75 74/74/74 73/73/73
f 76/76/76 75/75/75 73/73/73
f 75/75/75 76/76/76 77/77/77
f 78/78/78 75/75/75 77/77/77
f 79/79/79 78/78/78 77/77/77
f 80/80/80 79/79/79 77/77/77
f 79/79/79 80/80/80 81/81/81
f 82/82/82 79/79/79 81/81/81
f 81/81/81 83/83/83 82/82/82
f 83/83/83 84/84/84 82/82/82
f 87/87/87 86/86/86 85/85/85
f 85/85/85 88/88/88 87/87/87
f 85/85/85 89/89/89 88/88/88
f 89/89/89 90/90/90 88/88/88
f 89/89/89 91/91/91 90/90/90
f 91/91/91 92/92/92 90/90/90
f 91/91/91 93/93/93 92/92/92
f 93/93/93 94/94/94 92/92/92
f 93/93/93 95/95/95 94/94/94
f 95/95/95 96/96/96 94/94/94
f 95/95/95 97/97/97 96/96/96
f 97/97/97 98/98/98 96/96/96
f 97/97/97 99/99/99 98/98/98
f 99/99/99 100/100/100 98/98/98
f 99/99/99 101/101/101 100/100/100
f 99/99/99 102/102/102 101/101/101
f 99/99/99 103/103/103 102/102/102
f 99/99/99 104/104/104 103/103/103
f 99/99/99 105/105/105 104/104/104
f 99/99/99 106/106/106 105/105/105
f 99/99/99 107/107/107 106/106/106
f 99/99/99 108/108/108 107/107/107
f 99/99/99 109/109/109 108/108/108
f 99/99/99 110/110/110 109/109/109
f 99/99/99 111/111/111 110/110/110
f 99/99/99 112/112/112 111/111/111
f 99/99/99 113/113/113 112/112/112
f 99/99/99 114/114/114 113/113/113
f 114/114/114 115/115/115 113/113/113
f 114/114/114 116/116/116 115/115/115
f 116/116/116 117/117/117 115/115/115
f 116/116/116 118/118/118 117/117/117
f 118/118/118 119/119/119 117/117/117
f 118/118/118 120/120/120 119/119/119
f 120/120/120 121/121/121 119/119/119
f 120/120/120 122/122/122 121/121/121
f 122/122/122 123/123/123 121/121/121
f 122/122/122 124/124/124 123/123/123
f 124/124/124 125/125/125 123/123/123
f 128/128/128 127/127/127 126/126/126
f 126/126/126 129/129/129 128/128/128
f 126/126/126 130/130/130 129/129/129
f 130/130/130 131/131/131 129/129/129
f 130/130/130 132/132/132 131/131/131
f 132/132/132 133/133/133 131/131/131
f 132/132/132 134/134/134 133/133/133
f 134/134/134 135/135/135 133/133/133
f 134/134/134 136/136/136 135/135/135
f 136/136/136 137/137/137 135/135/135
f 136/136/136 138/138/138 137/137/137
f 138/138/138 139/139/139 137/137/137
f 138/138/138 140/140/140 139/139/139
f 140/140/140 141/141/141 139/139/139
f 140/140/140 142/142/142 141/141/141
f 142/142/142 143/143/143 141/141/141
f 143/143/143 144/144/144 141/141/141
f 144/144/144 145/145/145 141/141/141
f 145/145/145 146/146/146 141/141/141
f 146/146/146 147/147/147 141/141/141
f 147/147/147 148/148/148 141/141/141
f 148/148/148 149/149/149 141/141/141
f 149/149/149 150/150/150 141/141/141
f 150/150/150 151/151/151 141/141/141
f 151/151/151 152/152/152 141/141/141
f 152/152/152 153/153/153 141/141/141
f 153/153/153 154/154/154 141/141/141
f 154/154/154 155/155/155 141/141/141
f 155/155/155 156/156/156 141/141/141
f 155/155/155 157/157/157 156/156/156
f 157/157/157 158/158/158 156/156/156
f 157/157/157 159/159/159 158/158/158
f 159/159/159 160/160/160 158/158/158
f 159/159/159 161/161/161 160/160/160
f 161/161/161 162/162/162 160/160/160
f 161/161/161 163/163/163 162/162/162
f 163/163/163 164/164/164 162/162/162
f 163/163/163 165/165/165 164/164/164
f 165/165/165 166/166/166 164/164/164
