g PanelHighlightMesh_3x2
v 0.6071736 0.5104341 0.09299187
v 0.6071736 0.5104341 -0.09299184
v 0.6371254 0.5064093 -0.09299184
v 0.6371254 0.5064093 0.09299187
v 0.6640397 0.4950511 0.09299187
v 0.6640397 0.4950511 -0.09299184
v 0.6868428 0.4774335 -0.09299184
v 0.6868428 0.4774335 0.09299187
v 0.7044603 0.4546305 -0.09299184
v 0.7044603 0.4546305 0.09299187
v 0.7158186 0.4277162 0.09299187
v 0.7158186 0.4277162 -0.09299184
v 0.719843 0.3977646 -0.09299184
v 0.719843 0.3977646 0.09299187
v 0.719843 0.3142834 -0.09299184
v 0.719843 0.3142834 0.09299187
v 0.719843 0.1718738 0.09299187
v 0.719843 0.1718738 -0.09299184
v 0.719843 -7.470818E-08 -0.09299184
v 0.719843 -7.470818E-08 0.09299187
v 0.719843 -0.1718739 -0.09299184
v 0.719843 -0.1718739 0.09299187
v 0.719843 -0.3142837 0.09299187
v 0.719843 -0.3142837 -0.09299184
v 0.719843 -0.397765 -0.09299184
v 0.719843 -0.397765 0.09299187
v 0.7158186 -0.4277165 -0.09299184
v 0.7158186 -0.4277165 0.09299187
v 0.7044603 -0.4546309 0.09299187
v 0.7044603 -0.4546309 -0.09299184
v 0.6868428 -0.4774338 -0.09299184
v 0.6868428 -0.4774338 0.09299187
v 0.6640397 -0.4950515 -0.09299184
v 0.6640397 -0.4950515 0.09299187
v 0.6371254 -0.5064096 0.09299187
v 0.6371254 -0.5064096 -0.09299184
v 0.6071736 -0.5104343 -0.09299184
v 0.6071736 -0.5104343 0.09299187
v 0.4797426 -0.5104343 -0.09299184
v 0.4797426 -0.5104343 0.09299187
v 0.2623595 -0.5104343 0.09299187
v 0.2623595 -0.5104343 -0.09299184
v 3.032227E-07 -0.5104343 -0.09299184
v 3.032227E-07 -0.5104343 0.09299187
v -0.2623588 -0.5104343 -0.09299184
v -0.2623588 -0.5104343 0.09299187
v -0.4797421 -0.5104343 0.09299187
v -0.4797421 -0.5104343 -0.09299184
v -0.607173 -0.5104343 -0.09299184
v -0.607173 -0.5104343 0.09299187
v -0.6371248 -0.5064096 -0.09299184
v -0.6371248 -0.5064096 0.09299187
v -0.6640393 -0.4950515 0.09299187
v -0.6640393 -0.4950515 -0.09299184
v -0.6868422 -0.4774338 -0.09299184
v -0.6868422 -0.4774338 0.09299187
v -0.70446 -0.4546309 -0.09299184
v -0.70446 -0.4546309 0.09299187
v -0.7158182 -0.4277165 0.09299187
v -0.7158182 -0.4277165 -0.09299184
v -0.719843 -0.397765 -0.09299184
v -0.719843 -0.397765 0.09299187
v -0.719843 -0.3142837 -0.09299184
v -0.719843 -0.3142837 0.09299187
v -0.719843 -0.1718739 0.09299187
v -0.719843 -0.1718739 -0.09299184
v -0.719843 -7.470818E-08 -0.09299184
v -0.719843 -7.470818E-08 0.09299187
v -0.719843 0.1718738 -0.09299184
v -0.719843 0.1718738 0.09299187
v -0.719843 0.3142834 0.09299187
v -0.719843 0.3142834 -0.09299184
v -0.719843 0.3977646 -0.09299184
v -0.719843 0.3977646 0.09299187
v -0.7158182 0.4277162 -0.09299184
v -0.7158182 0.4277162 0.09299187
v -0.70446 0.4546305 0.09299187
v -0.70446 0.4546305 -0.09299184
v -0.6868422 0.4774335 -0.09299184
v -0.6868422 0.4774335 0.09299187
v -0.6640393 0.4950511 -0.09299184
v -0.6640393 0.4950511 0.09299187
v -0.6371248 0.5064093 0.09299187
v -0.6371248 0.5064093 -0.09299184
v -0.607173 0.5104341 -0.09299184
v -0.607173 0.5104341 0.09299187
v -0.4797421 0.5104341 -0.09299184
v -0.4797421 0.5104341 0.09299187
v -0.2623588 0.5104341 0.09299187
v -0.2623588 0.5104341 -0.09299184
v 3.032227E-07 0.5104341 -0.09299184
v 3.032227E-07 0.5104341 0.09299187
v 0.2623595 0.5104341 -0.09299184
v 0.2623595 0.5104341 0.09299187
v 0.4797426 0.5104341 0.09299187
v 0.4797426 0.5104341 -0.09299184
v 0.6071736 0.5104341 -0.09299184
v 0.6071736 0.5104341 0.09299187
v 0.7158186 -0.4277165 -0.09299184
v 0.719843 -0.397765 -0.09299184
v 0.719843 -0.3142837 -0.09299184
v 0.719843 -0.1718739 -0.09299184
v 0.719843 -7.470818E-08 -0.09299184
v 0.719843 0.1718738 -0.09299184
v 0.719843 0.3142834 -0.09299184
v 0.719843 0.3977646 -0.09299184
v 0.7158186 0.4277162 -0.09299184
v 0.7044603 -0.4546309 -0.09299184
v 0.7044603 0.4546305 -0.09299184
v 0.6868428 -0.4774338 -0.09299184
v 0.6868428 0.4774335 -0.09299184
v 0.6640397 -0.4950515 -0.09299184
v 0.6640397 0.4950511 -0.09299184
v 0.6371254 -0.5064096 -0.09299184
v 0.6371254 0.5064093 -0.09299184
v 0.6071736 -0.5104343 -0.09299184
v 0.6071736 0.5104341 -0.09299184
v 0.4797426 -0.5104343 -0.09299184
v 0.4797426 0.5104341 -0.09299184
v 0.2623595 -0.5104343 -0.09299184
v 0.2623595 0.5104341 -0.09299184
v 3.032227E-07 -0.5104343 -0.09299184
v 3.032227E-07 0.5104341 -0.09299184
v -0.2623588 -0.5104343 -0.09299184
v -0.2623588 0.5104341 -0.09299184
v -0.4797421 -0.5104343 -0.09299184
v -0.4797421 0.5104341 -0.09299184
v -0.607173 -0.5104343 -0.09299184
v -0.607173 0.5104341 -0.09299184
v -0.6371248 -0.5064096 -0.09299184
v -0.6371248 0.5064093 -0.09299184
v -0.6640393 -0.4950515 -0.09299184
v -0.6640393 0.4950511 -0.09299184
v -0.6868422 -0.4774338 -0.09299184
v -0.6868422 0.4774335 -0.09299184
v -0.70446 -0.4546309 -0.09299184
v -0.70446 0.4546305 -0.09299184
v -0.7158182 -0.4277165 -0.09299184
v -0.7158182 0.4277162 -0.09299184
v -0.719843 -0.397765 -0.09299184
v -0.719843 0.3977646 -0.09299184
v -0.719843 -0.3142837 -0.09299184
v -0.719843 -0.1718739 -0.09299184
v -0.719843 -7.470818E-08 -0.09299184
v -0.719843 0.1718738 -0.09299184
v -0.719843 0.3142834 -0.09299184
v 0.7158186 0.4277162 0.09299187
v 0.719843 0.3977646 0.09299187
v 0.719843 0.3142834 0.09299187
v 0.719843 0.1718738 0.09299187
v 0.719843 -7.470818E-08 0.09299187
v 0.719843 -0.1718739 0.09299187
v 0.719843 -0.3142837 0.09299187
v 0.719843 -0.397765 0.09299187
v 0.7158186 -0.4277165 0.09299187
v 0.7044603 0.4546305 0.09299187
v 0.7044603 -0.4546309 0.09299187
v 0.6868428 0.4774335 0.09299187
v 0.6868428 -0.4774338 0.09299187
v 0.6640397 0.4950511 0.09299187
v 0.6640397 -0.4950515 0.09299187
v 0.6371254 0.5064093 0.09299187
v 0.6371254 -0.5064096 0.09299187
v 0.6071736 0.5104341 0.09299187
v 0.6071736 -0.5104343 0.09299187
v 0.4797426 0.5104341 0.09299187
v 0.4797426 -0.5104343 0.09299187
v 0.2623595 0.5104341 0.09299187
v 0.2623595 -0.5104343 0.09299187
v 3.032227E-07 0.5104341 0.09299187
v 3.032227E-07 -0.5104343 0.09299187
v -0.2623588 0.5104341 0.09299187
v -0.2623588 -0.5104343 0.09299187
v -0.4797421 0.5104341 0.09299187
v -0.4797421 -0.5104343 0.09299187
v -0.607173 0.5104341 0.09299187
v -0.607173 -0.5104343 0.09299187
v -0.6371248 0.5064093 0.09299187
v -0.6371248 -0.5064096 0.09299187
v -0.6640393 0.4950511 0.09299187
v -0.6640393 -0.4950515 0.09299187
v -0.6868422 0.4774335 0.09299187
v -0.6868422 -0.4774338 0.09299187
v -0.70446 0.4546305 0.09299187
v -0.70446 -0.4546309 0.09299187
v -0.7158182 0.4277162 0.09299187
v -0.7158182 -0.4277165 0.09299187
v -0.719843 0.3977646 0.09299187
v -0.719843 -0.397765 0.09299187
v -0.719843 0.3142834 0.09299187
v -0.719843 0.1718738 0.09299187
v -0.719843 -7.470818E-08 0.09299187
v -0.719843 -0.1718739 0.09299187
v -0.719843 -0.3142837 0.09299187
vt 1 1
vt 1 0
vt 0.9791667 0
vt 0.9791667 1
vt 0.9583333 1
vt 0.9583333 0
vt 0.9375 0
vt 0.9375 1
vt 0.9166667 0
vt 0.9166667 1
vt 0.8958333 1
vt 0.8958333 0
vt 0.875 0
vt 0.875 1
vt 0.8541667 0
vt 0.8541667 1
vt 0.8333333 1
vt 0.8333333 0
vt 0.8125 0
vt 0.8125 1
vt 0.7916667 0
vt 0.7916667 1
vt 0.7708333 1
vt 0.7708333 0
vt 0.75 0
vt 0.75 1
vt 0.7291667 0
vt 0.7291667 1
vt 0.7083333 1
vt 0.7083333 0
vt 0.6875 0
vt 0.6875 1
vt 0.6666667 0
vt 0.6666667 1
vt 0.6458333 1
vt 0.6458333 0
vt 0.625 0
vt 0.625 1
vt 0.6041667 0
vt 0.6041667 1
vt 0.5833333 1
vt 0.5833333 0
vt 0.5625 0
vt 0.5625 1
vt 0.5416667 0
vt 0.5416667 1
vt 0.5208333 1
vt 0.5208333 0
vt 0.5 0
vt 0.5 1
vt 0.4791667 0
vt 0.4791667 1
vt 0.4583333 1
vt 0.4583333 0
vt 0.4375 0
vt 0.4375 1
vt 0.4166667 0
vt 0.4166667 1
vt 0.3958333 1
vt 0.3958333 0
vt 0.375 0
vt 0.375 1
vt 0.3541667 0
vt 0.3541667 1
vt 0.3333333 1
vt 0.3333333 0
vt 0.3125 0
vt 0.3125 1
vt 0.2916667 0
vt 0.2916667 1
vt 0.2708333 1
vt 0.2708333 0
vt 0.25 0
vt 0.25 1
vt 0.2291667 0
vt 0.2291667 1
vt 0.2083333 1
vt 0.2083333 0
vt 0.1875 0
vt 0.1875 1
vt 0.1666667 0
vt 0.1666667 1
vt 0.1458333 1
vt 0.1458333 0
vt 0.125 0
vt 0.125 1
vt 0.1041667 0
vt 0.1041667 1
vt 0.08333334 1
vt 0.08333334 0
vt 0.0625 0
vt 0.0625 1
vt 0.04166667 0
vt 0.04166667 1
vt 0.02083333 1
vt 0.02083333 0
vt 0 0
vt 0 1
vt 0.6507449 0.4982407
vt 0.6516129 0.5142599
vt 0.6516129 0.5589089
vt 0.6516129 0.6350751
vt 0.6516129 0.727
vt 0.6516129 0.8189248
vt 0.6516129 0.8950909
vt 0.6516129 0.9397399
vt 0.6507449 0.9557592
vt 0.6482954 0.4838459
vt 0.6482954 0.970154
vt 0.644496 0.4716499
vt 0.644496 0.98235
vt 0.6395782 0.4622273
vt 0.6395782 0.9917725
vt 0.6337739 0.4561525
vt 0.6337739 0.9978473
vt 0.6273144 0.454
vt 0.6273144 1
vt 0.5998327 0.454
vt 0.5998327 1
vt 0.5529516 0.454
vt 0.5529516 1
vt 0.496371 0.454
vt 0.496371 1
vt 0.4397904 0.454
vt 0.4397904 1
vt 0.3929093 0.454
vt 0.3929093 1
vt 0.3654275 0.454
vt 0.3654275 1
vt 0.358968 0.4561525
vt 0.358968 0.9978473
vt 0.3531637 0.4622273
vt 0.3531637 0.9917725
vt 0.348246 0.4716499
vt 0.348246 0.98235
vt 0.3444465 0.4838459
vt 0.3444465 0.970154
vt 0.341997 0.4982407
vt 0.341997 0.9557592
vt 0.341129 0.5142599
vt 0.341129 0.9397399
vt 0.341129 0.5589089
vt 0.341129 0.6350751
vt 0.341129 0.727
vt 0.341129 0.8189248
vt 0.341129 0.8950909
vt 0.6507449 0.9557592
vt 0.6516129 0.9397399
vt 0.6516129 0.8950909
vt 0.6516129 0.8189248
vt 0.6516129 0.727
vt 0.6516129 0.6350751
vt 0.6516129 0.5589089
vt 0.6516129 0.5142599
vt 0.6507449 0.4982407
vt 0.6482954 0.970154
vt 0.6482954 0.4838459
vt 0.644496 0.98235
vt 0.644496 0.4716499
vt 0.6395782 0.9917725
vt 0.6395782 0.4622273
vt 0.6337739 0.9978473
vt 0.6337739 0.4561525
vt 0.6273144 1
vt 0.6273144 0.454
vt 0.5998327 1
vt 0.5998327 0.454
vt 0.5529516 1
vt 0.5529516 0.454
vt 0.496371 1
vt 0.496371 0.454
vt 0.4397904 1
vt 0.4397904 0.454
vt 0.3929093 1
vt 0.3929093 0.454
vt 0.3654275 1
vt 0.3654275 0.454
vt 0.358968 0.9978473
vt 0.358968 0.4561525
vt 0.3531637 0.9917725
vt 0.3531637 0.4622273
vt 0.348246 0.98235
vt 0.348246 0.4716499
vt 0.3444465 0.970154
vt 0.3444465 0.4838459
vt 0.341997 0.9557592
vt 0.341997 0.4982407
vt 0.341129 0.9397399
vt 0.341129 0.5142599
vt 0.341129 0.8950909
vt 0.341129 0.8189248
vt 0.341129 0.727
vt 0.341129 0.6350751
vt 0.341129 0.5589089
vn 0.02556454 0.9996731 0
vn 0.02556454 0.9996731 0
vn 0.2611269 0.9653045 0
vn 0.2611269 0.9653045 0
vn 0.5035349 0.8639749 0
vn 0.5035349 0.8639749 0
vn 0.7071072 0.7071062 0
vn 0.7071072 0.7071062 0
vn 0.8639746 0.5035352 0
vn 0.8639746 0.5035352 0
vn 0.9653056 0.2611229 0
vn 0.9653056 0.2611229 0
vn 0.9993713 0.03545545 0
vn 0.9993713 0.03545545 0
vn 1 0 0
vn 1 0 0
vn 1 0 0
vn 1 0 0
vn 1 0 0
vn 1 0 0
vn 1 0 0
vn 1 0 0
vn 1 0 0
vn 1 0 0
vn 0.9993713 -0.03545544 0
vn 0.9993713 -0.03545544 0
vn 0.9653057 -0.2611226 0
vn 0.9653057 -0.2611226 0
vn 0.8639746 -0.5035354 0
vn 0.8639746 -0.5035354 0
vn 0.7071072 -0.7071064 0
vn 0.7071072 -0.7071064 0
vn 0.5035354 -0.8639746 0
vn 0.5035354 -0.8639746 0
vn 0.2611246 -0.9653051 0
vn 0.2611246 -0.9653051 0
vn 0.02556405 -0.9996731 0
vn 0.02556405 -0.9996731 0
vn 0 -1 0
vn 0 -1 0
vn 0 -1 0
vn 0 -1 0
vn 0 -1 0
vn 0 -1 0
vn 0 -1 0
vn 0 -1 0
vn 0 -1 0
vn 0 -1 0
vn -0.02556407 -0.9996731 0
vn -0.02556407 -0.9996731 0
vn -0.2611239 -0.9653053 0
vn -0.2611239 -0.9653053 0
vn -0.5035353 -0.8639746 0
vn -0.5035353 -0.8639746 0
vn -0.7071061 -0.7071075 0
vn -0.7071061 -0.7071075 0
vn -0.8639735 -0.5035372 0
vn -0.8639735 -0.5035372 0
vn -0.9653043 -0.2611277 0
vn -0.9653043 -0.2611277 0
vn -0.9993711 -0.03545948 0
vn -0.9993711 -0.03545948 0
vn -1 0 0
vn -1 0 0
vn -1 0 0
vn -1 0 0
vn -1 0 0
vn -1 0 0
vn -1 0 0
vn -1 0 0
vn -1 0 0
vn -1 0 0
vn -0.9993711 0.03545949 0
vn -0.9993711 0.03545949 0
vn -0.9653041 0.2611281 0
vn -0.9653041 0.2611281 0
vn -0.8639737 0.5035369 0
vn -0.8639737 0.5035369 0
vn -0.7071061 0.7071075 0
vn -0.7071061 0.7071075 0
vn -0.5035349 0.8639749 0
vn -0.5035349 0.8639749 0
vn -0.2611264 0.9653046 0
vn -0.2611264 0.9653046 0
vn -0.02556456 0.9996731 0
vn -0.02556456 0.9996731 0
vn 0 1 0
vn 0 1 0
vn 0 1 0
vn 0 1 0
vn 0 1 0
vn 0 1 0
vn 0 1 0
vn 0 1 0
vn 0 1 0
vn 0 1 0
vn 0.02556454 0.9996731 0
vn 0.02556454 0.9996731 0
vn 0 0 -1
vn 0 0 -1
vn 0 0 -1
vn 0 0 -1
vn 0 0 -1
vn 0 0 -1
vn 0 0 -1
vn 0 0 -1
vn 0 0 -1
vn 0 0 -1
vn 0 0 -1
vn 0 0 -1
vn 0 0 -1
vn 0 0 -1
vn 0 0 -1
vn 0 0 -1
vn 0 0 -1
vn 0 0 -1
vn 0 0 -1
vn 0 0 -1
vn 0 0 -1
vn 0 0 -1
vn 0 0 -1
vn 0 0 -1
vn 0 0 -1
vn 0 0 -1
vn 0 0 -1
vn 0 0 -1
vn 0 0 -1
vn 0 0 -1
vn 0 0 -1
vn 0 0 -1
vn 0 0 -1
vn 0 0 -1
vn 0 0 -1
vn 0 0 -1
vn 0 0 -1
vn 0 0 -1
vn 0 0 -1
vn 0 0 -1
vn 0 0 -1
vn 0 0 -1
vn 0 0 -1
vn 0 0 -1
vn 0 0 -1
vn 0 0 -1
vn 0 0 -1
vn 0 0 -1
vn 0 0 1
vn 0 0 1
vn 0 0 1
vn 0 0 1
vn 0 0 1
vn 0 0 1
vn 0 0 1
vn 0 0 1
vn 0 0 1
vn 0 0 1
vn 0 0 1
vn 0 0 1
vn 0 0 1
vn 0 0 1
vn 0 0 1
vn 0 0 1
vn 0 0 1
vn 0 0 1
vn 0 0 1
vn 0 0 1
vn 0 0 1
vn 0 0 1
vn 0 0 1
vn 0 0 1
vn 0 0 1
vn 0 0 1
vn 0 0 1
vn 0 0 1
vn 0 0 1
vn 0 0 1
vn 0 0 1
vn 0 0 1
vn 0 0 1
vn 0 0 1
vn 0 0 1
vn 0 0 1
vn 0 0 1
vn 0 0 1
vn 0 0 1
vn 0 0 1
vn 0 0 1
vn 0 0 1
vn 0 0 1
vn 0 0 1
vn 0 0 1
vn 0 0 1
vn 0 0 1
vn 0 0 1
g PanelHighlightMesh_3x2_0
f 3/3/3 2/2/2 1/1/1
f 4/4/4 3/3/3 1/1/1
f 3/3/3 4/4/4 5/5/5
f 6/6/6 3/3/3 5/5/5
f 7/7/7 6/6/6 5/5/5
f 8/8/8 7/7/7 5/5/5
f 9/9/9 7/7/7 8/8/8
f 10/10/10 9/9/9 8/8/8
f 9/9/9 10/10/10 11/11/11
f 12/12/12 9/9/9 11/11/11
f 13/13/13 12/12/12 11/11/11
f 14/14/14 13/13/13 11/11/11
f 15/15/15 13/13/13 14/14/14
f 16/16/16 15/15/15 14/14/14
f 15/15/15 16/16/16 17/17/17
f 18/18/18 15/15/15 17/17/17
f 19/19/19 18/18/18 17/17/17
f 20/20/20 19/19/19 17/17/17
f 21/21/21 19/19/19 20/20/20
f 22/22/22 21/21/21 20/20/20
f 21/21/21 22/22/22 23/23/23
f 24/24/24 21/21/21 23/23/23
f 25/25/25 24/24/24 23/23/23
f 26/26/26 25/25/25 23/23/23
f 27/27/27 25/25/25 26/26/26
f 28/28/28 27/27/27 26/26/26
f 27/27/27 28/28/28 29/29/29
f 30/30/30 27/27/27 29/29/29
f 31/31/31 30/30/30 29/29/29
f 32/32/32 31/31/31 29/29/29
f 33/33/33 31/31/31 32/32/32
f 34/34/34 33/33/33 32/32/32
f 33/33/33 34/34/34 35/35/35
f 36/36/36 33/33/33 35/35/35
f 37/37/37 36/36/36 35/35/35
f 38/38/38 37/37/37 35/35/35
f 39/39/39 37/37/37 38/38/38
f 40/40/40 39/39/39 38/38/38
f 39/39/39 40/40/40 41/41/41
f 42/42/42 39/39/39 41/41/41
f 43/43/43 42/42/42 41/41/41
f 44/44/44 43/43/43 41/41/41
f 45/45/45 43/43/43 44/44/44
f 46/46/46 45/45/45 44/44/44
f 45/45/45 46/46/46 47/47/47
f 48/48/48 45/45/45 47/47/47
f 49/49/49 48/48/48 47/47/47
f 50/50/50 49/49/49 47/47/47
f 51/51/51 49/49/49 50/50/50
f 52/52/52 51/51/51 50/50/50
f 51/51/51 52/52/52 53/53/53
f 54/54/54 51/51/51 53/53/53
f 55/55/55 54/54/54 53/53/53
f 56/56/56 55/55/55 53/53/53
f 57/57/57 55/55/55 56/56/56
f 58/58/58 57/57/57 56/56/56
f 57/57/57 58/58/58 59/59/59
f 60/60/60 57/57/57 59/59/59
f 61/61/61 60/60/60 59/59/59
f 62/62/62 61/61/61 59/59/59
f 63/63/63 61/61/61 62/62/62
f 64/64/64 63/63/63 62/62/62
f 63/63/63 64/64/64 65/65/65
f 66/66/66 63/63/63 65/65/65
f 67/67/67 66/66/66 65/65/65
f 68/68/68 67/67/67 65/65/65
f 69/69/69 67/67/67 68/68/68
f 70/70/70 69/69/69 68/68/68
f 69/69/69 70/70/70 71/71/71
f 72/72/72 69/69/69 71/71/71
f 73/73/73 72/72/72 71/71/71
f 74/74/74 73/73/73 71/71/71
f 75/75/75 73/73/73 74/74/74
f 76/76/76 75/75/75 74/74/74
f 75/75/75 76/76/76 77/77/77
f 78/78/78 75/75/75 77/77/77
f 79/79/79 78/78/78 77/77/77
f 80/80/80 79/79/79 77/77/77
f 81/81/81 79/79/79 80/80/80
f 82/82/82 81/81/81 80/80/80
f 81/81/81 82/82/82 83/83/83
f 84/84/84 81/81/81 83/83/83
f 85/85/85 84/84/84 83/83/83
f 86/86/86 85/85/85 83/83/83
f 87/87/87 85/85/85 86/86/86
f 88/88/88 87/87/87 86/86/86
f 87/87/87 88/88/88 89/89/89
f 90/90/90 87/87/87 89/89/89
f 91/91/91 90/90/90 89/89/89
f 92/92/92 91/91/91 89/89/89
f 93/93/93 91/91/91 92/92/92
f 94/94/94 93/93/93 92/92/92
f 93/93/93 94/94/94 95/95/95
f 96/96/96 93/93/93 95/95/95
f 97/97/97 96/96/96 95/95/95
f 98/98/98 97/97/97 95/95/95
f 101/101/101 100/100/100 99/99/99
f 99/99/99 102/102/102 101/101/101
f 99/99/99 103/103/103 102/102/102
f 99/99/99 104/104/104 103/103/103
f 99/99/99 105/105/105 104/104/104
f 99/99/99 106/106/106 105/105/105
f 99/99/99 107/107/107 106/106/106
f 99/99/99 108/108/108 107/107/107
f 108/108/108 109/109/109 107/107/107
f 108/108/108 110/110/110 109/109/109
f 110/110/110 111/111/111 109/109/109
f 110/110/110 112/112/112 111/111/111
f 112/112/112 113/113/113 111/111/111
f 112/112/112 114/114/114 113/113/113
f 114/114/114 115/115/115 113/113/113
f 114/114/114 116/116/116 115/115/115
f 116/116/116 117/117/117 115/115/115
f 116/116/116 118/118/118 117/117/117
f 118/118/118 119/119/119 117/117/117
f 118/118/118 120/120/120 119/119/119
f 120/120/120 121/121/121 119/119/119
f 120/120/120 122/122/122 121/121/121
f 122/122/122 123/123/123 121/121/121
f 122/122/122 124/124/124 123/123/123
f 124/124/124 125/125/125 123/123/123
f 124/124/124 126/126/126 125/125/125
f 126/126/126 127/127/127 125/125/125
f 126/126/126 128/128/128 127/127/127
f 128/128/128 129/129/129 127/127/127
f 128/128/128 130/130/130 129/129/129
f 130/130/130 131/131/131 129/129/129
f 130/130/130 132/132/132 131/131/131
f 132/132/132 133/133/133 131/131/131
f 132/132/132 134/134/134 133/133/133
f 134/134/134 135/135/135 133/133/133
f 134/134/134 136/136/136 135/135/135
f 136/136/136 137/137/137 135/135/135
f 136/136/136 138/138/138 137/137/137
f 138/138/138 139/139/139 137/137/137
f 138/138/138 140/140/140 139/139/139
f 140/140/140 141/141/141 139/139/139
f 140/140/140 142/142/142 141/141/141
f 142/142/142 143/143/143 141/141/141
f 143/143/143 144/144/144 141/141/141
f 144/144/144 145/145/145 141/141/141
f 145/145/145 146/146/146 141/141/141
f 149/149/149 148/148/148 147/147/147
f 147/147/147 150/150/150 149/149/149
f 147/147/147 151/151/151 150/150/150
f 147/147/147 152/152/152 151/151/151
f 147/147/147 153/153/153 152/152/152
f 147/147/147 154/154/154 153/153/153
f 147/147/147 155/155/155 154/154/154
f 147/147/147 156/156/156 155/155/155
f 156/156/156 157/157/157 155/155/155
f 156/156/156 158/158/158 157/157/157
f 158/158/158 159/159/159 157/157/157
f 158/158/158 160/160/160 159/159/159
f 160/160/160 161/161/161 159/159/159
f 160/160/160 162/162/162 161/161/161
f 162/162/162 163/163/163 161/161/161
f 162/162/162 164/164/164 163/163/163
f 164/164/164 165/165/165 163/163/163
f 164/164/164 166/166/166 165/165/165
f 166/166/166 167/167/167 165/165/165
f 166/166/166 168/168/168 167/167/167
f 168/168/168 169/169/169 167/167/167
f 168/168/168 170/170/170 169/169/169
f 170/170/170 171/171/171 169/169/169
f 170/170/170 172/172/172 171/171/171
f 172/172/172 173/173/173 171/171/171
f 172/172/172 174/174/174 173/173/173
f 174/174/174 175/175/175 173/173/173
f 174/174/174 176/176/176 175/175/175
f 176/176/176 177/177/177 175/175/175
f 176/176/176 178/178/178 177/177/177
f 178/178/178 179/179/179 177/177/177
f 178/178/178 180/180/180 179/179/179
f 180/180/180 181/181/181 179/179/179
f 180/180/180 182/182/182 181/181/181
f 182/182/182 183/183/183 181/181/181
f 182/182/182 184/184/184 183/183/183
f 184/184/184 185/185/185 183/183/183
f 184/184/184 186/186/186 185/185/185
f 186/186/186 187/187/187 185/185/185
f 186/186/186 188/188/188 187/187/187
f 188/188/188 189/189/189 187/187/187
f 188/188/188 190/190/190 189/189/189
f 190/190/190 191/191/191 189/189/189
f 191/191/191 192/192/192 189/189/189
f 192/192/192 193/193/193 189/189/189
f 193/193/193 194/194/194 189/189/189
