g Pincushion_Button
v -0.2316652 3.051758E-07 -0.7779689
v -0.2316652 3.051758E-07 0.04642402
v -0.2233899 -0.06158569 0.04642402
v -0.2233899 -0.06158569 -0.7779689
v -0.200036 -0.1169258 -0.7779689
v -0.200036 -0.1169258 0.04642402
v -0.163812 -0.163812 0.04642402
v -0.163812 -0.163812 -0.7779689
v -0.1169258 -0.2000362 0.04642402
v -0.1169258 -0.2000362 -0.7779689
v -0.061586 -0.2233899 -0.7779689
v -0.061586 -0.2233899 0.04642402
v -1.525879E-07 -0.231665 0.04642402
v -1.525879E-07 -0.231665 -0.7779689
v 3.051758E-07 0.231665 -0.7779689
v 3.051758E-07 0.231665 0.04642402
v -0.06158554 0.2233899 0.04642402
v -0.06158554 0.2233899 -0.7779689
v -0.1169257 0.2000362 -0.7779689
v -0.1169257 0.2000362 0.04642402
v -0.163812 0.1638121 0.04642402
v -0.163812 0.1638121 -0.7779689
v -0.200036 0.116926 0.04642402
v -0.200036 0.116926 -0.7779689
v -0.2233899 0.061586 -0.7779689
v -0.2233899 0.061586 0.04642402
v -0.2316652 3.051758E-07 0.04642402
v -0.2316652 3.051758E-07 -0.7779689
v 0.231665 -3.051758E-07 -0.7779689
v 0.231665 -3.051758E-07 0.04642402
v 0.2233899 0.06158569 0.04642402
v 0.2233899 0.06158569 -0.7779689
v 0.2000362 0.1169258 -0.7779689
v 0.2000362 0.1169258 0.04642402
v 0.163812 0.1638121 0.04642402
v 0.163812 0.1638121 -0.7779689
v 0.116926 0.2000362 0.04642402
v 0.116926 0.2000362 -0.7779689
v 0.061586 0.2233899 -0.7779689
v 0.061586 0.2233899 0.04642402
v 3.051758E-07 0.231665 0.04642402
v 3.051758E-07 0.231665 -0.7779689
v -1.525879E-07 -0.231665 -0.7779689
v -1.525879E-07 -0.231665 0.04642402
v 0.06158569 -0.2233899 0.04642402
v 0.06158569 -0.2233899 -0.7779689
v 0.1169258 -0.2000362 -0.7779689
v 0.1169258 -0.2000362 0.04642402
v 0.163812 -0.1638121 0.04642402
v 0.163812 -0.1638121 -0.7779689
v 0.200036 -0.116926 0.04642402
v 0.200036 -0.116926 -0.7779689
v 0.2233899 -0.061586 -0.7779689
v 0.2233899 -0.061586 0.04642402
v 0.231665 -3.051758E-07 0.04642402
v 0.231665 -3.051758E-07 -0.7779689
v 0.2233899 0.06158569 0.04642402
v 0.231665 -3.051758E-07 0.04642402
v 0.2233899 -0.061586 0.04642402
v 0.2000362 0.1169258 0.04642402
v 0.200036 -0.116926 0.04642402
v 0.163812 0.1638121 0.04642402
v 0.163812 -0.1638121 0.04642402
v 0.116926 0.2000362 0.04642402
v 0.1169258 -0.2000362 0.04642402
v 0.061586 0.2233899 0.04642402
v 0.06158569 -0.2233899 0.04642402
v 3.051758E-07 0.231665 0.04642402
v -1.525879E-07 -0.231665 0.04642402
v -0.06158554 0.2233899 0.04642402
v -0.061586 -0.2233899 0.04642402
v -0.1169257 0.2000362 0.04642402
v -0.1169258 -0.2000362 0.04642402
v -0.163812 0.1638121 0.04642402
v -0.163812 -0.163812 0.04642402
v -0.200036 0.116926 0.04642402
v -0.200036 -0.1169258 0.04642402
v -0.2233899 0.061586 0.04642402
v -0.2233899 -0.06158569 0.04642402
v -0.2316652 3.051758E-07 0.04642402
v 0.231665 -3.051758E-07 -0.7779689
v 3.051758E-07 0.231665 -0.7779689
v -0.2316652 3.051758E-07 -0.7779689
v -1.525879E-07 -0.231665 -0.7779689
v -0.061586 -0.2233899 -0.7779689
v -0.1169258 -0.2000362 -0.7779689
v -0.163812 -0.163812 -0.7779689
v -0.200036 -0.1169258 -0.7779689
v -0.2233899 -0.06158569 -0.7779689
v -0.06158554 0.2233899 -0.7779689
v -0.1169257 0.2000362 -0.7779689
v -0.163812 0.1638121 -0.7779689
v -0.200036 0.116926 -0.7779689
v -0.2233899 0.061586 -0.7779689
v 0.2233899 0.06158569 -0.7779689
v 0.2000362 0.1169258 -0.7779689
v 0.163812 0.1638121 -0.7779689
v 0.116926 0.2000362 -0.7779689
v 0.061586 0.2233899 -0.7779689
v 0.2233899 -0.061586 -0.7779689
v 0.200036 -0.116926 -0.7779689
v 0.163812 -0.1638121 -0.7779689
v 0.1169258 -0.2000362 -0.7779689
v 0.06158569 -0.2233899 -0.7779689
vt 0.02892543 0.1181498
vt 0.02892543 0.01630294
vt 0.02662551 0.01630294
vt 0.02662551 0.1181498
vt 0.02432562 0.1181498
vt 0.02432562 0.01630294
vt 0.02202569 0.01630294
vt 0.02202569 0.1181498
vt 0.01972581 0.01630294
vt 0.01972581 0.1181498
vt 0.01742588 0.1181498
vt 0.01742588 0.01630294
vt 0.015126 0.01630294
vt 0.015126 0.1181498
vt 0.05652428 0.1181498
vt 0.05652428 0.01630294
vt 0.05422434 0.01630294
vt 0.05422434 0.1181498
vt 0.05192444 0.1181498
vt 0.05192444 0.01630294
vt 0.04962453 0.01630294
vt 0.04962453 0.1181498
vt 0.04732467 0.01630294
vt 0.04732467 0.1181498
vt 0.04502475 0.1181498
vt 0.04502475 0.01630294
vt 0.04272489 0.01630294
vt 0.04272489 0.1181498
vt 0.08412325 0.1181498
vt 0.08412325 0.01630294
vt 0.08182317 0.01630294
vt 0.08182317 0.1181498
vt 0.07952338 0.1181498
vt 0.07952338 0.01630294
vt 0.07722348 0.01630294
vt 0.07722348 0.1181498
vt 0.07492357 0.01630294
vt 0.07492357 0.1181498
vt 0.07262361 0.1181498
vt 0.07262361 0.01630294
vt 0.07032371 0.01630294
vt 0.07032371 0.1181498
vt 0.1117222 0.1181498
vt 0.1117222 0.01630294
vt 0.1094221 0.01630294
vt 0.1094221 0.1181498
vt 0.1071222 0.1181498
vt 0.1071222 0.01630294
vt 0.1048223 0.01630294
vt 0.1048223 0.1181498
vt 0.1025226 0.01630294
vt 0.1025226 0.1181498
vt 0.1002225 0.1181498
vt 0.1002225 0.01630294
vt 0.09792262 0.01630294
vt 0.09792262 0.1181498
vt 0.01892524 0.08084047
vt 0.01702119 0.06771982
vt 0.01892524 0.05459905
vt 0.02429851 0.09263074
vt 0.02429856 0.04280925
vt 0.03263313 0.1026189
vt 0.03263313 0.03282058
vt 0.04342088 0.110337
vt 0.04342093 0.02510238
vt 0.05615368 0.115312
vt 0.0561538 0.0201273
vt 0.07032368 0.1170751
vt 0.07032371 0.01836443
vt 0.08449364 0.115312
vt 0.08449376 0.0201273
vt 0.09722662 0.110337
vt 0.09722662 0.02510238
vt 0.1080143 0.1026189
vt 0.1080143 0.03282058
vt 0.116349 0.09263074
vt 0.116349 0.04280925
vt 0.1217223 0.08084106
vt 0.1217223 0.05459917
vt 0.1236264 0.06771982
vt 0.007832033 0.4998098
vt 0.5021986 0.9971368
vt 0.9965665 0.4998111
vt 0.5021994 0.002484322
vt 0.6336219 0.02024916
vt 0.7517158 0.07038382
vt 0.8517699 0.148148
vt 0.9290709 0.2488005
vt 0.9789073 0.3676018
vt 0.633621 0.9793719
vt 0.7517155 0.929237
vt 0.8517694 0.8514735
vt 0.9290709 0.7508208
vt 0.9789073 0.6320199
vt 0.02549128 0.6320195
vt 0.07532717 0.7508205
vt 0.1526284 0.8514735
vt 0.2526821 0.929237
vt 0.370776 0.9793719
vt 0.02549128 0.3676013
vt 0.07532768 0.2488003
vt 0.1526284 0.1481478
vt 0.2526826 0.07038382
vt 0.370777 0.02024916
vn -1 3.307719E-07 0
vn -1 3.307719E-07 0
vn -0.9647117 -0.2633088 0
vn -0.9647117 -0.2633088 0
vn -0.8635296 -0.5042983 0
vn -0.8635296 -0.5042983 0
vn -0.7071074 -0.7071061 0
vn -0.7071074 -0.7071061 0
vn -0.5042998 -0.8635286 0
vn -0.5042998 -0.8635286 0
vn -0.2633084 -0.9647117 0
vn -0.2633084 -0.9647117 0
vn 2.706314E-07 -1 0
vn 2.706314E-07 -1 0
vn 0 1 0
vn 0 1 0
vn -0.263308 0.9647119 0
vn -0.263308 0.9647119 0
vn -0.5042971 0.8635301 0
vn -0.5042971 0.8635301 0
vn -0.7071059 0.7071077 0
vn -0.7071059 0.7071077 0
vn -0.8635293 0.5042987 0
vn -0.8635293 0.5042987 0
vn -0.9647114 0.2633096 0
vn -0.9647114 0.2633096 0
vn -1 3.307719E-07 0
vn -1 3.307719E-07 0
vn 1 -3.382893E-07 0
vn 1 -3.382893E-07 0
vn 0.9647121 0.2633069 0
vn 0.9647121 0.2633069 0
vn 0.86353 0.5042974 0
vn 0.86353 0.5042974 0
vn 0.7071072 0.7071064 0
vn 0.7071072 0.7071064 0
vn 0.5042989 0.8635293 0
vn 0.5042989 0.8635293 0
vn 0.263308 0.9647119 0
vn 0.263308 0.9647119 0
vn 0 1 0
vn 0 1 0
vn 2.706314E-07 -1 0
vn 2.706314E-07 -1 0
vn 0.263308 -0.9647119 0
vn 0.263308 -0.9647119 0
vn 0.5042977 -0.8635299 0
vn 0.5042977 -0.8635299 0
vn 0.7071069 -0.7071066 0
vn 0.7071069 -0.7071066 0
vn 0.8635293 -0.5042987 0
vn 0.8635293 -0.5042987 0
vn 0.9647115 -0.2633095 0
vn 0.9647115 -0.2633095 0
vn 1 -3.382893E-07 0
vn 1 -3.382893E-07 0
vn 0 0 1
vn 0 1 0
vn 0 0 1
vn 0 0 1
vn 0 0 1
vn 0 0 1
vn 0 0 1
vn 0 0 1
vn 0 0 1
vn 0 0 1
vn 0 0 1
vn 0 1 0
vn 0 1 0
vn 0 0 1
vn 0 0 1
vn 0 0 1
vn 0 0 1
vn 0 0 1
vn 0 0 1
vn 0 0 1
vn 0 0 1
vn 0 0 1
vn 0 0 1
vn 0 1 0
vn 0 0 -1
vn 0 0 -1
vn 4.276718E-07 0 -1
vn 4.276718E-07 0 -1
vn 8.553436E-07 0 -1
vn 8.553434E-07 0 -1
vn 8.553436E-07 0 -1
vn 8.553434E-07 0 -1
vn 8.553436E-07 0 -1
vn 0 0 -1
vn 0 0 -1
vn 0 0 -1
vn 0 0 -1
vn 0 0 -1
vn -4.276719E-07 0 -1
vn -4.27672E-07 0 -1
vn -4.276719E-07 0 -1
vn -4.27672E-07 0 -1
vn -4.276719E-07 0 -1
vn 0 0 -1
vn 0 0 -1
vn 0 0 -1
vn 0 0 -1
vn 0 0 -1
g Pincushion_Button_0
f 3/3/3 2/2/2 1/1/1
f 4/4/4 3/3/3 1/1/1
f 3/3/3 4/4/4 5/5/5
f 6/6/6 3/3/3 5/5/5
f 7/7/7 6/6/6 5/5/5
f 8/8/8 7/7/7 5/5/5
f 9/9/9 7/7/7 8/8/8
f 10/10/10 9/9/9 8/8/8
f 9/9/9 10/10/10 11/11/11
f 12/12/12 9/9/9 11/11/11
f 13/13/13 12/12/12 11/11/11
f 14/14/14 13/13/13 11/11/11
f 17/17/17 16/16/16 15/15/15
f 18/18/18 17/17/17 15/15/15
f 17/17/17 18/18/18 19/19/19
f 20/20/20 17/17/17 19/19/19
f 21/21/21 20/20/20 19/19/19
f 22/22/22 21/21/21 19/19/19
f 23/23/23 21/21/21 22/22/22
f 24/24/24 23/23/23 22/22/22
f 23/23/23 24/24/24 25/25/25
f 26/26/26 23/23/23 25/25/25
f 27/27/27 26/26/26 25/25/25
f 28/28/28 27/27/27 25/25/25
f 31/31/31 30/30/30 29/29/29
f 32/32/32 31/31/31 29/29/29
f 31/31/31 32/32/32 33/33/33
f 34/34/34 31/31/31 33/33/33
f 35/35/35 34/34/34 33/33/33
f 36/36/36 35/35/35 33/33/33
f 37/37/37 35/35/35 36/36/36
f 38/38/38 37/37/37 36/36/36
f 37/37/37 38/38/38 39/39/39
f 40/40/40 37/37/37 39/39/39
f 41/41/41 40/40/40 39/39/39
f 42/42/42 41/41/41 39/39/39
f 45/45/45 44/44/44 43/43/43
f 46/46/46 45/45/45 43/43/43
f 45/45/45 46/46/46 47/47/47
f 48/48/48 45/45/45 47/47/47
f 49/49/49 48/48/48 47/47/47
f 50/50/50 49/49/49 47/47/47
f 51/51/51 49/49/49 50/50/50
f 52/52/52 51/51/51 50/50/50
f 51/51/51 52/52/52 53/53/53
f 54/54/54 51/51/51 53/53/53
f 55/55/55 54/54/54 53/53/53
f 56/56/56 55/55/55 53/53/53
f 59/59/59 58/58/58 57/57/57
f 57/57/57 60/60/60 59/59/59
f 60/60/60 61/61/61 59/59/59
f 60/60/60 62/62/62 61/61/61
f 62/62/62 63/63/63 61/61/61
f 62/62/62 64/64/64 63/63/63
f 64/64/64 65/65/65 63/63/63
f 64/64/64 66/66/66 65/65/65
f 66/66/66 67/67/67 65/65/65
f 66/66/66 68/68/68 67/67/67
f 68/68/68 69/69/69 67/67/67
f 68/68/68 70/70/70 69/69/69
f 70/70/70 71/71/71 69/69/69
f 70/70/70 72/72/72 71/71/71
f 72/72/72 73/73/73 71/71/71
f 72/72/72 74/74/74 73/73/73
f 74/74/74 75/75/75 73/73/73
f 74/74/74 76/76/76 75/75/75
f 76/76/76 77/77/77 75/75/75
f 76/76/76 78/78/78 77/77/77
f 78/78/78 79/79/79 77/77/77
f 78/78/78 80/80/80 79/79/79
f 83/83/83 82/82/82 81/81/81
f 84/84/84 83/83/83 81/81/81
f 83/83/83 84/84/84 85/85/85
f 85/85/85 86/86/86 83/83/83
f 86/86/86 87/87/87 83/83/83
f 87/87/87 88/88/88 83/83/83
f 88/88/88 89/89/89 83/83/83
f 90/90/90 82/82/82 83/83/83
f 83/83/83 91/91/91 90/90/90
f 83/83/83 92/92/92 91/91/91
f 83/83/83 93/93/93 92/92/92
f 83/83/83 94/94/94 93/93/93
f 95/95/95 81/81/81 82/82/82
f 82/82/82 96/96/96 95/95/95
f 82/82/82 97/97/97 96/96/96
f 82/82/82 98/98/98 97/97/97
f 82/82/82 99/99/99 98/98/98
f 84/84/84 81/81/81 100/100/100
f 100/100/100 101/101/101 84/84/84
f 101/101/101 102/102/102 84/84/84
f 102/102/102 103/103/103 84/84/84
f 103/103/103 104/104/104 84/84/84
