g Plane
v 0.926698 0.92688 -0.016656
v 0.926698 0.92688 0.017986
v 0.92688 0.400958 0.017986
v 0.92688 0.400958 -0.016656
v 1 0.92688 -0.016656
v 1 1 -0.016656
v 0.926698 1 -0.016656
v 0.92688 0.400958 0.017986
v 1 0.92688 0.017986
v 1 0.400958 0.017986
v 1 0.400958 -0.016656
v 1 0.400958 0.017986
v 1 0.92688 -0.016656
v 1 1 -0.016656
v 0.926698 1 0.017986
v 1 1 0.017986
v 0.926698 0.92688 0.017986
v 0.926698 1 0.017986
v 1 1 0.017986
v 1 0.92688 0.017986
v 1 0.92688 -0.016656
v 1 0.92688 0.017986
v 1 1 -0.016656
v 0.926698 1 -0.016656
v 0.926698 0.92688 0.017986
v 0.926698 0.92688 -0.016656
v 0.92688 0.400958 -0.016656
v 1 0.92688 -0.016656
v 1 0.400958 -0.016656
v 0.92688 0.400958 0.017986
v 1 0.400958 0.017986
v 1 0.400958 -0.016656
v -1 0.92688 -0.016656
v -0.929279 0.92688 -0.016656
v -0.929279 1 -0.016656
v -1 1 -0.016656
v -0.929279 1 -0.016656
v -1 1 0.017986
v -0.929279 1 0.017986
v -1 0.92688 0.017986
v -1 0.400958 0.017986
v -1 0.400958 -0.016656
v -1 0.400958 0.017986
v -0.929279 0.92688 0.017986
v -0.92957 0.400958 0.017986
v -0.92957 0.400958 -0.016656
v -0.92957 0.400958 0.017986
v -0.929279 0.92688 -0.016656
v -1 -1 -0.016656
v -0.929463 -1 -0.016656
v -0.929463 -0.92957 -0.016656
v -1 -0.92957 -0.016656
v -1 -1 0.017986
v -0.929463 -1 0.017986
v -0.929463 -1 -0.016656
v -1 -0.398649 -0.016656
v -1 -0.92957 0.017986
v -1 -0.398649 0.017986
v -1 -0.398649 0.017986
v -0.92957 -0.398649 0.017986
v -0.929463 -0.92957 0.017986
v -0.929463 -0.92957 -0.016656
v -0.92957 -0.398649 0.017986
v -0.92957 -0.398649 -0.016656
v 0.926675 -1 -0.016656
v 1 -1 -0.016656
v 1 -0.92957 -0.016656
v 0.926675 -0.92957 -0.016656
v 0.926675 -1 0.017986
v 1 -1 0.017986
v 1 -1 -0.016656
v 0.92688 -0.398649 -0.016656
v 0.926675 -0.92957 0.017986
v 0.92688 -0.398649 0.017986
v 0.926675 -0.92957 0.017986
v 1 -0.398649 0.017986
v 1 -0.92957 0.017986
v 1 -0.92957 -0.016656
v 1 -0.92957 0.017986
v 1 -0.398649 -0.016656
v -1 0.400958 -0.016656
v -0.92957 0.400958 -0.016656
v -0.929279 0.92688 -0.016656
v -1 0.92688 -0.016656
v -1 1 -0.016656
v -1 0.92688 0.017986
v -1 1 0.017986
v -1 0.92688 0.017986
v -0.929279 1 0.017986
v -0.929279 0.92688 0.017986
v -0.929279 0.92688 -0.016656
v -0.929279 0.92688 0.017986
v -0.929279 1 -0.016656
v -1 0.400958 0.017986
v -0.92957 0.400958 0.017986
v -0.92957 0.400958 -0.016656
v 0.926675 -0.92957 -0.016656
v 0.926675 -0.92957 0.017986
v 0.926675 -1 0.017986
v 0.926675 -1 -0.016656
v 1 -0.92957 -0.016656
v 1 -0.398649 -0.016656
v 0.92688 -0.398649 -0.016656
v 1 -0.398649 -0.016656
v 0.92688 -0.398649 0.017986
v 1 -0.398649 0.017986
v 0.926675 -1 0.017986
v 1 -0.92957 0.017986
v 1 -1 0.017986
v 1 -1 -0.016656
v 1 -1 0.017986
v 1 -0.92957 -0.016656
v -1 -0.92957 -0.016656
v -1 -0.92957 0.017986
v -1 -1 0.017986
v -1 -1 -0.016656
v -0.929463 -0.92957 -0.016656
v -0.92957 -0.398649 -0.016656
v -1 -0.398649 -0.016656
v -0.92957 -0.398649 -0.016656
v -1 -0.398649 0.017986
v -0.92957 -0.398649 0.017986
v -1 -1 0.017986
v -0.929463 -0.92957 0.017986
v -0.929463 -1 0.017986
v -0.929463 -1 -0.016656
v -0.929463 -1 0.017986
v -0.929463 -0.92957 -0.016656
vt 0 0
vt 0 1
vt 1 1
vt 1 0
vt 0 1
vt 1 1
vt 1 0
vt 0 0
vt 1 1
vt 1 0
vt 0 0
vt 0 1
vt 1 0
vt 0 0
vt 1 1
vt 0 1
vt 0 0
vt 0 1
vt 1 1
vt 1 0
vt 0 0
vt 0 1
vt 1 0
vt 0 0
vt 1 1
vt 1 0
vt 0 0
vt 1 1
vt 0 1
vt 0 1
vt 1 1
vt 1 0
vt 0 0
vt 0 1
vt 1 1
vt 1 0
vt 0 0
vt 1 1
vt 0 1
vt 0 1
vt 1 1
vt 1 0
vt 0 0
vt 1 1
vt 1 0
vt 0 0
vt 0 1
vt 1 0
vt 0 0
vt 0 1
vt 1 1
vt 1 0
vt 0 1
vt 1 1
vt 1 0
vt 0 0
vt 1 1
vt 0 1
vt 0.999998 0
vt 0 0
vt 0 1
vt 0 0
vt 1 1
vt 1 0
vt 0 0
vt 0 1
vt 1 1
vt 1 0
vt 0 1
vt 1 1
vt 1 0
vt 0 0
vt 1 1
vt 0 1
vt 0 0
vt 1 1
vt 1 0
vt 0 0
vt 0 1
vt 1 0
vt 0 0
vt 0 1
vt 1 1
vt 1 0
vt 0 0
vt 1 1
vt 0 1
vt 0 0
vt 1 1
vt 1 0
vt 0 0
vt 0 1
vt 1 0
vt 0 1
vt 1 1
vt 1 0
vt 0 0
vt 0 1
vt 1 1
vt 1 0
vt 0 1
vt 1 1
vt 1 0
vt 0 0
vt 1 1
vt 0 1
vt 0 0
vt 1 1
vt 1 0
vt 0 0
vt 0 1
vt 1 0
vt 0 0
vt 0 1
vt 1 1
vt 1 0
vt 0 1
vt 1 1
vt 1 0
vt 0 0
vt 1 1
vt 0 1
vt 0 0
vt 1 1
vt 1 0
vt 0 0
vt 0 1
vt 1 0
vn -0.7071068 -0.0001223321 -0.7071068
vn -0.7071068 -0.0001223321 0.7071068
vn -0.5772836 -0.5774834 0.5772836
vn -0.5772836 -0.5774834 -0.5772836
vn 0.7071068 0 -0.7071068
vn 0.5773503 0.5773503 -0.5773503
vn -0.5773503 0.5773503 -0.5773503
vn -0.5772836 -0.5774834 0.5772836
vn 0.7071068 0 0.7071068
vn 0.5773503 -0.5773503 0.5773503
vn 0.5773503 -0.5773503 -0.5773503
vn 0.5773503 -0.5773503 0.5773503
vn 0.7071068 0 -0.7071068
vn 0.5773503 0.5773503 -0.5773503
vn -0.5773503 0.5773503 0.5773503
vn 0.5773503 0.5773503 0.5773503
vn -0.7071068 -0.0001223321 0.7071068
vn -0.5773503 0.5773503 0.5773503
vn 0.5773503 0.5773503 0.5773503
vn 0.7071068 0 0.7071068
vn 0.7071068 0 -0.7071068
vn 0.7071068 0 0.7071068
vn 0.5773503 0.5773503 -0.5773503
vn -0.5773503 0.5773503 -0.5773503
vn -0.7071068 -0.0001223321 0.7071068
vn -0.7071068 -0.0001223321 -0.7071068
vn -0.5772836 -0.5774834 -0.5772836
vn 0.7071068 0 -0.7071068
vn 0.5773503 -0.5773503 -0.5773503
vn -0.5772836 -0.5774834 0.5772836
vn 0.5773503 -0.5773503 0.5773503
vn 0.5773503 -0.5773503 -0.5773503
vn -0.7071068 0 -0.7071068
vn 0.7071067 -0.0001956192 -0.7071068
vn 0.5773503 0.5773503 -0.5773503
vn -0.5773503 0.5773503 -0.5773503
vn 0.5773503 0.5773503 -0.5773503
vn -0.5773503 0.5773503 0.5773503
vn 0.5773503 0.5773503 0.5773503
vn -0.7071068 0 0.7071068
vn -0.5773503 -0.5773503 0.5773503
vn -0.5773503 -0.5773503 -0.5773503
vn -0.5773503 -0.5773503 0.5773503
vn 0.7071067 -0.0001956192 0.7071068
vn 0.5772437 -0.5775632 0.5772438
vn 0.5772437 -0.5775632 -0.5772438
vn 0.5772437 -0.5775632 0.5772438
vn 0.7071067 -0.0001956192 -0.7071068
vn -0.5773503 -0.5773503 -0.5773503
vn 0.5773503 -0.5773503 -0.5773503
vn 0.7071068 0 -0.7071068
vn -0.7071068 0 -0.7071068
vn -0.5773503 -0.5773503 0.5773503
vn 0.5773503 -0.5773503 0.5773503
vn 0.5773503 -0.5773503 -0.5773503
vn -0.5773503 0.5773503 -0.5773503
vn -0.7071068 0 0.7071068
vn -0.5773503 0.5773503 0.5773503
vn -0.5773503 0.5773503 0.5773503
vn 0.5773503 0.5773503 0.5773503
vn 0.7071068 0 0.7071068
vn 0.7071068 0 -0.7071068
vn 0.5773503 0.5773503 0.5773503
vn 0.5773503 0.5773503 -0.5773503
vn -0.5773503 -0.5773503 -0.5773503
vn 0.5773503 -0.5773503 -0.5773503
vn 0.7071068 0 -0.7071068
vn -0.7071068 0.0001365015 -0.7071068
vn -0.5773503 -0.5773503 0.5773503
vn 0.5773503 -0.5773503 0.5773503
vn 0.5773503 -0.5773503 -0.5773503
vn -0.5772759 0.5774988 -0.5772759
vn -0.7071068 0.0001365015 0.7071068
vn -0.5772759 0.5774988 0.5772759
vn -0.7071068 0.0001365015 0.7071068
vn 0.5773503 0.5773503 0.5773503
vn 0.7071068 0 0.7071068
vn 0.7071068 0 -0.7071068
vn 0.7071068 0 0.7071068
vn 0.5773503 0.5773503 -0.5773503
vn -0.5773503 -0.5773503 -0.5773503
vn 0.5772437 -0.5775632 -0.5772438
vn 0.7071067 -0.0001956192 -0.7071068
vn -0.7071068 0 -0.7071068
vn -0.5773503 0.5773503 -0.5773503
vn -0.7071068 0 0.7071068
vn -0.5773503 0.5773503 0.5773503
vn -0.7071068 0 0.7071068
vn 0.5773503 0.5773503 0.5773503
vn 0.7071067 -0.0001956192 0.7071068
vn 0.7071067 -0.0001956192 -0.7071068
vn 0.7071067 -0.0001956192 0.7071068
vn 0.5773503 0.5773503 -0.5773503
vn -0.5773503 -0.5773503 0.5773503
vn 0.5772437 -0.5775632 0.5772438
vn 0.5772437 -0.5775632 -0.5772438
vn -0.7071068 0.0001365015 -0.7071068
vn -0.7071068 0.0001365015 0.7071068
vn -0.5773503 -0.5773503 0.5773503
vn -0.5773503 -0.5773503 -0.5773503
vn 0.7071068 0 -0.7071068
vn 0.5773503 0.5773503 -0.5773503
vn -0.5772759 0.5774988 -0.5772759
vn 0.5773503 0.5773503 -0.5773503
vn -0.5772759 0.5774988 0.5772759
vn 0.5773503 0.5773503 0.5773503
vn -0.5773503 -0.5773503 0.5773503
vn 0.7071068 0 0.7071068
vn 0.5773503 -0.5773503 0.5773503
vn 0.5773503 -0.5773503 -0.5773503
vn 0.5773503 -0.5773503 0.5773503
vn 0.7071068 0 -0.7071068
vn -0.7071068 0 -0.7071068
vn -0.7071068 0 0.7071068
vn -0.5773503 -0.5773503 0.5773503
vn -0.5773503 -0.5773503 -0.5773503
vn 0.7071068 0 -0.7071068
vn 0.5773503 0.5773503 -0.5773503
vn -0.5773503 0.5773503 -0.5773503
vn 0.5773503 0.5773503 -0.5773503
vn -0.5773503 0.5773503 0.5773503
vn 0.5773503 0.5773503 0.5773503
vn -0.5773503 -0.5773503 0.5773503
vn 0.7071068 0 0.7071068
vn 0.5773503 -0.5773503 0.5773503
vn 0.5773503 -0.5773503 -0.5773503
vn 0.5773503 -0.5773503 0.5773503
vn 0.7071068 0 -0.7071068
g Plane_0
f 3/3/3 2/2/2 1/1/1
f 4/4/4 3/3/3 1/1/1
f 6/6/6 5/5/5 1/1/1
f 7/7/7 6/6/6 1/1/1
f 9/9/9 2/2/2 8/8/8
f 10/10/10 9/9/9 8/8/8
f 9/9/9 12/12/12 11/11/11
f 13/13/13 9/9/9 11/11/11
f 7/7/7 15/15/15 14/14/14
f 15/15/15 16/16/16 14/14/14
f 19/19/19 18/18/18 17/17/17
f 20/20/20 19/19/19 17/17/17
f 19/19/19 22/22/22 21/21/21
f 23/23/23 19/19/19 21/21/21
f 25/25/25 18/18/18 24/24/24
f 26/26/26 25/25/25 24/24/24
f 26/26/26 28/28/28 27/27/27
f 28/28/28 29/29/29 27/27/27
f 31/31/31 30/30/30 27/27/27
f 32/32/32 31/31/31 27/27/27
f 35/35/35 34/34/34 33/33/33
f 36/36/36 35/35/35 33/33/33
f 36/36/36 38/38/38 37/37/37
f 38/38/38 39/39/39 37/37/37
f 41/41/41 40/40/40 33/33/33
f 42/42/42 41/41/41 33/33/33
f 44/44/44 40/40/40 43/43/43
f 45/45/45 44/44/44 43/43/43
f 44/44/44 47/47/47 46/46/46
f 48/48/48 44/44/44 46/46/46
f 51/51/51 50/50/50 49/49/49
f 52/52/52 51/51/51 49/49/49
f 54/54/54 53/53/53 49/49/49
f 55/55/55 54/54/54 49/49/49
f 52/52/52 57/57/57 56/56/56
f 57/57/57 58/58/58 56/56/56
f 60/60/60 59/59/59 57/57/57
f 61/61/61 60/60/60 57/57/57
f 63/63/63 61/61/61 62/62/62
f 64/64/64 63/63/63 62/62/62
f 67/67/67 66/66/66 65/65/65
f 68/68/68 67/67/67 65/65/65
f 70/70/70 69/69/69 65/65/65
f 71/71/71 70/70/70 65/65/65
f 68/68/68 73/73/73 72/72/72
f 73/73/73 74/74/74 72/72/72
f 76/76/76 74/74/74 75/75/75
f 77/77/77 76/76/76 75/75/75
f 76/76/76 79/79/79 78/78/78
f 80/80/80 76/76/76 78/78/78
f 83/83/83 82/82/82 81/81/81
f 84/84/84 83/83/83 81/81/81
f 84/84/84 86/86/86 85/85/85
f 86/86/86 87/87/87 85/85/85
f 89/89/89 87/87/87 88/88/88
f 90/90/90 89/89/89 88/88/88
f 89/89/89 92/92/92 91/91/91
f 93/93/93 89/89/89 91/91/91
f 95/95/95 94/94/94 81/81/81
f 96/96/96 95/95/95 81/81/81
f 99/99/99 98/98/98 97/97/97
f 100/100/100 99/99/99 97/97/97
f 102/102/102 101/101/101 97/97/97
f 103/103/103 102/102/102 97/97/97
f 103/103/103 105/105/105 104/104/104
f 105/105/105 106/106/106 104/104/104
f 108/108/108 98/98/98 107/107/107
f 109/109/109 108/108/108 107/107/107
f 108/108/108 111/111/111 110/110/110
f 112/112/112 108/108/108 110/110/110
f 115/115/115 114/114/114 113/113/113
f 116/116/116 115/115/115 113/113/113
f 118/118/118 117/117/117 113/113/113
f 119/119/119 118/118/118 113/113/113
f 119/119/119 121/121/121 120/120/120
f 121/121/121 122/122/122 120/120/120
f 124/124/124 114/114/114 123/123/123
f 125/125/125 124/124/124 123/123/123
f 124/124/124 127/127/127 126/126/126
f 128/128/128 124/124/124 126/126/126
