g Plane
v 0.372001 0.373442 -0.020176
v 0.29888 0.373442 -0.020199
v 0.298881 0.300363 -0.022655
v 0.372001 0.300363 -0.022631
v 0.298881 0.300363 -0.022655
v 0.37199 0.299199 0.011991
v 0.29887 0.2992 0.011968
v 0.89751 0.372275 0.014619
v 0.89751 0.299196 0.012163
v 0.371989 0.372278 0.014447
v 0.371989 0.372278 0.014447
v 0.371986 0.897903 0.032112
v 0.371998 0.899066 -0.002511
v 0.371986 0.897903 0.032112
v 0.298869 0.372279 0.014423
v 0.298866 0.897903 0.032088
v 0.298877 0.899067 -0.002535
v 0.298866 0.897903 0.032088
v 0.29888 0.373442 -0.020199
v 0.897522 0.30036 -0.02246
v 0.89751 0.372275 0.014619
v 0.897521 0.373439 -0.020004
v -0.366315 0.373448 -0.020107
v -0.897441 0.373413 -0.020281
v -0.897435 0.300334 -0.022737
v -0.366309 0.300369 -0.022563
v -0.366326 0.372285 0.014516
v -0.897452 0.372249 0.014342
v -0.897441 0.373413 -0.020281
v -0.897435 0.300334 -0.022737
v -0.366321 0.299206 0.01206
v -0.897446 0.29917 0.011886
v -0.295896 0.372289 0.014539
v -0.29589 0.299211 0.012083
v -0.366326 0.372285 0.014516
v -0.295879 0.300374 -0.02254
v -0.295896 0.372289 0.014539
v -0.295885 0.373453 -0.020084
v -0.295926 0.899078 -0.002419
v -0.366315 0.373448 -0.020107
v -0.366356 0.899073 -0.002442
v -0.295937 0.897914 0.032204
v -0.366367 0.897909 0.032181
v -0.366356 0.899073 -0.002442
v 0.371999 -0.365948 -0.013109
v 0.298879 -0.365947 -0.013133
v 0.298882 -0.896568 -0.030966
v 0.372002 -0.896569 -0.030942
v 0.371988 -0.367111 0.021514
v 0.897509 -0.367114 0.021685
v 0.89752 -0.365951 -0.012938
v 0.89752 -0.29556 -0.010572
v 0.371999 -0.365948 -0.013109
v 0.371999 -0.295557 -0.010744
v 0.371988 -0.296721 0.023879
v 0.298868 -0.367111 0.02149
v 0.298868 -0.29672 0.023855
v 0.897508 -0.296724 0.024051
v 0.371988 -0.296721 0.023879
v 0.371999 -0.295557 -0.010744
v 0.298882 -0.896568 -0.030966
v 0.371991 -0.897732 0.003681
v 0.298871 -0.897732 0.003657
v 0.298879 -0.295557 -0.010768
v 0.298868 -0.29672 0.023855
v 0.298879 -0.365947 -0.013133
v 0.897521 0.373439 -0.020004
v 0.372001 0.373442 -0.020176
v 0.372001 0.300363 -0.022631
v 0.897522 0.30036 -0.02246
v 0.89751 0.372275 0.014619
v 0.371989 0.372278 0.014447
v 0.372001 0.373442 -0.020176
v 0.371998 0.899066 -0.002511
v 0.29888 0.373442 -0.020199
v 0.298877 0.899067 -0.002535
v 0.371986 0.897903 0.032112
v 0.298866 0.897903 0.032088
v 0.298877 0.899067 -0.002535
v 0.372001 0.300363 -0.022631
v 0.89751 0.299196 0.012163
v 0.37199 0.299199 0.011991
v 0.371989 0.372278 0.014447
v 0.29887 0.2992 0.011968
v 0.298869 0.372279 0.014423
v 0.29888 0.373442 -0.020199
v 0.298869 0.372279 0.014423
v 0.298881 0.300363 -0.022655
v -0.295885 0.373453 -0.020084
v -0.366315 0.373448 -0.020107
v -0.366309 0.300369 -0.022563
v -0.295879 0.300374 -0.02254
v -0.295896 0.372289 0.014539
v -0.295937 0.897914 0.032204
v -0.295926 0.899078 -0.002419
v -0.295937 0.897914 0.032204
v -0.366326 0.372285 0.014516
v -0.366367 0.897909 0.032181
v -0.366356 0.899073 -0.002442
v -0.366367 0.897909 0.032181
v -0.366315 0.373448 -0.020107
v -0.366309 0.300369 -0.022563
v -0.29589 0.299211 0.012083
v -0.366321 0.299206 0.01206
v -0.366326 0.372285 0.014516
v -0.897446 0.29917 0.011886
v -0.897452 0.372249 0.014342
v -0.897441 0.373413 -0.020281
v -0.897452 0.372249 0.014342
v -0.897435 0.300334 -0.022737
v -0.295893 -0.365949 -0.013018
v -0.366324 -0.365949 -0.013041
v -0.366321 -0.89657 -0.030873
v -0.29589 -0.89657 -0.03085
v -0.295905 -0.367113 0.021605
v -0.295905 -0.296722 0.023971
v -0.295894 -0.295559 -0.010652
v -0.295905 -0.296722 0.023971
v -0.366335 -0.367112 0.021582
v -0.366335 -0.296722 0.023948
v -0.897449 -0.365946 -0.013214
v -0.897461 -0.36711 0.021409
v -0.366324 -0.365949 -0.013041
v -0.366324 -0.295558 -0.010675
v -0.897449 -0.365946 -0.013214
v -0.89745 -0.295556 -0.010848
v -0.366321 -0.89657 -0.030873
v -0.295902 -0.897734 0.003773
v -0.366332 -0.897733 0.00375
v -0.366335 -0.296722 0.023948
v -0.897461 -0.296719 0.023774
v -0.89745 -0.295556 -0.010848
v -0.295894 -0.295559 -0.010652
v -0.366324 -0.295558 -0.010675
v -0.366324 -0.365949 -0.013041
v -0.295893 -0.365949 -0.013018
v -0.295905 -0.296722 0.023971
v -0.366335 -0.296722 0.023948
v -0.366324 -0.295558 -0.010675
v -0.29589 -0.89657 -0.03085
v -0.295905 -0.367113 0.021605
v -0.295902 -0.897734 0.003773
v -0.295902 -0.897734 0.003773
v -0.366332 -0.897733 0.00375
v -0.366335 -0.367112 0.021582
v -0.366335 -0.296722 0.023948
v -0.897461 -0.36711 0.021409
v -0.897461 -0.296719 0.023774
v -0.89745 -0.295556 -0.010848
v -0.897461 -0.296719 0.023774
v -0.897449 -0.365946 -0.013214
v -0.366324 -0.365949 -0.013041
v -0.366332 -0.897733 0.00375
v -0.366321 -0.89657 -0.030873
v 0.371999 -0.295557 -0.010744
v 0.298879 -0.295557 -0.010768
v 0.298879 -0.365947 -0.013133
v 0.371999 -0.365948 -0.013109
v 0.372002 -0.896569 -0.030942
v 0.371988 -0.367111 0.021514
v 0.371991 -0.897732 0.003681
v 0.371988 -0.367111 0.021514
v 0.298871 -0.897732 0.003657
v 0.298868 -0.367111 0.02149
v 0.897508 -0.296724 0.024051
v 0.897509 -0.367114 0.021685
v 0.371988 -0.296721 0.023879
v 0.89752 -0.365951 -0.012938
v 0.897508 -0.296724 0.024051
v 0.89752 -0.29556 -0.010572
v 0.298879 -0.365947 -0.013133
v 0.298868 -0.367111 0.02149
v 0.298882 -0.896568 -0.030966
v 0.371988 -0.296721 0.023879
v 0.298868 -0.29672 0.023855
v 0.298879 -0.295557 -0.010768
vt 0 0
vt 0 1
vt 1 1
vt 1 0
vt 0 0
vt 1 1
vt 0 1
vt 0 0
vt 0 1
vt 1 0
vt 0 1
vt 1 1
vt 1 0
vt 0 0
vt 1 1
vt 1 0
vt 0 0
vt 0 1
vt 1 0
vt 0 0
vt 1 1
vt 1 0
vt 0 0
vt 0 1
vt 1 1
vt 1 0
vt 0 1
vt 1 1
vt 1 0
vt 0 0
vt 1 1
vt 0 1
vt 0 0
vt 0 1
vt 1 0
vt 0 0
vt 1 1
vt 1 0
vt 0 0
vt 1 1
vt 0 1
vt 0 1
vt 1 1
vt 1 0
vt 0 0
vt 0 1
vt 1 1
vt 1 0
vt 0 1
vt 1 1
vt 1 0
vt 0 0
vt 1 1
vt 0 1
vt 0 0
vt 1 1
vt 1 0
vt 0 1
vt 1 1
vt 1 0
vt 0 0
vt 1 1
vt 0 1
vt 0 0
vt 0 1
vt 1 0
vt 0 0
vt 0 1
vt 1 1
vt 1 0
vt 0 1
vt 1 1
vt 1 0
vt 0 0
vt 1 1
vt 0 1
vt 0 1
vt 1 1
vt 1 0
vt 0 0
vt 1 1
vt 0 1
vt 0 0
vt 1 1
vt 1 0
vt 0 0
vt 0 1
vt 1 0
vt 0 0
vt 0 1
vt 1 1
vt 1 0
vt 0 1
vt 1 1
vt 1 0
vt 0 0
vt 1 1
vt 1 0
vt 0 0
vt 0 1
vt 1 0
vt 0 0
vt 1 1
vt 0 1
vt 0 0
vt 1 1
vt 1 0
vt 0 0
vt 0 1
vt 1 0
vt 0 0
vt 0 1
vt 1 1
vt 1 0
vt 0 1
vt 1 1
vt 1 0
vt 0 0
vt 1 1
vt 1 0
vt 0 0
vt 0 1
vt 1 0
vt 0 0
vt 1 1
vt 0 1
vt 0 0
vt 1 1
vt 0 1
vt 0 1
vt 1 1
vt 1 0
vt 0 0
vt 0 1
vt 1 1
vt 1 0
vt 0 1
vt 1 1
vt 1 0
vt 0 0
vt 1 1
vt 0 1
vt 0.999998 0
vt 0 0
vt 3E-06 1
vt 0 0
vt 1 1
vt 1 0
vt 0 0
vt 0 1
vt 1 0
vt 0 0
vt 1 1
vt 1 0
vt 0 0
vt 0 1
vt 1 1
vt 1 0
vt 0 0
vt 1 1
vt 0 1
vt 0 0
vt 1 1
vt 1 0
vt 0 0
vt 0 1
vt 1 0
vt 0 0
vt 1 1
vt 1 0
vt 0 0
vt 0 1
vt 1 0
vt 0 1
vt 1 1
vt 1 0
vn 0.3017184 0.3317316 -0.8938233
vn -0.7069939 0.023748 -0.7068208
vn -0.5773494 -0.5576352 -0.5964149
vn 0.0001153818 -0.6829577 -0.730458
vn -0.5773494 -0.5576352 -0.5964149
vn -0.0001157192 -0.7304592 0.6829565
vn -0.5773513 -0.5964139 0.5576343
vn 0.577222 0.5576906 0.5964863
vn 0.5772266 -0.5964841 0.5576881
vn 0.3013017 0.2709504 0.9142227
vn 0.3013017 0.2709504 0.9142227
vn 0.5771559 0.5576274 0.5966094
vn 0.5775377 0.5964184 -0.5574363
vn 0.5771559 0.5576274 0.5966094
vn -0.707221 -0.02374824 0.7065937
vn -0.5775406 0.5576329 0.5962319
vn -0.5771669 0.5964187 -0.5578198
vn -0.5775406 0.5576329 0.5962319
vn -0.7069939 0.023748 -0.7068208
vn 0.5774722 -0.5575716 -0.5963554
vn 0.577222 0.5576906 0.5964863
vn 0.5774795 0.5963515 -0.5575682
vn -0.3013072 0.331714 -0.8939686
vn -0.5772246 0.596481 -0.5576937
vn -0.5772255 -0.5576931 -0.5964805
vn 0.0001149793 -0.6829606 -0.7304552
vn -0.3017162 0.2709673 0.914081
vn -0.577476 0.5575723 0.5963511
vn -0.5772246 0.596481 -0.5576937
vn -0.5772255 -0.5576931 -0.5964805
vn -0.0001149553 -0.7304552 0.6829605
vn -0.577475 -0.5963518 0.5575726
vn 0.706993 -0.02375085 0.7068217
vn 0.577347 -0.5964139 0.5576388
vn -0.3017162 0.2709673 0.914081
vn 0.5773535 -0.5576356 -0.5964105
vn 0.706993 -0.02375085 0.7068217
vn 0.7072206 0.0237507 -0.7065939
vn 0.5775368 0.5964161 -0.5574398
vn -0.3013072 0.331714 -0.8939686
vn -0.5771684 0.596422 -0.5578149
vn 0.5771595 0.5576283 0.5966049
vn -0.5775365 0.5576308 0.5962379
vn -0.5771684 0.596422 -0.5578149
vn 0.3017183 -0.2709714 -0.9140791
vn -0.7069926 0.0237476 -0.7068221
vn -0.5771612 -0.5576326 -0.5965993
vn 0.5775403 -0.5576324 -0.5962325
vn 0.3013051 -0.3317102 0.8939707
vn 0.5772218 -0.596478 0.5576998
vn 0.5774787 -0.5575759 -0.5963451
vn 0.5774786 0.5963533 -0.5575674
vn 0.3017183 -0.2709714 -0.9140791
vn 0.000115383 0.7304582 -0.6829575
vn -0.0001153813 0.6829574 0.7304582
vn -0.7072209 -0.02374747 0.7065938
vn -0.5773489 0.5576363 0.5964143
vn 0.577222 0.5576912 0.5964859
vn -0.0001153813 0.6829574 0.7304582
vn 0.000115383 0.7304582 -0.6829575
vn -0.5771612 -0.5576326 -0.5965993
vn 0.5771645 -0.5964208 0.5578202
vn -0.577535 -0.5964122 0.5574456
vn -0.5773516 0.5964129 -0.5576349
vn -0.5773489 0.5576363 0.5964143
vn -0.7069926 0.0237476 -0.7068221
vn 0.5774795 0.5963515 -0.5575682
vn 0.3017184 0.3317316 -0.8938233
vn 0.0001153818 -0.6829577 -0.730458
vn 0.5774722 -0.5575716 -0.5963554
vn 0.577222 0.5576906 0.5964863
vn 0.3013017 0.2709504 0.9142227
vn 0.3017184 0.3317316 -0.8938233
vn 0.5775377 0.5964184 -0.5574363
vn -0.7069939 0.023748 -0.7068208
vn -0.5771669 0.5964187 -0.5578198
vn 0.5771559 0.5576274 0.5966094
vn -0.5775406 0.5576329 0.5962319
vn -0.5771669 0.5964187 -0.5578198
vn 0.0001153818 -0.6829577 -0.730458
vn 0.5772266 -0.5964841 0.5576881
vn -0.0001157192 -0.7304592 0.6829565
vn 0.3013017 0.2709504 0.9142227
vn -0.5773513 -0.5964139 0.5576343
vn -0.707221 -0.02374824 0.7065937
vn -0.7069939 0.023748 -0.7068208
vn -0.707221 -0.02374824 0.7065937
vn -0.5773494 -0.5576352 -0.5964149
vn 0.7072206 0.0237507 -0.7065939
vn -0.3013072 0.331714 -0.8939686
vn 0.0001149793 -0.6829606 -0.7304552
vn 0.5773535 -0.5576356 -0.5964105
vn 0.706993 -0.02375085 0.7068217
vn 0.5771595 0.5576283 0.5966049
vn 0.5775368 0.5964161 -0.5574398
vn 0.5771595 0.5576283 0.5966049
vn -0.3017162 0.2709673 0.914081
vn -0.5775365 0.5576308 0.5962379
vn -0.5771684 0.596422 -0.5578149
vn -0.5775365 0.5576308 0.5962379
vn -0.3013072 0.331714 -0.8939686
vn 0.0001149793 -0.6829606 -0.7304552
vn 0.577347 -0.5964139 0.5576388
vn -0.0001149553 -0.7304552 0.6829605
vn -0.3017162 0.2709673 0.914081
vn -0.577475 -0.5963518 0.5575726
vn -0.577476 0.5575723 0.5963511
vn -0.5772246 0.596481 -0.5576937
vn -0.577476 0.5575723 0.5963511
vn -0.5772255 -0.5576931 -0.5964805
vn 0.7072257 0.023752 -0.7065888
vn -0.3013067 -0.2709495 -0.9142213
vn -0.577162 -0.5576333 -0.596598
vn 0.5775452 -0.5576394 -0.5962213
vn 0.7069879 -0.02375177 0.7068268
vn 0.5773517 0.5576308 0.5964168
vn 0.5773488 0.5964182 -0.5576322
vn 0.5773517 0.5576308 0.5964168
vn -0.3017161 -0.3317321 0.893824
vn -0.0001154845 0.6829575 0.7304581
vn -0.5772263 -0.5576912 -0.5964816
vn -0.5774759 -0.5963507 0.5575727
vn -0.3013067 -0.2709495 -0.9142213
vn 0.000115151 0.7304593 -0.6829562
vn -0.5772263 -0.5576912 -0.5964816
vn -0.5772235 0.5964831 -0.5576925
vn -0.577162 -0.5576333 -0.596598
vn 0.5771596 -0.596414 0.5578325
vn -0.5775346 -0.5964115 0.557447
vn -0.0001154845 0.6829575 0.7304581
vn -0.577476 0.5575727 0.5963507
vn -0.5772235 0.5964831 -0.5576925
vn 0.5773488 0.5964182 -0.5576322
vn 0.000115151 0.7304593 -0.6829562
vn -0.3013067 -0.2709495 -0.9142213
vn 0.7072257 0.023752 -0.7065888
vn 0.5773517 0.5576308 0.5964168
vn -0.0001154845 0.6829575 0.7304581
vn 0.000115151 0.7304593 -0.6829562
vn 0.5775452 -0.5576394 -0.5962213
vn 0.7069879 -0.02375177 0.7068268
vn 0.5771596 -0.596414 0.5578325
vn 0.5771596 -0.596414 0.5578325
vn -0.5775346 -0.5964115 0.557447
vn -0.3017161 -0.3317321 0.893824
vn -0.0001154845 0.6829575 0.7304581
vn -0.5774759 -0.5963507 0.5575727
vn -0.577476 0.5575727 0.5963507
vn -0.5772235 0.5964831 -0.5576925
vn -0.577476 0.5575727 0.5963507
vn -0.5772263 -0.5576912 -0.5964816
vn -0.3013067 -0.2709495 -0.9142213
vn -0.5775346 -0.5964115 0.557447
vn -0.577162 -0.5576333 -0.596598
vn 0.000115383 0.7304582 -0.6829575
vn -0.5773516 0.5964129 -0.5576349
vn -0.7069926 0.0237476 -0.7068221
vn 0.3017183 -0.2709714 -0.9140791
vn 0.5775403 -0.5576324 -0.5962325
vn 0.3013051 -0.3317102 0.8939707
vn 0.5771645 -0.5964208 0.5578202
vn 0.3013051 -0.3317102 0.8939707
vn -0.577535 -0.5964122 0.5574456
vn -0.7072209 -0.02374747 0.7065938
vn 0.577222 0.5576912 0.5964859
vn 0.5772218 -0.596478 0.5576998
vn -0.0001153813 0.6829574 0.7304582
vn 0.5774787 -0.5575759 -0.5963451
vn 0.577222 0.5576912 0.5964859
vn 0.5774786 0.5963533 -0.5575674
vn -0.7069926 0.0237476 -0.7068221
vn -0.7072209 -0.02374747 0.7065938
vn -0.5771612 -0.5576326 -0.5965993
vn -0.0001153813 0.6829574 0.7304582
vn -0.5773489 0.5576363 0.5964143
vn -0.5773516 0.5964129 -0.5576349
g Plane_0
f 3/3/3 2/2/2 1/1/1
f 4/4/4 3/3/3 1/1/1
f 4/4/4 6/6/6 5/5/5
f 6/6/6 7/7/7 5/5/5
f 6/6/6 9/9/9 8/8/8
f 10/10/10 6/6/6 8/8/8
f 12/12/12 11/11/11 1/1/1
f 13/13/13 12/12/12 1/1/1
f 15/15/15 11/11/11 14/14/14
f 16/16/16 15/15/15 14/14/14
f 15/15/15 18/18/18 17/17/17
f 19/19/19 15/15/15 17/17/17
f 21/21/21 9/9/9 20/20/20
f 22/22/22 21/21/21 20/20/20
f 25/25/25 24/24/24 23/23/23
f 26/26/26 25/25/25 23/23/23
f 28/28/28 27/27/27 23/23/23
f 29/29/29 28/28/28 23/23/23
f 26/26/26 31/31/31 30/30/30
f 31/31/31 32/32/32 30/30/30
f 31/31/31 34/34/34 33/33/33
f 35/35/35 31/31/31 33/33/33
f 37/37/37 34/34/34 36/36/36
f 38/38/38 37/37/37 36/36/36
f 38/38/38 40/40/40 39/39/39
f 40/40/40 41/41/41 39/39/39
f 43/43/43 42/42/42 39/39/39
f 44/44/44 43/43/43 39/39/39
f 47/47/47 46/46/46 45/45/45
f 48/48/48 47/47/47 45/45/45
f 50/50/50 49/49/49 45/45/45
f 51/51/51 50/50/50 45/45/45
f 51/51/51 53/53/53 52/52/52
f 53/53/53 54/54/54 52/52/52
f 56/56/56 49/49/49 55/55/55
f 57/57/57 56/56/56 55/55/55
f 59/59/59 58/58/58 52/52/52
f 60/60/60 59/59/59 52/52/52
f 48/48/48 62/62/62 61/61/61
f 62/62/62 63/63/63 61/61/61
f 56/56/56 65/65/65 64/64/64
f 66/66/66 56/56/56 64/64/64
f 69/69/69 68/68/68 67/67/67
f 70/70/70 69/69/69 67/67/67
f 72/72/72 71/71/71 67/67/67
f 73/73/73 72/72/72 67/67/67
f 73/73/73 75/75/75 74/74/74
f 75/75/75 76/76/76 74/74/74
f 78/78/78 77/77/77 74/74/74
f 79/79/79 78/78/78 74/74/74
f 70/70/70 81/81/81 80/80/80
f 81/81/81 82/82/82 80/80/80
f 84/84/84 82/82/82 83/83/83
f 85/85/85 84/84/84 83/83/83
f 84/84/84 87/87/87 86/86/86
f 88/88/88 84/84/84 86/86/86
f 91/91/91 90/90/90 89/89/89
f 92/92/92 91/91/91 89/89/89
f 94/94/94 93/93/93 89/89/89
f 95/95/95 94/94/94 89/89/89
f 97/97/97 93/93/93 96/96/96
f 98/98/98 97/97/97 96/96/96
f 97/97/97 100/100/100 99/99/99
f 101/101/101 97/97/97 99/99/99
f 92/92/92 103/103/103 102/102/102
f 103/103/103 104/104/104 102/102/102
f 106/106/106 104/104/104 105/105/105
f 107/107/107 106/106/106 105/105/105
f 106/106/106 109/109/109 108/108/108
f 110/110/110 106/106/106 108/108/108
f 113/113/113 112/112/112 111/111/111
f 114/114/114 113/113/113 111/111/111
f 116/116/116 115/115/115 111/111/111
f 117/117/117 116/116/116 111/111/111
f 119/119/119 115/115/115 118/118/118
f 120/120/120 119/119/119 118/118/118
f 119/119/119 122/122/122 121/121/121
f 123/123/123 119/119/119 121/121/121
f 123/123/123 125/125/125 124/124/124
f 125/125/125 126/126/126 124/124/124
f 114/114/114 128/128/128 127/127/127
f 128/128/128 129/129/129 127/127/127
f 131/131/131 130/130/130 124/124/124
f 132/132/132 131/131/131 124/124/124
f 135/135/135 134/134/134 133/133/133
f 136/136/136 135/135/135 133/133/133
f 138/138/138 137/137/137 133/133/133
f 139/139/139 138/138/138 133/133/133
f 136/136/136 141/141/141 140/140/140
f 141/141/141 142/142/142 140/140/140
f 144/144/144 143/143/143 141/141/141
f 145/145/145 144/144/144 141/141/141
f 147/147/147 145/145/145 146/146/146
f 148/148/148 147/147/147 146/146/146
f 147/147/147 150/150/150 149/149/149
f 151/151/151 147/147/147 149/149/149
f 153/153/153 145/145/145 152/152/152
f 154/154/154 153/153/153 152/152/152
f 157/157/157 156/156/156 155/155/155
f 158/158/158 157/157/157 155/155/155
f 158/158/158 160/160/160 159/159/159
f 160/160/160 161/161/161 159/159/159
f 163/163/163 161/161/161 162/162/162
f 164/164/164 163/163/163 162/162/162
f 160/160/160 166/166/166 165/165/165
f 167/167/167 160/160/160 165/165/165
f 169/169/169 166/166/166 168/168/168
f 170/170/170 169/169/169 168/168/168
f 163/163/163 172/172/172 171/171/171
f 173/173/173 163/163/163 171/171/171
f 175/175/175 174/174/174 155/155/155
f 176/176/176 175/175/175 155/155/155
