g PopupBg
v 0.006631172 -0.0001 -0.006176149
v 0.00645 -0.0001 -0.0062
v -0.00645 -0.0001 -0.0062
v -0.006631172 -0.0001 -0.006176149
v 0.006799999 -0.0001 -0.006106219
v -0.006799999 -0.0001 -0.006106219
v 0.006944974 -0.0001 -0.005994976
v -0.006944974 -0.0001 -0.005994976
v 0.007056217 -0.0001 -0.00585
v -0.007056217 -0.0001 -0.00585
v 0.007126147 -0.0001 -0.005681174
v -0.007126147 -0.0001 -0.005681174
v 0.007149999 -0.0001 -0.0055
v -0.007149999 -0.0001 -0.0055
v 0.007149999 -0.0001 0.0055
v -0.007149999 -0.0001 0.0055
v 0.007126147 -0.0001 0.005681174
v -0.007126147 -0.0001 0.005681174
v 0.007056217 -0.0001 0.00585
v -0.007056217 -0.0001 0.00585
v 0.006944974 -0.0001 0.005994976
v -0.006944974 -0.0001 0.005994976
v 0.006799999 -0.0001 0.006106219
v -0.006799999 -0.0001 0.006106219
v 0.006631172 -0.0001 0.006176149
v -0.006631172 -0.0001 0.006176149
v 0.00645 -0.0001 0.0062
v -0.00645 -0.0001 0.0062
v 0.007149999 0 -0.0055
v 0.007149999 -0.0001 -0.0055
v 0.007149999 -0.0001 0.0055
v 0.007149999 0 0.0055
v 0.00645 0 0.0062
v 0.00645 -0.0001 0.0062
v -0.00645 -0.0001 0.0062
v -0.00645 0 0.0062
v 0.007149999 -0.0001 0.0055
v 0.007126147 -0.0001 0.005681174
v 0.007126147 0 0.005681174
v 0.007149999 0 0.0055
v 0.007126147 -0.0001 0.005681174
v 0.007056217 -0.0001 0.00585
v 0.007056217 0 0.00585
v 0.007126147 0 0.005681174
v 0.007056217 -0.0001 0.00585
v 0.006944974 -0.0001 0.005994976
v 0.006944974 0 0.005994976
v 0.007056217 0 0.00585
v 0.006944974 -0.0001 0.005994976
v 0.006799999 -0.0001 0.006106219
v 0.006799999 0 0.006106219
v 0.006944974 0 0.005994976
v 0.006799999 -0.0001 0.006106219
v 0.006631172 -0.0001 0.006176149
v 0.006631172 0 0.006176149
v 0.006799999 0 0.006106219
v 0.006631172 -0.0001 0.006176149
v 0.00645 -0.0001 0.0062
v 0.00645 0 0.0062
v 0.006631172 0 0.006176149
v -0.007149999 0 0.0055
v -0.007126147 0 0.005681174
v -0.007126147 -0.0001 0.005681174
v -0.007149999 -0.0001 0.0055
v -0.007126147 0 0.005681174
v -0.007056217 0 0.00585
v -0.007056217 -0.0001 0.00585
v -0.007126147 -0.0001 0.005681174
v -0.007056217 0 0.00585
v -0.006944974 0 0.005994976
v -0.006944974 -0.0001 0.005994976
v -0.007056217 -0.0001 0.00585
v -0.006944974 0 0.005994976
v -0.006799999 0 0.006106219
v -0.006799999 -0.0001 0.006106219
v -0.006944974 -0.0001 0.005994976
v -0.006799999 0 0.006106219
v -0.006631172 0 0.006176149
v -0.006631172 -0.0001 0.006176149
v -0.006799999 -0.0001 0.006106219
v -0.006631172 0 0.006176149
v -0.00645 0 0.0062
v -0.00645 -0.0001 0.0062
v -0.006631172 -0.0001 0.006176149
v -0.006631172 0 -0.006176149
v -0.00645 0 -0.0062
v 0.00645 0 -0.0062
v 0.006631172 0 -0.006176149
v -0.006799999 0 -0.006106219
v 0.006799999 0 -0.006106219
v -0.006944974 0 -0.005994976
v 0.006944974 0 -0.005994976
v -0.007056217 0 -0.00585
v 0.007056217 0 -0.00585
v -0.007126147 0 -0.005681174
v 0.007126147 0 -0.005681174
v -0.007149999 0 -0.0055
v 0.007149999 0 -0.0055
v -0.007149999 0 0.0055
v 0.007149999 0 0.0055
v -0.007126147 0 0.005681174
v 0.007126147 0 0.005681174
v -0.007056217 0 0.00585
v 0.007056217 0 0.00585
v -0.006944974 0 0.005994976
v 0.006944974 0 0.005994976
v -0.006799999 0 0.006106219
v 0.006799999 0 0.006106219
v -0.006631172 0 0.006176149
v 0.006631172 0 0.006176149
v -0.00645 0 0.0062
v 0.00645 0 0.0062
v 0.007149999 0 -0.0055
v 0.007126147 0 -0.005681174
v 0.007126147 -0.0001 -0.005681174
v 0.007149999 -0.0001 -0.0055
v 0.007126147 0 -0.005681174
v 0.007056217 0 -0.00585
v 0.007056217 -0.0001 -0.00585
v 0.007126147 -0.0001 -0.005681174
v 0.007056217 0 -0.00585
v 0.006944974 0 -0.005994976
v 0.006944974 -0.0001 -0.005994976
v 0.007056217 -0.0001 -0.00585
v 0.006944974 0 -0.005994976
v 0.006799999 0 -0.006106219
v 0.006799999 -0.0001 -0.006106219
v 0.006944974 -0.0001 -0.005994976
v 0.006799999 0 -0.006106219
v 0.006631172 0 -0.006176149
v 0.006631172 -0.0001 -0.006176149
v 0.006799999 -0.0001 -0.006106219
v 0.006631172 0 -0.006176149
v 0.00645 0 -0.0062
v 0.00645 -0.0001 -0.0062
v 0.006631172 -0.0001 -0.006176149
v -0.00645 0 -0.0062
v -0.00645 -0.0001 -0.0062
v 0.00645 -0.0001 -0.0062
v 0.00645 0 -0.0062
v -0.007149999 -0.0001 -0.0055
v -0.007126147 -0.0001 -0.005681174
v -0.007126147 0 -0.005681174
v -0.007149999 0 -0.0055
v -0.007126147 -0.0001 -0.005681174
v -0.007056217 -0.0001 -0.00585
v -0.007056217 0 -0.00585
v -0.007126147 0 -0.005681174
v -0.007056217 -0.0001 -0.00585
v -0.006944974 -0.0001 -0.005994976
v -0.006944974 0 -0.005994976
v -0.007056217 0 -0.00585
v -0.006944974 -0.0001 -0.005994976
v -0.006799999 -0.0001 -0.006106219
v -0.006799999 0 -0.006106219
v -0.006944974 0 -0.005994976
v -0.006799999 -0.0001 -0.006106219
v -0.006631172 -0.0001 -0.006176149
v -0.006631172 0 -0.006176149
v -0.006799999 0 -0.006106219
v -0.006631172 -0.0001 -0.006176149
v -0.00645 -0.0001 -0.0062
v -0.00645 0 -0.0062
v -0.006631172 0 -0.006176149
v -0.007149999 0 0.0055
v -0.007149999 -0.0001 0.0055
v -0.007149999 -0.0001 -0.0055
v -0.007149999 0 -0.0055
vt 0.9637182 0.001923434
vt 0.9510489 0
vt 0.04895104 0
vt 0.03628162 0.001923443
vt 0.9755247 0.007562847
vt 0.02447519 0.007562838
vt 0.9856625 0.01653356
vt 0.01433715 0.01653356
vt 0.9934419 0.02822559
vt 0.006557965 0.02822562
vt 0.998332 0.04184077
vt 0.001667995 0.04184077
vt 1 0.05645161
vt 0 0.05645167
vt 1 0.9435484
vt 0 0.9435484
vt 0.998332 0.9581591
vt 0.00166801 0.9581592
vt 0.9934418 0.9717742
vt 0.006558008 0.9717742
vt 0.9856625 0.9834657
vt 0.01433717 0.9834659
vt 0.9755244 0.9924369
vt 0.02447575 0.992437
vt 0.9637184 0.9980765
vt 0.03628161 0.9980766
vt 0.951049 1
vt 0.04895104 1
vt 0.05645161 0
vt 0.05645155 1
vt 0.9435484 1
vt 0.9435484 0
vt 0.04895104 0
vt 0.04895115 1
vt 0.951049 1
vt 0.951049 0
vt 0.9435484 1
vt 0.9581591 1
vt 0.9581591 0
vt 0.9435484 0
vt 0.9581591 1
vt 0.9717742 1
vt 0.9717742 0
vt 0.9581591 0
vt 0.9717742 1
vt 1 1
vt 1 0
vt 0.9717742 0
vt 0 1
vt 0.02447563 1
vt 0.02447554 0
vt 0 0
vt 0.02447563 1
vt 0.0362817 1
vt 0.03628164 0
vt 0.02447554 0
vt 0.0362817 1
vt 0.04895115 1
vt 0.04895104 0
vt 0.03628164 0
vt 0.05645161 0
vt 0.04184083 0
vt 0.04184085 1
vt 0.05645162 1
vt 0.04184083 0
vt 0.02822578 0
vt 0.02822578 1
vt 0.04184085 1
vt 0.02822578 0
vt 0 0
vt 0 1
vt 0.02822578 1
vt 1 0
vt 0.9755244 0
vt 0.9755244 1
vt 1 1
vt 0.9755244 0
vt 0.9637183 0
vt 0.9637184 1
vt 0.9755244 1
vt 0.9637183 0
vt 0.951049 0
vt 0.951049 1
vt 0.9637184 1
vt 0.001923434 0.03628159
vt 0 0.04895104
vt 0 0.951049
vt 0.001923444 0.9637184
vt 0.007562846 0.02447563
vt 0.007562839 0.9755245
vt 0.01653356 0.01433699
vt 0.01653356 0.9856625
vt 0.02822559 0.006557934
vt 0.02822561 0.9934419
vt 0.04184077 0.001667994
vt 0.04184077 0.9983321
vt 0.05645161 0
vt 0.05645167 1
vt 0.9435484 0
vt 0.9435484 1
vt 0.9581591 0.00166801
vt 0.9581591 0.998332
vt 0.9717742 0.006558008
vt 0.9717742 0.9934418
vt 0.9834659 0.01433733
vt 0.9834657 0.9856625
vt 0.992437 0.02447532
vt 0.9924369 0.9755244
vt 0.9980766 0.03628163
vt 0.9980765 0.9637184
vt 1 0.04895104
vt 1 0.9510489
vt 0.05645161 0
vt 0.04184083 0
vt 0.04184066 1
vt 0.05645155 1
vt 0.04184083 0
vt 0.02822578 0
vt 0.02822566 1
vt 0.04184066 1
vt 0.02822578 0
vt 0 0
vt 0 1
vt 0.02822566 1
vt 1 0
vt 0.9755244 0
vt 0.9755245 1
vt 1 1
vt 0.9755244 0
vt 0.9637183 0
vt 0.9637184 1
vt 0.9755245 1
vt 0.9637183 0
vt 0.9510489 0
vt 0.951049 1
vt 0.9637184 1
vt 0.04895104 0
vt 0.04895104 1
vt 0.951049 1
vt 0.9510489 0
vt 0.9435484 1
vt 0.9581591 1
vt 0.9581593 0
vt 0.9435484 0
vt 0.9581591 1
vt 0.9717742 1
vt 0.9717743 0
vt 0.9581593 0
vt 0.9717742 1
vt 1 1
vt 1 0
vt 0.9717743 0
vt 0 1
vt 0.0244756 1
vt 0.02447554 0
vt 0 0
vt 0.0244756 1
vt 0.03628168 1
vt 0.03628164 0
vt 0.02447554 0
vt 0.03628168 1
vt 0.04895104 1
vt 0.04895104 0
vt 0.03628164 0
vt 0.05645161 0
vt 0.05645162 1
vt 0.9435484 1
vt 0.9435484 0
vn 0 -1 0
vn 0 -1 0
vn 0 -1 0
vn 0 -1 0
vn 0 -1 0
vn 0 -1 0
vn 0 -1 0
vn 0 -1 0
vn 0 -1 0
vn 0 -1 0
vn 0 -1 0
vn 0 -1 0
vn 0 -1 0
vn 0 -1 0
vn 0 -1 0
vn 0 -1 0
vn 0 -1 0
vn 0 -1 0
vn 0 -1 0
vn 0 -1 0
vn 0 -1 0
vn 0 -1 0
vn 0 -1 0
vn 0 -1 0
vn 0 -1 0
vn 0 -1 0
vn 0 -1 0
vn 0 -1 0
vn 1 0 0
vn 1 0 0
vn 1 0 0
vn 1 0 0
vn 0 0 1
vn 0 0 1
vn 0 0 1
vn 0 0 1
vn 0.9914444 0 0.1305293
vn 0.9914444 0 0.1305293
vn 0.9914444 0 0.1305293
vn 0.9914444 0 0.1305293
vn 0.92388 0 0.3826824
vn 0.92388 0 0.3826824
vn 0.92388 0 0.3826824
vn 0.92388 0 0.3826824
vn 0.7933542 0 0.6087604
vn 0.7933542 0 0.6087604
vn 0.7933542 0 0.6087604
vn 0.7933542 0 0.6087604
vn 0.6087617 -5.096521E-06 0.7933531
vn 0.6087617 -5.096521E-06 0.7933531
vn 0.6087617 -5.096521E-06 0.7933531
vn 0.6087617 -5.096521E-06 0.7933531
vn 0.3826805 -2.548264E-06 0.9238808
vn 0.3826805 -2.548264E-06 0.9238808
vn 0.3826805 -2.548264E-06 0.9238808
vn 0.3826805 -2.548264E-06 0.9238808
vn 0.1305228 0 0.9914453
vn 0.1305228 0 0.9914453
vn 0.1305228 0 0.9914453
vn 0.1305228 0 0.9914453
vn -0.9914444 0 0.1305293
vn -0.9914444 0 0.1305293
vn -0.9914444 0 0.1305293
vn -0.9914444 0 0.1305293
vn -0.92388 0 0.3826824
vn -0.92388 0 0.3826824
vn -0.92388 0 0.3826824
vn -0.92388 0 0.3826824
vn -0.7933542 0 0.6087604
vn -0.7933542 0 0.6087604
vn -0.7933542 0 0.6087604
vn -0.7933542 0 0.6087604
vn -0.6087617 5.096523E-06 0.7933531
vn -0.6087617 5.096523E-06 0.7933531
vn -0.6087617 5.096523E-06 0.7933531
vn -0.6087617 5.096523E-06 0.7933531
vn -0.3826805 2.548264E-06 0.9238808
vn -0.3826805 2.548264E-06 0.9238808
vn -0.3826805 2.548264E-06 0.9238808
vn -0.3826805 2.548264E-06 0.9238808
vn -0.1305228 0 0.9914453
vn -0.1305228 0 0.9914453
vn -0.1305228 0 0.9914453
vn -0.1305228 0 0.9914453
vn 0 1 0
vn 0 1 0
vn 0 1 0
vn 0 1 0
vn 0 1 0
vn 0 1 0
vn 0 1 0
vn 0 1 0
vn 0 1 0
vn 0 1 0
vn 0 1 0
vn 0 1 0
vn 0 1 0
vn 0 1 0
vn 0 1 0
vn 0 1 0
vn 0 1 0
vn 0 1 0
vn 0 1 0
vn 0 1 0
vn 0 1 0
vn 0 1 0
vn 0 1 0
vn 0 1 0
vn 0 1 0
vn 0 1 0
vn 0 1 0
vn 0 1 0
vn 0.9914444 0 -0.1305293
vn 0.9914444 0 -0.1305293
vn 0.9914444 0 -0.1305293
vn 0.9914444 0 -0.1305293
vn 0.92388 0 -0.3826824
vn 0.92388 0 -0.3826824
vn 0.92388 0 -0.3826824
vn 0.92388 0 -0.3826824
vn 0.7933542 0 -0.6087604
vn 0.7933542 0 -0.6087604
vn 0.7933542 0 -0.6087604
vn 0.7933542 0 -0.6087604
vn 0.6087617 5.096523E-06 -0.7933531
vn 0.6087617 5.096523E-06 -0.7933531
vn 0.6087617 5.096523E-06 -0.7933531
vn 0.6087617 5.096523E-06 -0.7933531
vn 0.3826805 2.548264E-06 -0.9238808
vn 0.3826805 2.548264E-06 -0.9238808
vn 0.3826805 2.548264E-06 -0.9238808
vn 0.3826805 2.548264E-06 -0.9238808
vn 0.1305228 0 -0.9914453
vn 0.1305228 0 -0.9914453
vn 0.1305228 0 -0.9914453
vn 0.1305228 0 -0.9914453
vn 0 0 -1
vn 0 0 -1
vn 0 0 -1
vn 0 0 -1
vn -0.9914444 0 -0.1305293
vn -0.9914444 0 -0.1305293
vn -0.9914444 0 -0.1305293
vn -0.9914444 0 -0.1305293
vn -0.92388 0 -0.3826824
vn -0.92388 0 -0.3826824
vn -0.92388 0 -0.3826824
vn -0.92388 0 -0.3826824
vn -0.7933542 0 -0.6087604
vn -0.7933542 0 -0.6087604
vn -0.7933542 0 -0.6087604
vn -0.7933542 0 -0.6087604
vn -0.6087617 -5.096521E-06 -0.7933531
vn -0.6087617 -5.096521E-06 -0.7933531
vn -0.6087617 -5.096521E-06 -0.7933531
vn -0.6087617 -5.096521E-06 -0.7933531
vn -0.3826805 -2.548264E-06 -0.9238808
vn -0.3826805 -2.548264E-06 -0.9238808
vn -0.3826805 -2.548264E-06 -0.9238808
vn -0.3826805 -2.548264E-06 -0.9238808
vn -0.1305228 0 -0.9914453
vn -0.1305228 0 -0.9914453
vn -0.1305228 0 -0.9914453
vn -0.1305228 0 -0.9914453
vn -1 0 0
vn -1 0 0
vn -1 0 0
vn -1 0 0
g PopupBg_0
f 3/3/3 2/2/2 1/1/1
f 1/1/1 4/4/4 3/3/3
f 1/1/1 5/5/5 4/4/4
f 5/5/5 6/6/6 4/4/4
f 5/5/5 7/7/7 6/6/6
f 7/7/7 8/8/8 6/6/6
f 7/7/7 9/9/9 8/8/8
f 9/9/9 10/10/10 8/8/8
f 9/9/9 11/11/11 10/10/10
f 11/11/11 12/12/12 10/10/10
f 11/11/11 13/13/13 12/12/12
f 13/13/13 14/14/14 12/12/12
f 13/13/13 15/15/15 14/14/14
f 15/15/15 16/16/16 14/14/14
f 15/15/15 17/17/17 16/16/16
f 17/17/17 18/18/18 16/16/16
f 17/17/17 19/19/19 18/18/18
f 19/19/19 20/20/20 18/18/18
f 19/19/19 21/21/21 20/20/20
f 21/21/21 22/22/22 20/20/20
f 21/21/21 23/23/23 22/22/22
f 23/23/23 24/24/24 22/22/22
f 23/23/23 25/25/25 24/24/24
f 25/25/25 26/26/26 24/24/24
f 25/25/25 27/27/27 26/26/26
f 27/27/27 28/28/28 26/26/26
f 31/31/31 30/30/30 29/29/29
f 32/32/32 31/31/31 29/29/29
f 35/35/35 34/34/34 33/33/33
f 36/36/36 35/35/35 33/33/33
f 39/39/39 38/38/38 37/37/37
f 40/40/40 39/39/39 37/37/37
f 43/43/43 42/42/42 41/41/41
f 44/44/44 43/43/43 41/41/41
f 47/47/47 46/46/46 45/45/45
f 48/48/48 47/47/47 45/45/45
f 51/51/51 50/50/50 49/49/49
f 52/52/52 51/51/51 49/49/49
f 55/55/55 54/54/54 53/53/53
f 56/56/56 55/55/55 53/53/53
f 59/59/59 58/58/58 57/57/57
f 60/60/60 59/59/59 57/57/57
f 63/63/63 62/62/62 61/61/61
f 64/64/64 63/63/63 61/61/61
f 67/67/67 66/66/66 65/65/65
f 68/68/68 67/67/67 65/65/65
f 71/71/71 70/70/70 69/69/69
f 72/72/72 71/71/71 69/69/69
f 75/75/75 74/74/74 73/73/73
f 76/76/76 75/75/75 73/73/73
f 79/79/79 78/78/78 77/77/77
f 80/80/80 79/79/79 77/77/77
f 83/83/83 82/82/82 81/81/81
f 84/84/84 83/83/83 81/81/81
f 87/87/87 86/86/86 85/85/85
f 85/85/85 88/88/88 87/87/87
f 85/85/85 89/89/89 88/88/88
f 89/89/89 90/90/90 88/88/88
f 89/89/89 91/91/91 90/90/90
f 91/91/91 92/92/92 90/90/90
f 91/91/91 93/93/93 92/92/92
f 93/93/93 94/94/94 92/92/92
f 93/93/93 95/95/95 94/94/94
f 95/95/95 96/96/96 94/94/94
f 95/95/95 97/97/97 96/96/96
f 97/97/97 98/98/98 96/96/96
f 97/97/97 99/99/99 98/98/98
f 99/99/99 100/100/100 98/98/98
f 99/99/99 101/101/101 100/100/100
f 101/101/101 102/102/102 100/100/100
f 101/101/101 103/103/103 102/102/102
f 103/103/103 104/104/104 102/102/102
f 103/103/103 105/105/105 104/104/104
f 105/105/105 106/106/106 104/104/104
f 105/105/105 107/107/107 106/106/106
f 107/107/107 108/108/108 106/106/106
f 107/107/107 109/109/109 108/108/108
f 109/109/109 110/110/110 108/108/108
f 109/109/109 111/111/111 110/110/110
f 111/111/111 112/112/112 110/110/110
f 115/115/115 114/114/114 113/113/113
f 116/116/116 115/115/115 113/113/113
f 119/119/119 118/118/118 117/117/117
f 120/120/120 119/119/119 117/117/117
f 123/123/123 122/122/122 121/121/121
f 124/124/124 123/123/123 121/121/121
f 127/127/127 126/126/126 125/125/125
f 128/128/128 127/127/127 125/125/125
f 131/131/131 130/130/130 129/129/129
f 132/132/132 131/131/131 129/129/129
f 135/135/135 134/134/134 133/133/133
f 136/136/136 135/135/135 133/133/133
f 139/139/139 138/138/138 137/137/137
f 140/140/140 139/139/139 137/137/137
f 143/143/143 142/142/142 141/141/141
f 144/144/144 143/143/143 141/141/141
f 147/147/147 146/146/146 145/145/145
f 148/148/148 147/147/147 145/145/145
f 151/151/151 150/150/150 149/149/149
f 152/152/152 151/151/151 149/149/149
f 155/155/155 154/154/154 153/153/153
f 156/156/156 155/155/155 153/153/153
f 159/159/159 158/158/158 157/157/157
f 160/160/160 159/159/159 157/157/157
f 163/163/163 162/162/162 161/161/161
f 164/164/164 163/163/163 161/161/161
f 167/167/167 166/166/166 165/165/165
f 168/168/168 167/167/167 165/165/165
