g PopupBg
v 0.004396173 -0.0001 -0.004891148
v 0.004215 -0.0001 -0.004915
v -0.004215 -0.0001 -0.004915
v -0.004396173 -0.0001 -0.004891148
v 0.004565 -0.0001 -0.004821218
v -0.004565 -0.0001 -0.004821218
v 0.004709974 -0.0001 -0.004709974
v -0.004709974 -0.0001 -0.004709974
v 0.004821218 -0.0001 -0.004565
v -0.004821218 -0.0001 -0.004565
v 0.004891148 -0.0001 -0.004396173
v -0.004891148 -0.0001 -0.004396173
v 0.004915 -0.0001 -0.004215
v -0.004915 -0.0001 -0.004215
v 0.004915 -0.0001 0.004215
v -0.004915 -0.0001 0.004215
v 0.004891148 -0.0001 0.004396173
v -0.004891148 -0.0001 0.004396173
v 0.004821218 -0.0001 0.004565
v -0.004821218 -0.0001 0.004565
v 0.004709974 -0.0001 0.004709974
v -0.004709974 -0.0001 0.004709974
v 0.004565 -0.0001 0.004821218
v -0.004565 -0.0001 0.004821218
v 0.004396173 -0.0001 0.004891148
v -0.004396173 -0.0001 0.004891148
v 0.004215 -0.0001 0.004915
v -0.004215 -0.0001 0.004915
v 0.004915 0 -0.004215
v 0.004915 -0.0001 -0.004215
v 0.004915 -0.0001 0.004215
v 0.004915 0 0.004215
v 0.004215 0 0.004915
v 0.004215 -0.0001 0.004915
v -0.004215 -0.0001 0.004915
v -0.004215 0 0.004915
v 0.004915 -0.0001 0.004215
v 0.004891148 -0.0001 0.004396173
v 0.004891148 0 0.004396173
v 0.004915 0 0.004215
v 0.004891148 -0.0001 0.004396173
v 0.004821218 -0.0001 0.004565
v 0.004821218 0 0.004565
v 0.004891148 0 0.004396173
v 0.004821218 -0.0001 0.004565
v 0.004709974 -0.0001 0.004709974
v 0.004709974 0 0.004709974
v 0.004821218 0 0.004565
v 0.004709974 -0.0001 0.004709974
v 0.004565 -0.0001 0.004821218
v 0.004565 0 0.004821218
v 0.004709974 0 0.004709974
v 0.004565 -0.0001 0.004821218
v 0.004396173 -0.0001 0.004891148
v 0.004396173 0 0.004891148
v 0.004565 0 0.004821218
v 0.004396173 -0.0001 0.004891148
v 0.004215 -0.0001 0.004915
v 0.004215 0 0.004915
v 0.004396173 0 0.004891148
v -0.004915 0 0.004215
v -0.004891148 0 0.004396173
v -0.004891148 -0.0001 0.004396173
v -0.004915 -0.0001 0.004215
v -0.004891148 0 0.004396173
v -0.004821218 0 0.004565
v -0.004821218 -0.0001 0.004565
v -0.004891148 -0.0001 0.004396173
v -0.004821218 0 0.004565
v -0.004709974 0 0.004709974
v -0.004709974 -0.0001 0.004709974
v -0.004821218 -0.0001 0.004565
v -0.004709974 0 0.004709974
v -0.004565 0 0.004821218
v -0.004565 -0.0001 0.004821218
v -0.004709974 -0.0001 0.004709974
v -0.004565 0 0.004821218
v -0.004396173 0 0.004891148
v -0.004396173 -0.0001 0.004891148
v -0.004565 -0.0001 0.004821218
v -0.004396173 0 0.004891148
v -0.004215 0 0.004915
v -0.004215 -0.0001 0.004915
v -0.004396173 -0.0001 0.004891148
v -0.004396173 0 -0.004891148
v -0.004215 0 -0.004915
v 0.004215 0 -0.004915
v 0.004396173 0 -0.004891148
v -0.004565 0 -0.004821218
v 0.004565 0 -0.004821218
v -0.004709974 0 -0.004709974
v 0.004709974 0 -0.004709974
v -0.004821218 0 -0.004565
v 0.004821218 0 -0.004565
v -0.004891148 0 -0.004396173
v 0.004891148 0 -0.004396173
v -0.004915 0 -0.004215
v 0.004915 0 -0.004215
v -0.004915 0 0.004215
v 0.004915 0 0.004215
v -0.004891148 0 0.004396173
v 0.004891148 0 0.004396173
v -0.004821218 0 0.004565
v 0.004821218 0 0.004565
v -0.004709974 0 0.004709974
v 0.004709974 0 0.004709974
v -0.004565 0 0.004821218
v 0.004565 0 0.004821218
v -0.004396173 0 0.004891148
v 0.004396173 0 0.004891148
v -0.004215 0 0.004915
v 0.004215 0 0.004915
v 0.004915 0 -0.004215
v 0.004891148 0 -0.004396173
v 0.004891148 -0.0001 -0.004396173
v 0.004915 -0.0001 -0.004215
v 0.004891148 0 -0.004396173
v 0.004821218 0 -0.004565
v 0.004821218 -0.0001 -0.004565
v 0.004891148 -0.0001 -0.004396173
v 0.004821218 0 -0.004565
v 0.004709974 0 -0.004709974
v 0.004709974 -0.0001 -0.004709974
v 0.004821218 -0.0001 -0.004565
v 0.004709974 0 -0.004709974
v 0.004565 0 -0.004821218
v 0.004565 -0.0001 -0.004821218
v 0.004709974 -0.0001 -0.004709974
v 0.004565 0 -0.004821218
v 0.004396173 0 -0.004891148
v 0.004396173 -0.0001 -0.004891148
v 0.004565 -0.0001 -0.004821218
v 0.004396173 0 -0.004891148
v 0.004215 0 -0.004915
v 0.004215 -0.0001 -0.004915
v 0.004396173 -0.0001 -0.004891148
v -0.004215 0 -0.004915
v -0.004215 -0.0001 -0.004915
v 0.004215 -0.0001 -0.004915
v 0.004215 0 -0.004915
v -0.004915 -0.0001 -0.004215
v -0.004891148 -0.0001 -0.004396173
v -0.004891148 0 -0.004396173
v -0.004915 0 -0.004215
v -0.004891148 -0.0001 -0.004396173
v -0.004821218 -0.0001 -0.004565
v -0.004821218 0 -0.004565
v -0.004891148 0 -0.004396173
v -0.004821218 -0.0001 -0.004565
v -0.004709974 -0.0001 -0.004709974
v -0.004709974 0 -0.004709974
v -0.004821218 0 -0.004565
v -0.004709974 -0.0001 -0.004709974
v -0.004565 -0.0001 -0.004821218
v -0.004565 0 -0.004821218
v -0.004709974 0 -0.004709974
v -0.004565 -0.0001 -0.004821218
v -0.004396173 -0.0001 -0.004891148
v -0.004396173 0 -0.004891148
v -0.004565 0 -0.004821218
v -0.004396173 -0.0001 -0.004891148
v -0.004215 -0.0001 -0.004915
v -0.004215 0 -0.004915
v -0.004396173 0 -0.004891148
v -0.004915 0 0.004215
v -0.004915 -0.0001 0.004215
v -0.004915 -0.0001 -0.004215
v -0.004915 0 -0.004215
vt 0.9472201 0.00242649
vt 0.9287894 0
vt 0.07121058 0
vt 0.05277987 0.002426441
vt 0.9643947 0.009540446
vt 0.03560533 0.00954056
vt 0.9791429 0.02085667
vt 0.02085671 0.02085671
vt 0.9904596 0.03560518
vt 0.00954056 0.03560533
vt 0.9975736 0.05277992
vt 0.002426441 0.05277986
vt 1 0.07121058
vt 0 0.07121061
vt 1 0.9287894
vt 0 0.9287894
vt 0.9975736 0.9472201
vt 0.002426397 0.9472201
vt 0.9904596 0.9643947
vt 0.00954053 0.9643947
vt 0.9791428 0.9791428
vt 0.02085663 0.979143
vt 0.9643947 0.9904596
vt 0.0356053 0.9904596
vt 0.9472201 0.9975736
vt 0.05277981 0.9975734
vt 0.9287894 1
vt 0.07121061 1
vt 0.07121058 0
vt 0.07121061 1
vt 0.9287894 1
vt 0.9287894 0
vt 0.07121058 0
vt 0.07121056 1
vt 0.9287894 1
vt 0.9287894 0
vt 0.9287894 1
vt 0.9472201 1
vt 0.94722 0
vt 0.9287894 0
vt 0.9472201 1
vt 0.9643947 1
vt 0.9643946 0
vt 0.94722 0
vt 0.9643947 1
vt 1 1
vt 1 0
vt 0.9643946 0
vt 0 1
vt 0.03560537 1
vt 0.03560529 0
vt 0 0
vt 0.03560537 1
vt 0.05277997 1
vt 0.05277991 0
vt 0.03560529 0
vt 0.05277997 1
vt 0.07121056 1
vt 0.07121058 0
vt 0.05277991 0
vt 0.07121058 0
vt 0.05277991 0
vt 0.05277997 1
vt 0.07121056 1
vt 0.05277991 0
vt 0.03560529 0
vt 0.03560537 1
vt 0.05277997 1
vt 0.03560529 0
vt 0 0
vt 0 1
vt 0.03560537 1
vt 1 0
vt 0.9643947 0
vt 0.9643947 1
vt 1 1
vt 0.9643947 0
vt 0.9472201 0
vt 0.9472201 1
vt 0.9643947 1
vt 0.9472201 0
vt 0.9287894 0
vt 0.9287894 1
vt 0.9472201 1
vt 0.002426489 0.05277984
vt 0 0.07121061
vt 0 0.9287894
vt 0.002426443 0.9472201
vt 0.009540448 0.03560525
vt 0.009540557 0.9643946
vt 0.02085669 0.02085668
vt 0.02085669 0.9791428
vt 0.03560517 0.009540664
vt 0.03560533 0.9904596
vt 0.05277992 0.002426437
vt 0.05277986 0.9975735
vt 0.07121058 0
vt 0.07121061 1
vt 0.9287894 0
vt 0.9287894 1
vt 0.9472201 0.002426397
vt 0.9472201 0.9975736
vt 0.9643947 0.00954053
vt 0.9643947 0.9904596
vt 0.9791428 0.02085663
vt 0.9791428 0.9791428
vt 0.9904596 0.03560531
vt 0.9904596 0.9643947
vt 0.9975734 0.0527798
vt 0.9975736 0.9472201
vt 1 0.07121058
vt 1 0.9287894
vt 0.07121058 0
vt 0.05277991 0
vt 0.05277988 1
vt 0.07121061 1
vt 0.05277991 0
vt 0.03560529 0
vt 0.03560528 1
vt 0.05277988 1
vt 0.03560529 0
vt 0 0
vt 0 1
vt 0.03560528 1
vt 1 0
vt 0.9643946 0
vt 0.9643947 1
vt 1 1
vt 0.9643946 0
vt 0.94722 0
vt 0.9472201 1
vt 0.9643947 1
vt 0.94722 0
vt 0.9287894 0
vt 0.9287894 1
vt 0.9472201 1
vt 0.07121058 0
vt 0.07121061 1
vt 0.9287894 1
vt 0.9287894 0
vt 0.9287894 1
vt 0.9472201 1
vt 0.9472201 0
vt 0.9287894 0
vt 0.9472201 1
vt 0.9643947 1
vt 0.9643947 0
vt 0.9472201 0
vt 0.9643947 1
vt 1 1
vt 1 0
vt 0.9643947 0
vt 0 1
vt 0.03560528 1
vt 0.03560529 0
vt 0 0
vt 0.03560528 1
vt 0.05277988 1
vt 0.05277991 0
vt 0.03560529 0
vt 0.05277988 1
vt 0.07121061 1
vt 0.07121058 0
vt 0.05277991 0
vt 0.07121058 0
vt 0.07121056 1
vt 0.9287894 1
vt 0.9287894 0
vn 0 -1 0
vn 0 -1 0
vn 0 -1 0
vn 0 -1 0
vn 0 -1 0
vn 0 -1 0
vn 0 -1 0
vn 0 -1 0
vn 0 -1 0
vn 0 -1 0
vn 0 -1 0
vn 0 -1 0
vn 0 -1 0
vn 0 -1 0
vn 0 -1 0
vn 0 -1 0
vn 0 -1 0
vn 0 -1 0
vn 0 -1 0
vn 0 -1 0
vn 0 -1 0
vn 0 -1 0
vn 0 -1 0
vn 0 -1 0
vn 0 -1 0
vn 0 -1 0
vn 0 -1 0
vn 0 -1 0
vn 1 0 0
vn 1 0 0
vn 1 0 0
vn 1 0 0
vn 0 0 1
vn 0 0 1
vn 0 0 1
vn 0 0 1
vn 0.9914449 0 0.1305265
vn 0.9914449 0 0.1305265
vn 0.9914449 0 0.1305265
vn 0.9914449 0 0.1305265
vn 0.9238798 0 0.3826828
vn 0.9238798 0 0.3826828
vn 0.9238798 0 0.3826828
vn 0.9238798 0 0.3826828
vn 0.7933523 0 0.6087629
vn 0.7933523 0 0.6087629
vn 0.7933523 0 0.6087629
vn 0.7933523 0 0.6087629
vn 0.6087624 0 0.7933525
vn 0.6087624 0 0.7933525
vn 0.6087624 0 0.7933525
vn 0.6087624 0 0.7933525
vn 0.3826832 0 0.9238796
vn 0.3826832 0 0.9238796
vn 0.3826832 0 0.9238796
vn 0.3826832 0 0.9238796
vn 0.1305271 0 0.9914448
vn 0.1305271 0 0.9914448
vn 0.1305271 0 0.9914448
vn 0.1305271 0 0.9914448
vn -0.9914449 0 0.1305265
vn -0.9914449 0 0.1305265
vn -0.9914449 0 0.1305265
vn -0.9914449 0 0.1305265
vn -0.9238798 0 0.3826828
vn -0.9238798 0 0.3826828
vn -0.9238798 0 0.3826828
vn -0.9238798 0 0.3826828
vn -0.7933523 0 0.6087629
vn -0.7933523 0 0.6087629
vn -0.7933523 0 0.6087629
vn -0.7933523 0 0.6087629
vn -0.6087624 0 0.7933525
vn -0.6087624 0 0.7933525
vn -0.6087624 0 0.7933525
vn -0.6087624 0 0.7933525
vn -0.3826832 0 0.9238796
vn -0.3826832 0 0.9238796
vn -0.3826832 0 0.9238796
vn -0.3826832 0 0.9238796
vn -0.1305271 0 0.9914448
vn -0.1305271 0 0.9914448
vn -0.1305271 0 0.9914448
vn -0.1305271 0 0.9914448
vn 0 1 0
vn 0 1 0
vn 0 1 0
vn 0 1 0
vn 0 1 0
vn 0 1 0
vn 0 1 0
vn 0 1 0
vn 0 1 0
vn 0 1 0
vn 0 1 0
vn 0 1 0
vn 0 1 0
vn 0 1 0
vn 0 1 0
vn 0 1 0
vn 0 1 0
vn 0 1 0
vn 0 1 0
vn 0 1 0
vn 0 1 0
vn 0 1 0
vn 0 1 0
vn 0 1 0
vn 0 1 0
vn 0 1 0
vn 0 1 0
vn 0 1 0
vn 0.9914449 0 -0.1305265
vn 0.9914449 0 -0.1305265
vn 0.9914449 0 -0.1305265
vn 0.9914449 0 -0.1305265
vn 0.9238798 0 -0.3826828
vn 0.9238798 0 -0.3826828
vn 0.9238798 0 -0.3826828
vn 0.9238798 0 -0.3826828
vn 0.7933523 0 -0.6087629
vn 0.7933523 0 -0.6087629
vn 0.7933523 0 -0.6087629
vn 0.7933523 0 -0.6087629
vn 0.6087624 0 -0.7933525
vn 0.6087624 0 -0.7933525
vn 0.6087624 0 -0.7933525
vn 0.6087624 0 -0.7933525
vn 0.3826832 0 -0.9238796
vn 0.3826832 0 -0.9238796
vn 0.3826832 0 -0.9238796
vn 0.3826832 0 -0.9238796
vn 0.1305271 0 -0.9914448
vn 0.1305271 0 -0.9914448
vn 0.1305271 0 -0.9914448
vn 0.1305271 0 -0.9914448
vn 0 0 -1
vn 0 0 -1
vn 0 0 -1
vn 0 0 -1
vn -0.9914449 0 -0.1305265
vn -0.9914449 0 -0.1305265
vn -0.9914449 0 -0.1305265
vn -0.9914449 0 -0.1305265
vn -0.9238798 0 -0.3826828
vn -0.9238798 0 -0.3826828
vn -0.9238798 0 -0.3826828
vn -0.9238798 0 -0.3826828
vn -0.7933523 0 -0.6087629
vn -0.7933523 0 -0.6087629
vn -0.7933523 0 -0.6087629
vn -0.7933523 0 -0.6087629
vn -0.6087624 0 -0.7933525
vn -0.6087624 0 -0.7933525
vn -0.6087624 0 -0.7933525
vn -0.6087624 0 -0.7933525
vn -0.3826832 0 -0.9238796
vn -0.3826832 0 -0.9238796
vn -0.3826832 0 -0.9238796
vn -0.3826832 0 -0.9238796
vn -0.1305271 0 -0.9914448
vn -0.1305271 0 -0.9914448
vn -0.1305271 0 -0.9914448
vn -0.1305271 0 -0.9914448
vn -1 0 0
vn -1 0 0
vn -1 0 0
vn -1 0 0
g PopupBg_0
f 3/3/3 2/2/2 1/1/1
f 1/1/1 4/4/4 3/3/3
f 1/1/1 5/5/5 4/4/4
f 5/5/5 6/6/6 4/4/4
f 5/5/5 7/7/7 6/6/6
f 7/7/7 8/8/8 6/6/6
f 7/7/7 9/9/9 8/8/8
f 9/9/9 10/10/10 8/8/8
f 9/9/9 11/11/11 10/10/10
f 11/11/11 12/12/12 10/10/10
f 11/11/11 13/13/13 12/12/12
f 13/13/13 14/14/14 12/12/12
f 13/13/13 15/15/15 14/14/14
f 15/15/15 16/16/16 14/14/14
f 15/15/15 17/17/17 16/16/16
f 17/17/17 18/18/18 16/16/16
f 17/17/17 19/19/19 18/18/18
f 19/19/19 20/20/20 18/18/18
f 19/19/19 21/21/21 20/20/20
f 21/21/21 22/22/22 20/20/20
f 21/21/21 23/23/23 22/22/22
f 23/23/23 24/24/24 22/22/22
f 23/23/23 25/25/25 24/24/24
f 25/25/25 26/26/26 24/24/24
f 25/25/25 27/27/27 26/26/26
f 27/27/27 28/28/28 26/26/26
f 31/31/31 30/30/30 29/29/29
f 32/32/32 31/31/31 29/29/29
f 35/35/35 34/34/34 33/33/33
f 36/36/36 35/35/35 33/33/33
f 39/39/39 38/38/38 37/37/37
f 40/40/40 39/39/39 37/37/37
f 43/43/43 42/42/42 41/41/41
f 44/44/44 43/43/43 41/41/41
f 47/47/47 46/46/46 45/45/45
f 48/48/48 47/47/47 45/45/45
f 51/51/51 50/50/50 49/49/49
f 52/52/52 51/51/51 49/49/49
f 55/55/55 54/54/54 53/53/53
f 56/56/56 55/55/55 53/53/53
f 59/59/59 58/58/58 57/57/57
f 60/60/60 59/59/59 57/57/57
f 63/63/63 62/62/62 61/61/61
f 64/64/64 63/63/63 61/61/61
f 67/67/67 66/66/66 65/65/65
f 68/68/68 67/67/67 65/65/65
f 71/71/71 70/70/70 69/69/69
f 72/72/72 71/71/71 69/69/69
f 75/75/75 74/74/74 73/73/73
f 76/76/76 75/75/75 73/73/73
f 79/79/79 78/78/78 77/77/77
f 80/80/80 79/79/79 77/77/77
f 83/83/83 82/82/82 81/81/81
f 84/84/84 83/83/83 81/81/81
f 87/87/87 86/86/86 85/85/85
f 85/85/85 88/88/88 87/87/87
f 85/85/85 89/89/89 88/88/88
f 89/89/89 90/90/90 88/88/88
f 89/89/89 91/91/91 90/90/90
f 91/91/91 92/92/92 90/90/90
f 91/91/91 93/93/93 92/92/92
f 93/93/93 94/94/94 92/92/92
f 93/93/93 95/95/95 94/94/94
f 95/95/95 96/96/96 94/94/94
f 95/95/95 97/97/97 96/96/96
f 97/97/97 98/98/98 96/96/96
f 97/97/97 99/99/99 98/98/98
f 99/99/99 100/100/100 98/98/98
f 99/99/99 101/101/101 100/100/100
f 101/101/101 102/102/102 100/100/100
f 101/101/101 103/103/103 102/102/102
f 103/103/103 104/104/104 102/102/102
f 103/103/103 105/105/105 104/104/104
f 105/105/105 106/106/106 104/104/104
f 105/105/105 107/107/107 106/106/106
f 107/107/107 108/108/108 106/106/106
f 107/107/107 109/109/109 108/108/108
f 109/109/109 110/110/110 108/108/108
f 109/109/109 111/111/111 110/110/110
f 111/111/111 112/112/112 110/110/110
f 115/115/115 114/114/114 113/113/113
f 116/116/116 115/115/115 113/113/113
f 119/119/119 118/118/118 117/117/117
f 120/120/120 119/119/119 117/117/117
f 123/123/123 122/122/122 121/121/121
f 124/124/124 123/123/123 121/121/121
f 127/127/127 126/126/126 125/125/125
f 128/128/128 127/127/127 125/125/125
f 131/131/131 130/130/130 129/129/129
f 132/132/132 131/131/131 129/129/129
f 135/135/135 134/134/134 133/133/133
f 136/136/136 135/135/135 133/133/133
f 139/139/139 138/138/138 137/137/137
f 140/140/140 139/139/139 137/137/137
f 143/143/143 142/142/142 141/141/141
f 144/144/144 143/143/143 141/141/141
f 147/147/147 146/146/146 145/145/145
f 148/148/148 147/147/147 145/145/145
f 151/151/151 150/150/150 149/149/149
f 152/152/152 151/151/151 149/149/149
f 155/155/155 154/154/154 153/153/153
f 156/156/156 155/155/155 153/153/153
f 159/159/159 158/158/158 157/157/157
f 160/160/160 159/159/159 157/157/157
f 163/163/163 162/162/162 161/161/161
f 164/164/164 163/163/163 161/161/161
f 167/167/167 166/166/166 165/165/165
f 168/168/168 167/167/167 165/165/165
