g PopupBg
v 0.002331174 -0.0001 -0.009361148
v 0.00215 -0.0001 -0.009384999
v -0.00215 -0.0001 -0.009384999
v -0.002331174 -0.0001 -0.009361148
v 0.0025 -0.0001 -0.009291218
v -0.0025 -0.0001 -0.009291218
v 0.002644975 -0.0001 -0.009179975
v -0.002644975 -0.0001 -0.009179975
v 0.002756218 -0.0001 -0.009035
v -0.002756218 -0.0001 -0.009035
v 0.002826148 -0.0001 -0.008866173
v -0.002826148 -0.0001 -0.008866173
v 0.00285 -0.0001 -0.008684999
v -0.00285 -0.0001 -0.008684999
v 0.00285 -0.0001 0.008684999
v -0.00285 -0.0001 0.008684999
v 0.002826148 -0.0001 0.008866173
v -0.002826148 -0.0001 0.008866173
v 0.002756218 -0.0001 0.009035
v -0.002756218 -0.0001 0.009035
v 0.002644975 -0.0001 0.009179975
v -0.002644975 -0.0001 0.009179975
v 0.0025 -0.0001 0.009291218
v -0.0025 -0.0001 0.009291218
v 0.002331174 -0.0001 0.009361148
v -0.002331174 -0.0001 0.009361148
v 0.00215 -0.0001 0.009384999
v -0.00215 -0.0001 0.009384999
v 0.00285 0 -0.008684999
v 0.00285 -0.0001 -0.008684999
v 0.00285 -0.0001 0.008684999
v 0.00285 0 0.008684999
v 0.00215 0 0.009384999
v 0.00215 -0.0001 0.009384999
v -0.00215 -0.0001 0.009384999
v -0.00215 0 0.009384999
v 0.00285 -0.0001 0.008684999
v 0.002826148 -0.0001 0.008866173
v 0.002826148 0 0.008866173
v 0.00285 0 0.008684999
v 0.002826148 -0.0001 0.008866173
v 0.002756218 -0.0001 0.009035
v 0.002756218 0 0.009035
v 0.002826148 0 0.008866173
v 0.002756218 -0.0001 0.009035
v 0.002644975 -0.0001 0.009179975
v 0.002644975 0 0.009179975
v 0.002756218 0 0.009035
v 0.002644975 -0.0001 0.009179975
v 0.0025 -0.0001 0.009291218
v 0.0025 0 0.009291218
v 0.002644975 0 0.009179975
v 0.0025 -0.0001 0.009291218
v 0.002331174 -0.0001 0.009361148
v 0.002331174 0 0.009361148
v 0.0025 0 0.009291218
v 0.002331174 -0.0001 0.009361148
v 0.00215 -0.0001 0.009384999
v 0.00215 0 0.009384999
v 0.002331174 0 0.009361148
v -0.00285 0 0.008684999
v -0.002826148 0 0.008866173
v -0.002826148 -0.0001 0.008866173
v -0.00285 -0.0001 0.008684999
v -0.002826148 0 0.008866173
v -0.002756218 0 0.009035
v -0.002756218 -0.0001 0.009035
v -0.002826148 -0.0001 0.008866173
v -0.002756218 0 0.009035
v -0.002644975 0 0.009179975
v -0.002644975 -0.0001 0.009179975
v -0.002756218 -0.0001 0.009035
v -0.002644975 0 0.009179975
v -0.0025 0 0.009291218
v -0.0025 -0.0001 0.009291218
v -0.002644975 -0.0001 0.009179975
v -0.0025 0 0.009291218
v -0.002331174 0 0.009361148
v -0.002331174 -0.0001 0.009361148
v -0.0025 -0.0001 0.009291218
v -0.002331174 0 0.009361148
v -0.00215 0 0.009384999
v -0.00215 -0.0001 0.009384999
v -0.002331174 -0.0001 0.009361148
v -0.002331174 0 -0.009361148
v -0.00215 0 -0.009384999
v 0.00215 0 -0.009384999
v 0.002331174 0 -0.009361148
v -0.0025 0 -0.009291218
v 0.0025 0 -0.009291218
v -0.002644975 0 -0.009179975
v 0.002644975 0 -0.009179975
v -0.002756218 0 -0.009035
v 0.002756218 0 -0.009035
v -0.002826148 0 -0.008866173
v 0.002826148 0 -0.008866173
v -0.00285 0 -0.008684999
v 0.00285 0 -0.008684999
v -0.00285 0 0.008684999
v 0.00285 0 0.008684999
v -0.002826148 0 0.008866173
v 0.002826148 0 0.008866173
v -0.002756218 0 0.009035
v 0.002756218 0 0.009035
v -0.002644975 0 0.009179975
v 0.002644975 0 0.009179975
v -0.0025 0 0.009291218
v 0.0025 0 0.009291218
v -0.002331174 0 0.009361148
v 0.002331174 0 0.009361148
v -0.00215 0 0.009384999
v 0.00215 0 0.009384999
v 0.00285 0 -0.008684999
v 0.002826148 0 -0.008866173
v 0.002826148 -0.0001 -0.008866173
v 0.00285 -0.0001 -0.008684999
v 0.002826148 0 -0.008866173
v 0.002756218 0 -0.009035
v 0.002756218 -0.0001 -0.009035
v 0.002826148 -0.0001 -0.008866173
v 0.002756218 0 -0.009035
v 0.002644975 0 -0.009179975
v 0.002644975 -0.0001 -0.009179975
v 0.002756218 -0.0001 -0.009035
v 0.002644975 0 -0.009179975
v 0.0025 0 -0.009291218
v 0.0025 -0.0001 -0.009291218
v 0.002644975 -0.0001 -0.009179975
v 0.0025 0 -0.009291218
v 0.002331174 0 -0.009361148
v 0.002331174 -0.0001 -0.009361148
v 0.0025 -0.0001 -0.009291218
v 0.002331174 0 -0.009361148
v 0.00215 0 -0.009384999
v 0.00215 -0.0001 -0.009384999
v 0.002331174 -0.0001 -0.009361148
v -0.00215 0 -0.009384999
v -0.00215 -0.0001 -0.009384999
v 0.00215 -0.0001 -0.009384999
v 0.00215 0 -0.009384999
v -0.00285 -0.0001 -0.008684999
v -0.002826148 -0.0001 -0.008866173
v -0.002826148 0 -0.008866173
v -0.00285 0 -0.008684999
v -0.002826148 -0.0001 -0.008866173
v -0.002756218 -0.0001 -0.009035
v -0.002756218 0 -0.009035
v -0.002826148 0 -0.008866173
v -0.002756218 -0.0001 -0.009035
v -0.002644975 -0.0001 -0.009179975
v -0.002644975 0 -0.009179975
v -0.002756218 0 -0.009035
v -0.002644975 -0.0001 -0.009179975
v -0.0025 -0.0001 -0.009291218
v -0.0025 0 -0.009291218
v -0.002644975 0 -0.009179975
v -0.0025 -0.0001 -0.009291218
v -0.002331174 -0.0001 -0.009361148
v -0.002331174 0 -0.009361148
v -0.0025 0 -0.009291218
v -0.002331174 -0.0001 -0.009361148
v -0.00215 -0.0001 -0.009384999
v -0.00215 0 -0.009384999
v -0.002331174 0 -0.009361148
v -0.00285 0 0.008684999
v -0.00285 -0.0001 0.008684999
v -0.00285 -0.0001 -0.008684999
v -0.00285 0 -0.008684999
vt 0.9089778 0.001270718
vt 0.877193 0
vt 0.122807 0
vt 0.09102226 0.001270718
vt 0.9385964 0.004996464
vt 0.06140365 0.004996463
vt 0.9640304 0.01092347
vt 0.03596948 0.01092347
vt 0.983547 0.01864666
vt 0.01645327 0.01864666
vt 0.9958153 0.02764118
vt 0.004184593 0.02764118
vt 1 0.03729355
vt 0 0.03729356
vt 1 0.9627065
vt 0 0.9627064
vt 0.9958155 0.9723588
vt 0.004184578 0.9723586
vt 0.983547 0.9813533
vt 0.01645315 0.9813533
vt 0.9640307 0.989077
vt 0.0359693 0.989077
vt 0.9385965 0.9950036
vt 0.06140359 0.9950037
vt 0.9089778 0.9987293
vt 0.09102224 0.9987293
vt 0.877193 1
vt 0.122807 1
vt 0.03729356 0
vt 0.0372935 1
vt 0.9627064 1
vt 0.9627065 0
vt 0.122807 0
vt 0.122807 1
vt 0.877193 1
vt 0.877193 0
vt 0.9627064 1
vt 0.9723588 1
vt 0.9723587 0
vt 0.9627065 0
vt 0.9723588 1
vt 0.9813532 1
vt 0.9813532 0
vt 0.9723587 0
vt 0.9813532 1
vt 1 1
vt 1 0
vt 0.9813532 0
vt 0 1
vt 0.06140339 1
vt 0.0614035 0
vt 0 0
vt 0.06140339 1
vt 0.09102219 1
vt 0.09102219 0
vt 0.0614035 0
vt 0.09102219 1
vt 0.122807 1
vt 0.122807 0
vt 0.09102219 0
vt 0.03729355 0
vt 0.02764125 0
vt 0.0276413 1
vt 0.03729349 1
vt 0.02764125 0
vt 0.01864676 0
vt 0.01864678 1
vt 0.0276413 1
vt 0.01864676 0
vt 0 0
vt 0 1
vt 0.01864678 1
vt 1 0
vt 0.9385965 0
vt 0.9385965 1
vt 1 1
vt 0.9385965 0
vt 0.9089778 0
vt 0.9089778 1
vt 0.9385965 1
vt 0.9089778 0
vt 0.877193 0
vt 0.877193 1
vt 0.9089778 1
vt 0.001270718 0.09102227
vt 0 0.122807
vt 0 0.877193
vt 0.001270718 0.9089778
vt 0.004996463 0.06140365
vt 0.004996464 0.9385965
vt 0.01092347 0.03596949
vt 0.01092347 0.9640305
vt 0.01864666 0.01645327
vt 0.01864666 0.9835469
vt 0.02764118 0.004184593
vt 0.02764118 0.9958153
vt 0.03729355 0
vt 0.03729356 1
vt 0.9627065 0
vt 0.9627064 1
vt 0.9723586 0.004184578
vt 0.9723588 0.9958155
vt 0.9813533 0.01645314
vt 0.9813533 0.983547
vt 0.989077 0.0359693
vt 0.989077 0.9640307
vt 0.9950036 0.06140359
vt 0.9950036 0.9385965
vt 0.9987292 0.09102223
vt 0.9987293 0.9089778
vt 1 0.122807
vt 1 0.877193
vt 0.03729356 0
vt 0.02764126 0
vt 0.0276412 1
vt 0.0372935 1
vt 0.02764126 0
vt 0.01864677 0
vt 0.01864667 1
vt 0.0276412 1
vt 0.01864677 0
vt 0 0
vt 0 1
vt 0.01864667 1
vt 1 0
vt 0.9385966 0
vt 0.9385965 1
vt 1 1
vt 0.9385966 0
vt 0.9089778 0
vt 0.9089778 1
vt 0.9385965 1
vt 0.9089778 0
vt 0.877193 0
vt 0.877193 1
vt 0.9089778 1
vt 0.122807 0
vt 0.122807 1
vt 0.877193 1
vt 0.877193 0
vt 0.9627064 1
vt 0.9723588 1
vt 0.9723588 0
vt 0.9627065 0
vt 0.9723588 1
vt 0.9813532 1
vt 0.9813533 0
vt 0.9723588 0
vt 0.9813532 1
vt 1 1
vt 1 0
vt 0.9813533 0
vt 0 1
vt 0.0614035 1
vt 0.06140349 0
vt 0 0
vt 0.0614035 1
vt 0.0910222 1
vt 0.09102219 0
vt 0.06140349 0
vt 0.0910222 1
vt 0.122807 1
vt 0.122807 0
vt 0.09102219 0
vt 0.03729355 0
vt 0.03729349 1
vt 0.9627064 1
vt 0.9627065 0
vn 0 -1 0
vn 0 -1 0
vn 0 -1 0
vn 0 -1 0
vn 0 -1 0
vn 0 -1 0
vn 0 -1 0
vn 0 -1 0
vn 0 -1 0
vn 0 -1 0
vn 0 -1 0
vn 0 -1 0
vn 0 -1 0
vn 0 -1 0
vn 0 -1 0
vn 0 -1 0
vn 0 -1 0
vn 0 -1 0
vn 0 -1 0
vn 0 -1 0
vn 0 -1 0
vn 0 -1 0
vn 0 -1 0
vn 0 -1 0
vn 0 -1 0
vn 0 -1 0
vn 0 -1 0
vn 0 -1 0
vn 1 0 0
vn 1 0 0
vn 1 0 0
vn 1 0 0
vn 0 0 1
vn 0 0 1
vn 0 0 1
vn 0 0 1
vn 0.9914449 0 0.1305261
vn 0.9914449 0 0.1305261
vn 0.9914449 0 0.1305261
vn 0.9914449 0 0.1305261
vn 0.9238794 0 0.3826837
vn 0.9238794 0 0.3826837
vn 0.9238794 0 0.3826837
vn 0.9238794 0 0.3826837
vn 0.7933549 0 0.6087594
vn 0.7933549 0 0.6087594
vn 0.7933549 0 0.6087594
vn 0.7933549 0 0.6087594
vn 0.6087601 0 0.7933544
vn 0.6087601 0 0.7933544
vn 0.6087601 0 0.7933544
vn 0.6087601 0 0.7933544
vn 0.3826832 0 0.9238796
vn 0.3826832 0 0.9238796
vn 0.3826832 0 0.9238796
vn 0.3826832 0 0.9238796
vn 0.1305221 0 0.9914454
vn 0.1305221 0 0.9914454
vn 0.1305221 0 0.9914454
vn 0.1305221 0 0.9914454
vn -0.9914449 0 0.1305261
vn -0.9914449 0 0.1305261
vn -0.9914449 0 0.1305261
vn -0.9914449 0 0.1305261
vn -0.9238794 0 0.3826837
vn -0.9238794 0 0.3826837
vn -0.9238794 0 0.3826837
vn -0.9238794 0 0.3826837
vn -0.7933549 0 0.6087594
vn -0.7933549 0 0.6087594
vn -0.7933549 0 0.6087594
vn -0.7933549 0 0.6087594
vn -0.6087601 0 0.7933544
vn -0.6087601 0 0.7933544
vn -0.6087601 0 0.7933544
vn -0.6087601 0 0.7933544
vn -0.3826832 0 0.9238796
vn -0.3826832 0 0.9238796
vn -0.3826832 0 0.9238796
vn -0.3826832 0 0.9238796
vn -0.1305221 0 0.9914454
vn -0.1305221 0 0.9914454
vn -0.1305221 0 0.9914454
vn -0.1305221 0 0.9914454
vn 0 1 0
vn 0 1 0
vn 0 1 0
vn 0 1 0
vn 0 1 0
vn 0 1 0
vn 0 1 0
vn 0 1 0
vn 0 1 0
vn 0 1 0
vn 0 1 0
vn 0 1 0
vn 0 1 0
vn 0 1 0
vn 0 1 0
vn 0 1 0
vn 0 1 0
vn 0 1 0
vn 0 1 0
vn 0 1 0
vn 0 1 0
vn 0 1 0
vn 0 1 0
vn 0 1 0
vn 0 1 0
vn 0 1 0
vn 0 1 0
vn 0 1 0
vn 0.9914449 0 -0.1305261
vn 0.9914449 0 -0.1305261
vn 0.9914449 0 -0.1305261
vn 0.9914449 0 -0.1305261
vn 0.9238794 0 -0.3826837
vn 0.9238794 0 -0.3826837
vn 0.9238794 0 -0.3826837
vn 0.9238794 0 -0.3826837
vn 0.7933549 0 -0.6087594
vn 0.7933549 0 -0.6087594
vn 0.7933549 0 -0.6087594
vn 0.7933549 0 -0.6087594
vn 0.6087601 0 -0.7933544
vn 0.6087601 0 -0.7933544
vn 0.6087601 0 -0.7933544
vn 0.6087601 0 -0.7933544
vn 0.3826832 0 -0.9238796
vn 0.3826832 0 -0.9238796
vn 0.3826832 0 -0.9238796
vn 0.3826832 0 -0.9238796
vn 0.1305221 0 -0.9914454
vn 0.1305221 0 -0.9914454
vn 0.1305221 0 -0.9914454
vn 0.1305221 0 -0.9914454
vn 0 0 -1
vn 0 0 -1
vn 0 0 -1
vn 0 0 -1
vn -0.9914449 0 -0.1305261
vn -0.9914449 0 -0.1305261
vn -0.9914449 0 -0.1305261
vn -0.9914449 0 -0.1305261
vn -0.9238794 0 -0.3826837
vn -0.9238794 0 -0.3826837
vn -0.9238794 0 -0.3826837
vn -0.9238794 0 -0.3826837
vn -0.7933549 0 -0.6087594
vn -0.7933549 0 -0.6087594
vn -0.7933549 0 -0.6087594
vn -0.7933549 0 -0.6087594
vn -0.6087601 0 -0.7933544
vn -0.6087601 0 -0.7933544
vn -0.6087601 0 -0.7933544
vn -0.6087601 0 -0.7933544
vn -0.3826832 0 -0.9238796
vn -0.3826832 0 -0.9238796
vn -0.3826832 0 -0.9238796
vn -0.3826832 0 -0.9238796
vn -0.1305221 0 -0.9914454
vn -0.1305221 0 -0.9914454
vn -0.1305221 0 -0.9914454
vn -0.1305221 0 -0.9914454
vn -1 0 0
vn -1 0 0
vn -1 0 0
vn -1 0 0
g PopupBg_0
f 3/3/3 2/2/2 1/1/1
f 1/1/1 4/4/4 3/3/3
f 1/1/1 5/5/5 4/4/4
f 5/5/5 6/6/6 4/4/4
f 5/5/5 7/7/7 6/6/6
f 7/7/7 8/8/8 6/6/6
f 7/7/7 9/9/9 8/8/8
f 9/9/9 10/10/10 8/8/8
f 9/9/9 11/11/11 10/10/10
f 11/11/11 12/12/12 10/10/10
f 11/11/11 13/13/13 12/12/12
f 13/13/13 14/14/14 12/12/12
f 13/13/13 15/15/15 14/14/14
f 15/15/15 16/16/16 14/14/14
f 15/15/15 17/17/17 16/16/16
f 17/17/17 18/18/18 16/16/16
f 17/17/17 19/19/19 18/18/18
f 19/19/19 20/20/20 18/18/18
f 19/19/19 21/21/21 20/20/20
f 21/21/21 22/22/22 20/20/20
f 21/21/21 23/23/23 22/22/22
f 23/23/23 24/24/24 22/22/22
f 23/23/23 25/25/25 24/24/24
f 25/25/25 26/26/26 24/24/24
f 25/25/25 27/27/27 26/26/26
f 27/27/27 28/28/28 26/26/26
f 31/31/31 30/30/30 29/29/29
f 32/32/32 31/31/31 29/29/29
f 35/35/35 34/34/34 33/33/33
f 36/36/36 35/35/35 33/33/33
f 39/39/39 38/38/38 37/37/37
f 40/40/40 39/39/39 37/37/37
f 43/43/43 42/42/42 41/41/41
f 44/44/44 43/43/43 41/41/41
f 47/47/47 46/46/46 45/45/45
f 48/48/48 47/47/47 45/45/45
f 51/51/51 50/50/50 49/49/49
f 52/52/52 51/51/51 49/49/49
f 55/55/55 54/54/54 53/53/53
f 56/56/56 55/55/55 53/53/53
f 59/59/59 58/58/58 57/57/57
f 60/60/60 59/59/59 57/57/57
f 63/63/63 62/62/62 61/61/61
f 64/64/64 63/63/63 61/61/61
f 67/67/67 66/66/66 65/65/65
f 68/68/68 67/67/67 65/65/65
f 71/71/71 70/70/70 69/69/69
f 72/72/72 71/71/71 69/69/69
f 75/75/75 74/74/74 73/73/73
f 76/76/76 75/75/75 73/73/73
f 79/79/79 78/78/78 77/77/77
f 80/80/80 79/79/79 77/77/77
f 83/83/83 82/82/82 81/81/81
f 84/84/84 83/83/83 81/81/81
f 87/87/87 86/86/86 85/85/85
f 85/85/85 88/88/88 87/87/87
f 85/85/85 89/89/89 88/88/88
f 89/89/89 90/90/90 88/88/88
f 89/89/89 91/91/91 90/90/90
f 91/91/91 92/92/92 90/90/90
f 91/91/91 93/93/93 92/92/92
f 93/93/93 94/94/94 92/92/92
f 93/93/93 95/95/95 94/94/94
f 95/95/95 96/96/96 94/94/94
f 95/95/95 97/97/97 96/96/96
f 97/97/97 98/98/98 96/96/96
f 97/97/97 99/99/99 98/98/98
f 99/99/99 100/100/100 98/98/98
f 99/99/99 101/101/101 100/100/100
f 101/101/101 102/102/102 100/100/100
f 101/101/101 103/103/103 102/102/102
f 103/103/103 104/104/104 102/102/102
f 103/103/103 105/105/105 104/104/104
f 105/105/105 106/106/106 104/104/104
f 105/105/105 107/107/107 106/106/106
f 107/107/107 108/108/108 106/106/106
f 107/107/107 109/109/109 108/108/108
f 109/109/109 110/110/110 108/108/108
f 109/109/109 111/111/111 110/110/110
f 111/111/111 112/112/112 110/110/110
f 115/115/115 114/114/114 113/113/113
f 116/116/116 115/115/115 113/113/113
f 119/119/119 118/118/118 117/117/117
f 120/120/120 119/119/119 117/117/117
f 123/123/123 122/122/122 121/121/121
f 124/124/124 123/123/123 121/121/121
f 127/127/127 126/126/126 125/125/125
f 128/128/128 127/127/127 125/125/125
f 131/131/131 130/130/130 129/129/129
f 132/132/132 131/131/131 129/129/129
f 135/135/135 134/134/134 133/133/133
f 136/136/136 135/135/135 133/133/133
f 139/139/139 138/138/138 137/137/137
f 140/140/140 139/139/139 137/137/137
f 143/143/143 142/142/142 141/141/141
f 144/144/144 143/143/143 141/141/141
f 147/147/147 146/146/146 145/145/145
f 148/148/148 147/147/147 145/145/145
f 151/151/151 150/150/150 149/149/149
f 152/152/152 151/151/151 149/149/149
f 155/155/155 154/154/154 153/153/153
f 156/156/156 155/155/155 153/153/153
f 159/159/159 158/158/158 157/157/157
f 160/160/160 159/159/159 157/157/157
f 163/163/163 162/162/162 161/161/161
f 164/164/164 163/163/163 161/161/161
f 167/167/167 166/166/166 165/165/165
f 168/168/168 167/167/167 165/165/165
