g PopupBg
v 0.005731174 -0.0001 -0.008226147
v 0.00555 -0.0001 -0.00825
v -0.00555 -0.0001 -0.00825
v -0.005731174 -0.0001 -0.008226147
v 0.0059 -0.0001 -0.008156217
v -0.0059 -0.0001 -0.008156217
v 0.006044975 -0.0001 -0.008044974
v -0.006044975 -0.0001 -0.008044974
v 0.006156219 -0.0001 -0.007899999
v -0.006156219 -0.0001 -0.0079
v -0.006226148 -0.0001 -0.007731172
v 0.006226148 -0.0001 -0.007731172
v 0.00625 -0.0001 -0.00755
v -0.00625 -0.0001 -0.00755
v 0.00625 -0.0001 0.00755
v -0.00625 -0.0001 0.00755
v 0.006226148 -0.0001 0.007731172
v -0.006226148 -0.0001 0.007731172
v 0.006156219 -0.0001 0.0079
v -0.006156219 -0.0001 0.007899999
v -0.006044975 -0.0001 0.008044974
v 0.006044975 -0.0001 0.008044974
v 0.0059 -0.0001 0.008156217
v -0.0059 -0.0001 0.008156217
v 0.005731174 -0.0001 0.008226147
v -0.005731174 -0.0001 0.008226147
v 0.00555 -0.0001 0.00825
v -0.00555 -0.0001 0.00825
v 0.00625 0 -0.00755
v 0.00625 -0.0001 -0.00755
v 0.00625 -0.0001 0.00755
v 0.00625 0 0.00755
v 0.00555 0 0.00825
v 0.00555 -0.0001 0.00825
v -0.00555 -0.0001 0.00825
v -0.00555 0 0.00825
v 0.00625 -0.0001 0.00755
v 0.006226148 -0.0001 0.007731172
v 0.006226148 0 0.007731172
v 0.00625 0 0.00755
v 0.006226148 -0.0001 0.007731172
v 0.006156219 -0.0001 0.0079
v 0.006156219 0 0.007899999
v 0.006226148 0 0.007731172
v 0.006156219 -0.0001 0.0079
v 0.006044975 -0.0001 0.008044974
v 0.006044975 0 0.008044974
v 0.006156219 0 0.007899999
v 0.006044975 -0.0001 0.008044974
v 0.0059 -0.0001 0.008156217
v 0.0059 0 0.008156217
v 0.006044975 0 0.008044974
v 0.0059 -0.0001 0.008156217
v 0.005731174 -0.0001 0.008226147
v 0.005731174 0 0.008226147
v 0.0059 0 0.008156217
v 0.005731174 -0.0001 0.008226147
v 0.00555 -0.0001 0.00825
v 0.00555 0 0.00825
v 0.005731174 0 0.008226147
v -0.00625 0 0.00755
v -0.006226148 0 0.007731172
v -0.006226148 -0.0001 0.007731172
v -0.00625 -0.0001 0.00755
v -0.006226148 0 0.007731172
v -0.006156219 0 0.0079
v -0.006156219 -0.0001 0.007899999
v -0.006226148 -0.0001 0.007731172
v -0.006156219 0 0.0079
v -0.006044975 0 0.008044974
v -0.006044975 -0.0001 0.008044974
v -0.006156219 -0.0001 0.007899999
v -0.006044975 0 0.008044974
v -0.0059 0 0.008156217
v -0.0059 -0.0001 0.008156217
v -0.006044975 -0.0001 0.008044974
v -0.0059 0 0.008156217
v -0.005731174 0 0.008226147
v -0.005731174 -0.0001 0.008226147
v -0.0059 -0.0001 0.008156217
v -0.005731174 0 0.008226147
v -0.00555 0 0.00825
v -0.00555 -0.0001 0.00825
v -0.005731174 -0.0001 0.008226147
v -0.005731174 0 -0.008226147
v -0.00555 0 -0.00825
v 0.00555 0 -0.00825
v 0.005731174 0 -0.008226147
v -0.0059 0 -0.008156217
v 0.0059 0 -0.008156217
v -0.006044975 0 -0.008044974
v 0.006044975 0 -0.008044974
v -0.006156219 0 -0.007899999
v 0.006156219 0 -0.0079
v 0.006226148 0 -0.007731172
v -0.006226148 0 -0.007731172
v -0.00625 0 -0.00755
v 0.00625 0 -0.00755
v -0.00625 0 0.00755
v 0.00625 0 0.00755
v -0.006226148 0 0.007731172
v 0.006226148 0 0.007731172
v -0.006156219 0 0.0079
v 0.006156219 0 0.007899999
v 0.006044975 0 0.008044974
v -0.006044975 0 0.008044974
v -0.0059 0 0.008156217
v 0.0059 0 0.008156217
v -0.005731174 0 0.008226147
v 0.005731174 0 0.008226147
v -0.00555 0 0.00825
v 0.00555 0 0.00825
v 0.00625 0 -0.00755
v 0.006226148 0 -0.007731172
v 0.006226148 -0.0001 -0.007731172
v 0.00625 -0.0001 -0.00755
v 0.006226148 0 -0.007731172
v 0.006156219 0 -0.0079
v 0.006156219 -0.0001 -0.007899999
v 0.006226148 -0.0001 -0.007731172
v 0.006156219 0 -0.0079
v 0.006044975 0 -0.008044974
v 0.006044975 -0.0001 -0.008044974
v 0.006156219 -0.0001 -0.007899999
v 0.006044975 0 -0.008044974
v 0.0059 0 -0.008156217
v 0.0059 -0.0001 -0.008156217
v 0.006044975 -0.0001 -0.008044974
v 0.0059 0 -0.008156217
v 0.005731174 0 -0.008226147
v 0.005731174 -0.0001 -0.008226147
v 0.0059 -0.0001 -0.008156217
v 0.005731174 0 -0.008226147
v 0.00555 0 -0.00825
v 0.00555 -0.0001 -0.00825
v 0.005731174 -0.0001 -0.008226147
v -0.00555 0 -0.00825
v -0.00555 -0.0001 -0.00825
v 0.00555 -0.0001 -0.00825
v 0.00555 0 -0.00825
v -0.00625 -0.0001 -0.00755
v -0.006226148 -0.0001 -0.007731172
v -0.006226148 0 -0.007731172
v -0.00625 0 -0.00755
v -0.006226148 -0.0001 -0.007731172
v -0.006156219 -0.0001 -0.0079
v -0.006156219 0 -0.007899999
v -0.006226148 0 -0.007731172
v -0.006156219 -0.0001 -0.0079
v -0.006044975 -0.0001 -0.008044974
v -0.006044975 0 -0.008044974
v -0.006156219 0 -0.007899999
v -0.006044975 -0.0001 -0.008044974
v -0.0059 -0.0001 -0.008156217
v -0.0059 0 -0.008156217
v -0.006044975 0 -0.008044974
v -0.0059 -0.0001 -0.008156217
v -0.005731174 -0.0001 -0.008226147
v -0.005731174 0 -0.008226147
v -0.0059 0 -0.008156217
v -0.005731174 -0.0001 -0.008226147
v -0.00555 -0.0001 -0.00825
v -0.00555 0 -0.00825
v -0.005731174 0 -0.008226147
v -0.00625 0 0.00755
v -0.00625 -0.0001 0.00755
v -0.00625 -0.0001 -0.00755
v -0.00625 0 -0.00755
vt 0.9584936 0.001445617
vt 0.9440001 0
vt 0.05599999 0
vt 0.04150604 0.001445616
vt 0.972 0.005683815
vt 0.02799987 0.005683774
vt 0.9835978 0.01242608
vt 0.01640223 0.01242617
vt 0.9924975 0.0212122
vt 0.007502358 0.02121211
vt 0.001908077 0.03144407
vt 0.9980918 0.03144408
vt 1 0.04242424
vt 0 0.04242416
vt 1 0.9575757
vt 0 0.9575757
vt 0.9980919 0.9685559
vt 0.001908093 0.9685559
vt 0.9924975 0.9787878
vt 0.007502386 0.9787879
vt 0.01640219 0.9875743
vt 0.9835981 0.9875742
vt 0.9720001 0.9943162
vt 0.02799977 0.9943162
vt 0.9584939 0.9985544
vt 0.04150604 0.9985544
vt 0.944 1
vt 0.05599997 1
vt 0.04242424 0
vt 0.04242416 1
vt 0.9575757 1
vt 0.9575757 0
vt 0.05599999 0
vt 0.05599993 1
vt 0.944 1
vt 0.944 0
vt 0.9575757 1
vt 0.9685559 1
vt 0.968556 0
vt 0.9575757 0
vt 0.9685559 1
vt 0.9787878 1
vt 0.9787879 0
vt 0.968556 0
vt 0.9787878 1
vt 1 1
vt 1 0
vt 0.9787879 0
vt 0 1
vt 0.02799994 1
vt 0.02799997 0
vt 0 0
vt 0.02799994 1
vt 0.04150611 1
vt 0.0415061 0
vt 0.02799997 0
vt 0.04150611 1
vt 0.05599993 1
vt 0.05599999 0
vt 0.0415061 0
vt 0.04242424 0
vt 0.03144409 0
vt 0.03144401 1
vt 0.04242426 1
vt 0.03144409 0
vt 0.02121214 0
vt 0.0212121 1
vt 0.03144401 1
vt 0.02121214 0
vt 0 0
vt 0 1
vt 0.0212121 1
vt 1 0
vt 0.9719999 0
vt 0.972 1
vt 1 1
vt 0.9719999 0
vt 0.9584938 0
vt 0.9584939 1
vt 0.972 1
vt 0.9584938 0
vt 0.944 0
vt 0.944 1
vt 0.9584939 1
vt 0.001445616 0.04150603
vt 0 0.05599997
vt 0 0.944
vt 0.001445617 0.9584938
vt 0.005683816 0.02799981
vt 0.005683773 0.9719999
vt 0.01242608 0.01640223
vt 0.01242617 0.9835979
vt 0.02121221 0.007502345
vt 0.0212121 0.9924976
vt 0.03144407 0.9980919
vt 0.03144408 0.001908094
vt 0.04242424 0
vt 0.04242416 1
vt 0.9575757 0
vt 0.9575757 1
vt 0.968556 0.001908093
vt 0.9685559 0.9980919
vt 0.978788 0.007502386
vt 0.9787878 0.9924975
vt 0.9875742 0.9835981
vt 0.9875743 0.01640219
vt 0.9943162 0.02799977
vt 0.9943162 0.9720001
vt 0.9985545 0.04150604
vt 0.9985544 0.9584939
vt 1 0.05599999
vt 1 0.9440001
vt 0.04242424 0
vt 0.03144409 0
vt 0.031444 1
vt 0.04242416 1
vt 0.03144409 0
vt 0.02121214 0
vt 0.02121211 1
vt 0.031444 1
vt 0.02121214 0
vt 0 0
vt 0 1
vt 0.02121211 1
vt 1 0
vt 0.9720001 0
vt 0.972 1
vt 1 1
vt 0.9720001 0
vt 0.9584939 0
vt 0.9584939 1
vt 0.972 1
vt 0.9584939 0
vt 0.9440001 0
vt 0.944 1
vt 0.9584939 1
vt 0.05599999 0
vt 0.05599997 1
vt 0.944 1
vt 0.9440001 0
vt 0.9575758 1
vt 0.9685559 1
vt 0.968556 0
vt 0.9575759 0
vt 0.9685559 1
vt 0.9787878 1
vt 0.9787879 0
vt 0.968556 0
vt 0.9787878 1
vt 1 1
vt 1 0
vt 0.9787879 0
vt 0 1
vt 0.02800004 1
vt 0.02799997 0
vt 0 0
vt 0.02800004 1
vt 0.04150615 1
vt 0.0415061 0
vt 0.02799997 0
vt 0.04150615 1
vt 0.05599997 1
vt 0.05599999 0
vt 0.0415061 0
vt 0.04242424 0
vt 0.04242426 1
vt 0.9575758 1
vt 0.9575759 0
vn 0 -1 0
vn 0 -1 0
vn 0 -1 0
vn 0 -1 0
vn 0 -1 0
vn 0 -1 0
vn 0 -1 0
vn 0 -1 0
vn 0 -1 0
vn 0 -1 0
vn 0 -1 0
vn 0 -1 0
vn 0 -1 0
vn 0 -1 0
vn 0 -1 0
vn 0 -1 0
vn 0 -1 0
vn 0 -1 0
vn 0 -1 0
vn 0 -1 0
vn 0 -1 0
vn 0 -1 0
vn 0 -1 0
vn 0 -1 0
vn 0 -1 0
vn 0 -1 0
vn 0 -1 0
vn 0 -1 0
vn 1 0 0
vn 1 0 0
vn 1 0 0
vn 1 0 0
vn 0 0 1
vn 0 0 1
vn 0 0 1
vn 0 0 1
vn 0.9914452 0 0.1305239
vn 0.9914452 0 0.1305239
vn 0.9914452 0 0.1305239
vn 0.9914452 0 0.1305239
vn 0.9238808 3.058931E-06 0.3826805
vn 0.9238808 3.058931E-06 0.3826805
vn 0.9238808 3.058931E-06 0.3826805
vn 0.9238808 3.058931E-06 0.3826805
vn 0.7933523 0 0.6087629
vn 0.7933523 0 0.6087629
vn 0.7933523 0 0.6087629
vn 0.7933523 0 0.6087629
vn 0.6087593 0 0.793355
vn 0.6087593 0 0.793355
vn 0.6087593 0 0.793355
vn 0.6087593 0 0.793355
vn 0.3826832 0 0.9238796
vn 0.3826832 0 0.9238796
vn 0.3826832 0 0.9238796
vn 0.3826832 0 0.9238796
vn 0.1305319 0 0.9914441
vn 0.1305319 0 0.9914441
vn 0.1305319 0 0.9914441
vn 0.1305319 0 0.9914441
vn -0.9914452 0 0.1305239
vn -0.9914452 0 0.1305239
vn -0.9914452 0 0.1305239
vn -0.9914452 0 0.1305239
vn -0.9238808 -3.058931E-06 0.3826805
vn -0.9238808 -3.058931E-06 0.3826805
vn -0.9238808 -3.058931E-06 0.3826805
vn -0.9238808 -3.058931E-06 0.3826805
vn -0.7933523 0 0.6087629
vn -0.7933523 0 0.6087629
vn -0.7933523 0 0.6087629
vn -0.7933523 0 0.6087629
vn -0.6087593 0 0.793355
vn -0.6087593 0 0.793355
vn -0.6087593 0 0.793355
vn -0.6087593 0 0.793355
vn -0.3826832 0 0.9238796
vn -0.3826832 0 0.9238796
vn -0.3826832 0 0.9238796
vn -0.3826832 0 0.9238796
vn -0.1305319 0 0.9914441
vn -0.1305319 0 0.9914441
vn -0.1305319 0 0.9914441
vn -0.1305319 0 0.9914441
vn 0 1 0
vn 0 1 0
vn 0 1 0
vn 0 1 0
vn 0 1 0
vn 0 1 0
vn 0 1 0
vn 0 1 0
vn 0 1 0
vn 0 1 0
vn 0 1 0
vn 0 1 0
vn 0 1 0
vn 0 1 0
vn 0 1 0
vn 0 1 0
vn 0 1 0
vn 0 1 0
vn 0 1 0
vn 0 1 0
vn 0 1 0
vn 0 1 0
vn 0 1 0
vn 0 1 0
vn 0 1 0
vn 0 1 0
vn 0 1 0
vn 0 1 0
vn 0.9914452 0 -0.1305239
vn 0.9914452 0 -0.1305239
vn 0.9914452 0 -0.1305239
vn 0.9914452 0 -0.1305239
vn 0.9238808 -3.058931E-06 -0.3826805
vn 0.9238808 -3.058931E-06 -0.3826805
vn 0.9238808 -3.058931E-06 -0.3826805
vn 0.9238808 -3.058931E-06 -0.3826805
vn 0.7933523 0 -0.6087629
vn 0.7933523 0 -0.6087629
vn 0.7933523 0 -0.6087629
vn 0.7933523 0 -0.6087629
vn 0.6087593 0 -0.793355
vn 0.6087593 0 -0.793355
vn 0.6087593 0 -0.793355
vn 0.6087593 0 -0.793355
vn 0.3826832 0 -0.9238796
vn 0.3826832 0 -0.9238796
vn 0.3826832 0 -0.9238796
vn 0.3826832 0 -0.9238796
vn 0.1305319 0 -0.9914441
vn 0.1305319 0 -0.9914441
vn 0.1305319 0 -0.9914441
vn 0.1305319 0 -0.9914441
vn 0 0 -1
vn 0 0 -1
vn 0 0 -1
vn 0 0 -1
vn -0.9914452 0 -0.1305239
vn -0.9914452 0 -0.1305239
vn -0.9914452 0 -0.1305239
vn -0.9914452 0 -0.1305239
vn -0.9238808 3.058931E-06 -0.3826805
vn -0.9238808 3.058931E-06 -0.3826805
vn -0.9238808 3.058931E-06 -0.3826805
vn -0.9238808 3.058931E-06 -0.3826805
vn -0.7933523 0 -0.6087629
vn -0.7933523 0 -0.6087629
vn -0.7933523 0 -0.6087629
vn -0.7933523 0 -0.6087629
vn -0.6087593 0 -0.793355
vn -0.6087593 0 -0.793355
vn -0.6087593 0 -0.793355
vn -0.6087593 0 -0.793355
vn -0.3826832 0 -0.9238796
vn -0.3826832 0 -0.9238796
vn -0.3826832 0 -0.9238796
vn -0.3826832 0 -0.9238796
vn -0.1305319 0 -0.9914441
vn -0.1305319 0 -0.9914441
vn -0.1305319 0 -0.9914441
vn -0.1305319 0 -0.9914441
vn -1 0 0
vn -1 0 0
vn -1 0 0
vn -1 0 0
g PopupBg_0
f 3/3/3 2/2/2 1/1/1
f 1/1/1 4/4/4 3/3/3
f 1/1/1 5/5/5 4/4/4
f 5/5/5 6/6/6 4/4/4
f 5/5/5 7/7/7 6/6/6
f 7/7/7 8/8/8 6/6/6
f 7/7/7 9/9/9 8/8/8
f 9/9/9 10/10/10 8/8/8
f 9/9/9 11/11/11 10/10/10
f 9/9/9 12/12/12 11/11/11
f 12/12/12 13/13/13 11/11/11
f 13/13/13 14/14/14 11/11/11
f 13/13/13 15/15/15 14/14/14
f 15/15/15 16/16/16 14/14/14
f 15/15/15 17/17/17 16/16/16
f 17/17/17 18/18/18 16/16/16
f 17/17/17 19/19/19 18/18/18
f 19/19/19 20/20/20 18/18/18
f 19/19/19 21/21/21 20/20/20
f 19/19/19 22/22/22 21/21/21
f 22/22/22 23/23/23 21/21/21
f 23/23/23 24/24/24 21/21/21
f 23/23/23 25/25/25 24/24/24
f 25/25/25 26/26/26 24/24/24
f 25/25/25 27/27/27 26/26/26
f 27/27/27 28/28/28 26/26/26
f 31/31/31 30/30/30 29/29/29
f 32/32/32 31/31/31 29/29/29
f 35/35/35 34/34/34 33/33/33
f 36/36/36 35/35/35 33/33/33
f 39/39/39 38/38/38 37/37/37
f 40/40/40 39/39/39 37/37/37
f 43/43/43 42/42/42 41/41/41
f 44/44/44 43/43/43 41/41/41
f 47/47/47 46/46/46 45/45/45
f 48/48/48 47/47/47 45/45/45
f 51/51/51 50/50/50 49/49/49
f 52/52/52 51/51/51 49/49/49
f 55/55/55 54/54/54 53/53/53
f 56/56/56 55/55/55 53/53/53
f 59/59/59 58/58/58 57/57/57
f 60/60/60 59/59/59 57/57/57
f 63/63/63 62/62/62 61/61/61
f 64/64/64 63/63/63 61/61/61
f 67/67/67 66/66/66 65/65/65
f 68/68/68 67/67/67 65/65/65
f 71/71/71 70/70/70 69/69/69
f 72/72/72 71/71/71 69/69/69
f 75/75/75 74/74/74 73/73/73
f 76/76/76 75/75/75 73/73/73
f 79/79/79 78/78/78 77/77/77
f 80/80/80 79/79/79 77/77/77
f 83/83/83 82/82/82 81/81/81
f 84/84/84 83/83/83 81/81/81
f 87/87/87 86/86/86 85/85/85
f 85/85/85 88/88/88 87/87/87
f 85/85/85 89/89/89 88/88/88
f 89/89/89 90/90/90 88/88/88
f 89/89/89 91/91/91 90/90/90
f 91/91/91 92/92/92 90/90/90
f 91/91/91 93/93/93 92/92/92
f 93/93/93 94/94/94 92/92/92
f 93/93/93 95/95/95 94/94/94
f 93/93/93 96/96/96 95/95/95
f 96/96/96 97/97/97 95/95/95
f 97/97/97 98/98/98 95/95/95
f 97/97/97 99/99/99 98/98/98
f 99/99/99 100/100/100 98/98/98
f 99/99/99 101/101/101 100/100/100
f 101/101/101 102/102/102 100/100/100
f 101/101/101 103/103/103 102/102/102
f 103/103/103 104/104/104 102/102/102
f 103/103/103 105/105/105 104/104/104
f 103/103/103 106/106/106 105/105/105
f 106/106/106 107/107/107 105/105/105
f 107/107/107 108/108/108 105/105/105
f 107/107/107 109/109/109 108/108/108
f 109/109/109 110/110/110 108/108/108
f 109/109/109 111/111/111 110/110/110
f 111/111/111 112/112/112 110/110/110
f 115/115/115 114/114/114 113/113/113
f 116/116/116 115/115/115 113/113/113
f 119/119/119 118/118/118 117/117/117
f 120/120/120 119/119/119 117/117/117
f 123/123/123 122/122/122 121/121/121
f 124/124/124 123/123/123 121/121/121
f 127/127/127 126/126/126 125/125/125
f 128/128/128 127/127/127 125/125/125
f 131/131/131 130/130/130 129/129/129
f 132/132/132 131/131/131 129/129/129
f 135/135/135 134/134/134 133/133/133
f 136/136/136 135/135/135 133/133/133
f 139/139/139 138/138/138 137/137/137
f 140/140/140 139/139/139 137/137/137
f 143/143/143 142/142/142 141/141/141
f 144/144/144 143/143/143 141/141/141
f 147/147/147 146/146/146 145/145/145
f 148/148/148 147/147/147 145/145/145
f 151/151/151 150/150/150 149/149/149
f 152/152/152 151/151/151 149/149/149
f 155/155/155 154/154/154 153/153/153
f 156/156/156 155/155/155 153/153/153
f 159/159/159 158/158/158 157/157/157
f 160/160/160 159/159/159 157/157/157
f 163/163/163 162/162/162 161/161/161
f 164/164/164 163/163/163 161/161/161
f 167/167/167 166/166/166 165/165/165
f 168/168/168 167/167/167 165/165/165
