g PopupBg
v 0.006981174 -0.0001 -0.006726148
v 0.0068 -0.0001 -0.00675
v -0.0068 -0.0001 -0.00675
v -0.006981174 -0.0001 -0.006726148
v 0.00715 -0.0001 -0.006656217
v -0.00715 -0.0001 -0.006656217
v 0.007294975 -0.0001 -0.006544974
v -0.007294975 -0.0001 -0.006544974
v 0.007406218 -0.0001 -0.006399999
v -0.007406218 -0.0001 -0.0064
v -0.007476149 -0.0001 -0.006231172
v 0.007476149 -0.0001 -0.006231172
v 0.0075 -0.0001 -0.00605
v -0.0075 -0.0001 -0.00605
v 0.0075 -0.0001 0.00605
v -0.0075 -0.0001 0.00605
v 0.007476149 -0.0001 0.006231172
v -0.007476149 -0.0001 0.006231172
v 0.007406218 -0.0001 0.0064
v -0.007406218 -0.0001 0.006399999
v -0.007294975 -0.0001 0.006544974
v 0.007294975 -0.0001 0.006544974
v 0.00715 -0.0001 0.006656217
v -0.00715 -0.0001 0.006656217
v 0.006981174 -0.0001 0.006726148
v -0.006981174 -0.0001 0.006726148
v 0.0068 -0.0001 0.00675
v -0.0068 -0.0001 0.00675
v 0.0075 0 -0.00605
v 0.0075 -0.0001 -0.00605
v 0.0075 -0.0001 0.00605
v 0.0075 0 0.00605
v 0.0068 0 0.00675
v 0.0068 -0.0001 0.00675
v -0.0068 -0.0001 0.00675
v -0.0068 0 0.00675
v 0.0075 -0.0001 0.00605
v 0.007476149 -0.0001 0.006231172
v 0.007476149 0 0.006231172
v 0.0075 0 0.00605
v 0.007476149 -0.0001 0.006231172
v 0.007406218 -0.0001 0.0064
v 0.007406218 0 0.006399999
v 0.007476149 0 0.006231172
v 0.007406218 -0.0001 0.0064
v 0.007294975 -0.0001 0.006544974
v 0.007294975 0 0.006544974
v 0.007406218 0 0.006399999
v 0.007294975 -0.0001 0.006544974
v 0.00715 -0.0001 0.006656217
v 0.00715 0 0.006656217
v 0.007294975 0 0.006544974
v 0.00715 -0.0001 0.006656217
v 0.006981174 -0.0001 0.006726148
v 0.006981174 0 0.006726148
v 0.00715 0 0.006656217
v 0.006981174 -0.0001 0.006726148
v 0.0068 -0.0001 0.00675
v 0.0068 0 0.00675
v 0.006981174 0 0.006726148
v -0.0075 0 0.00605
v -0.007476149 0 0.006231172
v -0.007476149 -0.0001 0.006231172
v -0.0075 -0.0001 0.00605
v -0.007476149 0 0.006231172
v -0.007406218 0 0.0064
v -0.007406218 -0.0001 0.006399999
v -0.007476149 -0.0001 0.006231172
v -0.007406218 0 0.0064
v -0.007294975 0 0.006544974
v -0.007294975 -0.0001 0.006544974
v -0.007406218 -0.0001 0.006399999
v -0.007294975 0 0.006544974
v -0.00715 0 0.006656217
v -0.00715 -0.0001 0.006656217
v -0.007294975 -0.0001 0.006544974
v -0.00715 0 0.006656217
v -0.006981174 0 0.006726148
v -0.006981174 -0.0001 0.006726148
v -0.00715 -0.0001 0.006656217
v -0.006981174 0 0.006726148
v -0.0068 0 0.00675
v -0.0068 -0.0001 0.00675
v -0.006981174 -0.0001 0.006726148
v -0.006981174 0 -0.006726148
v -0.0068 0 -0.00675
v 0.0068 0 -0.00675
v 0.006981174 0 -0.006726148
v -0.00715 0 -0.006656217
v 0.00715 0 -0.006656217
v -0.007294975 0 -0.006544974
v 0.007294975 0 -0.006544974
v -0.007406218 0 -0.006399999
v 0.007406218 0 -0.0064
v 0.007476149 0 -0.006231172
v -0.007476149 0 -0.006231172
v -0.0075 0 -0.00605
v 0.0075 0 -0.00605
v -0.0075 0 0.00605
v 0.0075 0 0.00605
v -0.007476149 0 0.006231172
v 0.007476149 0 0.006231172
v -0.007406218 0 0.0064
v 0.007406218 0 0.006399999
v 0.007294975 0 0.006544974
v -0.007294975 0 0.006544974
v -0.00715 0 0.006656217
v 0.00715 0 0.006656217
v -0.006981174 0 0.006726148
v 0.006981174 0 0.006726148
v -0.0068 0 0.00675
v 0.0068 0 0.00675
v 0.0075 0 -0.00605
v 0.007476149 0 -0.006231172
v 0.007476149 -0.0001 -0.006231172
v 0.0075 -0.0001 -0.00605
v 0.007476149 0 -0.006231172
v 0.007406218 0 -0.0064
v 0.007406218 -0.0001 -0.006399999
v 0.007476149 -0.0001 -0.006231172
v 0.007406218 0 -0.0064
v 0.007294975 0 -0.006544974
v 0.007294975 -0.0001 -0.006544974
v 0.007406218 -0.0001 -0.006399999
v 0.007294975 0 -0.006544974
v 0.00715 0 -0.006656217
v 0.00715 -0.0001 -0.006656217
v 0.007294975 -0.0001 -0.006544974
v 0.00715 0 -0.006656217
v 0.006981174 0 -0.006726148
v 0.006981174 -0.0001 -0.006726148
v 0.00715 -0.0001 -0.006656217
v 0.006981174 0 -0.006726148
v 0.0068 0 -0.00675
v 0.0068 -0.0001 -0.00675
v 0.006981174 -0.0001 -0.006726148
v -0.0068 0 -0.00675
v -0.0068 -0.0001 -0.00675
v 0.0068 -0.0001 -0.00675
v 0.0068 0 -0.00675
v -0.0075 -0.0001 -0.00605
v -0.007476149 -0.0001 -0.006231172
v -0.007476149 0 -0.006231172
v -0.0075 0 -0.00605
v -0.007476149 -0.0001 -0.006231172
v -0.007406218 -0.0001 -0.0064
v -0.007406218 0 -0.006399999
v -0.007476149 0 -0.006231172
v -0.007406218 -0.0001 -0.0064
v -0.007294975 -0.0001 -0.006544974
v -0.007294975 0 -0.006544974
v -0.007406218 0 -0.006399999
v -0.007294975 -0.0001 -0.006544974
v -0.00715 -0.0001 -0.006656217
v -0.00715 0 -0.006656217
v -0.007294975 0 -0.006544974
v -0.00715 -0.0001 -0.006656217
v -0.006981174 -0.0001 -0.006726148
v -0.006981174 0 -0.006726148
v -0.00715 0 -0.006656217
v -0.006981174 -0.0001 -0.006726148
v -0.0068 -0.0001 -0.00675
v -0.0068 0 -0.00675
v -0.006981174 0 -0.006726148
v -0.0075 0 0.00605
v -0.0075 -0.0001 0.00605
v -0.0075 -0.0001 -0.00605
v -0.0075 0 -0.00605
vt 0.9654117 0.001766927
vt 0.9533333 0
vt 0.04666666 0
vt 0.03458841 0.001766927
vt 0.9766667 0.006946808
vt 0.02333328 0.006946811
vt 0.9863316 0.01518692
vt 0.01366851 0.0151868
vt 0.9937479 0.0259256
vt 0.006252021 0.02592585
vt 0.001590121 0.03843166
vt 0.9984099 0.03843166
vt 1 0.05185185
vt 0 0.05185185
vt 1 0.9481481
vt 0 0.9481481
vt 0.9984099 0.9615684
vt 0.001590122 0.9615684
vt 0.9937479 0.9740741
vt 0.006251954 0.974074
vt 0.01366843 0.9848129
vt 0.9863318 0.984813
vt 0.9766667 0.9930531
vt 0.02333321 0.9930531
vt 0.9654116 0.9982332
vt 0.03458841 0.9982331
vt 0.9533333 1
vt 0.0466667 1
vt 0.05185185 0
vt 0.05185185 1
vt 0.9481481 1
vt 0.9481481 0
vt 0.04666666 0
vt 0.04666668 1
vt 0.9533334 1
vt 0.9533333 0
vt 0.9481481 1
vt 0.9615684 1
vt 0.9615683 0
vt 0.9481481 0
vt 0.9615684 1
vt 0.9740741 1
vt 0.974074 0
vt 0.9615683 0
vt 0.9740741 1
vt 1 1
vt 1 0
vt 0.974074 0
vt 0 1
vt 0.02333331 1
vt 0.02333331 0
vt 0 0
vt 0.02333331 1
vt 0.0345884 1
vt 0.03458842 0
vt 0.02333331 0
vt 0.0345884 1
vt 0.04666668 1
vt 0.04666666 0
vt 0.03458842 0
vt 0.05185184 0
vt 0.03843166 0
vt 0.0384317 1
vt 0.05185187 1
vt 0.03843166 0
vt 0.02592594 0
vt 0.02592599 1
vt 0.0384317 1
vt 0.02592594 0
vt 0 0
vt 0 1
vt 0.02592599 1
vt 1 0
vt 0.9766666 0
vt 0.9766667 1
vt 1 1
vt 0.9766666 0
vt 0.9654115 0
vt 0.9654115 1
vt 0.9766667 1
vt 0.9654115 0
vt 0.9533333 0
vt 0.9533334 1
vt 0.9654115 1
vt 0.001766927 0.03458841
vt 0 0.0466667
vt 0 0.9533333
vt 0.001766927 0.9654115
vt 0.00694681 0.02333325
vt 0.00694681 0.9766667
vt 0.01518691 0.01366851
vt 0.0151868 0.9863315
vt 0.0259256 0.006251873
vt 0.02592584 0.9937478
vt 0.03843166 0.9984099
vt 0.03843166 0.001590112
vt 0.05185185 0
vt 0.05185185 1
vt 0.9481481 0
vt 0.9481481 1
vt 0.9615684 0.001590122
vt 0.9615684 0.9984099
vt 0.9740741 0.006251954
vt 0.9740741 0.9937479
vt 0.984813 0.9863318
vt 0.9848127 0.01366843
vt 0.9930531 0.02333321
vt 0.9930531 0.9766667
vt 0.998233 0.03458841
vt 0.9982332 0.9654116
vt 1 0.04666666
vt 1 0.9533333
vt 0.05185185 0
vt 0.03843166 0
vt 0.03843169 1
vt 0.05185185 1
vt 0.03843166 0
vt 0.02592595 0
vt 0.02592604 1
vt 0.03843169 1
vt 0.02592595 0
vt 0 0
vt 0 1
vt 0.02592604 1
vt 1 0
vt 0.9766667 0
vt 0.9766667 1
vt 1 1
vt 0.9766667 0
vt 0.9654116 0
vt 0.9654116 1
vt 0.9766667 1
vt 0.9654116 0
vt 0.9533333 0
vt 0.9533333 1
vt 0.9654116 1
vt 0.04666666 0
vt 0.0466667 1
vt 0.9533333 1
vt 0.9533333 0
vt 0.9481481 1
vt 0.9615683 1
vt 0.9615683 0
vt 0.9481481 0
vt 0.9615683 1
vt 0.9740741 1
vt 0.9740739 0
vt 0.9615683 0
vt 0.9740741 1
vt 1 1
vt 1 0
vt 0.9740739 0
vt 0 1
vt 0.02333338 1
vt 0.02333331 0
vt 0 0
vt 0.02333338 1
vt 0.0345885 1
vt 0.03458842 0
vt 0.02333331 0
vt 0.0345885 1
vt 0.0466667 1
vt 0.04666666 0
vt 0.03458842 0
vt 0.05185184 0
vt 0.05185187 1
vt 0.9481481 1
vt 0.9481481 0
vn 0 -1 0
vn 0 -1 0
vn 0 -1 0
vn 0 -1 0
vn 0 -1 0
vn 0 -1 0
vn 0 -1 0
vn 0 -1 0
vn 0 -1 0
vn 0 -1 0
vn 0 -1 0
vn 0 -1 0
vn 0 -1 0
vn 0 -1 0
vn 0 -1 0
vn 0 -1 0
vn 0 -1 0
vn 0 -1 0
vn 0 -1 0
vn 0 -1 0
vn 0 -1 0
vn 0 -1 0
vn 0 -1 0
vn 0 -1 0
vn 0 -1 0
vn 0 -1 0
vn 0 -1 0
vn 0 -1 0
vn 1 0 0
vn 1 0 0
vn 1 0 0
vn 1 0 0
vn 0 0 1
vn 0 0 1
vn 0 0 1
vn 0 0 1
vn 0.9914452 0 0.1305239
vn 0.9914452 0 0.1305239
vn 0.9914452 0 0.1305239
vn 0.9914452 0 0.1305239
vn 0.9238808 3.058931E-06 0.3826805
vn 0.9238808 3.058931E-06 0.3826805
vn 0.9238808 3.058931E-06 0.3826805
vn 0.9238808 3.058931E-06 0.3826805
vn 0.7933523 0 0.6087629
vn 0.7933523 0 0.6087629
vn 0.7933523 0 0.6087629
vn 0.7933523 0 0.6087629
vn 0.6087609 0 0.7933537
vn 0.6087609 0 0.7933537
vn 0.6087609 0 0.7933537
vn 0.6087609 0 0.7933537
vn 0.3826832 0 0.9238796
vn 0.3826832 0 0.9238796
vn 0.3826832 0 0.9238796
vn 0.3826832 0 0.9238796
vn 0.1305294 0 0.9914444
vn 0.1305294 0 0.9914444
vn 0.1305294 0 0.9914444
vn 0.1305294 0 0.9914444
vn -0.9914452 0 0.1305239
vn -0.9914452 0 0.1305239
vn -0.9914452 0 0.1305239
vn -0.9914452 0 0.1305239
vn -0.9238808 -3.058931E-06 0.3826805
vn -0.9238808 -3.058931E-06 0.3826805
vn -0.9238808 -3.058931E-06 0.3826805
vn -0.9238808 -3.058931E-06 0.3826805
vn -0.7933523 0 0.6087629
vn -0.7933523 0 0.6087629
vn -0.7933523 0 0.6087629
vn -0.7933523 0 0.6087629
vn -0.6087609 0 0.7933537
vn -0.6087609 0 0.7933537
vn -0.6087609 0 0.7933537
vn -0.6087609 0 0.7933537
vn -0.3826832 0 0.9238796
vn -0.3826832 0 0.9238796
vn -0.3826832 0 0.9238796
vn -0.3826832 0 0.9238796
vn -0.1305294 0 0.9914444
vn -0.1305294 0 0.9914444
vn -0.1305294 0 0.9914444
vn -0.1305294 0 0.9914444
vn 0 1 0
vn 0 1 0
vn 0 1 0
vn 0 1 0
vn 0 1 0
vn 0 1 0
vn 0 1 0
vn 0 1 0
vn 0 1 0
vn 0 1 0
vn 0 1 0
vn 0 1 0
vn 0 1 0
vn 0 1 0
vn 0 1 0
vn 0 1 0
vn 0 1 0
vn 0 1 0
vn 0 1 0
vn 0 1 0
vn 0 1 0
vn 0 1 0
vn 0 1 0
vn 0 1 0
vn 0 1 0
vn 0 1 0
vn 0 1 0
vn 0 1 0
vn 0.9914452 0 -0.1305239
vn 0.9914452 0 -0.1305239
vn 0.9914452 0 -0.1305239
vn 0.9914452 0 -0.1305239
vn 0.9238808 -3.058931E-06 -0.3826805
vn 0.9238808 -3.058931E-06 -0.3826805
vn 0.9238808 -3.058931E-06 -0.3826805
vn 0.9238808 -3.058931E-06 -0.3826805
vn 0.7933523 0 -0.6087629
vn 0.7933523 0 -0.6087629
vn 0.7933523 0 -0.6087629
vn 0.7933523 0 -0.6087629
vn 0.6087609 0 -0.7933537
vn 0.6087609 0 -0.7933537
vn 0.6087609 0 -0.7933537
vn 0.6087609 0 -0.7933537
vn 0.3826832 0 -0.9238796
vn 0.3826832 0 -0.9238796
vn 0.3826832 0 -0.9238796
vn 0.3826832 0 -0.9238796
vn 0.1305294 0 -0.9914444
vn 0.1305294 0 -0.9914444
vn 0.1305294 0 -0.9914444
vn 0.1305294 0 -0.9914444
vn 0 0 -1
vn 0 0 -1
vn 0 0 -1
vn 0 0 -1
vn -0.9914452 0 -0.1305239
vn -0.9914452 0 -0.1305239
vn -0.9914452 0 -0.1305239
vn -0.9914452 0 -0.1305239
vn -0.9238808 3.058931E-06 -0.3826805
vn -0.9238808 3.058931E-06 -0.3826805
vn -0.9238808 3.058931E-06 -0.3826805
vn -0.9238808 3.058931E-06 -0.3826805
vn -0.7933523 0 -0.6087629
vn -0.7933523 0 -0.6087629
vn -0.7933523 0 -0.6087629
vn -0.7933523 0 -0.6087629
vn -0.6087609 0 -0.7933537
vn -0.6087609 0 -0.7933537
vn -0.6087609 0 -0.7933537
vn -0.6087609 0 -0.7933537
vn -0.3826832 0 -0.9238796
vn -0.3826832 0 -0.9238796
vn -0.3826832 0 -0.9238796
vn -0.3826832 0 -0.9238796
vn -0.1305294 0 -0.9914444
vn -0.1305294 0 -0.9914444
vn -0.1305294 0 -0.9914444
vn -0.1305294 0 -0.9914444
vn -1 0 0
vn -1 0 0
vn -1 0 0
vn -1 0 0
g PopupBg_0
f 3/3/3 2/2/2 1/1/1
f 1/1/1 4/4/4 3/3/3
f 1/1/1 5/5/5 4/4/4
f 5/5/5 6/6/6 4/4/4
f 5/5/5 7/7/7 6/6/6
f 7/7/7 8/8/8 6/6/6
f 7/7/7 9/9/9 8/8/8
f 9/9/9 10/10/10 8/8/8
f 9/9/9 11/11/11 10/10/10
f 9/9/9 12/12/12 11/11/11
f 12/12/12 13/13/13 11/11/11
f 13/13/13 14/14/14 11/11/11
f 13/13/13 15/15/15 14/14/14
f 15/15/15 16/16/16 14/14/14
f 15/15/15 17/17/17 16/16/16
f 17/17/17 18/18/18 16/16/16
f 17/17/17 19/19/19 18/18/18
f 19/19/19 20/20/20 18/18/18
f 19/19/19 21/21/21 20/20/20
f 19/19/19 22/22/22 21/21/21
f 22/22/22 23/23/23 21/21/21
f 23/23/23 24/24/24 21/21/21
f 23/23/23 25/25/25 24/24/24
f 25/25/25 26/26/26 24/24/24
f 25/25/25 27/27/27 26/26/26
f 27/27/27 28/28/28 26/26/26
f 31/31/31 30/30/30 29/29/29
f 32/32/32 31/31/31 29/29/29
f 35/35/35 34/34/34 33/33/33
f 36/36/36 35/35/35 33/33/33
f 39/39/39 38/38/38 37/37/37
f 40/40/40 39/39/39 37/37/37
f 43/43/43 42/42/42 41/41/41
f 44/44/44 43/43/43 41/41/41
f 47/47/47 46/46/46 45/45/45
f 48/48/48 47/47/47 45/45/45
f 51/51/51 50/50/50 49/49/49
f 52/52/52 51/51/51 49/49/49
f 55/55/55 54/54/54 53/53/53
f 56/56/56 55/55/55 53/53/53
f 59/59/59 58/58/58 57/57/57
f 60/60/60 59/59/59 57/57/57
f 63/63/63 62/62/62 61/61/61
f 64/64/64 63/63/63 61/61/61
f 67/67/67 66/66/66 65/65/65
f 68/68/68 67/67/67 65/65/65
f 71/71/71 70/70/70 69/69/69
f 72/72/72 71/71/71 69/69/69
f 75/75/75 74/74/74 73/73/73
f 76/76/76 75/75/75 73/73/73
f 79/79/79 78/78/78 77/77/77
f 80/80/80 79/79/79 77/77/77
f 83/83/83 82/82/82 81/81/81
f 84/84/84 83/83/83 81/81/81
f 87/87/87 86/86/86 85/85/85
f 85/85/85 88/88/88 87/87/87
f 85/85/85 89/89/89 88/88/88
f 89/89/89 90/90/90 88/88/88
f 89/89/89 91/91/91 90/90/90
f 91/91/91 92/92/92 90/90/90
f 91/91/91 93/93/93 92/92/92
f 93/93/93 94/94/94 92/92/92
f 93/93/93 95/95/95 94/94/94
f 93/93/93 96/96/96 95/95/95
f 96/96/96 97/97/97 95/95/95
f 97/97/97 98/98/98 95/95/95
f 97/97/97 99/99/99 98/98/98
f 99/99/99 100/100/100 98/98/98
f 99/99/99 101/101/101 100/100/100
f 101/101/101 102/102/102 100/100/100
f 101/101/101 103/103/103 102/102/102
f 103/103/103 104/104/104 102/102/102
f 103/103/103 105/105/105 104/104/104
f 103/103/103 106/106/106 105/105/105
f 106/106/106 107/107/107 105/105/105
f 107/107/107 108/108/108 105/105/105
f 107/107/107 109/109/109 108/108/108
f 109/109/109 110/110/110 108/108/108
f 109/109/109 111/111/111 110/110/110
f 111/111/111 112/112/112 110/110/110
f 115/115/115 114/114/114 113/113/113
f 116/116/116 115/115/115 113/113/113
f 119/119/119 118/118/118 117/117/117
f 120/120/120 119/119/119 117/117/117
f 123/123/123 122/122/122 121/121/121
f 124/124/124 123/123/123 121/121/121
f 127/127/127 126/126/126 125/125/125
f 128/128/128 127/127/127 125/125/125
f 131/131/131 130/130/130 129/129/129
f 132/132/132 131/131/131 129/129/129
f 135/135/135 134/134/134 133/133/133
f 136/136/136 135/135/135 133/133/133
f 139/139/139 138/138/138 137/137/137
f 140/140/140 139/139/139 137/137/137
f 143/143/143 142/142/142 141/141/141
f 144/144/144 143/143/143 141/141/141
f 147/147/147 146/146/146 145/145/145
f 148/148/148 147/147/147 145/145/145
f 151/151/151 150/150/150 149/149/149
f 152/152/152 151/151/151 149/149/149
f 155/155/155 154/154/154 153/153/153
f 156/156/156 155/155/155 153/153/153
f 159/159/159 158/158/158 157/157/157
f 160/160/160 159/159/159 157/157/157
f 163/163/163 162/162/162 161/161/161
f 164/164/164 163/163/163 161/161/161
f 167/167/167 166/166/166 165/165/165
f 168/168/168 167/167/167 165/165/165
