g PopupBg
v 0.007 0 0.004
v 0.007 0 0.0032
v 0.0071 0 0.0032
v 0.007281173 0 0.003223852
v 0.00745 0 0.003293782
v 0.007594975 0 0.003405025
v 0.007706218 0 0.00355
v 0.007776148 0 0.003718826
v 0.007799999 0 0.0039
v 0.007799999 0 0.004
v -0.007 0 0.0033
v 0.007 0 -0.0033
v -0.007 0 -0.0033
v 0.006976147 0 -0.003481173
v -0.006976147 0 -0.003481173
v 0.006906217 0 -0.00365
v -0.006906217 0 -0.00365
v 0.006794974 0 -0.003794975
v -0.006794974 0 -0.003794975
v 0.006649999 0 -0.003906218
v -0.006649999 0 -0.003906218
v 0.006481173 0 -0.003976148
v -0.006481173 0 -0.003976148
v 0.0063 0 -0.004
v -0.0063 0 -0.004
v -0.006976147 0 0.003481173
v -0.006906217 0 0.00365
v -0.006794974 0 0.003794975
v -0.006649999 0 0.003906218
v -0.006481173 0 0.003976148
v -0.0063 0 0.004
v 0.006481173 -0.0001 -0.003976148
v 0.0063 -0.0001 -0.004
v -0.0063 -0.0001 -0.004
v -0.006481173 -0.0001 -0.003976148
v 0.006649999 -0.0001 -0.003906218
v -0.006649999 -0.0001 -0.003906218
v 0.006794974 -0.0001 -0.003794975
v -0.006794974 -0.0001 -0.003794975
v 0.006906217 -0.0001 -0.00365
v -0.006906217 -0.0001 -0.00365
v 0.006976147 -0.0001 -0.003481173
v -0.006976147 -0.0001 -0.003481173
v 0.007 -0.0001 -0.0033
v -0.007 -0.0001 -0.0033
v 0.007 -0.0001 0.0032
v -0.007 -0.0001 0.0033
v 0.007 -0.0001 0.004
v -0.006976147 -0.0001 0.003481173
v -0.006906217 -0.0001 0.00365
v -0.006794974 -0.0001 0.003794975
v -0.006649999 -0.0001 0.003906218
v -0.006481173 -0.0001 0.003976148
v -0.0063 -0.0001 0.004
v -0.0063 0 0.004
v 0.007 0 0.004
v 0.007 -0.0001 0.004
v -0.0063 -0.0001 0.004
v 0.007799999 0 0.004
v 0.007799999 -0.0001 0.004
v 0.0063 0 -0.004
v -0.0063 0 -0.004
v -0.0063 -0.0001 -0.004
v 0.0063 -0.0001 -0.004
v 0.007799999 0 0.004
v 0.007799999 0 0.0039
v 0.007799999 -0.0001 0.0039
v 0.007799999 -0.0001 0.004
v 0.007 0 0.0032
v 0.007 -0.0001 0.0032
v 0.0071 -0.0001 0.0032
v 0.0071 0 0.0032
v 0.007281173 -0.0001 0.003223852
v 0.0071 -0.0001 0.0032
v 0.007 -0.0001 0.0032
v 0.007 -0.0001 0.004
v 0.00745 -0.0001 0.003293782
v 0.007594975 -0.0001 0.003405025
v 0.007706218 -0.0001 0.00355
v 0.007776148 -0.0001 0.003718826
v 0.007799999 -0.0001 0.0039
v 0.007799999 -0.0001 0.004
v -0.0063 -0.0001 0.004
v -0.006481173 -0.0001 0.003976148
v -0.006481173 0 0.003976148
v -0.0063 0 0.004
v -0.006481173 -0.0001 0.003976148
v -0.006649999 -0.0001 0.003906218
v -0.006649999 0 0.003906218
v -0.006481173 0 0.003976148
v -0.006649999 -0.0001 0.003906218
v -0.006794974 -0.0001 0.003794975
v -0.006794974 0 0.003794975
v -0.006649999 0 0.003906218
v -0.006794974 -0.0001 0.003794975
v -0.006906217 -0.0001 0.00365
v -0.006906217 0 0.00365
v -0.006794974 0 0.003794975
v -0.006906217 -0.0001 0.00365
v -0.006976147 -0.0001 0.003481173
v -0.006976147 0 0.003481173
v -0.006906217 0 0.00365
v -0.006976147 -0.0001 0.003481173
v -0.007 -0.0001 0.0033
v -0.007 0 0.0033
v -0.006976147 0 0.003481173
v -0.0063 0 -0.004
v -0.006481173 0 -0.003976148
v -0.006481173 -0.0001 -0.003976148
v -0.0063 -0.0001 -0.004
v -0.006481173 0 -0.003976148
v -0.006649999 0 -0.003906218
v -0.006649999 -0.0001 -0.003906218
v -0.006481173 -0.0001 -0.003976148
v -0.006649999 0 -0.003906218
v -0.006794974 0 -0.003794975
v -0.006794974 -0.0001 -0.003794975
v -0.006649999 -0.0001 -0.003906218
v -0.006794974 0 -0.003794975
v -0.006906217 0 -0.00365
v -0.006906217 -0.0001 -0.00365
v -0.006794974 -0.0001 -0.003794975
v -0.006906217 0 -0.00365
v -0.006976147 0 -0.003481173
v -0.006976147 -0.0001 -0.003481173
v -0.006906217 -0.0001 -0.00365
v -0.006976147 0 -0.003481173
v -0.007 0 -0.0033
v -0.007 -0.0001 -0.0033
v -0.006976147 -0.0001 -0.003481173
v -0.007 0 -0.0033
v -0.007 0 0.0033
v -0.007 -0.0001 0.0033
v -0.007 -0.0001 -0.0033
v 0.0063 -0.0001 -0.004
v 0.006481173 -0.0001 -0.003976148
v 0.006481173 0 -0.003976148
v 0.0063 0 -0.004
v 0.006481173 -0.0001 -0.003976148
v 0.006649999 -0.0001 -0.003906218
v 0.006649999 0 -0.003906218
v 0.006481173 0 -0.003976148
v 0.006649999 -0.0001 -0.003906218
v 0.006794974 -0.0001 -0.003794975
v 0.006794974 0 -0.003794975
v 0.006649999 0 -0.003906218
v 0.006794974 -0.0001 -0.003794975
v 0.006906217 -0.0001 -0.00365
v 0.006906217 0 -0.00365
v 0.006794974 0 -0.003794975
v 0.006906217 -0.0001 -0.00365
v 0.006976147 -0.0001 -0.003481173
v 0.006976147 0 -0.003481173
v 0.006906217 0 -0.00365
v 0.006976147 -0.0001 -0.003481173
v 0.007 -0.0001 -0.0033
v 0.007 0 -0.0033
v 0.006976147 0 -0.003481173
v 0.007799999 0 0.0039
v 0.007776148 0 0.003718826
v 0.007776148 -0.0001 0.003718826
v 0.007799999 -0.0001 0.0039
v 0.007776148 0 0.003718826
v 0.007706218 0 0.00355
v 0.007706218 -0.0001 0.00355
v 0.007776148 -0.0001 0.003718826
v 0.007706218 0 0.00355
v 0.007594975 0 0.003405025
v 0.007594975 -0.0001 0.003405025
v 0.007706218 -0.0001 0.00355
v 0.007594975 0 0.003405025
v 0.00745 0 0.003293782
v 0.00745 -0.0001 0.003293782
v 0.007594975 -0.0001 0.003405025
v 0.00745 0 0.003293782
v 0.007281173 0 0.003223852
v 0.007281173 -0.0001 0.003223852
v 0.00745 -0.0001 0.003293782
v 0.007281173 0 0.003223852
v 0.0071 0 0.0032
v 0.0071 -0.0001 0.0032
v 0.007281173 -0.0001 0.003223852
v 0.007 0 0.0032
v 0.007 0 -0.0033
v 0.007 -0.0001 -0.0033
v 0.007 -0.0001 0.0032
vt 1 0.5
vt 1 0
vt 1 0
vt 1 0.01490749
vt 1 0.05861389
vt 1 0.1281407
vt 1 0.2187499
vt 1 0.3242666
vt 1 0.4374999
vt 1 0.5
vt 0.9125 1
vt 0.09722227 0
vt 0.08749999 1
vt 0.07188413 0.002171257
vt 0.06487343 0.9985251
vt 0.04801203 0.008286803
vt 0.04381963 0.9940939
vt 0.02760064 0.01694589
vt 0.02573187 0.9865262
vt 0.01242907 0.02655727
vt 0.01179358 0.9758062
vt 0.003139556 0.03750868
vt 0.003002265 0.9631773
vt 0 0.05
vt 0 0.95
vt 0.935169 0.9987277
vt 0.956328 0.9951901
vt 0.9744878 0.9905176
vt 0.9883573 0.9860125
vt 0.9970419 0.9810348
vt 1 0.975
vt 0.5177392 0.003139526
vt 0.525 0
vt 0.975 0
vt 0.9813665 0.003002265
vt 0.5089691 0.01242885
vt 0.9871438 0.0117933
vt 0.4974608 0.0276005
vt 0.9921591 0.02573187
vt 0.4820399 0.04801203
vt 0.9962996 0.04381963
vt 0.4656971 0.07188413
vt 0.9990471 0.06487342
vt 0.4513889 0.09722221
vt 1 0.08750005
vt 0 1
vt 1 0.9125
vt 0.5 1
vt 0.9990363 0.935169
vt 0.9962601 0.956328
vt 0.9920978 0.9744878
vt 0.9870995 0.9883573
vt 0.981353 0.997042
vt 0.975 1
vt 0.02500001 0
vt 0.5 0
vt 0.5 1
vt 0.025 1
vt 0.5 0
vt 0.5 1
vt 0.525 0
vt 0.975 0
vt 0.975 1
vt 0.525 1
vt 0.5 0
vt 0.5625001 0
vt 0.5625001 1
vt 0.5 1
vt 0 0
vt 0 1
vt 0 1
vt 0 0
vt 0.01490749 1
vt 0 1
vt 0 1
vt 0.5 1
vt 0.05861389 1
vt 0.1281407 1
vt 0.2187499 1
vt 0.3242665 1
vt 0.4374999 1
vt 0.5 1
vt 0.025 1
vt 0.01852955 1
vt 0.01852953 0
vt 0.02500001 0
vt 0.01852955 1
vt 0.01250001 1
vt 0.01250005 0
vt 0.01852953 0
vt 0.01250001 1
vt 0 1
vt 0 0
vt 0.01250005 0
vt 1 1
vt 0.9562499 1
vt 0.95625 0
vt 1 0
vt 0.9562499 1
vt 0.9351466 1
vt 0.9351467 0
vt 0.95625 0
vt 0.9351466 1
vt 0.9125 1
vt 0.9125 0
vt 0.9351467 0
vt 0.975 0
vt 0.9814704 0
vt 0.9814705 1
vt 0.975 1
vt 0.9814704 0
vt 0.9875 0
vt 0.9875 1
vt 0.9814705 1
vt 0.9875 0
vt 1 0
vt 1 1
vt 0.9875 1
vt 0 0
vt 0.04375 0
vt 0.04375 1
vt 0 1
vt 0.04375 0
vt 0.0648533 0
vt 0.06485332 1
vt 0.04375 1
vt 0.0648533 0
vt 0.08750005 0
vt 0.08749999 1
vt 0.06485332 1
vt 0.08750005 0
vt 0.9125 0
vt 0.9125 1
vt 0.08749999 1
vt 0.525 1
vt 0.5185295 1
vt 0.5185295 0
vt 0.525 0
vt 0.5185295 1
vt 0.5125 1
vt 0.5125 0
vt 0.5185295 0
vt 0.5125 1
vt 0.5 1
vt 0.5 0
vt 0.5125 0
vt 1 1
vt 0.951389 1
vt 0.9513889 0
vt 1 0
vt 0.951389 1
vt 0.9279408 1
vt 0.9279407 0
vt 0.9513889 0
vt 0.9279408 1
vt 0.9027777 1
vt 0.9027778 0
vt 0.9279407 0
vt 0.5625001 0
vt 0.6757334 0
vt 0.6757334 1
vt 0.5625001 1
vt 0.6757334 0
vt 0.7812501 0
vt 0.7812501 1
vt 0.6757334 1
vt 0.7812501 0
vt 1 0
vt 1 1
vt 0.7812501 1
vt 0 0
vt 0 0
vt 0 1
vt 0 1
vt 0 0
vt 0 0
vt 0 1
vt 0 1
vt 0 0
vt 0 0
vt 0 1
vt 0 1
vt 0 0
vt 0.9027778 0
vt 0.9027777 1
vt 0 1
vn 0 1 0
vn 0 1 0
vn 0 1 0
vn 0 1 0
vn 0 1 0
vn 0 1 0
vn 0 1 0
vn 0 1 0
vn 0 1 0
vn 0 1 0
vn 0 1 0
vn 0 1 0
vn 0 1 0
vn 0 1 0
vn 0 1 0
vn 0 1 0
vn 0 1 0
vn 0 1 0
vn 0 1 0
vn 0 1 0
vn 0 1 0
vn 0 1 0
vn 0 1 0
vn 0 1 0
vn 0 1 0
vn 0 1 0
vn 0 1 0
vn 0 1 0
vn 0 1 0
vn 0 1 0
vn 0 1 0
vn 0 -1 0
vn 0 -1 0
vn 0 -1 0
vn 0 -1 0
vn 0 -1 0
vn 0 -1 0
vn 0 -1 0
vn 0 -1 0
vn 0 -1 0
vn 0 -1 0
vn 0 -1 0
vn 0 -1 0
vn 0 -1 0
vn 0 -1 0
vn 0 -1 0
vn 0 -1 0
vn 0 -1 0
vn 0 -1 0
vn 0 -1 0
vn 0 -1 0
vn 0 -1 0
vn 0 -1 0
vn 0 -1 0
vn 0 0 1
vn 0 0 1
vn 0 0 1
vn 0 0 1
vn 0 0 1
vn 0 0 1
vn 0 0 -1
vn 0 0 -1
vn 0 0 -1
vn 0 0 -1
vn 1 0 0
vn 1 0 0
vn 1 0 0
vn 1 0 0
vn 0 0 -1
vn 0 0 -1
vn 0 0 -1
vn 0 0 -1
vn 0 -1 0
vn 0 -1 0
vn 0 -1 0
vn 0 -1 0
vn 0 -1 0
vn 0 -1 0
vn 0 -1 0
vn 0 -1 0
vn 0 -1 0
vn 0 -1 0
vn -0.1305278 0 0.9914446
vn -0.1305278 0 0.9914446
vn -0.1305278 0 0.9914446
vn -0.1305278 0 0.9914446
vn -0.3826838 2.54826E-06 0.9238794
vn -0.3826838 2.54826E-06 0.9238794
vn -0.3826838 2.54826E-06 0.9238794
vn -0.3826838 2.54826E-06 0.9238794
vn -0.6087609 2.548263E-06 0.7933537
vn -0.6087609 2.548263E-06 0.7933537
vn -0.6087609 2.548263E-06 0.7933537
vn -0.6087609 2.548263E-06 0.7933537
vn -0.7933527 0 0.6087622
vn -0.7933527 0 0.6087622
vn -0.7933527 0 0.6087622
vn -0.7933527 0 0.6087622
vn -0.9238801 0 0.3826818
vn -0.9238801 0 0.3826818
vn -0.9238801 0 0.3826818
vn -0.9238801 0 0.3826818
vn -0.9914444 0 0.1305297
vn -0.9914444 0 0.1305297
vn -0.9914444 0 0.1305297
vn -0.9914444 0 0.1305297
vn -0.1305278 0 -0.9914446
vn -0.1305278 0 -0.9914446
vn -0.1305278 0 -0.9914446
vn -0.1305278 0 -0.9914446
vn -0.3826838 -2.548261E-06 -0.9238794
vn -0.3826838 -2.548261E-06 -0.9238794
vn -0.3826838 -2.548261E-06 -0.9238794
vn -0.3826838 -2.548261E-06 -0.9238794
vn -0.6087609 -2.548263E-06 -0.7933538
vn -0.6087609 -2.548263E-06 -0.7933538
vn -0.6087609 -2.548263E-06 -0.7933538
vn -0.6087609 -2.548263E-06 -0.7933538
vn -0.7933527 0 -0.6087622
vn -0.7933527 0 -0.6087622
vn -0.7933527 0 -0.6087622
vn -0.7933527 0 -0.6087622
vn -0.9238801 0 -0.3826818
vn -0.9238801 0 -0.3826818
vn -0.9238801 0 -0.3826818
vn -0.9238801 0 -0.3826818
vn -0.9914444 0 -0.1305297
vn -0.9914444 0 -0.1305297
vn -0.9914444 0 -0.1305297
vn -0.9914444 0 -0.1305297
vn -1 0 0
vn -1 0 0
vn -1 0 0
vn -1 0 0
vn 0.1305278 0 -0.9914446
vn 0.1305278 0 -0.9914446
vn 0.1305278 0 -0.9914446
vn 0.1305278 0 -0.9914446
vn 0.3826838 2.54826E-06 -0.9238794
vn 0.3826838 2.54826E-06 -0.9238794
vn 0.3826838 2.54826E-06 -0.9238794
vn 0.3826838 2.54826E-06 -0.9238794
vn 0.6087609 2.548263E-06 -0.7933537
vn 0.6087609 2.548263E-06 -0.7933537
vn 0.6087609 2.548263E-06 -0.7933537
vn 0.6087609 2.548263E-06 -0.7933537
vn 0.7933527 0 -0.6087622
vn 0.7933527 0 -0.6087622
vn 0.7933527 0 -0.6087622
vn 0.7933527 0 -0.6087622
vn 0.9238801 0 -0.3826818
vn 0.9238801 0 -0.3826818
vn 0.9238801 0 -0.3826818
vn 0.9238801 0 -0.3826818
vn 0.9914444 0 -0.1305297
vn 0.9914444 0 -0.1305297
vn 0.9914444 0 -0.1305297
vn 0.9914444 0 -0.1305297
vn 0.9914452 0 -0.1305234
vn 0.9914452 0 -0.1305234
vn 0.9914452 0 -0.1305234
vn 0.9914452 0 -0.1305234
vn 0.9238801 0 -0.3826818
vn 0.9238801 0 -0.3826818
vn 0.9238801 0 -0.3826818
vn 0.9238801 0 -0.3826818
vn 0.7933532 0 -0.6087616
vn 0.7933532 0 -0.6087616
vn 0.7933532 0 -0.6087616
vn 0.7933532 0 -0.6087616
vn 0.6087601 0 -0.7933544
vn 0.6087601 0 -0.7933544
vn 0.6087601 0 -0.7933544
vn 0.6087601 0 -0.7933544
vn 0.3826832 0 -0.9238796
vn 0.3826832 0 -0.9238796
vn 0.3826832 0 -0.9238796
vn 0.3826832 0 -0.9238796
vn 0.1305257 0 -0.9914449
vn 0.1305257 0 -0.9914449
vn 0.1305257 0 -0.9914449
vn 0.1305257 0 -0.9914449
vn 1 0 0
vn 1 0 0
vn 1 0 0
vn 1 0 0
g PopupBg_0
f 3/3/3 2/2/2 1/1/1
f 1/1/1 4/4/4 3/3/3
f 1/1/1 5/5/5 4/4/4
f 1/1/1 6/6/6 5/5/5
f 1/1/1 7/7/7 6/6/6
f 1/1/1 8/8/8 7/7/7
f 1/1/1 9/9/9 8/8/8
f 1/1/1 10/10/10 9/9/9
f 11/11/11 1/1/1 2/2/2
f 11/11/11 2/2/2 12/12/12
f 13/13/13 11/11/11 12/12/12
f 13/13/13 12/12/12 14/14/14
f 15/15/15 13/13/13 14/14/14
f 15/15/15 14/14/14 16/16/16
f 17/17/17 15/15/15 16/16/16
f 17/17/17 16/16/16 18/18/18
f 19/19/19 17/17/17 18/18/18
f 19/19/19 18/18/18 20/20/20
f 21/21/21 19/19/19 20/20/20
f 21/21/21 20/20/20 22/22/22
f 23/23/23 21/21/21 22/22/22
f 23/23/23 22/22/22 24/24/24
f 24/24/24 25/25/25 23/23/23
f 11/11/11 26/26/26 1/1/1
f 26/26/26 27/27/27 1/1/1
f 27/27/27 28/28/28 1/1/1
f 28/28/28 29/29/29 1/1/1
f 29/29/29 30/30/30 1/1/1
f 30/30/30 31/31/31 1/1/1
f 34/34/34 33/33/33 32/32/32
f 32/32/32 35/35/35 34/34/34
f 32/32/32 36/36/36 35/35/35
f 36/36/36 37/37/37 35/35/35
f 36/36/36 38/38/38 37/37/37
f 38/38/38 39/39/39 37/37/37
f 38/38/38 40/40/40 39/39/39
f 40/40/40 41/41/41 39/39/39
f 40/40/40 42/42/42 41/41/41
f 42/42/42 43/43/43 41/41/41
f 42/42/42 44/44/44 43/43/43
f 44/44/44 45/45/45 43/43/43
f 44/44/44 46/46/46 45/45/45
f 46/46/46 47/47/47 45/45/45
f 46/46/46 48/48/48 47/47/47
f 48/48/48 49/49/49 47/47/47
f 48/48/48 50/50/50 49/49/49
f 48/48/48 51/51/51 50/50/50
f 48/48/48 52/52/52 51/51/51
f 48/48/48 53/53/53 52/52/52
f 48/48/48 54/54/54 53/53/53
f 57/57/57 56/56/56 55/55/55
f 58/58/58 57/57/57 55/55/55
f 59/59/59 56/56/56 57/57/57
f 60/60/60 59/59/59 57/57/57
f 63/63/63 62/62/62 61/61/61
f 64/64/64 63/63/63 61/61/61
f 67/67/67 66/66/66 65/65/65
f 68/68/68 67/67/67 65/65/65
f 71/71/71 70/70/70 69/69/69
f 72/72/72 71/71/71 69/69/69
f 75/75/75 74/74/74 73/73/73
f 73/73/73 76/76/76 75/75/75
f 73/73/73 77/77/77 76/76/76
f 77/77/77 78/78/78 76/76/76
f 78/78/78 79/79/79 76/76/76
f 79/79/79 80/80/80 76/76/76
f 80/80/80 81/81/81 76/76/76
f 81/81/81 82/82/82 76/76/76
f 85/85/85 84/84/84 83/83/83
f 86/86/86 85/85/85 83/83/83
f 89/89/89 88/88/88 87/87/87
f 90/90/90 89/89/89 87/87/87
f 93/93/93 92/92/92 91/91/91
f 94/94/94 93/93/93 91/91/91
f 97/97/97 96/96/96 95/95/95
f 98/98/98 97/97/97 95/95/95
f 101/101/101 100/100/100 99/99/99
f 102/102/102 101/101/101 99/99/99
f 105/105/105 104/104/104 103/103/103
f 106/106/106 105/105/105 103/103/103
f 109/109/109 108/108/108 107/107/107
f 110/110/110 109/109/109 107/107/107
f 113/113/113 112/112/112 111/111/111
f 114/114/114 113/113/113 111/111/111
f 117/117/117 116/116/116 115/115/115
f 118/118/118 117/117/117 115/115/115
f 121/121/121 120/120/120 119/119/119
f 122/122/122 121/121/121 119/119/119
f 125/125/125 124/124/124 123/123/123
f 126/126/126 125/125/125 123/123/123
f 129/129/129 128/128/128 127/127/127
f 130/130/130 129/129/129 127/127/127
f 133/133/133 132/132/132 131/131/131
f 134/134/134 133/133/133 131/131/131
f 137/137/137 136/136/136 135/135/135
f 138/138/138 137/137/137 135/135/135
f 141/141/141 140/140/140 139/139/139
f 142/142/142 141/141/141 139/139/139
f 145/145/145 144/144/144 143/143/143
f 146/146/146 145/145/145 143/143/143
f 149/149/149 148/148/148 147/147/147
f 150/150/150 149/149/149 147/147/147
f 153/153/153 152/152/152 151/151/151
f 154/154/154 153/153/153 151/151/151
f 157/157/157 156/156/156 155/155/155
f 158/158/158 157/157/157 155/155/155
f 161/161/161 160/160/160 159/159/159
f 162/162/162 161/161/161 159/159/159
f 165/165/165 164/164/164 163/163/163
f 166/166/166 165/165/165 163/163/163
f 169/169/169 168/168/168 167/167/167
f 170/170/170 169/169/169 167/167/167
f 173/173/173 172/172/172 171/171/171
f 174/174/174 173/173/173 171/171/171
f 177/177/177 176/176/176 175/175/175
f 178/178/178 177/177/177 175/175/175
f 181/181/181 180/180/180 179/179/179
f 182/182/182 181/181/181 179/179/179
f 185/185/185 184/184/184 183/183/183
f 186/186/186 185/185/185 183/183/183
