g r_A_Highlight
v -0.002806678 0.02262101 0.0007034695
v -0.002805513 0.02262308 0.001399955
v -0.00369545 0.0207052 0.001352649
v -0.003696461 0.02070232 0.0006587979
v -0.001541299 0.02451886 0.0007557776
v -0.001540541 0.02451992 0.001454898
v -0.0041556 0.01881988 0.001308877
v -0.004156083 0.0188158 0.0006150263
v -0.004143944 0.0170081 0.001267478
v -0.004143134 0.01700283 0.0005736272
v 0.001497537 0.02846454 0.0009337444
v 0.001497537 0.02846454 0.001632864
v 0.007361502 0.03607664 0.001725235
v 0.007361457 0.03607658 0.002423249
v 0.01030215 0.03976947 0.00236431
v 0.0100841 0.03950685 0.002976731
v -0.003628008 0.01534167 0.001224865
v -0.003625297 0.01533617 0.0005310143
v -0.002621023 0.01391593 0.001180527
v -0.002617657 0.01391242 0.0004866767
v -0.001190351 0.01280165 0.001148591
v -0.001187908 0.01280019 0.0004547404
v 0.0005861575 0.01201771 0.001121931
v 0.0005876601 0.01201722 0.0004280802
v 0.002650108 0.01155543 0.001102584
v 0.002650734 0.01155534 0.0004087338
v 0.004924971 0.0114038 0.001096294
v 0.004925034 0.0114038 0.0004024431
v 0.02098475 0.01140521 0.001094466
v 0.02148593 0.01137731 0.0003520083
v 0.02078782 0.01130571 -0.00136528
v 0.02148593 0.01137731 0.0003520083
v 0.02098475 0.01140521 0.001094466
v 0.01938596 0.01639472 0.001241312
v 0.01971936 0.01639149 0.0005193936
v 0.01690252 0.0240364 0.001408898
v 0.01714597 0.02403562 0.0006749395
v 0.01547893 0.02816817 0.001603267
v 0.0157274 0.02816298 0.0008616006
v 0.01383217 0.03184836 0.001981348
v 0.01415395 0.03187476 0.001265086
v 0.01238 0.03581455 0.001711064
v 0.01203919 0.03581978 0.00242657
v 0.0100841 0.03950685 0.002976731
v 0.01030215 0.03976947 0.00236431
v 0.01965522 0.01240318 0.001094466
v 0.02098475 0.01140521 0.001094466
v 0.004924971 0.0114038 0.001096294
v 0.004957734 0.01240318 0.001096294
v 0.002650108 0.01155543 0.001102584
v 0.002792398 0.01254517 0.001102584
v 0.01850384 0.01612368 0.001241312
v 0.01938596 0.01639472 0.001241312
v 0.0005861575 0.01201771 0.001121931
v 0.0008983457 0.01296765 0.001121931
v -0.001190351 0.01280165 0.001148591
v -0.0006777858 0.0136602 0.001148591
v -0.002621023 0.01391593 0.001180527
v -0.001897182 0.01460578 0.001180527
v -0.003628008 0.01534167 0.001224865
v -0.002729826 0.01578111 0.001224865
v -0.004143944 0.0170081 0.001267478
v -0.003155209 0.01715724 0.001267478
v -0.0041556 0.01881988 0.001308877
v -0.003162858 0.01870029 0.001308877
v -0.00369545 0.0207052 0.001352649
v -0.002752587 0.02037226 0.001352649
v -0.002805513 0.02262308 0.001399955
v -0.001934495 0.02213199 0.001399955
v -0.001540541 0.02451992 0.001454898
v -0.000728727 0.02393614 0.001454898
v 0.001497537 0.02846454 0.001632864
v 0.002289667 0.02785432 0.001632864
v 0.007361457 0.03607658 0.002423249
v 0.008153949 0.03546683 0.002423249
v 0.0100841 0.03950685 0.002976731
v 0.01002449 0.03789645 0.002783403
v 0.01118847 0.03546706 0.00242657
v 0.01203919 0.03581978 0.00242657
v 0.01383217 0.03184836 0.001981348
v 0.01297517 0.03151127 0.001981348
v 0.01547893 0.02816817 0.001603267
v 0.01459704 0.02784959 0.001603267
v 0.01690252 0.0240364 0.001408898
v 0.01601049 0.02374617 0.001408898
v 0.01002449 0.03789645 0.002783403
v 0.0100841 0.03950685 0.002976731
v 0.01714597 0.02403562 0.0006749395
v 0.0157274 0.02816298 0.0008616006
v 0.0157274 0.02816298 -0.0003386186
v 0.01714597 0.02403562 -0.0005252796
v 0.01971936 0.01639149 0.0005193936
v 0.01966566 0.01637359 -0.0006808256
v 0.02148593 0.01137731 0.0003520083
v 0.02078782 0.01130571 -0.00136528
v 0.01415395 0.03187476 6.486646E-05
v 0.01415395 0.03187476 0.001265086
v 0.01238 0.03581455 0.0005108448
v 0.01238 0.03581455 0.001711064
v 0.01030215 0.03976947 0.001164091
v 0.01030215 0.03976947 0.00236431
v 0.01030215 0.03976947 0.001164091
vt 1.097549 0.3730274
vt 1.094099 0.3801321
vt 1.143688 0.4906398
vt 1.147135 0.4836205
vt 1.026816 0.2596498
vt 1.022614 0.2655065
vt 1.168863 0.5951395
vt 1.172507 0.5894887
vt 1.168693 0.6909024
vt 1.17196 0.6879131
vt 0.8495978 0.01959255
vt 0.8414007 0.01962511
vt 0.4857608 -0.4296555
vt 0.4689301 -0.4405591
vt 0.3530079 -0.5415686
vt 0.354085 -0.5443703
vt 1.142864 0.7753837
vt 1.144635 0.775678
vt 1.091371 0.8468325
vt 1.090934 0.8497653
vt 1.015663 0.903724
vt 1.013222 0.9080132
vt 0.918018 0.9453179
vt 0.9144999 0.9499907
vt 0.8009011 0.9709716
vt 0.7975199 0.9755459
vt 0.6662566 0.9813942
vt 0.6644486 0.9859707
vt -0.1373016 0.9823662
vt -0.141622 0.9839928
vt -0.141622 0.9839928
vt -0.141622 0.9839928
vt -0.1373016 0.9823662
vt -0.1355969 0.7622579
vt -0.1459894 0.7573516
vt -0.02142286 0.2841627
vt -0.0301882 0.2867418
vt 0.06010428 0.03197939
vt 0.04947007 0.03979045
vt 0.15843 -0.194464
vt 0.1426369 -0.1816132
vt 0.2515621 -0.4137082
vt 0.2698219 -0.4323719
vt 0.354085 -0.5443703
vt 0.3530079 -0.5415686
vt -0.1373016 0.9823662
vt -0.1373016 0.9823662
vt 0.6662566 0.9813942
vt 0.6662566 0.9813942
vt 0.8009011 0.9709716
vt 0.8009011 0.9709716
vt -0.1355969 0.7622579
vt -0.1355969 0.7622579
vt 0.918018 0.9453179
vt 0.918018 0.9453179
vt 1.015663 0.903724
vt 1.015663 0.903724
vt 1.091371 0.8468325
vt 1.091371 0.8468325
vt 1.142864 0.7753837
vt 1.142864 0.7753837
vt 1.168693 0.6909024
vt 1.168693 0.6909024
vt 1.168863 0.5951395
vt 1.168863 0.5951395
vt 1.143688 0.4906398
vt 1.143688 0.4906398
vt 1.094099 0.3801321
vt 1.094099 0.3801321
vt 1.022614 0.2655065
vt 1.022614 0.2655065
vt 0.8414007 0.01962511
vt 0.8414007 0.01962511
vt 0.4689301 -0.4405591
vt 0.4689301 -0.4405591
vt 0.354085 -0.5443703
vt 0.354085 -0.5443703
vt 0.2698219 -0.4323719
vt 0.2698219 -0.4323719
vt 0.15843 -0.1944639
vt 0.15843 -0.1944639
vt 0.06010425 0.03197942
vt 0.06010425 0.03197942
vt -0.02142286 0.2841626
vt -0.02142286 0.2841626
vt 0.354085 -0.5443703
vt 0.354085 -0.5443703
vt -0.0301882 0.2867418
vt 0.04947007 0.03979045
vt 0.04947007 0.03979045
vt -0.0301882 0.2867418
vt -0.1459894 0.7573516
vt -0.1459894 0.7573516
vt -0.141622 0.9839928
vt -0.141622 0.9839928
vt 0.1426369 -0.1816132
vt 0.1426369 -0.1816132
vt 0.2515621 -0.4137082
vt 0.2515621 -0.4137082
vt 0.3530079 -0.5415686
vt 0.3530079 -0.5415686
vt 0.3530079 -0.5415686
vn -0.8727573 0.4881545 -6.103839E-05
vn -0.871507 0.4903829 -6.103845E-05
vn -0.9432745 0.3320138 -9.155634E-05
vn -0.9443749 0.328871 -9.15565E-05
vn -0.8129945 0.5822712 -6.103791E-05
vn -0.8122047 0.5833725 -6.103819E-05
vn -0.9929934 0.1181692 -0.0001525945
vn -0.993517 0.1136834 -0.0001525952
vn -0.988649 -0.1502429 -0.0001525929
vn -0.9877501 -0.1560441 -0.0001525954
vn -0.7922211 0.6102342 0
vn -0.7922211 0.6102342 0
vn -0.7872156 0.6166736 -0.00228895
vn -0.7869586 0.6169992 -0.002838251
vn -0.7822997 0.6228977 -0.00241102
vn -0.7823056 0.6228719 -0.005340907
vn -0.8984014 -0.4391751 0
vn -0.8953956 -0.4452716 0
vn -0.7250177 -0.6887302 0.0002136354
vn -0.7213202 -0.6926017 0.0002136341
vn -0.5141277 -0.8577137 0.0001831157
vn -0.5114361 -0.8593214 0.0001831135
vn -0.3133422 -0.9496402 9.155806E-05
vn -0.3117196 -0.9501742 9.155658E-05
vn -0.143254 -0.989686 3.051855E-05
vn -0.1425834 -0.9897828 3.051871E-05
vn -0.03366286 -0.9993873 0.009583082
vn -0.03250302 -0.9994146 0.01068174
vn -0.0007324665 -0.9998167 0.01913569
vn -0.001129198 -0.9994926 0.03183117
vn -0.001464921 -0.9991065 0.04223854
vn 0.8395538 0.2675927 0.4728041
vn 0.8395538 0.2675927 0.4728041
vn 0.8696111 0.2789751 0.4073689
vn 0.864395 0.2769921 0.4196388
vn 0.8993438 0.2931077 0.3244511
vn 0.898058 0.2922213 0.3287834
vn 0.8880564 0.3236593 0.3264976
vn 0.8920392 0.3181603 0.3209986
vn 0.8611822 0.3411707 0.3767863
vn 0.8642385 0.3418134 0.3691279
vn 0.8425709 0.3518545 0.4077655
vn 0.8379301 0.3580491 0.4119152
vn 0.8281189 0.3708132 0.420377
vn 0.8281189 0.3708132 0.420377
vn 9.155553E-05 6.103702E-05 1
vn 9.155553E-05 6.103702E-05 1
vn 0.001464932 -6.103882E-05 0.9999989
vn 0.001464932 -6.103882E-05 0.9999989
vn 0.006042735 -0.001190236 0.999981
vn 0.006042735 -0.001190236 0.999981
vn -0.002960329 -0.02868772 0.999584
vn -0.003112911 -0.02880968 0.9995801
vn 0.01126155 -0.004089561 0.9999282
vn 0.01126155 -0.004089561 0.9999282
vn 0.01403871 -0.008942049 0.9998615
vn 0.01403871 -0.008942049 0.9998615
vn 0.01538142 -0.01733462 0.9997314
vn 0.01538142 -0.01733462 0.9997314
vn 0.01190226 -0.02417074 0.999637
vn 0.01193277 -0.02417073 0.9996367
vn 0.004150569 -0.02508653 0.9996767
vn 0.004150569 -0.02508653 0.9996767
vn -0.002533074 -0.02395739 0.9997098
vn -0.002502555 -0.02395739 0.9997098
vn -0.007538292 -0.02224864 0.999724
vn -0.007538292 -0.02224864 0.999724
vn -0.01144466 -0.02099714 0.999714
vn -0.01144466 -0.02099714 0.999714
vn -0.01733452 -0.02478104 0.9995426
vn -0.01733453 -0.02475054 0.9995434
vn -0.03570677 -0.04684607 0.9982638
vn -0.03570677 -0.04684607 0.9982638
vn -0.05563612 -0.08569733 0.9947666
vn -0.05566597 -0.08581838 0.9947546
vn -0.06131202 -0.1066323 0.9924064
vn -0.06131202 -0.1066323 0.9924064
vn 0.04458875 -0.108191 0.9931297
vn 0.04419177 -0.1072749 0.9932468
vn 0.03555421 -0.09103708 0.9952127
vn 0.03570709 -0.09122095 0.9951903
vn 0.02359119 -0.06454769 0.9976357
vn 0.02392688 -0.06537167 0.997574
vn 0.01034594 -0.03097678 0.9994666
vn 0.01040693 -0.03109872 0.9994622
vn 0.05069169 -0.121129 0.9913415
vn 0.05069169 -0.121129 0.9913415
vn 0.9471235 0.320662 -0.01153614
vn 0.9332102 0.3593308 0
vn 0.9343441 0.3563722 0
vn 0.9471802 0.3204775 -0.01199387
vn 0.9433508 0.3033006 -0.134529
vn 0.9426185 0.302324 -0.1416705
vn 0.9257265 0.2861137 -0.2473243
vn 0.9257265 0.2861137 -0.2473243
vn 0.9166036 0.3997972 0
vn 0.9160403 0.4010862 0
vn 0.9000198 0.4358489 0
vn 0.8979273 0.4401437 0
vn 0.8852682 0.4650809 0
vn 0.8852682 0.4650809 0
vn -0.7822751 0.622933 0
g r_A_Highlight_0
f 3/3/3 2/2/2 1/1/1
f 4/4/4 3/3/3 1/1/1
f 1/1/1 2/2/2 5/5/5
f 2/2/2 6/6/6 5/5/5
f 7/7/7 3/3/3 4/4/4
f 8/8/8 7/7/7 4/4/4
f 9/9/9 7/7/7 8/8/8
f 10/10/10 9/9/9 8/8/8
f 5/5/5 6/6/6 11/11/11
f 6/6/6 12/12/12 11/11/11
f 11/11/11 12/12/12 13/13/13
f 12/12/12 14/14/14 13/13/13
f 13/13/13 14/14/14 15/15/15
f 14/14/14 16/16/16 15/15/15
f 17/17/17 9/9/9 10/10/10
f 18/18/18 17/17/17 10/10/10
f 19/19/19 17/17/17 18/18/18
f 20/20/20 19/19/19 18/18/18
f 21/21/21 19/19/19 20/20/20
f 22/22/22 21/21/21 20/20/20
f 23/23/23 21/21/21 22/22/22
f 24/24/24 23/23/23 22/22/22
f 25/25/25 23/23/23 24/24/24
f 26/26/26 25/25/25 24/24/24
f 27/27/27 25/25/25 26/26/26
f 28/28/28 27/27/27 26/26/26
f 29/29/29 27/27/27 28/28/28
f 30/30/30 29/29/29 28/28/28
f 31/31/31 30/30/30 28/28/28
f 34/34/34 33/33/33 32/32/32
f 35/35/35 34/34/34 32/32/32
f 36/36/36 34/34/34 35/35/35
f 37/37/37 36/36/36 35/35/35
f 38/38/38 36/36/36 37/37/37
f 39/39/39 38/38/38 37/37/37
f 40/40/40 38/38/38 39/39/39
f 41/41/41 40/40/40 39/39/39
f 41/41/41 42/42/42 40/40/40
f 42/42/42 43/43/43 40/40/40
f 44/44/44 43/43/43 42/42/42
f 45/45/45 44/44/44 42/42/42
f 48/48/48 47/47/47 46/46/46
f 49/49/49 48/48/48 46/46/46
f 50/50/50 48/48/48 49/49/49
f 51/51/51 50/50/50 49/49/49
f 46/46/46 47/47/47 52/52/52
f 47/47/47 53/53/53 52/52/52
f 54/54/54 50/50/50 51/51/51
f 55/55/55 54/54/54 51/51/51
f 56/56/56 54/54/54 55/55/55
f 57/57/57 56/56/56 55/55/55
f 58/58/58 56/56/56 57/57/57
f 59/59/59 58/58/58 57/57/57
f 60/60/60 58/58/58 59/59/59
f 61/61/61 60/60/60 59/59/59
f 62/62/62 60/60/60 61/61/61
f 63/63/63 62/62/62 61/61/61
f 64/64/64 62/62/62 63/63/63
f 65/65/65 64/64/64 63/63/63
f 66/66/66 64/64/64 65/65/65
f 67/67/67 66/66/66 65/65/65
f 68/68/68 66/66/66 67/67/67
f 69/69/69 68/68/68 67/67/67
f 70/70/70 68/68/68 69/69/69
f 71/71/71 70/70/70 69/69/69
f 72/72/72 70/70/70 71/71/71
f 73/73/73 72/72/72 71/71/71
f 74/74/74 72/72/72 73/73/73
f 75/75/75 74/74/74 73/73/73
f 76/76/76 74/74/74 75/75/75
f 77/77/77 76/76/76 75/75/75
f 80/80/80 79/79/79 78/78/78
f 81/81/81 80/80/80 78/78/78
f 82/82/82 80/80/80 81/81/81
f 83/83/83 82/82/82 81/81/81
f 84/84/84 82/82/82 83/83/83
f 85/85/85 84/84/84 83/83/83
f 78/78/78 79/79/79 86/86/86
f 79/79/79 87/87/87 86/86/86
f 53/53/53 84/84/84 85/85/85
f 52/52/52 53/53/53 85/85/85
f 90/90/90 89/89/89 88/88/88
f 91/91/91 90/90/90 88/88/88
f 91/91/91 88/88/88 92/92/92
f 93/93/93 91/91/91 92/92/92
f 93/93/93 92/92/92 94/94/94
f 95/95/95 93/93/93 94/94/94
f 90/90/90 96/96/96 89/89/89
f 96/96/96 97/97/97 89/89/89
f 96/96/96 98/98/98 97/97/97
f 98/98/98 99/99/99 97/97/97
f 98/98/98 100/100/100 99/99/99
f 100/100/100 101/101/101 99/99/99
f 15/15/15 102/102/102 13/13/13
