g R_button_C
v 0.000504 0.000994 0.056649
v 0.000435 0.000685 0.055914
v 0.000595 0.000838 0.055808
v 0.000653 0.00113 0.056515
v 0.000724 0.001297 0.057356
v 0.000861 0.001417 0.057194
v 0.001092 0.001587 0.058006
v 0.001213 0.001693 0.057823
v 0.001591 0.001851 0.058574
v 0.001689 0.001943 0.058373
v 0.002201 0.002078 0.059042
v 0.002274 0.002153 0.058824
v 0.002903 0.002254 0.059387
v 0.002948 0.002326 0.059158
v 0.003664 0.002381 0.059597
v 0.00368 0.002448 0.059367
v 0.004458 0.00245 0.059667
v 0.004448 0.002514 0.059436
v 0.005255 0.002461 0.059594
v 0.005212 0.002522 0.059359
v 0.006021 0.002409 0.059371
v 0.005958 0.002473 0.059149
v 0.006736 0.002297 0.05902
v 0.006636 0.002365 0.058812
v 0.007356 0.002131 0.058547
v 0.007233 0.002209 0.058354
v 0.007874 0.001918 0.057973
v 0.007735 0.002006 0.057801
v 0.008268 0.001666 0.057319
v 0.008106 0.001764 0.057166
v 0.008508 0.00138 0.056611
v 0.008332 0.001495 0.056485
v 0.008594 0.001077 0.055875
v 0.008422 0.001209 0.055776
v 0.008525 0.000768 0.05514
v 0.008351 0.000915 0.055067
v 0.008305 0.000465 0.054434
v 0.00813 0.000625 0.05439
v 0.007941 0.000175 0.053786
v 0.007783 0.000353 0.053766
v 0.007447 -8.5E-05 0.053212
v 0.007301 0.000106 0.053224
v 0.006831 -0.000312 0.052747
v 0.006708 -0.000107 0.052782
v 0.006132 -0.000491 0.052403
v 0.006038 -0.000272 0.052453
v 0.005367 -0.000614 0.05219
v 0.005315 -0.00039 0.052253
v 0.004576 -0.000681 0.052121
v 0.004557 -0.000454 0.052188
v 0.003777 -0.000689 0.052196
v 0.003796 -0.000463 0.05226
v 0.003796 -0.000463 0.05226
v 0.003065 -0.000412 0.052469
v 0.003009 -0.000638 0.052416
v 0.003777 -0.000689 0.052196
v 0.002295 -0.000528 0.052766
v 0.002387 -0.000308 0.052805
v 0.001668 -0.000364 0.053239
v 0.001788 -0.000153 0.053253
v 0.001154 -0.00015 0.053813
v 0.001296 4.7E-05 0.053802
v 0.000767 0.000102 0.054467
v 0.00092 0.000284 0.054426
v 0.000524 0.000386 0.055178
v 0.000686 0.000552 0.055102
v 0.000879 -0.002059 0.058881
v 0.000504 0.000994 0.056649
v 0.000724 0.001297 0.057356
v 0.001084 -0.001595 0.059486
v 0.001092 0.001587 0.058006
v 0.001435 -0.001156 0.06004
v 0.001591 0.001851 0.058574
v 0.001918 -0.000756 0.06052
v 0.002201 0.002078 0.059042
v 0.002514 -0.000413 0.060908
v 0.002903 0.002254 0.059387
v 0.003193 -0.000137 0.06119
v 0.003664 0.002381 0.059597
v 0.003941 5.9E-05 0.061355
v 0.004458 0.00245 0.059667
v 0.004722 0.000169 0.061396
v 0.005255 0.002461 0.059594
v 0.005504 0.000187 0.061311
v 0.006021 0.002409 0.059371
v 0.006259 0.000114 0.061109
v 0.006736 0.002297 0.05902
v 0.006964 -4.9E-05 0.060788
v 0.007356 0.002131 0.058547
v 0.007587 -0.000291 0.060369
v 0.007874 0.001918 0.057973
v 0.008106 -0.00061 0.059863
v 0.008268 0.001666 0.057319
v 0.008492 -0.000988 0.05929
v 0.008508 0.00138 0.056611
v 0.008741 -0.001413 0.058674
v 0.008594 0.001077 0.055875
v 0.008837 -0.001868 0.058037
v 0.008525 0.000768 0.05514
v 0.008786 -0.002337 0.057405
v 0.008305 0.000465 0.054434
v 0.008578 -0.002798 0.056799
v 0.007941 0.000175 0.053786
v 0.008218 -0.003238 0.05625
v 0.007447 -8.5E-05 0.053212
v 0.007739 -0.003636 0.05577
v 0.006831 -0.000312 0.052747
v 0.00714 -0.003981 0.055382
v 0.006132 -0.000491 0.052403
v 0.00646 -0.004257 0.055099
v 0.005367 -0.000614 0.05219
v 0.005716 -0.004453 0.054935
v 0.004576 -0.000681 0.052121
v 0.004934 -0.004563 0.054894
v 0.003777 -0.000689 0.052196
v 0.004152 -0.004581 0.054978
v 0.004152 -0.004581 0.054978
v 0.003777 -0.000689 0.052196
v 0.003009 -0.000638 0.052416
v 0.003394 -0.00451 0.05518
v 0.002295 -0.000528 0.052766
v 0.002692 -0.004347 0.0555
v 0.001668 -0.000364 0.053239
v 0.002068 -0.004101 0.05592
v 0.001154 -0.00015 0.053813
v 0.001553 -0.003785 0.056427
v 0.000767 0.000102 0.054467
v 0.001164 -0.003405 0.056998
v 0.000524 0.000386 0.055178
v 0.000918 -0.00298 0.057613
v 0.000435 0.000685 0.055914
v 0.000819 -0.002526 0.058251
v 0.008351 0.000915 0.055067
v 0.008422 0.001209 0.055776
v 0.008332 0.001495 0.056485
v 0.00813 0.000625 0.05439
v 0.008106 0.001764 0.057166
v 0.007783 0.000353 0.053766
v 0.007735 0.002006 0.057801
v 0.007301 0.000106 0.053224
v 0.007233 0.002209 0.058354
v 0.006708 -0.000107 0.052782
v 0.006636 0.002365 0.058812
v 0.006038 -0.000272 0.052453
v 0.005958 0.002473 0.059149
v 0.005315 -0.00039 0.052253
v 0.005212 0.002522 0.059359
v 0.004557 -0.000454 0.052188
v 0.004448 0.002514 0.059436
v 0.003796 -0.000463 0.05226
v 0.00368 0.002448 0.059367
v 0.003065 -0.000412 0.052469
v 0.002948 0.002326 0.059158
v 0.002387 -0.000308 0.052805
v 0.002274 0.002153 0.058824
v 0.001788 -0.000153 0.053253
v 0.001689 0.001943 0.058373
v 0.001296 4.7E-05 0.053802
v 0.001213 0.001693 0.057823
v 0.00092 0.000284 0.054426
v 0.000861 0.001417 0.057194
v 0.000686 0.000552 0.055102
v 0.000653 0.00113 0.056515
v 0.000595 0.000838 0.055808
vt 0.927541 0.026233
vt 0.924982 0.027036
vt 0.925084 0.027859
vt 0.92764 0.027058
vt 0.9301 0.025444
vt 0.930197 0.026269
vt 0.93267 0.024691
vt 0.93276 0.025514
vt 0.935258 0.023999
vt 0.935339 0.024821
vt 0.937868 0.023396
vt 0.937935 0.024216
vt 0.940501 0.0229
vt 0.940553 0.023718
vt 0.943154 0.022533
vt 0.943191 0.023349
vt 0.945825 0.022308
vt 0.945845 0.023121
vt 0.948505 0.022232
vt 0.948506 0.023049
vt 0.951185 0.022315
vt 0.95117 0.023126
vt 0.953856 0.022545
vt 0.953823 0.023357
vt 0.95651 0.022914
vt 0.956461 0.023727
vt 0.959144 0.023408
vt 0.959081 0.024221
vt 0.961755 0.024005
vt 0.961681 0.024818
vt 0.964347 0.024675
vt 0.964266 0.025489
vt 0.966924 0.025406
vt 0.966838 0.026219
vt 0.969495 0.026165
vt 0.969405 0.026981
vt 0.972064 0.026931
vt 0.971973 0.027745
vt 0.974639 0.027677
vt 0.974549 0.02849
vt 0.977229 0.028383
vt 0.977141 0.029193
vt 0.979834 0.029026
vt 0.979749 0.029836
vt 0.982459 0.029595
vt 0.982376 0.030402
vt 0.985104 0.030081
vt 0.985015 0.030884
vt 0.987766 0.030486
vt 0.987658 0.031283
vt 0.990446 0.030855
vt 0.990251 0.031655
vt 0.906897 0.032166
vt 0.909482 0.03173
vt 0.909362 0.030932
vt 0.906693 0.03137
vt 0.912013 0.030459
vt 0.912113 0.031266
vt 0.914646 0.029912
vt 0.914742 0.030722
vt 0.917257 0.029283
vt 0.917355 0.030097
vt 0.919847 0.028585
vt 0.919948 0.029403
vt 0.922421 0.027831
vt 0.922524 0.028652
vt 0.926765 0.013361
vt 0.927541 0.026233
vt 0.9301 0.025444
vt 0.929478 0.0132
vt 0.93267 0.024691
vt 0.93219 0.013049
vt 0.935258 0.023999
vt 0.934904 0.01291
vt 0.937868 0.023396
vt 0.937619 0.012784
vt 0.940501 0.0229
vt 0.940334 0.012681
vt 0.943154 0.022533
vt 0.943049 0.0126
vt 0.945825 0.022308
vt 0.945764 0.012548
vt 0.948505 0.022232
vt 0.94848 0.012524
vt 0.951185 0.022315
vt 0.951194 0.01252
vt 0.953856 0.022545
vt 0.95391 0.012545
vt 0.95651 0.022914
vt 0.956626 0.012596
vt 0.959144 0.023408
vt 0.959341 0.01267
vt 0.961755 0.024005
vt 0.962056 0.012761
vt 0.964347 0.024675
vt 0.964771 0.012868
vt 0.966924 0.025406
vt 0.967485 0.012984
vt 0.969495 0.026165
vt 0.970198 0.01311
vt 0.972064 0.026931
vt 0.97291 0.013244
vt 0.974639 0.027677
vt 0.975621 0.013388
vt 0.977229 0.028383
vt 0.978327 0.013538
vt 0.979834 0.029026
vt 0.981033 0.013703
vt 0.982459 0.029595
vt 0.983737 0.013882
vt 0.985104 0.030081
vt 0.986434 0.014077
vt 0.987766 0.030486
vt 0.98913 0.014289
vt 0.990446 0.030855
vt 0.991813 0.014518
vt 0.905167 0.015045
vt 0.906693 0.03137
vt 0.909362 0.030932
vt 0.907847 0.014783
vt 0.912013 0.030459
vt 0.910539 0.014537
vt 0.914646 0.029912
vt 0.913236 0.014308
vt 0.917257 0.029283
vt 0.915937 0.014095
vt 0.919847 0.028585
vt 0.918641 0.013897
vt 0.922421 0.027831
vt 0.921347 0.013709
vt 0.924982 0.027036
vt 0.924056 0.01353
vt 0.923832 0.855238
vt 0.922413 0.848058
vt 0.919613 0.841289
vt 0.923821 0.862548
vt 0.915528 0.835203
vt 0.922387 0.869708
vt 0.910342 0.830016
vt 0.919587 0.876445
vt 0.904237 0.825943
vt 0.915536 0.882501
vt 0.897448 0.823142
vt 0.910389 0.887651
vt 0.890236 0.821728
vt 0.904343 0.8917
vt 0.882887 0.821757
vt 0.89763 0.894499
vt 0.875689 0.823227
vt 0.890503 0.89594
vt 0.868919 0.82608
vt 0.883233 0.895971
vt 0.862841 0.830199
vt 0.876095 0.894588
vt 0.857692 0.835428
vt 0.869359 0.891846
vt 0.853668 0.841559
vt 0.863281 0.887845
vt 0.850923 0.848352
vt 0.858094 0.882736
vt 0.84956 0.855544
vt 0.853995 0.876712
vt 0.849628 0.862855
vt 0.851123 0.870006
vn -0.726521 0.674064 -0.133435
vn -0.750679 0.608928 -0.256296
vn -0.7512819 0.6019099 -0.270703
vn -0.7309119 0.6664959 -0.146803
vn -0.6715269 0.7406088 -0.02345599
vn -0.6791658 0.7331477 -0.03504699
vn -0.5956821 0.8002921 0.06852201
vn -0.6042992 0.7945172 0.05970702
vn -0.4989048 0.8552837 0.139942
vn -0.5087561 0.8503432 0.134475
vn -0.3891261 0.9008023 0.1927071
vn -0.3985819 0.8975068 0.1887169
vn -0.280335 0.9304451 0.235975
vn -0.2875091 0.9289383 0.2332641
vn -0.165305 0.9503621 0.263602
vn -0.170828 0.949582 0.262891
vn -0.04555698 0.9633576 0.2643229
vn -0.04761401 0.9631961 0.264549
vn 0.07244 0.9667009 0.245442
vn 0.07256203 0.9666983 0.2454161
vn 0.1870019 0.9580807 0.2170519
vn 0.1914969 0.9574856 0.2157549
vn 0.299577 0.9384441 0.171978
vn 0.30312 0.937651 0.170085
vn 0.400707 0.909098 0.113907
vn 0.4061078 0.9071135 0.1105519
vn 0.4909518 0.8702567 0.04024199
vn 0.4968909 0.8671548 0.03379199
vn 0.5647802 0.8232554 -0.05721902
vn 0.570596 0.8184961 -0.06696402
vn 0.625223 0.7636781 -0.16091
vn 0.630505 0.757288 -0.17023
vn 0.6711364 0.6907713 -0.2690932
vn 0.6746152 0.6822702 -0.2817831
vn 0.6807881 0.6180551 -0.3931101
vn 0.678584 0.6111351 -0.4074771
vn 0.6536582 0.5538262 -0.5157592
vn 0.6494737 0.5460657 -0.5291467
vn 0.6018481 0.4866781 -0.6331851
vn 0.5944198 0.4797878 -0.6453438
vn 0.5133438 0.4287059 -0.7434307
vn 0.5025489 0.4239199 -0.7534829
vn 0.4019721 0.378121 -0.8339322
vn 0.392635 0.373778 -0.840314
vn 0.2804761 0.3307191 -0.9010872
vn 0.2707418 0.3276418 -0.9051794
vn 0.137009 0.2983991 -0.9445563
vn 0.13155 0.297657 -0.9455659
vn -0.015578 0.2829209 -0.9590167
vn -0.01925401 0.2826852 -0.9590195
vn -0.1702489 0.2800389 -0.9447717
vn -0.170028 0.2800331 -0.9448132
vn -0.170028 0.2800331 -0.9448132
vn -0.3138691 0.2946011 -0.9026053
vn -0.3175241 0.2952881 -0.9011012
vn -0.1702489 0.2800389 -0.9447717
vn -0.448004 0.328876 -0.831344
vn -0.4415578 0.3267668 -0.8356136
vn -0.5608262 0.3736381 -0.7388293
vn -0.553533 0.370214 -0.746018
vn -0.6486298 0.4254158 -0.6311108
vn -0.642308 0.420778 -0.640614
vn -0.710325 0.483607 -0.511432
vn -0.7055771 0.4779031 -0.5232301
vn -0.7445748 0.5464429 -0.3834169
vn -0.7422572 0.5393182 -0.3977312
vn -0.9816998 0.01870699 0.189514
vn -0.9840471 0.009857001 0.177635
vn -0.9360085 0.1258779 0.3286988
vn -0.9304191 0.13537 0.340581
vn -0.8495938 0.241382 0.4689619
vn -0.8414959 0.249962 0.478961
vn -0.730348 0.347124 0.5883
vn -0.7204719 0.354358 0.596113
vn -0.5819 0.440063 0.683913
vn -0.5714331 0.445548 0.6891671
vn -0.4102769 0.5161927 0.7518097
vn -0.4011441 0.5195092 0.7544492
vn -0.2250091 0.5705382 0.7898462
vn -0.2181549 0.5720577 0.7906696
vn -0.03167801 0.6008441 0.7987382
vn -0.02802601 0.601172 0.7986281
vn 0.165772 0.606264 0.777794
vn 0.1656441 0.6062692 0.7778172
vn 0.356062 0.5864431 0.727533
vn 0.3525692 0.5870503 0.7287434
vn 0.5308291 0.5428131 0.650826
vn 0.5246842 0.5448301 0.6541152
vn 0.686162 0.477403 0.548879
vn 0.678923 0.4811679 0.5545639
vn 0.815491 0.391953 0.425849
vn 0.8082556 0.3978628 0.4340828
vn 0.9145508 0.2887399 0.2832419
vn 0.9087471 0.296429 0.293783
vn 0.9760509 0.175957 0.127921
vn 0.9728458 0.18452 0.139726
vn 0.9976841 0.06076001 -0.030573
vn 0.9974111 0.069449 -0.018658
vn 0.9803672 -0.05570701 -0.189148
vn 0.9830133 -0.04701902 -0.1774091
vn 0.9234183 -0.171979 -0.3431061
vn 0.9286287 -0.164039 -0.3327759
vn 0.8338636 -0.2765698 -0.4776828
vn 0.8400887 -0.2706259 -0.4701198
vn 0.7103711 -0.371758 -0.597636
vn 0.717948 -0.366879 -0.591566
vn 0.5617318 -0.4507008 -0.6937767
vn 0.568251 -0.447804 -0.690335
vn 0.3935299 -0.5123388 -0.7633107
vn 0.3993329 -0.5105909 -0.7614658
vn 0.210895 -0.5559599 -0.8040099
vn 0.214982 -0.5552109 -0.8034448
vn 0.022297 -0.579971 -0.814332
vn 0.02395898 -0.5798477 -0.8143725
vn -0.166302 -0.5838439 -0.7946508
vn -0.166911 -0.5838239 -0.7945379
vn -0.166911 -0.5838239 -0.7945379
vn -0.166302 -0.5838439 -0.7946508
vn -0.349016 -0.567733 -0.745565
vn -0.3517579 -0.5673308 -0.7445818
vn -0.5199971 -0.5321491 -0.6681471
vn -0.52426 -0.530963 -0.665755
vn -0.67322 -0.477197 -0.564852
vn -0.6787059 -0.474685 -0.5603859
vn -0.8018532 -0.4043601 -0.4399141
vn -0.8073938 -0.4004079 -0.4333459
vn -0.900665 -0.316506 -0.297702
vn -0.9055121 -0.310868 -0.2888061
vn -0.965847 -0.215986 -0.143142
vn -0.9688976 -0.2089369 -0.1325999
vn -0.9942187 -0.105957 0.01738299
vn -0.9948121 -0.09731901 0.029631
vn -0.05210099 0.9240219 -0.3787729
vn -0.05210099 0.9240219 -0.3787729
vn -0.04235797 0.9240964 -0.3798048
vn -0.04235498 0.9240965 -0.3798048
vn -0.04605699 0.9241108 -0.3793389
vn -0.04605799 0.9241108 -0.3793389
vn -0.046534 0.924038 -0.379458
vn -0.046534 0.924038 -0.379458
vn -0.04606801 0.924086 -0.379398
vn -0.04606801 0.924086 -0.379398
vn -0.044305 0.9241549 -0.37944
vn -0.04430699 0.9241548 -0.3794399
vn -0.04522101 0.9241332 -0.3793851
vn -0.04522201 0.9241332 -0.3793851
vn -0.04637602 0.9241223 -0.3792721
vn -0.04637602 0.9241223 -0.3792721
vn -0.04578901 0.9241621 -0.3792461
vn -0.04579001 0.9241621 -0.3792461
vn -0.04521102 0.9242014 -0.3792202
vn -0.04521201 0.9242013 -0.3792201
vn -0.04627001 0.924235 -0.37901
vn -0.04627102 0.9242354 -0.3790092
vn -0.046411 0.9242911 -0.378856
vn -0.046415 0.924291 -0.378856
vn -0.043238 0.924265 -0.379295
vn -0.04324 0.9242649 -0.3792949
vn -0.04714099 0.9240918 -0.3792519
vn -0.04714299 0.9240917 -0.3792519
vn -0.04333 0.9243211 -0.379148
vn -0.043332 0.9243209 -0.379148
vn -0.03629899 0.9246128 -0.3791749
vn -0.03629899 0.9246128 -0.3791749
g R_button_C_0
f 3/3/3 2/2/2 1/1/1
f 4/4/4 3/3/3 1/1/1
f 1/1/1 5/5/5 4/4/4
f 5/5/5 6/6/6 4/4/4
f 5/5/5 7/7/7 6/6/6
f 7/7/7 8/8/8 6/6/6
f 7/7/7 9/9/9 8/8/8
f 9/9/9 10/10/10 8/8/8
f 9/9/9 11/11/11 10/10/10
f 11/11/11 12/12/12 10/10/10
f 11/11/11 13/13/13 12/12/12
f 13/13/13 14/14/14 12/12/12
f 13/13/13 15/15/15 14/14/14
f 15/15/15 16/16/16 14/14/14
f 15/15/15 17/17/17 16/16/16
f 17/17/17 18/18/18 16/16/16
f 17/17/17 19/19/19 18/18/18
f 19/19/19 20/20/20 18/18/18
f 19/19/19 21/21/21 20/20/20
f 21/21/21 22/22/22 20/20/20
f 21/21/21 23/23/23 22/22/22
f 23/23/23 24/24/24 22/22/22
f 23/23/23 25/25/25 24/24/24
f 25/25/25 26/26/26 24/24/24
f 25/25/25 27/27/27 26/26/26
f 27/27/27 28/28/28 26/26/26
f 27/27/27 29/29/29 28/28/28
f 29/29/29 30/30/30 28/28/28
f 29/29/29 31/31/31 30/30/30
f 31/31/31 32/32/32 30/30/30
f 31/31/31 33/33/33 32/32/32
f 33/33/33 34/34/34 32/32/32
f 33/33/33 35/35/35 34/34/34
f 35/35/35 36/36/36 34/34/34
f 35/35/35 37/37/37 36/36/36
f 37/37/37 38/38/38 36/36/36
f 37/37/37 39/39/39 38/38/38
f 39/39/39 40/40/40 38/38/38
f 39/39/39 41/41/41 40/40/40
f 41/41/41 42/42/42 40/40/40
f 41/41/41 43/43/43 42/42/42
f 43/43/43 44/44/44 42/42/42
f 43/43/43 45/45/45 44/44/44
f 45/45/45 46/46/46 44/44/44
f 45/45/45 47/47/47 46/46/46
f 47/47/47 48/48/48 46/46/46
f 47/47/47 49/49/49 48/48/48
f 49/49/49 50/50/50 48/48/48
f 49/49/49 51/51/51 50/50/50
f 51/51/51 52/52/52 50/50/50
f 55/55/55 54/54/54 53/53/53
f 56/56/56 55/55/55 53/53/53
f 55/55/55 57/57/57 54/54/54
f 57/57/57 58/58/58 54/54/54
f 57/57/57 59/59/59 58/58/58
f 59/59/59 60/60/60 58/58/58
f 59/59/59 61/61/61 60/60/60
f 61/61/61 62/62/62 60/60/60
f 61/61/61 63/63/63 62/62/62
f 63/63/63 64/64/64 62/62/62
f 63/63/63 65/65/65 64/64/64
f 65/65/65 66/66/66 64/64/64
f 65/65/65 2/2/2 66/66/66
f 2/2/2 3/3/3 66/66/66
f 69/69/69 68/68/68 67/67/67
f 70/70/70 69/69/69 67/67/67
f 71/71/71 69/69/69 70/70/70
f 72/72/72 71/71/71 70/70/70
f 73/73/73 71/71/71 72/72/72
f 74/74/74 73/73/73 72/72/72
f 75/75/75 73/73/73 74/74/74
f 76/76/76 75/75/75 74/74/74
f 77/77/77 75/75/75 76/76/76
f 78/78/78 77/77/77 76/76/76
f 79/79/79 77/77/77 78/78/78
f 80/80/80 79/79/79 78/78/78
f 81/81/81 79/79/79 80/80/80
f 82/82/82 81/81/81 80/80/80
f 83/83/83 81/81/81 82/82/82
f 84/84/84 83/83/83 82/82/82
f 85/85/85 83/83/83 84/84/84
f 86/86/86 85/85/85 84/84/84
f 87/87/87 85/85/85 86/86/86
f 88/88/88 87/87/87 86/86/86
f 89/89/89 87/87/87 88/88/88
f 90/90/90 89/89/89 88/88/88
f 91/91/91 89/89/89 90/90/90
f 92/92/92 91/91/91 90/90/90
f 93/93/93 91/91/91 92/92/92
f 94/94/94 93/93/93 92/92/92
f 95/95/95 93/93/93 94/94/94
f 96/96/96 95/95/95 94/94/94
f 97/97/97 95/95/95 96/96/96
f 98/98/98 97/97/97 96/96/96
f 99/99/99 97/97/97 98/98/98
f 100/100/100 99/99/99 98/98/98
f 101/101/101 99/99/99 100/100/100
f 102/102/102 101/101/101 100/100/100
f 103/103/103 101/101/101 102/102/102
f 104/104/104 103/103/103 102/102/102
f 105/105/105 103/103/103 104/104/104
f 106/106/106 105/105/105 104/104/104
f 107/107/107 105/105/105 106/106/106
f 108/108/108 107/107/107 106/106/106
f 109/109/109 107/107/107 108/108/108
f 110/110/110 109/109/109 108/108/108
f 111/111/111 109/109/109 110/110/110
f 112/112/112 111/111/111 110/110/110
f 113/113/113 111/111/111 112/112/112
f 114/114/114 113/113/113 112/112/112
f 115/115/115 113/113/113 114/114/114
f 116/116/116 115/115/115 114/114/114
f 119/119/119 118/118/118 117/117/117
f 120/120/120 119/119/119 117/117/117
f 121/121/121 119/119/119 120/120/120
f 122/122/122 121/121/121 120/120/120
f 123/123/123 121/121/121 122/122/122
f 124/124/124 123/123/123 122/122/122
f 125/125/125 123/123/123 124/124/124
f 126/126/126 125/125/125 124/124/124
f 127/127/127 125/125/125 126/126/126
f 128/128/128 127/127/127 126/126/126
f 129/129/129 127/127/127 128/128/128
f 130/130/130 129/129/129 128/128/128
f 131/131/131 129/129/129 130/130/130
f 132/132/132 131/131/131 130/130/130
f 68/68/68 131/131/131 132/132/132
f 67/67/67 68/68/68 132/132/132
f 135/135/135 134/134/134 133/133/133
f 136/136/136 135/135/135 133/133/133
f 137/137/137 135/135/135 136/136/136
f 138/138/138 137/137/137 136/136/136
f 139/139/139 137/137/137 138/138/138
f 140/140/140 139/139/139 138/138/138
f 141/141/141 139/139/139 140/140/140
f 142/142/142 141/141/141 140/140/140
f 143/143/143 141/141/141 142/142/142
f 144/144/144 143/143/143 142/142/142
f 145/145/145 143/143/143 144/144/144
f 146/146/146 145/145/145 144/144/144
f 147/147/147 145/145/145 146/146/146
f 148/148/148 147/147/147 146/146/146
f 149/149/149 147/147/147 148/148/148
f 150/150/150 149/149/149 148/148/148
f 151/151/151 149/149/149 150/150/150
f 152/152/152 151/151/151 150/150/150
f 153/153/153 151/151/151 152/152/152
f 154/154/154 153/153/153 152/152/152
f 155/155/155 153/153/153 154/154/154
f 156/156/156 155/155/155 154/154/154
f 157/157/157 155/155/155 156/156/156
f 158/158/158 157/157/157 156/156/156
f 159/159/159 157/157/157 158/158/158
f 160/160/160 159/159/159 158/158/158
f 161/161/161 159/159/159 160/160/160
f 162/162/162 161/161/161 160/160/160
f 163/163/163 161/161/161 162/162/162
f 164/164/164 163/163/163 162/162/162
