g rctrl:a_button_PLY
v 0.002235084 0.002235862 -0.004933198
v 0.002247672 0.002252038 -0.006428653
v 0.003260293 0.002091111 -0.005141391
v 0.002709017 0.0021869 -0.006522339
v 0.003102364 0.002114278 -0.006780159
v 0.004134397 0.001929728 -0.005714322
v 0.004702048 0.001777208 -0.00658351
v 0.003357806 0.002045644 -0.007171292
v 0.003450222 0.001990217 -0.007631509
v 0.004907417 0.001654035 -0.007606211
v 0.004692664 0.001581186 -0.008637048
v 0.003353581 0.001957435 -0.008095386
v 0.003094559 0.001950774 -0.008493003
v 0.00411705 0.001566388 -0.009520643
v 0.003237772 0.001617873 -0.01009899
v 0.002698884 0.001973944 -0.008753258
v 0.002236705 0.002020816 -0.008850919
v 0.002210712 0.001722033 -0.01031601
v 0.001189713 0.001865763 -0.01011305
v 0.001777253 0.002085494 -0.008759585
v 0.001386261 0.002157541 -0.008504747
v 0.0003208351 0.002025867 -0.00954674
v -0.0002519131 0.002179647 -0.008671075
v 0.001128521 0.002226742 -0.008110697
v 0.001034236 0.002282625 -0.007648156
v -0.0004614448 0.002303834 -0.007643209
v -0.0002427053 0.002375669 -0.006617659
v 0.001132669 0.002314951 -0.00718666
v 0.001393957 0.002321044 -0.00679198
v 0.0003379345 0.002389207 -0.005740592
v 0.001212063 0.002339001 -0.005155576
v 0.001787314 0.002298451 -0.006528723
v 0.00224319 0.002136181 -0.007641067
v 0.0003300476 0.001992917 -0.003128891
v 0.002167578 0.001807506 -0.00272867
v 0.0002960205 0.001965718 -0.003052897
v -0.001299829 0.002057342 -0.004120768
v -0.001350713 0.002006451 -0.004070999
v 0.0002656078 0.00191366 -0.002989355
v -0.001387672 0.001935628 -0.004035309
v 0.0002419233 0.001842077 -0.002944777
v -0.001406908 0.001852175 -0.004017376
v 0.0002273941 0.001758301 -0.002923728
v -0.001240273 0.002083056 -0.004179485
v -0.002492399 0.001826852 -0.00565717
v -0.002470059 0.001910364 -0.005670385
v -0.002901311 0.001692543 -0.007574548
v -0.002877865 0.001776428 -0.007582239
v -0.002828884 0.001848544 -0.007589012
v -0.002424235 0.00198141 -0.005692768
v -0.002759447 0.001901429 -0.007594165
v -0.002359676 0.002032646 -0.005722004
v -0.002676725 0.001929611 -0.007597165
v -0.002283044 0.002058774 -0.005755071
v -0.002376595 0.001674792 -0.009470605
v -0.002299695 0.001706652 -0.009443494
v -0.001271386 0.001430237 -0.01101688
v -0.001331334 0.001393945 -0.01106949
v -0.00244133 0.00161899 -0.00948954
v -0.001382484 0.001334628 -0.01110879
v -0.002487254 0.001544986 -0.009498351
v -0.001419606 0.001258349 -0.01113077
v -0.002509637 0.001460386 -0.009496133
v -0.001438913 0.001172903 -0.01113316
v 0.0002002144 0.0009599652 -0.01218652
v 0.0001855516 0.0008735753 -0.01219197
v 0.002103624 0.0006920681 -0.01256499
v 0.002112126 0.0007728884 -0.0125314
v 0.004011273 0.0005803588 -0.01213004
v 0.002119083 0.0008392212 -0.01247409
v 0.003994207 0.0006491271 -0.01207772
v 0.002123799 0.0008844243 -0.01239881
v 0.003968773 0.0006974486 -0.01200862
v 0.004018283 0.000497971 -0.01216037
v 0.002094431 0.0006048569 -0.0125715
v 0.004014535 0.0004101399 -0.0121657
v 0.005548844 0.0006045778 -0.01097029
v 0.00559988 0.000554895 -0.01102219
v 0.006650491 0.0005821367 -0.009408666
v 0.006582269 0.0006315472 -0.009382462
v 0.007042785 0.0007150489 -0.007526616
v 0.007098822 0.0006472105 -0.007520624
v 0.006718898 0.0008750177 -0.005629524
v 0.00674807 0.0007950366 -0.005606727
v 0.007131 0.0005654215 -0.007513313
v 0.006752152 0.0007080185 -0.005593343
v 0.007136145 0.0004777329 -0.007505403
v 0.006667509 0.0009400571 -0.005659482
v 0.006968398 0.0007622576 -0.007530699
v 0.006598997 0.0009837259 -0.005693641
v 0.00673058 0.000429643 -0.009435002
v 0.006734581 0.0003415526 -0.009432547
v 0.006701603 0.0005125543 -0.00942677
v 0.005637331 0.0004850669 -0.01106077
v 0.005657487 0.0004019959 -0.01108221
v 0.005658359 0.000313899 -0.0110844
v 0.00563128 0.001218435 -0.004072457
v 0.005579619 0.001257561 -0.004131997
v 0.004035225 0.001513174 -0.00302683
v 0.004009113 0.001547635 -0.003103336
v 0.002163582 0.001777345 -0.002646424
v 0.002157197 0.001722943 -0.002577942
v 0.004052873 0.001455391 -0.002963017
v 0.002149081 0.001649838 -0.002530195
v 0.004060283 0.001380098 -0.002918313
v 0.002140055 0.00156547 -0.002508044
v 0.004056711 0.001294866 -0.002897213
v 0.005669274 0.001156972 -0.004022221
v 0.005689811 0.001079302 -0.003986297
v 0.005690841 0.0009931697 -0.00396827
v 0.0002551031 0.001101739 -0.01210321
v 0.0002897739 0.001142787 -0.01203378
v 0.0002242088 0.001038672 -0.0121559
v -0.001438913 0.001172903 -0.01113316
v -0.00189014 -0.00293542 -0.01077277
v 0.0001855516 0.0008735753 -0.01219197
v -0.0002567053 -0.003228082 -0.01183827
v 0.002094431 0.0006048569 -0.0125715
v 0.001663775 -0.003476003 -0.01222267
v -0.002962732 -0.002633703 -0.009131465
v -0.002509637 0.001460386 -0.009496133
v -0.003351993 -0.002374286 -0.007205469
v -0.002901311 0.001692543 -0.007574548
v -0.002938394 -0.002205537 -0.005281955
v -0.002492399 0.001826852 -0.00565717
v -0.001845016 -0.002141793 -0.003637494
v -0.001406908 0.001852175 -0.004017376
v -0.0001979399 -0.002194402 -0.002544727
v 0.0002273941 0.001758301 -0.002923728
v 0.002140055 0.00156547 -0.002508044
v 0.001727586 -0.002353647 -0.002131872
v 0.004056711 0.001294866 -0.002897213
v 0.003653307 -0.002606821 -0.002523213
v 0.004014535 0.0004101399 -0.0121657
v 0.003594541 -0.0036405 -0.01181675
v 0.005658359 0.000313899 -0.0110844
v 0.005248346 -0.00369986 -0.01073289
v 0.006334996 -0.003629367 -0.009079525
v 0.006734581 0.0003415526 -0.009432547
v 0.006743355 -0.003455366 -0.007149073
v 0.007136145 0.0004777329 -0.007505403
v 0.005690841 0.0009931697 -0.00396827
v 0.005293474 -0.002906234 -0.003597617
v 0.006752152 0.0007080185 -0.005593343
v 0.006359339 -0.003201202 -0.005230015
v 0.007136145 0.0004777329 -0.007505403
v 0.006743355 -0.003455366 -0.007149073
vt 0.6170563 0.9212871
vt 0.6238106 0.8888294
vt 0.6405411 0.9212647
vt 0.6343434 0.8888122
vt 0.6441471 0.8849204
vt 0.6623917 0.9125884
vt 0.6789035 0.8960997
vt 0.6515483 0.8775206
vt 0.6556996 0.8679004
vt 0.6881578 0.8746552
vt 0.6882393 0.8511786
vt 0.6557289 0.8573713
vt 0.6518968 0.8475717
vt 0.6796918 0.8293393
vt 0.6630722 0.8128106
vt 0.6444382 0.8401653
vt 0.6347705 0.8360096
vt 0.6415201 0.8035481
vt 0.618147 0.8034792
vt 0.6242889 0.8359842
vt 0.6145495 0.8398225
vt 0.5964379 0.8120399
vt 0.5797823 0.8286539
vt 0.607085 0.8472776
vt 0.6028828 0.8569424
vt 0.5704225 0.850199
vt 0.5704565 0.8735789
vt 0.602904 0.8674279
vt 0.6067999 0.8771719
vt 0.5791425 0.8952971
vt 0.5956208 0.9119349
vt 0.6141942 0.8846313
vt 0.6293181 0.8623965
vt 0.5677542 0.9531137
vt 0.607019 0.9701737
vt 0.5666586 0.9547358
vt 0.5359483 0.9237666
vt 0.534312 0.9248508
vt 0.5655659 0.9563648
vt 0.5326704 0.925943
vt 0.5644751 0.9579991
vt 0.5310329 0.9270416
vt 0.563385 0.9596432
vt 0.5375807 0.9226909
vt 0.5139209 0.8844555
vt 0.515853 0.8840738
vt 0.5138328 0.8385773
vt 0.5157686 0.8389855
vt 0.5176975 0.8393905
vt 0.517779 0.8837004
vt 0.5196176 0.839791
vt 0.519702 0.88333
vt 0.5215304 0.840187
vt 0.5216215 0.8829627
vt 0.5369809 0.7996104
vt 0.5385972 0.8007132
vt 0.5690565 0.7702919
vt 0.5679883 0.7686508
vt 0.5353651 0.7985
vt 0.5669218 0.7669985
vt 0.5337496 0.7973833
vt 0.5658551 0.765336
vt 0.5321323 0.7962561
vt 0.5647946 0.7636688
vt 0.6077201 0.7487533
vt 0.6073841 0.7468049
vt 0.652796 0.7488659
vt 0.6523733 0.7508019
vt 0.6932681 0.768304
vt 0.6519595 0.752731
vt 0.6921508 0.7699292
vt 0.6515567 0.7546543
vt 0.6910408 0.7715549
vt 0.694391 0.7666785
vt 0.653229 0.7469319
vt 0.6955231 0.7650501
vt 0.7214649 0.8017851
vt 0.7231114 0.8007057
vt 0.7391093 0.8413748
vt 0.7371728 0.8417451
vt 0.7389731 0.8851019
vt 0.7409113 0.8854981
vt 0.7234286 0.9261815
vt 0.7250736 0.9272777
vt 0.7428586 0.8858937
vt 0.7267295 0.9283721
vt 0.744808 0.8862827
vt 0.7217893 0.9250829
vt 0.7370433 0.8847041
vt 0.7201569 0.9239811
vt 0.7429942 0.8406393
vt 0.7449403 0.8402749
vt 0.7410499 0.8410061
vt 0.7247672 0.7996256
vt 0.726433 0.7985438
vt 0.7281038 0.7974678
vt 0.691049 0.9558046
vt 0.6899609 0.9541669
vt 0.6503612 0.972038
vt 0.6499854 0.9701102
vt 0.6066276 0.9720935
vt 0.6062438 0.9740232
vt 0.6507482 0.9739676
vt 0.6058658 0.9759634
vt 0.6511444 0.9758989
vt 0.6054981 0.9779062
vt 0.6515521 0.9778355
vt 0.6921479 0.9574448
vt 0.6932561 0.9590893
vt 0.6943718 0.9607297
vt 0.608417 0.7526268
vt 0.6087787 0.7545555
vt 0.6080647 0.7506924
vt 0.4356658 0.5714262
vt 0.4356658 0.5478794
vt 0.4473367 0.5714262
vt 0.4473367 0.5478794
vt 0.4590218 0.5714262
vt 0.4590218 0.5478794
vt 0.4239156 0.5478794
vt 0.4239156 0.5714262
vt 0.4121776 0.5478794
vt 0.4121776 0.5714262
vt 0.4004899 0.5478794
vt 0.4004899 0.5714262
vt 0.3887943 0.5478794
vt 0.3887943 0.5714262
vt 0.3770881 0.5478795
vt 0.3770881 0.5714262
vt 0.3653924 0.5714262
vt 0.3653924 0.5478794
vt 0.3536574 0.5714262
vt 0.3536574 0.5478794
vt 0.4707455 0.5714262
vt 0.4707455 0.5478794
vt 0.4824579 0.5714262
vt 0.4824579 0.5478795
vt 0.4941803 0.5478794
vt 0.4941803 0.5714262
vt 0.5059103 0.5478795
vt 0.5059103 0.5714262
vt 0.3419084 0.5714262
vt 0.3419084 0.5478794
vt 0.3302394 0.5714262
vt 0.3302394 0.5478794
vt 0.3185591 0.5714262
vt 0.3185591 0.5478795
vn 0.117941 0.9826043 0.1434529
vn 0.1202701 0.9925368 -0.02014914
vn 0.2057661 0.9712594 0.1196478
vn 0.1451954 0.9888016 -0.03449055
vn 0.1726157 0.9841108 -0.0415892
vn 0.2836722 0.9559346 0.07562415
vn 0.3282771 0.944575 -0.003505961
vn 0.1800135 0.9812108 -0.06942934
vn 0.1940811 0.9764617 -0.09410075
vn 0.3516187 0.9317528 -0.09055895
vn 0.327504 0.928002 -0.1776333
vn 0.1797874 0.976493 -0.1189033
vn 0.1720914 0.9740793 -0.1468135
vn 0.2818372 0.9243253 -0.257275
vn 0.2024736 0.9311596 -0.3032264
vn 0.1442679 0.9773891 -0.1545874
vn 0.1195786 0.9783391 -0.1689782
vn 0.1157534 0.9376954 -0.3276103
vn 0.02917296 0.9520971 -0.3044011
vn 0.09503238 0.9833443 -0.1549288
vn 0.06719533 0.986766 -0.1475726
vn -0.04999741 0.9643639 -0.2598123
vn -0.09413032 0.9788532 -0.1816208
vn 0.06004542 0.9909531 -0.1200278
vn 0.04568914 0.9944148 -0.09514067
vn -0.1180817 0.9885585 -0.09385552
vn -0.09328794 0.9956245 -0.005417742
vn 0.06027888 0.9957256 -0.06997769
vn 0.06764576 0.9968123 -0.04230101
vn -0.04876564 0.9961008 0.07351879
vn 0.02978437 0.9925215 0.1183813
vn 0.09521464 0.9948468 -0.0348442
vn 0.1202571 0.9881988 -0.09487602
vn 0.003449846 0.9838446 0.1789916
vn 0.1163458 0.9727736 0.2004377
vn -0.12654 0.8780999 0.4614414
vn -0.3153513 0.8879861 0.3347149
vn -0.4980198 0.7000972 0.5117032
vn -0.2378051 0.6870557 0.686588
vn -0.6302372 0.4434479 0.637303
vn -0.3248003 0.4287593 0.8430126
vn -0.7003915 0.1464843 0.6985658
vn -0.3804196 0.1321059 0.9153301
vn -0.08986615 0.9893898 0.1141571
vn -0.9154155 0.1398618 0.3774295
vn -0.8359955 0.4373935 0.3313583
vn -0.9935808 0.1129541 -0.006218168
vn -0.9104409 0.4121418 -0.03516694
vn -0.7365671 0.6736198 -0.0608711
vn -0.6729207 0.6956581 0.251471
vn -0.4882257 0.8689824 -0.08065476
vn -0.4417462 0.8851959 0.1459063
vn -0.1753569 0.9801225 -0.09278934
vn -0.1542155 0.9878284 0.0203134
vn -0.4433382 0.8428411 -0.3050739
vn -0.1552431 0.9663903 -0.2049129
vn -0.09113763 0.950193 -0.2980388
vn -0.317357 0.8099805 -0.4931695
vn -0.6751135 0.6380159 -0.3703477
vn -0.501093 0.5940847 -0.6292607
vn -0.8389804 0.3705275 -0.398524
vn -0.6348453 0.3198976 -0.7033042
vn -0.9193414 0.07049155 -0.3870948
vn -0.7061823 0.01872746 -0.7077824
vn -0.3267795 0.2676536 -0.9064086
vn -0.3836579 -0.03500505 -0.9228116
vn 0.0327561 0.2218344 -0.9745341
vn 0.0666597 0.5083622 -0.8585595
vn 0.3704141 0.4792105 -0.7957078
vn 0.09450731 0.7459873 -0.6592202
vn 0.3146353 0.7247481 -0.6129804
vn 0.1136503 0.9172173 -0.3818325
vn 0.2244301 0.9054121 -0.360361
vn 0.3906493 0.1893804 -0.9008486
vn -0.005591407 -0.08145031 -0.9966618
vn 0.3727279 -0.1146038 -0.9208365
vn 0.3188063 0.9008496 -0.2946734
vn 0.5049009 0.7142022 -0.484758
vn 0.6315259 0.7179648 -0.2927482
vn 0.3841272 0.9013658 -0.1999648
vn 0.6761876 0.7331865 -0.07216533
vn 0.868887 0.492472 -0.05006727
vn 0.810066 0.5279143 0.2551461
vn 0.9089099 0.246779 0.3361294
vn 0.9782753 0.2059672 -0.02355573
vn 0.9211606 -0.05335411 0.385508
vn 0.9954033 -0.09564141 0.004990138
vn 0.6332143 0.7594777 0.1491083
vn 0.405178 0.909925 -0.08869692
vn 0.3851461 0.92257 0.02295845
vn 0.9062786 0.1808473 -0.3820384
vn 0.9190263 -0.1223177 -0.3747388
vn 0.8076794 0.4713382 -0.3542517
vn 0.632856 0.4659376 -0.6183813
vn 0.7000386 0.1742935 -0.6925083
vn 0.6994504 -0.1293893 -0.7028711
vn 0.5090538 0.7915083 0.3381995
vn 0.3212558 0.9397921 0.1165563
vn 0.322782 0.825251 0.4634356
vn 0.2283952 0.956691 0.1804939
vn 0.09925513 0.8558792 0.5075619
vn 0.07314384 0.6571613 0.7501926
vn 0.3813066 0.6170455 0.6883748
vn 0.04066968 0.3950876 0.9177428
vn 0.4032833 0.3492304 0.8458136
vn 0.002346169 0.09880551 0.9951041
vn 0.3847383 0.05187808 0.9215666
vn 0.6385432 0.5713035 0.5156305
vn 0.7063304 0.2970721 0.6425305
vn 0.7056502 -0.001210995 0.7085593
vn -0.1269657 0.7760843 -0.617716
vn 0.002501392 0.9321968 -0.3619431
vn -0.239057 0.547871 -0.801679
vn -0.7061823 0.01872746 -0.7077824
vn -0.7042273 0.01513324 -0.7098134
vn -0.3836579 -0.03500505 -0.9228116
vn -0.3819341 -0.03834765 -0.9233936
vn -0.005591407 -0.08145031 -0.9966618
vn -0.004019617 -0.08485044 -0.9963856
vn -0.9184734 0.06694707 -0.3897751
vn -0.9193414 0.07049155 -0.3870948
vn -0.9939563 0.1094027 -0.009056726
vn -0.9935808 0.1129541 -0.006218168
vn -0.9166847 0.1362524 0.375665
vn -0.9154155 0.1398618 0.3774295
vn -0.7011948 0.143211 0.6984387
vn -0.7003915 0.1464843 0.6985658
vn -0.3808726 0.1288284 0.9156087
vn -0.3804196 0.1321059 0.9153301
vn 0.002346169 0.09880551 0.9951041
vn 0.004553751 0.095162 0.9954514
vn 0.3847383 0.05187808 0.9215666
vn 0.3872534 0.04827027 0.9207089
vn 0.3727279 -0.1146038 -0.9208365
vn 0.3734703 -0.1181146 -0.9200917
vn 0.6994504 -0.1293893 -0.7028711
vn 0.6994654 -0.1329459 -0.7021919
vn 0.9175261 -0.1260634 -0.3771655
vn 0.9190263 -0.1223177 -0.3747388
vn 0.9950481 -0.09938113 0.001592504
vn 0.9954033 -0.09564141 0.004990138
vn 0.7056502 -0.001210995 0.7085593
vn 0.7080994 -0.005035093 0.7060949
vn 0.9211606 -0.05335411 0.385508
vn 0.9221765 -0.05706773 0.3825361
vn 0.9954033 -0.09564141 0.004990138
vn 0.9950481 -0.09938113 0.001592504
g rctrl:a_button_PLY_0
f 3/3/3 2/2/2 1/1/1
f 3/3/3 4/4/4 2/2/2
f 5/5/5 4/4/4 3/3/3
f 5/5/5 3/3/3 6/6/6
f 7/7/7 5/5/5 6/6/6
f 7/7/7 8/8/8 5/5/5
f 9/9/9 8/8/8 7/7/7
f 9/9/9 7/7/7 10/10/10
f 11/11/11 9/9/9 10/10/10
f 11/11/11 12/12/12 9/9/9
f 13/13/13 12/12/12 11/11/11
f 13/13/13 11/11/11 14/14/14
f 15/15/15 13/13/13 14/14/14
f 15/15/15 16/16/16 13/13/13
f 17/17/17 16/16/16 15/15/15
f 17/17/17 15/15/15 18/18/18
f 19/19/19 17/17/17 18/18/18
f 19/19/19 20/20/20 17/17/17
f 21/21/21 20/20/20 19/19/19
f 21/21/21 19/19/19 22/22/22
f 23/23/23 21/21/21 22/22/22
f 23/23/23 24/24/24 21/21/21
f 25/25/25 24/24/24 23/23/23
f 25/25/25 23/23/23 26/26/26
f 27/27/27 25/25/25 26/26/26
f 27/27/27 28/28/28 25/25/25
f 29/29/29 28/28/28 27/27/27
f 29/29/29 27/27/27 30/30/30
f 31/31/31 29/29/29 30/30/30
f 31/31/31 32/32/32 29/29/29
f 2/2/2 32/32/32 31/31/31
f 2/2/2 31/31/31 1/1/1
f 28/28/28 33/33/33 25/25/25
f 28/28/28 29/29/29 33/33/33
f 32/32/32 33/33/33 29/29/29
f 32/32/32 2/2/2 33/33/33
f 20/20/20 21/21/21 33/33/33
f 24/24/24 33/33/33 21/21/21
f 24/24/24 25/25/25 33/33/33
f 20/20/20 33/33/33 17/17/17
f 16/16/16 17/17/17 33/33/33
f 16/16/16 33/33/33 13/13/13
f 12/12/12 13/13/13 33/33/33
f 12/12/12 33/33/33 9/9/9
f 8/8/8 9/9/9 33/33/33
f 8/8/8 33/33/33 5/5/5
f 4/4/4 33/33/33 2/2/2
f 4/4/4 5/5/5 33/33/33
f 34/34/34 1/1/1 31/31/31
f 34/34/34 31/31/31 30/30/30
f 34/34/34 35/35/35 1/1/1
f 36/36/36 35/35/35 34/34/34
f 34/34/34 37/37/37 36/36/36
f 36/36/36 37/37/37 38/38/38
f 36/36/36 38/38/38 39/39/39
f 39/39/39 38/38/38 40/40/40
f 39/39/39 40/40/40 41/41/41
f 41/41/41 40/40/40 42/42/42
f 41/41/41 42/42/42 43/43/43
f 34/34/34 44/44/44 37/37/37
f 40/40/40 45/45/45 42/42/42
f 40/40/40 46/46/46 45/45/45
f 38/38/38 46/46/46 40/40/40
f 47/47/47 45/45/45 46/46/46
f 47/47/47 46/46/46 48/48/48
f 46/46/46 49/49/49 48/48/48
f 46/46/46 50/50/50 49/49/49
f 38/38/38 50/50/50 46/46/46
f 37/37/37 50/50/50 38/38/38
f 50/50/50 51/51/51 49/49/49
f 50/50/50 52/52/52 51/51/51
f 37/37/37 52/52/52 50/50/50
f 44/44/44 52/52/52 37/37/37
f 52/52/52 53/53/53 51/51/51
f 52/52/52 54/54/54 53/53/53
f 44/44/44 54/54/54 52/52/52
f 55/55/55 51/51/51 53/53/53
f 55/55/55 53/53/53 56/56/56
f 57/57/57 55/55/55 56/56/56
f 57/57/57 58/58/58 55/55/55
f 58/58/58 59/59/59 55/55/55
f 59/59/59 51/51/51 55/55/55
f 59/59/59 49/49/49 51/51/51
f 58/58/58 60/60/60 59/59/59
f 60/60/60 61/61/61 59/59/59
f 61/61/61 49/49/49 59/59/59
f 61/61/61 48/48/48 49/49/49
f 47/47/47 48/48/48 61/61/61
f 60/60/60 62/62/62 61/61/61
f 62/62/62 63/63/63 61/61/61
f 62/62/62 64/64/64 63/63/63
f 65/65/65 64/64/64 62/62/62
f 65/65/65 66/66/66 64/64/64
f 66/66/66 65/65/65 67/67/67
f 65/65/65 68/68/68 67/67/67
f 67/67/67 68/68/68 69/69/69
f 69/69/69 68/68/68 70/70/70
f 69/69/69 70/70/70 71/71/71
f 71/71/71 70/70/70 72/72/72
f 71/71/71 72/72/72 73/73/73
f 67/67/67 69/69/69 74/74/74
f 75/75/75 67/67/67 74/74/74
f 66/66/66 67/67/67 75/75/75
f 75/75/75 74/74/74 76/76/76
f 71/71/71 73/73/73 77/77/77
f 71/71/71 77/77/77 78/78/78
f 69/69/69 71/71/71 78/78/78
f 79/79/79 78/78/78 77/77/77
f 79/79/79 77/77/77 80/80/80
f 80/80/80 81/81/81 79/79/79
f 79/79/79 81/81/81 82/82/82
f 81/81/81 83/83/83 82/82/82
f 82/82/82 83/83/83 84/84/84
f 82/82/82 84/84/84 85/85/85
f 85/85/85 84/84/84 86/86/86
f 85/85/85 86/86/86 87/87/87
f 81/81/81 88/88/88 83/83/83
f 89/89/89 88/88/88 81/81/81
f 80/80/80 89/89/89 81/81/81
f 89/89/89 90/90/90 88/88/88
f 91/91/91 85/85/85 87/87/87
f 91/91/91 87/87/87 92/92/92
f 93/93/93 85/85/85 91/91/91
f 93/93/93 82/82/82 85/85/85
f 79/79/79 82/82/82 93/93/93
f 93/93/93 78/78/78 79/79/79
f 93/93/93 94/94/94 78/78/78
f 91/91/91 94/94/94 93/93/93
f 91/91/91 95/95/95 94/94/94
f 92/92/92 95/95/95 91/91/91
f 92/92/92 96/96/96 95/95/95
f 74/74/74 94/94/94 95/95/95
f 74/74/74 69/69/69 94/94/94
f 69/69/69 78/78/78 94/94/94
f 76/76/76 95/95/95 96/96/96
f 76/76/76 74/74/74 95/95/95
f 97/97/97 88/88/88 90/90/90
f 97/97/97 90/90/90 98/98/98
f 99/99/99 97/97/97 98/98/98
f 99/99/99 98/98/98 100/100/100
f 99/99/99 100/100/100 35/35/35
f 99/99/99 35/35/35 101/101/101
f 102/102/102 99/99/99 101/101/101
f 102/102/102 103/103/103 99/99/99
f 103/103/103 97/97/97 99/99/99
f 104/104/104 103/103/103 102/102/102
f 104/104/104 105/105/105 103/103/103
f 106/106/106 105/105/105 104/104/104
f 106/106/106 107/107/107 105/105/105
f 103/103/103 108/108/108 97/97/97
f 105/105/105 108/108/108 103/103/103
f 105/105/105 109/109/109 108/108/108
f 107/107/107 109/109/109 105/105/105
f 107/107/107 110/110/110 109/109/109
f 36/36/36 101/101/101 35/35/35
f 39/39/39 101/101/101 36/36/36
f 39/39/39 102/102/102 101/101/101
f 41/41/41 102/102/102 39/39/39
f 41/41/41 104/104/104 102/102/102
f 43/43/43 104/104/104 41/41/41
f 43/43/43 106/106/106 104/104/104
f 109/109/109 83/83/83 108/108/108
f 108/108/108 83/83/83 88/88/88
f 108/108/108 88/88/88 97/97/97
f 109/109/109 84/84/84 83/83/83
f 110/110/110 84/84/84 109/109/109
f 110/110/110 86/86/86 84/84/84
f 111/111/111 72/72/72 70/70/70
f 111/111/111 112/112/112 72/72/72
f 113/113/113 111/111/111 70/70/70
f 113/113/113 70/70/70 68/68/68
f 65/65/65 113/113/113 68/68/68
f 113/113/113 65/65/65 62/62/62
f 113/113/113 62/62/62 60/60/60
f 58/58/58 113/113/113 60/60/60
f 58/58/58 111/111/111 113/113/113
f 57/57/57 111/111/111 58/58/58
f 57/57/57 112/112/112 111/111/111
f 112/112/112 57/57/57 22/22/22
f 56/56/56 22/22/22 57/57/57
f 56/56/56 23/23/23 22/22/22
f 56/56/56 26/26/26 23/23/23
f 56/56/56 53/53/53 26/26/26
f 54/54/54 26/26/26 53/53/53
f 54/54/54 27/27/27 26/26/26
f 54/54/54 30/30/30 27/27/27
f 54/54/54 44/44/44 30/30/30
f 34/34/34 30/30/30 44/44/44
f 112/112/112 22/22/22 19/19/19
f 112/112/112 19/19/19 18/18/18
f 112/112/112 18/18/18 72/72/72
f 73/73/73 72/72/72 18/18/18
f 73/73/73 18/18/18 15/15/15
f 73/73/73 15/15/15 14/14/14
f 73/73/73 14/14/14 77/77/77
f 80/80/80 77/77/77 14/14/14
f 80/80/80 14/14/14 11/11/11
f 80/80/80 11/11/11 10/10/10
f 80/80/80 10/10/10 89/89/89
f 90/90/90 89/89/89 10/10/10
f 90/90/90 10/10/10 7/7/7
f 90/90/90 7/7/7 6/6/6
f 90/90/90 6/6/6 98/98/98
f 100/100/100 98/98/98 6/6/6
f 100/100/100 6/6/6 3/3/3
f 100/100/100 3/3/3 1/1/1
f 100/100/100 1/1/1 35/35/35
f 47/47/47 61/61/61 63/63/63
f 116/116/116 115/115/115 114/114/114
f 116/116/116 117/117/117 115/115/115
f 118/118/118 117/117/117 116/116/116
f 118/118/118 119/119/119 117/117/117
f 120/120/120 114/114/114 115/115/115
f 120/120/120 121/121/121 114/114/114
f 122/122/122 121/121/121 120/120/120
f 122/122/122 123/123/123 121/121/121
f 124/124/124 123/123/123 122/122/122
f 124/124/124 125/125/125 123/123/123
f 126/126/126 125/125/125 124/124/124
f 126/126/126 127/127/127 125/125/125
f 128/128/128 127/127/127 126/126/126
f 128/128/128 129/129/129 127/127/127
f 128/128/128 130/130/130 129/129/129
f 128/128/128 131/131/131 130/130/130
f 131/131/131 132/132/132 130/130/130
f 131/131/131 133/133/133 132/132/132
f 134/134/134 119/119/119 118/118/118
f 134/134/134 135/135/135 119/119/119
f 136/136/136 135/135/135 134/134/134
f 136/136/136 137/137/137 135/135/135
f 136/136/136 138/138/138 137/137/137
f 136/136/136 139/139/139 138/138/138
f 139/139/139 140/140/140 138/138/138
f 139/139/139 141/141/141 140/140/140
f 142/142/142 132/132/132 133/133/133
f 142/142/142 133/133/133 143/143/143
f 144/144/144 142/142/142 143/143/143
f 144/144/144 143/143/143 145/145/145
f 145/145/145 146/146/146 144/144/144
f 145/145/145 147/147/147 146/146/146
