g rctrl:b_button_PLY
v 0.009458857 0.002956209 0.00793347
v 0.00947145 0.002972989 0.00644382
v 0.01047993 0.002812057 0.00772629
v 0.009930925 0.002908121 0.00635059
v 0.01032266 0.002835801 0.006093883
v 0.01135044 0.002651346 0.007155828
v 0.01191604 0.002499377 0.006289806
v 0.01057718 0.002767414 0.005704171
v 0.01066929 0.002712186 0.005245667
v 0.01212074 0.002376648 0.005270906
v 0.01190662 0.002304128 0.004244308
v 0.01057294 0.002679552 0.004783698
v 0.01031483 0.002672942 0.004387747
v 0.01133305 0.002289437 0.003364416
v 0.01045736 0.002340683 0.002788126
v 0.009920773 0.002696002 0.004128417
v 0.009460468 0.002742675 0.004031054
v 0.009434462 0.002444402 0.002571765
v 0.008417296 0.002587612 0.002774141
v 0.009002742 0.00280712 0.004122123
v 0.008613205 0.002878906 0.004376063
v 0.007551651 0.002747136 0.003338453
v 0.00698133 0.00290027 0.00421045
v 0.008356562 0.002947816 0.004768462
v 0.008262715 0.003003464 0.005229095
v 0.00677279 0.003023932 0.00523408
v 0.006990533 0.003095521 0.006255802
v 0.008360701 0.003035679 0.00568887
v 0.008620892 0.003041766 0.006082105
v 0.007568741 0.003109047 0.007129659
v 0.008439651 0.003058988 0.007712157
v 0.009012803 0.00301924 0.006344231
v 0.009466882 0.002857605 0.005236249
v 0.007560954 0.002711856 0.009730637
v 0.005996613 0.002801713 0.008684729
v 0.005937018 0.002775921 0.008743452
v 0.007526884 0.002684575 0.009806625
v 0.005886063 0.002724985 0.008793199
v 0.007496371 0.002632468 0.009870132
v 0.005848985 0.00265414 0.008828859
v 0.007472529 0.00256086 0.009914666
v 0.005829592 0.002570661 0.008846768
v 0.0074578 0.002477068 0.009935677
v 0.004748683 0.002545364 0.007213056
v 0.004771171 0.002628907 0.007199827
v 0.00434165 0.002411522 0.005302926
v 0.00436523 0.002495434 0.005295179
v 0.004414296 0.002567569 0.005288363
v 0.004817085 0.002699974 0.00717744
v 0.00448379 0.002620495 0.005283179
v 0.004881706 0.002751251 0.0071482
v 0.004566555 0.002648759 0.005280162
v 0.004958377 0.00277746 0.007115117
v 0.004864812 0.002394834 0.003414625
v 0.004941749 0.002426775 0.003441708
v 0.005965557 0.002151562 0.00187515
v 0.005905561 0.00211519 0.001822577
v 0.004800014 0.002338992 0.00339575
v 0.00585433 0.002055831 0.001783358
v 0.004753995 0.002264972 0.003387019
v 0.005817084 0.001979537 0.001761492
v 0.004731469 0.002180353 0.003389325
v 0.005797619 0.001894085 0.001759206
v 0.00743083 0.001682234 0.0007095021
v 0.007415972 0.001595854 0.0007041789
v 0.007454972 0.001760957 0.0007400031
v 0.007485971 0.00182407 0.0007926003
v 0.00752069 0.001865198 0.0008619814
v 0.009347543 0.001607805 0.0004980611
v 0.009342775 0.001562527 0.0004228448
v 0.01121013 0.001373259 0.0008179735
v 0.01118477 0.001421655 0.0008870067
v 0.01122705 0.001304432 0.0007657479
v 0.009335689 0.001496141 0.0003656337
v 0.009327001 0.001415304 0.0003321634
v 0.01123384 0.001222023 0.000735526
v 0.009317579 0.00132812 0.00032579
v 0.01122983 0.00113423 0.0007303143
v 0.01275814 0.001329237 0.001921507
v 0.01280908 0.00127948 0.001869669
v 0.01284636 0.001209586 0.001831163
v 0.01286629 0.001126491 0.001809809
v 0.01286688 0.001038439 0.001807726
v 0.01385589 0.001306516 0.00347628
v 0.01378778 0.001355999 0.003502436
v 0.01390681 0.001236866 0.003458231
v 0.01393554 0.001153929 0.003450069
v 0.01393923 0.001065892 0.003452602
v 0.01433957 0.001201456 0.005371752
v 0.01433474 0.00128909 0.005363791
v 0.01395686 0.001430901 0.007276611
v 0.01395309 0.001517874 0.007263214
v 0.01289943 0.001715011 0.008895684
v 0.01289869 0.001801111 0.008877674
v 0.01392417 0.001597883 0.007240398
v 0.0128784 0.001878808 0.00884176
v 0.01387298 0.001662989 0.007210426
v 0.01284059 0.001940333 0.008791531
v 0.01380458 0.001706732 0.007176273
v 0.01278903 0.001979536 0.008732008
v 0.01125124 0.00223382 0.009832569
v 0.0112252 0.002268362 0.009756089
v 0.01126873 0.002175979 0.009896356
v 0.01127591 0.002100659 0.00994103
v 0.01127207 0.002015443 0.009962094
v 0.01430283 0.001370906 0.005356434
v 0.01424698 0.001438812 0.005350408
v 0.01417272 0.001486092 0.005346309
v 0.009391369 0.00252712 0.01012887
v 0.009387321 0.002496875 0.0102111
v 0.009380813 0.002442419 0.01027955
v 0.009372501 0.002369288 0.01032725
v 0.009363231 0.002284919 0.01034936
v 0.005829592 0.002570661 0.008846768
v 0.005395069 -0.001287063 0.009213203
v 0.004748683 0.002545364 0.007213056
v 0.00430736 -0.001350476 0.007577264
v 0.007033615 -0.001339399 0.01030031
v 0.0074578 0.002477068 0.009935677
v 0.009363231 0.002284919 0.01034936
v 0.008949165 -0.00149782 0.01071102
v 0.01127207 0.002015443 0.009962094
v 0.01086491 -0.00174968 0.01032171
v 0.01289943 0.001715011 0.008895684
v 0.01249658 -0.002047543 0.009252874
v 0.01395686 0.001430901 0.007276611
v 0.01355692 -0.002340982 0.007628935
v 0.00434165 0.002411522 0.005302926
v 0.003895898 -0.00151835 0.005663717
v 0.004731469 0.002180353 0.003389325
v 0.004283142 -0.001776422 0.0037477
v 0.005797619 0.001894085 0.001759206
v 0.00535018 -0.002076578 0.002114902
v 0.007415972 0.001595854 0.0007041789
v 0.00697515 -0.002367723 0.001054925
v 0.009317579 0.00132812 0.00032579
v 0.008885679 -0.002614358 0.0006725129
v 0.01122983 0.00113423 0.0007303143
v 0.01080645 -0.002778004 0.001076328
v 0.01245169 -0.002837055 0.002154574
v 0.01286688 0.001038439 0.001807726
v 0.0135327 -0.002766928 0.003799371
v 0.01393923 0.001065892 0.003452602
v 0.01393894 -0.002593828 0.00571982
v 0.01433957 0.001201456 0.005371752
v 0.01393894 -0.002593828 0.00571982
v 0.01433957 0.001201456 0.005371752
vt 0.8812665 0.9187713
vt 0.874692 0.8868844
vt 0.9024178 0.9095936
vt 0.8841763 0.8827621
vt 0.891492 0.875433
vt 0.9187227 0.8932573
vt 0.9271772 0.8719527
vt 0.8952779 0.8658748
vt 0.8952685 0.8555832
vt 0.9271583 0.8490128
vt 0.9180739 0.8278283
vt 0.8911874 0.8460848
vt 0.8839096 0.8387514
vt 0.9018486 0.8114858
vt 0.8804243 0.8030673
vt 0.8742995 0.8349839
vt 0.8639664 0.8350089
vt 0.8573876 0.8031234
vt 0.8362915 0.8121869
vt 0.8545087 0.8390784
vt 0.8472273 0.8463402
vt 0.8200621 0.8283794
vt 0.8115367 0.8498455
vt 0.8434099 0.8559686
vt 0.8433948 0.8663152
vt 0.8115106 0.8729081
vt 0.8206607 0.8939674
vt 0.8475031 0.8757582
vt 0.8548133 0.8830213
vt 0.836958 0.9101545
vt 0.8583004 0.9187121
vt 0.8643876 0.8868558
vt 0.8693442 0.8609176
vt 0.8492545 0.9666989
vt 0.8101914 0.9510683
vt 0.8091351 0.952682
vt 0.8488979 0.9685964
vt 0.8080777 0.9543043
vt 0.8485453 0.9704986
vt 0.807018 0.9559352
vt 0.8481954 0.9724045
vt 0.8059642 0.95757
vt 0.8478493 0.9743191
vt 0.7739252 0.9258559
vt 0.7755255 0.9247539
vt 0.7559456 0.8845352
vt 0.7578579 0.8841448
vt 0.7597626 0.8837544
vt 0.7771233 0.9236618
vt 0.7616582 0.8833635
vt 0.7787195 0.922573
vt 0.7635451 0.8829716
vt 0.7803134 0.921488
vt 0.7616208 0.8403876
vt 0.7635164 0.8407513
vt 0.7790899 0.8014569
vt 0.7774794 0.8003913
vt 0.7597224 0.8400177
vt 0.7758653 0.7993162
vt 0.757822 0.8396428
vt 0.7742464 0.7982328
vt 0.7559155 0.8392593
vt 0.7726313 0.7971429
vt 0.8055215 0.7669312
vt 0.8044502 0.7653026
vt 0.8065962 0.7685483
vt 0.8076751 0.7701589
vt 0.8087589 0.7717617
vt 0.8473606 0.7551466
vt 0.8469711 0.7532488
vt 0.8899068 0.7530778
vt 0.8895399 0.7549828
vt 0.8902793 0.75117
vt 0.8465874 0.7513424
vt 0.846208 0.7494265
vt 0.8906556 0.7492598
vt 0.8458375 0.7475085
vt 0.8910334 0.7473491
vt 0.9287485 0.7703713
vt 0.9298143 0.768751
vt 0.9308876 0.7671257
vt 0.9319686 0.7654945
vt 0.9330552 0.763858
vt 0.9601057 0.7991545
vt 0.9584993 0.8002474
vt 0.9617156 0.7980616
vt 0.9633294 0.7969686
vt 0.9649454 0.7958772
vt 0.9827775 0.8374
vt 0.9808627 0.8378096
vt 0.9828871 0.8824067
vt 0.9809623 0.8820616
vt 0.9663278 0.9242023
vt 0.9646793 0.9231517
vt 0.9790464 0.8817112
vt 0.9630353 0.9220952
vt 0.9771348 0.881357
vt 0.9614013 0.9210397
vt 0.9752278 0.8809984
vt 0.9597771 0.9199835
vt 0.9310716 0.9515271
vt 0.9299774 0.9499297
vt 0.9321746 0.9531226
vt 0.9332856 0.9547166
vt 0.9344082 0.9563115
vt 0.9789473 0.8382129
vt 0.9770398 0.8386121
vt 0.9751391 0.8390068
vt 0.8912929 0.9667433
vt 0.8916898 0.9686342
vt 0.8920959 0.9705316
vt 0.8925102 0.9724361
vt 0.8929338 0.9743391
vt 0.3888124 0.5963865
vt 0.3888124 0.5735523
vt 0.4005049 0.5963865
vt 0.4005049 0.5735523
vt 0.3771097 0.5735523
vt 0.3771097 0.5963865
vt 0.365417 0.5963865
vt 0.365417 0.5735523
vt 0.3536867 0.5963865
vt 0.3536867 0.5735523
vt 0.3419429 0.5963865
vt 0.3419429 0.5735523
vt 0.330276 0.5963865
vt 0.330276 0.5735523
vt 0.4121898 0.5963865
vt 0.4121898 0.5735523
vt 0.4239228 0.5963865
vt 0.4239228 0.5735523
vt 0.4356676 0.5963865
vt 0.4356676 0.5735523
vt 0.4473361 0.5963865
vt 0.4473361 0.5735523
vt 0.4590186 0.5963865
vt 0.4590186 0.5735523
vt 0.470738 0.5963865
vt 0.470738 0.5735524
vt 0.4824467 0.5735523
vt 0.4824467 0.5963865
vt 0.4941648 0.5735523
vt 0.4941648 0.5963865
vt 0.5058903 0.5735524
vt 0.5058903 0.5963865
vt 0.3185981 0.5735524
vt 0.3185981 0.5963865
vn 0.1179194 0.9824752 0.144352
vn 0.1202687 0.9925431 -0.01983886
vn 0.2060451 0.9710984 0.1204713
vn 0.1452947 0.988796 -0.03423553
vn 0.1728371 0.9840813 -0.04136877
vn 0.2842734 0.9557051 0.07626472
vn 0.329049 0.9443077 -0.003140554
vn 0.1802627 0.9811729 -0.06931939
vn 0.1943936 0.9763995 -0.09410091
vn 0.3524784 0.9314297 -0.09054083
vn 0.3282669 0.9276608 -0.1780066
vn 0.1800355 0.9764324 -0.1190245
vn 0.172312 0.9740062 -0.1470388
vn 0.2824504 0.9239618 -0.2579074
vn 0.2028356 0.9308264 -0.3040064
vn 0.1443874 0.9773316 -0.1548391
vn 0.119576 0.9782849 -0.1692934
vn 0.1157224 0.937393 -0.3284853
vn 0.0287868 0.9518582 -0.305184
vn 0.09492205 0.9833152 -0.1551807
vn 0.06697698 0.9867473 -0.1477971
vn -0.05064486 0.9641641 -0.2604278
vn -0.09495039 0.9787182 -0.1819209
vn 0.0597929 0.9909559 -0.1201297
vn 0.0453811 0.994429 -0.09513996
vn -0.1189779 0.9884527 -0.09383748
vn -0.09410729 0.9955488 -0.005127649
vn 0.06002644 0.9957471 -0.06988895
vn 0.06743139 0.9968359 -0.04208306
vn -0.04938501 0.9960243 0.07414065
vn 0.02949981 0.9924312 0.1192058
vn 0.09512997 0.9948638 -0.03458849
vn 0.1202601 0.9881982 -0.0948779
vn 0.0030748 0.9836587 0.1800172
vn -0.0906138 0.989235 0.1149054
vn -0.3156453 0.8877529 0.3350565
vn -0.1265982 0.8777823 0.4620295
vn -0.4979251 0.7001766 0.5116866
vn -0.2376319 0.6868678 0.6868361
vn -0.6299974 0.4440195 0.6371421
vn -0.3244976 0.4288892 0.8430631
vn -0.7000151 0.1485589 0.698505
vn -0.3796913 0.1331788 0.9154769
vn -0.9151732 0.1424734 0.3770403
vn -0.8356602 0.4383233 0.3309756
vn -0.9932801 0.1155455 -0.006624197
vn -0.9100342 0.4130195 -0.03539245
vn -0.736315 0.673892 -0.06090843
vn -0.6727244 0.6959442 0.2512042
vn -0.4884971 0.8688307 -0.08064652
vn -0.4420334 0.8850526 0.1459053
vn -0.1764524 0.9799284 -0.0927623
vn -0.1552341 0.987661 0.02068994
vn -0.4437254 0.8425987 -0.3051807
vn -0.1562665 0.9661484 -0.2052753
vn -0.0919386 0.9498864 -0.2987696
vn -0.3177781 0.8095654 -0.4935798
vn -0.6750801 0.6380634 -0.3703271
vn -0.5011816 0.5938857 -0.6293782
vn -0.8386691 0.3711342 -0.3986147
vn -0.6347677 0.3200533 -0.7033036
vn -0.919018 0.07237481 -0.387515
vn -0.7057732 0.01945887 -0.7081705
vn -0.3269954 0.2670338 -0.9065136
vn -0.3833947 -0.03568924 -0.9228948
vn -0.2393645 0.5471979 -0.8020468
vn -0.1273476 0.7755125 -0.618355
vn 0.002011759 0.9318232 -0.3629071
vn 0.1136037 0.9167854 -0.3828824
vn 0.09446181 0.7451525 -0.6601702
vn 0.3151512 0.7236963 -0.6139572
vn 0.224861 0.9049174 -0.3613337
vn 0.3708522 0.4775986 -0.7964724
vn 0.06657509 0.5071735 -0.8592688
vn 0.03262572 0.2203877 -0.9748666
vn 0.3908875 0.187258 -0.9011889
vn -0.005334423 -0.08373711 -0.9964736
vn 0.3724399 -0.1183176 -0.9204833
vn 0.3195566 0.9003307 -0.2954457
vn 0.5057496 0.7130134 -0.4856226
vn 0.6335501 0.4640157 -0.6191153
vn 0.7003321 0.1716612 -0.692869
vn 0.6996111 -0.1341764 -0.7018126
vn 0.632732 0.7166573 -0.2933473
vn 0.3850859 0.9008571 -0.2004131
vn 0.8087481 0.4690778 -0.3548135
vn 0.9067672 0.1777039 -0.3823541
vn 0.9184145 -0.1277061 -0.3744408
vn 0.9948671 -0.1010518 0.005293583
vn 0.9789442 0.2027932 -0.02330316
vn 0.920778 -0.05806541 0.3857413
vn 0.9093981 0.2441138 0.3367544
vn 0.7055956 -0.004767935 0.7085986
vn 0.7066244 0.2948613 0.6432253
vn 0.8110496 0.5260612 0.2558477
vn 0.6391916 0.5697559 0.5165386
vn 0.6343585 0.7583964 0.1497474
vn 0.5098337 0.7906126 0.3391187
vn 0.3861092 0.9221555 0.02342726
vn 0.3219751 0.939447 0.1173517
vn 0.3230554 0.8245778 0.4644424
vn 0.2287393 0.9564126 0.1815302
vn 0.3814456 0.6159974 0.689236
vn 0.4032207 0.3478903 0.8463956
vn 0.384873 0.0498903 0.9216202
vn 0.8701602 0.4902355 -0.04990456
vn 0.6776032 0.7318861 -0.07208807
vn 0.4062204 0.9094632 -0.08866694
vn 0.1163134 0.9725488 0.201544
vn 0.09924468 0.8554294 0.5083219
vn 0.07314409 0.6566059 0.7506788
vn 0.0406601 0.3945742 0.917964
vn 0.002831757 0.09845356 0.9951376
vn -0.7000151 0.1485589 0.698505
vn -0.7012426 0.1451794 0.697984
vn -0.9151732 0.1424734 0.3770403
vn -0.9164661 0.1388272 0.375256
vn -0.3810931 0.1298466 0.9153731
vn -0.3796913 0.1331788 0.9154769
vn 0.002831757 0.09845356 0.9951376
vn 0.003974998 0.0948058 0.9954879
vn 0.384873 0.0498903 0.9216202
vn 0.3865661 0.04621191 0.9211032
vn 0.7055956 -0.004767935 0.7085986
vn 0.7073973 -0.008636714 0.7067633
vn 0.920778 -0.05806541 0.3857413
vn 0.9215485 -0.0618705 0.3833021
vn -0.9932801 0.1155455 -0.006624197
vn -0.9936751 0.1119144 -0.009219206
vn -0.919018 0.07237481 -0.387515
vn -0.9183563 0.06876786 -0.3897342
vn -0.7057732 0.01945887 -0.7081705
vn -0.7044252 0.01584944 -0.7096014
vn -0.3833947 -0.03568924 -0.9228948
vn -0.3824516 -0.03908682 -0.9231484
vn -0.005334423 -0.08373711 -0.9964736
vn -0.004737625 -0.08717277 -0.996182
vn 0.3724399 -0.1183176 -0.9204833
vn 0.3735228 -0.1217564 -0.9195956
vn 0.6983371 -0.1375749 -0.7024232
vn 0.6996111 -0.1341764 -0.7018126
vn 0.9169417 -0.1314722 -0.3767402
vn 0.9184145 -0.1277061 -0.3744408
vn 0.9944844 -0.104861 0.002254582
vn 0.9948671 -0.1010518 0.005293583
vn 0.9944844 -0.104861 0.002254582
vn 0.9948671 -0.1010518 0.005293583
g rctrl:b_button_PLY_0
f 3/3/3 2/2/2 1/1/1
f 3/3/3 4/4/4 2/2/2
f 5/5/5 4/4/4 3/3/3
f 5/5/5 3/3/3 6/6/6
f 7/7/7 5/5/5 6/6/6
f 7/7/7 8/8/8 5/5/5
f 9/9/9 8/8/8 7/7/7
f 9/9/9 7/7/7 10/10/10
f 11/11/11 9/9/9 10/10/10
f 11/11/11 12/12/12 9/9/9
f 13/13/13 12/12/12 11/11/11
f 13/13/13 11/11/11 14/14/14
f 15/15/15 13/13/13 14/14/14
f 15/15/15 16/16/16 13/13/13
f 17/17/17 16/16/16 15/15/15
f 17/17/17 15/15/15 18/18/18
f 19/19/19 17/17/17 18/18/18
f 19/19/19 20/20/20 17/17/17
f 21/21/21 20/20/20 19/19/19
f 21/21/21 19/19/19 22/22/22
f 23/23/23 21/21/21 22/22/22
f 23/23/23 24/24/24 21/21/21
f 25/25/25 24/24/24 23/23/23
f 25/25/25 23/23/23 26/26/26
f 27/27/27 25/25/25 26/26/26
f 27/27/27 28/28/28 25/25/25
f 29/29/29 28/28/28 27/27/27
f 29/29/29 27/27/27 30/30/30
f 31/31/31 29/29/29 30/30/30
f 31/31/31 32/32/32 29/29/29
f 2/2/2 32/32/32 31/31/31
f 2/2/2 31/31/31 1/1/1
f 20/20/20 21/21/21 33/33/33
f 24/24/24 33/33/33 21/21/21
f 24/24/24 25/25/25 33/33/33
f 28/28/28 33/33/33 25/25/25
f 28/28/28 29/29/29 33/33/33
f 32/32/32 33/33/33 29/29/29
f 32/32/32 2/2/2 33/33/33
f 20/20/20 33/33/33 17/17/17
f 16/16/16 17/17/17 33/33/33
f 16/16/16 33/33/33 13/13/13
f 12/12/12 13/13/13 33/33/33
f 12/12/12 33/33/33 9/9/9
f 4/4/4 33/33/33 2/2/2
f 4/4/4 5/5/5 33/33/33
f 8/8/8 33/33/33 5/5/5
f 8/8/8 9/9/9 33/33/33
f 34/34/34 31/31/31 30/30/30
f 34/34/34 1/1/1 31/31/31
f 34/34/34 30/30/30 35/35/35
f 34/34/34 35/35/35 36/36/36
f 34/34/34 36/36/36 37/37/37
f 37/37/37 36/36/36 38/38/38
f 37/37/37 38/38/38 39/39/39
f 39/39/39 38/38/38 40/40/40
f 39/39/39 40/40/40 41/41/41
f 41/41/41 40/40/40 42/42/42
f 41/41/41 42/42/42 43/43/43
f 40/40/40 44/44/44 42/42/42
f 40/40/40 45/45/45 44/44/44
f 38/38/38 45/45/45 40/40/40
f 46/46/46 44/44/44 45/45/45
f 46/46/46 45/45/45 47/47/47
f 45/45/45 48/48/48 47/47/47
f 45/45/45 49/49/49 48/48/48
f 38/38/38 49/49/49 45/45/45
f 36/36/36 49/49/49 38/38/38
f 49/49/49 50/50/50 48/48/48
f 49/49/49 51/51/51 50/50/50
f 36/36/36 51/51/51 49/49/49
f 51/51/51 52/52/52 50/50/50
f 51/51/51 53/53/53 52/52/52
f 54/54/54 50/50/50 52/52/52
f 54/54/54 52/52/52 55/55/55
f 56/56/56 54/54/54 55/55/55
f 56/56/56 57/57/57 54/54/54
f 57/57/57 58/58/58 54/54/54
f 58/58/58 50/50/50 54/54/54
f 58/58/58 48/48/48 50/50/50
f 57/57/57 59/59/59 58/58/58
f 59/59/59 60/60/60 58/58/58
f 60/60/60 48/48/48 58/58/58
f 60/60/60 47/47/47 48/48/48
f 59/59/59 61/61/61 60/60/60
f 61/61/61 62/62/62 60/60/60
f 62/62/62 47/47/47 60/60/60
f 61/61/61 63/63/63 62/62/62
f 64/64/64 63/63/63 61/61/61
f 64/64/64 65/65/65 63/63/63
f 66/66/66 61/61/61 59/59/59
f 66/66/66 64/64/64 61/61/61
f 57/57/57 66/66/66 59/59/59
f 57/57/57 67/67/67 66/66/66
f 56/56/56 67/67/67 57/57/57
f 56/56/56 68/68/68 67/67/67
f 67/67/67 68/68/68 69/69/69
f 67/67/67 69/69/69 70/70/70
f 66/66/66 67/67/67 70/70/70
f 71/71/71 70/70/70 69/69/69
f 71/71/71 69/69/69 72/72/72
f 73/73/73 70/70/70 71/71/71
f 73/73/73 74/74/74 70/70/70
f 66/66/66 70/70/70 74/74/74
f 64/64/64 66/66/66 74/74/74
f 75/75/75 74/74/74 73/73/73
f 64/64/64 74/74/74 75/75/75
f 65/65/65 64/64/64 75/75/75
f 75/75/75 73/73/73 76/76/76
f 77/77/77 75/75/75 76/76/76
f 65/65/65 75/75/75 77/77/77
f 77/77/77 76/76/76 78/78/78
f 71/71/71 72/72/72 79/79/79
f 71/71/71 79/79/79 80/80/80
f 73/73/73 71/71/71 80/80/80
f 73/73/73 80/80/80 81/81/81
f 76/76/76 73/73/73 81/81/81
f 76/76/76 81/81/81 82/82/82
f 78/78/78 76/76/76 82/82/82
f 78/78/78 82/82/82 83/83/83
f 84/84/84 80/80/80 79/79/79
f 84/84/84 79/79/79 85/85/85
f 86/86/86 80/80/80 84/84/84
f 86/86/86 81/81/81 80/80/80
f 87/87/87 81/81/81 86/86/86
f 87/87/87 82/82/82 81/81/81
f 88/88/88 82/82/82 87/87/87
f 88/88/88 83/83/83 82/82/82
f 87/87/87 89/89/89 88/88/88
f 87/87/87 90/90/90 89/89/89
f 86/86/86 90/90/90 87/87/87
f 90/90/90 91/91/91 89/89/89
f 90/90/90 92/92/92 91/91/91
f 93/93/93 91/91/91 92/92/92
f 93/93/93 92/92/92 94/94/94
f 94/94/94 92/92/92 95/95/95
f 94/94/94 95/95/95 96/96/96
f 96/96/96 95/95/95 97/97/97
f 96/96/96 97/97/97 98/98/98
f 98/98/98 97/97/97 99/99/99
f 98/98/98 99/99/99 100/100/100
f 101/101/101 98/98/98 100/100/100
f 101/101/101 100/100/100 102/102/102
f 103/103/103 98/98/98 101/101/101
f 103/103/103 96/96/96 98/98/98
f 104/104/104 96/96/96 103/103/103
f 104/104/104 94/94/94 96/96/96
f 105/105/105 94/94/94 104/104/104
f 105/105/105 93/93/93 94/94/94
f 106/106/106 92/92/92 90/90/90
f 106/106/106 95/95/95 92/92/92
f 107/107/107 95/95/95 106/106/106
f 107/107/107 97/97/97 95/95/95
f 108/108/108 97/97/97 107/107/107
f 108/108/108 99/99/99 97/97/97
f 101/101/101 102/102/102 109/109/109
f 101/101/101 109/109/109 110/110/110
f 37/37/37 110/110/110 109/109/109
f 37/37/37 109/109/109 34/34/34
f 39/39/39 110/110/110 37/37/37
f 39/39/39 111/111/111 110/110/110
f 111/111/111 101/101/101 110/110/110
f 111/111/111 103/103/103 101/101/101
f 41/41/41 111/111/111 39/39/39
f 41/41/41 112/112/112 111/111/111
f 112/112/112 103/103/103 111/111/111
f 112/112/112 104/104/104 103/103/103
f 43/43/43 112/112/112 41/41/41
f 43/43/43 113/113/113 112/112/112
f 113/113/113 104/104/104 112/112/112
f 113/113/113 105/105/105 104/104/104
f 84/84/84 107/107/107 106/106/106
f 84/84/84 106/106/106 86/86/86
f 86/86/86 106/106/106 90/90/90
f 85/85/85 107/107/107 84/84/84
f 85/85/85 108/108/108 107/107/107
f 34/34/34 109/109/109 1/1/1
f 102/102/102 1/1/1 109/109/109
f 102/102/102 3/3/3 1/1/1
f 102/102/102 6/6/6 3/3/3
f 102/102/102 100/100/100 6/6/6
f 99/99/99 6/6/6 100/100/100
f 99/99/99 7/7/7 6/6/6
f 99/99/99 10/10/10 7/7/7
f 99/99/99 108/108/108 10/10/10
f 85/85/85 10/10/10 108/108/108
f 85/85/85 11/11/11 10/10/10
f 85/85/85 14/14/14 11/11/11
f 85/85/85 79/79/79 14/14/14
f 72/72/72 14/14/14 79/79/79
f 72/72/72 15/15/15 14/14/14
f 72/72/72 18/18/18 15/15/15
f 72/72/72 69/69/69 18/18/18
f 68/68/68 18/18/18 69/69/69
f 68/68/68 19/19/19 18/18/18
f 68/68/68 22/22/22 19/19/19
f 68/68/68 56/56/56 22/22/22
f 55/55/55 22/22/22 56/56/56
f 55/55/55 23/23/23 22/22/22
f 55/55/55 26/26/26 23/23/23
f 55/55/55 52/52/52 26/26/26
f 53/53/53 26/26/26 52/52/52
f 53/53/53 27/27/27 26/26/26
f 53/53/53 30/30/30 27/27/27
f 53/53/53 35/35/35 30/30/30
f 35/35/35 53/53/53 51/51/51
f 35/35/35 51/51/51 36/36/36
f 62/62/62 46/46/46 47/47/47
f 116/116/116 115/115/115 114/114/114
f 116/116/116 117/117/117 115/115/115
f 114/114/114 115/115/115 118/118/118
f 114/114/114 118/118/118 119/119/119
f 118/118/118 120/120/120 119/119/119
f 118/118/118 121/121/121 120/120/120
f 121/121/121 122/122/122 120/120/120
f 121/121/121 123/123/123 122/122/122
f 123/123/123 124/124/124 122/122/122
f 123/123/123 125/125/125 124/124/124
f 125/125/125 126/126/126 124/124/124
f 125/125/125 127/127/127 126/126/126
f 117/117/117 116/116/116 128/128/128
f 117/117/117 128/128/128 129/129/129
f 130/130/130 129/129/129 128/128/128
f 130/130/130 131/131/131 129/129/129
f 131/131/131 130/130/130 132/132/132
f 131/131/131 132/132/132 133/133/133
f 134/134/134 133/133/133 132/132/132
f 134/134/134 135/135/135 133/133/133
f 136/136/136 135/135/135 134/134/134
f 136/136/136 137/137/137 135/135/135
f 138/138/138 137/137/137 136/136/136
f 138/138/138 139/139/139 137/137/137
f 138/138/138 140/140/140 139/139/139
f 138/138/138 141/141/141 140/140/140
f 142/142/142 140/140/140 141/141/141
f 142/142/142 141/141/141 143/143/143
f 143/143/143 144/144/144 142/142/142
f 143/143/143 145/145/145 144/144/144
f 147/147/147 127/127/127 146/146/146
f 147/147/147 126/126/126 127/127/127
