g rctrl:o_button_decal_PLY
v -0.01323379 0.0006680514 -0.01402384
v -0.01322871 0.0006768502 -0.01392992
v -0.01385191 0.0008177849 -0.01325277
v -0.01367619 0.0008179173 -0.01304512
v -0.01320224 0.0006826842 -0.01384051
v -0.01346564 0.0008095238 -0.01288182
v -0.01315636 0.0006854237 -0.01375926
v -0.01309438 0.000685066 -0.01369005
v -0.01321922 0.000792037 -0.01276729
v -0.01301871 0.0006817151 -0.01363471
v -0.01293102 0.0006751229 -0.01359765
v -0.01293702 0.0007651375 -0.01270485
v -0.01283301 0.0006653024 -0.01358076
v -0.01263044 0.0007293129 -0.01270302
v -0.01272685 0.0006524613 -0.01358446
v -0.01261271 0.0006370785 -0.01360422
v -0.01229394 0.0006850017 -0.01275086
v -0.01195776 0.0006398108 -0.01280789
v -0.01194358 0.0005457478 -0.01373156
v -0.01113164 0.0005293935 -0.0129417
v -0.01110245 0.0004352446 -0.0138486
v -0.0105548 0.0004472323 -0.01308574
v -0.01099401 0.0004207679 -0.01386601
v -0.01089745 0.0004064294 -0.01389595
v -0.01081435 0.0003920016 -0.01394262
v -0.01074654 0.0003778086 -0.01400488
v -0.0103237 0.0004071423 -0.01321516
v -0.01069514 0.0003642104 -0.01408048
v -0.01066138 0.0003516613 -0.01416628
v -0.01013229 0.0003679285 -0.01338243
v -0.01064742 0.0003409277 -0.01425719
v -0.009986009 0.0003307258 -0.01358257
v -0.009879465 0.0002947605 -0.013817
v -0.009815044 0.0002357878 -0.01433089
v -0.009863243 0.0002159514 -0.01458579
v -0.009957847 0.000202085 -0.01483548
v -0.01010331 0.0001970318 -0.0150568
v -0.01065381 0.00033244 -0.01434954
v -0.01028725 0.0001999774 -0.01524331
v -0.01068096 0.0003266464 -0.01443934
v -0.01072679 0.0003236758 -0.01452285
v -0.0105053 0.0002105262 -0.01539389
v -0.01078803 0.0003235482 -0.01459602
v -0.01086291 0.0003265654 -0.01465378
v -0.01076312 0.0002303602 -0.01549833
v -0.01094961 0.000332688 -0.01469437
v -0.01104569 0.0003417109 -0.01471699
v -0.0110556 0.0002599944 -0.01554551
v -0.01125945 0.0003673802 -0.01471136
v -0.01137582 0.0002981758 -0.0155398
v -0.01159452 0.0003269588 -0.01550888
v -0.0119616 0.0003753552 -0.01545607
v -0.01194678 0.0004567738 -0.01462477
v -0.01274655 0.0004812962 -0.01531867
v -0.01276512 0.0005684618 -0.01446912
v -0.01307794 0.0005271381 -0.0152495
v -0.01287671 0.0005843381 -0.01444142
v -0.01297587 0.0005998233 -0.01440305
v -0.01306102 0.0006151238 -0.01435007
v -0.01336606 0.000572286 -0.01513648
v -0.01313042 0.0006299212 -0.01428364
v -0.01318293 0.0006438651 -0.01420591
v -0.01361028 0.0006165078 -0.01498116
v -0.01321799 0.0006567611 -0.01411815
v -0.01380433 0.0006588496 -0.01478572
v -0.01394753 0.0006989324 -0.01455318
v -0.01404143 0.0007357192 -0.01429568
v -0.01408026 0.0007675395 -0.01402317
v -0.01405963 0.0007924137 -0.01375029
v -0.01398257 0.0008092413 -0.01349161
v -0.01323379 0.0006680514 -0.01402384
v -0.01322871 0.0006768502 -0.01392992
v -0.01385191 0.0008177849 -0.01325277
v -0.01367619 0.0008179173 -0.01304512
v -0.01320224 0.0006826842 -0.01384051
v -0.01346564 0.0008095238 -0.01288182
v -0.01315636 0.0006854237 -0.01375926
v -0.01309438 0.000685066 -0.01369005
v -0.01321922 0.000792037 -0.01276729
v -0.01301871 0.0006817151 -0.01363471
v -0.01293102 0.0006751229 -0.01359765
v -0.01293702 0.0007651375 -0.01270485
v -0.01283301 0.0006653024 -0.01358076
v -0.01263044 0.0007293129 -0.01270302
v -0.01272685 0.0006524613 -0.01358446
v -0.01261271 0.0006370785 -0.01360422
v -0.01229394 0.0006850017 -0.01275086
v -0.01195776 0.0006398108 -0.01280789
v -0.01194358 0.0005457478 -0.01373156
v -0.01113164 0.0005293935 -0.0129417
v -0.01110245 0.0004352446 -0.0138486
v -0.0105548 0.0004472323 -0.01308574
v -0.01099401 0.0004207679 -0.01386601
v -0.01089745 0.0004064294 -0.01389595
v -0.01081435 0.0003920016 -0.01394262
v -0.01074654 0.0003778086 -0.01400488
v -0.0103237 0.0004071423 -0.01321516
v -0.01069514 0.0003642104 -0.01408048
v -0.01066138 0.0003516613 -0.01416628
v -0.01013229 0.0003679285 -0.01338243
v -0.01064742 0.0003409277 -0.01425719
v -0.009986009 0.0003307258 -0.01358257
v -0.009879465 0.0002947605 -0.013817
v -0.009815044 0.0002357878 -0.01433089
v -0.009863243 0.0002159514 -0.01458579
v -0.009957847 0.000202085 -0.01483548
v -0.01010331 0.0001970318 -0.0150568
v -0.01065381 0.00033244 -0.01434954
v -0.01028725 0.0001999774 -0.01524331
v -0.01068096 0.0003266464 -0.01443934
v -0.01072679 0.0003236758 -0.01452285
v -0.0105053 0.0002105262 -0.01539389
v -0.01078803 0.0003235482 -0.01459602
v -0.01086291 0.0003265654 -0.01465378
v -0.01076312 0.0002303602 -0.01549833
v -0.01094961 0.000332688 -0.01469437
v -0.01104569 0.0003417109 -0.01471699
v -0.0110556 0.0002599944 -0.01554551
v -0.01125945 0.0003673802 -0.01471136
v -0.01137582 0.0002981758 -0.0155398
v -0.01159452 0.0003269588 -0.01550888
v -0.0119616 0.0003753552 -0.01545607
v -0.01194678 0.0004567738 -0.01462477
v -0.01274655 0.0004812962 -0.01531867
v -0.01276512 0.0005684618 -0.01446912
v -0.01307794 0.0005271381 -0.0152495
v -0.01287671 0.0005843381 -0.01444142
v -0.01297587 0.0005998233 -0.01440305
v -0.01306102 0.0006151238 -0.01435007
v -0.01336606 0.000572286 -0.01513648
v -0.01313042 0.0006299212 -0.01428364
v -0.01318293 0.0006438651 -0.01420591
v -0.01361028 0.0006165078 -0.01498116
v -0.01321799 0.0006567611 -0.01411815
v -0.01380433 0.0006588496 -0.01478572
v -0.01394753 0.0006989324 -0.01455318
v -0.01404143 0.0007357192 -0.01429568
v -0.01408026 0.0007675395 -0.01402317
v -0.01405963 0.0007924137 -0.01375029
v -0.01398257 0.0008092413 -0.01349161
vt 0.2226539 0.132821
vt 0.2227776 0.1316027
vt 0.2321834 0.1244242
vt 0.2303207 0.121342
vt 0.2226169 0.1303842
vt 0.2279121 0.1187484
vt 0.2221908 0.1292194
vt 0.221535 0.1281679
vt 0.2249531 0.1167205
vt 0.2206784 0.1272824
vt 0.2196336 0.1265972
vt 0.2214422 0.1153055
vt 0.2184207 0.1261402
vt 0.217512 0.1146075
vt 0.2170684 0.1259211
vt 0.2155905 0.1258822
vt 0.2131136 0.1145021
vt 0.2087168 0.1145164
vt 0.2069687 0.125914
vt 0.1977829 0.1145887
vt 0.1958018 0.1259909
vt 0.1899124 0.1153361
vt 0.1943203 0.1260448
vt 0.192969 0.1262756
vt 0.1917632 0.1267408
vt 0.1907306 0.1274293
vt 0.1865968 0.1165638
vt 0.1898927 0.1283145
vt 0.1892599 0.1293679
vt 0.1837463 0.1183503
vt 0.1888629 0.1305359
vt 0.1813558 0.1206792
vt 0.1794417 0.1235246
vt 0.1774299 0.1301328
vt 0.1774798 0.1335845
vt 0.1782506 0.1369918
vt 0.17968 0.1401817
vt 0.188738 0.1317549
vt 0.181679 0.1430062
vt 0.1889007 0.1329717
vt 0.1893313 0.1341328
vt 0.1842454 0.1453856
vt 0.189994 0.1351789
vt 0.1908594 0.1360577
vt 0.1874316 0.1472334
vt 0.1919153 0.1367347
vt 0.1931409 0.1371826
vt 0.1911799 0.1484098
vt 0.1959991 0.1374211
vt 0.1954399 0.1488716
vt 0.1983742 0.1488706
vt 0.2032887 0.1488401
vt 0.2051593 0.137355
vt 0.2136956 0.1487889
vt 0.2157876 0.1373123
vt 0.2181114 0.1486601
vt 0.2172549 0.1372682
vt 0.2185922 0.137047
vt 0.2197849 0.1365913
vt 0.2220692 0.1479319
vt 0.2208062 0.1359114
vt 0.2216352 0.1350335
vt 0.225557 0.146478
vt 0.2222611 0.1339855
vt 0.2284794 0.1443716
vt 0.2308224 0.1416748
vt 0.2325609 0.1384914
vt 0.2336146 0.1350061
vt 0.233903 0.1314086
vt 0.233409 0.1278367
vt 0.2226539 0.132821
vt 0.2227776 0.1316027
vt 0.2321834 0.1244242
vt 0.2303207 0.121342
vt 0.2226169 0.1303842
vt 0.2279121 0.1187484
vt 0.2221908 0.1292194
vt 0.221535 0.1281679
vt 0.2249531 0.1167205
vt 0.2206784 0.1272824
vt 0.2196336 0.1265972
vt 0.2214422 0.1153055
vt 0.2184207 0.1261402
vt 0.217512 0.1146075
vt 0.2170684 0.1259211
vt 0.2155905 0.1258822
vt 0.2131136 0.1145021
vt 0.2087168 0.1145164
vt 0.2069687 0.125914
vt 0.1977829 0.1145887
vt 0.1958018 0.1259909
vt 0.1899124 0.1153361
vt 0.1943203 0.1260448
vt 0.192969 0.1262756
vt 0.1917632 0.1267408
vt 0.1907306 0.1274293
vt 0.1865968 0.1165638
vt 0.1898927 0.1283145
vt 0.1892599 0.1293679
vt 0.1837463 0.1183503
vt 0.1888629 0.1305359
vt 0.1813558 0.1206792
vt 0.1794417 0.1235246
vt 0.1774299 0.1301328
vt 0.1774798 0.1335845
vt 0.1782506 0.1369918
vt 0.17968 0.1401817
vt 0.188738 0.1317549
vt 0.181679 0.1430062
vt 0.1889007 0.1329717
vt 0.1893313 0.1341328
vt 0.1842454 0.1453856
vt 0.189994 0.1351789
vt 0.1908594 0.1360577
vt 0.1874316 0.1472334
vt 0.1919153 0.1367347
vt 0.1931409 0.1371826
vt 0.1911799 0.1484098
vt 0.1959991 0.1374211
vt 0.1954399 0.1488716
vt 0.1983742 0.1488706
vt 0.2032887 0.1488401
vt 0.2051593 0.137355
vt 0.2136956 0.1487889
vt 0.2157876 0.1373123
vt 0.2181114 0.1486601
vt 0.2172549 0.1372682
vt 0.2185922 0.137047
vt 0.2197849 0.1365913
vt 0.2220692 0.1479319
vt 0.2208062 0.1359114
vt 0.2216352 0.1350335
vt 0.225557 0.146478
vt 0.2222611 0.1339855
vt 0.2284794 0.1443716
vt 0.2308224 0.1416748
vt 0.2325609 0.1384914
vt 0.2336146 0.1350061
vt 0.233903 0.1314086
vt 0.233409 0.1278367
vn 0.116083 0.9883068 -0.09886559
vn 0.1160878 0.9883065 -0.09886283
vn 0.116081 0.9883078 -0.09885824
vn 0.1160781 0.9883079 -0.09886122
vn 0.1160833 0.9883072 -0.09886213
vn 0.1160837 0.9883066 -0.09886736
vn 0.1160681 0.9883095 -0.09885593
vn 0.116085 0.9883069 -0.09886191
vn 0.1160852 0.9883063 -0.09886713
vn 0.1160665 0.98831 -0.09885356
vn 0.1160704 0.9883089 -0.0988594
vn 0.1160819 0.9883069 -0.09886617
vn 0.1160737 0.9883085 -0.09885806
vn 0.1160801 0.9883074 -0.09886307
vn 0.1160882 0.988306 -0.09886739
vn 0.1160821 0.9883069 -0.09886484
vn 0.1160819 0.9883072 -0.09886324
vn 0.1160813 0.9883073 -0.09886348
vn 0.1160818 0.9883072 -0.0988638
vn 0.1160802 0.9883074 -0.09886263
vn 0.1160821 0.9883071 -0.09886403
vn 0.116081 0.9883073 -0.09886368
vn 0.1160819 0.9883072 -0.09886334
vn 0.1160837 0.9883068 -0.09886476
vn 0.116072 0.9883089 -0.09885743
vn 0.1160749 0.9883083 -0.0988603
vn 0.1160823 0.9883071 -0.09886458
vn 0.1161067 0.9883025 -0.09888072
vn 0.1160828 0.9883069 -0.09886406
vn 0.1160775 0.988308 -0.09886044
vn 0.1160815 0.9883073 -0.09886288
vn 0.116083 0.9883069 -0.09886477
vn 0.1160818 0.9883072 -0.0988635
vn 0.1160819 0.9883072 -0.09886306
vn 0.1160832 0.9883067 -0.09886638
vn 0.1160809 0.9883075 -0.09886123
vn 0.1160752 0.9883084 -0.09885842
vn 0.1160863 0.9883063 -0.09886658
vn 0.1160779 0.9883078 -0.09886242
vn 0.1160966 0.9883037 -0.09888072
vn 0.1160758 0.9883079 -0.09886309
vn 0.1160802 0.9883074 -0.09886327
vn 0.1160703 0.9883089 -0.09885935
vn 0.1160838 0.9883067 -0.09886513
vn 0.1160796 0.9883075 -0.0988628
vn 0.1160823 0.9883072 -0.09886233
vn 0.1160877 0.9883058 -0.09887074
vn 0.1160779 0.9883078 -0.09886195
vn 0.1160822 0.9883069 -0.09886533
vn 0.1160813 0.9883073 -0.09886318
vn 0.1160829 0.9883071 -0.09886388
vn 0.1160816 0.9883071 -0.09886456
vn 0.116081 0.9883072 -0.09886442
vn 0.1160809 0.9883072 -0.09886426
vn 0.1160811 0.9883071 -0.09886514
vn 0.1160825 0.9883069 -0.09886486
vn 0.1160829 0.9883065 -0.09886871
vn 0.1160845 0.9883067 -0.09886473
vn 0.1160737 0.9883088 -0.09885617
vn 0.1160846 0.9883066 -0.09886596
vn 0.1161093 0.9883019 -0.09888305
vn 0.1160668 0.98831 -0.09885245
vn 0.1160808 0.9883073 -0.09886291
vn 0.1160781 0.9883078 -0.0988625
vn 0.1160799 0.9883074 -0.09886353
vn 0.1160808 0.9883072 -0.0988645
vn 0.116078 0.9883079 -0.09886045
vn 0.1160791 0.9883075 -0.09886314
vn 0.1160785 0.9883072 -0.09886685
vn 0.116084 0.9883067 -0.09886552
vn 0.116083 0.9883068 -0.09886559
vn 0.1160878 0.9883065 -0.09886283
vn 0.116081 0.9883078 -0.09885824
vn 0.1160781 0.9883079 -0.09886122
vn 0.1160833 0.9883072 -0.09886213
vn 0.1160837 0.9883066 -0.09886736
vn 0.1160681 0.9883095 -0.09885593
vn 0.116085 0.9883069 -0.09886191
vn 0.1160852 0.9883063 -0.09886713
vn 0.1160665 0.98831 -0.09885356
vn 0.1160704 0.9883089 -0.0988594
vn 0.1160819 0.9883069 -0.09886617
vn 0.1160737 0.9883085 -0.09885806
vn 0.1160801 0.9883074 -0.09886307
vn 0.1160882 0.988306 -0.09886739
vn 0.1160821 0.9883069 -0.09886484
vn 0.1160819 0.9883072 -0.09886324
vn 0.1160813 0.9883073 -0.09886348
vn 0.1160818 0.9883072 -0.0988638
vn 0.1160802 0.9883074 -0.09886263
vn 0.1160821 0.9883071 -0.09886403
vn 0.116081 0.9883073 -0.09886368
vn 0.1160819 0.9883072 -0.09886334
vn 0.1160837 0.9883068 -0.09886476
vn 0.116072 0.9883089 -0.09885743
vn 0.1160749 0.9883083 -0.0988603
vn 0.1160823 0.9883071 -0.09886458
vn 0.1161067 0.9883025 -0.09888072
vn 0.1160828 0.9883069 -0.09886406
vn 0.1160775 0.988308 -0.09886044
vn 0.1160815 0.9883073 -0.09886288
vn 0.116083 0.9883069 -0.09886477
vn 0.1160818 0.9883072 -0.0988635
vn 0.1160819 0.9883072 -0.09886306
vn 0.1160832 0.9883067 -0.09886638
vn 0.1160809 0.9883075 -0.09886123
vn 0.1160752 0.9883084 -0.09885842
vn 0.1160863 0.9883063 -0.09886658
vn 0.1160779 0.9883078 -0.09886242
vn 0.1160966 0.9883037 -0.09888072
vn 0.1160758 0.9883079 -0.09886309
vn 0.1160802 0.9883074 -0.09886327
vn 0.1160703 0.9883089 -0.09885935
vn 0.1160838 0.9883067 -0.09886513
vn 0.1160796 0.9883075 -0.0988628
vn 0.1160823 0.9883072 -0.09886233
vn 0.1160877 0.9883058 -0.09887074
vn 0.1160779 0.9883078 -0.09886195
vn 0.1160822 0.9883069 -0.09886533
vn 0.1160813 0.9883073 -0.09886318
vn 0.1160829 0.9883071 -0.09886388
vn 0.1160816 0.9883071 -0.09886456
vn 0.116081 0.9883072 -0.09886442
vn 0.1160809 0.9883072 -0.09886426
vn 0.1160811 0.9883071 -0.09886514
vn 0.1160825 0.9883069 -0.09886486
vn 0.1160829 0.9883065 -0.09886871
vn 0.1160845 0.9883067 -0.09886473
vn 0.1160737 0.9883088 -0.09885617
vn 0.1160846 0.9883066 -0.09886596
vn 0.1161093 0.9883019 -0.09888305
vn 0.1160668 0.98831 -0.09885245
vn 0.1160808 0.9883073 -0.09886291
vn 0.1160781 0.9883078 -0.0988625
vn 0.1160799 0.9883074 -0.09886353
vn 0.1160808 0.9883072 -0.0988645
vn 0.116078 0.9883079 -0.09886045
vn 0.1160791 0.9883075 -0.09886314
vn 0.1160785 0.9883072 -0.09886685
vn 0.116084 0.9883067 -0.09886552
g rctrl:o_button_decal_PLY_0
f 3/3/3 2/2/2 1/1/1
f 3/3/3 4/4/4 2/2/2
f 4/4/4 5/5/5 2/2/2
f 4/4/4 6/6/6 5/5/5
f 6/6/6 7/7/7 5/5/5
f 8/8/8 7/7/7 6/6/6
f 6/6/6 9/9/9 8/8/8
f 9/9/9 10/10/10 8/8/8
f 11/11/11 10/10/10 9/9/9
f 9/9/9 12/12/12 11/11/11
f 13/13/13 11/11/11 12/12/12
f 13/13/13 12/12/12 14/14/14
f 13/13/13 14/14/14 15/15/15
f 14/14/14 16/16/16 15/15/15
f 16/16/16 14/14/14 17/17/17
f 16/16/16 17/17/17 18/18/18
f 18/18/18 19/19/19 16/16/16
f 19/19/19 18/18/18 20/20/20
f 20/20/20 21/21/21 19/19/19
f 21/21/21 20/20/20 22/22/22
f 22/22/22 23/23/23 21/21/21
f 22/22/22 24/24/24 23/23/23
f 22/22/22 25/25/25 24/24/24
f 22/22/22 26/26/26 25/25/25
f 26/26/26 22/22/22 27/27/27
f 27/27/27 28/28/28 26/26/26
f 29/29/29 28/28/28 27/27/27
f 29/29/29 27/27/27 30/30/30
f 31/31/31 29/29/29 30/30/30
f 31/31/31 30/30/30 32/32/32
f 31/31/31 32/32/32 33/33/33
f 31/31/31 33/33/33 34/34/34
f 34/34/34 35/35/35 31/31/31
f 35/35/35 36/36/36 31/31/31
f 36/36/36 37/37/37 31/31/31
f 37/37/37 38/38/38 31/31/31
f 37/37/37 39/39/39 38/38/38
f 39/39/39 40/40/40 38/38/38
f 41/41/41 40/40/40 39/39/39
f 39/39/39 42/42/42 41/41/41
f 43/43/43 41/41/41 42/42/42
f 44/44/44 43/43/43 42/42/42
f 42/42/42 45/45/45 44/44/44
f 46/46/46 44/44/44 45/45/45
f 47/47/47 46/46/46 45/45/45
f 45/45/45 48/48/48 47/47/47
f 49/49/49 47/47/47 48/48/48
f 48/48/48 50/50/50 49/49/49
f 49/49/49 50/50/50 51/51/51
f 49/49/49 51/51/51 52/52/52
f 52/52/52 53/53/53 49/49/49
f 53/53/53 52/52/52 54/54/54
f 54/54/54 55/55/55 53/53/53
f 55/55/55 54/54/54 56/56/56
f 56/56/56 57/57/57 55/55/55
f 56/56/56 58/58/58 57/57/57
f 59/59/59 58/58/58 56/56/56
f 59/59/59 56/56/56 60/60/60
f 60/60/60 61/61/61 59/59/59
f 62/62/62 61/61/61 60/60/60
f 62/62/62 60/60/60 63/63/63
f 64/64/64 62/62/62 63/63/63
f 64/64/64 63/63/63 65/65/65
f 1/1/1 64/64/64 65/65/65
f 1/1/1 65/65/65 66/66/66
f 1/1/1 66/66/66 67/67/67
f 1/1/1 67/67/67 68/68/68
f 68/68/68 69/69/69 1/1/1
f 69/69/69 70/70/70 1/1/1
f 70/70/70 3/3/3 1/1/1
f 73/73/73 72/72/72 71/71/71
f 73/73/73 74/74/74 72/72/72
f 74/74/74 75/75/75 72/72/72
f 74/74/74 76/76/76 75/75/75
f 76/76/76 77/77/77 75/75/75
f 78/78/78 77/77/77 76/76/76
f 76/76/76 79/79/79 78/78/78
f 79/79/79 80/80/80 78/78/78
f 81/81/81 80/80/80 79/79/79
f 79/79/79 82/82/82 81/81/81
f 83/83/83 81/81/81 82/82/82
f 83/83/83 82/82/82 84/84/84
f 83/83/83 84/84/84 85/85/85
f 84/84/84 86/86/86 85/85/85
f 86/86/86 84/84/84 87/87/87
f 86/86/86 87/87/87 88/88/88
f 88/88/88 89/89/89 86/86/86
f 89/89/89 88/88/88 90/90/90
f 90/90/90 91/91/91 89/89/89
f 91/91/91 90/90/90 92/92/92
f 92/92/92 93/93/93 91/91/91
f 92/92/92 94/94/94 93/93/93
f 92/92/92 95/95/95 94/94/94
f 92/92/92 96/96/96 95/95/95
f 96/96/96 92/92/92 97/97/97
f 97/97/97 98/98/98 96/96/96
f 99/99/99 98/98/98 97/97/97
f 99/99/99 97/97/97 100/100/100
f 101/101/101 99/99/99 100/100/100
f 101/101/101 100/100/100 102/102/102
f 101/101/101 102/102/102 103/103/103
f 101/101/101 103/103/103 104/104/104
f 104/104/104 105/105/105 101/101/101
f 105/105/105 106/106/106 101/101/101
f 106/106/106 107/107/107 101/101/101
f 107/107/107 108/108/108 101/101/101
f 107/107/107 109/109/109 108/108/108
f 109/109/109 110/110/110 108/108/108
f 111/111/111 110/110/110 109/109/109
f 109/109/109 112/112/112 111/111/111
f 113/113/113 111/111/111 112/112/112
f 114/114/114 113/113/113 112/112/112
f 112/112/112 115/115/115 114/114/114
f 116/116/116 114/114/114 115/115/115
f 117/117/117 116/116/116 115/115/115
f 115/115/115 118/118/118 117/117/117
f 119/119/119 117/117/117 118/118/118
f 118/118/118 120/120/120 119/119/119
f 119/119/119 120/120/120 121/121/121
f 119/119/119 121/121/121 122/122/122
f 122/122/122 123/123/123 119/119/119
f 123/123/123 122/122/122 124/124/124
f 124/124/124 125/125/125 123/123/123
f 125/125/125 124/124/124 126/126/126
f 126/126/126 127/127/127 125/125/125
f 126/126/126 128/128/128 127/127/127
f 129/129/129 128/128/128 126/126/126
f 129/129/129 126/126/126 130/130/130
f 130/130/130 131/131/131 129/129/129
f 132/132/132 131/131/131 130/130/130
f 132/132/132 130/130/130 133/133/133
f 134/134/134 132/132/132 133/133/133
f 134/134/134 133/133/133 135/135/135
f 71/71/71 134/134/134 135/135/135
f 71/71/71 135/135/135 136/136/136
f 71/71/71 136/136/136 137/137/137
f 71/71/71 137/137/137 138/138/138
f 138/138/138 139/139/139 71/71/71
f 139/139/139 140/140/140 71/71/71
f 140/140/140 73/73/73 71/71/71
