g RightBG
v 0 4.656613E-11 -0.0065
v 0 9.999995E-05 -0.0065
v 0 9.999995E-05 0.0025
v 0 4.656613E-11 0.0025
v 0 9.999995E-05 0.0025
v 0 9.999995E-05 -0.0065
v 0.0001 9.999995E-05 -0.0065
v 0.0007211657 9.999994E-05 -0.006418222
v 0.0013 9.999992E-05 -0.006178461
v 0.001797056 9.999991E-05 -0.005797056
v 0.002178461 9.999991E-05 -0.005299999
v 0.002418222 9.99999E-05 -0.004721165
v 0.0025 9.99999E-05 -0.0041
v 0.0025 9.99999E-05 0.0001
v 0.002418222 9.99999E-05 0.0007211657
v 0.002178461 9.999991E-05 0.0013
v 0.001797056 9.999992E-05 0.001797056
v 0.0013 9.999993E-05 0.002178461
v 0.0007211658 9.999994E-05 0.002418222
v 0.0001000002 9.999995E-05 0.0025
v 0.0007211658 3.313337E-11 -0.006418222
v 0.0001000002 4.470348E-11 -0.0065
v 0 4.656613E-11 -0.0065
v 0 4.656613E-11 0.0025
v 0.0013 2.235174E-11 -0.006178461
v 0.001797056 1.309335E-11 -0.005797056
v 0.002178461 5.989129E-12 -0.005299999
v 0.002418222 1.523235E-12 -0.004721166
v 0.0025 0 -0.0041
v 0.0025 0 0.0001000002
v 0.002418222 1.523237E-12 0.0007211658
v 0.002178461 5.989135E-12 0.0013
v 0.001797056 1.309335E-11 0.001797056
v 0.0013 2.235174E-11 0.002178461
v 0.0007211657 3.313337E-11 0.002418222
v 0.0001 4.470348E-11 0.0025
v 0 9.999995E-05 -0.0065
v 0 4.656613E-11 -0.0065
v 0.0001000002 4.470348E-11 -0.0065
v 0.0001 9.999995E-05 -0.0065
v 0.0001000002 9.999995E-05 0.0025
v 0.0007211658 9.999994E-05 0.002418222
v 0.0007211657 3.313337E-11 0.002418222
v 0.0001 4.470348E-11 0.0025
v 0.0007211658 9.999994E-05 0.002418222
v 0.0013 9.999993E-05 0.002178461
v 0.0013 2.235174E-11 0.002178461
v 0.0007211657 3.313337E-11 0.002418222
v 0.0013 9.999993E-05 0.002178461
v 0.001797056 9.999992E-05 0.001797056
v 0.001797056 1.309335E-11 0.001797056
v 0.0013 2.235174E-11 0.002178461
v 0.001797056 9.999992E-05 0.001797056
v 0.002178461 9.999991E-05 0.0013
v 0.002178461 5.989135E-12 0.0013
v 0.001797056 1.309335E-11 0.001797056
v 0.002178461 9.999991E-05 0.0013
v 0.002418222 9.99999E-05 0.0007211657
v 0.002418222 1.523237E-12 0.0007211658
v 0.002178461 5.989135E-12 0.0013
v 0.002418222 9.99999E-05 0.0007211657
v 0.0025 9.99999E-05 0.0001
v 0.0025 0 0.0001000002
v 0.002418222 1.523237E-12 0.0007211658
v 0.0001000002 9.999995E-05 0.0025
v 0.0001 4.470348E-11 0.0025
v 0 4.656613E-11 0.0025
v 0 9.999995E-05 0.0025
v 0.0001000002 4.470348E-11 -0.0065
v 0.0007211658 3.313337E-11 -0.006418222
v 0.0007211657 9.999994E-05 -0.006418222
v 0.0001 9.999995E-05 -0.0065
v 0.0007211658 3.313337E-11 -0.006418222
v 0.0013 2.235174E-11 -0.006178461
v 0.0013 9.999992E-05 -0.006178461
v 0.0007211657 9.999994E-05 -0.006418222
v 0.0013 2.235174E-11 -0.006178461
v 0.001797056 1.309335E-11 -0.005797056
v 0.001797056 9.999991E-05 -0.005797056
v 0.0013 9.999992E-05 -0.006178461
v 0.001797056 1.309335E-11 -0.005797056
v 0.002178461 5.989129E-12 -0.005299999
v 0.002178461 9.999991E-05 -0.005299999
v 0.001797056 9.999991E-05 -0.005797056
v 0.002178461 5.989129E-12 -0.005299999
v 0.002418222 1.523235E-12 -0.004721166
v 0.002418222 9.99999E-05 -0.004721165
v 0.002178461 9.999991E-05 -0.005299999
v 0.002418222 1.523235E-12 -0.004721166
v 0.0025 0 -0.0041
v 0.0025 9.99999E-05 -0.0041
v 0.002418222 9.99999E-05 -0.004721165
v 0.0025 9.99999E-05 -0.0041
v 0.0025 0 -0.0041
v 0.0025 0 0.0001000002
v 0.0025 9.99999E-05 0.0001
vn -1 0 0
vn -1 0 0
vn -1 0 0
vn -1 0 0
vn 0 1 0
vn 0 1 0
vn 0 1 0
vn 0 1 0
vn 0 1 0
vn 0 1 0
vn 0 1 0
vn 0 1 0
vn 0 1 0
vn 0 1 0
vn 0 1 0
vn 0 1 0
vn 0 1 0
vn 0 1 0
vn 0 1 0
vn 0 1 0
vn 0 -1 0
vn 0 -1 0
vn 0 -1 0
vn 0 -1 0
vn 0 -1 0
vn 0 -1 0
vn 0 -1 0
vn 0 -1 0
vn 0 -1 0
vn 0 -1 0
vn 0 -1 0
vn 0 -1 0
vn 0 -1 0
vn 0 -1 0
vn 0 -1 0
vn 0 -1 0
vn 1.210721E-06 0 -1
vn 1.210721E-06 0 -1
vn 1.210721E-06 0 -1
vn 1.210721E-06 0 -1
vn 0.1305264 5.074356E-07 0.9914449
vn 0.1305264 5.074356E-07 0.9914449
vn 0.1305264 5.074356E-07 0.9914449
vn 0.1305264 5.074356E-07 0.9914449
vn 0.3826829 1.352705E-06 0.9238797
vn 0.3826829 1.352705E-06 0.9238797
vn 0.3826829 1.352705E-06 0.9238797
vn 0.3826829 1.352705E-06 0.9238797
vn 0.6087617 3.724841E-07 0.7933532
vn 0.6087617 3.724841E-07 0.7933532
vn 0.6087617 3.724841E-07 0.7933532
vn 0.6087617 3.724841E-07 0.7933532
vn 0.7933533 -1.529485E-06 0.6087614
vn 0.7933533 -1.529485E-06 0.6087614
vn 0.7933533 -1.529485E-06 0.6087614
vn 0.7933533 -1.529485E-06 0.6087614
vn 0.9238795 -1.680989E-06 0.3826834
vn 0.9238795 -1.680989E-06 0.3826834
vn 0.9238795 -1.680989E-06 0.3826834
vn 0.9238795 -1.680989E-06 0.3826834
vn 0.9914449 0 0.1305263
vn 0.9914449 0 0.1305263
vn 0.9914449 0 0.1305263
vn 0.9914449 0 0.1305263
vn 4.656618E-07 0 1
vn 4.656618E-07 0 1
vn 4.656618E-07 0 1
vn 4.656618E-07 0 1
vn 0.1305271 1.858111E-07 -0.9914448
vn 0.1305271 1.858111E-07 -0.9914448
vn 0.1305271 1.858111E-07 -0.9914448
vn 0.1305271 1.858111E-07 -0.9914448
vn 0.3826819 7.432449E-07 -0.9238801
vn 0.3826819 7.432449E-07 -0.9238801
vn 0.3826819 7.432449E-07 -0.9238801
vn 0.3826819 7.432449E-07 -0.9238801
vn 0.6087616 2.229733E-06 -0.7933532
vn 0.6087616 2.229733E-06 -0.7933532
vn 0.6087616 2.229733E-06 -0.7933532
vn 0.6087616 2.229733E-06 -0.7933532
vn 0.7933536 2.972976E-06 -0.6087613
vn 0.7933536 2.972976E-06 -0.6087613
vn 0.7933536 2.972976E-06 -0.6087613
vn 0.7933536 2.972976E-06 -0.6087613
vn 0.9238794 2.58398E-06 -0.3826835
vn 0.9238794 2.58398E-06 -0.3826835
vn 0.9238794 2.58398E-06 -0.3826835
vn 0.9238794 2.58398E-06 -0.3826835
vn 0.9914449 0 -0.1305263
vn 0.9914449 0 -0.1305263
vn 0.9914449 0 -0.1305263
vn 0.9914449 0 -0.1305263
vn 1 1.77395E-06 0
vn 1 1.77395E-06 0
vn 1 1.77395E-06 0
vn 1 1.77395E-06 0
g RightBG_0
f 3/3/3 2/2/2 1/1/1
f 4/4/4 3/3/3 1/1/1
f 7/7/7 6/6/6 5/5/5
f 5/5/5 8/8/8 7/7/7
f 5/5/5 9/9/9 8/8/8
f 5/5/5 10/10/10 9/9/9
f 5/5/5 11/11/11 10/10/10
f 5/5/5 12/12/12 11/11/11
f 5/5/5 13/13/13 12/12/12
f 5/5/5 14/14/14 13/13/13
f 5/5/5 15/15/15 14/14/14
f 5/5/5 16/16/16 15/15/15
f 5/5/5 17/17/17 16/16/16
f 5/5/5 18/18/18 17/17/17
f 5/5/5 19/19/19 18/18/18
f 5/5/5 20/20/20 19/19/19
f 23/23/23 22/22/22 21/21/21
f 21/21/21 24/24/24 23/23/23
f 21/21/21 25/25/25 24/24/24
f 25/25/25 26/26/26 24/24/24
f 26/26/26 27/27/27 24/24/24
f 27/27/27 28/28/28 24/24/24
f 28/28/28 29/29/29 24/24/24
f 29/29/29 30/30/30 24/24/24
f 30/30/30 31/31/31 24/24/24
f 31/31/31 32/32/32 24/24/24
f 32/32/32 33/33/33 24/24/24
f 33/33/33 34/34/34 24/24/24
f 34/34/34 35/35/35 24/24/24
f 35/35/35 36/36/36 24/24/24
f 39/39/39 38/38/38 37/37/37
f 40/40/40 39/39/39 37/37/37
f 43/43/43 42/42/42 41/41/41
f 44/44/44 43/43/43 41/41/41
f 47/47/47 46/46/46 45/45/45
f 48/48/48 47/47/47 45/45/45
f 51/51/51 50/50/50 49/49/49
f 52/52/52 51/51/51 49/49/49
f 55/55/55 54/54/54 53/53/53
f 56/56/56 55/55/55 53/53/53
f 59/59/59 58/58/58 57/57/57
f 60/60/60 59/59/59 57/57/57
f 63/63/63 62/62/62 61/61/61
f 64/64/64 63/63/63 61/61/61
f 67/67/67 66/66/66 65/65/65
f 68/68/68 67/67/67 65/65/65
f 71/71/71 70/70/70 69/69/69
f 72/72/72 71/71/71 69/69/69
f 75/75/75 74/74/74 73/73/73
f 76/76/76 75/75/75 73/73/73
f 79/79/79 78/78/78 77/77/77
f 80/80/80 79/79/79 77/77/77
f 83/83/83 82/82/82 81/81/81
f 84/84/84 83/83/83 81/81/81
f 87/87/87 86/86/86 85/85/85
f 88/88/88 87/87/87 85/85/85
f 91/91/91 90/90/90 89/89/89
f 92/92/92 91/91/91 89/89/89
f 95/95/95 94/94/94 93/93/93
f 96/96/96 95/95/95 93/93/93
