g RightBorder
v 0 4.656613E-11 -0.0068
v 0 9.999995E-05 -0.0068
v 0 9.999995E-05 -0.0065
v 0 4.656613E-11 -0.0065
v 0 9.999995E-05 0.0028
v 0 9.999995E-05 0.002499999
v 0.0001000001 9.999996E-05 0.0025
v 0.0007988113 9.999994E-05 0.002708
v 9.99999E-05 9.999995E-05 0.0028
v 0.00145 9.999993E-05 0.002438268
v 0.0007211657 9.999996E-05 0.002418222
v 0.0013 9.99999E-05 0.002178461
v 0.002009188 9.999992E-05 0.002009188
v 0.001797056 9.999992E-05 0.001797056
v 0.002438269 9.999991E-05 0.00145
v 0.002178461 9.999988E-05 0.0013
v 0.002708 9.99999E-05 0.0007988114
v 0.002418222 9.999988E-05 0.0007211657
v 0.0025 9.999992E-05 0.0001000001
v 0.0028 9.99999E-05 9.99999E-05
v 0.0025 9.999992E-05 -0.0041
v 0.0028 9.99999E-05 -0.0041
v 0.002418222 9.999992E-05 -0.004721165
v 0.002708 9.99999E-05 -0.004798811
v 0.002178461 9.999992E-05 -0.005299999
v 0.002438268 9.999991E-05 -0.00545
v 0.001797056 9.999992E-05 -0.005797056
v 0.002009188 9.999991E-05 -0.006009189
v 0.0013 9.999994E-05 -0.006178461
v 0.0007211657 9.999996E-05 -0.006418222
v 0.00145 9.999992E-05 -0.006438269
v 0.0001000001 9.999996E-05 -0.0065
v 0.0007988114 9.999994E-05 -0.006707999
v 0 9.999995E-05 -0.0065
v 9.99999E-05 9.999995E-05 -0.0068
v 0 9.999995E-05 -0.0068
v 0.00145 2.245153E-11 -0.006438269
v 0.0007988113 3.328129E-11 -0.006707999
v 0.0001000001 3.72529E-11 -0.0065
v 0.0007211657 3.72529E-11 -0.006418222
v 0.002009188 1.31518E-11 -0.006009189
v 0.0013 1.862645E-11 -0.006178461
v 0.001797056 0 -0.005797056
v 0.002438269 6.015867E-12 -0.00545
v 0.002178461 0 -0.005299999
v 0.002708 1.530035E-12 -0.004798811
v 0.002418222 0 -0.004721166
v 0.0028 0 -0.0041
v 0.0025 0 -0.0041
v 0.0028 0 0.0001000002
v 0.0025 0 0.0001000001
v 0.002418222 0 0.0007211657
v 0.002708 1.530036E-12 0.0007988115
v 0.002178461 7.45058E-11 0.0013
v 0.002438268 6.015869E-12 0.00145
v 0.001797056 0 0.001797056
v 0.002009188 1.31518E-11 0.002009188
v 0.0013 3.72529E-11 0.002178461
v 0.00145 2.245153E-11 0.002438269
v 0.0007211658 5.587935E-11 0.002418222
v 0.0001000001 9.313225E-11 0.0025
v 0.0007988114 3.328128E-11 0.002708
v 0 4.656613E-11 0.0028
v 0 4.656613E-11 0.002499999
v 9.99999E-05 4.490305E-11 0.0028
v 9.99999E-05 4.490305E-11 -0.0068
v 0 4.656613E-11 -0.0068
v 0 4.656613E-11 -0.0065
v 0 9.999995E-05 -0.0068
v 0 4.656613E-11 -0.0068
v 9.99999E-05 4.490305E-11 -0.0068
v 9.99999E-05 9.999995E-05 -0.0068
v 9.99999E-05 9.999995E-05 0.0028
v 0.0007988113 9.999994E-05 0.002708
v 0.0007988114 3.328128E-11 0.002708
v 9.99999E-05 4.490305E-11 0.0028
v 0.0007988113 9.999994E-05 0.002708
v 0.00145 9.999993E-05 0.002438268
v 0.00145 2.245153E-11 0.002438269
v 0.0007988114 3.328128E-11 0.002708
v 0.00145 9.999993E-05 0.002438268
v 0.002009188 9.999992E-05 0.002009188
v 0.002009188 1.31518E-11 0.002009188
v 0.00145 2.245153E-11 0.002438269
v 0.002009188 9.999992E-05 0.002009188
v 0.002438269 9.999991E-05 0.00145
v 0.002438268 6.015869E-12 0.00145
v 0.002009188 1.31518E-11 0.002009188
v 0.002438269 9.999991E-05 0.00145
v 0.002708 9.99999E-05 0.0007988114
v 0.002708 1.530036E-12 0.0007988115
v 0.002438268 6.015869E-12 0.00145
v 0.002708 9.99999E-05 0.0007988114
v 0.0028 9.99999E-05 9.99999E-05
v 0.0028 0 0.0001000002
v 0.002708 1.530036E-12 0.0007988115
v 9.99999E-05 9.999995E-05 0.0028
v 9.99999E-05 4.490305E-11 0.0028
v 0 4.656613E-11 0.0028
v 0 9.999995E-05 0.0028
v 9.99999E-05 4.490305E-11 -0.0068
v 0.0007988113 3.328129E-11 -0.006707999
v 0.0007988114 9.999994E-05 -0.006707999
v 9.99999E-05 9.999995E-05 -0.0068
v 0.0007988113 3.328129E-11 -0.006707999
v 0.00145 2.245153E-11 -0.006438269
v 0.00145 9.999992E-05 -0.006438269
v 0.0007988114 9.999994E-05 -0.006707999
v 0.00145 2.245153E-11 -0.006438269
v 0.002009188 1.31518E-11 -0.006009189
v 0.002009188 9.999991E-05 -0.006009189
v 0.00145 9.999992E-05 -0.006438269
v 0.002009188 1.31518E-11 -0.006009189
v 0.002438269 6.015867E-12 -0.00545
v 0.002438268 9.999991E-05 -0.00545
v 0.002009188 9.999991E-05 -0.006009189
v 0.002438269 6.015867E-12 -0.00545
v 0.002708 1.530035E-12 -0.004798811
v 0.002708 9.99999E-05 -0.004798811
v 0.002438268 9.999991E-05 -0.00545
v 0.002708 1.530035E-12 -0.004798811
v 0.0028 0 -0.0041
v 0.0028 9.99999E-05 -0.0041
v 0.002708 9.99999E-05 -0.004798811
v 0.0028 9.99999E-05 -0.0041
v 0.0028 0 -0.0041
v 0.0028 0 0.0001000002
v 0.0028 9.99999E-05 9.99999E-05
v 0.001797056 9.999992E-05 0.001797056
v 0.0013 9.99999E-05 0.002178461
v 0.0013 3.72529E-11 0.002178461
v 0.001797056 0 0.001797056
v 0.0013 9.99999E-05 0.002178461
v 0.0007211657 9.999996E-05 0.002418222
v 0.0007211658 5.587935E-11 0.002418222
v 0.0013 3.72529E-11 0.002178461
v 0.002178461 9.999988E-05 0.0013
v 0.001797056 9.999992E-05 0.001797056
v 0.001797056 0 0.001797056
v 0.002178461 7.45058E-11 0.0013
v 0.0001000001 3.72529E-11 -0.0065
v 0 4.656613E-11 -0.0065
v 0 9.999995E-05 -0.0065
v 0.0001000001 9.999996E-05 -0.0065
v 0.002418222 9.999988E-05 0.0007211657
v 0.002178461 9.999988E-05 0.0013
v 0.002178461 7.45058E-11 0.0013
v 0.002418222 0 0.0007211657
v 0.0001000001 9.999996E-05 0.0025
v 0 9.999995E-05 0.002499999
v 0 4.656613E-11 0.002499999
v 0.0001000001 9.313225E-11 0.0025
v 0.0025 9.999992E-05 -0.0041
v 0.0025 9.999992E-05 0.0001000001
v 0.0025 0 0.0001000001
v 0.0025 0 -0.0041
v 0.0025 9.999992E-05 0.0001000001
v 0.002418222 9.999988E-05 0.0007211657
v 0.002418222 0 0.0007211657
v 0.0025 0 0.0001000001
v 0.002418222 0 -0.004721166
v 0.002178461 0 -0.005299999
v 0.002178461 9.999992E-05 -0.005299999
v 0.002418222 9.999992E-05 -0.004721165
v 0.002178461 0 -0.005299999
v 0.001797056 0 -0.005797056
v 0.001797056 9.999992E-05 -0.005797056
v 0.002178461 9.999992E-05 -0.005299999
v 0.0007211657 3.72529E-11 -0.006418222
v 0.0001000001 3.72529E-11 -0.0065
v 0.0001000001 9.999996E-05 -0.0065
v 0.0007211657 9.999996E-05 -0.006418222
v 0 9.999995E-05 0.002499999
v 0 9.999995E-05 0.0028
v 0 4.656613E-11 0.0028
v 0 4.656613E-11 0.002499999
v 0.0025 0 -0.0041
v 0.002418222 0 -0.004721166
v 0.002418222 9.999992E-05 -0.004721165
v 0.0025 9.999992E-05 -0.0041
v 0.001797056 0 -0.005797056
v 0.0013 1.862645E-11 -0.006178461
v 0.0013 9.999994E-05 -0.006178461
v 0.001797056 9.999992E-05 -0.005797056
v 0.0013 1.862645E-11 -0.006178461
v 0.0007211657 3.72529E-11 -0.006418222
v 0.0007211657 9.999996E-05 -0.006418222
v 0.0013 9.999994E-05 -0.006178461
v 0.0007211657 9.999996E-05 0.002418222
v 0.0001000001 9.999996E-05 0.0025
v 0.0001000001 9.313225E-11 0.0025
v 0.0007211658 5.587935E-11 0.002418222
vn -1 0 0
vn -1 0 0
vn -1 0 0
vn -1 0 0
vn 0 1 0
vn 0 1 0
vn 0 1 0
vn 0 1 0
vn 0 1 0
vn 0 1 0
vn 0 1 0
vn 0 1 0
vn 0 1 0
vn 0 1 0
vn 0 1 0
vn 0 1 0
vn 0 1 0
vn 0 1 0
vn 0 1 0
vn 0 1 0
vn 0 1 0
vn 0 1 0
vn 0 1 0
vn 0 1 0
vn 0 1 0
vn 0 1 0
vn 0 1 0
vn 0 1 0
vn 0 1 0
vn 0 1 0
vn 0 1 0
vn 0 1 0
vn 0 1 0
vn 0 1 0
vn 0 1 0
vn 0 1 0
vn 0 -1 0
vn 0 -1 0
vn 0 -1 0
vn 0 -1 0
vn 0 -1 0
vn 0 -1 0
vn 0 -1 0
vn 0 -1 0
vn 0 -1 0
vn 0 -1 0
vn 0 -1 0
vn 0 -1 0
vn 0 -1 0
vn 0 -1 0
vn 0 -1 0
vn 0 -1 0
vn 0 -1 0
vn 0 -1 0
vn 0 -1 0
vn 0 -1 0
vn 0 -1 0
vn 0 -1 0
vn 0 -1 0
vn 0 -1 0
vn 0 -1 0
vn 0 -1 0
vn 0 -1 0
vn 0 -1 0
vn 0 -1 0
vn 0 -1 0
vn 0 -1 0
vn 0 -1 0
vn 1.130892E-06 0 -1
vn 1.130892E-06 0 -1
vn 1.130892E-06 0 -1
vn 1.130892E-06 0 -1
vn 0.1305263 0 0.9914449
vn 0.1305263 0 0.9914449
vn 0.1305263 0 0.9914449
vn 0.1305263 0 0.9914449
vn 0.3826831 1.506308E-06 0.9238797
vn 0.3826831 1.506308E-06 0.9238797
vn 0.3826831 1.506308E-06 0.9238797
vn 0.3826831 1.506308E-06 0.9238797
vn 0.6087616 1.605013E-06 0.7933532
vn 0.6087616 1.605013E-06 0.7933532
vn 0.6087616 1.605013E-06 0.7933532
vn 0.6087616 1.605013E-06 0.7933532
vn 0.7933533 1.060309E-06 0.6087615
vn 0.7933533 1.060309E-06 0.6087615
vn 0.7933533 1.060309E-06 0.6087615
vn 0.7933533 1.060309E-06 0.6087615
vn 0.9238795 -2.42278E-06 0.3826834
vn 0.9238795 -2.42278E-06 0.3826834
vn 0.9238795 -2.42278E-06 0.3826834
vn 0.9238795 -2.42278E-06 0.3826834
vn 0.9914449 1.26847E-06 0.1305263
vn 0.9914449 1.26847E-06 0.1305263
vn 0.9914449 1.26847E-06 0.1305263
vn 0.9914449 1.26847E-06 0.1305263
vn 4.656629E-07 0 1
vn 4.656629E-07 0 1
vn 4.656629E-07 0 1
vn 4.656629E-07 0 1
vn 0.1305269 0 -0.9914448
vn 0.1305269 0 -0.9914448
vn 0.1305269 0 -0.9914448
vn 0.1305269 0 -0.9914448
vn 0.3826826 0 -0.9238799
vn 0.3826826 0 -0.9238799
vn 0.3826826 0 -0.9238799
vn 0.3826826 0 -0.9238799
vn 0.608761 1.321324E-06 -0.7933537
vn 0.608761 1.321324E-06 -0.7933537
vn 0.608761 1.321324E-06 -0.7933537
vn 0.608761 1.321324E-06 -0.7933537
vn 0.7933539 0 -0.6087608
vn 0.7933539 0 -0.6087608
vn 0.7933539 0 -0.6087608
vn 0.7933539 0 -0.6087608
vn 0.9238794 2.642649E-06 -0.3826837
vn 0.9238794 2.642649E-06 -0.3826837
vn 0.9238794 2.642649E-06 -0.3826837
vn 0.9238794 2.642649E-06 -0.3826837
vn 0.9914449 0 -0.1305262
vn 0.9914449 0 -0.1305262
vn 0.9914449 0 -0.1305262
vn 0.9914449 0 -0.1305262
vn 1 1.77395E-06 0
vn 1 1.77395E-06 0
vn 1 1.77395E-06 0
vn 1 1.77395E-06 0
vn -0.6087614 0 -0.7933533
vn -0.6087614 0 -0.7933533
vn -0.6087614 0 -0.7933533
vn -0.6087614 0 -0.7933533
vn -0.3826833 -1.400673E-06 -0.9238795
vn -0.3826833 -1.400673E-06 -0.9238795
vn -0.3826833 -1.400673E-06 -0.9238795
vn -0.3826833 -1.400673E-06 -0.9238795
vn -0.7933532 0 -0.6087616
vn -0.7933532 0 -0.6087616
vn -0.7933532 0 -0.6087616
vn -0.7933532 0 -0.6087616
vn 0 0 1
vn 0 0 1
vn 0 0 1
vn 0 0 1
vn -0.9238796 0 -0.3826832
vn -0.9238796 0 -0.3826832
vn -0.9238796 0 -0.3826832
vn -0.9238796 0 -0.3826832
vn 6.984917E-06 0 -1
vn 6.984917E-06 0 -1
vn 6.984917E-06 0 -1
vn 6.984917E-06 0 -1
vn -1 1.663078E-07 0
vn -1 1.663078E-07 0
vn -1 1.663078E-07 0
vn -1 1.663078E-07 0
vn -0.9914449 -1.486489E-06 -0.1305264
vn -0.9914449 -1.486489E-06 -0.1305264
vn -0.9914449 -1.486489E-06 -0.1305264
vn -0.9914449 -1.486489E-06 -0.1305264
vn -0.9238796 -1.486488E-06 0.3826831
vn -0.9238796 -1.486488E-06 0.3826831
vn -0.9238796 -1.486488E-06 0.3826831
vn -0.9238796 -1.486488E-06 0.3826831
vn -0.7933532 0 0.6087617
vn -0.7933532 0 0.6087617
vn -0.7933532 0 0.6087617
vn -0.7933532 0 0.6087617
vn -0.1305263 0 0.9914449
vn -0.1305263 0 0.9914449
vn -0.1305263 0 0.9914449
vn -0.1305263 0 0.9914449
vn -1 0 0
vn -1 0 0
vn -1 0 0
vn -1 0 0
vn -0.9914449 -3.889994E-07 0.1305263
vn -0.9914449 -3.889994E-07 0.1305263
vn -0.9914449 -3.889994E-07 0.1305263
vn -0.9914449 -3.889994E-07 0.1305263
vn -0.6087615 0 0.7933533
vn -0.6087615 0 0.7933533
vn -0.6087615 0 0.7933533
vn -0.6087615 0 0.7933533
vn -0.3826832 0 0.9238796
vn -0.3826832 0 0.9238796
vn -0.3826832 0 0.9238796
vn -0.3826832 0 0.9238796
vn -0.1305264 -1.532942E-06 -0.9914449
vn -0.1305264 -1.532942E-06 -0.9914449
vn -0.1305264 -1.532942E-06 -0.9914449
vn -0.1305264 -1.532942E-06 -0.9914449
g RightBorder_0
f 3/3/3 2/2/2 1/1/1
f 4/4/4 3/3/3 1/1/1
f 7/7/7 6/6/6 5/5/5
f 5/5/5 8/8/8 7/7/7
f 5/5/5 9/9/9 8/8/8
f 7/7/7 8/8/8 10/10/10
f 11/11/11 7/7/7 10/10/10
f 12/12/12 11/11/11 10/10/10
f 12/12/12 10/10/10 13/13/13
f 14/14/14 12/12/12 13/13/13
f 14/14/14 13/13/13 15/15/15
f 16/16/16 14/14/14 15/15/15
f 16/16/16 15/15/15 17/17/17
f 18/18/18 16/16/16 17/17/17
f 19/19/19 18/18/18 17/17/17
f 19/19/19 17/17/17 20/20/20
f 21/21/21 19/19/19 20/20/20
f 21/21/21 20/20/20 22/22/22
f 23/23/23 21/21/21 22/22/22
f 23/23/23 22/22/22 24/24/24
f 25/25/25 23/23/23 24/24/24
f 25/25/25 24/24/24 26/26/26
f 27/27/27 25/25/25 26/26/26
f 27/27/27 26/26/26 28/28/28
f 29/29/29 27/27/27 28/28/28
f 30/30/30 29/29/29 28/28/28
f 30/30/30 28/28/28 31/31/31
f 32/32/32 30/30/30 31/31/31
f 32/32/32 31/31/31 33/33/33
f 34/34/34 32/32/32 33/33/33
f 34/34/34 33/33/33 35/35/35
f 35/35/35 36/36/36 34/34/34
f 39/39/39 38/38/38 37/37/37
f 37/37/37 40/40/40 39/39/39
f 37/37/37 41/41/41 40/40/40
f 41/41/41 42/42/42 40/40/40
f 41/41/41 43/43/43 42/42/42
f 41/41/41 44/44/44 43/43/43
f 44/44/44 45/45/45 43/43/43
f 44/44/44 46/46/46 45/45/45
f 46/46/46 47/47/47 45/45/45
f 46/46/46 48/48/48 47/47/47
f 48/48/48 49/49/49 47/47/47
f 48/48/48 50/50/50 49/49/49
f 50/50/50 51/51/51 49/49/49
f 50/50/50 52/52/52 51/51/51
f 50/50/50 53/53/53 52/52/52
f 53/53/53 54/54/54 52/52/52
f 53/53/53 55/55/55 54/54/54
f 55/55/55 56/56/56 54/54/54
f 55/55/55 57/57/57 56/56/56
f 57/57/57 58/58/58 56/56/56
f 57/57/57 59/59/59 58/58/58
f 59/59/59 60/60/60 58/58/58
f 59/59/59 61/61/61 60/60/60
f 59/59/59 62/62/62 61/61/61
f 61/61/61 62/62/62 63/63/63
f 63/63/63 64/64/64 61/61/61
f 62/62/62 65/65/65 63/63/63
f 67/67/67 66/66/66 38/38/38
f 38/38/38 68/68/68 67/67/67
f 38/38/38 39/39/39 68/68/68
f 71/71/71 70/70/70 69/69/69
f 72/72/72 71/71/71 69/69/69
f 75/75/75 74/74/74 73/73/73
f 76/76/76 75/75/75 73/73/73
f 79/79/79 78/78/78 77/77/77
f 80/80/80 79/79/79 77/77/77
f 83/83/83 82/82/82 81/81/81
f 84/84/84 83/83/83 81/81/81
f 87/87/87 86/86/86 85/85/85
f 88/88/88 87/87/87 85/85/85
f 91/91/91 90/90/90 89/89/89
f 92/92/92 91/91/91 89/89/89
f 95/95/95 94/94/94 93/93/93
f 96/96/96 95/95/95 93/93/93
f 99/99/99 98/98/98 97/97/97
f 100/100/100 99/99/99 97/97/97
f 103/103/103 102/102/102 101/101/101
f 104/104/104 103/103/103 101/101/101
f 107/107/107 106/106/106 105/105/105
f 108/108/108 107/107/107 105/105/105
f 111/111/111 110/110/110 109/109/109
f 112/112/112 111/111/111 109/109/109
f 115/115/115 114/114/114 113/113/113
f 116/116/116 115/115/115 113/113/113
f 119/119/119 118/118/118 117/117/117
f 120/120/120 119/119/119 117/117/117
f 123/123/123 122/122/122 121/121/121
f 124/124/124 123/123/123 121/121/121
f 127/127/127 126/126/126 125/125/125
f 128/128/128 127/127/127 125/125/125
f 131/131/131 130/130/130 129/129/129
f 132/132/132 131/131/131 129/129/129
f 135/135/135 134/134/134 133/133/133
f 136/136/136 135/135/135 133/133/133
f 139/139/139 138/138/138 137/137/137
f 140/140/140 139/139/139 137/137/137
f 143/143/143 142/142/142 141/141/141
f 144/144/144 143/143/143 141/141/141
f 147/147/147 146/146/146 145/145/145
f 148/148/148 147/147/147 145/145/145
f 151/151/151 150/150/150 149/149/149
f 152/152/152 151/151/151 149/149/149
f 155/155/155 154/154/154 153/153/153
f 156/156/156 155/155/155 153/153/153
f 159/159/159 158/158/158 157/157/157
f 160/160/160 159/159/159 157/157/157
f 163/163/163 162/162/162 161/161/161
f 164/164/164 163/163/163 161/161/161
f 167/167/167 166/166/166 165/165/165
f 168/168/168 167/167/167 165/165/165
f 171/171/171 170/170/170 169/169/169
f 172/172/172 171/171/171 169/169/169
f 175/175/175 174/174/174 173/173/173
f 176/176/176 175/175/175 173/173/173
f 179/179/179 178/178/178 177/177/177
f 180/180/180 179/179/179 177/177/177
f 183/183/183 182/182/182 181/181/181
f 184/184/184 183/183/183 181/181/181
f 187/187/187 186/186/186 185/185/185
f 188/188/188 187/187/187 185/185/185
f 191/191/191 190/190/190 189/189/189
f 192/192/192 191/191/191 189/189/189
