g RoundedQuad_Large
v 0.5337964 -0.4587737 0
v 0.5376334 -0.4302185 0
v 0.5376334 0.4302185 0
v 0.5337964 0.4587737 0
v 0.5229681 -0.4844326 0
v 0.5229681 0.4844326 0
v 0.5061714 -0.5061725 0
v 0.5061714 0.5061719 0
v 0.484432 -0.5229681 0
v 0.484432 0.5229681 0
v 0.4587731 -0.5337964 0
v 0.4587731 0.5337964 0
v 0.4302179 -0.5376334 0
v 0.4302179 0.5376334 0
v -0.4302191 -0.5376334 0
v -0.4302191 0.5376334 0
v -0.4587743 -0.5337964 0
v -0.4587743 0.5337964 0
v -0.4844332 -0.5229681 0
v -0.4844332 0.5229681 0
v -0.5061725 -0.5061725 0
v -0.5061725 0.5061719 0
v -0.5229681 -0.4844326 0
v -0.5229681 0.4844326 0
v -0.5337964 -0.4587737 0
v -0.5337964 0.4587737 0
v -0.5376334 -0.4302185 0
v -0.5376334 0.4302185 0
vt 0.01228473 0.08096739
vt 0.008769963 0.1071145
vt 0.008767281 0.8950002
vt 0.01228252 0.9211501
vt 0.02220133 0.05747234
vt 0.02220002 0.9446465
vt 0.03758136 0.03756546
vt 0.03758091 0.9645526
vt 0.05748678 0.02218588
vt 0.05748585 0.9799312
vt 0.08098182 0.01227041
vt 0.08097911 0.9898446
vt 0.1071295 0.008757346
vt 0.1071236 0.9933559
vt 0.894971 0.008757346
vt 0.8949704 0.9933572
vt 0.9211234 0.01227086
vt 0.9211167 0.9898444
vt 0.9446226 0.02218726
vt 0.944611 0.9799297
vt 0.9645306 0.03756803
vt 0.9645168 0.9645503
vt 0.9799094 0.05747636
vt 0.9798963 0.9446442
vt 0.9898219 0.08097198
vt 0.9898115 0.9211494
vt 0.9933313 0.1071179
vt 0.9933255 0.8950022
vn 0 0 -1
vn 0 0 -1
vn 0 0 -1
vn 0 0 -1
vn 0 0 -1
vn 0 0 -1
vn 0 0 -1
vn 0 0 -1
vn 0 0 -1
vn 0 0 -1
vn 0 0 -1
vn 0 0 -1
vn 0 0 -1
vn 0 0 -1
vn 0 0 -1
vn 0 0 -1
vn 0 0 -1
vn 0 0 -1
vn 0 0 -1
vn 0 0 -1
vn 0 0 -1
vn 0 0 -1
vn 0 0 -1
vn 0 0 -1
vn 0 0 -1
vn 0 0 -1
vn 0 0 -1
vn 0 0 -1
g RoundedQuad_Large_0
f 3/3/3 2/2/2 1/1/1
f 1/1/1 4/4/4 3/3/3
f 1/1/1 5/5/5 4/4/4
f 5/5/5 6/6/6 4/4/4
f 5/5/5 7/7/7 6/6/6
f 7/7/7 8/8/8 6/6/6
f 7/7/7 9/9/9 8/8/8
f 9/9/9 10/10/10 8/8/8
f 9/9/9 11/11/11 10/10/10
f 11/11/11 12/12/12 10/10/10
f 11/11/11 13/13/13 12/12/12
f 13/13/13 14/14/14 12/12/12
f 13/13/13 15/15/15 14/14/14
f 15/15/15 16/16/16 14/14/14
f 15/15/15 17/17/17 16/16/16
f 17/17/17 18/18/18 16/16/16
f 17/17/17 19/19/19 18/18/18
f 19/19/19 20/20/20 18/18/18
f 19/19/19 21/21/21 20/20/20
f 21/21/21 22/22/22 20/20/20
f 21/21/21 23/23/23 22/22/22
f 23/23/23 24/24/24 22/22/22
f 23/23/23 25/25/25 24/24/24
f 25/25/25 26/26/26 24/24/24
f 25/25/25 27/27/27 26/26/26
f 27/27/27 28/28/28 26/26/26
