g SketchbookLeftColumn
v 0.006 5.029142E-10 0.012375
v 0.006 0.0003000006 0.012375
v 0.0101 0.0003000009 0.012375
v 0.0101 8.529362E-10 0.012375
v 0.0108 9.126961E-10 0.011675
v 0.0108 0.0003000009 0.011675
v 0.0108 0.0003000009 -0.011675
v 0.0108 9.126961E-10 -0.011675
v 0.006 5.029142E-10 -0.012375
v 0.006 0.0003000006 -0.012375
v 0.006 0.0003000006 0.012375
v 0.006 5.029142E-10 0.012375
v 0.006 0.0003000006 0.012375
v 0.006 0.0003000006 -0.012375
v 0.0101 0.0003000009 -0.012375
v 0.01028117 0.0003000009 -0.01235115
v 0.01045 0.0003000009 -0.01228122
v 0.01059498 0.0003000009 -0.01216997
v 0.01070622 0.0003000009 -0.012025
v 0.01077615 0.0003000009 -0.01185617
v 0.0108 0.0003000009 -0.011675
v 0.0108 0.0003000009 0.011675
v 0.01077615 0.0003000009 0.01185617
v 0.01070622 0.0003000009 0.012025
v 0.01059498 0.0003000009 0.01216997
v 0.01045 0.0003000009 0.01228122
v 0.01028117 0.0003000009 0.01235115
v 0.0101 0.0003000009 0.012375
v 0.0108 9.126961E-10 0.011675
v 0.01077615 9.1066E-10 0.01185617
v 0.01077615 0.0003000009 0.01185617
v 0.0108 0.0003000009 0.011675
v 0.01077615 9.1066E-10 0.01185617
v 0.01070622 9.046899E-10 0.012025
v 0.01070622 0.0003000009 0.012025
v 0.01077615 0.0003000009 0.01185617
v 0.01070622 9.046899E-10 0.012025
v 0.01059498 8.95193E-10 0.01216997
v 0.01059498 0.0003000009 0.01216997
v 0.01070622 0.0003000009 0.012025
v 0.01059498 8.95193E-10 0.01216997
v 0.01045 8.828162E-10 0.01228122
v 0.01045 0.0003000009 0.01228122
v 0.01059498 0.0003000009 0.01216997
v 0.01045 8.828162E-10 0.01228122
v 0.01028117 8.684033E-10 0.01235115
v 0.01028117 0.0003000009 0.01235115
v 0.01045 0.0003000009 0.01228122
v 0.01028117 8.684033E-10 0.01235115
v 0.0101 8.529362E-10 0.012375
v 0.0101 0.0003000009 0.012375
v 0.01028117 0.0003000009 0.01235115
v 0.01028117 8.684033E-10 -0.01235115
v 0.0101 8.529362E-10 -0.012375
v 0.006 5.029142E-10 -0.012375
v 0.006 5.029142E-10 0.012375
v 0.01045 8.828162E-10 -0.01228122
v 0.01059498 8.951929E-10 -0.01216997
v 0.01070622 9.046899E-10 -0.012025
v 0.01077615 9.1066E-10 -0.01185617
v 0.0108 9.126961E-10 -0.011675
v 0.0108 9.126961E-10 0.011675
v 0.01077615 9.1066E-10 0.01185617
v 0.01070622 9.046899E-10 0.012025
v 0.01059498 8.95193E-10 0.01216997
v 0.01045 8.828162E-10 0.01228122
v 0.01028117 8.684033E-10 0.01235115
v 0.0101 8.529362E-10 0.012375
v 0.0108 0.0003000009 -0.011675
v 0.01077615 0.0003000009 -0.01185617
v 0.01077615 9.1066E-10 -0.01185617
v 0.0108 9.126961E-10 -0.011675
v 0.01077615 0.0003000009 -0.01185617
v 0.01070622 0.0003000009 -0.012025
v 0.01070622 9.046899E-10 -0.012025
v 0.01077615 9.1066E-10 -0.01185617
v 0.01070622 0.0003000009 -0.012025
v 0.01059498 0.0003000009 -0.01216997
v 0.01059498 8.951929E-10 -0.01216997
v 0.01070622 9.046899E-10 -0.012025
v 0.01059498 0.0003000009 -0.01216997
v 0.01045 0.0003000009 -0.01228122
v 0.01045 8.828162E-10 -0.01228122
v 0.01059498 8.951929E-10 -0.01216997
v 0.01045 0.0003000009 -0.01228122
v 0.01028117 0.0003000009 -0.01235115
v 0.01028117 8.684033E-10 -0.01235115
v 0.01045 8.828162E-10 -0.01228122
v 0.01028117 0.0003000009 -0.01235115
v 0.0101 0.0003000009 -0.012375
v 0.0101 8.529362E-10 -0.012375
v 0.01028117 8.684033E-10 -0.01235115
v 0.0101 8.529362E-10 -0.012375
v 0.0101 0.0003000009 -0.012375
v 0.006 0.0003000006 -0.012375
v 0.006 5.029142E-10 -0.012375
vn -1.45756E-07 0 1
vn -1.45756E-07 0 1
vn -1.45756E-07 0 1
vn -1.45756E-07 0 1
vn 1 0 0
vn 1 0 0
vn 1 0 0
vn 1 0 0
vn -1 0 0
vn -1 0 0
vn -1 0 0
vn -1 0 0
vn 0 1 0
vn 0 1 0
vn 0 1 0
vn 0 1 0
vn 0 1 0
vn 0 1 0
vn 0 1 0
vn 0 1 0
vn 0 1 0
vn 0 1 0
vn 0 1 0
vn 0 1 0
vn 0 1 0
vn 0 1 0
vn 0 1 0
vn 0 1 0
vn 0.991446 0 0.130517
vn 0.991446 0 0.130517
vn 0.991446 0 0.130517
vn 0.991446 0 0.130517
vn 0.9238788 0 0.3826851
vn 0.9238788 0 0.3826851
vn 0.9238788 0 0.3826851
vn 0.9238788 0 0.3826851
vn 0.7933512 0 0.6087642
vn 0.7933512 0 0.6087642
vn 0.7933512 0 0.6087642
vn 0.7933512 0 0.6087642
vn 0.60877 0 0.7933468
vn 0.60877 0 0.7933468
vn 0.60877 0 0.7933468
vn 0.60877 0 0.7933468
vn 0.3826817 0 0.9238802
vn 0.3826817 0 0.9238802
vn 0.3826817 0 0.9238802
vn 0.3826817 0 0.9238802
vn 0.1305248 0 0.9914451
vn 0.1305248 0 0.9914451
vn 0.1305248 0 0.9914451
vn 0.1305248 0 0.9914451
vn 0 -1 0
vn 0 -1 0
vn 0 -1 0
vn 0 -1 0
vn 0 -1 0
vn 0 -1 0
vn 0 -1 0
vn 0 -1 0
vn 0 -1 0
vn 0 -1 0
vn 0 -1 0
vn 0 -1 0
vn 0 -1 0
vn 0 -1 0
vn 0 -1 0
vn 0 -1 0
vn 0.991446 0 -0.130517
vn 0.991446 0 -0.130517
vn 0.991446 0 -0.130517
vn 0.991446 0 -0.130517
vn 0.9238788 0 -0.3826851
vn 0.9238788 0 -0.3826851
vn 0.9238788 0 -0.3826851
vn 0.9238788 0 -0.3826851
vn 0.7933512 0 -0.6087642
vn 0.7933512 0 -0.6087642
vn 0.7933512 0 -0.6087642
vn 0.7933512 0 -0.6087642
vn 0.6087657 0 -0.7933501
vn 0.6087657 0 -0.7933501
vn 0.6087657 0 -0.7933501
vn 0.6087657 0 -0.7933501
vn 0.3826875 0 -0.9238778
vn 0.3826875 0 -0.9238778
vn 0.3826875 0 -0.9238778
vn 0.3826875 0 -0.9238778
vn 0.1305248 0 -0.9914451
vn 0.1305248 0 -0.9914451
vn 0.1305248 0 -0.9914451
vn 0.1305248 0 -0.9914451
vn -1.45756E-07 0 -1
vn -1.45756E-07 0 -1
vn -1.45756E-07 0 -1
vn -1.45756E-07 0 -1
g SketchbookLeftColumn_0
f 3/3/3 2/2/2 1/1/1
f 4/4/4 3/3/3 1/1/1
f 7/7/7 6/6/6 5/5/5
f 8/8/8 7/7/7 5/5/5
f 11/11/11 10/10/10 9/9/9
f 12/12/12 11/11/11 9/9/9
f 15/15/15 14/14/14 13/13/13
f 13/13/13 16/16/16 15/15/15
f 13/13/13 17/17/17 16/16/16
f 13/13/13 18/18/18 17/17/17
f 13/13/13 19/19/19 18/18/18
f 13/13/13 20/20/20 19/19/19
f 13/13/13 21/21/21 20/20/20
f 13/13/13 22/22/22 21/21/21
f 13/13/13 23/23/23 22/22/22
f 13/13/13 24/24/24 23/23/23
f 13/13/13 25/25/25 24/24/24
f 13/13/13 26/26/26 25/25/25
f 13/13/13 27/27/27 26/26/26
f 13/13/13 28/28/28 27/27/27
f 31/31/31 30/30/30 29/29/29
f 32/32/32 31/31/31 29/29/29
f 35/35/35 34/34/34 33/33/33
f 36/36/36 35/35/35 33/33/33
f 39/39/39 38/38/38 37/37/37
f 40/40/40 39/39/39 37/37/37
f 43/43/43 42/42/42 41/41/41
f 44/44/44 43/43/43 41/41/41
f 47/47/47 46/46/46 45/45/45
f 48/48/48 47/47/47 45/45/45
f 51/51/51 50/50/50 49/49/49
f 52/52/52 51/51/51 49/49/49
f 55/55/55 54/54/54 53/53/53
f 53/53/53 56/56/56 55/55/55
f 53/53/53 57/57/57 56/56/56
f 57/57/57 58/58/58 56/56/56
f 58/58/58 59/59/59 56/56/56
f 59/59/59 60/60/60 56/56/56
f 60/60/60 61/61/61 56/56/56
f 61/61/61 62/62/62 56/56/56
f 62/62/62 63/63/63 56/56/56
f 63/63/63 64/64/64 56/56/56
f 64/64/64 65/65/65 56/56/56
f 65/65/65 66/66/66 56/56/56
f 66/66/66 67/67/67 56/56/56
f 67/67/67 68/68/68 56/56/56
f 71/71/71 70/70/70 69/69/69
f 72/72/72 71/71/71 69/69/69
f 75/75/75 74/74/74 73/73/73
f 76/76/76 75/75/75 73/73/73
f 79/79/79 78/78/78 77/77/77
f 80/80/80 79/79/79 77/77/77
f 83/83/83 82/82/82 81/81/81
f 84/84/84 83/83/83 81/81/81
f 87/87/87 86/86/86 85/85/85
f 88/88/88 87/87/87 85/85/85
f 91/91/91 90/90/90 89/89/89
f 92/92/92 91/91/91 89/89/89
f 95/95/95 94/94/94 93/93/93
f 96/96/96 95/95/95 93/93/93
