g SkyboxPreviewSphere_NPole
v 0.01528705 -0.02879185 -0.004967061
v 0.003968012 0.04000802 -0.001289287
v 0.003375392 0.04000802 -0.002452367
v 0.01300394 -0.02879185 -0.009447913
v 0.002452365 0.04000802 -0.003375394
v 0.009447915 -0.02879185 -0.01300394
v 0.001289285 0.04000802 -0.003968013
v 0.004967063 -0.02879185 -0.01528704
v -6.310477E-10 0.04000802 -0.004172214
v 7.568399E-10 -0.02879185 -0.01607375
v -0.001289286 0.04000802 -0.003968012
v -0.004967061 -0.02879185 -0.01528704
v -0.002452366 0.04000802 -0.003375392
v -0.009447909 -0.02879185 -0.01300393
v -0.003375392 0.04000802 -0.002452366
v -0.01300393 -0.02879185 -0.009447908
v -0.003968011 0.04000802 -0.001289285
v -0.01528704 -0.02879185 -0.004967059
v -0.004172212 0.04000802 -8.41397E-10
v -0.01607375 -0.02879185 1.009119E-09
v -0.003968011 0.04000802 0.001289284
v -0.01528704 -0.02879185 0.004967061
v -0.003375391 0.04000802 0.002452364
v -0.01300393 -0.02879185 0.009447911
v -0.002452366 0.04000802 0.00337539
v -0.009447907 -0.02879185 0.01300393
v -0.001289285 0.04000802 0.003968009
v -0.004967059 -0.02879185 0.01528704
v -7.553895E-10 0.04000802 0.004172211
v 2.77805E-10 -0.02879185 0.01607375
v 0.001289284 0.04000802 0.003968009
v 0.004967059 -0.02879185 0.01528704
v 0.002452364 0.04000802 0.00337539
v 0.009447906 -0.02879185 0.01300393
v 0.00337539 0.04000802 0.002452364
v 0.01300393 -0.02879185 0.00944791
v 0.003968009 0.04000802 0.001289284
v 0.01528704 -0.02879185 0.004967061
v 0.00417221 0.04000802 -8.41397E-10
v 0.01607374 -0.02879185 1.009119E-09
v 0.003968012 0.04000802 -0.001289287
v 0.01528705 -0.02879185 -0.004967061
v 0.003968012 0.04000802 -0.001289287
v -6.310477E-10 0.04000802 -8.41397E-10
v 0.003375392 0.04000802 -0.002452367
v 0.002452365 0.04000802 -0.003375394
v 0.001289285 0.04000802 -0.003968013
v -6.310477E-10 0.04000802 -0.004172214
v -0.001289286 0.04000802 -0.003968012
v -0.002452366 0.04000802 -0.003375392
v -0.003375392 0.04000802 -0.002452366
v -0.003968011 0.04000802 -0.001289285
v -0.004172212 0.04000802 -8.41397E-10
v -0.003968011 0.04000802 0.001289284
v -0.003375391 0.04000802 0.002452364
v -0.002452366 0.04000802 0.00337539
v -0.001289285 0.04000802 0.003968009
v -7.553895E-10 0.04000802 0.004172211
v 0.001289284 0.04000802 0.003968009
v 0.002452364 0.04000802 0.00337539
v 0.00337539 0.04000802 0.002452364
v 0.003968009 0.04000802 0.001289284
v 0.00417221 0.04000802 -8.41397E-10
vt 0.375 0.3125
vt 0.375 0.6884398
vt 0.3875 0.6884398
vt 0.3875 0.3125
vt 0.4 0.6884398
vt 0.4 0.3125
vt 0.4125 0.6884398
vt 0.4125 0.3125
vt 0.425 0.6884398
vt 0.425 0.3125
vt 0.4374999 0.6884398
vt 0.4374999 0.3125
vt 0.4499999 0.6884398
vt 0.4499999 0.3125
vt 0.4624999 0.6884398
vt 0.4624999 0.3125
vt 0.4749999 0.6884398
vt 0.4749999 0.3125
vt 0.4874999 0.6884398
vt 0.4874999 0.3125
vt 0.4999999 0.6884398
vt 0.4999999 0.3125
vt 0.5124999 0.6884398
vt 0.5124999 0.3125
vt 0.5249999 0.6884398
vt 0.5249999 0.3125
vt 0.5374998 0.6884398
vt 0.5374998 0.3125
vt 0.5499998 0.6884398
vt 0.5499998 0.3125
vt 0.5624998 0.6884398
vt 0.5624998 0.3125
vt 0.5749998 0.6884398
vt 0.5749998 0.3125
vt 0.5874998 0.6884398
vt 0.5874998 0.3125
vt 0.5999998 0.6884398
vt 0.5999998 0.3125
vt 0.6124998 0.6884398
vt 0.6124998 0.3125
vt 0.6249998 0.6884398
vt 0.6249998 0.3125
vt 0.6486026 0.8920339
vt 0.5 0.8375
vt 0.6264089 0.9355915
vt 0.5918415 0.9701589
vt 0.5482839 0.9923526
vt 0.5 1
vt 0.4517161 0.9923526
vt 0.4081585 0.9701589
vt 0.3735911 0.9355915
vt 0.3513974 0.8920339
vt 0.34375 0.84375
vt 0.3513974 0.7954661
vt 0.3735911 0.7519085
vt 0.4081585 0.7173411
vt 0.4517161 0.6951473
vt 0.5 0.6874999
vt 0.5482839 0.6951473
vt 0.5918415 0.717341
vt 0.626409 0.7519085
vt 0.6486027 0.7954661
vt 0.65625 0.84375
vn 0.9371389 0.1704563 -0.304492
vn 0.9353475 0.1810073 -0.3039103
vn 0.7956538 0.1810073 -0.5780756
vn 0.7971777 0.1704563 -0.5791826
vn 0.5780761 0.1810072 -0.7956535
vn 0.5791832 0.1704561 -0.7971773
vn 0.303913 0.1810074 -0.9353465
vn 0.304495 0.1704563 -0.9371379
vn 0 0.1810072 -0.9834818
vn 0 0.1704561 -0.9853653
vn -0.3039128 0.1810071 -0.9353467
vn -0.3044949 0.170456 -0.937138
vn -0.5780764 0.1810071 -0.7956533
vn -0.5791833 0.170456 -0.7971772
vn -0.7956539 0.1810072 -0.5780754
vn -0.7971776 0.1704561 -0.5791827
vn -0.935347 0.1810071 -0.3039119
vn -0.9371383 0.1704561 -0.3044939
vn -0.9834818 0.1810072 0
vn -0.9853653 0.1704561 0
vn -0.9353468 0.1810071 0.3039125
vn -0.9371381 0.1704561 0.3044946
vn -0.7956539 0.1810072 0.5780755
vn -0.7971775 0.1704561 0.5791828
vn -0.5780758 0.1810071 0.7956536
vn -0.5791829 0.170456 0.7971775
vn -0.3039124 0.181007 0.9353468
vn -0.3044944 0.170456 0.9371381
vn 0 0.1810071 0.9834818
vn 0 0.1704561 0.9853653
vn 0.3039127 0.1810071 0.9353467
vn 0.3044948 0.1704561 0.937138
vn 0.5780764 0.1810072 0.7956533
vn 0.5791835 0.1704561 0.7971771
vn 0.7956533 0.1810071 0.5780762
vn 0.7971773 0.1704561 0.5791832
vn 0.935347 0.1810072 0.3039119
vn 0.9371383 0.1704561 0.3044939
vn 0.9834818 0.1810072 0
vn 0.9853653 0.1704561 0
vn 0.9353475 0.1810073 -0.3039103
vn 0.9371389 0.1704563 -0.304492
vn 0.9353475 0.1810073 -0.3039103
vn 0 1 1.122076E-06
vn 0.7956538 0.1810073 -0.5780756
vn 0.5780761 0.1810072 -0.7956535
vn 0.303913 0.1810074 -0.9353465
vn 0 0.1810072 -0.9834818
vn -0.3039128 0.1810071 -0.9353467
vn -0.5780764 0.1810071 -0.7956533
vn -0.7956539 0.1810072 -0.5780754
vn -0.935347 0.1810071 -0.3039119
vn -0.9834818 0.1810072 0
vn -0.9353468 0.1810071 0.3039125
vn -0.7956539 0.1810072 0.5780755
vn -0.5780758 0.1810071 0.7956536
vn -0.3039124 0.181007 0.9353468
vn 0 0.1810071 0.9834818
vn 0.3039127 0.1810071 0.9353467
vn 0.5780764 0.1810072 0.7956533
vn 0.7956533 0.1810071 0.5780762
vn 0.935347 0.1810072 0.3039119
vn 0.9834818 0.1810072 0
g SkyboxPreviewSphere_NPole_0
f 3/3/3 2/2/2 1/1/1
f 4/4/4 3/3/3 1/1/1
f 5/5/5 3/3/3 4/4/4
f 6/6/6 5/5/5 4/4/4
f 7/7/7 5/5/5 6/6/6
f 8/8/8 7/7/7 6/6/6
f 9/9/9 7/7/7 8/8/8
f 10/10/10 9/9/9 8/8/8
f 11/11/11 9/9/9 10/10/10
f 12/12/12 11/11/11 10/10/10
f 13/13/13 11/11/11 12/12/12
f 14/14/14 13/13/13 12/12/12
f 15/15/15 13/13/13 14/14/14
f 16/16/16 15/15/15 14/14/14
f 17/17/17 15/15/15 16/16/16
f 18/18/18 17/17/17 16/16/16
f 19/19/19 17/17/17 18/18/18
f 20/20/20 19/19/19 18/18/18
f 21/21/21 19/19/19 20/20/20
f 22/22/22 21/21/21 20/20/20
f 23/23/23 21/21/21 22/22/22
f 24/24/24 23/23/23 22/22/22
f 25/25/25 23/23/23 24/24/24
f 26/26/26 25/25/25 24/24/24
f 27/27/27 25/25/25 26/26/26
f 28/28/28 27/27/27 26/26/26
f 29/29/29 27/27/27 28/28/28
f 30/30/30 29/29/29 28/28/28
f 31/31/31 29/29/29 30/30/30
f 32/32/32 31/31/31 30/30/30
f 33/33/33 31/31/31 32/32/32
f 34/34/34 33/33/33 32/32/32
f 35/35/35 33/33/33 34/34/34
f 36/36/36 35/35/35 34/34/34
f 37/37/37 35/35/35 36/36/36
f 38/38/38 37/37/37 36/36/36
f 39/39/39 37/37/37 38/38/38
f 40/40/40 39/39/39 38/38/38
f 41/41/41 39/39/39 40/40/40
f 42/42/42 41/41/41 40/40/40
f 45/45/45 44/44/44 43/43/43
f 46/46/46 44/44/44 45/45/45
f 47/47/47 44/44/44 46/46/46
f 48/48/48 44/44/44 47/47/47
f 49/49/49 44/44/44 48/48/48
f 50/50/50 44/44/44 49/49/49
f 51/51/51 44/44/44 50/50/50
f 52/52/52 44/44/44 51/51/51
f 53/53/53 44/44/44 52/52/52
f 54/54/54 44/44/44 53/53/53
f 55/55/55 44/44/44 54/54/54
f 56/56/56 44/44/44 55/55/55
f 57/57/57 44/44/44 56/56/56
f 58/58/58 44/44/44 57/57/57
f 59/59/59 44/44/44 58/58/58
f 60/60/60 44/44/44 59/59/59
f 61/61/61 44/44/44 60/60/60
f 62/62/62 44/44/44 61/61/61
f 63/63/63 44/44/44 62/62/62
f 43/43/43 44/44/44 63/63/63
